# WaveFront *.obj file
# Vertices: 1027
# Triangles : 2118
v 0.33333334140479565 -0.013333333481568843 -4.4408919992389527e-16
v 0.33333334140479565 0.013333333481568843 -4.4408919992389527e-16
v 2.04107798424437e-17 0.013333333481568843 -0.33333334140479565
v -0.33333334140479565 0.013333333481568843 -4.4408919992389527e-16
v -0.33333334140479565 -0.013333333481568843 -4.4408919992389527e-16
v 2.04107798424437e-17 -0.013333333481568843 -0.33333334140479565
v 0.3555555595085025 0.008888888987712562 -4.4408919992389527e-16
v 0.3555555595085025 0.013333333481568843 -4.4408919992389527e-16
v 2.1771499704911672e-17 0.013333333481568843 0.3555555595085025
v -0.3555555595085025 0.013333333481568843 -4.4408919992389527e-16
v -0.3555555595085025 0.008888888987712562 -4.4408919992389527e-16
v 2.1771499704911672e-17 0.008888888987712562 0.3555555595085025
v 0.8888889104127884 0.008888888987712562 -4.4408919992389527e-16
v 0.8888889104127884 0.013333333481568843 -4.4408919992389527e-16
v 5.442874796980947e-17 0.013333333481568843 -0.8888889104127884
v -0.8888889104127884 0.013333333481568843 -4.4408919992389527e-16
v -0.8888889104127884 0.008888888987712562 -4.4408919992389527e-16
v 5.442874796980947e-17 0.008888888987712562 -0.8888889104127884
v -0.9666666388511658 -0.013333333481568843 0.1316147157922387
v -0.9666666388511658 0.013333333481568843 0.1316147157922387
v -0.9333333000540733 0.013333333481568843 0.16494804294779897
v -0.8999999612569809 0.013333333481568843 0.1316147157922387
v -0.8999999612569809 -0.013333333481568843 0.1316147157922387
v -0.9333333000540733 -0.013333333481568843 0.16494804294779897
v 0.17555555095896125 -0.013333333481568843 0.3538369433954358
v 0.17555555095896125 0.008888888987712562 0.3538369433954358
v 0.18666666001081467 0.008888888987712562 0.36494804080575705
v 0.19777778070420027 0.008888888987712562 0.3538369433954358
v 0.19777778070420027 -0.013333333481568843 0.3538369433954358
v 0.18666666001081467 -0.013333333481568843 0.36494804080575705
v 0.38888887502253056 -0.013333333481568843 0.16717027174308896
v 0.38888887502253056 0.008888888987712562 0.16717027174308896
v 0.3999999724328518 0.008888888987712562 0.17828138079494238
v 0.41111111640930176 0.008888888987712562 0.16717027174308896
v 0.41111111640930176 -0.013333333481568843 0.16717027174308896
v 0.3999999724328518 -0.013333333481568843 0.17828138079494238
v 0.424444442614913 -0.013333333481568843 0.15828137984499335
v 0.424444442614913 0.008888888987712562 0.15828137984499335
v 0.4355555400252342 0.008888888987712562 0.16939248889684677
v 0.44666663743555546 0.008888888987712562 0.15828137984499335
v 0.44666663743555546 -0.013333333481568843 0.15828137984499335
v 0.4355555400252342 -0.013333333481568843 0.16939248889684677
v 0.4600000102072954 -0.013333333481568843 0.14939248794689775
v 0.4600000102072954 0.008888888987712562 0.14939248794689775
v 0.47111110761761665 0.008888888987712562 0.16050360864028335
v 0.4822222050279379 0.008888888987712562 0.14939248794689775
v 0.4822222050279379 -0.013333333481568843 0.14939248794689775
v 0.47111110761761665 -0.013333333481568843 0.16050360864028335
v 0.4955555312335491 -0.013333333481568843 0.14050360769033432
v 0.4955555312335491 0.008888888987712562 0.14050360769033432
v 0.5066666752099991 0.008888888987712562 0.15161471674218774
v 0.5177777726203203 0.008888888987712562 0.14050360769033432
v 0.5177777726203203 -0.013333333481568843 0.14050360769033432
v 0.5066666752099991 -0.013333333481568843 0.15161471674218774
v 0.5311110988259315 -0.013333333481568843 0.1316147157922387
v 0.5311110988259315 0.008888888987712562 0.1316147157922387
v 0.5422221962362528 0.008888888987712562 0.14272582484409213
v 0.5533333402127028 0.008888888987712562 0.1316147157922387
v 0.5533333402127028 -0.013333333481568843 0.1316147157922387
v 0.5422221962362528 -0.013333333481568843 0.14272582484409213
v 0.566666666418314 -0.013333333481568843 0.1227258238941431
v 0.566666666418314 0.008888888987712562 0.1227258238941431
v 0.5777777638286352 0.008888888987712562 0.13383693294599652
v 0.5888888612389565 0.008888888987712562 0.1227258238941431
v 0.5888888612389565 -0.013333333481568843 0.1227258238941431
v 0.5777777638286352 -0.013333333481568843 0.13383693294599652
v 0.6022221874445677 -0.013333333481568843 0.11383694363757968
v 0.6022221874445677 0.008888888987712562 0.11383694363757968
v 0.6133333314210176 0.008888888987712562 0.1249480526894331
v 0.6244444288313389 0.008888888987712562 0.11383694363757968
v 0.6244444288313389 -0.013333333481568843 0.11383694363757968
v 0.6133333314210176 -0.013333333481568843 0.1249480526894331
v 0.6377777550369501 -0.013333333481568843 0.10494805173948407
v 0.6377777550369501 0.008888888987712562 0.10494805173948407
v 0.6488888524472713 0.008888888987712562 0.11605916079133749
v 0.6599999964237213 0.008888888987712562 0.10494805173948407
v 0.6599999964237213 -0.013333333481568843 0.10494805173948407
v 0.6488888524472713 -0.013333333481568843 0.11605916079133749
v 0.6733333226293325 -0.013333333481568843 0.09605915984138846
v 0.6733333226293325 0.008888888987712562 0.09605915984138846
v 0.6844444200396538 0.008888888987712562 0.10717026889324188
v 0.695555517449975 0.008888888987712562 0.09605915984138846
v 0.695555517449975 -0.013333333481568843 0.09605915984138846
v 0.6844444200396538 -0.013333333481568843 0.10717026889324188
v 0.708888890221715 -0.013333333481568843 0.08717027376405895
v 0.708888890221715 0.008888888987712562 0.08717027376405895
v 0.7199999876320362 0.008888888987712562 0.09828138863667846
v 0.7311110850423574 0.008888888987712562 0.08717027376405895
v 0.7311110850423574 -0.013333333481568843 0.08717027376405895
v 0.7199999876320362 -0.013333333481568843 0.09828138863667846
v 0.7444444112479687 -0.013333333481568843 0.07828138186596334
v 0.7444444112479687 0.008888888987712562 0.07828138186596334
v 0.7555555552244186 0.008888888987712562 0.08939249673858285
v 0.7666666526347399 0.008888888987712562 0.07828138186596334
v 0.7666666526347399 -0.013333333481568843 0.07828138186596334
v 0.7555555552244186 -0.013333333481568843 0.08939249673858285
v 0.7799999788403511 -0.013333333481568843 0.06939249578863382
v 0.7799999788403511 0.008888888987712562 0.06939249578863382
v 0.7911111228168011 0.008888888987712562 0.08050360484048724
v 0.8022221736609936 0.008888888987712562 0.06939249578863382
v 0.8022221736609936 -0.013333333481568843 0.06939249578863382
v 0.7911111228168011 -0.013333333481568843 0.08050360484048724
v 0.8155555464327335 -0.013333333481568843 0.060503603890538216
v 0.8155555464327335 0.008888888987712562 0.060503603890538216
v 0.8266666904091835 0.008888888987712562 0.07161471876315773
v 0.837777741253376 0.008888888987712562 0.060503603890538216
v 0.837777741253376 -0.013333333481568843 0.060503603890538216
v 0.8266666904091835 -0.013333333481568843 0.07161471876315773
v 0.851111114025116 -0.013333333481568843 0.0516147178132087
v 0.851111114025116 0.008888888987712562 0.0516147178132087
v 0.8622221648693085 0.008888888987712562 0.06272582686506212
v 0.8733333088457584 0.008888888987712562 0.0516147178132087
v 0.8733333088457584 -0.013333333481568843 0.0516147178132087
v 0.8622221648693085 -0.013333333481568843 0.06272582686506212
v 0.8622221648693085 -0.013333333481568843 0.040503605850972235
v 0.8622221648693085 0.008888888987712562 0.040503605850972235
v 0.8266666904091835 -0.013333333481568843 0.0493924948386848
v 0.8266666904091835 0.008888888987712562 0.0493924948386848
v 0.7911111228168011 -0.013333333481568843 0.058281380916014314
v 0.7911111228168011 0.008888888987712562 0.058281380916014314
v 0.7555555552244186 -0.013333333481568843 0.06717027281410992
v 0.7555555552244186 0.008888888987712562 0.06717027281410992
v 0.7199999876320362 -0.013333333481568843 0.07605915889143944
v 0.7199999876320362 0.008888888987712562 0.07605915889143944
v 0.6844444200396538 -0.013333333481568843 0.08494805078953505
v 0.6844444200396538 0.008888888987712562 0.08494805078953505
v 0.6488888524472713 -0.013333333481568843 0.09383693686686456
v 0.6488888524472713 0.008888888987712562 0.09383693686686456
v 0.6133333314210176 -0.013333333481568843 0.10272582294419408
v 0.6133333314210176 0.008888888987712562 0.10272582294419408
v 0.5777777638286352 -0.013333333481568843 0.11161471484228969
v 0.5777777638286352 0.008888888987712562 0.11161471484228969
v 0.5422221962362528 -0.013333333481568843 0.1205036067403853
v 0.5422221962362528 0.008888888987712562 0.1205036067403853
v 0.5066666752099991 -0.013333333481568843 0.12939248699694872
v 0.5066666752099991 0.008888888987712562 0.12939248699694872
v 0.47111110761761665 -0.013333333481568843 0.13828137889504433
v 0.47111110761761665 0.008888888987712562 0.13828137889504433
v 0.4355555400252342 -0.013333333481568843 0.14717027079313993
v 0.4355555400252342 0.008888888987712562 0.14717027079313993
v 0.3999999724328518 -0.013333333481568843 0.15605916269123554
v 0.3999999724328518 0.008888888987712562 0.15605916269123554
v 0.18666666001081467 -0.013333333481568843 0.3427258227020502
v 0.18666666001081467 0.008888888987712562 0.3427258227020502
v -0.9333333000540733 -0.013333333481568843 0.09828137699514627
v -0.9333333000540733 0.013333333481568843 0.09828137699514627
v -0.9999668225646019 0.013333333481568843 0.008148380584316328
v -0.9999668225646019 -0.013333333481568843 0.008148380584316328
v -0.9811376221477985 -0.013333333481568843 0.04100851947441697
v -0.9971589781343937 -0.013333333481568843 0.0753253058064729
v -0.9971589781343937 0.013333333481568843 0.0753253058064729
v -0.9811376221477985 0.013333333481568843 0.04100851947441697
v 0.9991276077926159 0.013333333481568843 -0.04176044894848019
v 5.442874796980947e-17 0.013333333481568843 0.8888889104127884
v 5.442874796980947e-17 0.008888888987712562 0.8888889104127884
v 0.9991276077926159 -0.013333333481568843 -0.04176044894848019
v 2.1771499704911672e-17 0.008888888987712562 -0.3555555595085025
v 2.1771499704911672e-17 0.013333333481568843 -0.3555555595085025
v 2.04107798424437e-17 -0.013333333481568843 0.33333334140479565
v 2.04107798424437e-17 0.013333333481568843 0.33333334140479565
v 0.16666667070239782 0.013333333481568843 -0.28867514338344336
v 0.28867514338344336 0.013333333481568843 -0.16666667070239782
v -0.28867514338344336 0.013333333481568843 -0.16666667070239782
v -0.16666667070239782 0.013333333481568843 -0.28867514338344336
v -0.28867514338344336 -0.013333333481568843 -0.16666667070239782
v -0.16666667070239782 -0.013333333481568843 -0.28867514338344336
v 0.16666667070239782 -0.013333333481568843 -0.28867514338344336
v 0.28867514338344336 -0.013333333481568843 -0.16666667070239782
v 0.17777777975425124 0.013333333481568843 0.3079201327636838
v 0.3079201327636838 0.013333333481568843 0.17777777975425124
v -0.3079201327636838 0.013333333481568843 0.17777777975425124
v -0.17777777975425124 0.013333333481568843 0.3079201327636838
v -0.17777777975425124 0.008888888987712562 0.3079201327636838
v -0.3079201327636838 0.008888888987712562 0.17777777975425124
v 0.3079201327636838 0.008888888987712562 0.17777777975425124
v 0.17777777975425124 0.008888888987712562 0.3079201327636838
v 0.1977963838726282 0.013333333481568843 -0.8666025474667549
v 0.3856744384393096 0.013333333481568843 -0.800861231982708
v 0.554213160648942 0.013333333481568843 -0.6949613336473703
v 0.6949613336473703 0.013333333481568843 -0.554213160648942
v 0.800861231982708 0.013333333481568843 -0.3856744384393096
v 0.8666025474667549 0.013333333481568843 -0.1977963838726282
v -0.8666025474667549 0.013333333481568843 -0.1977963838726282
v -0.800861231982708 0.013333333481568843 -0.3856744384393096
v -0.6949613336473703 0.013333333481568843 -0.554213160648942
v -0.554213160648942 0.013333333481568843 -0.6949613336473703
v -0.3856744384393096 0.013333333481568843 -0.800861231982708
v -0.1977963838726282 0.013333333481568843 -0.8666025474667549
v -0.1977963838726282 0.008888888987712562 -0.8666025474667549
v -0.3856744384393096 0.008888888987712562 -0.800861231982708
v -0.554213160648942 0.008888888987712562 -0.6949613336473703
v -0.6949613336473703 0.008888888987712562 -0.554213160648942
v -0.800861231982708 0.008888888987712562 -0.3856744384393096
v -0.8666025474667549 0.008888888987712562 -0.1977963838726282
v 0.8666025474667549 0.008888888987712562 -0.1977963838726282
v 0.800861231982708 0.008888888987712562 -0.3856744384393096
v 0.6949613336473703 0.008888888987712562 -0.554213160648942
v 0.554213160648942 0.008888888987712562 -0.6949613336473703
v 0.3856744384393096 0.008888888987712562 -0.800861231982708
v 0.1977963838726282 0.008888888987712562 -0.8666025474667549
v -0.9569035843014717 0.013333333481568843 0.15518494183197618
v -0.9097631089389324 0.013333333481568843 0.15518494183197618
v -0.9097631089389324 -0.013333333481568843 0.15518494183197618
v -0.9569035843014717 -0.013333333481568843 0.15518494183197618
v -0.9569035843014717 -0.013333333481568843 0.10804448975250125
v -0.9097631089389324 -0.013333333481568843 0.10804448975250125
v -0.9097631089389324 0.013333333481568843 0.10804448975250125
v -0.9569035843014717 0.013333333481568843 0.10804448975250125
v -0.9603351354598999 0.013333333481568843 0.27884829323738813
v -0.8824304677546024 0.013333333481568843 0.4704428371042013
v -0.7667775265872478 0.013333333481568843 0.6419129204005003
v -0.6183236837387085 0.013333333481568843 0.7859235629439354
v -0.4434194415807724 0.013333333481568843 0.8963142521679401
v -0.24954676628112793 0.013333333481568843 0.9683627635240555
v -0.04499909118749201 0.013333333481568843 0.9989870712161064
v 0.16147354617714882 0.013333333481568843 0.9868770837783813
v 0.3610387211665511 0.013333333481568843 0.9325508028268814
v 0.5451595410704613 0.013333333481568843 0.8383323438465595
v 0.7059597410261631 0.013333333481568843 0.7082519587129354
v 0.8365606889128685 0.013333333481568843 0.5478742998093367
v 0.9313755668699741 0.013333333481568843 0.364059885032475
v 0.9863483719527721 0.013333333481568843 0.16467184759676456
v 0.9691665880382061 0.013333333481568843 -0.24640632327646017
v 0.8977469056844711 0.013333333481568843 -0.44051152653992176
v 0.7879238575696945 0.013333333481568843 -0.615772744640708
v 0.6443952210247517 0.013333333481568843 -0.7646926213055849
v 0.47330092638731003 0.013333333481568843 -0.8809007704257965
v 0.2819599350914359 0.013333333481568843 -0.9594261646270752
v 0.07855739095248282 0.013333333481568843 -0.9969095699489117
v -0.1282056444324553 0.013333333481568843 -0.9917476214468479
v -0.32948434818536043 0.013333333481568843 -0.9441610425710678
v -0.5166685208678246 0.013333333481568843 -0.8561855182051659
v -0.6817508488893509 0.013333333481568843 -0.7315844297409058
v -0.8176694624125957 0.013333333481568843 -0.5756879225373268
v -0.9186102077364922 0.013333333481568843 -0.39516487158834934
v -0.9802550077438354 0.013333333481568843 -0.19773761741816998
v 0.8666025474667549 0.013333333481568843 0.1977963838726282
v 0.800861231982708 0.013333333481568843 0.3856744384393096
v 0.6949613336473703 0.013333333481568843 0.554213160648942
v 0.554213160648942 0.013333333481568843 0.6949613336473703
v 0.3856744384393096 0.013333333481568843 0.800861231982708
v 0.1977963838726282 0.013333333481568843 0.8666025474667549
v -0.1977963838726282 0.013333333481568843 0.8666025474667549
v -0.3856744384393096 0.013333333481568843 0.800861231982708
v -0.554213160648942 0.013333333481568843 0.6949613336473703
v -0.6949613336473703 0.013333333481568843 0.554213160648942
v -0.800861231982708 0.013333333481568843 0.3856744384393096
v -0.8666025474667549 0.013333333481568843 0.1977963838726282
v 0.1977963838726282 0.008888888987712562 0.8666025474667549
v 0.3856744384393096 0.008888888987712562 0.800861231982708
v 0.554213160648942 0.008888888987712562 0.6949613336473703
v 0.6949613336473703 0.008888888987712562 0.554213160648942
v 0.800861231982708 0.008888888987712562 0.3856744384393096
v 0.8666025474667549 0.008888888987712562 0.1977963838726282
v -0.8666025474667549 0.008888888987712562 0.1977963838726282
v -0.800861231982708 0.008888888987712562 0.3856744384393096
v -0.6949613336473703 0.008888888987712562 0.554213160648942
v -0.554213160648942 0.008888888987712562 0.6949613336473703
v -0.3856744384393096 0.008888888987712562 0.800861231982708
v -0.1977963838726282 0.008888888987712562 0.8666025474667549
v -0.9603351354598999 -0.013333333481568843 0.27884829323738813
v -0.8824304677546024 -0.013333333481568843 0.4704428371042013
v -0.7667775265872478 -0.013333333481568843 0.6419129204005003
v -0.6183236837387085 -0.013333333481568843 0.7859235629439354
v -0.4434194415807724 -0.013333333481568843 0.8963142521679401
v -0.24954676628112793 -0.013333333481568843 0.9683627635240555
v -0.04499909118749201 -0.013333333481568843 0.9989870712161064
v 0.16147354617714882 -0.013333333481568843 0.9868770837783813
v 0.3610387211665511 -0.013333333481568843 0.9325508028268814
v 0.5451595410704613 -0.013333333481568843 0.8383323438465595
v 0.7059597410261631 -0.013333333481568843 0.7082519587129354
v 0.8365606889128685 -0.013333333481568843 0.5478742998093367
v 0.9313755668699741 -0.013333333481568843 0.364059885032475
v 0.9863483719527721 -0.013333333481568843 0.16467184759676456
v 0.9691665880382061 -0.013333333481568843 -0.24640632327646017
v 0.8977469056844711 -0.013333333481568843 -0.44051152653992176
v 0.7879238575696945 -0.013333333481568843 -0.615772744640708
v 0.6443952210247517 -0.013333333481568843 -0.7646926213055849
v 0.47330092638731003 -0.013333333481568843 -0.8809007704257965
v 0.2819599350914359 -0.013333333481568843 -0.9594261646270752
v 0.07855739095248282 -0.013333333481568843 -0.9969095699489117
v -0.1282056444324553 -0.013333333481568843 -0.9917476214468479
v -0.32948434818536043 -0.013333333481568843 -0.9441610425710678
v -0.5166685208678246 -0.013333333481568843 -0.8561855182051659
v -0.6817508488893509 -0.013333333481568843 -0.7315844297409058
v -0.8176694624125957 -0.013333333481568843 -0.5756879225373268
v -0.9186102077364922 -0.013333333481568843 -0.39516487158834934
v -0.9802550077438354 -0.013333333481568843 -0.19773761741816998
v 0.17777777975425124 0.008888888987712562 -0.3079201327636838
v 0.3079201327636838 0.008888888987712562 -0.17777777975425124
v -0.3079201327636838 0.008888888987712562 -0.17777777975425124
v -0.17777777975425124 0.008888888987712562 -0.3079201327636838
v -0.17777777975425124 0.013333333481568843 -0.3079201327636838
v -0.3079201327636838 0.013333333481568843 -0.17777777975425124
v 0.3079201327636838 0.013333333481568843 -0.17777777975425124
v 0.17777777975425124 0.013333333481568843 -0.3079201327636838
v 0.28867514338344336 -0.013333333481568843 0.16666667070239782
v 0.16666667070239782 -0.013333333481568843 0.28867514338344336
v -0.16666667070239782 -0.013333333481568843 0.28867514338344336
v -0.28867514338344336 -0.013333333481568843 0.16666667070239782
v -0.16666667070239782 0.013333333481568843 0.28867514338344336
v -0.28867514338344336 0.013333333481568843 0.16666667070239782
v 0.28867514338344336 0.013333333481568843 0.16666667070239782
v 0.16666667070239782 0.013333333481568843 0.28867514338344336
v 0.3434402868151665 0.013333333481568843 0.09202454821206629
v -0.3434402868151665 0.013333333481568843 0.09202454821206629
v -0.3434402868151665 0.008888888987712562 0.09202454821206629
v 0.3434402868151665 0.008888888987712562 0.09202454821206629
v 0.8832997642457485 0.013333333481568843 -0.0995239824987948
v -0.8832997642457485 0.013333333481568843 -0.0995239824987948
v -0.8832997642457485 0.008888888987712562 -0.0995239824987948
v 0.8832997642457485 0.008888888987712562 -0.0995239824987948
v 0.8832997642457485 0.013333333481568843 0.0995239824987948
v -0.8832997642457485 0.013333333481568843 0.0995239824987948
v 0.8832997642457485 0.008888888987712562 0.0995239824987948
v -0.8832997642457485 0.008888888987712562 0.0995239824987948
v 0.3434402868151665 0.008888888987712562 -0.09202454821206629
v -0.3434402868151665 0.008888888987712562 -0.09202454821206629
v -0.3434402868151665 0.013333333481568843 -0.09202454821206629
v 0.3434402868151665 0.013333333481568843 -0.09202454821206629
v -0.35251372028142214 0.013333333481568843 0.04640931147150695
v 0.35251372028142214 0.008888888987712562 0.04640931147150695
v -0.8874905295670033 0.013333333481568843 -0.04984039696864784
v 0.8874905295670033 0.008888888987712562 -0.04984039696864784
v 0.8874905295670033 0.013333333481568843 0.04984039696864784
v -0.8874905295670033 0.008888888987712562 0.04984039696864784
v -0.35251372028142214 0.008888888987712562 -0.04640931147150695
v 0.35251372028142214 0.013333333481568843 -0.04640931147150695
v 0.35251372028142214 0.013333333481568843 0.04640931147150695
v -0.35251372028142214 0.008888888987712562 0.04640931147150695
v 0.8874905295670033 0.013333333481568843 -0.04984039696864784
v -0.8874905295670033 0.008888888987712562 -0.04984039696864784
v -0.8874905295670033 0.013333333481568843 0.04984039696864784
v 0.8874905295670033 0.008888888987712562 0.04984039696864784
v 0.35251372028142214 0.008888888987712562 -0.04640931147150695
v -0.35251372028142214 0.013333333481568843 -0.04640931147150695
v -0.3547942731529474 0.013333333481568843 0.023254446568898857
v 0.3547942731529474 0.008888888987712562 0.023254446568898857
v -0.8885391987860203 0.013333333481568843 -0.024930006475187838
v 0.8885391987860203 0.008888888987712562 -0.024930006475187838
v 0.8885391987860203 0.013333333481568843 0.024930006475187838
v -0.8885391987860203 0.008888888987712562 0.024930006475187838
v -0.3547942731529474 0.008888888987712562 -0.023254446568898857
v 0.3547942731529474 0.013333333481568843 -0.023254446568898857
v 0.3547942731529474 0.013333333481568843 0.023254446568898857
v -0.3547942731529474 0.008888888987712562 0.023254446568898857
v 0.8885391987860203 0.013333333481568843 -0.024930006475187838
v -0.8885391987860203 0.008888888987712562 -0.024930006475187838
v -0.8885391987860203 0.013333333481568843 0.024930006475187838
v 0.8885391987860203 0.008888888987712562 0.024930006475187838
v 0.3547942731529474 0.008888888987712562 -0.023254446568898857
v -0.3547942731529474 0.013333333481568843 -0.023254446568898857
v 0.17880991799756885 -0.0022222222469281405 0.36169367376714945
v 0.1945234020240605 -0.0022222222469281405 0.36169367376714945
v 0.18666666001081467 -0.0022222222469281405 0.36494804080575705
v 0.39214324206113815 -0.0022222222469281405 0.17502701375633478
v 0.40785674937069416 -0.0022222222469281405 0.17502701375633478
v 0.3999999724328518 -0.0022222222469281405 0.17828138079494238
v 0.4276988096535206 -0.0022222222469281405 0.16613812185823917
v 0.44341227039694786 -0.0022222222469281405 0.16613812185823917
v 0.4355555400252342 -0.0022222222469281405 0.16939248889684677
v 0.463254377245903 -0.0022222222469281405 0.15724922996014357
v 0.4789678379893303 -0.0022222222469281405 0.15724922996014357
v 0.47111110761761665 -0.0022222222469281405 0.16050360864028335
v 0.4988098982721567 -0.0022222222469281405 0.14836034970358014
v 0.5145234055817127 -0.0022222222469281405 0.14836034970358014
v 0.5066666752099991 -0.0022222222469281405 0.15161471674218774
v 0.5343654658645391 -0.0022222222469281405 0.13947145780548453
v 0.5500789731740952 -0.0022222222469281405 0.13947145780548453
v 0.5422221962362528 -0.0022222222469281405 0.14272582484409213
v 0.5699210334569216 -0.0022222222469281405 0.13058256590738893
v 0.5856344942003489 -0.0022222222469281405 0.13058256590738893
v 0.5777777638286352 -0.0022222222469281405 0.13383693294599652
v 0.6054765544831753 -0.0022222222469281405 0.1216936856508255
v 0.6211900617927313 -0.0022222222469281405 0.1216936856508255
v 0.6133333314210176 -0.0022222222469281405 0.1249480526894331
v 0.6410321220755577 -0.0022222222469281405 0.11280479375272989
v 0.6567456293851137 -0.0022222222469281405 0.11280479375272989
v 0.6488888524472713 -0.0022222222469281405 0.11605916079133749
v 0.6765876896679401 -0.0022222222469281405 0.10391590185463428
v 0.6923011504113674 -0.0022222222469281405 0.10391590185463428
v 0.6844444200396538 -0.0022222222469281405 0.10717026889324188
v 0.7121432572603226 -0.0022222222469281405 0.09502701577730477
v 0.7278567180037498 -0.0022222222469281405 0.09502701577730477
v 0.7199999876320362 -0.0022222222469281405 0.09828138863667846
v 0.7476987782865763 -0.0022222222469281405 0.08613812387920916
v 0.7634122855961323 -0.0022222222469281405 0.08613812387920916
v 0.7555555552244186 -0.0022222222469281405 0.08939249673858285
v 0.7832543924450874 -0.0022222222469281405 0.07724923780187964
v 0.7989678531885147 -0.0022222222469281405 0.07724923780187964
v 0.7911111228168011 -0.0022222222469281405 0.08050360484048724
v 0.8188098669052124 -0.0022222222469281405 0.06836034590378404
v 0.8345234207808971 -0.0022222222469281405 0.06836034590378404
v 0.8266666904091835 -0.0022222222469281405 0.07161471876315773
v 0.8543654344975948 -0.0022222222469281405 0.05947145982645452
v 0.8700789883732796 -0.0022222222469281405 0.05947145982645452
v 0.8622221648693085 -0.0022222222469281405 0.06272582686506212
v 0.8543654344975948 -0.0022222222469281405 0.04375797579996288
v 0.8700789883732796 -0.0022222222469281405 0.04375797579996288
v 0.8622221648693085 -0.0022222222469281405 0.040503605850972235
v 0.8188098669052124 -0.0022222222469281405 0.052646861877292395
v 0.8345234207808971 -0.0022222222469281405 0.052646861877292395
v 0.8266666904091835 -0.0022222222469281405 0.0493924948386848
v 0.7832543924450874 -0.0022222222469281405 0.061535753775388
v 0.7989678531885147 -0.0022222222469281405 0.061535753775388
v 0.7911111228168011 -0.0022222222469281405 0.058281380916014314
v 0.7476987782865763 -0.0022222222469281405 0.07042463985271752
v 0.7634122855961323 -0.0022222222469281405 0.07042463985271752
v 0.7555555552244186 -0.0022222222469281405 0.06717027281410992
v 0.7121432572603226 -0.0022222222469281405 0.07931353175081313
v 0.7278567180037498 -0.0022222222469281405 0.07931353175081313
v 0.7199999876320362 -0.0022222222469281405 0.07605915889143944
v 0.6765876896679401 -0.0022222222469281405 0.08820241782814264
v 0.6923011504113674 -0.0022222222469281405 0.08820241782814264
v 0.6844444200396538 -0.0022222222469281405 0.08494805078953505
v 0.6410321220755577 -0.0022222222469281405 0.09709130972623825
v 0.6567456293851137 -0.0022222222469281405 0.09709130972623825
v 0.6488888524472713 -0.0022222222469281405 0.09383693686686456
v 0.6054765544831753 -0.0022222222469281405 0.10598020162433386
v 0.6211900617927313 -0.0022222222469281405 0.10598020162433386
v 0.6133333314210176 -0.0022222222469281405 0.10272582294419408
v 0.5699210334569216 -0.0022222222469281405 0.11486908188089728
v 0.5856344942003489 -0.0022222222469281405 0.11486908188089728
v 0.5777777638286352 -0.0022222222469281405 0.11161471484228969
v 0.5343654658645391 -0.0022222222469281405 0.12375797377899289
v 0.5500789731740952 -0.0022222222469281405 0.12375797377899289
v 0.5422221962362528 -0.0022222222469281405 0.1205036067403853
v 0.4988098982721567 -0.0022222222469281405 0.1326468656770885
v 0.5145234055817127 -0.0022222222469281405 0.1326468656770885
v 0.5066666752099991 -0.0022222222469281405 0.12939248699694872
v 0.463254377245903 -0.0022222222469281405 0.14153574593365192
v 0.4789678379893303 -0.0022222222469281405 0.14153574593365192
v 0.47111110761761665 -0.0022222222469281405 0.13828137889504433
v 0.4276988096535206 -0.0022222222469281405 0.15042463783174753
v 0.44341227039694786 -0.0022222222469281405 0.15042463783174753
v 0.4355555400252342 -0.0022222222469281405 0.14717027079313993
v 0.39214324206113815 -0.0022222222469281405 0.15931352972984314
v 0.40785674937069416 -0.0022222222469281405 0.15931352972984314
v 0.3999999724328518 -0.0022222222469281405 0.15605916269123554
v 0.17880991799756885 -0.0022222222469281405 0.3459801897406578
v 0.1945234020240605 -0.0022222222469281405 0.3459801897406578
v 0.18666666001081467 -0.0022222222469281405 0.3427258227020502
v -0.9262839332222939 0.013333333481568843 -0.0005244981366558932
v -0.9248561225831509 0.013333333481568843 -0.05141347646713257
v -0.9248561225831509 0.013333333481568843 0.05141347646713257
v -0.8967217057943344 0.013333333481568843 0.2533363876864314
v -0.9479779750108719 0.013333333481568843 0.20030338782817125
v 0.9259047918021679 0.013333333481568843 0.02650308597367257
v 0.9248561225831509 0.013333333481568843 -0.05141347646713257
v 0.9262839332222939 0.013333333481568843 -0.0005244981366558932
v -0.8951184339821339 0.013333333481568843 0.19054027507081628
v -0.8514938876032829 0.008888888987712562 -0.0005244981366558932
v -0.7196301128715277 0.008888888987712562 0.24784747511148453
v -0.7662446238100529 0.008888888987712562 0.1807448803447187
v -0.8087744005024433 0.008888888987712562 0.09323784033767879
v -0.7047774735838175 0.008888888987712562 0.35205327440053225
v -0.6087679881602526 0.008888888987712562 0.5000542849302292
v -0.4822323564440012 0.008888888987712562 0.6229805294424295
v -0.23667321074754 0.008888888987712562 0.7882879115641117
v -0.33151558600366116 0.008888888987712562 0.7146678864955902
v -0.062374217668548226 0.008888888987712562 0.8273222483694553
v -0.16417521983385086 0.008888888987712562 0.7705188356339931
v -0.8501249365508556 0.008888888987712562 0.04826731455978006
v 0.10538720525801182 0.008888888987712562 0.7488659583032131
v 0.011397561320336536 0.008888888987712562 0.7877327501773834
v 0.18639882327988744 0.008888888987712562 0.7654464337974787
v 0.35205327440053225 0.008888888987712562 0.7047774735838175
v 0.5000542849302292 0.008888888987712562 0.6087679881602526
v 0.6904893554747105 0.008888888987712562 0.4465485457330942
v 0.6229805294424295 0.008888888987712562 0.4822323564440012
v 0.7954166270792484 0.008888888987712562 0.24036471731960773
v 0.7146678864955902 0.008888888987712562 0.33151558600366116
v 0.84583330899477 0.008888888987712562 0.1574480440467596
v 0.8455554954707623 0.008888888987712562 0.07939249626360834
v 0.8438888937234879 0.008888888987712562 0.11105915764346719
v 0.8455554954707623 0.008888888987712562 0.023836939362809062
v 0.8511441759765148 0.008888888987712562 -0.024405507429037243
v 0.7196301128715277 0.008888888987712562 -0.24784747511148453
v 0.7662446238100529 0.008888888987712562 -0.1807448803447187
v 0.8087744005024433 0.008888888987712562 -0.09323784033767879
v 0.7047774735838175 0.008888888987712562 -0.35205327440053225
v 0.6087679881602526 0.008888888987712562 -0.5000542849302292
v 0.4822323564440012 0.008888888987712562 -0.6229805294424295
v 0.33151558600366116 0.008888888987712562 -0.7146678864955902
v 0.16417521983385086 0.008888888987712562 -0.7705188356339931
v -0.10538720525801182 0.008888888987712562 -0.7488659583032131
v -0.011397561320336536 0.008888888987712562 -0.7877327501773834
v 0.06786719895899296 0.008888888987712562 -0.731629179790616
v -0.2774469321593642 0.008888888987712562 -0.7436099927872419
v -0.18639882327988744 0.008888888987712562 -0.7654464337974787
v -0.4307802766561508 0.008888888987712562 -0.6969433277845383
v -0.35205327440053225 0.008888888987712562 -0.7047774735838175
v -0.5000542849302292 0.008888888987712562 -0.6087679881602526
v -0.6229805294424295 0.008888888987712562 -0.4822323564440012
v -0.7196301128715277 0.008888888987712562 -0.24784747511148453
v -0.7146678864955902 0.008888888987712562 -0.33151558600366116
v -0.8087744005024433 0.008888888987712562 -0.09323784033767879
v -0.7662446238100529 0.008888888987712562 -0.1807448803447187
v -0.8501249365508556 0.008888888987712562 -0.04826731455978006
v 0.8100000210106373 0.008888888987712562 0.08828138234093785
v 0.8100000210106373 0.008888888987712562 0.032725828350521624
v 0.7744444068521261 0.008888888987712562 0.09717027423903346
v 0.7744444068521261 0.008888888987712562 0.041614717338234186
v 0.7388888858258724 0.008888888987712562 0.10605916613712907
v 0.7388888858258724 0.008888888987712562 0.0505036034155637
v 0.70333331823349 0.008888888987712562 0.1149480463936925
v 0.70333331823349 0.008888888987712562 0.05939249531365931
v 0.6677777506411076 0.008888888987712562 0.1238369382917881
v 0.6677777506411076 0.008888888987712562 0.06828138139098883
v 0.6322222296148539 0.008888888987712562 0.1327258301898837
v 0.6322222296148539 0.008888888987712562 0.07717027328908443
v 0.5966666620224714 0.008888888987712562 0.14161471044644713
v 0.5966666620224714 0.008888888987712562 0.08605915936641395
v 0.561111094430089 0.008888888987712562 0.15050360234454274
v 0.561111094430089 0.008888888987712562 0.09494805126450956
v 0.5255555268377066 0.008888888987712562 0.15939249424263835
v 0.5255555268377066 0.008888888987712562 0.10383693734183908
v 0.49000000581145287 0.008888888987712562 0.16828138614073396
v 0.49000000581145287 0.008888888987712562 0.11272582923993468
v 0.45444443821907043 0.008888888987712562 0.17717026639729738
v 0.45444443821907043 0.008888888987712562 0.12161470949649811
v 0.418888870626688 0.008888888987712562 0.186059158295393
v 0.418888870626688 0.008888888987712562 0.13050360139459372
v 0.38333332631736994 0.008888888987712562 0.1949480501934886
v 0.37222220562398434 0.008888888987712562 0.15050360234454274
v 0.38277776911854744 0.008888888987712562 0.11661471799015999
v 0.2144444501027465 0.008888888987712562 0.37050358951091766
v 0.20333332940936089 0.008888888987712562 0.326059153303504
v 0.16999999061226845 0.008888888987712562 0.38161471020430326
v 0.15888888156041503 0.008888888987712562 0.3371702739968896
v -0.39043722208589315 0.008888888987712562 -0.0011419076145102736
v -0.38967595901340246 0.008888888987712562 0.0243963542743586
v -0.33757772762328386 0.008888888987712562 -0.350187998265028
v -0.4019675776362419 0.008888888987712562 -0.21673350129276514
v -0.41186315938830376 0.008888888987712562 -0.10563470423221588
v -0.15220614150166512 0.008888888987712562 -0.46197795309126377
v -0.24975857231765985 0.008888888987712562 -0.3799009369686246
v -0.38952657487243414 0.008888888987712562 -0.026675278786569834
v 0.1069015241228044 0.008888888987712562 -0.38148374296724796
v 0.07047628168947995 0.008888888987712562 -0.46235341578722
v -0.026346801314502954 0.008888888987712562 -0.4538831766694784
v 0.3219742327928543 0.008888888987712562 -0.2552999183535576
v 0.2499934285879135 0.008888888987712562 -0.3272807225584984
v 0.2041245810687542 0.008888888987712562 -0.40624774992465973
v 0.41186315938830376 0.008888888987712562 -0.10563470423221588
v 0.4019675776362419 0.008888888987712562 -0.21673350129276514
v 0.38724602200090885 0.008888888987712562 -0.049830146599560976
v 0.38967595901340246 0.008888888987712562 -0.0243963542743586
v 0.39043722208589315 0.008888888987712562 0.0011419076145102736
v 0.2658333396539092 0.008888888987712562 0.26355914305895567
v 0.3208333160728216 0.008888888987712562 0.25744803715497255
v 0.3583333222195506 0.008888888987712562 0.21994805429130793
v 0.22833333350718021 0.008888888987712562 0.30105914920568466
v 0.38952657487243414 0.008888888987712562 0.026675278786569834
v -0.0514006766024977 0.008888888987712562 0.4482276737689972
v 0.026346801314502954 0.008888888987712562 0.4538831766694784
v 0.10749999200925231 0.008888888987712562 0.4441147204488516
v 0.1449999981559813 0.008888888987712562 0.4066146910190582
v -0.350187998265028 0.008888888987712562 0.33757772762328386
v -0.2041245810687542 0.008888888987712562 0.40624774992465973
v -0.15220614150166512 0.008888888987712562 0.46197795309126377
v -0.41186315938830376 0.008888888987712562 0.10563470423221588
v -0.4019675776362419 0.008888888987712562 0.21673350129276514
v -0.38724602200090885 0.008888888987712562 0.049830146599560976
v -0.7954013533890247 0.008888888987712562 -0.0013112454325892031
v -0.6086936686187983 0.008888888987712562 0.3184321103617549
v -0.6658867001533508 0.008888888987712562 0.16369337681680918
v -0.7115290965884924 0.008888888987712562 0.034998232149519026
v -0.7940765470266342 0.008888888987712562 0.04590769240166992
v -0.5225746426731348 0.008888888987712562 0.4458954557776451
v -0.4102515522390604 0.008888888987712562 0.5509997252374887
v -0.27735671028494835 0.008888888987712562 0.6284745410084724
v -0.06063482724130154 0.008888888987712562 0.7189162075519562
v -0.1305540557950735 0.008888888987712562 0.6744350772351027
v 0.17500126268714666 0.008888888987712562 0.6642902735620737
v 0.11801263317465782 0.008888888987712562 0.6202687509357929
v 0.02279512264067307 0.008888888987712562 0.6865765899419785
v 0.24825404398143291 0.008888888987712562 0.6278051063418388
v 0.3184321103617549 0.008888888987712562 0.6086936686187983
v 0.4458954557776451 0.008888888987712562 0.5225746426731348
v 0.35579041577875614 0.008888888987712562 0.5469353869557381
v 0.6429530214518309 0.008888888987712562 0.3767899703234434
v 0.5509997252374887 0.008888888987712562 0.4102515522390604
v 0.7662446238100529 0.008888888987712562 0.1807448803447187
v 0.7280555553734303 0.008888888987712562 0.19522582879289985
v 0.7243055384606123 0.008888888987712562 0.25814250111579895
v 0.6284745410084724 0.008888888987712562 0.27735671028494835
v 0.8083333261311054 0.008888888987712562 0.1199480495415628
v 0.8205555379390717 0.008888888987712562 -0.0011630608241830487
v 0.7940765470266342 0.008888888987712562 -0.04590769240166992
v 0.6086936686187983 0.008888888987712562 -0.3184321103617549
v 0.5717328283935785 0.008888888987712562 -0.22776355035603046
v 0.6658867001533508 0.008888888987712562 -0.16369337681680918
v 0.7073383312672377 0.008888888987712562 -0.08468181476928294
v 0.5225746426731348 0.008888888987712562 -0.4458954557776451
v 0.4102515522390604 0.008888888987712562 -0.5509997252374887
v 0.27735671028494835 0.008888888987712562 -0.6284745410084724
v 0.1305540557950735 0.008888888987712562 -0.6744350772351027
v -0.17500126268714666 0.008888888987712562 -0.6642902735620737
v -0.09792976779863238 0.008888888987712562 -0.6085372529923916
v -0.02279512264067307 0.008888888987712562 -0.6865765899419785
v 0.033181338221766055 0.008888888987712562 -0.6329817231744528
v -0.2521327929571271 0.008888888987712562 -0.6516291759908199
v -0.3943549934774637 0.008888888987712562 -0.6160736083984375
v -0.3184321103617549 0.008888888987712562 -0.6086936686187983
v -0.4458954557776451 0.008888888987712562 -0.5225746426731348
v -0.5509997252374887 0.008888888987712562 -0.4102515522390604
v -0.6658867001533508 0.008888888987712562 -0.16369337681680918
v -0.6284745410084724 0.008888888987712562 -0.27735671028494835
v -0.7940765470266342 0.008888888987712562 -0.04590769240166992
v -0.7073383312672377 0.008888888987712562 -0.08468181476928294
v 0.7849999703466892 0.008888888987712562 0.007725827890681103
v 0.772777758538723 0.008888888987712562 0.1288369414396584
v 0.7494444493204355 0.008888888987712562 0.016614716150797904
v 0.7372221909463406 0.008888888987712562 0.13772582169622183
v 0.7138888817280531 0.008888888987712562 0.025503605138510466
v 0.7016666699200869 0.008888888987712562 0.14661471359431744
v 0.6783333141356707 0.008888888987712562 0.03439249412622303
v 0.6661111023277044 0.008888888987712562 0.15550360549241304
v 0.6427777465432882 0.008888888987712562 0.04328138311393559
v 0.630555534735322 0.008888888987712562 0.16439249739050865
v 0.6072222255170345 0.008888888987712562 0.052170269191265106
v 0.5949999671429396 0.008888888987712562 0.17328137764707208
v 0.5716666579246521 0.008888888987712562 0.061059161089360714
v 0.5594444461166859 0.008888888987712562 0.18217026954516768
v 0.5361110903322697 0.008888888987712562 0.06994804716669023
v 0.5238888785243034 0.008888888987712562 0.1910591614432633
v 0.5005555227398872 0.008888888987712562 0.07883693906478584
v 0.488333310931921 0.008888888987712562 0.19994804169982672
v 0.46500000171363354 0.008888888987712562 0.08772582514211535
v 0.4527777899056673 0.008888888987712562 0.20883693359792233
v 0.4294444341212511 0.008888888987712562 0.09661471704021096
v 0.3919444512575865 0.008888888987712562 0.2396702766418457
v 0.23944443091750145 0.008888888987712562 0.395503593608737
v -0.4427597392350435 0.008888888987712562 -0.002854769081750419
v -0.4393444862216711 0.008888888987712562 0.054961396381258965
v -0.32173937652260065 0.008888888987712562 -0.45188176445662975
v -0.45188176445662975 0.008888888987712562 -0.32173937652260065
v -0.4960150457918644 0.008888888987712562 -0.2556892344728112
v -0.45608789660036564 0.008888888987712562 -0.16903900541365147
v -0.5207768175750971 0.008888888987712562 -0.07987892604433
v -0.4393444862216711 0.008888888987712562 -0.054961396381258965
v -0.05269360262900591 0.008888888987712562 -0.55221077054739
v -0.1636037020944059 0.008888888987712562 -0.5631341133266687
v -0.23047139402478933 0.008888888987712562 -0.5045753438025713
v 0.15220614150166512 0.008888888987712562 -0.46197795309126377
v 0.05269360262900591 0.008888888987712562 -0.55221077054739
v 0.350187998265028 0.008888888987712562 -0.33757772762328386
v 0.32173937652260065 0.008888888987712562 -0.45188176445662975
v 0.23047139402478933 0.008888888987712562 -0.5045753438025713
v 0.4393444862216711 0.008888888987712562 -0.054961396381258965
v 0.5117034073919058 0.008888888987712562 -0.12549415696412325
v 0.4960150457918644 0.008888888987712562 -0.2556892344728112
v 0.45188176445662975 0.008888888987712562 -0.32173937652260065
v 0.4427597392350435 0.008888888987712562 -0.002854769081750419
v 0.33757772762328386 0.008888888987712562 0.350187998265028
v 0.4393444862216711 0.008888888987712562 0.054961396381258965
v -0.05269360262900591 0.008888888987712562 0.55221077054739
v 0.05269360262900591 0.008888888987712562 0.55221077054739
v 0.1636037020944059 0.008888888987712562 0.5631341133266687
v 0.23047139402478933 0.008888888987712562 0.5045753438025713
v -0.45188176445662975 0.008888888987712562 0.32173937652260065
v -0.32173937652260065 0.008888888987712562 0.45188176445662975
v -0.23047139402478933 0.008888888987712562 0.5045753438025713
v -0.1636037020944059 0.008888888987712562 0.5631341133266687
v -0.5117034073919058 0.008888888987712562 0.12549415696412325
v -0.4960150457918644 0.008888888987712562 0.2556892344728112
v -0.6206170655786991 0.008888888987712562 0.09973838459700346
v -0.6100930739194155 0.008888888987712562 0.026442203670740128
v 0.47530755400657654 0.008888888987712562 0.4229737911373377
v 0.40506613440811634 0.008888888987712562 0.3865485545247793
v 0.32173937652260065 0.008888888987712562 0.45188176445662975
v 0.5709722172468901 0.008888888987712562 0.3048091661185026
v 0.45188176445662975 0.008888888987712562 0.32173937652260065
v 0.6680555641651154 0.008888888987712562 0.20189250353723764
v 0.6213888991624117 0.008888888987712562 0.2218924928456545
v 0.5613888613879681 0.008888888987712562 0.2285591559484601
v 0.7363888900727034 0.008888888987712562 -0.018663061200641096
v 0.6206170655786991 0.008888888987712562 -0.09973838459700346
v 0.6652777548879385 0.008888888987712562 -0.0008852835890138522
v 0.1636037020944059 0.008888888987712562 -0.5631341133266687
v -0.6206170655786991 0.008888888987712562 -0.09973838459700346
v -0.5315351765602827 0.008888888987712562 -0.16993600875139236
v 0.5941666662693024 0.008888888987712562 0.01689249329501763
v 0.5230555310845375 0.008888888987712562 0.03467026981525123
v 0.5147221963852644 0.008888888987712562 0.2485591685399413
v 0.27694443706423044 0.008888888987712562 0.4330035764724016
v -0.5212435033172369 0.008888888987712562 -0.005424061237135902
v -0.5174921359866858 0.008888888987712562 0.06265827105380595
v 0.5174921359866858 0.008888888987712562 -0.06265827105380595
v 0.5734722130000591 0.008888888987712562 -0.04824639472644776
v -0.9479779750108719 -0.013333333481568843 0.06292604375630617
v -0.9318473748862743 -0.013333333481568843 0.01276469265576452
v -0.8767412975430489 -0.013333333481568843 -0.06246118573471904
v 0.9273974224925041 -0.013333333481568843 -0.13133831089362502
v 0.9525000117719173 -0.013333333481568843 -0.027551950188353658
v 0.9413888677954674 -0.013333333481568843 0.14189248904585838
v 0.8786407299339771 -0.013333333481568843 -0.32474747858941555
v 0.8684441447257996 -0.013333333481568843 -0.23166011087596416
v 0.8022123947739601 -0.013333333481568843 -0.4053602460771799
v 0.701663875952363 -0.013333333481568843 -0.5617200396955013
v 0.5710999015718699 -0.013333333481568843 -0.6940507795661688
v 0.32474747858941555 -0.013333333481568843 -0.8786407299339771
v 0.41610561311244965 -0.013333333481568843 -0.7966917008161545
v 0.1580808195285499 -0.013333333481568843 -0.9232989512383938
v 0.24331137537956238 -0.013333333481568843 -0.8652521297335625
v 0.0601088278926909 -0.013333333481568843 -0.8967990055680275
v -0.20720551256090403 -0.013333333481568843 -0.8511463180184364
v -0.12566501973196864 -0.013333333481568843 -0.8899831213057041
v -0.3849832806736231 -0.013333333481568843 -0.8067019283771515
v -0.3060632152482867 -0.013333333481568843 -0.845095794647932
v -0.5985514726489782 -0.013333333481568843 -0.7205599453300238
v -0.47336877323687077 -0.013333333481568843 -0.764057319611311
v -0.7205599453300238 -0.013333333481568843 -0.5985514726489782
v -0.620424747467041 -0.013333333481568843 -0.6503343116492033
v -0.7409404497593641 -0.013333333481568843 -0.5087915807962418
v -0.8297604508697987 -0.013333333481568843 -0.34548393450677395
v -0.8789220824837685 -0.013333333481568843 -0.18803586717694998
v -0.8637711405754089 -0.013333333481568843 0.332885910756886
v -0.8601653389632702 -0.013333333481568843 0.2607243601232767
v -0.9186886250972748 -0.013333333481568843 0.20030338782817125
v -0.9479779750108719 -0.013333333481568843 0.20030338782817125
v -0.7858596742153168 -0.013333333481568843 0.5209808237850666
v -0.7881316356360912 -0.013333333481568843 0.4320997279137373
v -0.6823834963142872 -0.013333333481568843 0.5849909037351608
v -0.5474446341395378 -0.013333333481568843 0.7128576282411814
v -0.32474747858941555 -0.013333333481568843 0.8786407299339771
v -0.3890874097123742 -0.013333333481568843 0.8102299645543098
v -0.1580808195285499 -0.013333333481568843 0.9232989512383938
v -0.214085984043777 -0.013333333481568843 0.8729426190257072
v -0.029926450224593282 -0.013333333481568843 0.898312870413065
v 0.1555132563225925 -0.013333333481568843 0.8852554485201836
v 0.3343004733324051 -0.013333333481568843 0.8343289606273174
v 0.5985514726489782 -0.013333333481568843 0.7205599453300238
v 0.49878712743520737 -0.013333333481568843 0.7477118168026209
v 0.7205599453300238 -0.013333333481568843 0.5985514726489782
v 0.6419368553906679 -0.013333333481568843 0.6291094236075878
v 0.8216004818677902 -0.013333333481568843 0.422104075551033
v 0.7576260715723038 -0.013333333481568843 0.48359520733356476
v 0.9265277534723282 -0.013333333481568843 0.2159202704206109
v 0.8409058675169945 -0.013333333481568843 0.31739394180476665
v 0.8899999782443047 -0.013333333481568843 0.034948051325045526
v 0.8683333173394203 -0.013333333481568843 0.007725827890681103
v 0.8455554954707623 -0.013333333481568843 0.023836939362809062
v 0.8455554954707623 -0.013333333481568843 0.07939249626360834
v 0.8788888342678547 -0.013333333481568843 0.07939249626360834
v 0.8100000210106373 -0.013333333481568843 0.032725828350521624
v 0.8100000210106373 -0.013333333481568843 0.08828138234093785
v 0.7744444068521261 -0.013333333481568843 0.041614717338234186
v 0.7744444068521261 -0.013333333481568843 0.09717027423903346
v 0.7388888858258724 -0.013333333481568843 0.0505036034155637
v 0.7388888858258724 -0.013333333481568843 0.10605916613712907
v 0.70333331823349 -0.013333333481568843 0.05939249531365931
v 0.70333331823349 -0.013333333481568843 0.1149480463936925
v 0.6677777506411076 -0.013333333481568843 0.06828138139098883
v 0.6677777506411076 -0.013333333481568843 0.1238369382917881
v 0.6322222296148539 -0.013333333481568843 0.07717027328908443
v 0.6322222296148539 -0.013333333481568843 0.1327258301898837
v 0.5966666620224714 -0.013333333481568843 0.08605915936641395
v 0.5966666620224714 -0.013333333481568843 0.14161471044644713
v 0.561111094430089 -0.013333333481568843 0.09494805126450956
v 0.561111094430089 -0.013333333481568843 0.15050360234454274
v 0.5255555268377066 -0.013333333481568843 0.10383693734183908
v 0.5255555268377066 -0.013333333481568843 0.15939249424263835
v 0.49000000581145287 -0.013333333481568843 0.11272582923993468
v 0.49000000581145287 -0.013333333481568843 0.16828138614073396
v 0.45444443821907043 -0.013333333481568843 0.12161470949649811
v 0.45444443821907043 -0.013333333481568843 0.17717026639729738
v 0.418888870626688 -0.013333333481568843 0.13050360139459372
v 0.418888870626688 -0.013333333481568843 0.186059158295393
v 0.38333332631736994 -0.013333333481568843 0.13939249329268932
v 0.37222220562398434 -0.013333333481568843 0.18383694114163518
v 0.3938888665288687 -0.013333333481568843 0.21105916239321232
v 0.2144444501027465 -0.013333333481568843 0.3371702739968896
v 0.16999999061226845 -0.013333333481568843 0.326059153303504
v 0.15888888156041503 -0.013333333481568843 0.37050358951091766
v 0.20333332940936089 -0.013333333481568843 0.38161471020430326
v -0.8646446280181408 -0.013333333481568843 0.11697005247697234
v -0.8951184339821339 -0.013333333481568843 0.07268915069289505
v -0.8744077757000923 -0.013333333481568843 0.16982960514724255
v -0.385511782951653 -0.013333333481568843 -0.09707920835353434
v -0.4316609352827072 -0.013333333481568843 -0.026346801314502954
v -0.39196964353322983 -0.013333333481568843 0.06635888712480664
v -0.31379431020468473 -0.013333333481568843 -0.24408369790762663
v -0.3870027372613549 -0.013333333481568843 -0.19301347201690078
v -0.11296190787106752 -0.013333333481568843 -0.3811605041846633
v -0.23864747490733862 -0.013333333481568843 -0.36065594758838415
v -0.11742727365344763 -0.013333333481568843 0.3798085730522871
v -0.026346801314502954 -0.013333333481568843 0.4316609352827072
v 0.09638888295739889 -0.013333333481568843 0.4330035764724016
v 0.13388888910412788 -0.013333333481568843 0.395503593608737
v -0.26041315868496895 -0.013333333481568843 0.30038091354072094
v -0.19301347201690078 -0.013333333481568843 0.3870027372613549
v -0.3870027372613549 -0.013333333481568843 0.19301347201690078
v -0.3166371723636985 -0.013333333481568843 0.2403843216598034
v 0.35638888366520405 -0.013333333481568843 0.06800360279157758
v 0.4316609352827072 -0.013333333481568843 0.026346801314502954
v 0.37038030568510294 -0.013333333481568843 -0.09578275494277477
v 0.27694443706423044 -0.013333333481568843 0.27467026375234127
v 0.3097222186625004 -0.013333333481568843 0.24633693974465132
v 0.3472222248092294 -0.013333333481568843 0.20883693359792233
v 0.3583333222195506 -0.013333333481568843 0.11439248919487
v 0.23944443091750145 -0.013333333481568843 0.31217026989907026
v 0.05006851861253381 -0.013333333481568843 -0.3943816293030977
v -0.026346801314502954 -0.013333333481568843 -0.4316609352827072
v 0.2703641075640917 -0.013333333481568843 -0.2914566081017256
v 0.19301347201690078 -0.013333333481568843 -0.3870027372613549
v 0.3870027372613549 -0.013333333481568843 -0.19301347201690078
v 0.3245393745601177 -0.013333333481568843 -0.22960379719734192
v -0.873151421546936 -0.013333333481568843 0.019656142103485763
v -0.7695884443819523 -0.013333333481568843 -0.08021143730729818
v -0.8350488729774952 -0.013333333481568843 -0.12295735068619251
v 0.8562863804399967 -0.013333333481568843 -0.1135605270974338
v 0.8975259028375149 -0.013333333481568843 -0.04805013013537973
v 0.9149999357759953 -0.013333333481568843 0.009948050137609243
v 0.9038888849318027 -0.013333333481568843 0.10439249454066157
v 0.8847466669976711 -0.013333333481568843 0.15838216058909893
v 0.7803131826221943 -0.013333333481568843 -0.2984006889164448
v 0.7677216082811356 -0.013333333481568843 -0.21691392175853252
v 0.7066777441650629 -0.013333333481568843 -0.37020896561443806
v 0.6154039409011602 -0.013333333481568843 -0.5076673347502947
v 0.49780458211898804 -0.013333333481568843 -0.6234089378267527
v 0.2984006889164448 -0.013333333481568843 -0.7803131826221943
v 0.358910346403718 -0.013333333481568843 -0.7124826312065125
v 0.13173400657251477 -0.013333333481568843 -0.824971403926611
v 0.20466279238462448 -0.013333333481568843 -0.7710780017077923
v -0.03966915828641504 -0.013333333481568843 -0.7947211153805256
v 0.04166026192251593 -0.013333333481568843 -0.7966885343194008
v -0.20633582025766373 -0.013333333481568843 -0.7613877765834332
v -0.12312439503148198 -0.013333333481568843 -0.7882185280323029
v -0.35966914147138596 -0.013333333481568843 -0.7147211115807295
v -0.2826421055942774 -0.013333333481568843 -0.7460305467247963
v -0.5265706684440374 -0.013333333481568843 -0.648579141125083
v -0.430069025605917 -0.013333333481568843 -0.671929121017456
v -0.648579141125083 -0.013333333481568843 -0.5265706684440374
v -0.5590986460447311 -0.013333333481568843 -0.5690841935575008
v -0.6642113905400038 -0.013333333481568843 -0.441895192489028
v -0.7409107405692339 -0.013333333481568843 -0.29580299742519855
v -0.7775892503559589 -0.013333333481568843 -0.17833411693572998
v -0.7647552993148565 -0.013333333481568843 0.3571755951270461
v -0.7599954959005117 -0.013333333481568843 0.24260040372610092
v -0.8213747292757034 -0.013333333481568843 0.191796594299376
v -0.6749204825609922 -0.013333333481568843 0.5068603903055191
v -0.6938327103853226 -0.013333333481568843 0.393756665289402
v -0.5562141537666321 -0.013333333481568843 0.6348629016429186
v -0.5979894194751978 -0.013333333481568843 0.5280689336359501
v -0.4137143027037382 -0.013333333481568843 0.7357075344771147
v -0.4765655845403671 -0.013333333481568843 0.6397916935384274
v -0.2503934083506465 -0.013333333481568843 0.8064525201916695
v -0.334755377843976 -0.013333333481568843 0.7241456769406796
v -0.13348532374948263 -0.013333333481568843 0.8450999855995178
v -0.17862517852336168 -0.013333333481568843 0.777522474527359
v 0.06786719895899296 -0.013333333481568843 0.8348586037755013
v -0.014853807806503028 -0.013333333481568843 0.7976386696100235
v -0.09706007549539208 -0.013333333481568843 0.782008096575737
v 0.26272679679095745 -0.013333333481568843 0.802121963351965
v 0.14955296646803617 -0.013333333481568843 0.7836339063942432
v 0.3867441788315773 -0.013333333481568843 0.6922158412635326
v 0.30756222549825907 -0.013333333481568843 0.7361070718616247
v 0.5265706684440374 -0.013333333481568843 0.648579141125083
v 0.45241471379995346 -0.013333333481568843 0.657091336324811
v 0.648579141125083 -0.013333333481568843 0.5265706684440374
v 0.5779139697551727 -0.013333333481568843 0.5499668419361115
v 0.7496196776628494 -0.013333333481568843 0.3501232946291566
v 0.6786915007978678 -0.013333333481568843 0.41931611485779285
v 0.8554166182875633 -0.013333333481568843 0.23369805421680212
v 0.7504361681640148 -0.013333333481568843 0.2707279985770583
v 0.8205555379390717 -0.013333333481568843 -0.0011630608241830487
v 0.8327777497470379 -0.013333333481568843 0.1221702666953206
v 0.8683333173394203 -0.013333333481568843 0.11328138643875718
v 0.7849999703466892 -0.013333333481568843 0.007725827890681103
v 0.7972221821546555 -0.013333333481568843 0.13105915859341621
v 0.7494444493204355 -0.013333333481568843 0.016614716150797904
v 0.7616666611284018 -0.013333333481568843 0.13994805049151182
v 0.7138888817280531 -0.013333333481568843 0.025503605138510466
v 0.7261110935360193 -0.013333333481568843 0.14883694238960743
v 0.6783333141356707 -0.013333333481568843 0.03439249412622303
v 0.6905555259436369 -0.013333333481568843 0.15772582264617085
v 0.6427777465432882 -0.013333333481568843 0.04328138311393559
v 0.6550000049173832 -0.013333333481568843 0.16661471454426646
v 0.6072222255170345 -0.013333333481568843 0.052170269191265106
v 0.6194444373250008 -0.013333333481568843 0.17550360644236207
v 0.5716666579246521 -0.013333333481568843 0.061059161089360714
v 0.5838888697326183 -0.013333333481568843 0.18439249834045768
v 0.5361110903322697 -0.013333333481568843 0.06994804716669023
v 0.5483333021402359 -0.013333333481568843 0.1932813785970211
v 0.5005555227398872 -0.013333333481568843 0.07883693906478584
v 0.5127777811139822 -0.013333333481568843 0.2021702704951167
v 0.46500000171363354 -0.013333333481568843 0.08772582514211535
v 0.47722221352159977 -0.013333333481568843 0.21105916239321232
v 0.4294444341212511 -0.013333333481568843 0.09661471704021096
v 0.44166664592921734 -0.013333333481568843 0.21994805429130793
v 0.3938888665288687 -0.013333333481568843 0.10550360893830657
v 0.35638888366520405 -0.013333333481568843 0.2485591685399413
v 0.4326367285102606 -0.013333333481568843 0.3106282791122794
v 0.22833333350718021 -0.013333333481568843 0.4066146910190582
v -0.8116116747260094 -0.013333333481568843 0.09500306332483888
v -0.47436151653528214 -0.013333333481568843 -0.14676015125587583
v -0.5299885291606188 -0.013333333481568843 -0.05269360262900591
v -0.5299885291606188 -0.013333333481568843 0.05269360262900591
v -0.48533035442233086 -0.013333333481568843 0.21936027333140373
v -0.3279703902080655 -0.013333333481568843 -0.333263399079442
v -0.4326367285102606 -0.013333333481568843 -0.3106282791122794
v -0.48533035442233086 -0.013333333481568843 -0.21936027333140373
v -0.115502520930022 -0.013333333481568843 -0.48292502760887146
v -0.21936027333140373 -0.013333333481568843 -0.48533035442233086
v -0.3106282791122794 -0.013333333481568843 -0.4326367285102606
v -0.13055995805189013 -0.013333333481568843 0.47991317696869373
v -0.05269360262900591 -0.013333333481568843 0.5299885291606188
v 0.05269360262900591 -0.013333333481568843 0.5299885291606188
v 0.14419646468013525 -0.013333333481568843 0.49186269752681255
v -0.34480723552405834 -0.013333333481568843 0.3573029302060604
v -0.3106282791122794 -0.013333333481568843 0.4326367285102606
v -0.21936027333140373 -0.013333333481568843 0.48533035442233086
v -0.4326367285102606 -0.013333333481568843 0.3106282791122794
v 0.41638887487351894 -0.013333333481568843 0.06133693968877196
v 0.5230555310845375 -0.013333333481568843 0.03467026981525123
v 0.46680555678904057 -0.013333333481568843 -0.021579729218501598
v 0.44149141758680344 -0.013333333481568843 -0.1135605270974338
v 0.35926918499171734 -0.013333333481568843 0.33012330532073975
v 0.3106282791122794 -0.013333333481568843 0.4326367285102606
v 0.14158738777041435 -0.013333333481568843 -0.4801311995834112
v 0.05269360262900591 -0.013333333481568843 -0.5299885291606188
v -0.05269360262900591 -0.013333333481568843 -0.5299885291606188
v 0.3566240658983588 -0.013333333481568843 -0.3455093130469322
v 0.3106282791122794 -0.013333333481568843 -0.4326367285102606
v 0.21936027333140373 -0.013333333481568843 -0.48533035442233086
v 0.48533035442233086 -0.013333333481568843 -0.21936027333140373
v 0.4326367285102606 -0.013333333481568843 -0.3106282791122794
v -0.732062105089426 -0.013333333481568843 0.06205257377587259
v -0.6477777846157551 -0.013333333481568843 -0.000473380123366951
v -0.6283161696046591 -0.013333333481568843 -0.07904040976427495
v -0.6762564182281494 -0.013333333481568843 -0.16863236669450998
v 0.7268055342137814 -0.013333333481568843 -0.09491306263953447
v 0.783055555075407 -0.013333333481568843 -0.03866306215059012
v 0.8347221650183201 -0.013333333481568843 0.1685591647401452
v 0.6669991184026003 -0.013333333481568843 -0.20216770935803652
v 0.6111431866884232 -0.013333333481568843 -0.33505766186863184
v 0.472809374332428 -0.013333333481568843 -0.5120653193444014
v 0.5291439592838287 -0.013333333481568843 -0.4536146763712168
v 0.3573552006855607 -0.013333333481568843 -0.5983785260468721
v 0.27205387596040964 -0.013333333481568843 -0.681985542178154
v 0.10538720525801182 -0.013333333481568843 -0.7266437634825706
v 0.16601423267275095 -0.013333333481568843 -0.6769038736820221
v -0.06324390997178853 -0.013333333481568843 -0.7071847096085548
v 0.02321169595234096 -0.013333333481568843 -0.6965779233723879
v -0.19958512857556343 -0.013333333481568843 -0.6677764467895031
v -0.38676930125802755 -0.013333333481568843 -0.5798009224236012
v -0.2765772398561239 -0.013333333481568843 -0.6538514047861099
v -0.5765983369201422 -0.013333333481568843 -0.45458986423909664
v -0.49777259118855 -0.013333333481568843 -0.4878340754657984
v -0.6271013058722019 -0.013333333481568843 -0.30414401553571224
v -0.5874823313206434 -0.013333333481568843 -0.37499882746487856
v -0.6784953642636538 -0.013333333481568843 0.30312291346490383
v -0.659825699403882 -0.013333333481568843 0.2244764706119895
v -0.7263411767780781 -0.013333333481568843 0.1570603926666081
v -0.6016251631081104 -0.013333333481568843 0.436218548566103
v -0.5995338317006826 -0.013333333481568843 0.355413556098938
v -0.4553276114165783 -0.013333333481568843 0.5276707001030445
v -0.5135953426361084 -0.013333333481568843 0.4711469169706106
v -0.33703704830259085 -0.013333333481568843 0.6100538186728954
v -0.27205387596040964 -0.013333333481568843 0.681985542178154
v -0.14316437300294638 -0.013333333481568843 0.6821023300290108
v 0.06960658356547356 -0.013333333481568843 0.7264525629580021
v 0.00021883411136514042 -0.013333333481568843 0.6969645153731108
v -0.07174594211392105 -0.013333333481568843 0.7078051101416349
v 0.22192150354385376 -0.013333333481568843 0.6606893613934517
v 0.14359268825501204 -0.013333333481568843 0.6820122711360455
v 0.3530909074470401 -0.013333333481568843 0.6009046453982592
v 0.45458986423909664 -0.013333333481568843 0.5765983369201422
v 0.5918353330343962 -0.013333333481568843 0.44941119849681854
v 0.5138911306858063 -0.013333333481568843 0.4708243068307638
v 0.6776388734579086 -0.013333333481568843 0.2781424904242158
v 0.599756883457303 -0.013333333481568843 0.3550369990989566
v 0.763611076399684 -0.013333333481568843 0.18633693689480424
v 0.6924999877810478 -0.013333333481568843 0.20411470904946327
v 0.7363888900727034 -0.013333333481568843 -0.018663061200641096
v 0.6763888522982597 -0.013333333481568843 -0.011996394459856674
v 0.6297221872955561 -0.013333333481568843 0.00800360503490083
v 0.6213888991624117 -0.013333333481568843 0.2218924928456545
v 0.5697221960872412 -0.013333333481568843 0.01467027177568525
v 0.5502777639776468 -0.013333333481568843 0.2396702766418457
v 0.4791666753590107 -0.013333333481568843 0.25744803715497255
v 0.40506613440811634 -0.013333333481568843 0.3865485545247793
v 0.5046175327152014 -0.013333333481568843 0.3826090833172202
v 0.5354166496545076 -0.013333333481568843 0.3136980580165982
v 0.21936027333140373 -0.013333333481568843 0.48533035442233086
v 0.2658333396539092 -0.013333333481568843 0.4441147204488516
v -0.5749235395342112 -0.013333333481568843 -0.15893061645328999
v -0.6283161696046591 -0.013333333481568843 0.07904040976427495
v -0.5836579483002424 -0.013333333481568843 0.2457070630043745
v -0.4364464897662401 -0.013333333481568843 -0.4065839573740959
v -0.5046175327152014 -0.013333333481568843 -0.3826090833172202
v -0.5107532721012831 -0.013333333481568843 -0.30810246244072914
v -0.5836579483002424 -0.013333333481568843 -0.2457070630043745
v -0.15628539258614182 -0.013333333481568843 -0.5756482481956482
v -0.2457070630043745 -0.013333333481568843 -0.5836579483002424
v -0.3223742125555873 -0.013333333481568843 -0.5440928041934967
v -0.3826090833172202 -0.013333333481568843 -0.5046175327152014
v -0.2457070630043745 -0.013333333481568843 0.5836579483002424
v -0.07904040976427495 -0.013333333481568843 0.6283161696046591
v 0.0011045563041989226 -0.013333333481568843 0.5816212389618158
v 0.07904040976427495 -0.013333333481568843 0.6283161696046591
v 0.1376323984004557 -0.013333333481568843 0.5803906824439764
v -0.42920131236314774 -0.013333333481568843 0.41422490030527115
v -0.3826090833172202 -0.013333333481568843 0.5046175327152014
v -0.30157624278217554 -0.013333333481568843 0.5146336741745472
v -0.5046175327152014 -0.013333333481568843 0.3826090833172202
v 0.5299885291606188 -0.013333333481568843 -0.05269360262900591
v 0.5126025062054396 -0.013333333481568843 -0.13133831089362502
v 0.3220833372324705 -0.013333333481568843 0.5003646947443485
v 0.3826090833172202 -0.013333333481568843 0.5046175327152014
v 0.15182880451902747 -0.013333333481568843 -0.5810008849948645
v 0.07904040976427495 -0.013333333481568843 -0.6283161696046591
v 0.004763131073559634 -0.013333333481568843 -0.5964674055576324
v -0.07904040976427495 -0.013333333481568843 -0.6283161696046591
v 0.4156140610575676 -0.013333333481568843 -0.42785624973475933
v 0.3826090833172202 -0.013333333481568843 -0.5046175327152014
v 0.2949207089841366 -0.013333333481568843 -0.5267978645861149
v 0.2457070630043745 -0.013333333481568843 -0.5836579483002424
v 0.5837136413902044 -0.013333333481568843 -0.14911608304828405
v 0.5836579483002424 -0.013333333481568843 -0.2457070630043745
v 0.5156085826456547 -0.013333333481568843 -0.29990638140589
v 0.5046175327152014 -0.013333333481568843 -0.3826090833172202
v 0.6283161696046591 -0.013333333481568843 -0.07904040976427495
v 0.2457070630043745 -0.013333333481568843 0.5836579483002424
v 0.6065277848392725 -0.013333333481568843 0.295920274220407
f 1 2 168 
f 161 3 6 
f 162 161 167 
f 2 162 168 
f 163 4 5 
f 164 163 165 
f 3 164 166 
f 5 165 163 
f 165 166 164 
f 166 6 3 
f 6 167 161 
f 167 168 162 
f 2 1 297 
f 297 298 303 
f 298 159 160 
f 159 299 160 
f 299 300 301 
f 300 5 4 
f 301 160 299 
f 302 301 300 
f 4 302 300 
f 303 2 297 
f 304 303 298 
f 160 304 298 
f 8 338 7 
f 9 12 169 
f 169 176 170 
f 170 175 305 
f 305 308 329 
f 329 322 345 
f 345 338 8 
f 10 11 337 
f 171 174 172 
f 172 173 9 
f 306 307 171 
f 321 330 306 
f 337 330 321 
f 12 9 173 
f 173 172 174 
f 174 171 307 
f 307 306 330 
f 330 337 346 
f 346 337 11 
f 175 170 176 
f 176 169 12 
f 308 305 175 
f 322 329 308 
f 338 345 322 
f 7 344 8 
f 157 158 289 
f 289 296 290 
f 290 295 317 
f 317 320 335 
f 335 328 351 
f 351 344 7 
f 11 10 343 
f 291 294 292 
f 292 293 157 
f 318 319 291 
f 327 336 318 
f 343 336 327 
f 158 157 293 
f 293 292 294 
f 294 291 319 
f 319 318 336 
f 336 343 352 
f 352 343 10 
f 295 290 296 
f 296 289 158 
f 320 317 295 
f 328 335 320 
f 344 351 328 
f 13 14 347 
f 177 15 18 
f 178 177 199 
f 179 178 198 
f 180 179 197 
f 181 180 196 
f 182 181 195 
f 309 182 195 
f 331 309 312 
f 347 331 324 
f 339 16 17 
f 184 183 193 
f 185 184 192 
f 186 185 191 
f 187 186 190 
f 188 187 189 
f 15 188 18 
f 183 310 194 
f 310 323 311 
f 323 339 332 
f 189 18 188 
f 190 189 187 
f 191 190 186 
f 192 191 185 
f 193 192 184 
f 194 193 183 
f 311 194 310 
f 332 311 323 
f 348 332 339 
f 17 348 339 
f 340 13 347 
f 196 195 181 
f 197 196 180 
f 198 197 179 
f 199 198 178 
f 200 199 177 
f 18 200 177 
f 195 312 309 
f 312 324 331 
f 324 340 347 
f 14 13 350 
f 249 155 154 
f 250 249 241 
f 251 250 240 
f 252 251 239 
f 253 252 238 
f 254 253 237 
f 315 254 237 
f 334 315 313 
f 350 334 325 
f 342 17 16 
f 256 255 247 
f 257 256 246 
f 258 257 245 
f 259 258 244 
f 260 259 243 
f 155 260 154 
f 255 316 248 
f 316 326 314 
f 326 342 333 
f 243 154 260 
f 244 243 259 
f 245 244 258 
f 246 245 257 
f 247 246 256 
f 248 247 255 
f 314 248 316 
f 333 314 326 
f 349 333 342 
f 16 349 342 
f 341 14 350 
f 238 237 253 
f 239 238 252 
f 240 239 251 
f 241 240 250 
f 242 241 249 
f 154 242 249 
f 237 313 315 
f 313 325 334 
f 325 341 350 
f 19 20 201 
f 201 21 24 
f 202 22 23 
f 21 202 24 
f 203 24 202 
f 23 203 202 
f 204 19 201 
f 24 204 201 
f 20 19 205 
f 205 145 146 
f 206 23 22 
f 145 206 146 
f 207 146 206 
f 22 207 206 
f 208 20 205 
f 146 208 205 
f 25 26 353 
f 26 27 353 
f 27 28 354 
f 28 29 354 
f 29 30 354 
f 30 25 353 
f 353 27 355 
f 27 354 355 
f 354 30 355 
f 30 353 355 
f 26 25 440 
f 25 143 440 
f 143 29 441 
f 29 28 441 
f 28 144 441 
f 144 26 440 
f 440 143 442 
f 143 441 442 
f 441 144 442 
f 144 440 442 
f 31 32 356 
f 32 33 356 
f 33 34 357 
f 34 35 357 
f 35 36 357 
f 36 31 356 
f 356 33 358 
f 33 357 358 
f 357 36 358 
f 36 356 358 
f 32 31 437 
f 31 141 437 
f 141 35 438 
f 35 34 438 
f 34 142 438 
f 142 32 437 
f 437 141 439 
f 141 438 439 
f 438 142 439 
f 142 437 439 
f 37 38 359 
f 38 39 359 
f 39 40 360 
f 40 41 360 
f 41 42 360 
f 42 37 359 
f 359 39 361 
f 39 360 361 
f 360 42 361 
f 42 359 361 
f 38 37 434 
f 37 139 434 
f 139 41 435 
f 41 40 435 
f 40 140 435 
f 140 38 434 
f 434 139 436 
f 139 435 436 
f 435 140 436 
f 140 434 436 
f 43 44 362 
f 44 45 362 
f 45 46 363 
f 46 47 363 
f 47 48 363 
f 48 43 362 
f 362 45 364 
f 45 363 364 
f 363 48 364 
f 48 362 364 
f 44 43 431 
f 43 137 431 
f 137 47 432 
f 47 46 432 
f 46 138 432 
f 138 44 431 
f 431 137 433 
f 137 432 433 
f 432 138 433 
f 138 431 433 
f 49 50 365 
f 50 51 365 
f 51 52 366 
f 52 53 366 
f 53 54 366 
f 54 49 365 
f 365 51 367 
f 51 366 367 
f 366 54 367 
f 54 365 367 
f 50 49 428 
f 49 135 428 
f 135 53 429 
f 53 52 429 
f 52 136 429 
f 136 50 428 
f 428 135 430 
f 135 429 430 
f 429 136 430 
f 136 428 430 
f 55 56 368 
f 56 57 368 
f 57 58 369 
f 58 59 369 
f 59 60 369 
f 60 55 368 
f 368 57 370 
f 57 369 370 
f 369 60 370 
f 60 368 370 
f 56 55 425 
f 55 133 425 
f 133 59 426 
f 59 58 426 
f 58 134 426 
f 134 56 425 
f 425 133 427 
f 133 426 427 
f 426 134 427 
f 134 425 427 
f 61 62 371 
f 62 63 371 
f 63 64 372 
f 64 65 372 
f 65 66 372 
f 66 61 371 
f 371 63 373 
f 63 372 373 
f 372 66 373 
f 66 371 373 
f 62 61 422 
f 61 131 422 
f 131 65 423 
f 65 64 423 
f 64 132 423 
f 132 62 422 
f 422 131 424 
f 131 423 424 
f 423 132 424 
f 132 422 424 
f 67 68 374 
f 68 69 374 
f 69 70 375 
f 70 71 375 
f 71 72 375 
f 72 67 374 
f 374 69 376 
f 69 375 376 
f 375 72 376 
f 72 374 376 
f 68 67 419 
f 67 129 419 
f 129 71 420 
f 71 70 420 
f 70 130 420 
f 130 68 419 
f 419 129 421 
f 129 420 421 
f 420 130 421 
f 130 419 421 
f 73 74 377 
f 74 75 377 
f 75 76 378 
f 76 77 378 
f 77 78 378 
f 78 73 377 
f 377 75 379 
f 75 378 379 
f 378 78 379 
f 78 377 379 
f 74 73 416 
f 73 127 416 
f 127 77 417 
f 77 76 417 
f 76 128 417 
f 128 74 416 
f 416 127 418 
f 127 417 418 
f 417 128 418 
f 128 416 418 
f 79 80 380 
f 80 81 380 
f 81 82 381 
f 82 83 381 
f 83 84 381 
f 84 79 380 
f 380 81 382 
f 81 381 382 
f 381 84 382 
f 84 380 382 
f 80 79 413 
f 79 125 413 
f 125 83 414 
f 83 82 414 
f 82 126 414 
f 126 80 413 
f 413 125 415 
f 125 414 415 
f 414 126 415 
f 126 413 415 
f 85 86 383 
f 86 87 383 
f 87 88 384 
f 88 89 384 
f 89 90 384 
f 90 85 383 
f 383 87 385 
f 87 384 385 
f 384 90 385 
f 90 383 385 
f 86 85 410 
f 85 123 410 
f 123 89 411 
f 89 88 411 
f 88 124 411 
f 124 86 410 
f 410 123 412 
f 123 411 412 
f 411 124 412 
f 124 410 412 
f 91 92 386 
f 92 93 386 
f 93 94 387 
f 94 95 387 
f 95 96 387 
f 96 91 386 
f 386 93 388 
f 93 387 388 
f 387 96 388 
f 96 386 388 
f 92 91 407 
f 91 121 407 
f 121 95 408 
f 95 94 408 
f 94 122 408 
f 122 92 407 
f 407 121 409 
f 121 408 409 
f 408 122 409 
f 122 407 409 
f 97 98 389 
f 98 99 389 
f 99 100 390 
f 100 101 390 
f 101 102 390 
f 102 97 389 
f 389 99 391 
f 99 390 391 
f 390 102 391 
f 102 389 391 
f 98 97 404 
f 97 119 404 
f 119 101 405 
f 101 100 405 
f 100 120 405 
f 120 98 404 
f 404 119 406 
f 119 405 406 
f 405 120 406 
f 120 404 406 
f 103 104 392 
f 104 105 392 
f 105 106 393 
f 106 107 393 
f 107 108 393 
f 108 103 392 
f 392 105 394 
f 105 393 394 
f 393 108 394 
f 108 392 394 
f 104 103 401 
f 103 117 401 
f 117 107 402 
f 107 106 402 
f 106 118 402 
f 118 104 401 
f 401 117 403 
f 117 402 403 
f 402 118 403 
f 118 401 403 
f 109 110 395 
f 110 111 395 
f 111 112 396 
f 112 113 396 
f 113 114 396 
f 114 109 395 
f 395 111 397 
f 111 396 397 
f 396 114 397 
f 114 395 397 
f 110 109 398 
f 109 115 398 
f 115 113 399 
f 113 112 399 
f 112 116 399 
f 116 110 398 
f 398 115 400 
f 115 399 400 
f 399 116 400 
f 116 398 400 
f 147 148 149 
f 149 150 151 
f 151 152 149 
f 152 147 149 
f 147 152 443 
f 152 151 208 
f 151 209 20 
f 209 210 247 
f 210 211 246 
f 211 212 245 
f 212 213 245 
f 213 214 244 
f 214 215 243 
f 215 216 154 
f 216 217 242 
f 217 218 241 
f 218 219 240 
f 219 220 239 
f 220 221 238 
f 221 222 237 
f 222 153 448 
f 153 223 309 
f 223 224 181 
f 224 225 181 
f 225 226 180 
f 226 227 179 
f 227 228 178 
f 228 229 177 
f 229 230 15 
f 230 231 188 
f 231 232 187 
f 232 233 186 
f 233 234 185 
f 234 235 184 
f 235 236 183 
f 236 147 444 
f 22 202 248 
f 202 21 451 
f 21 201 447 
f 201 20 209 
f 20 208 151 
f 208 146 152 
f 146 207 445 
f 207 22 314 
f 16 339 443 
f 183 184 235 
f 184 185 234 
f 185 186 233 
f 186 187 232 
f 187 188 231 
f 188 15 230 
f 310 183 236 
f 323 310 444 
f 339 323 444 
f 15 177 229 
f 177 178 228 
f 178 179 227 
f 179 180 226 
f 180 181 225 
f 181 182 223 
f 182 309 223 
f 309 331 449 
f 331 347 449 
f 347 14 450 
f 14 341 448 
f 237 238 221 
f 238 239 220 
f 239 240 219 
f 240 241 218 
f 241 242 217 
f 242 154 216 
f 313 237 222 
f 325 313 448 
f 341 325 448 
f 154 243 215 
f 243 244 214 
f 244 245 213 
f 245 246 211 
f 246 247 210 
f 247 248 446 
f 248 314 22 
f 314 333 445 
f 333 349 445 
f 349 16 443 
f 443 152 445 
f 147 443 444 
f 209 247 446 
f 448 153 450 
f 222 448 313 
f 153 309 449 
f 236 444 310 
f 248 202 451 
f 451 21 447 
f 447 201 209 
f 152 146 445 
f 445 207 314 
f 443 339 444 
f 449 347 450 
f 450 14 448 
f 446 248 451 
f 445 349 443 
f 209 446 447 
f 450 153 449 
f 451 447 446 
f 147 288 148 
f 153 156 223 
f 223 275 224 
f 224 276 225 
f 225 277 226 
f 226 278 227 
f 227 279 228 
f 228 280 229 
f 229 281 230 
f 230 282 231 
f 231 283 232 
f 232 284 233 
f 233 285 234 
f 234 286 235 
f 235 287 236 
f 236 288 147 
f 151 150 209 
f 209 261 210 
f 210 262 211 
f 211 263 212 
f 212 264 213 
f 213 265 214 
f 214 266 215 
f 215 267 216 
f 216 268 217 
f 217 269 218 
f 218 270 219 
f 219 271 220 
f 220 272 221 
f 221 273 222 
f 222 274 153 
f 261 209 150 
f 262 210 261 
f 263 211 262 
f 264 212 263 
f 265 213 264 
f 266 214 265 
f 267 215 266 
f 268 216 267 
f 269 217 268 
f 270 218 269 
f 271 219 270 
f 272 220 271 
f 273 221 272 
f 274 222 273 
f 156 153 274 
f 275 223 156 
f 276 224 275 
f 277 225 276 
f 278 226 277 
f 279 227 278 
f 280 228 279 
f 281 229 280 
f 282 230 281 
f 283 231 282 
f 284 232 283 
f 285 233 284 
f 286 234 285 
f 287 235 286 
f 288 236 287 
f 10 337 4 
f 171 172 302 
f 172 9 301 
f 306 171 302 
f 321 306 4 
f 337 321 4 
f 9 169 160 
f 169 170 304 
f 170 305 303 
f 305 329 2 
f 329 345 2 
f 345 8 2 
f 8 344 2 
f 295 296 162 
f 296 158 161 
f 320 295 162 
f 328 320 2 
f 344 328 2 
f 158 293 3 
f 293 294 164 
f 294 319 163 
f 319 336 4 
f 336 352 4 
f 352 10 4 
f 4 163 319 
f 163 164 294 
f 164 3 293 
f 3 161 158 
f 161 162 296 
f 162 2 320 
f 2 303 305 
f 303 304 170 
f 304 160 169 
f 160 301 9 
f 301 302 172 
f 302 4 306 
f 17 342 452 
f 255 256 453 
f 256 257 456 
f 257 258 457 
f 258 259 458 
f 259 260 459 
f 260 155 461 
f 316 255 455 
f 326 316 463 
f 342 326 463 
f 155 249 464 
f 249 250 466 
f 250 251 467 
f 251 252 468 
f 252 253 469 
f 253 254 471 
f 254 315 473 
f 315 334 111 
f 334 350 112 
f 350 13 476 
f 13 340 477 
f 195 196 478 
f 196 197 481 
f 197 198 482 
f 198 199 483 
f 199 200 484 
f 200 18 485 
f 312 195 480 
f 324 312 480 
f 340 324 477 
f 18 189 486 
f 189 190 489 
f 190 191 491 
f 191 192 493 
f 192 193 494 
f 193 194 495 
f 194 311 497 
f 311 332 499 
f 332 348 499 
f 348 17 452 
f 112 111 334 
f 111 110 106 
f 110 116 476 
f 116 112 350 
f 106 105 474 
f 105 104 100 
f 104 118 501 
f 118 106 110 
f 100 99 500 
f 99 98 94 
f 98 120 503 
f 120 100 104 
f 94 93 502 
f 93 92 88 
f 92 122 505 
f 122 94 98 
f 88 87 504 
f 87 86 82 
f 86 124 507 
f 124 88 92 
f 82 81 506 
f 81 80 76 
f 80 126 509 
f 126 82 86 
f 76 75 508 
f 75 74 70 
f 74 128 511 
f 128 76 80 
f 70 69 510 
f 69 68 64 
f 68 130 513 
f 130 70 74 
f 64 63 512 
f 63 62 58 
f 62 132 515 
f 132 64 68 
f 58 57 514 
f 57 56 52 
f 56 134 517 
f 134 58 62 
f 52 51 516 
f 51 50 46 
f 50 136 519 
f 136 52 56 
f 46 45 518 
f 45 44 40 
f 44 138 521 
f 138 46 50 
f 40 39 520 
f 39 38 34 
f 38 140 523 
f 140 40 44 
f 34 33 522 
f 33 32 524 
f 32 142 525 
f 142 34 38 
f 28 27 527 
f 27 26 529 
f 26 144 530 
f 144 28 528 
f 11 343 531 
f 291 292 533 
f 292 157 536 
f 318 291 535 
f 327 318 535 
f 343 327 538 
f 157 289 539 
f 289 290 542 
f 290 317 545 
f 317 335 547 
f 335 351 547 
f 351 7 548 
f 7 338 549 
f 175 176 550 
f 176 12 530 
f 308 175 525 
f 322 308 526 
f 338 322 554 
f 12 173 555 
f 173 174 559 
f 174 307 562 
f 307 330 564 
f 330 346 564 
f 346 11 532 
f 452 342 463 
f 453 256 456 
f 255 453 454 
f 456 257 457 
f 457 258 458 
f 458 259 460 
f 459 260 462 
f 259 459 460 
f 461 155 465 
f 260 461 462 
f 455 255 454 
f 316 455 463 
f 464 249 466 
f 155 464 465 
f 466 250 467 
f 467 251 468 
f 468 252 470 
f 469 253 472 
f 252 469 470 
f 471 254 473 
f 253 471 472 
f 473 315 475 
f 315 111 474 
f 476 13 477 
f 350 476 116 
f 478 196 481 
f 195 478 479 
f 481 197 482 
f 482 198 483 
f 483 199 484 
f 484 200 485 
f 485 18 488 
f 480 195 479 
f 324 480 477 
f 486 189 490 
f 18 486 487 
f 489 190 492 
f 189 489 490 
f 491 191 493 
f 190 491 492 
f 493 192 494 
f 494 193 496 
f 495 194 498 
f 193 495 496 
f 497 311 499 
f 194 497 498 
f 499 348 452 
f 111 106 474 
f 110 476 118 
f 474 105 500 
f 105 100 500 
f 501 118 476 
f 104 501 120 
f 500 99 502 
f 99 94 502 
f 503 120 501 
f 98 503 122 
f 502 93 504 
f 93 88 504 
f 505 122 503 
f 92 505 124 
f 504 87 506 
f 87 82 506 
f 507 124 505 
f 86 507 126 
f 506 81 508 
f 81 76 508 
f 509 126 507 
f 80 509 128 
f 508 75 510 
f 75 70 510 
f 511 128 509 
f 74 511 130 
f 510 69 512 
f 69 64 512 
f 513 130 511 
f 68 513 132 
f 512 63 514 
f 63 58 514 
f 515 132 513 
f 62 515 134 
f 514 57 516 
f 57 52 516 
f 517 134 515 
f 56 517 136 
f 516 51 518 
f 51 46 518 
f 519 136 517 
f 50 519 138 
f 518 45 520 
f 45 40 520 
f 521 138 519 
f 44 521 140 
f 520 39 522 
f 39 34 522 
f 523 140 521 
f 38 523 142 
f 522 33 524 
f 524 32 525 
f 525 142 526 
f 527 27 529 
f 28 527 528 
f 529 26 530 
f 530 144 176 
f 144 528 176 
f 531 343 538 
f 11 531 532 
f 533 292 537 
f 291 533 534 
f 536 157 541 
f 292 536 537 
f 535 291 534 
f 327 535 538 
f 539 289 544 
f 157 539 540 
f 542 290 546 
f 289 542 543 
f 545 317 547 
f 290 545 546 
f 547 351 548 
f 548 7 549 
f 549 338 554 
f 550 176 553 
f 175 550 551 
f 530 12 558 
f 525 175 524 
f 308 525 526 
f 322 526 554 
f 555 173 561 
f 12 555 556 
f 559 174 563 
f 173 559 560 
f 562 307 564 
f 174 562 563 
f 564 346 532 
f 452 463 565 
f 453 456 566 
f 454 453 567 
f 456 457 566 
f 457 458 570 
f 458 460 571 
f 459 462 572 
f 460 459 572 
f 461 465 573 
f 462 461 573 
f 455 454 568 
f 463 455 569 
f 464 466 575 
f 465 464 577 
f 466 467 578 
f 467 468 579 
f 468 470 580 
f 469 472 582 
f 470 469 582 
f 471 473 584 
f 472 471 586 
f 475 315 474 
f 473 475 588 
f 476 477 589 
f 478 481 591 
f 479 478 593 
f 481 482 591 
f 482 483 595 
f 483 484 596 
f 484 485 597 
f 488 18 487 
f 485 488 598 
f 480 479 594 
f 477 480 590 
f 486 490 599 
f 487 486 601 
f 489 492 603 
f 490 489 599 
f 491 493 604 
f 492 491 604 
f 493 494 606 
f 494 496 607 
f 495 498 608 
f 496 495 609 
f 497 499 610 
f 498 497 611 
f 499 452 565 
f 474 500 475 
f 501 476 589 
f 500 502 588 
f 503 501 612 
f 502 504 613 
f 505 503 614 
f 504 506 615 
f 507 505 616 
f 506 508 617 
f 509 507 618 
f 508 510 619 
f 511 509 620 
f 510 512 621 
f 513 511 622 
f 512 514 623 
f 515 513 624 
f 514 516 625 
f 517 515 626 
f 516 518 627 
f 519 517 628 
f 518 520 629 
f 521 519 630 
f 520 522 631 
f 523 521 632 
f 142 523 526 
f 522 524 633 
f 527 529 634 
f 528 527 553 
f 529 530 558 
f 176 528 553 
f 531 538 635 
f 532 531 635 
f 533 537 637 
f 534 533 638 
f 541 157 540 
f 536 541 643 
f 537 536 645 
f 535 534 640 
f 538 535 642 
f 544 289 543 
f 539 544 646 
f 540 539 646 
f 542 546 648 
f 543 542 648 
f 545 547 651 
f 546 545 652 
f 547 548 651 
f 548 549 655 
f 549 554 655 
f 550 553 656 
f 551 550 656 
f 175 551 552 
f 558 12 557 
f 524 175 552 
f 554 526 632 
f 561 173 560 
f 555 561 658 
f 556 555 658 
f 12 556 557 
f 559 563 662 
f 560 559 663 
f 562 564 636 
f 563 562 666 
f 564 532 636 
f 565 463 569 
f 453 566 567 
f 454 567 568 
f 566 457 570 
f 570 458 571 
f 571 460 572 
f 572 462 574 
f 573 465 577 
f 462 573 574 
f 455 568 569 
f 575 466 578 
f 464 575 576 
f 577 464 576 
f 578 467 579 
f 579 468 581 
f 580 470 583 
f 468 580 581 
f 582 472 587 
f 470 582 583 
f 584 473 588 
f 471 584 585 
f 586 471 585 
f 472 586 587 
f 588 475 500 
f 589 477 590 
f 478 591 592 
f 593 478 592 
f 479 593 594 
f 591 482 595 
f 595 483 596 
f 596 484 597 
f 597 485 598 
f 488 487 601 
f 598 488 602 
f 480 594 590 
f 486 599 600 
f 601 486 600 
f 603 492 605 
f 489 603 599 
f 604 493 606 
f 492 604 605 
f 606 494 607 
f 607 496 609 
f 608 498 611 
f 495 608 609 
f 610 499 565 
f 497 610 611 
f 501 589 612 
f 588 502 613 
f 503 612 614 
f 613 504 615 
f 505 614 616 
f 615 506 617 
f 507 616 618 
f 617 508 619 
f 509 618 620 
f 619 510 621 
f 511 620 622 
f 621 512 623 
f 513 622 624 
f 623 514 625 
f 515 624 626 
f 625 516 627 
f 517 626 628 
f 627 518 629 
f 519 628 630 
f 629 520 631 
f 521 630 632 
f 631 522 633 
f 523 632 526 
f 633 524 552 
f 634 529 558 
f 527 634 553 
f 635 538 642 
f 532 635 636 
f 637 537 645 
f 533 637 638 
f 534 638 639 
f 541 540 647 
f 643 541 647 
f 536 643 644 
f 645 536 644 
f 640 534 639 
f 535 640 641 
f 642 535 641 
f 544 543 649 
f 646 544 650 
f 540 646 647 
f 648 546 654 
f 543 648 649 
f 545 651 652 
f 546 652 653 
f 651 548 655 
f 655 554 657 
f 656 553 634 
f 551 656 633 
f 552 551 633 
f 558 557 661 
f 554 632 657 
f 561 560 664 
f 658 561 665 
f 556 658 659 
f 557 556 659 
f 662 563 667 
f 559 662 663 
f 560 663 664 
f 562 636 666 
f 563 666 667 
f 565 569 568 
f 567 566 667 
f 568 567 668 
f 566 570 662 
f 570 571 663 
f 571 572 663 
f 572 574 665 
f 573 577 658 
f 574 573 658 
f 575 578 660 
f 576 575 660 
f 577 576 659 
f 578 579 661 
f 579 581 661 
f 580 583 670 
f 581 580 672 
f 582 587 673 
f 583 582 673 
f 584 588 613 
f 585 584 615 
f 586 585 675 
f 587 586 675 
f 589 590 612 
f 592 591 653 
f 593 592 679 
f 594 593 679 
f 591 595 654 
f 595 596 649 
f 596 597 649 
f 597 598 681 
f 488 601 602 
f 598 602 647 
f 590 594 678 
f 600 599 644 
f 601 600 602 
f 603 605 645 
f 599 603 644 
f 604 606 605 
f 606 607 638 
f 607 609 639 
f 608 611 682 
f 609 608 683 
f 610 565 568 
f 611 610 568 
f 614 612 678 
f 613 615 584 
f 616 614 678 
f 615 617 585 
f 618 616 680 
f 617 619 675 
f 620 618 680 
f 619 621 675 
f 622 620 684 
f 621 623 676 
f 624 622 684 
f 623 625 677 
f 626 624 685 
f 625 627 677 
f 628 626 685 
f 627 629 686 
f 630 628 657 
f 629 631 686 
f 632 630 657 
f 631 633 674 
f 634 558 661 
f 635 642 688 
f 636 635 689 
f 637 645 605 
f 638 637 606 
f 639 638 607 
f 643 647 602 
f 644 643 600 
f 645 644 603 
f 640 639 683 
f 641 640 683 
f 642 641 688 
f 544 649 650 
f 646 650 681 
f 647 646 681 
f 654 546 653 
f 648 654 649 
f 652 651 690 
f 653 652 592 
f 651 655 690 
f 655 657 685 
f 656 634 687 
f 633 656 674 
f 661 557 660 
f 561 664 665 
f 658 665 574 
f 659 658 577 
f 557 659 660 
f 662 667 566 
f 663 662 570 
f 664 663 572 
f 666 636 689 
f 667 666 567 
f 668 567 666 
f 568 668 669 
f 572 665 664 
f 660 578 661 
f 576 660 659 
f 661 581 672 
f 670 583 674 
f 580 670 671 
f 672 580 671 
f 673 587 677 
f 583 673 674 
f 675 585 617 
f 587 675 676 
f 612 590 678 
f 653 591 654 
f 679 592 652 
f 594 679 680 
f 654 595 649 
f 649 597 650 
f 681 598 647 
f 597 681 650 
f 678 594 680 
f 602 600 643 
f 605 606 637 
f 639 609 683 
f 682 611 669 
f 608 682 683 
f 611 568 669 
f 616 678 680 
f 620 680 684 
f 675 621 676 
f 676 623 677 
f 624 684 685 
f 677 627 686 
f 628 685 657 
f 686 631 674 
f 634 661 687 
f 635 688 689 
f 641 683 682 
f 688 641 682 
f 652 690 691 
f 690 655 685 
f 656 687 672 
f 674 656 671 
f 666 689 668 
f 669 668 689 
f 661 672 687 
f 670 674 671 
f 672 671 656 
f 677 587 676 
f 673 677 686 
f 674 673 686 
f 679 652 691 
f 680 679 691 
f 682 669 688 
f 684 680 691 
f 685 684 691 
f 689 688 669 
f 691 690 685 
f 149 692 150 
f 148 693 149 
f 156 695 275 
f 275 698 276 
f 276 700 277 
f 277 701 278 
f 278 702 279 
f 279 703 280 
f 280 705 281 
f 281 707 282 
f 282 708 283 
f 283 710 284 
f 284 712 285 
f 285 714 286 
f 286 716 287 
f 287 717 288 
f 288 694 148 
f 150 19 261 
f 261 719 262 
f 262 723 263 
f 263 725 264 
f 264 726 265 
f 265 727 266 
f 266 729 267 
f 267 731 268 
f 268 732 269 
f 269 733 270 
f 270 734 271 
f 271 736 272 
f 272 738 273 
f 273 740 274 
f 274 697 156 
f 115 742 113 
f 109 744 115 
f 114 107 109 
f 113 746 114 
f 117 109 107 
f 103 747 117 
f 108 101 103 
f 107 745 108 
f 119 103 101 
f 97 749 119 
f 102 95 97 
f 101 748 102 
f 121 97 95 
f 91 751 121 
f 96 89 91 
f 95 750 96 
f 123 91 89 
f 85 753 123 
f 90 83 85 
f 89 752 90 
f 125 85 83 
f 79 755 125 
f 84 77 79 
f 83 754 84 
f 127 79 77 
f 73 757 127 
f 78 71 73 
f 77 756 78 
f 129 73 71 
f 67 759 129 
f 72 65 67 
f 71 758 72 
f 131 67 65 
f 61 761 131 
f 66 59 61 
f 65 760 66 
f 133 61 59 
f 55 763 133 
f 60 53 55 
f 59 762 60 
f 135 55 53 
f 49 765 135 
f 54 47 49 
f 53 764 54 
f 137 49 47 
f 43 767 137 
f 48 41 43 
f 47 766 48 
f 139 43 41 
f 37 769 139 
f 42 35 37 
f 41 768 42 
f 141 37 35 
f 31 771 141 
f 36 772 31 
f 35 770 36 
f 143 774 29 
f 25 775 143 
f 30 776 25 
f 29 777 30 
f 206 778 23 
f 145 779 206 
f 205 692 145 
f 19 150 205 
f 204 261 19 
f 24 722 204 
f 203 721 24 
f 23 780 203 
f 5 781 165 
f 165 784 166 
f 166 786 6 
f 159 788 299 
f 299 792 300 
f 300 783 5 
f 1 796 297 
f 297 799 298 
f 298 775 159 
f 6 804 167 
f 167 806 168 
f 168 798 1 
f 692 205 150 
f 149 693 692 
f 148 694 693 
f 695 699 275 
f 156 696 695 
f 698 700 276 
f 275 699 698 
f 700 701 277 
f 701 702 278 
f 702 704 279 
f 703 706 280 
f 279 704 703 
f 705 707 281 
f 280 706 705 
f 707 709 282 
f 708 711 283 
f 282 709 708 
f 710 713 284 
f 283 711 710 
f 712 715 285 
f 284 713 712 
f 714 716 286 
f 285 715 714 
f 716 717 287 
f 717 718 288 
f 288 718 694 
f 719 724 262 
f 261 720 719 
f 723 725 263 
f 262 724 723 
f 725 726 264 
f 726 728 265 
f 727 730 266 
f 265 728 727 
f 729 731 267 
f 266 730 729 
f 731 732 268 
f 732 733 269 
f 733 735 270 
f 734 737 271 
f 270 735 734 
f 736 739 272 
f 271 737 736 
f 738 741 273 
f 272 739 738 
f 740 697 274 
f 273 741 740 
f 697 696 156 
f 742 746 113 
f 115 743 742 
f 744 743 115 
f 109 117 744 
f 114 745 107 
f 746 745 114 
f 747 744 117 
f 103 119 747 
f 108 748 101 
f 745 748 108 
f 749 747 119 
f 97 121 749 
f 102 750 95 
f 748 750 102 
f 751 749 121 
f 91 123 751 
f 96 752 89 
f 750 752 96 
f 753 751 123 
f 85 125 753 
f 90 754 83 
f 752 754 90 
f 755 753 125 
f 79 127 755 
f 84 756 77 
f 754 756 84 
f 757 755 127 
f 73 129 757 
f 78 758 71 
f 756 758 78 
f 759 757 129 
f 67 131 759 
f 72 760 65 
f 758 760 72 
f 761 759 131 
f 61 133 761 
f 66 762 59 
f 760 762 66 
f 763 761 133 
f 55 135 763 
f 60 764 53 
f 762 764 60 
f 765 763 135 
f 49 137 765 
f 54 766 47 
f 764 766 54 
f 767 765 137 
f 43 139 767 
f 48 768 41 
f 766 768 48 
f 769 767 139 
f 37 141 769 
f 42 770 35 
f 768 770 42 
f 771 769 141 
f 31 772 771 
f 36 773 772 
f 770 773 36 
f 774 777 29 
f 143 775 774 
f 25 776 775 
f 30 777 776 
f 778 780 23 
f 206 779 778 
f 145 692 779 
f 204 722 261 
f 24 721 722 
f 203 780 721 
f 781 785 165 
f 5 782 781 
f 784 787 166 
f 165 785 784 
f 786 805 6 
f 166 787 786 
f 788 793 299 
f 159 789 788 
f 792 795 300 
f 299 793 792 
f 783 782 5 
f 300 794 783 
f 796 802 297 
f 1 797 796 
f 799 803 298 
f 297 800 799 
f 775 791 159 
f 298 774 775 
f 804 807 167 
f 6 805 804 
f 806 809 168 
f 167 807 806 
f 798 797 1 
f 168 808 798 
f 693 779 692 
f 694 810 693 
f 695 813 699 
f 696 814 695 
f 698 818 700 
f 699 818 698 
f 700 820 701 
f 701 821 702 
f 702 822 704 
f 703 823 706 
f 704 823 703 
f 705 825 707 
f 706 825 705 
f 707 827 709 
f 708 829 711 
f 709 830 708 
f 710 831 713 
f 711 832 710 
f 712 833 715 
f 713 833 712 
f 714 835 716 
f 715 835 714 
f 716 837 717 
f 717 838 718 
f 718 812 694 
f 719 840 724 
f 720 840 719 
f 261 721 720 
f 723 843 725 
f 724 843 723 
f 725 845 726 
f 726 847 728 
f 727 849 730 
f 728 849 727 
f 729 851 731 
f 730 851 729 
f 731 853 732 
f 732 856 733 
f 733 858 735 
f 734 860 737 
f 735 860 734 
f 736 862 739 
f 737 862 736 
f 738 864 741 
f 739 864 738 
f 740 817 697 
f 741 866 740 
f 697 815 696 
f 742 816 746 
f 743 815 742 
f 744 868 743 
f 746 870 745 
f 747 868 744 
f 745 869 748 
f 749 871 747 
f 748 872 750 
f 751 873 749 
f 750 874 752 
f 753 875 751 
f 752 876 754 
f 755 877 753 
f 754 878 756 
f 757 879 755 
f 756 880 758 
f 759 881 757 
f 758 882 760 
f 761 883 759 
f 760 884 762 
f 763 885 761 
f 762 886 764 
f 765 887 763 
f 764 888 766 
f 767 889 765 
f 766 890 768 
f 769 891 767 
f 768 892 770 
f 771 893 769 
f 772 802 771 
f 773 801 772 
f 770 892 773 
f 774 896 777 
f 776 791 775 
f 777 791 776 
f 778 842 780 
f 779 897 778 
f 722 721 261 
f 780 720 721 
f 781 898 785 
f 782 898 781 
f 784 902 787 
f 785 903 784 
f 786 905 805 
f 787 906 786 
f 788 908 793 
f 789 908 788 
f 159 790 789 
f 795 794 300 
f 792 912 795 
f 793 913 792 
f 783 900 782 
f 794 901 783 
f 802 772 297 
f 796 893 802 
f 797 916 796 
f 803 774 298 
f 799 920 803 
f 800 920 799 
f 297 801 800 
f 791 790 159 
f 804 922 807 
f 805 923 804 
f 809 808 168 
f 806 925 809 
f 807 926 806 
f 798 918 797 
f 808 919 798 
f 693 810 779 
f 694 811 810 
f 813 819 699 
f 695 814 813 
f 696 815 814 
f 818 820 700 
f 699 819 818 
f 820 821 701 
f 821 822 702 
f 822 824 704 
f 823 826 706 
f 704 824 823 
f 825 828 707 
f 706 826 825 
f 827 830 709 
f 707 828 827 
f 829 832 711 
f 708 830 829 
f 831 834 713 
f 710 832 831 
f 833 836 715 
f 713 834 833 
f 835 837 716 
f 715 836 835 
f 837 838 717 
f 838 839 718 
f 812 811 694 
f 718 839 812 
f 840 844 724 
f 720 841 840 
f 843 846 725 
f 724 844 843 
f 845 848 726 
f 725 846 845 
f 847 850 728 
f 726 848 847 
f 849 852 730 
f 728 850 849 
f 851 855 731 
f 730 852 851 
f 853 857 732 
f 731 854 853 
f 856 859 733 
f 732 857 856 
f 858 861 735 
f 733 859 858 
f 860 863 737 
f 735 861 860 
f 862 865 739 
f 737 863 862 
f 864 867 741 
f 739 865 864 
f 817 816 697 
f 740 866 817 
f 741 867 866 
f 697 816 815 
f 816 870 746 
f 742 815 816 
f 743 814 815 
f 868 814 743 
f 870 869 745 
f 747 871 868 
f 869 872 748 
f 749 873 871 
f 872 874 750 
f 751 875 873 
f 874 876 752 
f 753 877 875 
f 876 878 754 
f 755 879 877 
f 878 880 756 
f 757 881 879 
f 880 882 758 
f 759 883 881 
f 882 884 760 
f 761 885 883 
f 884 886 762 
f 763 887 885 
f 886 888 764 
f 765 889 887 
f 888 890 766 
f 767 891 889 
f 890 892 768 
f 769 893 891 
f 771 802 893 
f 801 297 772 
f 773 894 801 
f 892 895 773 
f 896 791 777 
f 774 803 896 
f 842 720 780 
f 778 897 842 
f 779 810 897 
f 898 904 785 
f 782 899 898 
f 902 907 787 
f 784 903 902 
f 785 904 903 
f 905 924 805 
f 786 906 905 
f 787 907 906 
f 908 914 793 
f 789 909 908 
f 790 910 789 
f 795 915 794 
f 912 915 795 
f 792 913 912 
f 793 914 913 
f 900 899 782 
f 783 901 900 
f 794 915 901 
f 796 916 893 
f 797 889 916 
f 920 921 803 
f 800 894 920 
f 801 894 800 
f 791 911 790 
f 922 927 807 
f 804 923 922 
f 805 924 923 
f 809 929 808 
f 925 929 809 
f 806 926 925 
f 807 927 926 
f 918 917 797 
f 798 919 918 
f 808 928 919 
f 811 930 810 
f 813 934 819 
f 814 868 813 
f 818 937 820 
f 819 937 818 
f 820 938 821 
f 821 939 822 
f 822 941 824 
f 823 942 826 
f 824 942 823 
f 825 943 828 
f 826 943 825 
f 827 945 830 
f 828 946 827 
f 829 947 832 
f 830 947 829 
f 831 948 834 
f 832 949 831 
f 833 948 836 
f 834 948 833 
f 835 950 837 
f 836 950 835 
f 837 952 838 
f 838 933 839 
f 812 839 811 
f 840 954 844 
f 841 954 840 
f 720 842 841 
f 843 957 846 
f 844 957 843 
f 845 959 848 
f 846 959 845 
f 847 961 850 
f 848 961 847 
f 849 962 852 
f 850 962 849 
f 855 854 731 
f 851 852 855 
f 853 964 857 
f 854 964 853 
f 856 967 859 
f 857 967 856 
f 858 969 861 
f 859 969 858 
f 860 970 863 
f 861 970 860 
f 862 971 865 
f 863 971 862 
f 864 973 867 
f 865 973 864 
f 817 870 816 
f 866 936 817 
f 867 975 866 
f 870 817 869 
f 871 935 868 
f 869 936 872 
f 873 977 871 
f 872 975 874 
f 875 977 873 
f 874 975 876 
f 877 978 875 
f 876 976 878 
f 879 979 877 
f 878 976 880 
f 881 979 879 
f 880 980 882 
f 883 981 881 
f 882 980 884 
f 885 917 883 
f 884 982 886 
f 887 917 885 
f 886 982 888 
f 889 797 887 
f 888 983 890 
f 891 916 889 
f 890 983 892 
f 893 916 891 
f 773 895 894 
f 892 983 895 
f 896 911 791 
f 803 921 896 
f 897 956 842 
f 810 930 897 
f 898 989 904 
f 899 989 898 
f 902 992 907 
f 903 992 902 
f 904 994 903 
f 905 996 924 
f 906 996 905 
f 907 998 906 
f 908 1000 914 
f 909 1001 908 
f 789 910 909 
f 790 911 910 
f 912 1005 915 
f 913 1005 912 
f 914 1007 913 
f 900 931 899 
f 901 990 900 
f 915 991 901 
f 920 984 921 
f 894 895 920 
f 922 1013 927 
f 923 1013 922 
f 924 1015 923 
f 929 928 808 
f 925 1017 929 
f 926 1017 925 
f 927 1019 926 
f 917 887 797 
f 918 1009 917 
f 919 1009 918 
f 928 1010 919 
f 811 931 930 
f 934 937 819 
f 813 935 934 
f 868 935 813 
f 937 938 820 
f 938 940 821 
f 939 941 822 
f 821 940 939 
f 941 942 824 
f 942 944 826 
f 943 946 828 
f 826 944 943 
f 945 947 830 
f 827 946 945 
f 947 949 832 
f 831 949 948 
f 948 951 836 
f 950 953 837 
f 836 951 950 
f 952 933 838 
f 837 953 952 
f 933 811 839 
f 954 958 844 
f 841 955 954 
f 842 956 841 
f 957 960 846 
f 844 958 957 
f 959 961 848 
f 846 960 959 
f 961 962 850 
f 962 963 852 
f 855 966 854 
f 852 963 855 
f 964 968 857 
f 854 965 964 
f 967 969 859 
f 857 968 967 
f 969 970 861 
f 970 972 863 
f 971 974 865 
f 863 972 971 
f 973 976 867 
f 865 974 973 
f 936 869 817 
f 866 975 936 
f 867 976 975 
f 871 977 935 
f 936 975 872 
f 875 978 977 
f 975 976 876 
f 877 979 978 
f 976 980 880 
f 881 981 979 
f 883 917 981 
f 980 982 884 
f 982 983 888 
f 983 986 895 
f 896 987 911 
f 921 988 896 
f 897 930 956 
f 989 995 904 
f 899 932 989 
f 992 999 907 
f 903 993 992 
f 994 993 903 
f 904 995 994 
f 996 1016 924 
f 906 997 996 
f 998 997 906 
f 907 999 998 
f 1000 1007 914 
f 908 1001 1000 
f 909 1002 1001 
f 910 1002 909 
f 911 1004 910 
f 1005 1008 915 
f 913 1006 1005 
f 1007 1006 913 
f 931 932 899 
f 900 990 931 
f 901 991 990 
f 915 1008 991 
f 984 1012 921 
f 920 895 984 
f 1013 1020 927 
f 923 1014 1013 
f 1015 1014 923 
f 924 1016 1015 
f 929 1023 928 
f 1017 1024 929 
f 926 1018 1017 
f 1019 1018 926 
f 927 1020 1019 
f 1009 981 917 
f 919 1010 1009 
f 928 1021 1010 
f 931 990 930 
f 811 932 931 
f 934 1025 937 
f 935 977 934 
f 937 1022 938 
f 938 1024 940 
f 939 1018 941 
f 940 1017 939 
f 941 1020 942 
f 942 1020 944 
f 943 1014 946 
f 944 1014 943 
f 945 1016 947 
f 946 1016 945 
f 947 997 949 
f 949 998 948 
f 948 999 951 
f 950 993 953 
f 951 993 950 
f 952 995 933 
f 953 994 952 
f 933 932 811 
f 954 991 958 
f 955 991 954 
f 841 956 955 
f 957 1008 960 
f 958 1008 957 
f 959 1006 961 
f 960 1005 959 
f 961 1000 962 
f 962 1000 963 
f 966 965 854 
f 855 963 966 
f 964 1003 968 
f 965 1003 964 
f 967 1026 969 
f 968 1004 967 
f 969 1012 970 
f 970 1012 972 
f 971 985 974 
f 972 985 971 
f 973 980 976 
f 974 1027 973 
f 978 934 977 
f 979 1025 978 
f 981 1025 979 
f 980 1027 982 
f 982 986 983 
f 986 985 895 
f 987 1004 911 
f 896 988 987 
f 921 1011 988 
f 930 990 956 
f 989 933 995 
f 932 933 989 
f 992 951 999 
f 993 951 992 
f 994 953 993 
f 995 952 994 
f 996 947 1016 
f 997 947 996 
f 998 949 997 
f 999 948 998 
f 1000 961 1007 
f 1001 963 1000 
f 1002 965 1001 
f 910 1003 1002 
f 1004 1003 910 
f 1005 960 1008 
f 1006 959 1005 
f 1007 961 1006 
f 991 955 990 
f 1008 958 991 
f 1012 1011 921 
f 984 972 1012 
f 895 985 984 
f 1013 944 1020 
f 1014 944 1013 
f 1015 946 1014 
f 1016 946 1015 
f 1023 1022 928 
f 929 1024 1023 
f 1017 940 1024 
f 1018 939 1017 
f 1019 941 1018 
f 1020 941 1019 
f 1009 1025 981 
f 1010 1021 1009 
f 928 1022 1021 
f 1025 1021 937 
f 934 978 1025 
f 1022 1023 938 
f 937 1021 1022 
f 938 1023 1024 
f 956 990 955 
f 966 1001 965 
f 963 1001 966 
f 1003 1004 968 
f 965 1002 1003 
f 1026 1011 969 
f 967 1004 1026 
f 969 1011 1012 
f 985 986 974 
f 972 984 985 
f 973 1027 980 
f 974 986 1027 
f 1027 986 982 
f 987 1026 1004 
f 988 1011 987 
f 1009 1021 1025 
f 1026 987 1011 
# End of file
