# WaveFront *.obj file
# Vertices: 1003
# Triangles : 2006
v 0.3273317590355873 0.0006474683232227108 0.9271035902202129
v 0.25461085606366396 0.0006474683232227108 0.9998245164752007
v -0.2544353948906064 -0.5083987955003977 0.9998245164752007
v -0.7634816225618124 0.0006474683232227108 0.9998245164752007
v -0.8362025022506714 0.0006474683232227108 0.9271035902202129
v 0.2407045802101493 0.373342027887702 -8.773611170909135e-05
v 0.8363779634237289 0.373342027887702 -8.773611170909135e-05
v 0.8363779634237289 0.0006474683232227108 -0.3727823030203581
v 0.8363779634237289 -0.37204709369689226 -8.773611170909135e-05
v 0.2407045802101493 -0.37204709369689226 -8.811668408270634e-05
v 0.3273317590355873 0.0006474683232227108 0.4816881846636534
v -0.8362025022506714 0.0006474683232227108 -0.9999999776482582
v -0.2544353948906064 -0.5811196751892567 -0.9999999776482582
v 0.3273317590355873 0.0006474683232227108 -0.9999999776482582
v 0.3273317590355873 0.0006474683232227108 -0.48186364583671093
v 0.16252459026873112 -0.4050585441291332 -8.82280687619641e-05
v 0.16252459026873112 0.4063535016030073 -8.773611170909135e-05
v 0.1379164052195847 0.2642607083544135 -8.773611170909135e-05
v 0.7818372920155525 0.2642607083544135 -8.773611170909135e-05
v 0.7818372920155525 -0.2629657741636038 -8.773611170909135e-05
v 0.1379164052195847 -0.2629657741636038 -8.773611170909135e-05
v 0.21825041621923447 0.0006474683232227108 0.2635254990309477
v 0.8363779634237289 0.31880137976258993 -8.773611170909135e-05
v 0.8363779634237289 0.0006474683232227108 0.3180661704391241
v 0.8363779634237289 -0.31750642228871584 -8.773611170909135e-05
v 0.21825041621923447 0.0006474683232227108 -0.26370096020400524
v 0.21825041621923447 0.0006474683232227108 -0.9454593062400818
v -0.7271212060004473 0.0006474683232227108 -0.9454593062400818
v -0.7271212060004473 0.0006474683232227108 0.8907431736588478
v -0.2544353948906064 -0.4720383323729038 0.8907431736588478
v 0.21825041621923447 0.0006474683232227108 0.8907431736588478
v 0.2727910876274109 0.0006474683232227108 -0.9999999776482582
v -0.2544353948906064 -0.5265790037810802 -0.9999999776482582
v -0.781661830842495 0.0006474683232227108 -0.9999999776482582
v -0.2544353948906064 0.5278739146888256 -0.9999999776482582
v -0.2544353948906064 0.4733332432806492 0.8907431736588478
v -0.2544353948906064 0.582414586097002 -0.9999999776482582
v 0.8363779634237289 0.0006474683232227108 -0.31824163161218166
v 0.8363779634237289 0.0006474683232227108 0.37260684184730053
v -0.2544353948906064 0.509693706408143 0.9998245164752007
v 0.30849792528897524 0.0006474683232227108 0.9809906594455242
v 0.23726553190499544 -0.13110339641571045 0.9998245164752007
v 0.18641159404069185 -0.25387564674019814 0.9998245164752007
v 0.10551466839388013 -0.3593025729060173 0.9998245164752007
v 8.773611170909135e-05 -0.4401995334774256 0.9998245164752007
v -0.12268451973795891 -0.49105342477560043 0.9998245164752007
v -0.38618624676018953 -0.49105342477560043 0.9998245164752007
v -0.5089585203677416 -0.4401995334774256 0.9998245164752007
v -0.6143854465335608 -0.3593025729060173 0.9998245164752007
v -0.6952823605388403 -0.25387564674019814 0.9998245164752007
v -0.7461362984031439 -0.13110339641571045 0.9998245164752007
v -0.8173687383532524 0.0006474683232227108 0.9809906594455242
v -0.8192974142730236 -0.1385785173624754 0.9271035902202129
v -0.7695646025240421 -0.2697132062166929 0.9271035902202129
v -0.6898943334817886 -0.385135505348444 0.9271035902202129
v -0.5849167704582214 -0.47813751734793186 0.9271035902202129
v -0.46073286794126034 -0.5433142650872469 0.9271035902202129
v -0.32455965410918 -0.5768779199570417 0.9271035902202129
v -0.18431110074743629 -0.5768779199570417 0.9271035902202129
v -0.04813791601918638 -0.5433142650872469 0.9271035902202129
v 0.07604601560160518 -0.47813751734793186 0.9271035902202129
v 0.1810235669836402 -0.385135505348444 0.9271035902202129
v 0.2606938360258937 -0.2697132062166929 0.9271035902202129
v 0.31042664777487516 -0.1385785173624754 0.9271035902202129
v 0.6874596234411001 0.373342027887702 -8.773611170909135e-05
v 0.5385412834584713 0.373342027887702 -8.773611170909135e-05
v 0.3896229434758425 0.373342027887702 -8.773611170909135e-05
v 0.8363779634237289 0.1432715100236237 -0.3444126108661294
v 0.8363779634237289 0.2641823375597596 -0.26362258940935135
v 0.8363779634237289 0.34497235901653767 -0.14271177351474762
v 0.8363779634237289 -0.34367742482572794 -0.14271177351474762
v 0.8363779634237289 -0.2628873800858855 -0.26362258940935135
v 0.8363779634237289 -0.1419765641912818 -0.3444126108661294
v 0.6874596234411001 -0.37204709369689226 -8.773611170909135e-05
v 0.5385412834584713 -0.37204709369689226 -8.773611170909135e-05
v 0.3896229434758425 -0.37204709369689226 -8.773611170909135e-05
v 0.26855410542339087 0.3498365171253681 -0.13034995645284653
v 0.3294050693511963 0.28635275084525347 -0.239407061599195
v 0.3914071246981621 0.19038731697946787 -0.32086807768791914
v 0.4309442825615406 0.06775943329557776 -0.3666900098323822
v 0.4309444688260555 -0.0664633174892515 -0.3666902193799615
v 0.3914069849997759 -0.1890926156193018 -0.32086793798953295
v 0.3294046502560377 -0.2850583055987954 -0.2394064562395215
v 0.26855506002902985 -0.34854074474424124 -0.13035223819315434
v 0.3273317590355873 0.0006474683232227108 0.7786318194121122
v 0.3273317590355873 0.0006474683232227108 0.6301600020378828
v -0.8362025022506714 0.0006474683232227108 0.7894533686339855
v -0.8362025022506714 0.0006474683232227108 0.6518031004816294
v -0.8362025022506714 0.0006474683232227108 0.514152878895402
v -0.8362025022506714 0.0006474683232227108 0.37650258745998144
v -0.8362025022506714 0.0006474683232227108 0.23885234259068966
v -0.8362025022506714 0.0006474683232227108 0.10120207443833351
v -0.8362025022506714 0.0006474683232227108 -0.036448182072490454
v -0.8362025022506714 0.0006474683232227108 -0.17409843858331442
v -0.8362025022506714 0.0006474683232227108 -0.31174870673567057
v -0.8362025022506714 0.0006474683232227108 -0.44939895160496235
v -0.8362025022506714 0.0006474683232227108 -0.5870492197573185
v -0.8362025022506714 0.0006474683232227108 -0.7246994879096746
v -0.8362025022506714 0.0006474683232227108 -0.8623497560620308
v -0.8216164074838161 -0.12880789581686258 -0.9999999776482582
v -0.7785894442349672 -0.2517718356102705 -0.9999999776482582
v -0.709279254078865 -0.3620784031227231 -0.9999999776482582
v -0.6171612534672022 -0.4541963804513216 -0.9999999776482582
v -0.5068546626716852 -0.5235066171735525 -0.9999999776482582
v -0.38389074616134167 -0.5665335338562727 -0.9999999776482582
v -0.12498002033680677 -0.5665335338562727 -0.9999999776482582
v -0.002016085636569187 -0.5235066171735525 -0.9999999776482582
v 0.10829048696905375 -0.4541963804513216 -0.9999999776482582
v 0.2004084875807166 -0.3620784031227231 -0.9999999776482582
v 0.26971870101988316 -0.2517718356102705 -0.9999999776482582
v 0.3127456409856677 -0.12880789581686258 -0.9999999776482582
v 0.3273317590355873 0.0006474683232227108 -0.6113977171480656
v 0.3273317590355873 0.0006474683232227108 -0.7409318350255489
v 0.3273317590355873 0.0006474683232227108 -0.8704659529030323
v 0.18186707748100162 -0.38418127223849297 -0.1526443986222148
v 0.2261691028252244 -0.32718225847929716 -0.28391031082719564
v 0.27492321096360683 -0.24066658224910498 -0.38737463764846325
v 0.3127993317320943 -0.1285723759792745 -0.4567731637507677
v 0.3127989359200001 -0.12857409892603755 0.4565970040857792
v 0.2749251900240779 -0.24066222831606865 0.38720297161489725
v 0.22617029026150703 -0.32718051224946976 0.2837376669049263
v 0.18186673987656832 -0.3841816680505872 0.15246754046529531
v 0.2685556188225746 -0.34854025579988956 0.13017806923016906
v 0.3294055350124836 -0.2850572345778346 0.23923227563500404
v 0.3914095461368561 -0.18908748170360923 0.3206955036148429
v 0.43094498105347157 -0.0664601568132639 0.36651534028351307
v 0.43094404973089695 0.06776073132641613 0.3665142925456166
v 0.39140558801591396 0.19039040198549628 0.3206908004358411
v 0.3294017631560564 0.2863567788153887 0.23922675754874945
v 0.268556154333055 0.3498347010463476 0.13017939636483788
v 0.18186771776527166 0.38547548465430737 0.15247148694470525
v 0.22616833448410034 0.3284783335402608 0.28373298700898886
v 0.27492353692650795 0.24196079466491938 0.38719980511814356
v 0.31279874965548515 0.12986985966563225 0.4565966781228781
v 0.6530531216412783 0.2642607083544135 -8.773611170909135e-05
v 0.524268951267004 0.2642607083544135 -8.773611170909135e-05
v 0.39548478089272976 0.2642607083544135 -8.773611170909135e-05
v 0.26670058723539114 0.2642607083544135 -8.773611170909135e-05
v 0.7818372920155525 -0.2276482991874218 0.13171888422220945
v 0.7818372920155525 -0.13115914771333337 0.2282080240547657
v 0.7818372920155525 0.0006474683232227108 0.2635254990309477
v 0.7818372920155525 0.1324540819041431 0.2282080240547657
v 0.7818372920155525 0.22894323337823153 0.13171888422220945
v 0.6530531216412783 -0.2629657741636038 -8.773611170909135e-05
v 0.524268951267004 -0.2629657741636038 -8.773611170909135e-05
v 0.39548478089272976 -0.2629657741636038 -8.773611170909135e-05
v 0.26670058723539114 -0.2629657741636038 -8.773611170909135e-05
v 0.19902621861547232 -0.1327857724390924 0.22726112511008978
v 0.15979106537997723 -0.22705476731061935 0.1327415695413947
v 0.15979106537997723 0.22834970150142908 0.1327415695413947
v 0.19902621861547232 0.13408070662990212 0.22726112511008978
v 0.8363779634237289 0.2945833373814821 0.1216644886881113
v 0.8363779634237289 0.2256162464618683 0.22488103713840246
v 0.8363779634237289 0.12239969801157713 0.29384815134108067
v 0.8363779634237289 -0.1211047638207674 0.29384815134108067
v 0.8363779634237289 -0.22432131227105856 0.22488103713840246
v 0.8363779634237289 -0.2932884031906724 0.1216644886881113
v 0.21825041621923447 0.0006474683232227108 -0.8091076277196407
v 0.21825041621923447 0.0006474683232227108 -0.6727559957653284
v 0.21825041621923447 0.0006474683232227108 -0.5364043172448874
v 0.21825041621923447 0.0006474683232227108 -0.4000526387244463
v -0.7079740986227989 -0.13252351200208068 -0.9454593062400818
v -0.6520839873701334 -0.25490575935691595 -0.9454593062400818
v -0.5639787763357162 -0.35658462438732386 -0.9454593062400818
v -0.4507961682975292 -0.42932266369462013 -0.9454593062400818
v -0.3217055927962065 -0.46722707338631153 -0.9454593062400818
v -0.18716518534347415 -0.46722707338631153 -0.9454593062400818
v -0.0580746098421514 -0.42932266369462013 -0.9454593062400818
v 0.05510798073373735 -0.35658462438732386 -0.9454593062400818
v 0.14321320923045278 -0.25490575935691595 -0.9454593062400818
v 0.1991033088415861 -0.13252351200208068 -0.9454593062400818
v -0.7271212060004473 0.0006474683232227108 -0.8042129687964916
v -0.7271212060004473 0.0006474683232227108 -0.6629666313529015
v -0.7271212060004473 0.0006474683232227108 -0.5217202939093113
v -0.7271212060004473 0.0006474683232227108 -0.38047393318265676
v -0.7271212060004473 0.0006474683232227108 -0.2392275957390666
v -0.7271212060004473 0.0006474683232227108 -0.09798124665394425
v -0.7271212060004473 0.0006474683232227108 0.04326510243117809
v -0.7271212060004473 0.0006474683232227108 0.18451145151630044
v -0.7271212060004473 0.0006474683232227108 0.3257578006014228
v -0.7271212060004473 0.0006474683232227108 0.4670041613280773
v -0.7271212060004473 0.0006474683232227108 0.6082504987716675
v -0.7271212060004473 0.0006474683232227108 0.7494968362152576
v -0.7039863150566816 -0.145420478656888 0.8907431736588478
v -0.6368462461978197 -0.27719028294086456 0.8907431736588478
v -0.5322731100022793 -0.38176337257027626 0.8907431736588478
v -0.40050335228443146 -0.4489034414291382 0.8907431736588478
v -0.10836743749678135 -0.4489034414291382 0.8907431736588478
v 0.023402355145663023 -0.38176337257027626 0.8907431736588478
v 0.1279754564166069 -0.27719028294086456 0.8907431736588478
v 0.19511552527546883 -0.145420478656888 0.8907431736588478
v 0.21825041621923447 0.0006474683232227108 0.3889690386131406
v 0.21825041621923447 0.0006474683232227108 0.5144125781953335
v 0.21825041621923447 0.0006474683232227108 0.639856094494462
v 0.21825041621923447 0.0006474683232227108 0.7652996573597193
v 0.15979106537997723 -0.22705476731061935 -0.13291704235598445
v 0.19902621861547232 -0.1327857724390924 -0.2274366095662117
v 0.2548262709751725 -0.13580878730863333 -0.9999999776482582
v 0.20215613767504692 -0.2629657741636038 -0.9999999776482582
v 0.11837002821266651 -0.37215794436633587 -0.9999999776482582
v 0.009177847823593765 -0.4559440538287163 -0.9999999776482582
v -0.11797914048656821 -0.5086142104119062 -0.9999999776482582
v -0.3908916376531124 -0.5086142104119062 -0.9999999776482582
v -0.5180486012250185 -0.4559440538287163 -0.9999999776482582
v -0.6272408179938793 -0.37215794436633587 -0.9999999776482582
v -0.711026880890131 -0.2629657741636038 -0.9999999776482582
v -0.763697037473321 -0.13580878730863333 -0.9999999776482582
v 0.1991033088415861 0.1338184461928904 -0.9454593062400818
v 0.14321320923045278 0.2562006935477257 -0.9454593062400818
v 0.05510798073373735 0.3578795585781336 -0.9454593062400818
v -0.0580746098421514 0.4306175746023655 -0.9454593062400818
v -0.18716518534347415 0.4685219842940569 -0.9454593062400818
v -0.3217055927962065 0.4685219842940569 -0.9454593062400818
v -0.4507961682975292 0.4306175746023655 -0.9454593062400818
v -0.5639787763357162 0.3578795585781336 -0.9454593062400818
v -0.6520839873701334 0.2562006935477257 -0.9454593062400818
v -0.7079740986227989 0.1338184461928904 -0.9454593062400818
v -0.763697037473321 0.13710372149944305 -0.9999999776482582
v -0.711026880890131 0.2642607083544135 -0.9999999776482582
v -0.6272408179938793 0.3734528785571456 -0.9999999776482582
v -0.5180486012250185 0.45723896473646164 -0.9999999776482582
v -0.3908916376531124 0.5099091213196516 -0.9999999776482582
v -0.11797914048656821 0.5099091213196516 -0.9999999776482582
v 0.009177847823593765 0.45723896473646164 -0.9999999776482582
v 0.11837002821266651 0.3734528785571456 -0.9999999776482582
v 0.20215613767504692 0.2642607083544135 -0.9999999776482582
v 0.2548262709751725 0.13710372149944305 -0.9999999776482582
v 0.19902621861547232 0.13408070662990212 -0.2274366095662117
v 0.15979106537997723 0.22834970150142908 -0.13291704235598445
v 0.19511552527546883 0.14671541284769773 0.8907431736588478
v 0.1279754564166069 0.2784852171316743 0.8907431736588478
v 0.023402355145663023 0.383058306761086 0.8907431736588478
v -0.10836743749678135 0.4501983989030123 0.8907431736588478
v -0.40050335228443146 0.4501983989030123 0.8907431736588478
v -0.5322731100022793 0.383058306761086 0.8907431736588478
v -0.6368462461978197 0.2784852171316743 0.8907431736588478
v -0.7039863150566816 0.14671541284769773 0.8907431736588478
v -0.38389074616134167 0.5678284913301468 -0.9999999776482582
v -0.5068546626716852 0.5248015280812979 -0.9999999776482582
v -0.6171612534672022 0.4554913379251957 -0.9999999776482582
v -0.709279254078865 0.36337333731353283 -0.9999999776482582
v -0.7785894442349672 0.2530667698010802 -0.9999999776482582
v -0.8216164074838161 0.1301028300076723 -0.9999999776482582
v 0.3127456409856677 0.1301028300076723 -0.9999999776482582
v 0.26971870101988316 0.2530667698010802 -0.9999999776482582
v 0.2004084875807166 0.36337333731353283 -0.9999999776482582
v 0.10829048696905375 0.4554913379251957 -0.9999999776482582
v -0.002016085636569187 0.5248015280812979 -0.9999999776482582
v -0.12498002033680677 0.5678284913301468 -0.9999999776482582
v 0.7818372920155525 0.22894323337823153 -0.1318943570367992
v 0.7818372920155525 0.1324540819041431 -0.22838348522782326
v 0.7818372920155525 0.0006474683232227108 -0.26370096020400524
v 0.7818372920155525 -0.13115914771333337 -0.22838348522782326
v 0.7818372920155525 -0.2276482991874218 -0.1318943570367992
v 0.8363779634237289 -0.2932884031906724 -0.12183996150270104
v 0.8363779634237289 -0.22432131227105856 -0.22505652159452438
v 0.8363779634237289 -0.1211047638207674 -0.2940236125141382
v 0.8363779634237289 0.12239969801157713 -0.2940236125141382
v 0.8363779634237289 0.2256162464618683 -0.22505652159452438
v 0.8363779634237289 0.2945833373814821 -0.12183996150270104
v 0.8363779634237289 0.34497235901653767 0.14253630070015788
v 0.8363779634237289 0.2641823375597596 0.2634471282362938
v 0.8363779634237289 0.1432715100236237 0.34423714969307184
v 0.8363779634237289 -0.1419765641912818 0.34423714969307184
v 0.8363779634237289 -0.2628873800858855 0.2634471282362938
v 0.8363779634237289 -0.34367742482572794 0.14253630070015788
v 0.3127991920337081 0.12986797373741865 -0.4567728843539953
v 0.27492328081279993 0.24196140002459288 -0.3873747540637851
v 0.22617005743086338 0.32847579568624496 -0.28391259256750345
v 0.18186633242294192 0.3854770679026842 -0.1526413718238473
v 0.31042664777487516 0.13987345155328512 0.9271035902202129
v 0.2606938360258937 0.27100814040750265 0.9271035902202129
v 0.1810235669836402 0.3864304395392537 0.9271035902202129
v 0.07604601560160518 0.4794324282556772 0.9271035902202129
v -0.04813791601918638 0.5446091759949923 0.9271035902202129
v -0.18431110074743629 0.5781728774309158 0.9271035902202129
v -0.32455965410918 0.5781728774309158 0.9271035902202129
v -0.46073286794126034 0.5446091759949923 0.9271035902202129
v -0.5849167704582214 0.4794324282556772 0.9271035902202129
v -0.6898943334817886 0.3864304395392537 0.9271035902202129
v -0.7695646025240421 0.27100814040750265 0.9271035902202129
v -0.8192974142730236 0.13987345155328512 0.9271035902202129
v -0.7461362984031439 0.13239833060652018 0.9998245164752007
v -0.6952823605388403 0.25517058093100786 0.9998245164752007
v -0.6143854465335608 0.3605975303798914 0.9998245164752007
v -0.5089585203677416 0.44149444438517094 0.9998245164752007
v -0.38618624676018953 0.4923483822494745 0.9998245164752007
v -0.12268451973795891 0.4923483822494745 0.9998245164752007
v 8.773611170909135e-05 0.44149444438517094 0.9998245164752007
v 0.10551466839388013 0.3605975303798914 0.9998245164752007
v 0.18641159404069185 0.25517058093100786 0.9998245164752007
v 0.23726553190499544 0.13239833060652018 0.9998245164752007
v 0.30126734636723995 -0.08928797906264663 0.9809906594455242
v 0.29075590427964926 -0.13956795446574688 0.9809906594455242
v 0.26987974997609854 -0.20426115952432156 0.9809906594455242
v 0.2386482199653983 -0.2709449967369437 0.9809906594455242
v 0.20231623202562332 -0.32839945051819086 0.9809906594455242
v 0.15545941423624754 -0.38520246744155884 0.9809906594455242
v 0.10596174979582429 -0.43179653584957123 0.9809906594455242
v 0.0464332289993763 -0.4751381929963827 0.9809906594455242
v -0.01311006344622001 -0.507934857159853 0.9809906594455242
v -0.08155794930644333 -0.5350831430405378 0.9809906594455242
v -0.1473936135880649 -0.552015146240592 0.9809906594455242
v -0.2204463118687272 -0.561258802190423 0.9809906594455242
v -0.28842445462942123 -0.561258802190423 0.9809906594455242
v -0.3614771645516157 -0.552015146240592 0.9809906594455242
v -0.4273128230124712 -0.5350831430405378 0.9809906594455242
v -0.4957607015967369 -0.507934857159853 0.9809906594455242
v -0.5553040187805891 -0.4751381929963827 0.9809906594455242
v -0.6148325279355049 -0.43179653584957123 0.9809906594455242
v -0.664330180734396 -0.38520246744155884 0.9809906594455242
v -0.7111869752407074 -0.32839945051819086 0.9809906594455242
v -0.7475189864635468 -0.2709449967369437 0.9809906594455242
v -0.778750516474247 -0.20426115952432156 0.9809906594455242
v -0.7996266707777977 -0.13956795446574688 0.9809906594455242
v -0.8101381361484528 -0.08928797906264663 0.9809906594455242
v 0.6977061275392771 0.34497235901653767 -0.14271177351474762
v 0.5385412834584713 0.34783985465765 -0.13558199862018228
v 0.4042854066938162 0.3587414976209402 -0.10338295251131058
v 0.6977061275392771 0.1432715100236237 -0.3444126108661294
v 0.6977061275392771 0.0006474683232227108 -0.3727823030203581
v 0.6977061275392771 0.2641823375597596 -0.26362258940935135
v 0.6977061275392771 -0.34367742482572794 -0.14271177351474762
v 0.6977061275392771 -0.1419765641912818 -0.3444126108661294
v 0.6977061275392771 -0.2628873800858855 -0.26362258940935135
v 0.5385412834584713 -0.34654492046684027 -0.13558199862018228
v 0.40428624488413334 -0.3574460279196501 -0.10338481515645981
v 0.4544259048998356 0.32101869583129883 -0.19051756244152784
v 0.5242140963673592 0.22357942070811987 -0.29875575564801693
v 0.5696163512766361 -0.06646311958320439 -0.3666902659460902
v 0.5696161650121212 0.06775962538085878 -0.36668998654931784
v 0.5242140498012304 -0.22228460293263197 -0.29875566251575947
v 0.4539209883660078 -0.32025440596044064 -0.18962199101224542
v 0.31042664777487516 -0.1385785173624754 0.7894634269177914
v 0.3064527874812484 -0.15381111297756433 0.5917544011026621
v -0.8199961856007576 -0.13571224408224225 0.7894533686339855
v -0.7695646025240421 -0.2697132062166929 0.7894634269177914
v -0.6898943334817886 -0.385135505348444 0.7894634269177914
v -0.5849167704582214 -0.47813751734793186 0.7894634269177914
v -0.46073286794126034 -0.5433142650872469 0.7894634269177914
v -0.32455965410918 -0.5768779199570417 0.7894634269177914
v -0.18431110074743629 -0.5768779199570417 0.7894634269177914
v -0.04813791601918638 -0.5433142650872469 0.7894634269177914
v 0.07604601560160518 -0.47813751734793186 0.7894634269177914
v 0.1810235669836402 -0.385135505348444 0.7894634269177914
v 0.2606938360258937 -0.2697132062166929 0.7894634269177914
v -0.8199961856007576 -0.13571224408224225 0.6518031004816294
v -0.8199961856007576 -0.13571224408224225 0.514152878895402
v -0.8199961856007576 -0.13571224408224225 0.37650258745998144
v -0.8199961856007576 -0.13571224408224225 0.23885234259068966
v -0.8199961856007576 -0.13571224408224225 0.10120207443833351
v -0.8199961856007576 -0.13571224408224225 -0.036448182072490454
v -0.8199961856007576 -0.13571224408224225 -0.17409843858331442
v -0.8199961856007576 -0.13571224408224225 -0.31174870673567057
v -0.8199961856007576 -0.13571224408224225 -0.44939895160496235
v -0.8199961856007576 -0.13571224408224225 -0.5870492197573185
v -0.8199961856007576 -0.13571224408224225 -0.7246994879096746
v -0.8216164074838161 -0.12880789581686258 -0.8623598143458366
v -0.7785894442349672 -0.2517718356102705 -0.8623598143458366
v -0.709279254078865 -0.3620784031227231 -0.8623598143458366
v -0.6171612534672022 -0.4541963804513216 -0.8623598143458366
v -0.5068546626716852 -0.5235066171735525 -0.8623598143458366
v -0.38389074616134167 -0.5665335338562727 -0.8623598143458366
v -0.2544353948906064 -0.5811196751892567 -0.8623598143458366
v -0.12498002033680677 -0.5665335338562727 -0.8623598143458366
v -0.002016085636569187 -0.5235066171735525 -0.8623598143458366
v 0.10829048696905375 -0.4541963804513216 -0.8623598143458366
v 0.2004084875807166 -0.3620784031227231 -0.8623598143458366
v 0.26971870101988316 -0.2517718356102705 -0.8623598143458366
v 0.31112541910260916 -0.13571224408224225 -0.8704659529030323
v 0.31112541910260916 -0.13571224408224225 -0.6113977171480656
v 0.31112541910260916 -0.13571224408224225 -0.7409318350255489
v 0.05778898485004902 -0.49023842439055443 -0.02533286460675299
v 0.07604601560160518 -0.47813751734793186 0.1012625521980226
v 0.09333214838989079 -0.46573299914598465 -0.21900488063693047
v 0.1635399996303022 -0.4040123429149389 -0.37928163073956966
v 0.24236650206148624 -0.30207496602088213 -0.506152305752039
v 0.18684205133467913 -0.3784662811085582 -0.48186364583671093
v 0.26340936310589314 -0.2644747728481889 -0.6113977171480656
v 0.24236924946308136 -0.3020704723894596 0.5059809423983097
v 0.16354203689843416 -0.40401024743914604 0.37910984829068184
v 0.09333182824775577 -0.4657332319766283 0.21882823202759027
v 0.2606938360258937 -0.2697132062166929 0.6518232636153698
v -0.7722801528871059 -0.2644747728481889 0.6518031004816294
v -0.6898943334817886 -0.385135505348444 0.6518232636153698
v -0.5849167704582214 -0.47813751734793186 0.6518232636153698
v -0.46073286794126034 -0.5433142650872469 0.6518232636153698
v -0.32455965410918 -0.5768779199570417 0.6518232636153698
v -0.18431110074743629 -0.5768779199570417 0.6518232636153698
v -0.04813791601918638 -0.5433142650872469 0.6518232636153698
v 0.07604601560160518 -0.47813751734793186 0.6518232636153698
v 0.20272224210202694 -0.3591578919440508 0.6247588898986578
v -0.7722801528871059 -0.2644747728481889 0.514152878895402
v -0.7722801528871059 -0.2644747728481889 0.37650258745998144
v -0.7722801528871059 -0.2644747728481889 0.23885234259068966
v -0.7722801528871059 -0.2644747728481889 0.10120207443833351
v -0.7722801528871059 -0.2644747728481889 -0.036448182072490454
v -0.7722801528871059 -0.2644747728481889 -0.17409843858331442
v -0.7722801528871059 -0.2644747728481889 -0.31174870673567057
v -0.7722801528871059 -0.2644747728481889 -0.44939895160496235
v -0.7722801528871059 -0.2644747728481889 -0.5870492197573185
v -0.7785894442349672 -0.2517718356102705 -0.7247196510434151
v -0.709279254078865 -0.3620784031227231 -0.7247196510434151
v -0.6171612534672022 -0.4541963804513216 -0.7247196510434151
v -0.5068546626716852 -0.5235066171735525 -0.7247196510434151
v -0.38389074616134167 -0.5665335338562727 -0.7247196510434151
v -0.2544353948906064 -0.5811196751892567 -0.7247196510434151
v -0.12498002033680677 -0.5665335338562727 -0.7247196510434151
v -0.002016085636569187 -0.5235066171735525 -0.7247196510434151
v 0.10829048696905375 -0.4541963804513216 -0.7247196510434151
v 0.2004084875807166 -0.3620784031227231 -0.7247196510434151
v 0.26340936310589314 -0.2644747728481889 -0.7409318350255489
v -0.002016085636569187 -0.5235066171735525 -0.1741589163430035
v -0.06375939701683819 -0.5489848554134369 -0.05057750386185944
v -0.0637595308944583 -0.5489849019795656 0.0504002848174423
v -0.01009091065498069 -0.5273191723972559 0.28518892358988523
v -0.010090655268868431 -0.5273190792649984 -0.28536536265164614
v 0.0887771078851074 -0.4690952133387327 -0.47465297393500805
v 0.20271867979317904 -0.35916243214160204 -0.6249299738556147
v 0.10829048696905375 -0.4541963804513216 -0.5870794411748648
v 0.1810235669836402 -0.385135505348444 0.5141831003129482
v 0.07604601560160518 -0.47813751734793186 0.3765429137274623
v 0.08878014050424099 -0.46909297816455364 0.4744820296764374
v -0.6957128178328276 -0.3784662811085582 0.514152878895402
v -0.5849167704582214 -0.47813751734793186 0.5141831003129482
v -0.46073286794126034 -0.5433142650872469 0.5141831003129482
v -0.32455965410918 -0.5768779199570417 0.5141831003129482
v -0.18431110074743629 -0.5768779199570417 0.5141831003129482
v -0.04813791601918638 -0.5433142650872469 0.5141831003129482
v -0.6957128178328276 -0.3784662811085582 0.37650258745998144
v -0.6957128178328276 -0.3784662811085582 0.23885234259068966
v -0.6957128178328276 -0.3784662811085582 0.10120207443833351
v -0.6957128178328276 -0.3784662811085582 -0.036448182072490454
v -0.6957128178328276 -0.3784662811085582 -0.17409843858331442
v -0.6957128178328276 -0.3784662811085582 -0.31174870673567057
v -0.6957128178328276 -0.3784662811085582 -0.44939895160496235
v -0.709279254078865 -0.3620784031227231 -0.5870794411748648
v -0.6171612534672022 -0.4541963804513216 -0.5870794411748648
v -0.5068546626716852 -0.5235066171735525 -0.5870794411748648
v -0.38389074616134167 -0.5665335338562727 -0.5870794411748648
v -0.2544353948906064 -0.5811196751892567 -0.5870794411748648
v -0.12498002033680677 -0.5665335338562727 -0.5870794411748648
v -0.002016085636569187 -0.5235066171735525 -0.5870794411748648
v -0.16733993543311954 -0.5745632573962212 -0.22837831638753414
v -0.19557538907974958 -0.5781344603747129 -0.0758221372961998
v -0.19557559862732887 -0.5781344603747129 0.07564453990198672
v -0.16734065720811486 -0.5745633505284786 0.22820031736046076
v -0.12397398240864277 -0.5663029849529266 0.35154963843524456
v -0.054761284263804555 -0.5457802675664425 -0.48299175687134266
v -0.12397381942719221 -0.5663029383867979 -0.3517258446663618
v -0.5945601034909487 -0.47133578918874264 0.37650258745998144
v -0.46073286794126034 -0.5433142650872469 0.3765429137274623
v -0.32455965410918 -0.5768779199570417 0.3765429137274623
v -0.5945601034909487 -0.47133578918874264 0.23885234259068966
v -0.5945601034909487 -0.47133578918874264 0.10120207443833351
v -0.5945601034909487 -0.47133578918874264 -0.036448182072490454
v -0.5945601034909487 -0.47133578918874264 -0.17409843858331442
v -0.5945601034909487 -0.47133578918874264 -0.31174870673567057
v -0.6171612534672022 -0.4541963804513216 -0.4494392778724432
v -0.5068546626716852 -0.5235066171735525 -0.4494392778724432
v -0.38389074616134167 -0.5665335338562727 -0.4494392778724432
v -0.2544353948906064 -0.5811196751892567 -0.4494392778724432
v -0.30226255767047405 -0.5791503936052322 -0.2536229323595762
v -0.33056086394935846 -0.5761175882071257 -0.10106677655130625
v -0.3305611666291952 -0.5761175416409969 0.10088880080729723
v -0.3022633492946625 -0.5791503470391035 0.253444560803473
v -0.47445762902498245 -0.537909148260951 0.23885234259068966
v -0.47445762902498245 -0.537909148260951 0.10120207443833351
v -0.47445762902498245 -0.537909148260951 -0.036448182072490454
v -0.47445762902498245 -0.537909148260951 -0.17409843858331442
v -0.5068546626716852 -0.5235066171735525 -0.31179909128695726
v -0.38389074616134167 -0.5665335338562727 -0.31179909128695726
v 0.26706119533628225 -0.2897330094128847 0.2556461375206709
v 0.29114210046827793 -0.2487635938450694 0.29995059594511986
v 0.33365150447934866 -0.1462299027480185 0.3685898380354047
v 0.31554296147078276 -0.19710061606019735 0.34049872774630785
v 0.3545959712937474 0.0318967504426837 0.3994421102106571
v 0.35459615755826235 -0.030598833109252155 0.3994423896074295
v 0.34793203230947256 -0.0863000052049756 0.38979563396424055
v 0.33364980481565 0.14753042487427592 0.36858730018138885
v 0.347931613214314 0.08759741322137415 0.3897950053215027
v 0.29114021454006433 0.2500620437785983 0.29994731303304434
v 0.31554054003208876 0.1984013943001628 0.34049488604068756
v 0.26705858763307333 0.291031994856894 0.25564103852957487
v 0.6530531216412783 0.23063337430357933 0.12874711537733674
v 0.524268951267004 0.23063337430357933 0.12874711537733674
v 0.39548478089272976 0.23063337430357933 0.12874711537733674
v 0.26670058723539114 0.23063337430357933 0.12874711537733674
v 0.6530531216412783 -0.2293384401127696 0.12874711537733674
v 0.6472285371273756 -0.13115914771333337 0.2282080240547657
v 0.6472285371273756 0.0006474683232227108 0.2635254990309477
v 0.6472285371273756 0.1324540819041431 0.2282080240547657
v 0.524268951267004 -0.2293384401127696 0.12874711537733674
v 0.39548478089272976 -0.2293384401127696 0.12874711537733674
v 0.26670058723539114 -0.2293384401127696 0.12874711537733674
v 0.3516061929985881 -0.01766142522683367 0.26288891676813364
v 0.328283803537488 -0.1637300942093134 0.20599951967597008
v 0.328283803537488 0.16502502840012312 0.20599951967597008
v 0.524268951267004 0.13833062257617712 0.22471281699836254
v 0.524268951267004 -0.1370356883853674 0.22471281699836254
v 0.5126197822391987 0.0006474683232227108 0.2635254990309477
v 0.1991033088415861 -0.13252351200208068 -0.8067874237895012
v 0.19805480260401964 -0.13604379491880536 -0.6727559957653284
v 0.19805480260401964 -0.13604379491880536 -0.5364043172448874
v 0.19805480260401964 -0.13604379491880536 -0.4000526387244463
v -0.7079740986227989 -0.13252351200208068 -0.8067874237895012
v -0.6520839873701334 -0.25490575935691595 -0.8067874237895012
v -0.5639787763357162 -0.35658462438732386 -0.8067874237895012
v -0.4507961682975292 -0.42932266369462013 -0.8067874237895012
v -0.3217055927962065 -0.46722707338631153 -0.8067874237895012
v -0.18716518534347415 -0.46722707338631153 -0.8067874237895012
v -0.0580746098421514 -0.42932266369462013 -0.8067874237895012
v 0.05510798073373735 -0.35658462438732386 -0.8067874237895012
v 0.14321320923045278 -0.25490575935691595 -0.8067874237895012
v -0.7069255691021681 -0.13604379491880536 -0.6629666313529015
v -0.7069255691021681 -0.13604379491880536 -0.5217202939093113
v -0.7069255691021681 -0.13604379491880536 -0.38047393318265676
v -0.7069255691021681 -0.13604379491880536 -0.2392275957390666
v -0.7069255691021681 -0.13604379491880536 -0.09798124665394425
v -0.7069255691021681 -0.13604379491880536 0.04326510243117809
v -0.7069255691021681 -0.13604379491880536 0.18451145151630044
v -0.7069255691021681 -0.13604379491880536 0.3257578006014228
v -0.7069255691021681 -0.13604379491880536 0.4670041613280773
v -0.7069255691021681 -0.13604379491880536 0.6082504987716675
v -0.7069255691021681 -0.13604379491880536 0.7494968362152576
v -0.6368462461978197 -0.27719028294086456 0.7520713377743959
v -0.5322731100022793 -0.38176337257027626 0.7520713377743959
v -0.40050335228443146 -0.4489034414291382 0.7520713377743959
v -0.2544353948906064 -0.4720383323729038 0.7520713377743959
v -0.10836743749678135 -0.4489034414291382 0.7520713377743959
v 0.023402355145663023 -0.38176337257027626 0.7520713377743959
v 0.19805480260401964 -0.13604379491880536 0.7652996573597193
v 0.1279754564166069 -0.27719028294086456 0.7520713377743959
v 0.19805480260401964 -0.13604379491880536 0.3889690386131406
v 0.19805480260401964 -0.13604379491880536 0.5144125781953335
v 0.19805480260401964 -0.13604379491880536 0.639856094494462
v 0.16368108335882425 -0.21983038168400526 0.3291171044111252
v 0.04990043235011399 -0.36103136371821165 0.041776191210374236
v 0.05510798073373735 -0.35658462438732386 0.1639156718738377
v 0.10657749371603131 -0.3044780110940337 0.23459754884243011
v 0.08083834545686841 -0.33255424350500107 -0.17478096997365355
v 0.023402355145663023 -0.38176337257027626 -0.07995993364602327
v 0.16368108335882425 -0.21983038168400526 -0.3292925888672471
v 0.14321320923045278 -0.25490575935691595 -0.6681155879050493
v 0.1391936675645411 -0.2610547235235572 -0.5364043172448874
v 0.11181944282725453 -0.29816562309861183 -0.4311485681682825
v -0.6520839873701334 -0.25490575935691595 -0.6681155879050493
v -0.5639787763357162 -0.35658462438732386 -0.6681155879050493
v -0.4507961682975292 -0.42932266369462013 -0.6681155879050493
v -0.3217055927962065 -0.46722707338631153 -0.6681155879050493
v -0.18716518534347415 -0.46722707338631153 -0.6681155879050493
v -0.0580746098421514 -0.42932266369462013 -0.6681155879050493
v 0.05510798073373735 -0.35658462438732386 -0.6681155879050493
v -0.6480644457042217 -0.2610547235235572 -0.5217202939093113
v -0.6480644457042217 -0.2610547235235572 -0.38047393318265676
v -0.6480644457042217 -0.2610547235235572 -0.2392275957390666
v -0.6480644457042217 -0.2610547235235572 -0.09798124665394425
v -0.6480644457042217 -0.2610547235235572 0.04326510243117809
v -0.6480644457042217 -0.2610547235235572 0.18451145151630044
v -0.6480644457042217 -0.2610547235235572 0.3257578006014228
v -0.6480644457042217 -0.2610547235235572 0.4670041613280773
v -0.6480644457042217 -0.2610547235235572 0.6082504987716675
v -0.5322731100022793 -0.38176337257027626 0.6133994553238153
v -0.40050335228443146 -0.4489034414291382 0.6133994553238153
v -0.2544353948906064 -0.4720383323729038 0.6133994553238153
v -0.10836743749678135 -0.4489034414291382 0.6133994553238153
v 0.023402355145663023 -0.38176337257027626 0.6133994553238153
v 0.1391936675645411 -0.2610547235235572 0.639856094494462
v 0.1391936675645411 -0.2610547235235572 0.5144125781953335
v 0.03910314408130944 -0.36984814796596766 0.3364535281434655
v -0.06176653550937772 -0.4309896379709244 0.08364011882804334
v -0.02416966308373958 -0.41215945966541767 0.21646942477673292
v 0.03910314408130944 -0.36984814796596766 -0.3366289893165231
v -0.02416966308373958 -0.41215945966541767 -0.21664490923285484
v -0.06176653550937772 -0.4309896379709244 -0.08381559164263308
v 0.05510798073373735 -0.35658462438732386 -0.5294437054544687
v -0.5639787763357162 -0.35658462438732386 -0.5294437054544687
v -0.4507961682975292 -0.42932266369462013 -0.5294437054544687
v -0.3217055927962065 -0.46722707338631153 -0.5294437054544687
v -0.18716518534347415 -0.46722707338631153 -0.5294437054544687
v -0.0580746098421514 -0.42932266369462013 -0.5294437054544687
v -0.5555674899369478 -0.36370307207107544 -0.38047393318265676
v -0.5555674899369478 -0.36370307207107544 -0.2392275957390666
v -0.5555674899369478 -0.36370307207107544 -0.09798124665394425
v -0.5555674899369478 -0.36370307207107544 0.04326510243117809
v -0.5555674899369478 -0.36370307207107544 0.18451145151630044
v -0.5555674899369478 -0.36370307207107544 0.3257578006014228
v -0.5555674899369478 -0.36370307207107544 0.4670041613280773
v -0.40050335228443146 -0.4489034414291382 0.47472757287323475
v -0.2544353948906064 -0.4720383323729038 0.47472757287323475
v -0.03996661398559809 -0.42058289982378483 0.4383095074445009
v 0.046696735080331564 -0.36370307207107544 0.5144125781953335
v -0.18716518534347415 -0.46722707338631153 0.025243795244023204
v -0.18840647535398602 -0.46740383841097355 0.12550405226647854
v -0.1470724237151444 -0.4596840124577284 0.258333352394402
v -0.0580746098421514 -0.42932266369462013 -0.39077182300388813
v -0.1470724237151444 -0.4596840124577284 -0.25850883685052395
v -0.18840647535398602 -0.46740383841097355 -0.12567952508106828
v -0.4507961682975292 -0.42932266369462013 -0.39077182300388813
v -0.3217055927962065 -0.46722707338631153 -0.39077182300388813
v -0.18716518534347415 -0.46722707338631153 -0.39077182300388813
v -0.43733869679272175 -0.4352174699306488 -0.2392275957390666
v -0.43733869679272175 -0.4352174699306488 -0.09798124665394425
v -0.43733869679272175 -0.4352174699306488 0.04326510243117809
v -0.43733869679272175 -0.4352174699306488 0.18451145151630044
v -0.43733869679272175 -0.4352174699306488 0.3257578006014228
v -0.34343902952969074 -0.4635833203792572 0.3889690386131406
v -0.20539008546620607 -0.46948702074587345 0.3889690386131406
v -0.30348070431500673 -0.46948702074587345 0.04326510243117809
v -0.3201777581125498 -0.46744421124458313 0.16736797988414764
v -0.2783187432214618 -0.4714345559477806 0.30019728001207113
v -0.2783187432214618 -0.4714345559477806 -0.30037276446819305
v -0.3201777581125498 -0.46744421124458313 -0.16754345269873738
v 0.1991033088415861 0.1338184461928904 -0.8067874237895012
v 0.19805480260401964 0.1373387291096151 -0.6727559957653284
v 0.19805480260401964 0.1373387291096151 -0.5364043172448874
v 0.19805480260401964 0.1373387291096151 -0.4000526387244463
v 0.16368108335882425 0.221125315874815 -0.3292925888672471
v 0.04990043235011399 0.3623262979090214 -0.041951664024963975
v 0.10657749371603131 0.30577294528484344 -0.23477301001548767
v 0.08083834545686841 0.33384920097887516 0.17460549715906382
v 0.023402355145663023 0.383058306761086 0.05871193716302514
v 0.16368108335882425 0.221125315874815 0.3291171044111252
v 0.19805480260401964 0.1373387291096151 0.3889690386131406
v 0.19805480260401964 0.1373387291096151 0.5144125781953335
v 0.19805480260401964 0.1373387291096151 0.639856094494462
v 0.19805480260401964 0.1373387291096151 0.7652996573597193
v 0.1279754564166069 0.2784852171316743 0.7520713377743959
v 0.023402355145663023 0.383058306761086 0.7520713377743959
v -0.10836743749678135 0.4501983989030123 0.7520713377743959
v -0.2544353948906064 0.4733332432806492 0.7520713377743959
v -0.40050335228443146 0.4501983989030123 0.7520713377743959
v -0.5322731100022793 0.383058306761086 0.7520713377743959
v -0.6368462461978197 0.2784852171316743 0.7520713377743959
v -0.7069255691021681 0.1373387291096151 0.7494968362152576
v -0.7079740986227989 0.1338184461928904 -0.8067874237895012
v -0.7069255691021681 0.1373387291096151 -0.6629666313529015
v -0.7069255691021681 0.1373387291096151 -0.5217202939093113
v -0.7069255691021681 0.1373387291096151 -0.38047393318265676
v -0.7069255691021681 0.1373387291096151 -0.2392275957390666
v -0.7069255691021681 0.1373387291096151 -0.09798124665394425
v -0.7069255691021681 0.1373387291096151 0.04326510243117809
v -0.7069255691021681 0.1373387291096151 0.18451145151630044
v -0.7069255691021681 0.1373387291096151 0.3257578006014228
v -0.7069255691021681 0.1373387291096151 0.4670041613280773
v -0.7069255691021681 0.1373387291096151 0.6082504987716675
v 0.14321320923045278 0.2562006935477257 -0.8067874237895012
v 0.05510798073373735 0.3578795585781336 -0.8067874237895012
v -0.0580746098421514 0.4306175746023655 -0.8067874237895012
v -0.18716518534347415 0.4685219842940569 -0.8067874237895012
v -0.3217055927962065 0.4685219842940569 -0.8067874237895012
v -0.4507961682975292 0.4306175746023655 -0.8067874237895012
v -0.5639787763357162 0.3578795585781336 -0.8067874237895012
v -0.6520839873701334 0.2562006935477257 -0.8067874237895012
v 0.14321320923045278 0.2562006935477257 -0.6681155879050493
v 0.1391936675645411 0.2623496577143669 -0.5364043172448874
v 0.11181944282725453 0.29946055728942156 -0.4311485681682825
v -0.06176653550937772 0.43228454887866974 -0.08381559164263308
v -0.02416966308373958 0.41345441713929176 -0.21664490923285484
v 0.03910314408130944 0.3711430821567774 -0.3366289893165231
v 0.03910314408130944 0.3711430821567774 0.3364535281434655
v -0.02416966308373958 0.41345441713929176 0.21646942477673292
v -0.06176653550937772 0.43228454887866974 0.08364011882804334
v 0.1391936675645411 0.2623496577143669 0.5144125781953335
v 0.1391936675645411 0.2623496577143669 0.639856094494462
v 0.023402355145663023 0.383058306761086 0.6133994553238153
v -0.10836743749678135 0.4501983989030123 0.6133994553238153
v -0.2544353948906064 0.4733332432806492 0.6133994553238153
v -0.40050335228443146 0.4501983989030123 0.6133994553238153
v -0.5322731100022793 0.383058306761086 0.6133994553238153
v -0.6480644457042217 0.2623496577143669 0.6082504987716675
v -0.6520839873701334 0.2562006935477257 -0.6681155879050493
v -0.6480644457042217 0.2623496577143669 -0.5217202939093113
v -0.6480644457042217 0.2623496577143669 -0.38047393318265676
v -0.6480644457042217 0.2623496577143669 -0.2392275957390666
v -0.6480644457042217 0.2623496577143669 -0.09798124665394425
v -0.6480644457042217 0.2623496577143669 0.04326510243117809
v -0.6480644457042217 0.2623496577143669 0.18451145151630044
v -0.6480644457042217 0.2623496577143669 0.3257578006014228
v -0.6480644457042217 0.2623496577143669 0.4670041613280773
v 0.05510798073373735 0.3578795585781336 -0.6681155879050493
v -0.0580746098421514 0.4306175746023655 -0.6681155879050493
v -0.18716518534347415 0.4685219842940569 -0.6681155879050493
v -0.3217055927962065 0.4685219842940569 -0.6681155879050493
v -0.4507961682975292 0.4306175746023655 -0.6681155879050493
v -0.5639787763357162 0.3578795585781336 -0.6681155879050493
v 0.05510798073373735 0.3578795585781336 -0.5294437054544687
v -0.18716518534347415 0.4685219842940569 0.025243795244023204
v -0.18840647535398602 0.46869879588484764 -0.12567952508106828
v -0.1470724237151444 0.46097892336547375 -0.25850883685052395
v -0.0580746098421514 0.4306175746023655 -0.39077182300388813
v 0.046696735080331564 0.36499800626188517 0.5144125781953335
v -0.03996661398559809 0.4218778107315302 0.4383095074445009
v -0.1470724237151444 0.46097892336547375 0.258333352394402
v -0.18840647535398602 0.46869879588484764 0.12550405226647854
v -0.2544353948906064 0.4733332432806492 0.47472757287323475
v -0.40050335228443146 0.4501983989030123 0.47472757287323475
v -0.5555674899369478 0.36499800626188517 0.4670041613280773
v -0.5639787763357162 0.3578795585781336 -0.5294437054544687
v -0.5555674899369478 0.36499800626188517 -0.38047393318265676
v -0.5555674899369478 0.36499800626188517 -0.2392275957390666
v -0.5555674899369478 0.36499800626188517 -0.09798124665394425
v -0.5555674899369478 0.36499800626188517 0.04326510243117809
v -0.5555674899369478 0.36499800626188517 0.18451145151630044
v -0.5555674899369478 0.36499800626188517 0.3257578006014228
v -0.0580746098421514 0.4306175746023655 -0.5294437054544687
v -0.18716518534347415 0.4685219842940569 -0.5294437054544687
v -0.3217055927962065 0.4685219842940569 -0.5294437054544687
v -0.4507961682975292 0.4306175746023655 -0.5294437054544687
v -0.30348070431500673 0.4707819316536188 0.04326510243117809
v -0.3201777581125498 0.4687391221523285 -0.16754345269873738
v -0.2783187432214618 0.4727295134216547 -0.30037276446819305
v -0.18716518534347415 0.4685219842940569 -0.39077182300388813
v -0.20539008546620607 0.4707819316536188 0.3889690386131406
v -0.2783187432214618 0.4727295134216547 0.30019728001207113
v -0.3201777581125498 0.4687391221523285 0.16736797988414764
v -0.34343902952969074 0.46487823128700256 0.3889690386131406
v -0.43733869679272175 0.4365124274045229 0.3257578006014228
v -0.4507961682975292 0.4306175746023655 -0.39077182300388813
v -0.43733869679272175 0.4365124274045229 -0.2392275957390666
v -0.43733869679272175 0.4365124274045229 -0.09798124665394425
v -0.43733869679272175 0.4365124274045229 0.04326510243117809
v -0.43733869679272175 0.4365124274045229 0.18451145151630044
v -0.3217055927962065 0.4685219842940569 -0.39077182300388813
v 0.6530531216412783 0.23063337430357933 -0.12892258819192648
v 0.524268951267004 0.23063337430357933 -0.12892258819192648
v 0.39548478089272976 0.23063337430357933 -0.12892258819192648
v 0.26670058723539114 0.23063337430357933 -0.12892258819192648
v 0.3516061929985881 0.018956362328026444 -0.26306440122425556
v 0.328283803537488 0.16502502840012312 -0.20617498084902763
v 0.26670058723539114 -0.2293384401127696 -0.12892258819192648
v 0.328283803537488 -0.1637300942093134 -0.20617498084902763
v 0.6530531216412783 -0.2293384401127696 -0.12892258819192648
v 0.524268951267004 -0.2293384401127696 -0.12892258819192648
v 0.39548478089272976 -0.2293384401127696 -0.12892258819192648
v 0.6472285371273756 0.1324540819041431 -0.22838348522782326
v 0.6472285371273756 0.0006474683232227108 -0.26370096020400524
v 0.6472285371273756 -0.13115914771333337 -0.22838348522782326
v 0.524268951267004 0.13833062257617712 -0.2248882781714201
v 0.524268951267004 -0.1370356883853674 -0.2248882781714201
v 0.5126197822391987 0.0006474683232227108 -0.26370096020400524
v 0.2670602407306433 -0.28973447624593973 -0.2558197593316436
v 0.2911417046561837 -0.24876429233700037 -0.3001254051923752
v 0.3336514811962843 -0.14622993767261505 -0.36876529920846224
v 0.3155407030135393 -0.19710608758032322 -0.34067058004438877
v 0.3545961109921336 -0.030599633464589715 -0.3996177576482296
v 0.3479317994788289 -0.08630130323581398 -0.389970769174397
v 0.35459608770906925 0.03189495182596147 -0.3996177576482296
v 0.3336514811962843 0.1475248485803604 -0.36876529920846224
v 0.347931613214314 0.08759729680605233 -0.389970513060689
v 0.29114154167473316 0.2500595524907112 -0.30012510251253843
v 0.31554081942886114 0.19840076565742493 -0.3406707663089037
v 0.26706091593950987 0.291028362698853 -0.25582106318324804
v 0.31042664777487516 0.13987345155328512 0.7894634269177914
v 0.30645253136754036 0.1551070250570774 0.5917540285736322
v 0.10829048696905375 0.4554913379251957 0.101121433544904
v 0.05778903723694384 0.49153328873217106 0.025157234631478786
v 0.09333121124655008 0.4670286551117897 -0.21900178398936987
v 0.0933329458348453 0.46702735126018524 0.21883202716708183
v 0.1635389751754701 0.4053083714097738 0.37910419050604105
v 0.24236678145825863 0.3033694578334689 0.5059773102402687
v 0.31112541910260916 0.13700717827305198 -0.6113977171480656
v 0.2423665253445506 0.3033698769286275 -0.5061523523181677
v 0.26340936310589314 0.2657697070389986 -0.6113977171480656
v 0.16354136168956757 0.4053059034049511 -0.37928419187664986
v 0.18684205133467913 0.3797612152993679 -0.48186364583671093
v 0.31112541910260916 0.13700717827305198 -0.7409318350255489
v 0.31112541910260916 0.13700717827305198 -0.8704659529030323
v 0.26971870101988316 0.2530667698010802 -0.8623598143458366
v 0.2004084875807166 0.36337333731353283 -0.8623598143458366
v 0.10829048696905375 0.4554913379251957 -0.8623598143458366
v -0.002016085636569187 0.5248015280812979 -0.8623598143458366
v -0.12498002033680677 0.5678284913301468 -0.8623598143458366
v -0.2544353948906064 0.582414586097002 -0.8623598143458366
v -0.38389074616134167 0.5678284913301468 -0.8623598143458366
v -0.5068546626716852 0.5248015280812979 -0.8623598143458366
v -0.6171612534672022 0.4554913379251957 -0.8623598143458366
v -0.709279254078865 0.36337333731353283 -0.8623598143458366
v -0.7785894442349672 0.2530667698010802 -0.8623598143458366
v -0.8216164074838161 0.1301028300076723 -0.8623598143458366
v -0.8199961856007576 0.13700717827305198 0.7894533686339855
v -0.8199961856007576 0.13700717827305198 0.6518031004816294
v -0.8199961856007576 0.13700717827305198 0.514152878895402
v -0.8199961856007576 0.13700717827305198 0.37650258745998144
v -0.8199961856007576 0.13700717827305198 0.23885234259068966
v -0.8199961856007576 0.13700717827305198 0.10120207443833351
v -0.8199961856007576 0.13700717827305198 -0.036448182072490454
v -0.8199961856007576 0.13700717827305198 -0.17409843858331442
v -0.8199961856007576 0.13700717827305198 -0.31174870673567057
v -0.8199961856007576 0.13700717827305198 -0.44939895160496235
v -0.8199961856007576 0.13700717827305198 -0.5870492197573185
v -0.8199961856007576 0.13700717827305198 -0.7246994879096746
v 0.2606938360258937 0.27100814040750265 0.7894634269177914
v 0.1810235669836402 0.3864304395392537 0.7894634269177914
v 0.07604601560160518 0.4794324282556772 0.7894634269177914
v -0.04813791601918638 0.5446091759949923 0.7894634269177914
v -0.18431110074743629 0.5781728774309158 0.7894634269177914
v -0.32455965410918 0.5781728774309158 0.7894634269177914
v -0.46073286794126034 0.5446091759949923 0.7894634269177914
v -0.5849167704582214 0.4794324282556772 0.7894634269177914
v -0.6898943334817886 0.3864304395392537 0.7894634269177914
v -0.7695646025240421 0.27100814040750265 0.7894634269177914
v 0.2606938360258937 0.27100814040750265 0.6518232636153698
v -0.06375928060151637 0.5502797197550535 0.05040220567025244
v -0.0637595949228853 0.5502798594534397 -0.050575874047353864
v -0.002016085636569187 0.5248015280812979 -0.1741589163430035
v -0.010091748845297843 0.5286145024001598 -0.28536219615489244
v 0.07604601560160518 0.4794324282556772 0.3765429137274623
v -0.010089718125527725 0.5286135710775852 0.2851925790309906
v 0.1810235669836402 0.3864304395392537 0.5141831003129482
v 0.0887758273165673 0.4703911021351814 0.4744754172861576
v 0.2027188427746296 0.3604571567848325 0.6247548386454582
v 0.26340936310589314 0.2657697070389986 -0.7409318350255489
v 0.20271865651011467 0.36045738961547613 -0.6249299738556147
v 0.08877888903953135 0.47038886696100235 -0.4746557679027319
v 0.10829048696905375 0.4554913379251957 -0.5870794411748648
v 0.2004084875807166 0.36337333731353283 -0.7247196510434151
v 0.10829048696905375 0.4554913379251957 -0.7247196510434151
v -0.002016085636569187 0.5248015280812979 -0.7247196510434151
v -0.12498002033680677 0.5678284913301468 -0.7247196510434151
v -0.2544353948906064 0.582414586097002 -0.7247196510434151
v -0.38389074616134167 0.5678284913301468 -0.7247196510434151
v -0.5068546626716852 0.5248015280812979 -0.7247196510434151
v -0.6171612534672022 0.4554913379251957 -0.7247196510434151
v -0.709279254078865 0.36337333731353283 -0.7247196510434151
v -0.7785894442349672 0.2530667698010802 -0.7247196510434151
v -0.7722801528871059 0.2657697070389986 0.6518031004816294
v -0.7722801528871059 0.2657697070389986 0.514152878895402
v -0.7722801528871059 0.2657697070389986 0.37650258745998144
v -0.7722801528871059 0.2657697070389986 0.23885234259068966
v -0.7722801528871059 0.2657697070389986 0.10120207443833351
v -0.7722801528871059 0.2657697070389986 -0.036448182072490454
v -0.7722801528871059 0.2657697070389986 -0.17409843858331442
v -0.7722801528871059 0.2657697070389986 -0.31174870673567057
v -0.7722801528871059 0.2657697070389986 -0.44939895160496235
v -0.7722801528871059 0.2657697070389986 -0.5870492197573185
v 0.07604601560160518 0.4794324282556772 0.6518232636153698
v -0.04813791601918638 0.5446091759949923 0.6518232636153698
v -0.18431110074743629 0.5781728774309158 0.6518232636153698
v -0.32455965410918 0.5781728774309158 0.6518232636153698
v -0.46073286794126034 0.5446091759949923 0.6518232636153698
v -0.5849167704582214 0.4794324282556772 0.6518232636153698
v -0.6898943334817886 0.3864304395392537 0.6518232636153698
v -0.16733880620449781 0.5758580286055803 0.22820639424026012
v -0.1955751795321703 0.5794293712824583 0.0756471767090261
v -0.19557569175958633 0.579429417848587 -0.07581994286738336
v -0.1673413789831102 0.5758584011346102 -0.2283735666424036
v -0.12397503014653921 0.5675981752574444 -0.351722608320415
v -0.05475978250615299 0.5470746196806431 -0.48299385234713554
v -0.04813791601918638 0.5446091759949923 0.5141831003129482
v -0.12397277168929577 0.5675976630300283 0.35155313089489937
v -0.002016085636569187 0.5248015280812979 -0.5870794411748648
v -0.12498002033680677 0.5678284913301468 -0.5870794411748648
v -0.2544353948906064 0.582414586097002 -0.5870794411748648
v -0.38389074616134167 0.5678284913301468 -0.5870794411748648
v -0.5068546626716852 0.5248015280812979 -0.5870794411748648
v -0.6171612534672022 0.4554913379251957 -0.5870794411748648
v -0.709279254078865 0.36337333731353283 -0.5870794411748648
v -0.6957128178328276 0.3797612152993679 0.514152878895402
v -0.6957128178328276 0.3797612152993679 0.37650258745998144
v -0.6957128178328276 0.3797612152993679 0.23885234259068966
v -0.6957128178328276 0.3797612152993679 0.10120207443833351
v -0.6957128178328276 0.3797612152993679 -0.036448182072490454
v -0.6957128178328276 0.3797612152993679 -0.17409843858331442
v -0.6957128178328276 0.3797612152993679 -0.31174870673567057
v -0.6957128178328276 0.3797612152993679 -0.44939895160496235
v -0.18431110074743629 0.5781728774309158 0.5141831003129482
v -0.32455965410918 0.5781728774309158 0.5141831003129482
v -0.46073286794126034 0.5446091759949923 0.5141831003129482
v -0.5849167704582214 0.4794324282556772 0.5141831003129482
v -0.30226134695112705 0.5804454442113638 0.25345138274133205
v -0.3305606311187148 0.5774125456809998 0.10089215356856585
v -0.33056128304451704 0.5774124525487423 -0.10106401750817895
v -0.30226409435272217 0.5804452113807201 -0.2536176471039653
v -0.2544353948906064 0.582414586097002 -0.4494392778724432
v -0.32455965410918 0.5781728774309158 0.3765429137274623
v -0.38389074616134167 0.5678284913301468 -0.4494392778724432
v -0.5068546626716852 0.5248015280812979 -0.4494392778724432
v -0.6171612534672022 0.4554913379251957 -0.4494392778724432
v -0.5945601034909487 0.472630700096488 0.37650258745998144
v -0.5945601034909487 0.472630700096488 0.23885234259068966
v -0.5945601034909487 0.472630700096488 0.10120207443833351
v -0.5945601034909487 0.472630700096488 -0.036448182072490454
v -0.5945601034909487 0.472630700096488 -0.17409843858331442
v -0.5945601034909487 0.472630700096488 -0.31174870673567057
v -0.46073286794126034 0.5446091759949923 0.3765429137274623
v -0.47445762902498245 0.5392040591686964 0.23885234259068966
v -0.47445762902498245 0.5392040591686964 0.10120207443833351
v -0.47445762902498245 0.5392040591686964 -0.036448182072490454
v -0.47445762902498245 0.5392040591686964 -0.17409843858331442
v -0.38389074616134167 0.5678284913301468 -0.31179909128695726
v -0.5068546626716852 0.5248015280812979 -0.31179909128695726
v 0.6977061275392771 0.34497235901653767 0.14253630070015788
v 0.5385412834584713 0.34783985465765 0.13540652580559254
v 0.4042872693389654 0.3587403101846576 0.10321163572371006
v 0.4042867571115494 -0.3574456786736846 0.10321058798581362
v 0.4544262308627367 -0.31972345896065235 0.19034260185435414
v 0.524216890335083 -0.22227894514799118 0.29858441557735205
v 0.5696159321814775 0.06776166846975684 0.36651412956416607
v 0.5696168635040522 -0.06645922549068928 0.3665155032649636
v 0.5242124199867249 0.22358275018632412 0.2985778031870723
v 0.4539179150015116 0.32155229710042477 0.18944150069728494
v 0.6977061275392771 -0.34367742482572794 0.14253630070015788
v 0.5385412834584713 -0.34654492046684027 0.13540652580559254
v 0.6977061275392771 -0.1419765641912818 0.34423714969307184
v 0.6977061275392771 0.0006474683232227108 0.37260684184730053
v 0.6977061275392771 -0.2628873800858855 0.2634471282362938
v 0.6977061275392771 0.1432715100236237 0.34423714969307184
v 0.6977061275392771 0.2641823375597596 0.2634471282362938
v 0.30126734636723995 0.09058291325345635 0.9809906594455242
v 0.29075590427964926 0.1408628886565566 0.9809906594455242
v 0.26987974997609854 0.20555611699819565 0.9809906594455242
v 0.2386482199653983 0.2722399542108178 0.9809906594455242
v 0.20231623202562332 0.3296943847090006 0.9809906594455242
v 0.15545941423624754 0.38649740163236856 0.9809906594455242
v 0.10596174979582429 0.4330914933234453 0.9809906594455242
v 0.0464332289993763 0.4764331039041281 0.9809906594455242
v -0.01311006344622001 0.5092298146337271 0.9809906594455242
v -0.08155794930644333 0.5363781005144119 0.9809906594455242
v -0.1473936135880649 0.5533101037144661 0.9809906594455242
v -0.2204463118687272 0.5625537130981684 0.9809906594455242
v -0.28842445462942123 0.5625537130981684 0.9809906594455242
v -0.3614771645516157 0.5533101037144661 0.9809906594455242
v -0.4273128230124712 0.5363781005144119 0.9809906594455242
v -0.4957607015967369 0.5092298146337271 0.9809906594455242
v -0.5553040187805891 0.4764331039041281 0.9809906594455242
v -0.6148325279355049 0.4330914933234453 0.9809906594455242
v -0.664330180734396 0.38649740163236856 0.9809906594455242
v -0.7111869752407074 0.3296943847090006 0.9809906594455242
v -0.7475189864635468 0.2722399542108178 0.9809906594455242
v -0.778750516474247 0.20555611699819565 0.9809906594455242
v -0.7996266707777977 0.1408628886565566 0.9809906594455242
v -0.8101381361484528 0.09058291325345635 0.9809906594455242
v -0.6143854465335608 0.11505300644785166 0.9998245164752007
v -0.5725101102143526 0.20431666634976864 0.9998245164752007
v -0.5089585203677416 0.2797005930915475 0.9998245164752007
v -0.4280615597963333 0.33606751821935177 0.9998245164752007
v -0.33533230889588594 0.36957613192498684 0.9998245164752007
v -0.23709004744887352 0.3779428545385599 0.9998245164752007
v -0.23709004744887352 -0.3766479203477502 0.9998245164752007
v -0.368840922601521 -0.3593025729060173 0.9998245164752007
v -0.458104582503438 -0.3174272598698735 0.9998245164752007
v -0.5334884859621525 -0.25387564674019814 0.9998245164752007
v -0.6143854465335608 -0.11375806061550975 0.9998245164752007
v -0.6317307706922293 -0.016697861428838223 0.9998245164752007
v 0.10551466839388013 -0.11375806061550975 0.9998245164752007
v 0.06363933207467198 -0.20302170887589455 0.9998245164752007
v 8.773611170909135e-05 -0.27840565890073776 0.9998245164752007
v -0.1400298555381596 -0.3593025729060173 0.9998245164752007
v -0.1400298555381596 0.3605975303798914 0.9998245164752007
v -0.05076620145700872 0.31872219406068325 0.9998245164752007
v 0.024617736926302314 0.25517058093100786 0.9998245164752007
v 0.10551466839388013 0.11505300644785166 0.9998245164752007
v 0.12285999255254865 0.017992798530030996 0.9998245164752007
v -0.4826345946639776 0.09770767064765096 0.9998245164752007
v -0.4035315942019224 0.19880365580320358 0.9998245164752007
v -0.28447837103158236 0.2468038583174348 0.9998245164752007
v -0.15737517969682813 0.2288466552272439 0.9998245164752007
v -0.219744723290205 -0.2448970451951027 0.9998245164752007
v -0.3514955984428525 -0.22755172103643417 0.9998245164752007
v -0.45259157195687294 -0.14844872057437897 0.9998245164752007
v -0.49997991882264614 -0.034043192863464355 0.9998245164752007
v -0.02623619802761823 -0.09641273645684123 0.9998245164752007
v -0.10533919557929039 -0.19750872161239386 0.9998245164752007
v -0.05627918872050941 0.14974366640672088 0.9998245164752007
v -0.008890867320587859 0.03533812996465713 0.9998245164752007
v -0.36822904366999865 -0.051388522842898965 0.9998245164752007
v -0.3508837195113301 0.08036234066821635 0.9998245164752007
v -0.26626773178577423 0.12521365424618125 0.9998245164752007
v -0.14064173446968198 0.05268345703370869 0.9998245164752007
v -0.20239939913153648 -0.11314618168398738 0.9998245164752007
v -0.2981046447530389 -0.11661179596558213 0.9998245164752007
v -0.13717612018808722 -0.0430217944085598 0.9998245164752007
v -0.5670216865837574 -0.12372741475701332 0.8907431736588478
v -0.590156577527523 0.022340529540088028 0.8907431736588478
v -0.5132887046784163 -0.21423455327749252 0.8907431736588478
v -0.43421732261776924 -0.28370756190270185 0.8907431736588478
v -0.3375476226210594 -0.3253458999097347 0.8907431736588478
v -0.3788102651014924 0.31323377043008804 0.8907431736588478
v -0.23274233099073172 0.3363686613738537 0.8907431736588478
v -0.469317426905036 0.25950076524168253 0.8907431736588478
v -0.5670216865837574 0.12502234894782305 0.8907431736588478
v 0.05815092590637505 0.12502234894782305 0.8907431736588478
v 0.08128581685014069 -0.021045592438895255 0.8907431736588478
v 0.0044179123506182805 0.21552948746830225 0.8907431736588478
v -0.13006050139665604 0.31323377043008804 0.8907431736588478
v -0.23274233099073172 -0.33507372718304396 0.8907431736588478
v -0.13006050139665604 -0.3119388362392783 0.8907431736588478
v -0.03955335996579379 -0.2582058310508728 0.8907431736588478
v 0.05815092590637505 -0.12372741475701332 0.8907431736588478
v -0.4300571046769619 -0.10203435085713863 0.8907431736588478
v -0.45319199562072754 0.044033589074388146 0.8907431736588478
v -0.33616148866713047 -0.18565172795206308 0.8907431736588478
v -0.21104926709085703 -0.19810914527624846 0.8907431736588478
v -0.3571172012016177 0.17626918852329254 0.8907431736588478
v -0.21104926709085703 0.19940407946705818 0.8907431736588478
v -0.07881366764195263 0.10332929668948054 0.8907431736588478
v -0.055678776698186994 -0.042738651973195374 0.8907431736588478
v -0.10250906925648451 -0.13464828953146935 0.8907431736588478
v -0.2930925227701664 -0.08034129277803004 0.8907431736588478
v -0.31622739043086767 0.06572664715349674 0.8907431736588478
v -0.18935620319098234 -0.06114454590715468 0.8907431736588478
v -0.18935620319098234 0.0624394859187305 0.8907431736588478
f 2 293 41 
f 41 293 1 
f 42 293 2 
f 43 295 42 
f 44 297 43 
f 45 299 44 
f 46 301 45 
f 3 303 46 
f 47 306 3 
f 48 308 47 
f 49 310 48 
f 50 312 49 
f 51 314 50 
f 4 316 51 
f 52 316 4 
f 5 316 52 
f 53 316 5 
f 54 314 53 
f 55 312 54 
f 56 310 55 
f 57 308 56 
f 58 306 57 
f 59 305 58 
f 60 303 59 
f 61 301 60 
f 62 299 61 
f 63 297 62 
f 64 295 63 
f 1 293 64 
f 42 294 293 
f 295 294 42 
f 43 296 295 
f 297 296 43 
f 44 298 297 
f 299 298 44 
f 45 300 299 
f 301 300 45 
f 46 302 301 
f 303 302 46 
f 3 304 303 
f 306 305 3 
f 47 307 306 
f 308 307 47 
f 48 309 308 
f 310 309 48 
f 49 311 310 
f 312 311 49 
f 50 313 312 
f 314 313 50 
f 51 315 314 
f 316 315 51 
f 53 315 316 
f 314 315 53 
f 54 313 314 
f 312 313 54 
f 55 311 312 
f 310 311 55 
f 56 309 310 
f 308 309 56 
f 57 307 308 
f 306 307 57 
f 58 305 306 
f 59 304 305 
f 303 304 59 
f 60 302 303 
f 301 302 60 
f 61 300 301 
f 299 300 61 
f 62 298 299 
f 297 298 62 
f 63 296 297 
f 295 296 63 
f 64 294 295 
f 293 294 64 
f 3 305 304 
f 41 910 2 
f 1 910 41 
f 271 910 1 
f 272 912 271 
f 273 914 272 
f 274 916 273 
f 275 918 274 
f 276 920 275 
f 277 921 276 
f 278 923 277 
f 279 925 278 
f 280 927 279 
f 281 929 280 
f 282 931 281 
f 5 933 282 
f 4 933 52 
f 52 933 5 
f 283 933 4 
f 284 931 283 
f 285 929 284 
f 286 927 285 
f 287 925 286 
f 40 923 287 
f 288 920 40 
f 289 918 288 
f 290 916 289 
f 291 914 290 
f 292 912 291 
f 2 910 292 
f 271 911 910 
f 912 911 271 
f 272 913 912 
f 914 913 272 
f 273 915 914 
f 916 915 273 
f 274 917 916 
f 918 917 274 
f 275 919 918 
f 920 919 275 
f 276 921 920 
f 277 922 921 
f 923 922 277 
f 278 924 923 
f 925 924 278 
f 279 926 925 
f 927 926 279 
f 280 928 927 
f 929 928 280 
f 281 930 929 
f 931 930 281 
f 282 932 931 
f 933 932 282 
f 283 932 933 
f 931 932 283 
f 284 930 931 
f 929 930 284 
f 285 928 929 
f 927 928 285 
f 286 926 927 
f 925 926 286 
f 287 924 925 
f 923 924 287 
f 40 922 923 
f 920 921 40 
f 288 919 920 
f 918 919 288 
f 289 917 918 
f 916 917 289 
f 290 915 916 
f 914 915 290 
f 291 913 914 
f 912 913 291 
f 292 911 912 
f 910 911 292 
f 922 40 921 
f 7 317 65 
f 65 318 66 
f 66 319 67 
f 67 77 6 
f 8 320 68 
f 68 320 69 
f 69 317 70 
f 70 317 7 
f 9 323 71 
f 71 323 72 
f 72 324 73 
f 73 321 8 
f 74 323 9 
f 75 326 74 
f 76 327 75 
f 10 84 76 
f 77 319 78 
f 78 328 79 
f 79 329 80 
f 80 330 81 
f 81 332 82 
f 82 333 83 
f 83 327 84 
f 317 318 65 
f 318 319 66 
f 319 77 67 
f 8 321 320 
f 320 322 69 
f 69 322 317 
f 323 325 72 
f 324 321 73 
f 72 325 324 
f 74 326 323 
f 75 327 326 
f 76 84 327 
f 319 328 78 
f 328 329 79 
f 329 331 80 
f 330 332 81 
f 80 331 330 
f 332 333 82 
f 333 327 83 
f 317 322 318 
f 318 328 319 
f 321 331 320 
f 320 329 322 
f 323 326 325 
f 324 330 321 
f 325 332 324 
f 327 333 326 
f 328 318 329 
f 329 320 331 
f 330 324 332 
f 331 321 330 
f 332 326 333 
f 322 329 318 
f 326 332 325 
f 65 893 7 
f 66 894 65 
f 67 895 66 
f 6 130 67 
f 10 76 123 
f 123 896 124 
f 124 897 125 
f 125 898 126 
f 126 899 127 
f 127 901 128 
f 128 902 129 
f 129 895 130 
f 9 903 74 
f 74 904 75 
f 75 896 76 
f 39 905 264 
f 264 905 265 
f 265 903 266 
f 266 903 9 
f 7 893 261 
f 261 893 262 
f 262 908 263 
f 263 906 39 
f 65 894 893 
f 66 895 894 
f 67 130 895 
f 76 896 123 
f 896 897 124 
f 897 898 125 
f 898 900 126 
f 899 901 127 
f 126 900 899 
f 901 902 128 
f 902 895 129 
f 903 904 74 
f 904 896 75 
f 39 906 905 
f 905 907 265 
f 265 907 903 
f 893 909 262 
f 908 906 263 
f 262 909 908 
f 894 909 893 
f 895 902 894 
f 896 904 897 
f 897 904 898 
f 898 905 900 
f 899 908 901 
f 900 906 899 
f 901 894 902 
f 903 907 904 
f 906 900 905 
f 905 898 907 
f 908 899 906 
f 909 901 908 
f 894 901 909 
f 904 907 898 
f 1 334 85 
f 85 334 86 
f 86 335 11 
f 5 336 53 
f 53 337 54 
f 54 337 55 
f 55 338 56 
f 56 339 57 
f 57 340 58 
f 58 341 59 
f 59 342 60 
f 60 343 61 
f 61 344 62 
f 62 345 63 
f 63 334 64 
f 64 334 1 
f 87 336 5 
f 88 336 87 
f 89 347 88 
f 90 348 89 
f 91 349 90 
f 92 350 91 
f 93 351 92 
f 94 352 93 
f 95 353 94 
f 96 354 95 
f 97 355 96 
f 98 356 97 
f 99 358 98 
f 12 358 99 
f 100 358 12 
f 101 358 100 
f 102 359 101 
f 103 360 102 
f 104 361 103 
f 105 362 104 
f 13 363 105 
f 106 364 13 
f 107 365 106 
f 108 366 107 
f 109 367 108 
f 110 368 109 
f 111 370 110 
f 14 114 111 
f 15 371 112 
f 112 371 113 
f 113 370 114 
f 16 373 115 
f 115 375 116 
f 116 376 117 
f 117 377 118 
f 118 371 15 
f 11 335 119 
f 119 380 120 
f 120 381 121 
f 121 382 122 
f 122 374 16 
f 334 335 86 
f 336 337 53 
f 337 338 55 
f 338 339 56 
f 339 340 57 
f 340 341 58 
f 341 342 59 
f 342 343 60 
f 343 344 61 
f 344 345 62 
f 345 346 63 
f 63 346 334 
f 88 347 336 
f 89 348 347 
f 90 349 348 
f 91 350 349 
f 92 351 350 
f 93 352 351 
f 94 353 352 
f 95 354 353 
f 96 355 354 
f 97 356 355 
f 98 357 356 
f 358 357 98 
f 101 359 358 
f 102 360 359 
f 103 361 360 
f 104 362 361 
f 105 363 362 
f 13 364 363 
f 106 365 364 
f 107 366 365 
f 108 367 366 
f 109 368 367 
f 110 369 368 
f 370 369 110 
f 111 114 370 
f 371 372 113 
f 113 372 370 
f 373 375 115 
f 16 374 373 
f 375 376 116 
f 376 378 117 
f 377 379 118 
f 117 378 377 
f 118 379 371 
f 335 380 119 
f 380 381 120 
f 381 382 121 
f 382 374 122 
f 334 383 335 
f 336 384 337 
f 337 385 338 
f 338 385 339 
f 339 386 340 
f 340 387 341 
f 341 388 342 
f 342 389 343 
f 343 390 344 
f 344 391 345 
f 345 383 346 
f 346 383 334 
f 347 384 336 
f 348 384 347 
f 349 393 348 
f 350 394 349 
f 351 395 350 
f 352 396 351 
f 353 397 352 
f 354 398 353 
f 355 399 354 
f 356 400 355 
f 357 402 356 
f 358 359 357 
f 360 402 359 
f 361 403 360 
f 362 404 361 
f 363 405 362 
f 364 406 363 
f 365 407 364 
f 366 408 365 
f 367 409 366 
f 368 410 367 
f 369 412 368 
f 370 372 369 
f 371 379 372 
f 373 413 375 
f 374 415 373 
f 375 417 376 
f 376 418 378 
f 377 419 379 
f 378 419 377 
f 335 383 380 
f 380 421 381 
f 381 422 382 
f 382 416 374 
f 384 385 337 
f 385 386 339 
f 386 387 340 
f 387 388 341 
f 388 389 342 
f 389 390 343 
f 390 391 344 
f 391 392 345 
f 345 392 383 
f 348 393 384 
f 349 394 393 
f 350 395 394 
f 351 396 395 
f 352 397 396 
f 353 398 397 
f 354 399 398 
f 355 400 399 
f 356 401 400 
f 402 401 356 
f 357 359 402 
f 360 403 402 
f 361 404 403 
f 362 405 404 
f 363 406 405 
f 364 407 406 
f 365 408 407 
f 366 409 408 
f 367 410 409 
f 368 411 410 
f 412 411 368 
f 369 372 412 
f 379 412 372 
f 413 417 375 
f 373 414 413 
f 415 414 373 
f 374 416 415 
f 417 418 376 
f 418 420 378 
f 419 412 379 
f 378 420 419 
f 383 392 380 
f 421 423 381 
f 380 392 421 
f 422 416 382 
f 381 423 422 
f 384 424 385 
f 385 425 386 
f 386 425 387 
f 387 426 388 
f 388 427 389 
f 389 428 390 
f 390 429 391 
f 391 421 392 
f 393 424 384 
f 394 424 393 
f 395 430 394 
f 396 431 395 
f 397 432 396 
f 398 433 397 
f 399 434 398 
f 400 435 399 
f 401 437 400 
f 402 403 401 
f 404 437 403 
f 405 438 404 
f 406 439 405 
f 407 440 406 
f 408 441 407 
f 409 442 408 
f 410 443 409 
f 411 419 410 
f 412 419 411 
f 413 444 417 
f 414 444 413 
f 415 445 414 
f 416 447 415 
f 417 449 418 
f 418 443 420 
f 420 410 419 
f 421 391 423 
f 422 429 416 
f 423 429 422 
f 424 425 385 
f 425 426 387 
f 426 427 388 
f 427 428 389 
f 428 429 390 
f 429 423 391 
f 394 430 424 
f 395 431 430 
f 396 432 431 
f 397 433 432 
f 398 434 433 
f 399 435 434 
f 400 436 435 
f 437 436 400 
f 401 403 437 
f 404 438 437 
f 405 439 438 
f 406 440 439 
f 407 441 440 
f 408 442 441 
f 409 443 442 
f 410 420 443 
f 444 450 417 
f 414 445 444 
f 415 446 445 
f 447 446 415 
f 416 448 447 
f 449 443 418 
f 417 450 449 
f 429 448 416 
f 424 451 425 
f 425 452 426 
f 426 452 427 
f 427 453 428 
f 428 448 429 
f 430 451 424 
f 431 451 430 
f 432 454 431 
f 433 455 432 
f 434 456 433 
f 435 457 434 
f 436 459 435 
f 437 438 436 
f 439 459 438 
f 440 460 439 
f 441 461 440 
f 442 462 441 
f 443 449 442 
f 444 463 450 
f 445 463 444 
f 446 464 445 
f 447 465 446 
f 448 466 447 
f 450 462 449 
f 451 452 425 
f 452 453 427 
f 453 448 428 
f 431 454 451 
f 432 455 454 
f 433 456 455 
f 434 457 456 
f 435 458 457 
f 459 458 435 
f 436 438 459 
f 439 460 459 
f 440 461 460 
f 441 462 461 
f 442 449 462 
f 463 462 450 
f 445 464 463 
f 446 465 464 
f 447 466 465 
f 448 453 466 
f 451 467 452 
f 452 466 453 
f 454 467 451 
f 455 467 454 
f 456 468 455 
f 457 469 456 
f 458 471 457 
f 459 460 458 
f 461 471 460 
f 462 472 461 
f 463 472 462 
f 464 470 463 
f 465 469 464 
f 466 467 465 
f 467 466 452 
f 455 468 467 
f 456 469 468 
f 457 470 469 
f 471 470 457 
f 458 460 471 
f 461 472 471 
f 463 470 472 
f 464 469 470 
f 465 468 469 
f 467 468 465 
f 471 472 470 
f 85 754 1 
f 86 754 85 
f 11 755 86 
f 17 756 131 
f 131 759 132 
f 132 760 133 
f 133 761 134 
f 134 755 11 
f 15 762 267 
f 267 763 268 
f 268 765 269 
f 269 758 270 
f 270 758 17 
f 112 762 15 
f 113 767 112 
f 114 767 113 
f 14 244 114 
f 245 768 244 
f 246 769 245 
f 247 770 246 
f 248 771 247 
f 249 772 248 
f 37 773 249 
f 238 774 37 
f 239 775 238 
f 240 776 239 
f 241 777 240 
f 242 778 241 
f 243 779 242 
f 12 780 243 
f 5 781 87 
f 87 781 88 
f 88 782 89 
f 89 783 90 
f 90 784 91 
f 91 785 92 
f 92 786 93 
f 93 787 94 
f 94 788 95 
f 95 789 96 
f 96 790 97 
f 97 791 98 
f 98 780 99 
f 99 780 12 
f 1 754 271 
f 271 754 272 
f 272 793 273 
f 273 794 274 
f 274 795 275 
f 275 796 276 
f 276 797 277 
f 277 798 278 
f 278 799 279 
f 279 800 280 
f 280 801 281 
f 281 802 282 
f 282 781 5 
f 86 755 754 
f 756 759 131 
f 17 757 756 
f 759 760 132 
f 760 761 133 
f 761 755 134 
f 762 764 267 
f 763 766 268 
f 267 764 763 
f 765 758 269 
f 268 766 765 
f 758 757 17 
f 112 767 762 
f 114 768 767 
f 244 768 114 
f 245 769 768 
f 246 770 769 
f 247 771 770 
f 248 772 771 
f 249 773 772 
f 37 774 773 
f 238 775 774 
f 239 776 775 
f 240 777 776 
f 241 778 777 
f 242 779 778 
f 243 780 779 
f 781 782 88 
f 782 783 89 
f 783 784 90 
f 784 785 91 
f 785 786 92 
f 786 787 93 
f 787 788 94 
f 788 789 95 
f 789 790 96 
f 790 791 97 
f 791 792 98 
f 98 792 780 
f 754 793 272 
f 793 794 273 
f 794 795 274 
f 795 796 275 
f 796 797 276 
f 797 798 277 
f 798 799 278 
f 799 800 279 
f 800 801 280 
f 801 802 281 
f 802 781 282 
f 755 803 754 
f 756 804 759 
f 757 804 756 
f 759 808 760 
f 760 810 761 
f 761 803 755 
f 762 813 764 
f 763 814 766 
f 764 814 763 
f 765 807 758 
f 766 815 765 
f 758 806 757 
f 767 813 762 
f 768 769 767 
f 770 813 769 
f 771 817 770 
f 772 818 771 
f 773 819 772 
f 774 820 773 
f 775 821 774 
f 776 822 775 
f 777 823 776 
f 778 824 777 
f 779 825 778 
f 780 792 779 
f 781 827 782 
f 782 827 783 
f 783 828 784 
f 784 829 785 
f 785 830 786 
f 786 831 787 
f 787 832 788 
f 788 833 789 
f 789 834 790 
f 790 835 791 
f 791 826 792 
f 754 803 793 
f 793 803 794 
f 794 837 795 
f 795 837 796 
f 796 838 797 
f 797 839 798 
f 798 840 799 
f 799 841 800 
f 800 842 801 
f 801 843 802 
f 802 827 781 
f 804 809 759 
f 757 805 804 
f 808 811 760 
f 759 809 808 
f 810 812 761 
f 760 811 810 
f 761 812 803 
f 813 814 764 
f 814 816 766 
f 807 806 758 
f 765 815 807 
f 766 816 815 
f 806 805 757 
f 767 769 813 
f 770 817 813 
f 771 818 817 
f 772 819 818 
f 773 820 819 
f 774 821 820 
f 775 822 821 
f 776 823 822 
f 777 824 823 
f 778 825 824 
f 779 826 825 
f 792 826 779 
f 827 828 783 
f 828 829 784 
f 829 830 785 
f 830 831 786 
f 831 832 787 
f 832 833 788 
f 833 834 789 
f 834 835 790 
f 835 836 791 
f 791 836 826 
f 803 812 794 
f 794 812 837 
f 837 838 796 
f 838 839 797 
f 839 840 798 
f 840 841 799 
f 841 842 800 
f 842 843 801 
f 843 827 802 
f 804 844 809 
f 805 846 804 
f 808 850 811 
f 809 850 808 
f 810 837 812 
f 811 837 810 
f 813 817 814 
f 814 818 816 
f 807 847 806 
f 815 849 807 
f 816 852 815 
f 806 847 805 
f 818 814 817 
f 819 816 818 
f 820 852 819 
f 821 853 820 
f 822 854 821 
f 823 855 822 
f 824 856 823 
f 825 857 824 
f 826 836 825 
f 827 859 828 
f 828 859 829 
f 829 860 830 
f 830 861 831 
f 831 862 832 
f 832 863 833 
f 833 864 834 
f 834 865 835 
f 835 858 836 
f 837 850 838 
f 838 850 839 
f 839 867 840 
f 840 868 841 
f 841 869 842 
f 842 870 843 
f 843 859 827 
f 844 851 809 
f 804 845 844 
f 846 845 804 
f 805 847 846 
f 850 837 811 
f 809 851 850 
f 807 848 847 
f 849 848 807 
f 815 852 849 
f 816 819 852 
f 820 853 852 
f 821 854 853 
f 822 855 854 
f 823 856 855 
f 824 857 856 
f 825 858 857 
f 836 858 825 
f 859 860 829 
f 860 861 830 
f 861 862 831 
f 862 863 832 
f 863 864 833 
f 864 865 834 
f 865 866 835 
f 835 866 858 
f 850 867 839 
f 867 868 840 
f 868 869 841 
f 869 870 842 
f 870 859 843 
f 844 871 851 
f 845 871 844 
f 846 873 845 
f 847 874 846 
f 851 867 850 
f 848 874 847 
f 849 875 848 
f 852 853 849 
f 854 875 853 
f 855 875 854 
f 856 877 855 
f 857 878 856 
f 858 866 857 
f 859 880 860 
f 860 880 861 
f 861 881 862 
f 862 882 863 
f 863 883 864 
f 864 884 865 
f 865 879 866 
f 867 876 868 
f 868 876 869 
f 869 886 870 
f 870 880 859 
f 871 876 851 
f 845 872 871 
f 873 872 845 
f 846 874 873 
f 851 876 867 
f 848 875 874 
f 849 853 875 
f 855 877 875 
f 856 878 877 
f 857 879 878 
f 866 879 857 
f 880 881 861 
f 881 882 862 
f 882 883 863 
f 883 884 864 
f 884 885 865 
f 865 885 879 
f 876 886 869 
f 886 880 870 
f 871 886 876 
f 872 887 871 
f 873 889 872 
f 874 890 873 
f 875 891 874 
f 877 891 875 
f 878 891 877 
f 879 885 878 
f 880 887 881 
f 881 887 882 
f 882 888 883 
f 883 889 884 
f 884 892 885 
f 886 887 880 
f 871 887 886 
f 872 888 887 
f 889 888 872 
f 873 890 889 
f 874 891 890 
f 878 892 891 
f 885 892 878 
f 887 888 882 
f 888 889 883 
f 889 890 884 
f 884 890 892 
f 891 892 890 
f 16 10 122 
f 10 123 122 
f 123 124 473 
f 124 125 474 
f 125 126 475 
f 126 127 477 
f 127 128 480 
f 128 129 482 
f 129 130 484 
f 130 6 131 
f 6 17 131 
f 131 132 484 
f 132 133 482 
f 133 134 480 
f 134 11 477 
f 11 119 478 
f 119 120 475 
f 120 121 474 
f 121 122 473 
f 122 123 473 
f 473 124 474 
f 474 125 476 
f 475 126 479 
f 125 475 476 
f 477 127 481 
f 126 477 478 
f 480 128 483 
f 127 480 481 
f 482 129 484 
f 128 482 483 
f 484 130 131 
f 484 132 482 
f 482 133 483 
f 480 134 481 
f 133 480 483 
f 477 11 478 
f 134 477 481 
f 478 119 479 
f 475 120 476 
f 119 475 479 
f 474 121 473 
f 120 474 476 
f 479 126 478 
f 10 16 115 
f 115 116 742 
f 116 117 743 
f 117 118 744 
f 118 15 746 
f 15 267 748 
f 267 268 749 
f 268 269 751 
f 269 270 753 
f 270 17 6 
f 6 77 270 
f 77 78 753 
f 78 79 751 
f 79 80 749 
f 80 81 748 
f 81 82 744 
f 82 83 743 
f 83 84 742 
f 84 10 115 
f 742 116 743 
f 115 742 84 
f 743 117 745 
f 744 118 747 
f 117 744 745 
f 746 15 748 
f 118 746 747 
f 748 267 750 
f 749 268 752 
f 267 749 750 
f 751 269 753 
f 268 751 752 
f 753 270 77 
f 753 78 751 
f 751 79 752 
f 749 80 750 
f 79 749 752 
f 748 81 746 
f 80 748 750 
f 744 82 745 
f 81 744 747 
f 743 83 742 
f 82 743 745 
f 747 746 81 
f 135 19 485 
f 136 135 485 
f 137 136 486 
f 138 137 487 
f 18 138 150 
f 139 20 489 
f 140 139 489 
f 141 140 490 
f 142 141 491 
f 143 142 485 
f 19 143 485 
f 20 144 489 
f 144 145 489 
f 145 146 493 
f 146 147 494 
f 147 21 149 
f 148 22 496 
f 149 148 495 
f 151 150 488 
f 22 151 498 
f 136 485 486 
f 137 486 487 
f 138 487 488 
f 150 138 488 
f 140 489 490 
f 141 490 491 
f 142 491 492 
f 485 142 492 
f 489 145 493 
f 493 146 494 
f 494 147 495 
f 147 149 495 
f 496 22 498 
f 148 496 497 
f 495 148 497 
f 151 488 498 
f 486 485 499 
f 487 486 499 
f 488 487 498 
f 490 489 500 
f 491 490 500 
f 492 491 499 
f 485 492 499 
f 489 493 500 
f 493 494 500 
f 494 495 497 
f 496 498 499 
f 497 496 500 
f 487 499 498 
f 491 500 501 
f 499 491 501 
f 500 494 497 
f 496 499 501 
f 500 496 501 
f 19 135 725 
f 135 136 725 
f 136 137 726 
f 137 138 727 
f 138 18 229 
f 228 26 729 
f 229 228 728 
f 196 21 147 
f 197 196 731 
f 26 197 732 
f 144 20 733 
f 145 144 733 
f 146 145 734 
f 147 146 731 
f 250 19 725 
f 251 250 725 
f 252 251 736 
f 253 252 737 
f 254 253 733 
f 20 254 733 
f 725 136 726 
f 726 137 727 
f 727 138 728 
f 138 229 728 
f 729 26 732 
f 228 729 730 
f 728 228 730 
f 196 147 731 
f 197 731 732 
f 145 733 734 
f 146 734 735 
f 731 146 735 
f 251 725 736 
f 252 736 737 
f 253 737 738 
f 733 253 738 
f 725 726 739 
f 726 727 739 
f 727 728 730 
f 729 732 740 
f 730 729 739 
f 732 731 735 
f 734 733 740 
f 735 734 740 
f 736 725 739 
f 737 736 739 
f 738 737 740 
f 733 738 740 
f 739 727 730 
f 740 732 735 
f 729 740 741 
f 739 729 741 
f 737 739 741 
f 740 737 741 
f 19 23 152 
f 152 153 143 
f 153 154 142 
f 154 24 141 
f 24 155 141 
f 155 156 140 
f 156 157 139 
f 157 25 20 
f 20 139 157 
f 139 140 156 
f 140 141 155 
f 141 142 154 
f 142 143 153 
f 143 19 152 
f 23 19 260 
f 19 250 260 
f 250 251 259 
f 251 252 258 
f 252 253 257 
f 253 254 256 
f 254 20 255 
f 20 25 255 
f 255 256 254 
f 256 257 253 
f 257 38 252 
f 38 258 252 
f 258 259 251 
f 259 260 250 
f 158 27 171 
f 159 158 502 
f 160 159 503 
f 161 160 504 
f 26 161 505 
f 162 28 506 
f 163 162 506 
f 164 163 507 
f 165 164 508 
f 166 165 509 
f 167 166 510 
f 168 167 511 
f 169 168 512 
f 170 169 513 
f 171 170 502 
f 28 172 506 
f 172 173 506 
f 173 174 515 
f 174 175 516 
f 175 176 517 
f 176 177 518 
f 177 178 519 
f 178 179 520 
f 179 180 521 
f 180 181 522 
f 181 182 523 
f 182 183 524 
f 183 29 525 
f 29 184 525 
f 184 185 526 
f 185 186 526 
f 186 187 527 
f 187 30 528 
f 30 188 529 
f 188 189 530 
f 189 190 531 
f 190 191 532 
f 191 31 532 
f 192 22 534 
f 193 192 534 
f 194 193 535 
f 195 194 532 
f 31 195 532 
f 22 148 534 
f 148 149 537 
f 149 21 538 
f 21 196 541 
f 196 197 543 
f 197 26 505 
f 158 171 502 
f 159 502 503 
f 160 503 504 
f 161 504 505 
f 163 506 507 
f 164 507 508 
f 165 508 509 
f 166 509 510 
f 167 510 511 
f 168 511 512 
f 169 512 513 
f 170 513 514 
f 502 170 514 
f 506 173 515 
f 515 174 516 
f 516 175 517 
f 517 176 518 
f 518 177 519 
f 519 178 520 
f 520 179 521 
f 521 180 522 
f 522 181 523 
f 523 182 524 
f 524 183 525 
f 525 184 526 
f 526 186 527 
f 527 187 528 
f 528 30 529 
f 529 188 530 
f 530 189 531 
f 531 190 533 
f 190 532 533 
f 193 534 535 
f 194 535 536 
f 532 194 536 
f 534 148 537 
f 537 149 540 
f 538 21 542 
f 149 538 539 
f 541 196 543 
f 21 541 542 
f 543 197 505 
f 503 502 514 
f 504 503 544 
f 505 504 545 
f 507 506 547 
f 508 507 547 
f 509 508 548 
f 510 509 549 
f 511 510 550 
f 512 511 551 
f 513 512 552 
f 514 513 553 
f 506 515 547 
f 515 516 547 
f 516 517 554 
f 517 518 555 
f 518 519 556 
f 519 520 557 
f 520 521 558 
f 521 522 559 
f 522 523 560 
f 523 524 561 
f 524 525 562 
f 525 526 562 
f 526 527 563 
f 527 528 563 
f 528 529 564 
f 529 530 565 
f 530 531 566 
f 531 533 567 
f 533 532 568 
f 535 534 569 
f 536 535 569 
f 532 536 568 
f 534 537 569 
f 540 149 539 
f 537 540 570 
f 538 542 571 
f 539 538 571 
f 541 543 573 
f 542 541 574 
f 543 505 546 
f 503 514 544 
f 504 544 545 
f 505 545 546 
f 508 547 548 
f 509 548 549 
f 510 549 550 
f 511 550 551 
f 512 551 552 
f 513 552 553 
f 514 553 544 
f 547 516 554 
f 554 517 555 
f 555 518 556 
f 556 519 557 
f 557 520 558 
f 558 521 559 
f 559 522 560 
f 560 523 561 
f 561 524 562 
f 562 526 563 
f 563 528 564 
f 564 529 565 
f 565 530 566 
f 566 531 567 
f 567 533 568 
f 536 569 568 
f 569 537 570 
f 540 539 570 
f 571 542 575 
f 539 571 572 
f 573 543 546 
f 541 573 574 
f 542 574 575 
f 545 544 553 
f 546 545 576 
f 548 547 577 
f 549 548 577 
f 550 549 578 
f 551 550 579 
f 552 551 580 
f 553 552 581 
f 547 554 577 
f 554 555 577 
f 555 556 582 
f 556 557 583 
f 557 558 584 
f 558 559 585 
f 559 560 586 
f 560 561 587 
f 561 562 588 
f 562 563 588 
f 563 564 589 
f 564 565 589 
f 565 566 590 
f 566 567 591 
f 567 568 592 
f 568 569 592 
f 569 570 592 
f 570 539 572 
f 571 575 593 
f 572 571 594 
f 573 546 576 
f 574 573 596 
f 575 574 598 
f 545 553 576 
f 549 577 578 
f 550 578 579 
f 551 579 580 
f 552 580 581 
f 553 581 576 
f 577 555 582 
f 582 556 583 
f 583 557 584 
f 584 558 585 
f 585 559 586 
f 586 560 587 
f 587 561 588 
f 588 563 589 
f 589 565 590 
f 590 566 591 
f 591 567 592 
f 592 570 591 
f 570 572 591 
f 593 575 598 
f 571 593 594 
f 572 594 595 
f 573 576 596 
f 574 596 597 
f 598 574 597 
f 578 577 599 
f 579 578 599 
f 580 579 600 
f 581 580 601 
f 576 581 596 
f 577 582 599 
f 582 583 599 
f 583 584 602 
f 584 585 603 
f 585 586 604 
f 586 587 605 
f 587 588 606 
f 588 589 606 
f 589 590 607 
f 590 591 608 
f 591 572 595 
f 593 598 609 
f 594 593 609 
f 595 594 611 
f 597 596 601 
f 598 597 613 
f 579 599 600 
f 580 600 601 
f 581 601 596 
f 599 583 602 
f 602 584 603 
f 603 585 604 
f 604 586 605 
f 605 587 606 
f 606 589 607 
f 607 590 608 
f 608 591 595 
f 609 598 613 
f 594 609 610 
f 611 594 610 
f 595 611 608 
f 597 601 612 
f 613 597 612 
f 600 599 602 
f 601 600 612 
f 602 603 613 
f 603 604 609 
f 604 605 610 
f 605 606 610 
f 606 607 611 
f 607 608 611 
f 609 613 603 
f 610 609 604 
f 611 610 606 
f 613 612 602 
f 600 602 612 
f 27 158 208 
f 158 159 614 
f 159 160 615 
f 160 161 616 
f 161 26 617 
f 26 228 617 
f 228 229 618 
f 229 18 619 
f 18 150 621 
f 150 151 623 
f 151 22 624 
f 22 192 624 
f 192 193 624 
f 193 194 625 
f 194 195 626 
f 195 31 627 
f 31 230 627 
f 230 231 627 
f 231 232 628 
f 232 233 629 
f 233 36 630 
f 36 234 631 
f 234 235 632 
f 235 236 633 
f 236 237 634 
f 237 29 635 
f 172 28 636 
f 173 172 636 
f 174 173 637 
f 175 174 638 
f 176 175 639 
f 177 176 640 
f 178 177 641 
f 179 178 642 
f 180 179 643 
f 181 180 644 
f 182 181 645 
f 183 182 635 
f 29 183 635 
f 209 208 614 
f 210 209 647 
f 211 210 648 
f 212 211 649 
f 213 212 650 
f 214 213 651 
f 215 214 652 
f 216 215 653 
f 217 216 636 
f 28 217 636 
f 208 158 614 
f 614 159 615 
f 615 160 616 
f 616 161 617 
f 617 228 618 
f 618 229 620 
f 619 18 622 
f 229 619 620 
f 621 150 623 
f 18 621 622 
f 623 151 624 
f 624 193 625 
f 625 194 626 
f 626 195 627 
f 627 231 628 
f 628 232 629 
f 629 233 630 
f 630 36 631 
f 631 234 632 
f 632 235 633 
f 633 236 634 
f 634 237 635 
f 173 636 637 
f 174 637 638 
f 175 638 639 
f 176 639 640 
f 177 640 641 
f 178 641 642 
f 179 642 643 
f 180 643 644 
f 181 644 645 
f 182 645 646 
f 635 182 646 
f 209 614 647 
f 210 647 648 
f 211 648 649 
f 212 649 650 
f 213 650 651 
f 214 651 652 
f 215 652 653 
f 216 653 654 
f 636 216 654 
f 614 615 647 
f 615 616 655 
f 616 617 656 
f 617 618 657 
f 618 620 657 
f 619 622 658 
f 620 619 659 
f 621 623 661 
f 622 621 662 
f 623 624 664 
f 624 625 664 
f 625 626 664 
f 626 627 665 
f 627 628 665 
f 628 629 666 
f 629 630 666 
f 630 631 667 
f 631 632 668 
f 632 633 669 
f 633 634 670 
f 634 635 671 
f 637 636 672 
f 638 637 672 
f 639 638 673 
f 640 639 674 
f 641 640 675 
f 642 641 676 
f 643 642 677 
f 644 643 678 
f 645 644 679 
f 646 645 680 
f 635 646 671 
f 648 647 655 
f 649 648 681 
f 650 649 682 
f 651 650 683 
f 652 651 684 
f 653 652 685 
f 654 653 686 
f 636 654 672 
f 647 615 655 
f 655 616 656 
f 656 617 657 
f 657 620 660 
f 658 622 663 
f 619 658 659 
f 620 659 660 
f 661 623 664 
f 621 661 662 
f 622 662 663 
f 664 626 665 
f 665 628 666 
f 666 630 667 
f 667 631 668 
f 668 632 669 
f 669 633 670 
f 670 634 671 
f 638 672 673 
f 639 673 674 
f 640 674 675 
f 641 675 676 
f 642 676 677 
f 643 677 678 
f 644 678 679 
f 645 679 680 
f 646 680 671 
f 648 655 681 
f 649 681 682 
f 650 682 683 
f 651 683 684 
f 652 684 685 
f 653 685 686 
f 654 686 672 
f 655 656 681 
f 656 657 687 
f 657 660 687 
f 658 663 688 
f 659 658 689 
f 660 659 691 
f 661 664 692 
f 662 661 694 
f 663 662 695 
f 664 665 692 
f 665 666 692 
f 666 667 693 
f 667 668 696 
f 668 669 696 
f 669 670 697 
f 670 671 698 
f 673 672 699 
f 674 673 699 
f 675 674 700 
f 676 675 701 
f 677 676 702 
f 678 677 703 
f 679 678 704 
f 680 679 705 
f 671 680 698 
f 682 681 687 
f 683 682 706 
f 684 683 707 
f 685 684 708 
f 686 685 709 
f 672 686 699 
f 681 656 687 
f 687 660 691 
f 688 663 695 
f 658 688 689 
f 659 689 690 
f 691 659 690 
f 661 692 693 
f 694 661 693 
f 662 694 695 
f 692 666 693 
f 693 667 696 
f 696 669 697 
f 697 670 698 
f 674 699 700 
f 675 700 701 
f 676 701 702 
f 677 702 703 
f 678 703 704 
f 679 704 705 
f 680 705 698 
f 682 687 706 
f 683 706 707 
f 684 707 708 
f 685 708 709 
f 686 709 699 
f 687 691 706 
f 688 695 710 
f 689 688 710 
f 690 689 712 
f 691 690 713 
f 694 693 714 
f 695 694 716 
f 693 696 714 
f 696 697 717 
f 697 698 718 
f 700 699 719 
f 701 700 719 
f 702 701 720 
f 703 702 721 
f 704 703 722 
f 705 704 723 
f 698 705 718 
f 707 706 691 
f 708 707 713 
f 709 708 724 
f 699 709 719 
f 710 695 716 
f 689 710 711 
f 712 689 711 
f 690 712 713 
f 691 713 707 
f 694 714 715 
f 716 694 715 
f 714 696 717 
f 717 697 718 
f 701 719 720 
f 702 720 721 
f 703 721 722 
f 704 722 723 
f 705 723 718 
f 708 713 724 
f 709 724 719 
f 710 716 722 
f 711 710 721 
f 712 711 720 
f 713 712 724 
f 715 714 717 
f 716 715 718 
f 717 718 715 
f 720 719 724 
f 721 720 711 
f 722 721 710 
f 723 722 716 
f 718 723 716 
f 712 720 724 
f 27 32 198 
f 198 199 171 
f 199 200 170 
f 200 201 169 
f 201 202 168 
f 202 33 167 
f 33 203 166 
f 203 204 165 
f 204 205 164 
f 205 206 163 
f 206 207 162 
f 207 34 28 
f 28 162 207 
f 162 163 206 
f 163 164 205 
f 164 165 204 
f 165 166 203 
f 166 167 33 
f 167 168 202 
f 168 169 201 
f 169 170 200 
f 170 171 199 
f 171 27 198 
f 32 27 227 
f 27 208 227 
f 208 209 226 
f 209 210 225 
f 210 211 224 
f 211 212 223 
f 212 213 35 
f 213 214 222 
f 214 215 221 
f 215 216 220 
f 216 217 219 
f 217 28 218 
f 28 34 218 
f 218 219 217 
f 219 220 216 
f 220 221 215 
f 221 222 214 
f 222 35 213 
f 35 223 212 
f 223 224 211 
f 224 225 210 
f 225 226 209 
f 226 227 208 
f 12 34 100 
f 100 207 101 
f 101 206 102 
f 102 205 103 
f 103 204 104 
f 104 203 105 
f 105 33 13 
f 37 35 238 
f 238 222 239 
f 239 221 240 
f 240 220 241 
f 241 219 242 
f 242 218 243 
f 243 34 12 
f 14 32 244 
f 244 227 245 
f 245 226 246 
f 246 225 247 
f 247 224 248 
f 248 223 249 
f 249 35 37 
f 13 33 106 
f 106 202 107 
f 107 201 108 
f 108 200 109 
f 109 199 110 
f 110 198 111 
f 111 32 14 
f 34 243 218 
f 218 242 219 
f 219 241 220 
f 220 240 221 
f 221 239 222 
f 222 238 35 
f 33 105 203 
f 203 104 204 
f 204 103 205 
f 205 102 206 
f 206 101 207 
f 207 100 34 
f 32 111 198 
f 198 110 199 
f 199 109 200 
f 200 108 201 
f 201 107 202 
f 202 106 33 
f 35 249 223 
f 223 248 224 
f 224 247 225 
f 225 246 226 
f 226 245 227 
f 227 244 32 
f 9 71 255 
f 71 72 255 
f 72 73 256 
f 73 8 38 
f 8 68 258 
f 68 69 259 
f 69 70 259 
f 70 7 23 
f 7 261 23 
f 261 262 153 
f 262 263 153 
f 263 39 154 
f 39 264 24 
f 264 265 156 
f 265 266 157 
f 266 9 157 
f 255 25 9 
f 256 255 72 
f 257 256 73 
f 38 257 73 
f 155 24 264 
f 156 155 264 
f 157 156 265 
f 25 157 9 
f 152 23 261 
f 153 152 261 
f 154 153 263 
f 24 154 39 
f 258 38 8 
f 259 258 68 
f 260 259 70 
f 23 260 70 
f 283 4 934 
f 284 283 934 
f 285 284 935 
f 286 285 936 
f 287 286 937 
f 40 287 938 
f 47 3 940 
f 48 47 941 
f 49 48 942 
f 50 49 943 
f 51 50 944 
f 4 51 945 
f 42 2 946 
f 43 42 946 
f 44 43 947 
f 45 44 948 
f 46 45 949 
f 3 46 940 
f 288 40 939 
f 289 288 950 
f 290 289 951 
f 291 290 952 
f 292 291 953 
f 2 292 954 
f 934 4 945 
f 284 934 935 
f 285 935 936 
f 286 936 937 
f 287 937 938 
f 40 938 939 
f 47 940 941 
f 48 941 942 
f 49 942 943 
f 50 943 944 
f 51 944 945 
f 946 2 954 
f 43 946 947 
f 44 947 948 
f 45 948 949 
f 46 949 940 
f 288 939 950 
f 289 950 951 
f 290 951 952 
f 291 952 953 
f 292 953 954 
f 934 945 955 
f 935 934 955 
f 936 935 956 
f 937 936 956 
f 938 937 957 
f 939 938 957 
f 941 940 959 
f 942 941 960 
f 943 942 961 
f 944 943 961 
f 945 944 962 
f 946 954 963 
f 947 946 963 
f 948 947 964 
f 949 948 964 
f 940 949 959 
f 950 939 958 
f 951 950 958 
f 952 951 965 
f 953 952 965 
f 954 953 966 
f 955 945 962 
f 935 955 956 
f 937 956 957 
f 939 957 958 
f 941 959 960 
f 942 960 961 
f 944 961 962 
f 963 954 966 
f 947 963 964 
f 949 964 959 
f 951 958 965 
f 953 965 966 
f 955 962 967 
f 956 955 968 
f 957 956 969 
f 958 957 969 
f 960 959 972 
f 961 960 972 
f 962 961 967 
f 963 966 973 
f 964 963 973 
f 959 964 971 
f 965 958 970 
f 966 965 970 
f 955 967 968 
f 956 968 969 
f 958 969 970 
f 972 959 971 
f 961 972 967 
f 973 966 970 
f 964 973 971 
f 968 967 971 
f 969 968 970 
f 972 971 967 
f 973 970 971 
f 968 971 970 
f 29 974 184 
f 184 974 185 
f 185 976 186 
f 186 977 187 
f 187 978 30 
f 36 979 234 
f 234 979 235 
f 235 981 236 
f 236 982 237 
f 237 975 29 
f 31 983 230 
f 230 983 231 
f 231 985 232 
f 232 986 233 
f 233 980 36 
f 30 987 188 
f 188 988 189 
f 189 989 190 
f 190 990 191 
f 191 984 31 
f 29 975 974 
f 974 976 185 
f 976 977 186 
f 977 978 187 
f 978 987 30 
f 36 980 979 
f 979 981 235 
f 981 982 236 
f 982 975 237 
f 31 984 983 
f 983 985 231 
f 985 986 232 
f 986 980 233 
f 987 988 188 
f 988 989 189 
f 989 990 190 
f 990 984 191 
f 975 992 974 
f 974 991 976 
f 976 993 977 
f 977 993 978 
f 978 994 987 
f 980 996 979 
f 979 995 981 
f 981 995 982 
f 982 992 975 
f 984 998 983 
f 983 997 985 
f 985 996 986 
f 986 996 980 
f 987 994 988 
f 988 999 989 
f 989 999 990 
f 990 998 984 
f 992 991 974 
f 991 993 976 
f 993 994 978 
f 996 995 979 
f 995 992 982 
f 998 997 983 
f 997 996 985 
f 994 999 988 
f 999 998 990 
f 992 1000 991 
f 991 1000 993 
f 993 1000 994 
f 996 1001 995 
f 995 1001 992 
f 998 1003 997 
f 997 1003 996 
f 994 1002 999 
f 999 1002 998 
f 992 1001 1000 
f 1000 1002 994 
f 996 1003 1001 
f 998 1002 1003 
f 1001 1002 1000 
f 1003 1002 1001 
# End of file
