# WaveFront *.obj file
# Vertices: 1005
# Triangles : 2006
v -0.39682541973888874 -1.1102229998097382e-16 -0.6296296138316393
v -0.39682541973888874 -1.1102229998097382e-16 -0.6825396791100502
v -2.4298546816018828e-17 0.39682541973888874 -0.6825396791100502
v 0.39682541973888874 -1.1102229998097382e-16 -0.6825396791100502
v 0.39682541973888874 -1.1102229998097382e-16 -0.6296296138316393
v -2.4298546816018828e-17 0.39682541973888874 -0.6296296138316393
v 0.6913031451404095 -1.1102229998097382e-16 -0.6296296138316393
v 0.6913031451404095 -1.1102229998097382e-16 0.8439153432846069
v 4.233010964751567e-17 -0.6913031451404095 0.8439153432846069
v -0.6913031451404095 -2.2204459996194763e-16 0.8439153432846069
v -0.6913031451404095 -1.9568251927600515e-16 -0.6296296138316393
v -0.6386808585375547 -0.26455025654286146 -0.6296296138316393
v -0.48882514238357544 -0.48882514238357544 -0.6296296138316393
v -0.26455025654286146 -0.6386808585375547 -0.6296296138316393
v -8.786707031690448e-16 -0.6913031451404095 -0.6296296138316393
v 0.26455025654286146 -0.6386808585375547 -0.6296296138316393
v 0.48882514238357544 -0.48882514238357544 -0.6296296138316393
v 0.6386808585375547 -0.26455025654286146 -0.6296296138316393
v 0.3888888983055949 -1.1102229998097382e-16 0.8465608581900597
v 0.3888888983055949 -1.1102229998097382e-16 0.9999999776482582
v 0.2986924722790718 -0.2490328624844551 0.9999999776482582
v 0.2986924722790718 -0.2490328624844551 0.8518518880009651
v -6.253810099291316e-17 -0.3888888983055949 0.8518518880009651
v -0.2986924722790718 -0.2490328624844551 0.8518518880009651
v -0.2986924722790718 -0.2490328624844551 0.9999999776482582
v -0.3888888983055949 -1.5864745122338284e-16 0.9999999776482582
v -0.3888888983055949 -1.5864745122338284e-16 0.8465608581900597
v 0.587853230535984 0.0 0.8439153432846069
v 0.587853230535984 0.0 0.8465608581900597
v 3.599562772500935e-17 -0.587853230535984 0.8465608581900597
v -0.587853230535984 -1.1102229998097382e-16 0.8465608581900597
v -0.587853230535984 -1.1102229998097382e-16 0.8439153432846069
v 3.599562772500935e-17 -0.587853230535984 0.8439153432846069
v 3.599562772500935e-17 0.587853230535984 0.8439153432846069
v 3.599562772500935e-17 0.587853230535984 0.8465608581900597
v 4.233010964751567e-17 0.6913031451404095 0.8439153432846069
v -0.2986924722790718 0.2490328624844551 0.8465608581900597
v -0.2986924722790718 0.2490328624844551 0.9999999776482582
v -0.2986924722790718 0.2490328624844551 0.8518518880009651
v -6.253810099291316e-17 0.3888888983055949 0.8518518880009651
v 0.2986924722790718 0.2490328624844551 0.8518518880009651
v 0.2986924722790718 0.2490328624844551 0.9999999776482582
v 0.0 -0.18518518190830946 -0.6296296138316393
v 0.0 0.18518518190830946 -0.6296296138316393
v 0.0 0.18518518190830946 -0.986772496253252
v 0.0 -0.18518518190830946 -0.986772496253252
v 0.0 0.06613756413571537 -0.6296296138316393
v 0.0 0.06613756413571537 -0.986772496253252
v 0.0 0.0793650804553181 -0.9999999776482582
v 0.0 0.17195767723023891 -0.9999999776482582
v 0.0 -0.06613756413571537 -0.986772496253252
v 0.0 -0.0793650804553181 -0.9999999776482582
v 0.0 -0.17195767723023891 -0.9999999776482582
v 0.0 -0.06613756413571537 -0.6296296138316393
v 0.6386808585375547 0.26455025654286146 -0.6296296138316393
v 0.48882514238357544 0.48882514238357544 -0.6296296138316393
v 0.26455025654286146 0.6386808585375547 -0.6296296138316393
v 5.028305212256747e-16 0.6913031451404095 -0.6296296138316393
v -0.26455025654286146 0.6386808585375547 -0.6296296138316393
v -0.48882514238357544 0.48882514238357544 -0.6296296138316393
v -0.6386808585375547 0.26455025654286146 -0.6296296138316393
v -2.4298546816018828e-17 -0.39682541973888874 -0.6296296138316393
v 0.6386808585375547 -0.26455025654286146 -0.6825396791100502
v 0.6386808585375547 0.26455025654286146 -0.6825396791100502
v 0.26455025654286146 -0.6386808585375547 -0.6825396791100502
v -0.26455025654286146 -0.6386808585375547 -0.6825396791100502
v -0.6386808585375547 -0.26455025654286146 -0.6825396791100502
v -2.4298546816018828e-17 -0.39682541973888874 -0.6825396791100502
v -0.6386808585375547 0.26455025654286146 -0.6825396791100502
v -0.26455025654286146 0.6386808585375547 -0.6825396791100502
v 0.26455025654286146 0.6386808585375547 -0.6825396791100502
v -0.12262578820809722 0.3774033859372139 -0.6825396791100502
v -0.23324810899794102 0.3210384864360094 -0.6825396791100502
v -0.3210384864360094 0.23324810899794102 -0.6825396791100502
v -0.3774033859372139 0.12262578820809722 -0.6825396791100502
v 0.3774033859372139 0.12262578820809722 -0.6825396791100502
v 0.3210384864360094 0.23324810899794102 -0.6825396791100502
v 0.23324810899794102 0.3210384864360094 -0.6825396791100502
v 0.12262578820809722 0.3774033859372139 -0.6825396791100502
v 0.3774033859372139 0.12262578820809722 -0.6296296138316393
v 0.3210384864360094 0.23324810899794102 -0.6296296138316393
v 0.23324810899794102 0.3210384864360094 -0.6296296138316393
v 0.12262578820809722 0.3774033859372139 -0.6296296138316393
v -0.12262578820809722 0.3774033859372139 -0.6296296138316393
v -0.23324810899794102 0.3210384864360094 -0.6296296138316393
v -0.3210384864360094 0.23324810899794102 -0.6296296138316393
v -0.3774033859372139 0.12262578820809722 -0.6296296138316393
v 0.6913031451404095 -1.1102229998097382e-16 0.7305657491087914
v 0.6913031451404095 -1.1102229998097382e-16 0.617216108366847
v 0.6913031451404095 -1.1102229998097382e-16 0.5038665141910315
v 0.6913031451404095 -1.1102229998097382e-16 0.3905168967321515
v 0.6913031451404095 -1.1102229998097382e-16 0.27716727927327156
v 0.6913031451404095 -1.1102229998097382e-16 0.1638176618143916
v 0.6913031451404095 -1.1102229998097382e-16 0.05046805017627776
v 0.6913031451404095 -1.1102229998097382e-16 -0.0628815614618361
v 0.6913031451404095 -1.1102229998097382e-16 -0.17623117892071605
v 0.6913031451404095 -1.1102229998097382e-16 -0.2895807847380638
v 0.6913031451404095 -1.1102229998097382e-16 -0.4029304254800081
v 0.6913031451404095 -1.1102229998097382e-16 -0.5162800196558237
v 0.6808007135987282 -0.12004353338852525 0.8439153432846069
v 0.6496124900877476 -0.23643961176276207 0.8439153432846069
v 0.5986860953271389 -0.34565157257020473 0.8439153432846069
v 0.5295689217746258 -0.4443611018359661 0.8439153432846069
v 0.4443611018359661 -0.5295689217746258 0.8439153432846069
v 0.34565157257020473 -0.5986860953271389 0.8439153432846069
v 0.23643961176276207 -0.6496124900877476 0.8439153432846069
v 0.12004353338852525 -0.6808007135987282 0.8439153432846069
v -0.12004353338852525 -0.6808007135987282 0.8439153432846069
v -0.23643961176276207 -0.6496124900877476 0.8439153432846069
v -0.34565157257020473 -0.5986860953271389 0.8439153432846069
v -0.4443611018359661 -0.5295689217746258 0.8439153432846069
v -0.5295689217746258 -0.4443611018359661 0.8439153432846069
v -0.5986860953271389 -0.34565157257020473 0.8439153432846069
v -0.6496124900877476 -0.23643961176276207 0.8439153432846069
v -0.6808007135987282 -0.12004353338852525 0.8439153432846069
v -0.6913031451404095 -1.9568251927600515e-16 0.7305657491087914
v -0.6913031451404095 -1.9568251927600515e-16 0.617216108366847
v -0.6913031451404095 -1.9568251927600515e-16 0.5038665141910315
v -0.6913031451404095 -1.9568251927600515e-16 0.3905168967321515
v -0.6913031451404095 -1.9568251927600515e-16 0.27716727927327156
v -0.6913031451404095 -1.9568251927600515e-16 0.1638176618143916
v -0.6913031451404095 -1.9568251927600515e-16 0.05046805017627776
v -0.6913031451404095 -1.9568251927600515e-16 -0.0628815614618361
v -0.6913031451404095 -1.9568251927600515e-16 -0.17623117892071605
v -0.6913031451404095 -1.9568251927600515e-16 -0.2895807847380638
v -0.6913031451404095 -1.9568251927600515e-16 -0.4029304254800081
v -0.6913031451404095 -1.9568251927600515e-16 -0.5162800196558237
v -0.6780199706554413 -0.13486655661836267 -0.6296296138316393
v -0.5747975781559944 -0.38406746461987495 -0.6296296138316393
v -0.38406746461987495 -0.5747975781559944 -0.6296296138316393
v -0.13486655661836267 -0.6780199706554413 -0.6296296138316393
v 0.13486655661836267 -0.6780199706554413 -0.6296296138316393
v 0.38406746461987495 -0.5747975781559944 -0.6296296138316393
v 0.5747975781559944 -0.38406746461987495 -0.6296296138316393
v 0.6780199706554413 -0.13486655661836267 -0.6296296138316393
v 0.3656451590359211 -0.13243183493614197 0.9999999776482582
v 0.21438009571284056 -0.3244622377678752 0.8518518880009651
v 0.11192589299753308 -0.3724341047927737 0.8518518880009651
v -0.11192589299753308 -0.3724341047927737 0.8518518880009651
v -0.21438009571284056 -0.3244622377678752 0.8518518880009651
v -0.3656451590359211 -0.13243183493614197 0.9999999776482582
v -0.3698553191497922 -0.12017327826470137 0.8465608581900597
v -0.31461771577596664 -0.22858316078782082 0.8465608581900597
v -0.22858316078782082 -0.31461771577596664 0.8465608581900597
v -0.12017327826470137 -0.3698553191497922 0.8465608581900597
v -2.7755574995243454e-17 -0.3888888983055949 0.8465608581900597
v 0.12017327826470137 -0.3698553191497922 0.8465608581900597
v 0.22858316078782082 -0.31461771577596664 0.8465608581900597
v 0.31461771577596664 -0.22858316078782082 0.8465608581900597
v 0.3698553191497922 -0.12017327826470137 0.8465608581900597
v 0.5765577778220177 -0.11468448210507631 0.8465608581900597
v 0.5431055556982756 -0.22496168967336416 0.8465608581900597
v 0.4887821152806282 -0.32659375574439764 0.8465608581900597
v 0.4156750161200762 -0.4156750161200762 0.8465608581900597
v 0.32659375574439764 -0.4887821152806282 0.8465608581900597
v 0.22496168967336416 -0.5431055556982756 0.8465608581900597
v 0.11468448210507631 -0.5765577778220177 0.8465608581900597
v -0.11468448210507631 -0.5765577778220177 0.8465608581900597
v -0.22496168967336416 -0.5431055556982756 0.8465608581900597
v -0.32659375574439764 -0.4887821152806282 0.8465608581900597
v -0.4156750161200762 -0.4156750161200762 0.8465608581900597
v -0.4887821152806282 -0.32659375574439764 0.8465608581900597
v -0.5431055556982756 -0.22496168967336416 0.8465608581900597
v -0.5765577778220177 -0.11468448210507631 0.8465608581900597
v -0.5765577778220177 -0.11468448210507631 0.8439153432846069
v -0.5431055556982756 -0.22496168967336416 0.8439153432846069
v -0.4887821152806282 -0.32659375574439764 0.8439153432846069
v -0.4156750161200762 -0.4156750161200762 0.8439153432846069
v -0.32659375574439764 -0.4887821152806282 0.8439153432846069
v -0.22496168967336416 -0.5431055556982756 0.8439153432846069
v -0.11468448210507631 -0.5765577778220177 0.8439153432846069
v 0.11468448210507631 -0.5765577778220177 0.8439153432846069
v 0.22496168967336416 -0.5431055556982756 0.8439153432846069
v 0.32659375574439764 -0.4887821152806282 0.8439153432846069
v 0.4156750161200762 -0.4156750161200762 0.8439153432846069
v 0.4887821152806282 -0.32659375574439764 0.8439153432846069
v 0.5431055556982756 -0.22496168967336416 0.8439153432846069
v 0.5765577778220177 -0.11468448210507631 0.8439153432846069
v 0.5765577778220177 0.11468448210507631 0.8439153432846069
v 0.5431055556982756 0.22496168967336416 0.8439153432846069
v 0.4887821152806282 0.32659375574439764 0.8439153432846069
v 0.4156750161200762 0.4156750161200762 0.8439153432846069
v 0.32659375574439764 0.4887821152806282 0.8439153432846069
v 0.22496168967336416 0.5431055556982756 0.8439153432846069
v 0.11468448210507631 0.5765577778220177 0.8439153432846069
v -0.11468448210507631 0.5765577778220177 0.8439153432846069
v -0.22496168967336416 0.5431055556982756 0.8439153432846069
v -0.32659375574439764 0.4887821152806282 0.8439153432846069
v -0.4156750161200762 0.4156750161200762 0.8439153432846069
v -0.4887821152806282 0.32659375574439764 0.8439153432846069
v -0.5431055556982756 0.22496168967336416 0.8439153432846069
v -0.5765577778220177 0.11468448210507631 0.8439153432846069
v -0.5765577778220177 0.11468448210507631 0.8465608581900597
v -0.5431055556982756 0.22496168967336416 0.8465608581900597
v -0.4887821152806282 0.32659375574439764 0.8465608581900597
v -0.4156750161200762 0.4156750161200762 0.8465608581900597
v -0.32659375574439764 0.4887821152806282 0.8465608581900597
v -0.22496168967336416 0.5431055556982756 0.8465608581900597
v -0.11468448210507631 0.5765577778220177 0.8465608581900597
v 0.11468448210507631 0.5765577778220177 0.8465608581900597
v 0.22496168967336416 0.5431055556982756 0.8465608581900597
v 0.32659375574439764 0.4887821152806282 0.8465608581900597
v 0.4156750161200762 0.4156750161200762 0.8465608581900597
v 0.4887821152806282 0.32659375574439764 0.8465608581900597
v 0.5431055556982756 0.22496168967336416 0.8465608581900597
v 0.5765577778220177 0.11468448210507631 0.8465608581900597
v -0.6808007135987282 0.12004353338852525 0.8439153432846069
v -0.6496124900877476 0.23643961176276207 0.8439153432846069
v -0.5986860953271389 0.34565157257020473 0.8439153432846069
v -0.5295689217746258 0.4443611018359661 0.8439153432846069
v -0.4443611018359661 0.5295689217746258 0.8439153432846069
v -0.34565157257020473 0.5986860953271389 0.8439153432846069
v -0.23643961176276207 0.6496124900877476 0.8439153432846069
v -0.12004353338852525 0.6808007135987282 0.8439153432846069
v 0.12004353338852525 0.6808007135987282 0.8439153432846069
v 0.23643961176276207 0.6496124900877476 0.8439153432846069
v 0.34565157257020473 0.5986860953271389 0.8439153432846069
v 0.4443611018359661 0.5295689217746258 0.8439153432846069
v 0.5295689217746258 0.4443611018359661 0.8439153432846069
v 0.5986860953271389 0.34565157257020473 0.8439153432846069
v 0.6496124900877476 0.23643961176276207 0.8439153432846069
v 0.6808007135987282 0.12004353338852525 0.8439153432846069
v -0.3656451590359211 0.13243183493614197 0.8465608581900597
v 0.37084382493048906 0.11708723613992333 0.8465608581900597
v 0.3183832857757807 0.22330840583890676 0.8465608581900597
v 0.23637576960027218 0.30880586709827185 0.8465608581900597
v 0.13243183493614197 0.3656451590359211 0.8465608581900597
v 0.01619780668988824 0.38855141028761864 0.8465608581900597
v -0.10153943439945579 0.37539887707680464 0.8465608581900597
v -0.20985349547117949 0.3274081274867058 0.8465608581900597
v -0.3656451590359211 0.13243183493614197 0.9999999776482582
v -0.21438009571284056 0.3244622377678752 0.8518518880009651
v -0.11192589299753308 0.3724341047927737 0.8518518880009651
v 0.11192589299753308 0.3724341047927737 0.8518518880009651
v 0.21438009571284056 0.3244622377678752 0.8518518880009651
v 0.3656451590359211 0.13243183493614197 0.9999999776482582
v -0.17921548569574952 0.2490328624844551 0.8518518880009651
v -0.05973849329166114 0.2490328624844551 0.8518518880009651
v 0.05973849329166114 0.2490328624844551 0.8518518880009651
v 0.17921548569574952 0.2490328624844551 0.8518518880009651
v 0.17921548569574952 0.2490328624844551 0.9999999776482582
v 0.05973849329166114 0.2490328624844551 0.9999999776482582
v -0.05973849329166114 0.2490328624844551 0.9999999776482582
v -0.17921548569574952 0.2490328624844551 0.9999999776482582
v 0.17921548569574952 -0.2490328624844551 0.8518518880009651
v 0.05973849329166114 -0.2490328624844551 0.8518518880009651
v -0.05973849329166114 -0.2490328624844551 0.8518518880009651
v -0.17921548569574952 -0.2490328624844551 0.8518518880009651
v -0.17921548569574952 -0.2490328624844551 0.9999999776482582
v -0.05973849329166114 -0.2490328624844551 0.9999999776482582
v 0.05973849329166114 -0.2490328624844551 0.9999999776482582
v 0.17921548569574952 -0.2490328624844551 0.9999999776482582
v -0.10884911753237247 0.14981796266511083 -0.6296296138316393
v -0.176121573895216 0.0572253717109561 -0.6296296138316393
v -0.176121573895216 -0.0572253717109561 -0.6296296138316393
v -0.10884911753237247 -0.14981796266511083 -0.6296296138316393
v 0.0 0.18518518190830946 -0.867724884301424
v 0.0 0.18518518190830946 -0.7486772257834673
v -0.10884911753237247 -0.14981796266511083 -0.986772496253252
v -0.176121573895216 -0.0572253717109561 -0.986772496253252
v -0.176121573895216 0.0572253717109561 -0.986772496253252
v -0.10884911753237247 0.14981796266511083 -0.986772496253252
v 0.0 -0.18518518190830946 -0.867724884301424
v 0.0 -0.18518518190830946 -0.7486772257834673
v 0.0 0.06613756413571537 -0.867724884301424
v 0.0 0.06613756413571537 -0.7486772257834673
v 0.0 0.07001181365922093 -0.9961257688701153
v 0.0 0.18131093820556998 -0.9961257688701153
v 0.0 -0.07001181365922093 -0.9961257688701153
v -0.05611958331428468 -0.05611958331428468 -0.9999999776482582
v -0.0793650804553181 -1.1102229998097382e-16 -0.9999999776482582
v -0.05611958331428468 0.05611958331428468 -0.9999999776482582
v -0.046766322338953614 0.046766322338953614 -0.986772496253252
v -0.06613756413571537 -1.1102229998097382e-16 -0.986772496253252
v -0.046766322338953614 -0.046766322338953614 -0.986772496253252
v -0.10107418056577444 0.13911668211221695 -0.9999999776482582
v -0.1635414664633572 0.05313784349709749 -0.9999999776482582
v -0.1635414664633572 -0.05313784349709749 -0.9999999776482582
v -0.10107418056577444 -0.13911668211221695 -0.9999999776482582
v 0.0 -0.18131093820556998 -0.9961257688701153
v -0.046766322338953614 -0.046766322338953614 -0.6296296138316393
v -0.06613756413571537 -1.1102229998097382e-16 -0.6296296138316393
v -0.046766322338953614 0.046766322338953614 -0.6296296138316393
v 0.0 -0.06613756413571537 -0.7486772257834673
v 0.0 -0.06613756413571537 -0.867724884301424
v 0.6780199706554413 0.13486655661836267 -0.6296296138316393
v 0.5747975781559944 0.38406746461987495 -0.6296296138316393
v 0.38406746461987495 0.5747975781559944 -0.6296296138316393
v 0.13486655661836267 0.6780199706554413 -0.6296296138316393
v -0.13486655661836267 0.6780199706554413 -0.6296296138316393
v -0.38406746461987495 0.5747975781559944 -0.6296296138316393
v -0.5747975781559944 0.38406746461987495 -0.6296296138316393
v -0.6780199706554413 0.13486655661836267 -0.6296296138316393
v 0.12262578820809722 -0.3774033859372139 -0.6296296138316393
v 0.23324810899794102 -0.3210384864360094 -0.6296296138316393
v 0.3210384864360094 -0.23324810899794102 -0.6296296138316393
v 0.3774033859372139 -0.12262578820809722 -0.6296296138316393
v -0.3774033859372139 -0.12262578820809722 -0.6296296138316393
v -0.3210384864360094 -0.23324810899794102 -0.6296296138316393
v -0.23324810899794102 -0.3210384864360094 -0.6296296138316393
v -0.12262578820809722 -0.3774033859372139 -0.6296296138316393
v -0.33937636762857437 -0.5638547241687775 -0.6296296138316393
v -0.41420250199735165 -0.4890285898000002 -0.6296296138316393
v -0.4890285898000002 -0.41420250199735165 -0.6296296138316393
v -0.5638547241687775 -0.33937636762857437 -0.6296296138316393
v 0.1587301609106362 -0.6386808585375547 -0.6296296138316393
v 0.05291005363687873 -0.6386808585375547 -0.6296296138316393
v -0.05291005363687873 -0.6386808585375547 -0.6296296138316393
v -0.1587301609106362 -0.6386808585375547 -0.6296296138316393
v 0.5638547241687775 -0.33937636762857437 -0.6296296138316393
v 0.4890285898000002 -0.41420250199735165 -0.6296296138316393
v 0.41420250199735165 -0.4890285898000002 -0.6296296138316393
v 0.33937636762857437 -0.5638547241687775 -0.6296296138316393
v 0.6386808585375547 0.1587301609106362 -0.6296296138316393
v 0.6386808585375547 0.05291005363687873 -0.6296296138316393
v 0.6386808585375547 -0.05291005363687873 -0.6296296138316393
v 0.6386808585375547 -0.1587301609106362 -0.6296296138316393
v 0.33937636762857437 0.5638547241687775 -0.6296296138316393
v 0.41420250199735165 0.4890285898000002 -0.6296296138316393
v 0.4890285898000002 0.41420250199735165 -0.6296296138316393
v 0.5638547241687775 0.33937636762857437 -0.6296296138316393
v -0.1587301609106362 0.6386808585375547 -0.6296296138316393
v -0.05291005363687873 0.6386808585375547 -0.6296296138316393
v 0.05291005363687873 0.6386808585375547 -0.6296296138316393
v 0.1587301609106362 0.6386808585375547 -0.6296296138316393
v -0.5638547241687775 0.33937636762857437 -0.6296296138316393
v -0.4890285898000002 0.41420250199735165 -0.6296296138316393
v -0.41420250199735165 0.4890285898000002 -0.6296296138316393
v -0.33937636762857437 0.5638547241687775 -0.6296296138316393
v -0.6386808585375547 -0.1587301609106362 -0.6296296138316393
v -0.6386808585375547 -0.05291005363687873 -0.6296296138316393
v -0.6386808585375547 0.05291005363687873 -0.6296296138316393
v -0.6386808585375547 0.1587301609106362 -0.6296296138316393
v 0.6386808585375547 -0.1587301609106362 -0.6825396791100502
v 0.6386808585375547 -0.05291005363687873 -0.6825396791100502
v 0.6386808585375547 0.05291005363687873 -0.6825396791100502
v 0.6386808585375547 0.1587301609106362 -0.6825396791100502
v 0.33937636762857437 -0.5638547241687775 -0.6825396791100502
v 0.41420250199735165 -0.4890285898000002 -0.6825396791100502
v 0.4890285898000002 -0.41420250199735165 -0.6825396791100502
v 0.5638547241687775 -0.33937636762857437 -0.6825396791100502
v -0.1587301609106362 -0.6386808585375547 -0.6825396791100502
v -0.05291005363687873 -0.6386808585375547 -0.6825396791100502
v 0.05291005363687873 -0.6386808585375547 -0.6825396791100502
v 0.1587301609106362 -0.6386808585375547 -0.6825396791100502
v -0.5638547241687775 -0.33937636762857437 -0.6825396791100502
v -0.4890285898000002 -0.41420250199735165 -0.6825396791100502
v -0.41420250199735165 -0.4890285898000002 -0.6825396791100502
v -0.33937636762857437 -0.5638547241687775 -0.6825396791100502
v 0.12262578820809722 -0.3774033859372139 -0.6825396791100502
v 0.23324810899794102 -0.3210384864360094 -0.6825396791100502
v 0.3210384864360094 -0.23324810899794102 -0.6825396791100502
v 0.3774033859372139 -0.12262578820809722 -0.6825396791100502
v -0.3774033859372139 -0.12262578820809722 -0.6825396791100502
v -0.3210384864360094 -0.23324810899794102 -0.6825396791100502
v -0.23324810899794102 -0.3210384864360094 -0.6825396791100502
v -0.12262578820809722 -0.3774033859372139 -0.6825396791100502
v -0.6386808585375547 0.1587301609106362 -0.6825396791100502
v -0.6386808585375547 0.05291005363687873 -0.6825396791100502
v -0.6386808585375547 -0.05291005363687873 -0.6825396791100502
v -0.6386808585375547 -0.1587301609106362 -0.6825396791100502
v -0.33937636762857437 0.5638547241687775 -0.6825396791100502
v -0.41420250199735165 0.4890285898000002 -0.6825396791100502
v -0.4890285898000002 0.41420250199735165 -0.6825396791100502
v -0.5638547241687775 0.33937636762857437 -0.6825396791100502
v 0.1587301609106362 0.6386808585375547 -0.6825396791100502
v 0.05291005363687873 0.6386808585375547 -0.6825396791100502
v -0.05291005363687873 0.6386808585375547 -0.6825396791100502
v -0.1587301609106362 0.6386808585375547 -0.6825396791100502
v 0.5638547241687775 0.33937636762857437 -0.6825396791100502
v 0.4890285898000002 0.41420250199735165 -0.6825396791100502
v 0.41420250199735165 0.4890285898000002 -0.6825396791100502
v 0.33937636762857437 0.5638547241687775 -0.6825396791100502
v 0.5850225687026978 -0.05761969368904829 0.8465608581900597
v -0.5850225687026978 -0.05761969368904829 0.8465608581900597
v -0.5850225687026978 -0.05761969368904829 0.8439153432846069
v 0.5850225687026978 -0.05761969368904829 0.8439153432846069
v 0.5850225687026978 0.05761969368904829 0.8439153432846069
v -0.5850225687026978 0.05761969368904829 0.8439153432846069
v -0.5850225687026978 0.05761969368904829 0.8465608581900597
v 0.5850225687026978 0.05761969368904829 0.8465608581900597
v 0.0 0.18518518190830946 -0.927248690277338
v -0.0572253717109561 -0.176121573895216 -0.986772496253252
v -0.0572253717109561 0.176121573895216 -0.986772496253252
v 0.0 -0.18518518190830946 -0.927248690277338
v 0.0 0.06613756413571537 -0.927248690277338
v -0.05313784349709749 0.1635414664633572 -0.9999999776482582
v -0.05313784349709749 -0.1635414664633572 -0.9999999776482582
v 0.0 -0.06613756413571537 -0.927248690277338
v 0.5871451459825039 -0.028844590997323394 0.8465608581900597
v -0.5871451459825039 -0.028844590997323394 0.8439153432846069
v 0.5871451459825039 0.028844590997323394 0.8439153432846069
v -0.5871451459825039 0.028844590997323394 0.8465608581900597
v -0.5871451459825039 -0.028844590997323394 0.8465608581900597
v 0.5871451459825039 -0.028844590997323394 0.8439153432846069
v -0.5871451459825039 0.028844590997323394 0.8439153432846069
v 0.5871451459825039 0.028844590997323394 0.8465608581900597
v 0.5876761861145496 -0.014426640700548887 0.8465608581900597
v -0.5876761861145496 -0.014426640700548887 0.8439153432846069
v 0.5876761861145496 0.014426640700548887 0.8439153432846069
v -0.5876761861145496 0.014426640700548887 0.8465608581900597
v -0.5876761861145496 -0.014426640700548887 0.8465608581900597
v 0.5876761861145496 -0.014426640700548887 0.8439153432846069
v -0.5876761861145496 0.014426640700548887 0.8439153432846069
v 0.5876761861145496 0.014426640700548887 0.8465608581900597
v 0.6813942920416594 -0.11662705801427364 0.7305657491087914
v 0.6813942920416594 -0.11662705801427364 0.617216108366847
v 0.6813942920416594 -0.11662705801427364 0.5038665141910315
v 0.6813942920416594 -0.11662705801427364 0.3905168967321515
v 0.6813942920416594 -0.11662705801427364 0.27716727927327156
v 0.6813942920416594 -0.11662705801427364 0.1638176618143916
v 0.6813942920416594 -0.11662705801427364 0.05046805017627776
v 0.6813942920416594 -0.11662705801427364 -0.0628815614618361
v 0.6813942920416594 -0.11662705801427364 -0.17623117892071605
v 0.6813942920416594 -0.11662705801427364 -0.2895807847380638
v 0.6813942920416594 -0.11662705801427364 -0.4029304254800081
v 0.6813942920416594 -0.11662705801427364 -0.5162800196558237
v 0.6496124900877476 -0.23643961176276207 0.7267278619110584
v 0.5986860953271389 -0.34565157257020473 0.7267278619110584
v 0.5295689217746258 -0.4443611018359661 0.7267278619110584
v 0.4443611018359661 -0.5295689217746258 0.7267278619110584
v 0.34565157257020473 -0.5986860953271389 0.7267278619110584
v 0.23643961176276207 -0.6496124900877476 0.7267278619110584
v 0.12004353338852525 -0.6808007135987282 0.7267278619110584
v 4.233010964751567e-17 -0.6913031451404095 0.7267278619110584
v -0.12004353338852525 -0.6808007135987282 0.7267278619110584
v -0.23643961176276207 -0.6496124900877476 0.7267278619110584
v -0.34565157257020473 -0.5986860953271389 0.7267278619110584
v -0.4443611018359661 -0.5295689217746258 0.7267278619110584
v -0.5295689217746258 -0.4443611018359661 0.7267278619110584
v -0.5986860953271389 -0.34565157257020473 0.7267278619110584
v -0.6496124900877476 -0.23643961176276207 0.7267278619110584
v -0.6813942920416594 -0.11662705801427364 0.7305657491087914
v -0.6813942920416594 -0.11662705801427364 0.617216108366847
v -0.6813942920416594 -0.11662705801427364 0.5038665141910315
v -0.6813942920416594 -0.11662705801427364 0.3905168967321515
v -0.6813942920416594 -0.11662705801427364 0.27716727927327156
v -0.6813942920416594 -0.11662705801427364 0.1638176618143916
v -0.6813942920416594 -0.11662705801427364 0.05046805017627776
v -0.6813942920416594 -0.11662705801427364 -0.0628815614618361
v -0.6813942920416594 -0.11662705801427364 -0.17623117892071605
v -0.6813942920416594 -0.11662705801427364 -0.2895807847380638
v -0.6813942920416594 -0.11662705801427364 -0.4029304254800081
v -0.6813942920416594 -0.11662705801427364 -0.5162800196558237
v -0.6386808585375547 -0.26455025654286146 -0.5124421324580908
v -0.5747975781559944 -0.38406746461987495 -0.5124421324580908
v -0.48882514238357544 -0.48882514238357544 -0.5124421324580908
v -0.38406746461987495 -0.5747975781559944 -0.5124421324580908
v -0.26455025654286146 -0.6386808585375547 -0.5124421324580908
v -0.13486655661836267 -0.6780199706554413 -0.5124421324580908
v -8.786707031690448e-16 -0.6913031451404095 -0.5124421324580908
v 0.13486655661836267 -0.6780199706554413 -0.5124421324580908
v 0.26455025654286146 -0.6386808585375547 -0.5124421324580908
v 0.38406746461987495 -0.5747975781559944 -0.5124421324580908
v 0.48882514238357544 -0.48882514238357544 -0.5124421324580908
v 0.5747975781559944 -0.38406746461987495 -0.5124421324580908
v 0.6386808585375547 -0.26455025654286146 -0.5124421324580908
v 0.6519517861306667 -0.22991073783487082 0.617216108366847
v 0.6519517861306667 -0.22991073783487082 0.5038665141910315
v 0.6519517861306667 -0.22991073783487082 0.3905168967321515
v 0.6519517861306667 -0.22991073783487082 0.27716727927327156
v 0.6519517861306667 -0.22991073783487082 0.1638176618143916
v 0.6519517861306667 -0.22991073783487082 0.05046805017627776
v 0.6519517861306667 -0.22991073783487082 -0.0628815614618361
v 0.6519517861306667 -0.22991073783487082 -0.17623117892071605
v 0.6519517861306667 -0.22991073783487082 -0.2895807847380638
v 0.6519517861306667 -0.22991073783487082 -0.4029304254800081
v 0.5986860953271389 -0.34565157257020473 0.6095403339713812
v 0.5295689217746258 -0.4443611018359661 0.6095403339713812
v 0.4443611018359661 -0.5295689217746258 0.6095403339713812
v 0.34565157257020473 -0.5986860953271389 0.6095403339713812
v 0.23643961176276207 -0.6496124900877476 0.6095403339713812
v 0.12004353338852525 -0.6808007135987282 0.6095403339713812
v 4.233010964751567e-17 -0.6913031451404095 0.6095403339713812
v -0.12004353338852525 -0.6808007135987282 0.6095403339713812
v -0.23643961176276207 -0.6496124900877476 0.6095403339713812
v -0.34565157257020473 -0.5986860953271389 0.6095403339713812
v -0.4443611018359661 -0.5295689217746258 0.6095403339713812
v -0.5295689217746258 -0.4443611018359661 0.6095403339713812
v -0.5986860953271389 -0.34565157257020473 0.6095403339713812
v -0.6519517861306667 -0.22991073783487082 0.617216108366847
v -0.6519517861306667 -0.22991073783487082 0.5038665141910315
v -0.6519517861306667 -0.22991073783487082 0.3905168967321515
v -0.6519517861306667 -0.22991073783487082 0.27716727927327156
v -0.6519517861306667 -0.22991073783487082 0.1638176618143916
v -0.6519517861306667 -0.22991073783487082 0.05046805017627776
v -0.6519517861306667 -0.22991073783487082 -0.0628815614618361
v -0.6519517861306667 -0.22991073783487082 -0.17623117892071605
v -0.6519517861306667 -0.22991073783487082 -0.2895807847380638
v -0.6519517861306667 -0.22991073783487082 -0.4029304254800081
v -0.5747975781559944 -0.38406746461987495 -0.3952546510845423
v -0.48882514238357544 -0.48882514238357544 -0.3952546510845423
v -0.38406746461987495 -0.5747975781559944 -0.3952546510845423
v -0.26455025654286146 -0.6386808585375547 -0.3952546510845423
v -0.13486655661836267 -0.6780199706554413 -0.3952546510845423
v -8.786707031690448e-16 -0.6913031451404095 -0.3952546510845423
v 0.13486655661836267 -0.6780199706554413 -0.3952546510845423
v 0.26455025654286146 -0.6386808585375547 -0.3952546510845423
v 0.38406746461987495 -0.5747975781559944 -0.3952546510845423
v 0.48882514238357544 -0.48882514238357544 -0.3952546510845423
v 0.5747975781559944 -0.38406746461987495 -0.3952546510845423
v 0.6038195919245481 -0.3366035409271717 0.5038665141910315
v 0.6038195919245481 -0.3366035409271717 0.3905168967321515
v 0.6038195919245481 -0.3366035409271717 0.27716727927327156
v 0.6038195919245481 -0.3366035409271717 0.1638176618143916
v 0.6038195919245481 -0.3366035409271717 0.05046805017627776
v 0.6038195919245481 -0.3366035409271717 -0.0628815614618361
v 0.6038195919245481 -0.3366035409271717 -0.17623117892071605
v 0.6038195919245481 -0.3366035409271717 -0.2895807847380638
v 0.5295689217746258 -0.4443611018359661 0.4923528525978327
v 0.4443611018359661 -0.5295689217746258 0.4923528525978327
v 0.34565157257020473 -0.5986860953271389 0.4923528525978327
v 0.23643961176276207 -0.6496124900877476 0.4923528525978327
v 0.12004353338852525 -0.6808007135987282 0.4923528525978327
v 4.233010964751567e-17 -0.6913031451404095 0.4923528525978327
v -0.12004353338852525 -0.6808007135987282 0.4923528525978327
v -0.23643961176276207 -0.6496124900877476 0.4923528525978327
v -0.34565157257020473 -0.5986860953271389 0.4923528525978327
v -0.4443611018359661 -0.5295689217746258 0.4923528525978327
v -0.5295689217746258 -0.4443611018359661 0.4923528525978327
v -0.6038195919245481 -0.3366035409271717 0.5038665141910315
v -0.6038195919245481 -0.3366035409271717 0.3905168967321515
v -0.6038195919245481 -0.3366035409271717 0.27716727927327156
v -0.6038195919245481 -0.3366035409271717 0.1638176618143916
v -0.6038195919245481 -0.3366035409271717 0.05046805017627776
v -0.6038195919245481 -0.3366035409271717 -0.0628815614618361
v -0.6038195919245481 -0.3366035409271717 -0.17623117892071605
v -0.6038195919245481 -0.3366035409271717 -0.2895807847380638
v -0.48882514238357544 -0.48882514238357544 -0.27806712314486504
v -0.38406746461987495 -0.5747975781559944 -0.27806712314486504
v -0.26455025654286146 -0.6386808585375547 -0.27806712314486504
v -0.13486655661836267 -0.6780199706554413 -0.27806712314486504
v -8.786707031690448e-16 -0.6913031451404095 -0.27806712314486504
v 0.13486655661836267 -0.6780199706554413 -0.27806712314486504
v 0.26455025654286146 -0.6386808585375547 -0.27806712314486504
v 0.38406746461987495 -0.5747975781559944 -0.27806712314486504
v 0.48882514238357544 -0.48882514238357544 -0.27806712314486504
v 0.5383776500821114 -0.43364684097468853 0.3905168967321515
v 0.5383776500821114 -0.43364684097468853 0.27716727927327156
v 0.5383776500821114 -0.43364684097468853 0.1638176618143916
v 0.5383776500821114 -0.43364684097468853 0.05046805017627776
v 0.5383776500821114 -0.43364684097468853 -0.0628815614618361
v 0.5383776500821114 -0.43364684097468853 -0.17623117892071605
v 0.4443611018359661 -0.5295689217746258 0.3751653479412198
v 0.34565157257020473 -0.5986860953271389 0.3751653479412198
v 0.23643961176276207 -0.6496124900877476 0.3751653479412198
v 0.12004353338852525 -0.6808007135987282 0.3751653479412198
v 4.233010964751567e-17 -0.6913031451404095 0.3751653479412198
v -0.12004353338852525 -0.6808007135987282 0.3751653479412198
v -0.23643961176276207 -0.6496124900877476 0.3751653479412198
v -0.34565157257020473 -0.5986860953271389 0.3751653479412198
v -0.4443611018359661 -0.5295689217746258 0.3751653479412198
v -0.5383776500821114 -0.43364684097468853 0.3905168967321515
v -0.5383776500821114 -0.43364684097468853 0.27716727927327156
v -0.5383776500821114 -0.43364684097468853 0.1638176618143916
v -0.5383776500821114 -0.43364684097468853 0.05046805017627776
v -0.5383776500821114 -0.43364684097468853 -0.0628815614618361
v -0.5383776500821114 -0.43364684097468853 -0.17623117892071605
v -0.4575018770992756 -0.5182587075978518 -0.17623117892071605
v -0.38406746461987495 -0.5747975781559944 -0.16087963012978435
v -0.26455025654286146 -0.6386808585375547 -0.16087963012978435
v -0.13486655661836267 -0.6780199706554413 -0.16087963012978435
v -8.786707031690448e-16 -0.6913031451404095 -0.16087963012978435
v 0.13486655661836267 -0.6780199706554413 -0.16087963012978435
v 0.26455025654286146 -0.6386808585375547 -0.16087963012978435
v 0.38406746461987495 -0.5747975781559944 -0.16087963012978435
v 0.4575018770992756 -0.5182587075978518 -0.17623117892071605
v 0.4575018770992756 -0.5182587075978518 0.27716727927327156
v 0.4575018770992756 -0.5182587075978518 0.1638176618143916
v 0.4575018770992756 -0.5182587075978518 0.05046805017627776
v 0.4575018770992756 -0.5182587075978518 -0.0628815614618361
v 0.34565157257020473 -0.5986860953271389 0.25797784328460693
v 0.23643961176276207 -0.6496124900877476 0.25797784328460693
v 0.12004353338852525 -0.6808007135987282 0.25797784328460693
v 4.233010964751567e-17 -0.6913031451404095 0.25797784328460693
v -0.12004353338852525 -0.6808007135987282 0.25797784328460693
v -0.23643961176276207 -0.6496124900877476 0.25797784328460693
v -0.34565157257020473 -0.5986860953271389 0.25797784328460693
v -0.4575018770992756 -0.5182587075978518 0.27716727927327156
v -0.4575018770992756 -0.5182587075978518 0.1638176618143916
v -0.4575018770992756 -0.5182587075978518 0.05046805017627776
v -0.4575018770992756 -0.5182587075978518 -0.0628815614618361
v -0.38406746461987495 -0.5747975781559944 -0.04369212838355452
v -0.26455025654286146 -0.6386808585375547 -0.04369212838355452
v -0.13486655661836267 -0.6780199706554413 -0.04369212838355452
v -8.786707031690448e-16 -0.6913031451404095 -0.04369212838355452
v 0.13486655661836267 -0.6780199706554413 -0.04369212838355452
v 0.26455025654286146 -0.6386808585375547 -0.04369212838355452
v 0.38406746461987495 -0.5747975781559944 -0.04369212838355452
v 0.36351082380861044 -0.5880135577172041 0.1638176618143916
v 0.36351082380861044 -0.5880135577172041 0.05046805017627776
v 0.23643961176276207 -0.6496124900877476 0.14079033862799406
v 0.12004353338852525 -0.6808007135987282 0.14079033862799406
v 4.233010964751567e-17 -0.6913031451404095 0.14079033862799406
v -0.12004353338852525 -0.6808007135987282 0.14079033862799406
v -0.23643961176276207 -0.6496124900877476 0.14079033862799406
v -0.36351082380861044 -0.5880135577172041 0.1638176618143916
v -0.36351082380861044 -0.5880135577172041 0.05046805017627776
v -0.2590989228338003 -0.6409117020666599 0.05046805017627776
v -0.14725939836353064 -0.6754366680979729 0.05046805017627776
v 0.03119835746474564 -0.6905988324433565 0.05046805017627776
v 0.14725939836353064 -0.6754366680979729 0.05046805017627776
v 0.2590989228338003 -0.6409117020666599 0.05046805017627776
v -0.6281852256506681 0.060803559608757496 0.8439153432846069
v -0.6281852256506681 -0.060803559608757496 0.8439153432846069
v -0.6417760625481606 -0.015090579108800739 0.8439153432846069
v -0.6417760625481606 0.015090579108800739 0.8439153432846069
v 0.6281852256506681 -0.060803559608757496 0.8439153432846069
v 0.6281852256506681 0.060803559608757496 0.8439153432846069
v 0.6417760625481606 0.015090579108800739 0.8439153432846069
v 0.6417760625481606 -0.015090579108800739 0.8439153432846069
v -0.6093161646276712 -0.014692216063849628 0.8439153432846069
v -0.6093161646276712 0.014692216063849628 0.8439153432846069
v 0.6093161646276712 0.014692216063849628 0.8439153432846069
v 0.6093161646276712 -0.014692216063849628 0.8439153432846069
v -0.566036207601428 0.014161065337248147 0.8465608581900597
v -0.49096061848104 0.10198733070865273 0.8465608581900597
v -0.45157307758927345 0.19719561096280813 0.8465608581900597
v -0.40442529134452343 0.28150409925729036 0.8465608581900597
v -0.34173564054071903 0.3549945307895541 0.8465608581900597
v -0.26591329369693995 0.41484273970127106 0.8465608581900597
v -0.17987203318625689 0.4587487317621708 0.8465608581900597
v -0.08691840339452028 0.48502529971301556 0.8465608581900597
v 0.009375456284033135 0.4926626104861498 0.8465608581900597
v -0.5418599117547274 0.05443582194857299 0.8465608581900597
v 0.009375456284033135 -0.4926626104861498 0.8465608581900597
v -0.10530902072787285 -0.48136720433831215 0.8465608581900597
v -0.19719561096280813 -0.45157307758927345 0.8465608581900597
v -0.28150409925729036 -0.40442529134452343 0.8465608581900597
v -0.3549945307895541 -0.34173564054071903 0.8465608581900597
v -0.41484273970127106 -0.26591329369693995 0.8465608581900597
v -0.4587487317621708 -0.17987203318625689 0.8465608581900597
v -0.49096061848104 -0.10198733070865273 0.8465608581900597
v -0.5418599117547274 -0.05443582194857299 0.8465608581900597
v -0.566036207601428 -0.014161065337248147 0.8465608581900597
v 0.566036207601428 -0.014161065337248147 0.8465608581900597
v 0.49096061848104 -0.10198733070865273 0.8465608581900597
v 0.45157307758927345 -0.19719561096280813 0.8465608581900597
v 0.40442529134452343 -0.28150409925729036 0.8465608581900597
v 0.34173564054071903 -0.3549945307895541 0.8465608581900597
v 0.26591329369693995 -0.41484273970127106 0.8465608581900597
v 0.17987203318625689 -0.4587487317621708 0.8465608581900597
v 0.10530902072787285 -0.48136720433831215 0.8465608581900597
v 0.5418599117547274 -0.05443582194857299 0.8465608581900597
v 0.10530902072787285 0.48136720433831215 0.8465608581900597
v 0.19719561096280813 0.45157307758927345 0.8465608581900597
v 0.28150409925729036 0.40442529134452343 0.8465608581900597
v 0.3549945307895541 0.34173564054071903 0.8465608581900597
v 0.41484273970127106 0.26591329369693995 0.8465608581900597
v 0.4587487317621708 0.17987203318625689 0.8465608581900597
v 0.49096061848104 0.10198733070865273 0.8465608581900597
v 0.5418599117547274 0.05443582194857299 0.8465608581900597
v 0.566036207601428 0.014161065337248147 0.8465608581900597
v -0.47711594961583614 0.049660023069009185 0.8465608581900597
v -0.48336246982216835 -0.01496314216637984 0.8465608581900597
v 0.47711594961583614 -0.049660023069009185 0.8465608581900597
v 0.4834239836782217 0.014569403720088303 0.8465608581900597
v -0.53357626311481 -0.013762700837105513 0.8465608581900597
v -0.53357626311481 0.013762700837105513 0.8465608581900597
v 0.53357626311481 -0.013762700837105513 0.8465608581900597
v 0.53357626311481 0.013762700837105513 0.8465608581900597
v -0.26401958893984556 0.07407812518067658 0.9999999776482582
v -0.17921548569574952 0.13184536946937442 0.9999999776482582
v -0.27346573770046234 -0.02025846333708614 0.9999999776482582
v -0.17921548569574952 -0.13184536946937442 0.9999999776482582
v -0.05973849329166114 -0.13184536946937442 0.9999999776482582
v 0.05973849329166114 -0.13184536946937442 0.9999999776482582
v 0.17921548569574952 -0.13184536946937442 0.9999999776482582
v 0.26401958893984556 -0.07407812518067658 0.9999999776482582
v 0.27346573770046234 0.02025846333708614 0.9999999776482582
v 0.17921548569574952 0.13184536946937442 0.9999999776482582
v 0.05973849329166114 0.13184536946937442 0.9999999776482582
v -0.05973849329166114 0.13184536946937442 0.9999999776482582
v -0.17921548569574952 -0.014657873543910682 0.9999999776482582
v -0.05973849329166114 -0.014657873543910682 0.9999999776482582
v 0.05973849329166114 -0.014657873543910682 0.9999999776482582
v 0.17921548569574952 -0.014657873543910682 0.9999999776482582
v -0.10884911753237247 0.14981796266511083 -0.723521551117301
v -0.176121573895216 0.0572253717109561 -0.723521551117301
v -0.176121573895216 -0.0572253717109561 -0.723521551117301
v -0.10884911753237247 -0.14981796266511083 -0.723521551117301
v -0.0572253717109561 0.176121573895216 -0.8056140504777431
v -0.0572253717109561 0.176121573895216 -0.8995059877634048
v -0.176121573895216 -0.0572253717109561 -0.8928805589675903
v -0.10930789867416024 -0.14948357129469514 -0.867724884301424
v -0.0572253717109561 -0.176121573895216 -0.8995059877634048
v -0.176121573895216 0.0572253717109561 -0.8928805589675903
v -0.10930789867416024 0.14948357129469514 -0.867724884301424
v -0.0572253717109561 -0.176121573895216 -0.8056140504777431
v -0.176121573895216 0.0572253717109561 -0.817413441836834
v -0.176121573895216 -0.0572253717109561 -0.817413441836834
v 0.0 0.13516767648980021 -0.7486772257834673
v 0.0 0.08454024791717529 -0.9610510431230068
v 0.0 0.09761583642102778 -0.9294837713241577
v 0.0 0.14364590169861913 -0.8183573372662067
v 0.0 0.13516767648980021 -0.867724884301424
v 0.0 0.08016746141947806 -0.9809611365199089
v 0.0 0.14623620081692934 -0.9815973229706287
v 0.0 0.1012123073451221 -0.9722440503537655
v 0.0 0.16614629421383142 -0.9859700687229633
v 0.0 0.15742924297228456 -0.9649252519011497
v 0.0 0.13516767648980021 -0.927248690277338
v 0.0 0.1327795791439712 -0.9591684676706791
v -0.01538606156827882 -0.06830024649389088 -0.9961257688701153
v -0.04950583097524941 -0.04950583097524941 -0.9961257688701153
v -0.06468248320743442 -0.026792360586114228 -0.9961257688701153
v -0.07001181365922093 -1.506877713622418e-16 -0.9961257688701153
v -0.06468248320743442 0.026792360586114228 -0.9961257688701153
v -0.04950583097524941 0.04950583097524941 -0.9961257688701153
v -0.01538606156827882 0.06830024649389088 -0.9961257688701153
v -0.015591457486152649 0.18063931493088603 -0.9961257688701153
v -0.05602816236205399 0.17243694746866822 -0.9961257688701153
v -0.0823134439997375 0.1615492277778685 -0.9961257688701153
v -0.14668363146483898 0.10657189413905144 -0.9961257688701153
v -0.17243694746866822 0.05602816236205399 -0.9961257688701153
v -0.18131093820556998 -1.1102229998097382e-16 -0.9961257688701153
v -0.17243694746866822 -0.05602816236205399 -0.9961257688701153
v -0.14668363146483898 -0.10657189413905144 -0.9961257688701153
v -0.10657189413905144 -0.14668363146483898 -0.9961257688701153
v -0.0823134439997375 -0.1615492277778685 -0.9961257688701153
v -0.05602816236205399 -0.17243694746866822 -0.9961257688701153
v -0.015591457486152649 -0.18063931493088603 -0.9961257688701153
v -0.10657189413905144 0.14668363146483898 -0.9961257688701153
v -0.046766322338953614 -0.046766322338953614 -0.7002446334809065
v -0.06613756413571537 -1.1102229998097382e-16 -0.7002446334809065
v -0.046766322338953614 0.046766322338953614 -0.7002446334809065
v -0.03365416778251529 -0.056934828171506524 -0.80820107832551
v -0.03365416778251529 -0.056934828171506524 -0.7486772257834673
v -0.03365416778251529 -0.056934828171506524 -0.867724884301424
v -0.046766322338953614 -0.046766322338953614 -0.9161574766039848
v -0.046766322338953614 0.046766322338953614 -0.9161574766039848
v -0.06613756413571537 -1.1102229998097382e-16 -0.9161574766039848
v -0.03365416778251529 0.056934828171506524 -0.80820107832551
v -0.03365416778251529 0.056934828171506524 -0.867724884301424
v -0.03365416778251529 0.056934828171506524 -0.7486772257834673
v -0.05794268799945712 -0.03188765258528292 -0.7486772257834673
v -0.05794268799945712 0.03188765258528292 -0.7486772257834673
v -0.05794268799945712 -0.03188765258528292 -0.867724884301424
v -0.05794268799945712 0.03188765258528292 -0.867724884301424
v 0.0 -0.1161550753749907 -0.7486772257834673
v 0.0 -0.16678250394761562 -0.9610510431230068
v 0.0 -0.15370690962299705 -0.9294837713241577
v 0.0 -0.10767685016617179 -0.8183573372662067
v 0.0 -0.1161550753749907 -0.867724884301424
v 0.0 -0.17115528462454677 -0.9809611365199089
v 0.0 -0.10508655104786158 -0.9815973229706287
v 0.0 -0.15011044451966882 -0.9722440503537655
v 0.0 -0.0851764518301934 -0.9859700687229633
v 0.0 -0.1161550753749907 -0.927248690277338
v 0.0 -0.09389351471327245 -0.9649252519011497
v 0.0 -0.11854317272081971 -0.9591684676706791
v 0.6813942920416594 0.11662705801427364 0.7305657491087914
v 0.6813942920416594 0.11662705801427364 0.617216108366847
v 0.6813942920416594 0.11662705801427364 0.5038665141910315
v 0.6813942920416594 0.11662705801427364 0.3905168967321515
v 0.6813942920416594 0.11662705801427364 0.27716727927327156
v 0.6813942920416594 0.11662705801427364 0.1638176618143916
v 0.6813942920416594 0.11662705801427364 0.05046805017627776
v 0.6813942920416594 0.11662705801427364 -0.0628815614618361
v 0.6813942920416594 0.11662705801427364 -0.17623117892071605
v 0.6813942920416594 0.11662705801427364 -0.2895807847380638
v 0.6813942920416594 0.11662705801427364 -0.4029304254800081
v 0.6813942920416594 0.11662705801427364 -0.5162800196558237
v 0.6386808585375547 0.26455025654286146 -0.5124421324580908
v 0.5747975781559944 0.38406746461987495 -0.5124421324580908
v 0.48882514238357544 0.48882514238357544 -0.5124421324580908
v 0.38406746461987495 0.5747975781559944 -0.5124421324580908
v 0.26455025654286146 0.6386808585375547 -0.5124421324580908
v 0.13486655661836267 0.6780199706554413 -0.5124421324580908
v 5.028305212256747e-16 0.6913031451404095 -0.5124421324580908
v -0.13486655661836267 0.6780199706554413 -0.5124421324580908
v -0.26455025654286146 0.6386808585375547 -0.5124421324580908
v -0.38406746461987495 0.5747975781559944 -0.5124421324580908
v -0.48882514238357544 0.48882514238357544 -0.5124421324580908
v -0.5747975781559944 0.38406746461987495 -0.5124421324580908
v -0.6386808585375547 0.26455025654286146 -0.5124421324580908
v -0.6813942920416594 0.11662705801427364 -0.5162800196558237
v -0.6813942920416594 0.11662705801427364 0.7305657491087914
v -0.6813942920416594 0.11662705801427364 0.617216108366847
v -0.6813942920416594 0.11662705801427364 0.5038665141910315
v -0.6813942920416594 0.11662705801427364 0.3905168967321515
v -0.6813942920416594 0.11662705801427364 0.27716727927327156
v -0.6813942920416594 0.11662705801427364 0.1638176618143916
v -0.6813942920416594 0.11662705801427364 0.05046805017627776
v -0.6813942920416594 0.11662705801427364 -0.0628815614618361
v -0.6813942920416594 0.11662705801427364 -0.17623117892071605
v -0.6813942920416594 0.11662705801427364 -0.2895807847380638
v -0.6813942920416594 0.11662705801427364 -0.4029304254800081
v -0.6496124900877476 0.23643961176276207 0.7267278619110584
v -0.5986860953271389 0.34565157257020473 0.7267278619110584
v -0.5295689217746258 0.4443611018359661 0.7267278619110584
v -0.4443611018359661 0.5295689217746258 0.7267278619110584
v -0.34565157257020473 0.5986860953271389 0.7267278619110584
v -0.23643961176276207 0.6496124900877476 0.7267278619110584
v -0.12004353338852525 0.6808007135987282 0.7267278619110584
v 4.233010964751567e-17 0.6913031451404095 0.7267278619110584
v 0.12004353338852525 0.6808007135987282 0.7267278619110584
v 0.23643961176276207 0.6496124900877476 0.7267278619110584
v 0.34565157257020473 0.5986860953271389 0.7267278619110584
v 0.4443611018359661 0.5295689217746258 0.7267278619110584
v 0.5295689217746258 0.4443611018359661 0.7267278619110584
v 0.5986860953271389 0.34565157257020473 0.7267278619110584
v 0.6496124900877476 0.23643961176276207 0.7267278619110584
v 0.6519517861306667 0.22991073783487082 0.617216108366847
v 0.6519517861306667 0.22991073783487082 0.5038665141910315
v 0.6519517861306667 0.22991073783487082 0.3905168967321515
v 0.6519517861306667 0.22991073783487082 0.27716727927327156
v 0.6519517861306667 0.22991073783487082 0.1638176618143916
v 0.6519517861306667 0.22991073783487082 0.05046805017627776
v 0.6519517861306667 0.22991073783487082 -0.0628815614618361
v 0.6519517861306667 0.22991073783487082 -0.17623117892071605
v 0.6519517861306667 0.22991073783487082 -0.2895807847380638
v 0.6519517861306667 0.22991073783487082 -0.4029304254800081
v 0.5747975781559944 0.38406746461987495 -0.3952546510845423
v 0.48882514238357544 0.48882514238357544 -0.3952546510845423
v 0.38406746461987495 0.5747975781559944 -0.3952546510845423
v 0.26455025654286146 0.6386808585375547 -0.3952546510845423
v 0.13486655661836267 0.6780199706554413 -0.3952546510845423
v 5.028305212256747e-16 0.6913031451404095 -0.3952546510845423
v -0.13486655661836267 0.6780199706554413 -0.3952546510845423
v -0.26455025654286146 0.6386808585375547 -0.3952546510845423
v -0.38406746461987495 0.5747975781559944 -0.3952546510845423
v -0.48882514238357544 0.48882514238357544 -0.3952546510845423
v -0.5747975781559944 0.38406746461987495 -0.3952546510845423
v -0.6519517861306667 0.22991073783487082 -0.4029304254800081
v -0.6519517861306667 0.22991073783487082 0.617216108366847
v -0.6519517861306667 0.22991073783487082 0.5038665141910315
v -0.6519517861306667 0.22991073783487082 0.3905168967321515
v -0.6519517861306667 0.22991073783487082 0.27716727927327156
v -0.6519517861306667 0.22991073783487082 0.1638176618143916
v -0.6519517861306667 0.22991073783487082 0.05046805017627776
v -0.6519517861306667 0.22991073783487082 -0.0628815614618361
v -0.6519517861306667 0.22991073783487082 -0.17623117892071605
v -0.6519517861306667 0.22991073783487082 -0.2895807847380638
v -0.5986860953271389 0.34565157257020473 0.6095403339713812
v -0.5295689217746258 0.4443611018359661 0.6095403339713812
v -0.4443611018359661 0.5295689217746258 0.6095403339713812
v -0.34565157257020473 0.5986860953271389 0.6095403339713812
v -0.23643961176276207 0.6496124900877476 0.6095403339713812
v -0.12004353338852525 0.6808007135987282 0.6095403339713812
v 4.233010964751567e-17 0.6913031451404095 0.6095403339713812
v 0.12004353338852525 0.6808007135987282 0.6095403339713812
v 0.23643961176276207 0.6496124900877476 0.6095403339713812
v 0.34565157257020473 0.5986860953271389 0.6095403339713812
v 0.4443611018359661 0.5295689217746258 0.6095403339713812
v 0.5295689217746258 0.4443611018359661 0.6095403339713812
v 0.5986860953271389 0.34565157257020473 0.6095403339713812
v 0.6038195919245481 0.3366035409271717 0.5038665141910315
v 0.6038195919245481 0.3366035409271717 0.3905168967321515
v 0.6038195919245481 0.3366035409271717 0.27716727927327156
v 0.6038195919245481 0.3366035409271717 0.1638176618143916
v 0.6038195919245481 0.3366035409271717 0.05046805017627776
v 0.6038195919245481 0.3366035409271717 -0.0628815614618361
v 0.6038195919245481 0.3366035409271717 -0.17623117892071605
v 0.6038195919245481 0.3366035409271717 -0.2895807847380638
v 0.48882514238357544 0.48882514238357544 -0.27806712314486504
v 0.38406746461987495 0.5747975781559944 -0.27806712314486504
v 0.26455025654286146 0.6386808585375547 -0.27806712314486504
v 0.13486655661836267 0.6780199706554413 -0.27806712314486504
v 5.028305212256747e-16 0.6913031451404095 -0.27806712314486504
v -0.13486655661836267 0.6780199706554413 -0.27806712314486504
v -0.26455025654286146 0.6386808585375547 -0.27806712314486504
v -0.38406746461987495 0.5747975781559944 -0.27806712314486504
v -0.48882514238357544 0.48882514238357544 -0.27806712314486504
v -0.6038195919245481 0.3366035409271717 -0.2895807847380638
v -0.6038195919245481 0.3366035409271717 0.5038665141910315
v -0.6038195919245481 0.3366035409271717 0.3905168967321515
v -0.6038195919245481 0.3366035409271717 0.27716727927327156
v -0.6038195919245481 0.3366035409271717 0.1638176618143916
v -0.6038195919245481 0.3366035409271717 0.05046805017627776
v -0.6038195919245481 0.3366035409271717 -0.0628815614618361
v -0.6038195919245481 0.3366035409271717 -0.17623117892071605
v -0.5295689217746258 0.4443611018359661 0.4923528525978327
v -0.4443611018359661 0.5295689217746258 0.4923528525978327
v -0.34565157257020473 0.5986860953271389 0.4923528525978327
v -0.23643961176276207 0.6496124900877476 0.4923528525978327
v -0.12004353338852525 0.6808007135987282 0.4923528525978327
v 4.233010964751567e-17 0.6913031451404095 0.4923528525978327
v 0.12004353338852525 0.6808007135987282 0.4923528525978327
v 0.23643961176276207 0.6496124900877476 0.4923528525978327
v 0.34565157257020473 0.5986860953271389 0.4923528525978327
v 0.4443611018359661 0.5295689217746258 0.4923528525978327
v 0.5295689217746258 0.4443611018359661 0.4923528525978327
v 0.5383776500821114 0.43364684097468853 0.3905168967321515
v 0.5383776500821114 0.43364684097468853 0.27716727927327156
v 0.5383776500821114 0.43364684097468853 0.1638176618143916
v 0.5383776500821114 0.43364684097468853 0.05046805017627776
v 0.5383776500821114 0.43364684097468853 -0.0628815614618361
v 0.5383776500821114 0.43364684097468853 -0.17623117892071605
v 0.4575018770992756 0.5182587075978518 -0.17623117892071605
v 0.38406746461987495 0.5747975781559944 -0.16087963012978435
v 0.26455025654286146 0.6386808585375547 -0.16087963012978435
v 0.13486655661836267 0.6780199706554413 -0.16087963012978435
v 5.028305212256747e-16 0.6913031451404095 -0.16087963012978435
v -0.13486655661836267 0.6780199706554413 -0.16087963012978435
v -0.26455025654286146 0.6386808585375547 -0.16087963012978435
v -0.38406746461987495 0.5747975781559944 -0.16087963012978435
v -0.4575018770992756 0.5182587075978518 -0.17623117892071605
v -0.5383776500821114 0.43364684097468853 -0.17623117892071605
v -0.5383776500821114 0.43364684097468853 0.3905168967321515
v -0.5383776500821114 0.43364684097468853 0.27716727927327156
v -0.5383776500821114 0.43364684097468853 0.1638176618143916
v -0.5383776500821114 0.43364684097468853 0.05046805017627776
v -0.5383776500821114 0.43364684097468853 -0.0628815614618361
v -0.4443611018359661 0.5295689217746258 0.3751653479412198
v -0.34565157257020473 0.5986860953271389 0.3751653479412198
v -0.23643961176276207 0.6496124900877476 0.3751653479412198
v -0.12004353338852525 0.6808007135987282 0.3751653479412198
v 4.233010964751567e-17 0.6913031451404095 0.3751653479412198
v 0.12004353338852525 0.6808007135987282 0.3751653479412198
v 0.23643961176276207 0.6496124900877476 0.3751653479412198
v 0.34565157257020473 0.5986860953271389 0.3751653479412198
v 0.4443611018359661 0.5295689217746258 0.3751653479412198
v 0.4575018770992756 0.5182587075978518 0.27716727927327156
v 0.4575018770992756 0.5182587075978518 0.1638176618143916
v 0.4575018770992756 0.5182587075978518 0.05046805017627776
v 0.4575018770992756 0.5182587075978518 -0.0628815614618361
v 0.38406746461987495 0.5747975781559944 -0.04369212838355452
v 0.26455025654286146 0.6386808585375547 -0.04369212838355452
v 0.13486655661836267 0.6780199706554413 -0.04369212838355452
v 5.028305212256747e-16 0.6913031451404095 -0.04369212838355452
v -0.13486655661836267 0.6780199706554413 -0.04369212838355452
v -0.26455025654286146 0.6386808585375547 -0.04369212838355452
v -0.38406746461987495 0.5747975781559944 -0.04369212838355452
v -0.4575018770992756 0.5182587075978518 -0.0628815614618361
v -0.4575018770992756 0.5182587075978518 0.27716727927327156
v -0.4575018770992756 0.5182587075978518 0.1638176618143916
v -0.4575018770992756 0.5182587075978518 0.05046805017627776
v -0.34565157257020473 0.5986860953271389 0.25797784328460693
v -0.23643961176276207 0.6496124900877476 0.25797784328460693
v -0.12004353338852525 0.6808007135987282 0.25797784328460693
v 4.233010964751567e-17 0.6913031451404095 0.25797784328460693
v 0.12004353338852525 0.6808007135987282 0.25797784328460693
v 0.23643961176276207 0.6496124900877476 0.25797784328460693
v 0.34565157257020473 0.5986860953271389 0.25797784328460693
v 0.36351082380861044 0.5880135577172041 0.1638176618143916
v 0.36351082380861044 0.5880135577172041 0.05046805017627776
v 0.2590989228338003 0.6409117020666599 0.05046805017627776
v 0.14725939836353064 0.6754366680979729 0.05046805017627776
v 0.03119835746474564 0.6905988324433565 0.05046805017627776
v -0.14725939836353064 0.6754366680979729 0.05046805017627776
v -0.2590989228338003 0.6409117020666599 0.05046805017627776
v -0.36351082380861044 0.5880135577172041 0.05046805017627776
v -0.36351082380861044 0.5880135577172041 0.1638176618143916
v -0.23643961176276207 0.6496124900877476 0.14079033862799406
v -0.12004353338852525 0.6808007135987282 0.14079033862799406
v 4.233010964751567e-17 0.6913031451404095 0.14079033862799406
v 0.12004353338852525 0.6808007135987282 0.14079033862799406
v 0.23643961176276207 0.6496124900877476 0.14079033862799406
v 0.28544238302856684 -0.017641334852669388 -0.6296296138316393
v 0.26602037250995636 0.10498445481061935 -0.6296296138316393
v 0.22055841982364655 0.18205096712335944 -0.6296296138316393
v 0.07142864051274955 0.27692331932485104 -0.6296296138316393
v 0.11277140583842993 0.18518518190830946 -0.6296296138316393
v 0.10498445481061935 -0.26602037250995636 -0.6296296138316393
v -0.0348482804838568 -0.29243717435747385 -0.6296296138316393
v 0.22055841982364655 -0.18205096712335944 -0.6296296138316393
v 0.26602037250995636 -0.10498445481061935 -0.6296296138316393
v -0.2888929797336459 -0.0572253717109561 -0.6296296138316393
v -0.26735556311905384 0.12351074256002903 -0.6296296138316393
v -0.20008310675621033 -0.21610332187265158 -0.6296296138316393
v -0.0348482804838568 0.29243717435747385 -0.6296296138316393
v -0.14369740383699536 0.25706994347274303 -0.6296296138316393
v 0.11277140583842993 0.06613756413571537 -0.6296296138316393
v 0.11277140583842993 -0.18518518190830946 -0.6296296138316393
v 0.11277140583842993 -0.06613756413571537 -0.6296296138316393
v 0.029056865605525672 0.0040119160985341296 -0.6296296138316393
v 0.18136181170120835 0.02273762656841427 -0.6296296138316393
v -0.5595332942903042 -0.18540272722020745 -0.6825396791100502
v -0.40988107211887836 -0.33505496103316545 -0.6825396791100502
v -0.48470720648765564 -0.26022884994745255 -0.6825396791100502
v -0.33505496103316545 -0.40988107211887836 -0.6825396791100502
v -0.18540272722020745 -0.5595332942903042 -0.6825396791100502
v -0.26022884994745255 -0.48470720648765564 -0.6825396791100502
v -0.5267493426799774 0.1587301609106362 -0.6825396791100502
v -0.5267493426799774 0.26455025654286146 -0.6825396791100502
v -0.5267493426799774 0.05291005363687873 -0.6825396791100502
v -0.5267493426799774 -0.05291005363687873 -0.6825396791100502
v -0.18540272722020745 0.5595332942903042 -0.6825396791100502
v -0.33505496103316545 0.40988107211887836 -0.6825396791100502
v -0.26022884994745255 0.48470720648765564 -0.6825396791100502
v -0.40988107211887836 0.33505496103316545 -0.6825396791100502
v 0.1587301609106362 0.5267493426799774 -0.6825396791100502
v 0.26455025654286146 0.5267493426799774 -0.6825396791100502
v 0.05291005363687873 0.5267493426799774 -0.6825396791100502
v -0.05291005363687873 0.5267493426799774 -0.6825396791100502
v 0.5595332942903042 0.18540272722020745 -0.6825396791100502
v 0.40988107211887836 0.33505496103316545 -0.6825396791100502
v 0.48470720648765564 0.26022884994745255 -0.6825396791100502
v 0.33505496103316545 0.40988107211887836 -0.6825396791100502
v 0.5267493426799774 -0.1587301609106362 -0.6825396791100502
v 0.5267493426799774 -0.26455025654286146 -0.6825396791100502
v 0.5267493426799774 -0.05291005363687873 -0.6825396791100502
v 0.5267493426799774 0.05291005363687873 -0.6825396791100502
v 0.18540272722020745 -0.5595332942903042 -0.6825396791100502
v 0.33505496103316545 -0.40988107211887836 -0.6825396791100502
v 0.26022884994745255 -0.48470720648765564 -0.6825396791100502
v 0.40988107211887836 -0.33505496103316545 -0.6825396791100502
v -0.05291005363687873 -0.5267493426799774 -0.6825396791100502
v 0.05291005363687873 -0.5267493426799774 -0.6825396791100502
v 0.4879568237811327 0.1401357352733612 -0.6825396791100502
v -0.1401357352733612 0.4879568237811327 -0.6825396791100502
v -0.4879568237811327 -0.1401357352733612 -0.6825396791100502
v -0.17344163497909904 -0.4771350882947445 -0.6825396791100502
v 0.1401357352733612 -0.4879568237811327 -0.6825396791100502
f 1 2 87 
f 72 3 6 
f 73 72 84 
f 74 73 85 
f 75 74 86 
f 2 75 87 
f 76 4 5 
f 77 76 80 
f 78 77 81 
f 79 78 82 
f 3 79 83 
f 5 80 76 
f 80 81 77 
f 81 82 78 
f 82 83 79 
f 83 6 3 
f 6 84 72 
f 84 85 73 
f 85 86 74 
f 86 87 75 
f 2 1 298 
f 298 299 354 
f 299 300 355 
f 300 301 356 
f 301 62 68 
f 62 294 68 
f 294 295 350 
f 295 296 351 
f 296 297 352 
f 297 5 4 
f 350 68 294 
f 351 350 295 
f 352 351 296 
f 353 352 297 
f 4 353 297 
f 354 2 298 
f 355 354 299 
f 356 355 300 
f 357 356 301 
f 68 357 301 
f 8 406 88 
f 88 406 89 
f 89 407 90 
f 90 408 91 
f 91 409 92 
f 92 410 93 
f 93 411 94 
f 94 412 95 
f 95 413 96 
f 96 414 97 
f 97 415 98 
f 98 416 99 
f 99 417 7 
f 100 406 8 
f 101 406 100 
f 102 418 101 
f 103 419 102 
f 104 420 103 
f 105 421 104 
f 106 422 105 
f 107 423 106 
f 9 424 107 
f 108 425 9 
f 109 426 108 
f 110 427 109 
f 111 428 110 
f 112 429 111 
f 113 430 112 
f 114 431 113 
f 115 433 114 
f 10 433 115 
f 116 433 10 
f 117 433 116 
f 118 434 117 
f 119 435 118 
f 120 436 119 
f 121 437 120 
f 122 438 121 
f 123 439 122 
f 124 440 123 
f 125 441 124 
f 126 442 125 
f 127 443 126 
f 11 444 127 
f 128 444 11 
f 12 445 128 
f 129 445 12 
f 13 446 129 
f 130 447 13 
f 14 448 130 
f 131 449 14 
f 15 450 131 
f 132 451 15 
f 16 452 132 
f 133 453 16 
f 17 454 133 
f 134 455 17 
f 18 456 134 
f 135 457 18 
f 7 417 135 
f 406 407 89 
f 407 408 90 
f 408 409 91 
f 409 410 92 
f 410 411 93 
f 411 412 94 
f 412 413 95 
f 413 414 96 
f 414 415 97 
f 415 416 98 
f 416 417 99 
f 101 418 406 
f 102 419 418 
f 103 420 419 
f 104 421 420 
f 105 422 421 
f 106 423 422 
f 107 424 423 
f 9 425 424 
f 108 426 425 
f 109 427 426 
f 110 428 427 
f 111 429 428 
f 112 430 429 
f 113 431 430 
f 114 432 431 
f 433 432 114 
f 117 434 433 
f 118 435 434 
f 119 436 435 
f 120 437 436 
f 121 438 437 
f 122 439 438 
f 123 440 439 
f 124 441 440 
f 125 442 441 
f 126 443 442 
f 127 444 443 
f 128 445 444 
f 129 446 445 
f 13 447 446 
f 130 448 447 
f 14 449 448 
f 131 450 449 
f 15 451 450 
f 132 452 451 
f 16 453 452 
f 133 454 453 
f 17 455 454 
f 134 456 455 
f 18 457 456 
f 135 417 457 
f 406 458 407 
f 407 458 408 
f 408 459 409 
f 409 460 410 
f 410 461 411 
f 411 462 412 
f 412 463 413 
f 413 464 414 
f 414 465 415 
f 415 466 416 
f 416 467 417 
f 418 458 406 
f 419 468 418 
f 420 468 419 
f 421 469 420 
f 422 470 421 
f 423 471 422 
f 424 472 423 
f 425 473 424 
f 426 474 425 
f 427 475 426 
f 428 476 427 
f 429 477 428 
f 430 478 429 
f 431 479 430 
f 432 480 431 
f 433 481 432 
f 434 481 433 
f 435 481 434 
f 436 482 435 
f 437 483 436 
f 438 484 437 
f 439 485 438 
f 440 486 439 
f 441 487 440 
f 442 488 441 
f 443 489 442 
f 444 490 443 
f 445 490 444 
f 446 491 445 
f 447 491 446 
f 448 492 447 
f 449 493 448 
f 450 494 449 
f 451 495 450 
f 452 496 451 
f 453 497 452 
f 454 498 453 
f 455 499 454 
f 456 500 455 
f 457 501 456 
f 417 467 457 
f 458 459 408 
f 459 460 409 
f 460 461 410 
f 461 462 411 
f 462 463 412 
f 463 464 413 
f 464 465 414 
f 465 466 415 
f 466 467 416 
f 418 468 458 
f 420 469 468 
f 421 470 469 
f 422 471 470 
f 423 472 471 
f 424 473 472 
f 425 474 473 
f 426 475 474 
f 427 476 475 
f 428 477 476 
f 429 478 477 
f 430 479 478 
f 431 480 479 
f 432 481 480 
f 435 482 481 
f 436 483 482 
f 437 484 483 
f 438 485 484 
f 439 486 485 
f 440 487 486 
f 441 488 487 
f 442 489 488 
f 443 490 489 
f 445 491 490 
f 447 492 491 
f 448 493 492 
f 449 494 493 
f 450 495 494 
f 451 496 495 
f 452 497 496 
f 453 498 497 
f 454 499 498 
f 455 500 499 
f 456 501 500 
f 457 467 501 
f 458 502 459 
f 459 502 460 
f 460 503 461 
f 461 504 462 
f 462 505 463 
f 463 506 464 
f 464 507 465 
f 465 508 466 
f 466 509 467 
f 468 502 458 
f 469 510 468 
f 470 510 469 
f 471 511 470 
f 472 512 471 
f 473 513 472 
f 474 514 473 
f 475 515 474 
f 476 516 475 
f 477 517 476 
f 478 518 477 
f 479 519 478 
f 480 520 479 
f 481 521 480 
f 482 521 481 
f 483 521 482 
f 484 522 483 
f 485 523 484 
f 486 524 485 
f 487 525 486 
f 488 526 487 
f 489 527 488 
f 490 528 489 
f 491 528 490 
f 492 529 491 
f 493 529 492 
f 494 530 493 
f 495 531 494 
f 496 532 495 
f 497 533 496 
f 498 534 497 
f 499 535 498 
f 500 536 499 
f 501 537 500 
f 467 509 501 
f 502 503 460 
f 503 504 461 
f 504 505 462 
f 505 506 463 
f 506 507 464 
f 507 508 465 
f 508 509 466 
f 468 510 502 
f 470 511 510 
f 471 512 511 
f 472 513 512 
f 473 514 513 
f 474 515 514 
f 475 516 515 
f 476 517 516 
f 477 518 517 
f 478 519 518 
f 479 520 519 
f 480 521 520 
f 483 522 521 
f 484 523 522 
f 485 524 523 
f 486 525 524 
f 487 526 525 
f 488 527 526 
f 489 528 527 
f 491 529 528 
f 493 530 529 
f 494 531 530 
f 495 532 531 
f 496 533 532 
f 497 534 533 
f 498 535 534 
f 499 536 535 
f 500 537 536 
f 501 509 537 
f 502 538 503 
f 503 538 504 
f 504 539 505 
f 505 540 506 
f 506 541 507 
f 507 542 508 
f 508 543 509 
f 510 538 502 
f 511 544 510 
f 512 544 511 
f 513 545 512 
f 514 546 513 
f 515 547 514 
f 516 548 515 
f 517 549 516 
f 518 550 517 
f 519 551 518 
f 520 552 519 
f 521 553 520 
f 522 553 521 
f 523 553 522 
f 524 554 523 
f 525 555 524 
f 526 556 525 
f 527 557 526 
f 528 558 527 
f 529 558 528 
f 530 559 529 
f 531 560 530 
f 532 561 531 
f 533 562 532 
f 534 563 533 
f 535 564 534 
f 536 565 535 
f 537 567 536 
f 509 543 537 
f 538 539 504 
f 539 540 505 
f 540 541 506 
f 541 542 507 
f 542 543 508 
f 510 544 538 
f 512 545 544 
f 513 546 545 
f 514 547 546 
f 515 548 547 
f 516 549 548 
f 517 550 549 
f 518 551 550 
f 519 552 551 
f 520 553 552 
f 523 554 553 
f 524 555 554 
f 525 556 555 
f 526 557 556 
f 527 558 557 
f 529 559 558 
f 530 560 559 
f 531 561 560 
f 532 562 561 
f 533 563 562 
f 534 564 563 
f 535 565 564 
f 536 566 565 
f 567 566 536 
f 537 543 567 
f 538 568 539 
f 539 568 540 
f 540 569 541 
f 541 570 542 
f 542 571 543 
f 544 568 538 
f 545 572 544 
f 546 572 545 
f 547 573 546 
f 548 574 547 
f 549 575 548 
f 550 576 549 
f 551 577 550 
f 552 578 551 
f 553 579 552 
f 554 579 553 
f 555 579 554 
f 556 580 555 
f 557 581 556 
f 558 582 557 
f 559 582 558 
f 560 582 559 
f 561 583 560 
f 562 584 561 
f 563 585 562 
f 564 586 563 
f 565 587 564 
f 566 588 565 
f 567 571 566 
f 543 571 567 
f 568 569 540 
f 569 570 541 
f 570 571 542 
f 544 572 568 
f 546 573 572 
f 547 574 573 
f 548 575 574 
f 549 576 575 
f 550 577 576 
f 551 578 577 
f 552 579 578 
f 555 580 579 
f 556 581 580 
f 557 582 581 
f 560 583 582 
f 561 584 583 
f 562 585 584 
f 563 586 585 
f 564 587 586 
f 565 588 587 
f 566 589 588 
f 571 589 566 
f 568 590 569 
f 569 590 570 
f 570 589 571 
f 572 590 568 
f 573 592 572 
f 574 592 573 
f 575 593 574 
f 576 594 575 
f 577 595 576 
f 578 596 577 
f 579 597 578 
f 580 597 579 
f 581 597 580 
f 582 583 581 
f 584 598 583 
f 585 600 584 
f 586 600 585 
f 587 601 586 
f 588 602 587 
f 589 591 588 
f 590 591 570 
f 570 591 589 
f 572 592 590 
f 574 593 592 
f 575 594 593 
f 576 595 594 
f 577 596 595 
f 578 597 596 
f 581 598 597 
f 583 598 581 
f 584 599 598 
f 600 599 584 
f 586 601 600 
f 587 602 601 
f 588 603 602 
f 591 603 588 
f 590 603 591 
f 592 603 590 
f 593 602 592 
f 594 601 593 
f 595 600 594 
f 596 600 595 
f 597 599 596 
f 598 599 597 
f 600 596 599 
f 601 594 600 
f 602 593 601 
f 603 592 602 
f 88 752 8 
f 89 752 88 
f 90 753 89 
f 91 754 90 
f 92 755 91 
f 93 756 92 
f 94 757 93 
f 95 758 94 
f 96 759 95 
f 97 760 96 
f 98 761 97 
f 99 762 98 
f 7 763 99 
f 286 763 7 
f 55 764 286 
f 287 764 55 
f 56 765 287 
f 288 766 56 
f 57 767 288 
f 289 768 57 
f 58 769 289 
f 290 770 58 
f 59 771 290 
f 291 772 59 
f 60 773 291 
f 292 774 60 
f 61 775 292 
f 293 776 61 
f 11 777 293 
f 10 778 116 
f 116 778 117 
f 117 779 118 
f 118 780 119 
f 119 781 120 
f 120 782 121 
f 121 783 122 
f 122 784 123 
f 123 785 124 
f 124 786 125 
f 125 787 126 
f 126 777 127 
f 127 777 11 
f 207 778 10 
f 208 778 207 
f 209 789 208 
f 210 790 209 
f 211 791 210 
f 212 792 211 
f 213 793 212 
f 214 794 213 
f 36 795 214 
f 215 796 36 
f 216 797 215 
f 217 798 216 
f 218 799 217 
f 219 800 218 
f 220 801 219 
f 221 802 220 
f 222 752 221 
f 8 752 222 
f 89 753 752 
f 90 754 753 
f 91 755 754 
f 92 756 755 
f 93 757 756 
f 94 758 757 
f 95 759 758 
f 96 760 759 
f 97 761 760 
f 98 762 761 
f 99 763 762 
f 286 764 763 
f 287 765 764 
f 56 766 765 
f 288 767 766 
f 57 768 767 
f 289 769 768 
f 58 770 769 
f 290 771 770 
f 59 772 771 
f 291 773 772 
f 60 774 773 
f 292 775 774 
f 61 776 775 
f 293 777 776 
f 778 779 117 
f 779 780 118 
f 780 781 119 
f 781 782 120 
f 782 783 121 
f 783 784 122 
f 784 785 123 
f 785 786 124 
f 786 787 125 
f 787 788 126 
f 126 788 777 
f 208 789 778 
f 209 790 789 
f 210 791 790 
f 211 792 791 
f 212 793 792 
f 213 794 793 
f 214 795 794 
f 36 796 795 
f 215 797 796 
f 216 798 797 
f 217 799 798 
f 218 800 799 
f 219 801 800 
f 220 802 801 
f 221 803 802 
f 752 803 221 
f 753 804 752 
f 754 804 753 
f 755 805 754 
f 756 806 755 
f 757 807 756 
f 758 808 757 
f 759 809 758 
f 760 810 759 
f 761 811 760 
f 762 812 761 
f 763 813 762 
f 764 813 763 
f 765 814 764 
f 766 814 765 
f 767 815 766 
f 768 816 767 
f 769 817 768 
f 770 818 769 
f 771 819 770 
f 772 820 771 
f 773 821 772 
f 774 822 773 
f 775 823 774 
f 776 824 775 
f 777 825 776 
f 778 826 779 
f 779 826 780 
f 780 827 781 
f 781 828 782 
f 782 829 783 
f 783 830 784 
f 784 831 785 
f 785 832 786 
f 786 833 787 
f 787 834 788 
f 788 825 777 
f 789 826 778 
f 790 835 789 
f 791 835 790 
f 792 836 791 
f 793 837 792 
f 794 838 793 
f 795 839 794 
f 796 840 795 
f 797 841 796 
f 798 842 797 
f 799 843 798 
f 800 844 799 
f 801 845 800 
f 802 846 801 
f 803 847 802 
f 752 804 803 
f 754 805 804 
f 755 806 805 
f 756 807 806 
f 757 808 807 
f 758 809 808 
f 759 810 809 
f 760 811 810 
f 761 812 811 
f 762 813 812 
f 764 814 813 
f 766 815 814 
f 767 816 815 
f 768 817 816 
f 769 818 817 
f 770 819 818 
f 771 820 819 
f 772 821 820 
f 773 822 821 
f 774 823 822 
f 775 824 823 
f 776 825 824 
f 826 827 780 
f 827 828 781 
f 828 829 782 
f 829 830 783 
f 830 831 784 
f 831 832 785 
f 832 833 786 
f 833 834 787 
f 834 825 788 
f 789 835 826 
f 791 836 835 
f 792 837 836 
f 793 838 837 
f 794 839 838 
f 795 840 839 
f 796 841 840 
f 797 842 841 
f 798 843 842 
f 799 844 843 
f 800 845 844 
f 801 846 845 
f 802 847 846 
f 803 804 847 
f 805 848 804 
f 806 848 805 
f 807 849 806 
f 808 850 807 
f 809 851 808 
f 810 852 809 
f 811 853 810 
f 812 854 811 
f 813 855 812 
f 814 855 813 
f 815 856 814 
f 816 856 815 
f 817 857 816 
f 818 858 817 
f 819 859 818 
f 820 860 819 
f 821 861 820 
f 822 862 821 
f 823 863 822 
f 824 864 823 
f 825 865 824 
f 826 866 827 
f 827 866 828 
f 828 867 829 
f 829 868 830 
f 830 869 831 
f 831 870 832 
f 832 871 833 
f 833 872 834 
f 834 865 825 
f 835 866 826 
f 836 873 835 
f 837 873 836 
f 838 874 837 
f 839 875 838 
f 840 876 839 
f 841 877 840 
f 842 878 841 
f 843 879 842 
f 844 880 843 
f 845 881 844 
f 846 882 845 
f 847 883 846 
f 804 848 847 
f 806 849 848 
f 807 850 849 
f 808 851 850 
f 809 852 851 
f 810 853 852 
f 811 854 853 
f 812 855 854 
f 814 856 855 
f 816 857 856 
f 817 858 857 
f 818 859 858 
f 819 860 859 
f 820 861 860 
f 821 862 861 
f 822 863 862 
f 823 864 863 
f 824 865 864 
f 866 867 828 
f 867 868 829 
f 868 869 830 
f 869 870 831 
f 870 871 832 
f 871 872 833 
f 872 865 834 
f 835 873 866 
f 837 874 873 
f 838 875 874 
f 839 876 875 
f 840 877 876 
f 841 878 877 
f 842 879 878 
f 843 880 879 
f 844 881 880 
f 845 882 881 
f 846 883 882 
f 847 848 883 
f 849 884 848 
f 850 884 849 
f 851 885 850 
f 852 886 851 
f 853 887 852 
f 854 888 853 
f 855 889 854 
f 856 889 855 
f 857 890 856 
f 858 891 857 
f 859 892 858 
f 860 893 859 
f 861 894 860 
f 862 895 861 
f 863 896 862 
f 864 898 863 
f 865 899 864 
f 866 900 867 
f 867 900 868 
f 868 901 869 
f 869 902 870 
f 870 903 871 
f 871 904 872 
f 872 899 865 
f 873 900 866 
f 874 905 873 
f 875 905 874 
f 876 906 875 
f 877 907 876 
f 878 908 877 
f 879 909 878 
f 880 910 879 
f 881 911 880 
f 882 912 881 
f 883 913 882 
f 848 884 883 
f 850 885 884 
f 851 886 885 
f 852 887 886 
f 853 888 887 
f 854 889 888 
f 856 890 889 
f 857 891 890 
f 858 892 891 
f 859 893 892 
f 860 894 893 
f 861 895 894 
f 862 896 895 
f 863 897 896 
f 898 897 863 
f 864 899 898 
f 900 901 868 
f 901 902 869 
f 902 903 870 
f 903 904 871 
f 904 899 872 
f 873 905 900 
f 875 906 905 
f 876 907 906 
f 877 908 907 
f 878 909 908 
f 879 910 909 
f 880 911 910 
f 881 912 911 
f 882 913 912 
f 883 884 913 
f 885 914 884 
f 886 914 885 
f 887 915 886 
f 888 916 887 
f 889 917 888 
f 890 917 889 
f 891 917 890 
f 892 918 891 
f 893 919 892 
f 894 920 893 
f 895 921 894 
f 896 922 895 
f 897 923 896 
f 898 925 897 
f 899 925 898 
f 900 926 901 
f 901 926 902 
f 902 927 903 
f 903 928 904 
f 904 925 899 
f 905 926 900 
f 906 929 905 
f 907 929 906 
f 908 930 907 
f 909 931 908 
f 910 932 909 
f 911 933 910 
f 912 934 911 
f 913 935 912 
f 884 914 913 
f 886 915 914 
f 887 916 915 
f 888 917 916 
f 891 918 917 
f 892 919 918 
f 893 920 919 
f 894 921 920 
f 895 922 921 
f 896 923 922 
f 897 924 923 
f 925 924 897 
f 926 927 902 
f 927 928 903 
f 928 925 904 
f 905 929 926 
f 907 930 929 
f 908 931 930 
f 909 932 931 
f 910 933 932 
f 911 934 933 
f 912 935 934 
f 913 914 935 
f 915 936 914 
f 916 936 915 
f 917 918 916 
f 919 937 918 
f 920 939 919 
f 921 940 920 
f 922 941 921 
f 923 941 922 
f 924 943 923 
f 925 928 924 
f 926 944 927 
f 927 944 928 
f 929 944 926 
f 930 945 929 
f 931 945 930 
f 932 946 931 
f 933 947 932 
f 934 948 933 
f 935 949 934 
f 914 936 935 
f 916 937 936 
f 918 937 916 
f 919 938 937 
f 939 938 919 
f 920 940 939 
f 921 941 940 
f 923 942 941 
f 943 942 923 
f 924 928 943 
f 944 943 928 
f 929 945 944 
f 931 946 945 
f 932 947 946 
f 933 948 947 
f 934 949 948 
f 935 936 949 
f 937 938 936 
f 939 949 938 
f 940 948 939 
f 941 947 940 
f 942 945 941 
f 943 944 942 
f 945 942 944 
f 946 941 945 
f 947 941 946 
f 948 940 947 
f 949 939 948 
f 936 938 949 
f 20 150 19 
f 21 149 136 
f 136 150 20 
f 22 149 21 
f 137 148 22 
f 138 147 137 
f 23 146 138 
f 139 146 23 
f 140 145 139 
f 24 144 140 
f 25 143 24 
f 26 142 141 
f 141 143 25 
f 27 142 26 
f 143 141 142 
f 144 24 143 
f 145 140 144 
f 146 139 145 
f 147 138 146 
f 148 137 147 
f 149 22 148 
f 150 136 149 
f 19 224 20 
f 225 236 224 
f 226 41 225 
f 227 235 226 
f 228 234 227 
f 229 40 228 
f 230 233 229 
f 37 232 230 
f 223 39 37 
f 27 231 223 
f 26 231 27 
f 38 39 231 
f 232 37 39 
f 233 230 232 
f 40 229 233 
f 234 228 40 
f 235 227 234 
f 41 226 235 
f 42 225 41 
f 20 224 236 
f 236 225 42 
f 223 231 39 
f 29 403 28 
f 398 403 29 
f 152 177 151 
f 153 176 152 
f 154 175 153 
f 155 174 154 
f 156 173 155 
f 157 172 156 
f 30 33 157 
f 151 178 374 
f 374 377 390 
f 390 395 398 
f 158 171 30 
f 159 170 158 
f 160 169 159 
f 161 168 160 
f 162 167 161 
f 163 166 162 
f 164 165 163 
f 375 376 164 
f 394 376 375 
f 402 399 394 
f 31 32 402 
f 399 402 32 
f 166 163 165 
f 167 162 166 
f 168 161 167 
f 169 160 168 
f 170 159 169 
f 171 158 170 
f 33 30 171 
f 165 164 376 
f 376 394 391 
f 391 394 399 
f 172 157 33 
f 173 156 172 
f 174 155 173 
f 175 154 174 
f 176 153 175 
f 177 152 176 
f 178 151 177 
f 377 374 178 
f 395 390 377 
f 403 398 395 
f 28 405 29 
f 400 405 28 
f 180 205 179 
f 181 204 180 
f 182 203 181 
f 183 202 182 
f 184 201 183 
f 185 200 184 
f 34 35 185 
f 179 206 378 
f 378 381 392 
f 392 397 400 
f 186 199 34 
f 187 198 186 
f 188 197 187 
f 189 196 188 
f 190 195 189 
f 191 194 190 
f 192 193 191 
f 379 380 192 
f 396 380 379 
f 404 401 396 
f 32 31 404 
f 401 404 31 
f 194 191 193 
f 195 190 194 
f 196 189 195 
f 197 188 196 
f 198 187 197 
f 199 186 198 
f 35 34 199 
f 193 192 380 
f 380 396 393 
f 393 396 401 
f 200 185 35 
f 201 184 200 
f 202 183 201 
f 203 182 202 
f 204 181 203 
f 205 180 204 
f 206 179 205 
f 381 378 206 
f 397 392 381 
f 405 400 397 
f 207 10 604 
f 208 207 192 
f 209 208 191 
f 210 209 190 
f 211 210 189 
f 212 211 188 
f 213 212 187 
f 214 213 186 
f 36 214 34 
f 108 9 33 
f 109 108 171 
f 110 109 170 
f 111 110 169 
f 112 111 168 
f 113 112 167 
f 114 113 166 
f 115 114 165 
f 10 115 605 
f 100 8 608 
f 101 100 178 
f 102 101 177 
f 103 102 176 
f 104 103 175 
f 105 104 174 
f 106 105 173 
f 107 106 172 
f 9 107 33 
f 215 36 34 
f 216 215 185 
f 217 216 184 
f 218 217 183 
f 219 218 182 
f 220 219 181 
f 221 220 180 
f 222 221 179 
f 8 222 609 
f 399 32 612 
f 166 165 114 
f 167 166 113 
f 168 167 112 
f 169 168 111 
f 170 169 110 
f 171 170 109 
f 33 171 108 
f 165 376 605 
f 376 391 605 
f 391 399 612 
f 186 34 214 
f 187 186 213 
f 188 187 212 
f 189 188 211 
f 190 189 210 
f 191 190 209 
f 192 191 208 
f 379 192 604 
f 396 379 604 
f 404 396 613 
f 32 404 613 
f 400 28 614 
f 180 179 221 
f 181 180 220 
f 182 181 219 
f 183 182 218 
f 184 183 217 
f 185 184 216 
f 34 185 215 
f 179 378 609 
f 378 392 609 
f 392 400 614 
f 172 33 107 
f 173 172 106 
f 174 173 105 
f 175 174 104 
f 176 175 103 
f 177 176 102 
f 178 177 101 
f 377 178 608 
f 395 377 608 
f 403 395 615 
f 28 403 615 
f 604 10 607 
f 207 604 192 
f 115 165 605 
f 10 605 606 
f 608 8 611 
f 100 608 178 
f 222 179 609 
f 8 609 610 
f 612 32 613 
f 605 391 612 
f 396 604 613 
f 614 28 615 
f 609 392 614 
f 395 608 615 
f 607 10 606 
f 604 607 613 
f 606 605 612 
f 611 8 610 
f 608 611 615 
f 610 609 614 
f 612 613 606 
f 614 615 610 
f 607 606 613 
f 611 610 615 
f 401 31 616 
f 194 193 617 
f 195 194 618 
f 196 195 619 
f 197 196 620 
f 198 197 621 
f 199 198 622 
f 35 199 623 
f 193 380 625 
f 380 393 625 
f 393 401 616 
f 158 30 626 
f 159 158 627 
f 160 159 628 
f 161 160 629 
f 162 161 630 
f 163 162 631 
f 164 163 633 
f 375 164 634 
f 394 375 634 
f 402 394 635 
f 31 402 635 
f 398 29 636 
f 152 151 637 
f 153 152 638 
f 154 153 639 
f 155 154 640 
f 156 155 641 
f 157 156 642 
f 30 157 626 
f 151 374 644 
f 374 390 644 
f 390 398 636 
f 200 35 624 
f 201 200 645 
f 202 201 646 
f 203 202 647 
f 204 203 648 
f 205 204 649 
f 206 205 651 
f 381 206 652 
f 397 381 652 
f 405 397 653 
f 29 405 653 
f 223 37 619 
f 27 223 654 
f 224 19 651 
f 225 224 650 
f 226 225 648 
f 227 226 646 
f 228 227 645 
f 229 228 623 
f 230 229 622 
f 37 230 620 
f 142 27 633 
f 143 142 632 
f 144 143 630 
f 145 144 628 
f 146 145 627 
f 147 146 643 
f 148 147 642 
f 149 148 640 
f 150 149 638 
f 19 150 656 
f 616 31 635 
f 617 193 625 
f 194 617 618 
f 195 618 619 
f 196 619 620 
f 197 620 621 
f 198 621 622 
f 199 622 623 
f 35 623 624 
f 625 393 616 
f 158 626 627 
f 159 627 628 
f 160 628 629 
f 161 629 630 
f 162 630 631 
f 163 631 632 
f 633 163 632 
f 164 633 634 
f 394 634 635 
f 636 29 653 
f 637 151 644 
f 152 637 638 
f 153 638 639 
f 154 639 640 
f 155 640 641 
f 156 641 642 
f 157 642 643 
f 626 157 643 
f 644 390 636 
f 200 624 645 
f 201 645 646 
f 202 646 647 
f 203 647 648 
f 204 648 649 
f 205 649 650 
f 651 205 650 
f 206 651 652 
f 397 652 653 
f 619 37 620 
f 223 619 618 
f 654 223 617 
f 27 654 655 
f 651 19 657 
f 224 651 650 
f 225 650 649 
f 648 225 649 
f 226 648 647 
f 646 226 647 
f 227 646 645 
f 228 645 624 
f 623 228 624 
f 229 623 622 
f 230 622 621 
f 620 230 621 
f 633 27 655 
f 142 633 632 
f 143 632 631 
f 630 143 631 
f 144 630 629 
f 628 144 629 
f 145 628 627 
f 146 627 626 
f 643 146 626 
f 147 643 642 
f 148 642 641 
f 640 148 641 
f 149 640 639 
f 638 149 639 
f 150 638 637 
f 656 150 637 
f 19 656 657 
f 616 635 658 
f 617 625 654 
f 618 617 223 
f 625 616 659 
f 634 633 655 
f 635 634 658 
f 636 653 660 
f 637 644 656 
f 644 636 660 
f 652 651 657 
f 653 652 661 
f 655 654 659 
f 657 656 660 
f 616 658 659 
f 654 625 659 
f 634 655 658 
f 660 653 661 
f 656 644 660 
f 652 657 661 
f 655 659 658 
f 657 660 661 
f 237 39 244 
f 238 237 243 
f 239 238 242 
f 240 239 241 
f 41 240 42 
f 39 38 244 
f 241 42 240 
f 242 241 239 
f 243 242 238 
f 244 243 237 
f 245 22 21 
f 246 245 251 
f 247 246 250 
f 248 247 249 
f 24 248 25 
f 249 25 248 
f 250 249 247 
f 251 250 246 
f 252 251 245 
f 21 252 245 
f 38 231 662 
f 231 26 662 
f 26 141 664 
f 141 25 665 
f 25 249 665 
f 249 250 665 
f 250 251 666 
f 251 252 667 
f 252 21 668 
f 21 136 669 
f 136 20 669 
f 20 236 670 
f 236 42 671 
f 42 241 671 
f 241 242 671 
f 242 243 672 
f 243 244 673 
f 244 38 663 
f 38 662 663 
f 662 26 664 
f 664 141 665 
f 665 250 666 
f 666 251 667 
f 667 252 668 
f 668 21 669 
f 669 20 670 
f 670 236 671 
f 671 242 672 
f 672 243 673 
f 673 244 663 
f 663 662 674 
f 662 664 674 
f 664 665 674 
f 665 666 674 
f 666 667 675 
f 667 668 676 
f 668 669 677 
f 669 670 677 
f 670 671 677 
f 671 672 676 
f 672 673 675 
f 673 663 674 
f 674 666 675 
f 675 667 676 
f 676 668 677 
f 677 671 676 
f 676 672 675 
f 675 673 674 
f 22 245 137 
f 245 246 138 
f 246 247 23 
f 247 248 139 
f 248 24 140 
f 139 23 247 
f 140 139 248 
f 138 137 245 
f 23 138 246 
f 39 237 232 
f 237 238 233 
f 238 239 40 
f 239 240 234 
f 240 41 235 
f 234 40 239 
f 235 234 240 
f 233 232 237 
f 40 233 238 
f 44 678 253 
f 253 678 254 
f 254 679 255 
f 255 680 256 
f 256 681 43 
f 45 384 382 
f 257 682 258 
f 258 678 44 
f 382 683 257 
f 46 385 383 
f 259 684 260 
f 260 684 261 
f 261 687 262 
f 262 683 384 
f 383 686 259 
f 264 689 263 
f 43 681 264 
f 263 686 385 
f 678 679 254 
f 679 680 255 
f 680 681 256 
f 384 683 382 
f 682 678 258 
f 257 683 682 
f 385 686 383 
f 259 685 684 
f 684 687 261 
f 687 688 262 
f 262 688 683 
f 686 685 259 
f 689 686 263 
f 264 681 689 
f 678 690 679 
f 679 690 680 
f 680 691 681 
f 682 688 678 
f 683 688 682 
f 685 691 684 
f 684 690 687 
f 687 690 688 
f 686 689 685 
f 681 685 689 
f 678 688 690 
f 690 691 680 
f 691 685 681 
f 691 690 684 
f 44 47 692 
f 386 48 693 
f 266 265 695 
f 47 266 692 
f 265 386 694 
f 267 49 697 
f 48 267 697 
f 49 50 698 
f 268 45 700 
f 50 268 700 
f 45 382 701 
f 257 258 695 
f 258 44 692 
f 382 257 702 
f 693 48 697 
f 386 693 694 
f 695 265 696 
f 266 695 692 
f 265 694 696 
f 697 49 699 
f 698 50 700 
f 49 698 699 
f 700 45 701 
f 701 382 702 
f 695 258 692 
f 257 695 696 
f 702 257 696 
f 693 697 699 
f 694 693 699 
f 696 694 702 
f 698 700 701 
f 699 698 703 
f 701 702 703 
f 694 699 703 
f 702 694 703 
f 698 701 703 
f 269 704 51 
f 52 704 269 
f 270 704 52 
f 271 706 270 
f 272 708 271 
f 49 710 272 
f 267 710 49 
f 48 710 267 
f 273 710 48 
f 274 708 273 
f 275 706 274 
f 51 704 275 
f 270 705 704 
f 706 705 270 
f 271 707 706 
f 708 707 271 
f 272 709 708 
f 710 709 272 
f 273 709 710 
f 708 709 273 
f 274 707 708 
f 706 707 274 
f 275 705 706 
f 704 705 275 
f 270 52 388 
f 271 270 278 
f 272 271 277 
f 49 272 387 
f 52 53 388 
f 387 50 49 
f 277 276 272 
f 278 277 271 
f 279 278 270 
f 388 279 270 
f 276 387 272 
f 268 711 45 
f 50 711 268 
f 387 711 50 
f 277 714 276 
f 278 716 277 
f 279 718 278 
f 388 720 279 
f 276 713 387 
f 53 722 388 
f 280 722 53 
f 46 722 280 
f 383 722 46 
f 260 718 259 
f 261 716 260 
f 262 714 261 
f 384 713 262 
f 259 720 383 
f 45 711 384 
f 387 712 711 
f 714 723 276 
f 277 715 714 
f 716 715 277 
f 278 717 716 
f 718 717 278 
f 279 719 718 
f 720 719 279 
f 388 721 720 
f 713 712 387 
f 276 723 713 
f 722 721 388 
f 383 721 722 
f 718 719 259 
f 260 717 718 
f 716 717 260 
f 261 715 716 
f 714 715 261 
f 262 723 714 
f 713 723 262 
f 384 712 713 
f 720 721 383 
f 259 719 720 
f 711 712 384 
f 281 54 724 
f 282 281 724 
f 283 282 725 
f 47 283 726 
f 54 284 724 
f 284 285 727 
f 285 389 729 
f 389 51 275 
f 273 48 386 
f 274 273 731 
f 275 274 730 
f 265 266 733 
f 266 47 726 
f 386 265 734 
f 282 724 725 
f 283 725 726 
f 724 284 728 
f 727 285 729 
f 284 727 728 
f 729 389 730 
f 389 275 730 
f 273 386 731 
f 274 731 732 
f 730 274 732 
f 733 266 735 
f 265 733 734 
f 266 726 735 
f 386 734 731 
f 725 724 736 
f 726 725 737 
f 724 728 736 
f 727 729 738 
f 728 727 736 
f 729 730 738 
f 732 731 739 
f 730 732 738 
f 733 735 737 
f 734 733 739 
f 735 726 737 
f 731 734 739 
f 725 736 737 
f 727 738 736 
f 732 739 738 
f 733 737 739 
f 737 736 739 
f 736 738 739 
f 54 43 740 
f 385 46 741 
f 264 263 743 
f 43 264 740 
f 263 385 742 
f 280 53 745 
f 46 280 745 
f 53 52 746 
f 269 51 748 
f 52 269 748 
f 284 54 740 
f 285 284 743 
f 389 285 749 
f 51 389 750 
f 741 46 745 
f 385 741 742 
f 743 263 744 
f 264 743 740 
f 263 742 744 
f 745 53 747 
f 746 52 748 
f 53 746 747 
f 748 51 750 
f 284 740 743 
f 285 743 744 
f 749 285 744 
f 389 749 750 
f 741 745 747 
f 742 741 747 
f 744 742 749 
f 746 748 750 
f 747 746 751 
f 750 749 751 
f 742 747 751 
f 749 742 751 
f 746 750 751 
f 5 950 80 
f 80 951 81 
f 81 952 82 
f 82 953 83 
f 83 953 6 
f 62 955 294 
f 294 955 295 
f 295 957 296 
f 296 958 297 
f 297 950 5 
f 1 959 298 
f 298 959 299 
f 299 961 300 
f 300 961 301 
f 301 956 62 
f 6 962 84 
f 84 963 85 
f 85 963 86 
f 86 960 87 
f 87 960 1 
f 44 964 47 
f 253 963 44 
f 254 960 253 
f 255 959 254 
f 256 961 255 
f 43 956 256 
f 54 965 43 
f 281 967 54 
f 282 967 281 
f 283 967 282 
f 47 967 283 
f 950 951 80 
f 951 952 81 
f 952 954 82 
f 82 954 953 
f 953 962 6 
f 62 956 955 
f 955 957 295 
f 957 958 296 
f 958 950 297 
f 1 960 959 
f 959 961 299 
f 961 956 301 
f 962 963 84 
f 963 960 86 
f 964 967 47 
f 44 954 964 
f 963 962 44 
f 253 960 963 
f 254 959 960 
f 255 961 959 
f 256 956 961 
f 43 955 956 
f 965 955 43 
f 54 966 965 
f 967 966 54 
f 950 968 951 
f 951 964 952 
f 952 964 954 
f 954 44 953 
f 953 44 962 
f 955 965 957 
f 957 966 958 
f 958 968 950 
f 964 966 967 
f 966 957 965 
f 968 964 951 
f 966 968 958 
f 964 968 966 
f 14 130 302 
f 302 130 303 
f 303 13 304 
f 304 129 305 
f 305 129 12 
f 13 303 130 
f 129 304 13 
f 16 132 306 
f 306 132 307 
f 307 15 308 
f 308 131 309 
f 309 131 14 
f 15 307 132 
f 131 308 15 
f 18 134 310 
f 310 134 311 
f 311 17 312 
f 312 133 313 
f 313 133 16 
f 17 311 134 
f 133 312 17 
f 55 286 314 
f 314 286 315 
f 315 7 316 
f 316 135 317 
f 317 135 18 
f 7 315 286 
f 135 316 7 
f 57 288 318 
f 318 288 319 
f 319 56 320 
f 320 287 321 
f 321 287 55 
f 56 319 288 
f 287 320 56 
f 59 290 322 
f 322 290 323 
f 323 58 324 
f 324 289 325 
f 325 289 57 
f 58 323 290 
f 289 324 58 
f 61 292 326 
f 326 292 327 
f 327 60 328 
f 328 291 329 
f 329 291 59 
f 60 327 292 
f 291 328 60 
f 12 128 330 
f 330 128 331 
f 331 11 332 
f 332 293 333 
f 333 293 61 
f 11 331 128 
f 293 332 11 
f 55 314 337 
f 314 315 336 
f 315 316 335 
f 316 317 334 
f 317 18 63 
f 63 334 317 
f 334 335 316 
f 335 336 315 
f 336 337 314 
f 337 64 55 
f 18 310 341 
f 310 311 340 
f 311 312 339 
f 312 313 338 
f 313 16 65 
f 65 338 313 
f 338 339 312 
f 339 340 311 
f 340 341 310 
f 341 63 18 
f 16 306 345 
f 306 307 344 
f 307 308 343 
f 308 309 342 
f 309 14 66 
f 66 342 309 
f 342 343 308 
f 343 344 307 
f 344 345 306 
f 345 65 16 
f 14 302 349 
f 302 303 348 
f 303 304 347 
f 304 305 346 
f 305 12 346 
f 12 67 346 
f 346 347 304 
f 347 348 303 
f 348 349 302 
f 349 66 14 
f 12 330 67 
f 330 331 360 
f 331 332 359 
f 332 333 358 
f 333 61 69 
f 69 358 333 
f 358 359 332 
f 359 360 331 
f 360 361 330 
f 361 67 330 
f 61 326 365 
f 326 327 364 
f 327 328 363 
f 328 329 362 
f 329 59 70 
f 70 362 329 
f 362 363 328 
f 363 364 327 
f 364 365 326 
f 365 69 61 
f 59 322 369 
f 322 323 368 
f 323 324 367 
f 324 325 366 
f 325 57 71 
f 71 366 325 
f 366 367 324 
f 367 368 323 
f 368 369 322 
f 369 70 59 
f 57 318 373 
f 318 319 372 
f 319 320 371 
f 320 321 370 
f 321 55 64 
f 64 370 321 
f 370 371 320 
f 371 372 319 
f 372 373 318 
f 373 71 57 
f 67 969 346 
f 346 970 347 
f 347 972 348 
f 348 972 349 
f 349 973 66 
f 69 975 358 
f 358 975 359 
f 359 977 360 
f 360 978 361 
f 361 969 67 
f 70 979 362 
f 362 980 363 
f 363 982 364 
f 364 982 365 
f 365 976 69 
f 71 983 366 
f 366 983 367 
f 367 985 368 
f 368 986 369 
f 369 979 70 
f 64 987 370 
f 370 988 371 
f 371 988 372 
f 372 990 373 
f 373 984 71 
f 63 991 334 
f 334 991 335 
f 335 993 336 
f 336 994 337 
f 337 987 64 
f 65 995 338 
f 338 996 339 
f 339 998 340 
f 340 998 341 
f 341 992 63 
f 66 973 342 
f 342 999 343 
f 343 999 344 
f 344 1000 345 
f 345 995 65 
f 76 1001 4 
f 77 989 76 
f 78 990 77 
f 79 984 78 
f 3 985 79 
f 72 1002 3 
f 73 981 72 
f 74 980 73 
f 75 976 74 
f 2 977 75 
f 354 1003 2 
f 355 971 354 
f 356 972 355 
f 357 1004 356 
f 68 999 357 
f 350 1005 68 
f 351 997 350 
f 352 996 351 
f 353 992 352 
f 4 993 353 
f 969 971 346 
f 970 972 347 
f 346 971 970 
f 972 974 349 
f 349 974 973 
f 69 976 975 
f 975 977 359 
f 977 978 360 
f 978 969 361 
f 979 981 362 
f 980 982 363 
f 362 981 980 
f 982 976 365 
f 71 984 983 
f 983 985 367 
f 985 986 368 
f 986 979 369 
f 987 989 370 
f 370 989 988 
f 988 990 372 
f 990 984 373 
f 63 992 991 
f 991 993 335 
f 993 994 336 
f 994 987 337 
f 995 997 338 
f 996 998 339 
f 338 997 996 
f 998 992 341 
f 973 999 342 
f 999 1000 344 
f 1000 995 345 
f 1001 994 4 
f 76 989 1001 
f 77 988 989 
f 990 988 77 
f 78 984 990 
f 79 983 984 
f 985 983 79 
f 3 986 985 
f 1002 986 3 
f 72 981 1002 
f 73 980 981 
f 74 982 980 
f 976 982 74 
f 75 975 976 
f 977 975 75 
f 2 978 977 
f 1003 978 2 
f 354 971 1003 
f 355 970 971 
f 972 970 355 
f 356 974 972 
f 1004 974 356 
f 357 999 1004 
f 68 1000 999 
f 1005 1000 68 
f 350 997 1005 
f 351 996 997 
f 352 998 996 
f 992 998 352 
f 353 991 992 
f 993 991 353 
f 4 994 993 
f 969 1003 971 
f 974 1004 973 
f 978 1003 969 
f 979 1002 981 
f 986 1002 979 
f 987 1001 989 
f 994 1001 987 
f 995 1005 997 
f 973 1004 999 
f 1000 1005 995 
# End of file
