# WaveFront *.obj file
# Vertices: 1008
# Triangles : 2012
v 0.899742916226387 -0.3264781553298235 -0.5264781415462494
v 0.6066837813705206 -0.5526992492377758 -0.5264781415462494
v 0.07197943632490933 -0.6233933381736279 -0.5264781415462494
v -0.9999999776482582 -0.6233933381736279 -0.5264781415462494
v -0.9999999776482582 0.6233933381736279 -0.5264781415462494
v 0.19280206179246306 0.6233933381736279 -0.5264781415462494
v 0.8059126324951649 0.45115682296454906 -0.5264781415462494
v 0.9999999776482582 0.011568123591132462 -0.5264781415462494
v 0.6066837813705206 -0.5526992492377758 0.5264781415462494
v 0.899742916226387 -0.3264781553298235 0.5264781415462494
v 0.9999999776482582 0.011568123591132462 0.5264781415462494
v 0.8059126324951649 0.45115682296454906 0.5264781415462494
v 0.19280206179246306 0.6233933381736279 0.5264781415462494
v -0.9999999776482582 0.6233933381736279 0.5264781415462494
v -0.9999999776482582 -0.6233933381736279 0.5264781415462494
v 0.07197943632490933 -0.6233933381736279 0.5264781415462494
v 0.8396590128540993 -0.39994348771870136 -0.5264781415462494
v 0.7722334936261177 -0.463990168645978 -0.5264781415462494
v 0.6929286289960146 -0.5127964541316032 -0.5264781415462494
v 0.5016440991312265 -0.5801153369247913 -0.5264781415462494
v 0.3958938643336296 -0.6025692448019981 -0.5264781415462494
v 0.28883786872029305 -0.6159041542559862 -0.5264781415462494
v 0.18068354111164808 -0.621568551287055 -0.5264781415462494
v -0.03521851031109691 -0.6233933381736279 -0.5264781415462494
v -0.14241645112633705 -0.6233933381736279 -0.5264781415462494
v -0.24961440358310938 -0.6233933381736279 -0.5264781415462494
v -0.35681233275681734 -0.6233933381736279 -0.5264781415462494
v -0.46401028521358967 -0.6233933381736279 -0.5264781415462494
v -0.5712082143872976 -0.6233933381736279 -0.5264781415462494
v -0.6784061901271343 -0.6233933381736279 -0.5264781415462494
v -0.7856041193008423 -0.6233933381736279 -0.5264781415462494
v -0.8928020484745502 -0.6233933381736279 -0.5264781415462494
v -0.9999999776482582 -0.5194944329559803 -0.5264781415462494
v -0.9999999776482582 -0.41559552773833275 -0.5264781415462494
v -0.9999999776482582 -0.3116966690868139 -0.5264781415462494
v -0.9999999776482582 -0.20779776386916637 -0.5264781415462494
v -0.9999999776482582 -0.10389888193458319 -0.5264781415462494
v -0.9999999776482582 -5.828670697302337e-16 -0.5264781415462494
v -0.9999999776482582 0.10389888193458319 -0.5264781415462494
v -0.9999999776482582 0.20779776386916637 -0.5264781415462494
v -0.9999999776482582 0.3116966690868139 -0.5264781415462494
v -0.9999999776482582 0.41559552773833275 -0.5264781415462494
v -0.9999999776482582 0.5194944329559803 -0.5264781415462494
v -0.9005998261272907 0.6233933381736279 -0.5264781415462494
v -0.8011996746063232 0.6233933381736279 -0.5264781415462494
v -0.701799476519227 0.6233933381736279 -0.5264781415462494
v -0.6023993249982595 0.6233933381736279 -0.5264781415462494
v -0.5029991269111633 0.6233933381736279 -0.5264781415462494
v -0.40359897539019585 0.6233933381736279 -0.5264781415462494
v -0.304198800586164 0.6233933381736279 -0.5264781415462494
v -0.20479862578213215 0.6233933381736279 -0.5264781415462494
v -0.10539846261963248 0.6233933381736279 -0.5264781415462494
v -0.005998286360409111 0.6233933381736279 -0.5264781415462494
v 0.09340188698843122 0.6233933381736279 -0.5264781415462494
v 0.30278845224529505 0.620152847841382 -0.5264781415462494
v 0.4111136309802532 0.6114896386861801 -0.5264781415462494
v 0.516116339713335 0.5919810850173235 -0.5264781415462494
v 0.616281246766448 0.5566806066781282 -0.5264781415462494
v 0.7121741771697998 0.5074352025985718 -0.5264781415462494
v 0.8728338405489922 0.37571194116026163 -0.5264781415462494
v 0.9301974438130856 0.29602525755763054 -0.5264781415462494
v 0.9688936173915863 0.20805366802960634 -0.5264781415462494
v 0.9891446679830551 0.1118958811275661 -0.5264781415462494
v 0.9877932257950306 -0.10739268036559224 -0.5264781415462494
v 0.9543405845761299 -0.22006481885910034 -0.5264781415462494
v 0.6929286289960146 -0.5127964541316032 0.5264781415462494
v 0.7722334936261177 -0.463990168645978 0.5264781415462494
v 0.8396590128540993 -0.39994348771870136 0.5264781415462494
v 0.9543405845761299 -0.22006481885910034 0.5264781415462494
v 0.9877932257950306 -0.10739268036559224 0.5264781415462494
v 0.9891446679830551 0.1118958811275661 0.5264781415462494
v 0.9688936173915863 0.20805366802960634 0.5264781415462494
v 0.9301974438130856 0.29602525755763054 0.5264781415462494
v 0.8728338405489922 0.37571194116026163 0.5264781415462494
v 0.7121741771697998 0.5074352025985718 0.5264781415462494
v 0.616281246766448 0.5566806066781282 0.5264781415462494
v 0.516116339713335 0.5919810850173235 0.5264781415462494
v 0.4111136309802532 0.6114896386861801 0.5264781415462494
v 0.30278845224529505 0.620152847841382 0.5264781415462494
v 0.09340188698843122 0.6233933381736279 0.5264781415462494
v -0.005998286360409111 0.6233933381736279 0.5264781415462494
v -0.10539846261963248 0.6233933381736279 0.5264781415462494
v -0.20479862578213215 0.6233933381736279 0.5264781415462494
v -0.304198800586164 0.6233933381736279 0.5264781415462494
v -0.40359897539019585 0.6233933381736279 0.5264781415462494
v -0.5029991269111633 0.6233933381736279 0.5264781415462494
v -0.6023993249982595 0.6233933381736279 0.5264781415462494
v -0.701799476519227 0.6233933381736279 0.5264781415462494
v -0.8011996746063232 0.6233933381736279 0.5264781415462494
v -0.9005998261272907 0.6233933381736279 0.5264781415462494
v -0.9999999776482582 0.5194944329559803 0.5264781415462494
v -0.9999999776482582 0.41559552773833275 0.5264781415462494
v -0.9999999776482582 0.3116966690868139 0.5264781415462494
v -0.9999999776482582 0.20779776386916637 0.5264781415462494
v -0.9999999776482582 0.10389888193458319 0.5264781415462494
v -0.9999999776482582 -5.828670697302337e-16 0.5264781415462494
v -0.9999999776482582 -0.10389888193458319 0.5264781415462494
v -0.9999999776482582 -0.20779776386916637 0.5264781415462494
v -0.9999999776482582 -0.3116966690868139 0.5264781415462494
v -0.9999999776482582 -0.41559552773833275 0.5264781415462494
v -0.9999999776482582 -0.5194944329559803 0.5264781415462494
v -0.8928020484745502 -0.6233933381736279 0.5264781415462494
v -0.7856041193008423 -0.6233933381736279 0.5264781415462494
v -0.6784061901271343 -0.6233933381736279 0.5264781415462494
v -0.5712082143872976 -0.6233933381736279 0.5264781415462494
v -0.46401028521358967 -0.6233933381736279 0.5264781415462494
v -0.35681233275681734 -0.6233933381736279 0.5264781415462494
v -0.24961440358310938 -0.6233933381736279 0.5264781415462494
v -0.14241645112633705 -0.6233933381736279 0.5264781415462494
v -0.03521851031109691 -0.6233933381736279 0.5264781415462494
v 0.18068354111164808 -0.621568551287055 0.5264781415462494
v 0.28883786872029305 -0.6159041542559862 0.5264781415462494
v 0.3958938643336296 -0.6025692448019981 0.5264781415462494
v 0.5016440991312265 -0.5801153369247913 0.5264781415462494
v 0.9999999776482582 0.011568123591132462 0.421182531863451
v 0.9999999776482582 0.011568123591132462 0.31588689889758825
v 0.9999999776482582 0.011568123591132462 0.2105912659317255
v 0.9999999776482582 0.011568123591132462 0.10529563296586275
v 0.9999999776482582 0.011568123591132462 0.0
v 0.9999999776482582 0.011568123591132462 -0.10529563296586275
v 0.9999999776482582 0.011568123591132462 -0.2105912659317255
v 0.9999999776482582 0.011568123591132462 -0.31588689889758825
v 0.9999999776482582 0.011568123591132462 -0.421182531863451
v 0.899742916226387 -0.3264781553298235 0.421182531863451
v 0.899742916226387 -0.3264781553298235 0.31588689889758825
v 0.899742916226387 -0.3264781553298235 0.2105912659317255
v 0.899742916226387 -0.3264781553298235 0.10529563296586275
v 0.899742916226387 -0.3264781553298235 0.0
v 0.899742916226387 -0.3264781553298235 -0.10529563296586275
v 0.899742916226387 -0.3264781553298235 -0.2105912659317255
v 0.899742916226387 -0.3264781553298235 -0.31588689889758825
v 0.899742916226387 -0.3264781553298235 -0.421182531863451
v 0.8059126324951649 0.45115682296454906 0.421182531863451
v 0.8059126324951649 0.45115682296454906 0.31588689889758825
v 0.8059126324951649 0.45115682296454906 0.2105912659317255
v 0.8059126324951649 0.45115682296454906 0.10529563296586275
v 0.8059126324951649 0.45115682296454906 0.0
v 0.8059126324951649 0.45115682296454906 -0.10529563296586275
v 0.8059126324951649 0.45115682296454906 -0.2105912659317255
v 0.8059126324951649 0.45115682296454906 -0.31588689889758825
v 0.8059126324951649 0.45115682296454906 -0.421182531863451
v 0.19280206179246306 0.6233933381736279 0.421182531863451
v 0.19280206179246306 0.6233933381736279 0.31588689889758825
v 0.19280206179246306 0.6233933381736279 0.2105912659317255
v 0.19280206179246306 0.6233933381736279 0.10529563296586275
v 0.19280206179246306 0.6233933381736279 0.0
v 0.19280206179246306 0.6233933381736279 -0.10529563296586275
v 0.19280206179246306 0.6233933381736279 -0.2105912659317255
v 0.19280206179246306 0.6233933381736279 -0.31588689889758825
v 0.19280206179246306 0.6233933381736279 -0.421182531863451
v -0.9999999776482582 0.6233933381736279 0.421182531863451
v -0.9999999776482582 0.6233933381736279 0.31588689889758825
v -0.9999999776482582 0.6233933381736279 0.2105912659317255
v -0.9999999776482582 0.6233933381736279 0.10529563296586275
v -0.9999999776482582 0.6233933381736279 0.0
v -0.9999999776482582 0.6233933381736279 -0.10529563296586275
v -0.9999999776482582 0.6233933381736279 -0.2105912659317255
v -0.9999999776482582 0.6233933381736279 -0.31588689889758825
v -0.9999999776482582 0.6233933381736279 -0.421182531863451
v -0.9999999776482582 -0.6233933381736279 0.421182531863451
v -0.9999999776482582 -0.6233933381736279 0.31588689889758825
v -0.9999999776482582 -0.6233933381736279 0.2105912659317255
v -0.9999999776482582 -0.6233933381736279 0.10529563296586275
v -0.9999999776482582 -0.6233933381736279 0.0
v -0.9999999776482582 -0.6233933381736279 -0.10529563296586275
v -0.9999999776482582 -0.6233933381736279 -0.2105912659317255
v -0.9999999776482582 -0.6233933381736279 -0.31588689889758825
v -0.9999999776482582 -0.6233933381736279 -0.421182531863451
v 0.07197943632490933 -0.6233933381736279 0.421182531863451
v 0.07197943632490933 -0.6233933381736279 0.31588689889758825
v 0.07197943632490933 -0.6233933381736279 0.2105912659317255
v 0.07197943632490933 -0.6233933381736279 0.10529563296586275
v 0.07197943632490933 -0.6233933381736279 0.0
v 0.07197943632490933 -0.6233933381736279 -0.10529563296586275
v 0.07197943632490933 -0.6233933381736279 -0.2105912659317255
v 0.07197943632490933 -0.6233933381736279 -0.31588689889758825
v 0.07197943632490933 -0.6233933381736279 -0.421182531863451
v 0.6066837813705206 -0.5526992492377758 0.421182531863451
v 0.6066837813705206 -0.5526992492377758 0.31588689889758825
v 0.6066837813705206 -0.5526992492377758 0.2105912659317255
v 0.6066837813705206 -0.5526992492377758 0.10529563296586275
v 0.6066837813705206 -0.5526992492377758 0.0
v 0.6066837813705206 -0.5526992492377758 -0.10529563296586275
v 0.6066837813705206 -0.5526992492377758 -0.2105912659317255
v 0.6066837813705206 -0.5526992492377758 -0.31588689889758825
v 0.6066837813705206 -0.5526992492377758 -0.421182531863451
v 0.7683670148253441 -0.3248905297368765 -0.5264781415462494
v 0.7009415421634912 -0.38893723394721746 -0.5264781415462494
v 0.5632172338664532 -0.45875166542828083 -0.5264781415462494
v 0.4801440052688122 -0.4788571037352085 -0.5264781415462494
v 0.38309881929308176 -0.4998474381864071 -0.5264781415462494
v 0.2760428236797452 -0.5131823010742664 -0.5264781415462494
v 0.1752695068717003 -0.5181945860385895 -0.5264781415462494
v 0.07197943632490933 -0.5198776721954346 -0.5264781415462494
v -0.03521851031109691 -0.5198776721954346 -0.5264781415462494
v -0.14241645112633705 -0.5198776721954346 -0.5264781415462494
v -0.24961440358310938 -0.5198776721954346 -0.5264781415462494
v -0.35681233275681734 -0.5198776721954346 -0.5264781415462494
v -0.46401028521358967 -0.5198776721954346 -0.5264781415462494
v -0.5712082143872976 -0.5198776721954346 -0.5264781415462494
v -0.6784061901271343 -0.5198776721954346 -0.5264781415462494
v -0.7856041193008423 -0.5198776721954346 -0.5264781415462494
v -0.8964844048023224 -0.5194944329559803 -0.5264781415462494
v -0.8964844048023224 -0.41559552773833275 -0.5264781415462494
v -0.8964844048023224 -0.3116966690868139 -0.5264781415462494
v -0.8964844048023224 -0.20779776386916637 -0.5264781415462494
v -0.8964844048023224 -0.10389888193458319 -0.5264781415462494
v -0.8964844048023224 -5.551115205843844e-16 -0.5264781415462494
v -0.8964844048023224 0.10389888193458319 -0.5264781415462494
v -0.8964844048023224 0.20779776386916637 -0.5264781415462494
v -0.8964844048023224 0.3116966690868139 -0.5264781415462494
v -0.8964844048023224 0.41559552773833275 -0.5264781415462494
v -0.9005998261272907 0.5198776721954346 -0.5264781415462494
v -0.8011996746063232 0.5198776721954346 -0.5264781415462494
v -0.701799476519227 0.5198776721954346 -0.5264781415462494
v -0.6023993249982595 0.5198776721954346 -0.5264781415462494
v -0.5029991269111633 0.5198776721954346 -0.5264781415462494
v -0.40359897539019585 0.5198776721954346 -0.5264781415462494
v -0.304198800586164 0.5198776721954346 -0.5264781415462494
v -0.20479862578213215 0.5198776721954346 -0.5264781415462494
v -0.10539846261963248 0.5198776721954346 -0.5264781415462494
v -0.005998286360409111 0.5198776721954346 -0.5264781415462494
v 0.09340188698843122 0.5198776721954346 -0.5264781415462494
v 0.19280206179246306 0.5198776721954346 -0.5264781415462494
v 0.2945362590253353 0.5169666837900877 -0.5264781415462494
v 0.3922048956155777 0.509715685620904 -0.5264781415462494
v 0.48170918598771095 0.4943510051816702 -0.5264781415462494
v 0.5818740930408239 0.45905052684247494 -0.5264781415462494
v 0.6588912568986416 0.4186860751360655 -0.5264781415462494
v 0.728472275659442 0.3824656130746007 -0.5264781415462494
v 0.7888219319283962 0.31523474026471376 -0.5264781415462494
v 0.8354435674846172 0.25434575509279966 -0.5264781415462494
v 0.8741396479308605 0.16637417720630765 -0.5264781415462494
v 0.8878510445356369 0.09056318085640669 -0.5264781415462494
v 0.8970850147306919 0.0004328543582232669 -0.5264781415462494
v 0.888559129089117 -0.07792979595251381 -0.5264781415462494
v 0.8551063947379589 -0.19060192862525582 -0.5264781415462494
v 0.8196134120225906 -0.2609438495710492 -0.5264781415462494
v 0.6970750633627176 -0.24983759503811598 -0.5264781415462494
v 0.6296496372669935 -0.31388429924845695 -0.5264781415462494
v 0.519750639796257 -0.3648041281849146 -0.5264781415462494
v 0.3703037742525339 -0.3971255850046873 -0.5264781415462494
v 0.26324777863919735 -0.4104604944586754 -0.5264781415462494
v 0.16985548427328467 -0.41482062079012394 -0.5264781415462494
v 0.07197943632490933 -0.41636205278337 -0.5264781415462494
v -0.03521851031109691 -0.41636205278337 -0.5264781415462494
v -0.14241645112633705 -0.41636205278337 -0.5264781415462494
v -0.24961440358310938 -0.41636205278337 -0.5264781415462494
v -0.35681233275681734 -0.41636205278337 -0.5264781415462494
v -0.46401028521358967 -0.41636205278337 -0.5264781415462494
v -0.5712082143872976 -0.41636205278337 -0.5264781415462494
v -0.6784061901271343 -0.41636205278337 -0.5264781415462494
v -0.7929687388241291 -0.41559552773833275 -0.5264781415462494
v -0.7929687388241291 -0.3116966690868139 -0.5264781415462494
v -0.7929687388241291 -0.20779776386916637 -0.5264781415462494
v -0.7929687388241291 -0.10389888193458319 -0.5264781415462494
v -0.7929687388241291 -5.551115205843844e-16 -0.5264781415462494
v -0.7929687388241291 0.10389888193458319 -0.5264781415462494
v -0.7929687388241291 0.20779776386916637 -0.5264781415462494
v -0.7929687388241291 0.3116966690868139 -0.5264781415462494
v -0.8011996746063232 0.41636205278337 -0.5264781415462494
v -0.701799476519227 0.41636205278337 -0.5264781415462494
v -0.6023993249982595 0.41636205278337 -0.5264781415462494
v -0.5029991269111633 0.41636205278337 -0.5264781415462494
v -0.40359897539019585 0.41636205278337 -0.5264781415462494
v -0.304198800586164 0.41636205278337 -0.5264781415462494
v -0.20479862578213215 0.41636205278337 -0.5264781415462494
v -0.10539846261963248 0.41636205278337 -0.5264781415462494
v -0.005998286360409111 0.41636205278337 -0.5264781415462494
v 0.09340188698843122 0.41636205278337 -0.5264781415462494
v 0.19280206179246306 0.41636205278337 -0.5264781415462494
v 0.2862840658053756 0.4137805197387934 -0.5264781415462494
v 0.37329618353396654 0.4079416859894991 -0.5264781415462494
v 0.44730203226208687 0.3967209253460169 -0.5264781415462494
v 0.5474669393151999 0.36142042372375727 -0.5264781415462494
v 0.6510319653898478 0.3137744264677167 -0.5264781415462494
v 0.7406895980238914 0.21266627591103315 -0.5264781415462494
v 0.7793857716023922 0.12469468638300896 -0.5264781415462494
v 0.7941700518131256 -0.010702414874685928 -0.5264781415462494
v 0.781843438744545 -0.08625987684354186 -0.5264781415462494
v 0.7558722514659166 -0.1611390500329435 -0.5264781415462494
v 0.6257831119000912 -0.17478467198088765 -0.5264781415462494
v 0.5583576858043671 -0.23883136454969645 -0.5264781415462494
v 0.4762840922921896 -0.27085659094154835 -0.5264781415462494
v 0.35750872921198606 -0.29440377838909626 -0.5264781415462494
v 0.25045275688171387 -0.30773868784308434 -0.5264781415462494
v 0.16444145003333688 -0.31144670210778713 -0.5264781415462494
v 0.07197943632490933 -0.31284643337130547 -0.5264781415462494
v -0.03521851031109691 -0.31284643337130547 -0.5264781415462494
v -0.14241645112633705 -0.31284643337130547 -0.5264781415462494
v -0.24961440358310938 -0.31284643337130547 -0.5264781415462494
v -0.35681233275681734 -0.31284643337130547 -0.5264781415462494
v -0.46401028521358967 -0.31284643337130547 -0.5264781415462494
v -0.5712082143872976 -0.31284643337130547 -0.5264781415462494
v -0.6894531194120646 -0.3116966690868139 -0.5264781415462494
v -0.6894531194120646 -0.20779776386916637 -0.5264781415462494
v -0.6894531194120646 -0.10389888193458319 -0.5264781415462494
v -0.6894531194120646 -5.551115205843844e-16 -0.5264781415462494
v -0.6894531194120646 0.10389888193458319 -0.5264781415462494
v -0.6894531194120646 0.20779776386916637 -0.5264781415462494
v -0.701799476519227 0.31284643337130547 -0.5264781415462494
v -0.6023993249982595 0.31284643337130547 -0.5264781415462494
v -0.5029991269111633 0.31284643337130547 -0.5264781415462494
v -0.40359897539019585 0.31284643337130547 -0.5264781415462494
v -0.304198800586164 0.31284643337130547 -0.5264781415462494
v -0.20479862578213215 0.31284643337130547 -0.5264781415462494
v -0.10539846261963248 0.31284643337130547 -0.5264781415462494
v -0.005998286360409111 0.31284643337130547 -0.5264781415462494
v 0.09340188698843122 0.31284643337130547 -0.5264781415462494
v 0.19280206179246306 0.31284643337130547 -0.5264781415462494
v 0.27803187258541584 0.3105943324044347 -0.5264781415462494
v 0.4128948785364628 0.2990908222272992 -0.5264781415462494
v 0.5735916085541248 0.24508321657776833 -0.5264781415462494
v 0.6459356751292944 0.17098677344620228 -0.5264781415462494
v 0.6846318487077951 0.08301518973894417 -0.5264781415462494
v 0.6912550888955593 -0.021837683743797243 -0.5264781415462494
v 0.588340125977993 -0.032972951885312796 -0.5264781415462494
v 0.5544912070035934 -0.09973173728212714 -0.5264781415462494
v 0.4870657343417406 -0.16377842985093594 -0.5264781415462494
v 0.3447136841714382 -0.1916819717735052 -0.5264781415462494
v 0.23765771184116602 -0.2050168812274933 -0.5264781415462494
v 0.15902741579338908 -0.2080727368593216 -0.5264781415462494
v 0.07197943632490933 -0.2093308139592409 -0.5264781415462494
v -0.03521851031109691 -0.2093308139592409 -0.5264781415462494
v -0.14241645112633705 -0.2093308139592409 -0.5264781415462494
v -0.24961440358310938 -0.2093308139592409 -0.5264781415462494
v -0.35681233275681734 -0.2093308139592409 -0.5264781415462494
v -0.46401028521358967 -0.2093308139592409 -0.5264781415462494
v -0.5859375 -0.20779776386916637 -0.5264781415462494
v -0.5859375 -0.10389888193458319 -0.5264781415462494
v -0.5859375 -5.551115205843844e-16 -0.5264781415462494
v -0.5859375 0.10389888193458319 -0.5264781415462494
v -0.6023993249982595 0.2093308139592409 -0.5264781415462494
v -0.5029991269111633 0.2093308139592409 -0.5264781415462494
v -0.40359897539019585 0.2093308139592409 -0.5264781415462494
v -0.304198800586164 0.2093308139592409 -0.5264781415462494
v -0.20479862578213215 0.2093308139592409 -0.5264781415462494
v -0.10539846261963248 0.2093308139592409 -0.5264781415462494
v -0.005998286360409111 0.2093308139592409 -0.5264781415462494
v 0.09340188698843122 0.2093308139592409 -0.5264781415462494
v 0.19280206179246306 0.2093308139592409 -0.5264781415462494
v 0.2697796793654561 0.207408145070076 -0.5264781415462494
v 0.3784877248108387 0.2014607423916459 -0.5264781415462494
v 0.4786526318639517 0.16616026405245066 -0.5264781415462494
v 0.5511817988008261 0.12930728262290359 -0.5264781415462494
v 0.5898779258131981 0.041335696005262434 -0.5264781415462494
v 0.483199255540967 -0.024678799672983587 -0.5264781415462494
v 0.41577378287911415 -0.08872549515217543 -0.5264781415462494
v 0.33191866241395473 -0.08896015351638198 -0.5264781415462494
v 0.22486266680061817 -0.10229505132883787 -0.5264781415462494
v 0.07197943632490933 -0.10581519454717636 -0.5264781415462494
v -0.03521851031109691 -0.10581519454717636 -0.5264781415462494
v -0.14241645112633705 -0.10581519454717636 -0.5264781415462494
v -0.24961440358310938 -0.10581519454717636 -0.5264781415462494
v -0.35681233275681734 -0.10581519454717636 -0.5264781415462494
v -0.48242188058793545 -0.10389888193458319 -0.5264781415462494
v -0.48242188058793545 -5.551115205843844e-16 -0.5264781415462494
v -0.5029991269111633 0.10581519454717636 -0.5264781415462494
v -0.40359897539019585 0.10581519454717636 -0.5264781415462494
v -0.304198800586164 0.10581519454717636 -0.5264781415462494
v -0.20479862578213215 0.10581519454717636 -0.5264781415462494
v -0.10539846261963248 0.10581519454717636 -0.5264781415462494
v -0.005998286360409111 0.10581519454717636 -0.5264781415462494
v 0.09340188698843122 0.10581519454717636 -0.5264781415462494
v 0.19280206179246306 0.10581519454717636 -0.5264781415462494
v 0.3440805710852146 0.10383067419752479 -0.5264781415462494
v 0.456427875906229 0.08762779179960489 -0.5264781415462494
v 0.3444818314164877 -0.013672563363797963 -0.5264781415462494
v 0.26689323130995035 0.004980175799573772 -0.5264781415462494
v 0.19280206179246306 0.0022995662220637314 -0.5264781415462494
v 0.09340188698843122 0.0022995662220637314 -0.5264781415462494
v -0.005998286360409111 0.0022995662220637314 -0.5264781415462494
v -0.10539846261963248 0.0022995662220637314 -0.5264781415462494
v -0.20479862578213215 0.0022995662220637314 -0.5264781415462494
v -0.304198800586164 0.0022995662220637314 -0.5264781415462494
v -0.40359897539019585 0.0022995662220637314 -0.5264781415462494
v 0.6386737339198589 -0.424638157710433 0.5264781415462494
v 0.5632172338664532 -0.45875166542828083 0.5264781415462494
v 0.717978598549962 -0.3758318489417434 0.5264781415462494
v 0.8196134120225906 -0.2609438495710492 0.5264781415462494
v 0.888559129089117 -0.07792979595251381 0.5264781415462494
v 0.8551063947379589 -0.19060192862525582 0.5264781415462494
v 0.8970850147306919 0.0004328543582232669 0.5264781415462494
v 0.8878510445356369 0.09056318085640669 0.5264781415462494
v 0.8741396479308605 0.16637417720630765 0.5264781415462494
v 0.8354435674846172 0.25434575509279966 0.5264781415462494
v 0.7888219319283962 0.31523474026471376 0.5264781415462494
v 0.728472275659442 0.3824656130746007 0.5264781415462494
v 0.5818740930408239 0.45905052684247494 0.5264781415462494
v 0.6588912568986416 0.4186860751360655 0.5264781415462494
v 0.48170918598771095 0.4943510051816702 0.5264781415462494
v 0.3922048956155777 0.509715685620904 0.5264781415462494
v 0.2945362590253353 0.5169666837900877 0.5264781415462494
v 0.19280206179246306 0.5198776721954346 0.5264781415462494
v 0.09340188698843122 0.5198776721954346 0.5264781415462494
v -0.005998286360409111 0.5198776721954346 0.5264781415462494
v -0.10539846261963248 0.5198776721954346 0.5264781415462494
v -0.20479862578213215 0.5198776721954346 0.5264781415462494
v -0.304198800586164 0.5198776721954346 0.5264781415462494
v -0.40359897539019585 0.5198776721954346 0.5264781415462494
v -0.5029991269111633 0.5198776721954346 0.5264781415462494
v -0.6023993249982595 0.5198776721954346 0.5264781415462494
v -0.701799476519227 0.5198776721954346 0.5264781415462494
v -0.8011996746063232 0.5198776721954346 0.5264781415462494
v -0.9005998261272907 0.5198776721954346 0.5264781415462494
v -0.8964844048023224 0.41559552773833275 0.5264781415462494
v -0.8964844048023224 0.3116966690868139 0.5264781415462494
v -0.8964844048023224 0.20779776386916637 0.5264781415462494
v -0.8964844048023224 0.10389888193458319 0.5264781415462494
v -0.8964844048023224 -5.551115205843844e-16 0.5264781415462494
v -0.8964844048023224 -0.10389888193458319 0.5264781415462494
v -0.8964844048023224 -0.20779776386916637 0.5264781415462494
v -0.8964844048023224 -0.3116966690868139 0.5264781415462494
v -0.8964844048023224 -0.41559552773833275 0.5264781415462494
v -0.8964844048023224 -0.5194944329559803 0.5264781415462494
v -0.7856041193008423 -0.5198776721954346 0.5264781415462494
v -0.6784061901271343 -0.5198776721954346 0.5264781415462494
v -0.5712082143872976 -0.5198776721954346 0.5264781415462494
v -0.46401028521358967 -0.5198776721954346 0.5264781415462494
v -0.35681233275681734 -0.5198776721954346 0.5264781415462494
v -0.24961440358310938 -0.5198776721954346 0.5264781415462494
v -0.14241645112633705 -0.5198776721954346 0.5264781415462494
v -0.03521851031109691 -0.5198776721954346 0.5264781415462494
v 0.1752695068717003 -0.5181945860385895 0.5264781415462494
v 0.07197943632490933 -0.5198776721954346 0.5264781415462494
v 0.2760428236797452 -0.5131823010742664 0.5264781415462494
v 0.38309881929308176 -0.4998474381864071 0.5264781415462494
v 0.4801440052688122 -0.4788571037352085 0.5264781415462494
v 0.5844187922775745 -0.3364798380061984 0.5264781415462494
v 0.4586438648402691 -0.3775988705456257 0.5264781415462494
v 0.6637236569076777 -0.28767355252057314 0.5264781415462494
v 0.7394839078187943 -0.19540954381227493 0.5264781415462494
v 0.7941700518131256 -0.010702414874685928 0.5264781415462494
v 0.7701394148170948 -0.1255563460290432 0.5264781415462494
v 0.7793857716023922 0.12469468638300896 0.5264781415462494
v 0.7406895980238914 0.21266627591103315 0.5264781415462494
v 0.6510319653898478 0.3137744264677167 0.5264781415462494
v 0.5474669393151999 0.36142042372375727 0.5264781415462494
v 0.44730203226208687 0.3967209253460169 0.5264781415462494
v 0.37329618353396654 0.4079416859894991 0.5264781415462494
v 0.2862840658053756 0.4137805197387934 0.5264781415462494
v 0.19280206179246306 0.41636205278337 0.5264781415462494
v 0.09340188698843122 0.41636205278337 0.5264781415462494
v -0.005998286360409111 0.41636205278337 0.5264781415462494
v -0.10539846261963248 0.41636205278337 0.5264781415462494
v -0.20479862578213215 0.41636205278337 0.5264781415462494
v -0.304198800586164 0.41636205278337 0.5264781415462494
v -0.40359897539019585 0.41636205278337 0.5264781415462494
v -0.5029991269111633 0.41636205278337 0.5264781415462494
v -0.6023993249982595 0.41636205278337 0.5264781415462494
v -0.701799476519227 0.41636205278337 0.5264781415462494
v -0.8011996746063232 0.41636205278337 0.5264781415462494
v -0.7929687388241291 0.3116966690868139 0.5264781415462494
v -0.7929687388241291 0.20779776386916637 0.5264781415462494
v -0.7929687388241291 0.10389888193458319 0.5264781415462494
v -0.7929687388241291 -5.551115205843844e-16 0.5264781415462494
v -0.7929687388241291 -0.10389888193458319 0.5264781415462494
v -0.7929687388241291 -0.20779776386916637 0.5264781415462494
v -0.7929687388241291 -0.3116966690868139 0.5264781415462494
v -0.7929687388241291 -0.41559552773833275 0.5264781415462494
v -0.6784061901271343 -0.41636205278337 0.5264781415462494
v -0.5712082143872976 -0.41636205278337 0.5264781415462494
v -0.46401028521358967 -0.41636205278337 0.5264781415462494
v -0.35681233275681734 -0.41636205278337 0.5264781415462494
v -0.24961440358310938 -0.41636205278337 0.5264781415462494
v -0.14241645112633705 -0.41636205278337 0.5264781415462494
v -0.03521851031109691 -0.41636205278337 0.5264781415462494
v 0.26324777863919735 -0.4104604944586754 0.5264781415462494
v 0.16985548427328467 -0.41482062079012394 0.5264781415462494
v 0.07197943632490933 -0.41636205278337 0.5264781415462494
v 0.3703037742525339 -0.3971255850046873 0.5264781415462494
v 0.5301638506352901 -0.2483215183019638 0.5264781415462494
v 0.43714377097785473 -0.27634063735604286 0.5264781415462494
v 0.35750872921198606 -0.29440377838909626 0.5264781415462494
v 0.6094687152653933 -0.19951523281633854 0.5264781415462494
v 0.6593543570488691 -0.12987523805350065 0.5264781415462494
v 0.6846318487077951 0.08301518973894417 0.5264781415462494
v 0.6912550888955593 -0.021837683743797243 0.5264781415462494
v 0.6459356751292944 0.17098677344620228 0.5264781415462494
v 0.5735916085541248 0.24508321657776833 0.5264781415462494
v 0.4128948785364628 0.2990908222272992 0.5264781415462494
v 0.27803187258541584 0.3105943324044347 0.5264781415462494
v 0.19280206179246306 0.31284643337130547 0.5264781415462494
v 0.09340188698843122 0.31284643337130547 0.5264781415462494
v -0.005998286360409111 0.31284643337130547 0.5264781415462494
v -0.10539846261963248 0.31284643337130547 0.5264781415462494
v -0.20479862578213215 0.31284643337130547 0.5264781415462494
v -0.304198800586164 0.31284643337130547 0.5264781415462494
v -0.40359897539019585 0.31284643337130547 0.5264781415462494
v -0.5029991269111633 0.31284643337130547 0.5264781415462494
v -0.6023993249982595 0.31284643337130547 0.5264781415462494
v -0.701799476519227 0.31284643337130547 0.5264781415462494
v -0.6894531194120646 0.20779776386916637 0.5264781415462494
v -0.6894531194120646 0.10389888193458319 0.5264781415462494
v -0.6894531194120646 -5.551115205843844e-16 0.5264781415462494
v -0.6894531194120646 -0.10389888193458319 0.5264781415462494
v -0.6894531194120646 -0.20779776386916637 0.5264781415462494
v -0.6894531194120646 -0.3116966690868139 0.5264781415462494
v -0.5712082143872976 -0.31284643337130547 0.5264781415462494
v -0.46401028521358967 -0.31284643337130547 0.5264781415462494
v -0.35681233275681734 -0.31284643337130547 0.5264781415462494
v -0.24961440358310938 -0.31284643337130547 0.5264781415462494
v -0.14241645112633705 -0.31284643337130547 0.5264781415462494
v -0.03521851031109691 -0.31284643337130547 0.5264781415462494
v 0.25045275688171387 -0.30773868784308434 0.5264781415462494
v 0.16444145003333688 -0.31144670210778713 0.5264781415462494
v 0.07197943632490933 -0.31284643337130547 0.5264781415462494
v 0.4759089555591345 -0.1601632102392614 0.5264781415462494
v 0.3447136841714382 -0.1916819717735052 0.5264781415462494
v 0.5552138201892376 -0.11135692475363612 0.5264781415462494
v 0.588340125977993 -0.032972951885312796 0.5264781415462494
v 0.5511817988008261 0.12930728262290359 0.5264781415462494
v 0.5898779258131981 0.041335696005262434 0.5264781415462494
v 0.4786526318639517 0.16616026405245066 0.5264781415462494
v 0.3784877248108387 0.2014607423916459 0.5264781415462494
v 0.2697796793654561 0.207408145070076 0.5264781415462494
v 0.19280206179246306 0.2093308139592409 0.5264781415462494
v 0.09340188698843122 0.2093308139592409 0.5264781415462494
v -0.005998286360409111 0.2093308139592409 0.5264781415462494
v -0.10539846261963248 0.2093308139592409 0.5264781415462494
v -0.20479862578213215 0.2093308139592409 0.5264781415462494
v -0.304198800586164 0.2093308139592409 0.5264781415462494
v -0.40359897539019585 0.2093308139592409 0.5264781415462494
v -0.5029991269111633 0.2093308139592409 0.5264781415462494
v -0.6023993249982595 0.2093308139592409 0.5264781415462494
v -0.5859375 0.10389888193458319 0.5264781415462494
v -0.5859375 -5.551115205843844e-16 0.5264781415462494
v -0.5859375 -0.10389888193458319 0.5264781415462494
v -0.5859375 -0.20779776386916637 0.5264781415462494
v -0.46401028521358967 -0.2093308139592409 0.5264781415462494
v -0.35681233275681734 -0.2093308139592409 0.5264781415462494
v -0.24961440358310938 -0.2093308139592409 0.5264781415462494
v -0.14241645112633705 -0.2093308139592409 0.5264781415462494
v -0.03521851031109691 -0.2093308139592409 0.5264781415462494
v 0.23765771184116602 -0.2050168812274933 0.5264781415462494
v 0.15902741579338908 -0.2080727368593216 0.5264781415462494
v 0.07197943632490933 -0.2093308139592409 0.5264781415462494
v 0.5009588785469532 -0.023198621056508273 0.5264781415462494
v 0.4216540139168501 -0.07200490799732506 0.5264781415462494
v 0.33191866241395473 -0.08896015351638198 0.5264781415462494
v 0.456427875906229 0.08762779179960489 0.5264781415462494
v 0.3440805710852146 0.10383067419752479 0.5264781415462494
v 0.19280206179246306 0.10581519454717636 0.5264781415462494
v 0.09340188698843122 0.10581519454717636 0.5264781415462494
v -0.005998286360409111 0.10581519454717636 0.5264781415462494
v -0.10539846261963248 0.10581519454717636 0.5264781415462494
v -0.20479862578213215 0.10581519454717636 0.5264781415462494
v -0.304198800586164 0.10581519454717636 0.5264781415462494
v -0.40359897539019585 0.10581519454717636 0.5264781415462494
v -0.5029991269111633 0.10581519454717636 0.5264781415462494
v -0.48242188058793545 -5.551115205843844e-16 0.5264781415462494
v -0.48242188058793545 -0.10389888193458319 0.5264781415462494
v -0.35681233275681734 -0.10581519454717636 0.5264781415462494
v -0.24961440358310938 -0.10581519454717636 0.5264781415462494
v -0.14241645112633705 -0.10581519454717636 0.5264781415462494
v -0.03521851031109691 -0.10581519454717636 0.5264781415462494
v 0.22486266680061817 -0.10229505132883787 0.5264781415462494
v 0.07197943632490933 -0.10581519454717636 0.5264781415462494
v 0.36739909555763006 0.0161534029757604 0.5264781415462494
v 0.26689323130995035 0.004980175799573772 0.5264781415462494
v 0.19280206179246306 0.0022995662220637314 0.5264781415462494
v 0.09340188698843122 0.0022995662220637314 0.5264781415462494
v -0.005998286360409111 0.0022995662220637314 0.5264781415462494
v -0.10539846261963248 0.0022995662220637314 0.5264781415462494
v -0.20479862578213215 0.0022995662220637314 0.5264781415462494
v -0.304198800586164 0.0022995662220637314 0.5264781415462494
v -0.40359897539019585 0.0022995662220637314 0.5264781415462494
v 0.9900917299091816 -0.0926511362195015 -0.421182531863451
v 0.948228407651186 -0.23367749527096748 -0.421182531863451
v 0.9900917299091816 -0.0926511362195015 0.421182531863451
v 0.9900917299091816 -0.0926511362195015 0.2105912659317255
v 0.9900917299091816 -0.0926511362195015 0.31588689889758825
v 0.9900917299091816 -0.0926511362195015 0.0
v 0.9900917299091816 -0.0926511362195015 0.10529563296586275
v 0.9900917299091816 -0.0926511362195015 -0.10529563296586275
v 0.9900917299091816 -0.0926511362195015 -0.2105912659317255
v 0.9900917299091816 -0.0926511362195015 -0.31588689889758825
v 0.948228407651186 -0.23367749527096748 0.421182531863451
v 0.948228407651186 -0.23367749527096748 0.31588689889758825
v 0.948228407651186 -0.23367749527096748 0.2105912659317255
v 0.948228407651186 -0.23367749527096748 0.10529563296586275
v 0.948228407651186 -0.23367749527096748 1.1102229998097382e-16
v 0.948228407651186 -0.23367749527096748 -0.10529563296586275
v 0.948228407651186 -0.23367749527096748 -0.2105912659317255
v 0.948228407651186 -0.23367749527096748 -0.31588689889758825
v 0.8728338405489922 0.37571194116026163 -0.42368886061012745
v 0.9688936173915863 0.20805366802960634 -0.42368886061012745
v 0.9301974438130856 0.29602525755763054 -0.42368886061012745
v 0.9891446679830551 0.1118958811275661 -0.42368886061012745
v 0.8728338405489922 0.37571194116026163 0.42368886061012745
v 0.8760885335505009 0.37176592741161585 0.31588689889758825
v 0.8760885335505009 0.37176592741161585 0.2105912659317255
v 0.8760885335505009 0.37176592741161585 0.10529563296586275
v 0.8760885335505009 0.37176592741161585 0.0
v 0.8760885335505009 0.37176592741161585 -0.10529563296586275
v 0.8760885335505009 0.37176592741161585 -0.2105912659317255
v 0.8760885335505009 0.37176592741161585 -0.31588689889758825
v 0.9891446679830551 0.1118958811275661 0.42368886061012745
v 0.9688936173915863 0.20805366802960634 0.42368886061012745
v 0.9301974438130856 0.29602525755763054 0.42368886061012745
v 0.9884149767458439 0.11696256697177887 0.31588689889758825
v 0.9884149767458439 0.11696256697177887 0.2105912659317255
v 0.9884149767458439 0.11696256697177887 0.10529563296586275
v 0.9884149767458439 0.11696256697177887 1.1102229998097382e-16
v 0.9884149767458439 0.11696256697177887 -0.10529563296586275
v 0.9884149767458439 0.11696256697177887 -0.2105912659317255
v 0.9884149767458439 0.11696256697177887 -0.31588689889758825
v 0.9301974438130856 0.29602525755763054 -0.3208996029570699
v 0.9688936173915863 0.20805366802960634 -0.3208996029570699
v 0.9301974438130856 0.29602525755763054 0.3208996029570699
v 0.935160368680954 0.28744684532284737 0.2105912659317255
v 0.935160368680954 0.28744684532284737 0.10529563296586275
v 0.935160368680954 0.28744684532284737 0.0
v 0.935160368680954 0.28744684532284737 -0.10529563296586275
v 0.935160368680954 0.28744684532284737 -0.2105912659317255
v 0.9688936173915863 0.20805366802960634 0.3208996029570699
v 0.9659138508141041 0.21751222666352987 0.2105912659317255
v 0.9659138508141041 0.21751222666352987 0.10529563296586275
v 0.9659138508141041 0.21751222666352987 0.0
v 0.9659138508141041 0.21751222666352987 -0.10529563296586275
v 0.9659138508141041 0.21751222666352987 -0.2105912659317255
v 0.29890858568251133 0.620328402146697 -0.421182531863451
v 0.4111136309802532 0.6114896386861801 -0.42296252213418484
v 0.516116339713335 0.5919810850173235 -0.42296252213418484
v 0.616281246766448 0.5566806066781282 -0.42296252213418484
v 0.7155208382755518 0.5055191460996866 -0.421182531863451
v 0.29890858568251133 0.620328402146697 0.421182531863451
v 0.29890858568251133 0.620328402146697 0.31588689889758825
v 0.29890858568251133 0.620328402146697 0.2105912659317255
v 0.29890858568251133 0.620328402146697 0.10529563296586275
v 0.29890858568251133 0.620328402146697 0.0
v 0.29890858568251133 0.620328402146697 -0.10529563296586275
v 0.29890858568251133 0.620328402146697 -0.2105912659317255
v 0.29890858568251133 0.620328402146697 -0.31588689889758825
v 0.7155208382755518 0.5055191460996866 0.421182531863451
v 0.616281246766448 0.5566806066781282 0.42296252213418484
v 0.516116339713335 0.5919810850173235 0.42296252213418484
v 0.4111136309802532 0.6114896386861801 0.42296252213418484
v 0.7155208382755518 0.5055191460996866 0.31588689889758825
v 0.7155208382755518 0.5055191460996866 0.2105912659317255
v 0.7155208382755518 0.5055191460996866 0.10529563296586275
v 0.7155208382755518 0.5055191460996866 0.0
v 0.7155208382755518 0.5055191460996866 -0.10529563296586275
v 0.7155208382755518 0.5055191460996866 -0.2105912659317255
v 0.7155208382755518 0.5055191460996866 -0.31588689889758825
v 0.40352437645196915 0.6123972125351429 -0.31588689889758825
v 0.516116339713335 0.5919810850173235 -0.3194469027221203
v 0.6231956649571657 0.5535701289772987 -0.31588689889758825
v 0.40352437645196915 0.6123972125351429 0.31588689889758825
v 0.40352437645196915 0.6123972125351429 0.2105912659317255
v 0.40352437645196915 0.6123972125351429 0.10529563296586275
v 0.40352437645196915 0.6123972125351429 0.0
v 0.40352437645196915 0.6123972125351429 -0.10529563296586275
v 0.40352437645196915 0.6123972125351429 -0.2105912659317255
v 0.6231956649571657 0.5535701289772987 0.31588689889758825
v 0.516116339713335 0.5919810850173235 0.3194469027221203
v 0.6231956649571657 0.5535701289772987 0.2105912659317255
v 0.6231956649571657 0.5535701289772987 0.10529563296586275
v 0.6231956649571657 0.5535701289772987 0.0
v 0.6231956649571657 0.5535701289772987 -0.10529563296586275
v 0.6231956649571657 0.5535701289772987 -0.2105912659317255
v 0.5051585845649242 0.5947334691882133 -0.2105912659317255
v 0.5051585845649242 0.5947334691882133 0.2105912659317255
v 0.5051585845649242 0.5947334691882133 0.10529563296586275
v 0.5051585845649242 0.5947334691882133 0.0
v 0.5051585845649242 0.5947334691882133 -0.10529563296586275
v -0.9005998261272907 0.6233933381736279 -0.42439820244908333
v -0.8011996746063232 0.6233933381736279 -0.42439820244908333
v -0.701799476519227 0.6233933381736279 -0.42439820244908333
v -0.6023993249982595 0.6233933381736279 -0.42439820244908333
v -0.5029991269111633 0.6233933381736279 -0.42439820244908333
v -0.40359897539019585 0.6233933381736279 -0.42439820244908333
v -0.304198800586164 0.6233933381736279 -0.42439820244908333
v -0.20479862578213215 0.6233933381736279 -0.42439820244908333
v -0.10539846261963248 0.6233933381736279 -0.42439820244908333
v -0.005998286360409111 0.6233933381736279 -0.42439820244908333
v 0.09340188698843122 0.6233933381736279 -0.42439820244908333
v -0.9005998261272907 0.6233933381736279 0.42439820244908333
v -0.8979200385510921 0.6233933381736279 0.31588689889758825
v -0.8979200385510921 0.6233933381736279 0.2105912659317255
v -0.8979200385510921 0.6233933381736279 0.10529563296586275
v -0.8979200385510921 0.6233933381736279 0.0
v -0.8979200385510921 0.6233933381736279 -0.10529563296586275
v -0.8979200385510921 0.6233933381736279 -0.2105912659317255
v -0.8979200385510921 0.6233933381736279 -0.31588689889758825
v 0.09340188698843122 0.6233933381736279 0.42439820244908333
v -0.005998286360409111 0.6233933381736279 0.42439820244908333
v -0.10539846261963248 0.6233933381736279 0.42439820244908333
v -0.20479862578213215 0.6233933381736279 0.42439820244908333
v -0.304198800586164 0.6233933381736279 0.42439820244908333
v -0.40359897539019585 0.6233933381736279 0.42439820244908333
v -0.5029991269111633 0.6233933381736279 0.42439820244908333
v -0.6023993249982595 0.6233933381736279 0.42439820244908333
v -0.701799476519227 0.6233933381736279 0.42439820244908333
v -0.8011996746063232 0.6233933381736279 0.42439820244908333
v 0.0907221285160631 0.6233933381736279 0.31588689889758825
v 0.0907221285160631 0.6233933381736279 0.2105912659317255
v 0.0907221285160631 0.6233933381736279 0.10529563296586275
v 0.0907221285160631 0.6233933381736279 0.0
v 0.0907221285160631 0.6233933381736279 -0.10529563296586275
v 0.0907221285160631 0.6233933381736279 -0.2105912659317255
v 0.0907221285160631 0.6233933381736279 -0.31588689889758825
v -0.8011996746063232 0.6233933381736279 -0.322318309918046
v -0.701799476519227 0.6233933381736279 -0.322318309918046
v -0.6023993249982595 0.6233933381736279 -0.322318309918046
v -0.5029991269111633 0.6233933381736279 -0.322318309918046
v -0.40359897539019585 0.6233933381736279 -0.322318309918046
v -0.304198800586164 0.6233933381736279 -0.322318309918046
v -0.20479862578213215 0.6233933381736279 -0.322318309918046
v -0.10539846261963248 0.6233933381736279 -0.322318309918046
v -0.005998286360409111 0.6233933381736279 -0.322318309918046
v -0.8011996746063232 0.6233933381736279 0.322318309918046
v -0.7958401925861835 0.6233933381736279 0.2105912659317255
v -0.7958401925861835 0.6233933381736279 0.10529563296586275
v -0.7958401925861835 0.6233933381736279 0.0
v -0.7958401925861835 0.6233933381736279 -0.10529563296586275
v -0.7958401925861835 0.6233933381736279 -0.2105912659317255
v -0.005998286360409111 0.6233933381736279 0.322318309918046
v -0.10539846261963248 0.6233933381736279 0.322318309918046
v -0.20479862578213215 0.6233933381736279 0.322318309918046
v -0.304198800586164 0.6233933381736279 0.322318309918046
v -0.40359897539019585 0.6233933381736279 0.322318309918046
v -0.5029991269111633 0.6233933381736279 0.322318309918046
v -0.6023993249982595 0.6233933381736279 0.322318309918046
v -0.701799476519227 0.6233933381736279 0.322318309918046
v -0.011357793846400455 0.6233933381736279 0.2105912659317255
v -0.011357793846400455 0.6233933381736279 0.10529563296586275
v -0.011357793846400455 0.6233933381736279 0.0
v -0.011357793846400455 0.6233933381736279 -0.10529563296586275
v -0.011357793846400455 0.6233933381736279 -0.2105912659317255
v -0.701799476519227 0.6233933381736279 -0.22023837082087994
v -0.6023993249982595 0.6233933381736279 -0.22023837082087994
v -0.5029991269111633 0.6233933381736279 -0.22023837082087994
v -0.40359897539019585 0.6233933381736279 -0.22023837082087994
v -0.304198800586164 0.6233933381736279 -0.22023837082087994
v -0.20479862578213215 0.6233933381736279 -0.22023837082087994
v -0.10539846261963248 0.6233933381736279 -0.22023837082087994
v -0.701799476519227 0.6233933381736279 0.22023837082087994
v -0.6937602069228888 0.6233933381736279 0.10529563296586275
v -0.6937602069228888 0.6233933381736279 0.0
v -0.6937602069228888 0.6233933381736279 -0.10529563296586275
v -0.10539846261963248 0.6233933381736279 0.22023837082087994
v -0.20479862578213215 0.6233933381736279 0.22023837082087994
v -0.304198800586164 0.6233933381736279 0.22023837082087994
v -0.40359897539019585 0.6233933381736279 0.22023837082087994
v -0.5029991269111633 0.6233933381736279 0.22023837082087994
v -0.6023993249982595 0.6233933381736279 0.22023837082087994
v -0.11343772057443857 0.6233933381736279 0.10529563296586275
v -0.11343772057443857 0.6233933381736279 0.0
v -0.11343772057443857 0.6233933381736279 -0.10529563296586275
v -0.6023993249982595 0.6233933381736279 -0.11815844336524606
v -0.5029991269111633 0.6233933381736279 -0.11815844336524606
v -0.40359897539019585 0.6233933381736279 -0.11815844336524606
v -0.304198800586164 0.6233933381736279 -0.11815844336524606
v -0.20479862578213215 0.6233933381736279 -0.11815844336524606
v -0.6023993249982595 0.6233933381736279 0.11815844336524606
v -0.5916803143918514 0.6233933381736279 0.0
v -0.20479862578213215 0.6233933381736279 0.11815844336524606
v -0.304198800586164 0.6233933381736279 0.11815844336524606
v -0.40359897539019585 0.6233933381736279 0.11815844336524606
v -0.5029991269111633 0.6233933381736279 0.11815844336524606
v -0.21551763638854027 0.6233933381736279 0.0
v -0.5029991269111633 0.6233933381736279 -0.016078523185569793
v -0.40359897539019585 0.6233933381736279 -0.016078523185569793
v -0.304198800586164 0.6233933381736279 -0.016078523185569793
v -0.9999999776482582 -0.5194944329559803 -0.42296252213418484
v -0.9999999776482582 -0.41559552773833275 -0.42296252213418484
v -0.9999999776482582 -0.3116966690868139 -0.42296252213418484
v -0.9999999776482582 -0.20779776386916637 -0.42296252213418484
v -0.9999999776482582 -0.10389888193458319 -0.42296252213418484
v -0.9999999776482582 -5.551115205843844e-16 -0.42296252213418484
v -0.9999999776482582 0.10389888193458319 -0.42296252213418484
v -0.9999999776482582 0.20779776386916637 -0.42296252213418484
v -0.9999999776482582 0.3116966690868139 -0.42296252213418484
v -0.9999999776482582 0.41559552773833275 -0.42296252213418484
v -0.9999999776482582 0.5194944329559803 -0.42296252213418484
v -0.9999999776482582 -0.5194944329559803 0.42296252213418484
v -0.9999999776482582 -0.5198776721954346 0.31588689889758825
v -0.9999999776482582 -0.5198776721954346 0.2105912659317255
v -0.9999999776482582 -0.5198776721954346 0.10529563296586275
v -0.9999999776482582 -0.5198776721954346 0.0
v -0.9999999776482582 -0.5198776721954346 -0.10529563296586275
v -0.9999999776482582 -0.5198776721954346 -0.2105912659317255
v -0.9999999776482582 -0.5198776721954346 -0.31588689889758825
v -0.9999999776482582 0.5194944329559803 0.42296252213418484
v -0.9999999776482582 0.41559552773833275 0.42296252213418484
v -0.9999999776482582 0.3116966690868139 0.42296252213418484
v -0.9999999776482582 0.20779776386916637 0.42296252213418484
v -0.9999999776482582 0.10389888193458319 0.42296252213418484
v -0.9999999776482582 -5.551115205843844e-16 0.42296252213418484
v -0.9999999776482582 -0.10389888193458319 0.42296252213418484
v -0.9999999776482582 -0.20779776386916637 0.42296252213418484
v -0.9999999776482582 -0.3116966690868139 0.42296252213418484
v -0.9999999776482582 -0.41559552773833275 0.42296252213418484
v -0.9999999776482582 0.5198776721954346 0.31588689889758825
v -0.9999999776482582 0.5198776721954346 0.2105912659317255
v -0.9999999776482582 0.5198776721954346 0.10529563296586275
v -0.9999999776482582 0.5198776721954346 0.0
v -0.9999999776482582 0.5198776721954346 -0.10529563296586275
v -0.9999999776482582 0.5198776721954346 -0.2105912659317255
v -0.9999999776482582 0.5198776721954346 -0.31588689889758825
v -0.9999999776482582 -0.41559552773833275 -0.3194469027221203
v -0.9999999776482582 -0.3116966690868139 -0.3194469027221203
v -0.9999999776482582 -0.20779776386916637 -0.3194469027221203
v -0.9999999776482582 -0.10389888193458319 -0.3194469027221203
v -0.9999999776482582 -5.551115205843844e-16 -0.3194469027221203
v -0.9999999776482582 0.10389888193458319 -0.3194469027221203
v -0.9999999776482582 0.20779776386916637 -0.3194469027221203
v -0.9999999776482582 0.3116966690868139 -0.3194469027221203
v -0.9999999776482582 0.41559552773833275 -0.3194469027221203
v -0.9999999776482582 -0.41559552773833275 0.3194469027221203
v -0.9999999776482582 -0.41636205278337 0.2105912659317255
v -0.9999999776482582 -0.41636205278337 0.10529563296586275
v -0.9999999776482582 -0.41636205278337 0.0
v -0.9999999776482582 -0.41636205278337 -0.10529563296586275
v -0.9999999776482582 -0.41636205278337 -0.2105912659317255
v -0.9999999776482582 0.41559552773833275 0.3194469027221203
v -0.9999999776482582 0.3116966690868139 0.3194469027221203
v -0.9999999776482582 0.20779776386916637 0.3194469027221203
v -0.9999999776482582 0.10389888193458319 0.3194469027221203
v -0.9999999776482582 -5.551115205843844e-16 0.3194469027221203
v -0.9999999776482582 -0.10389888193458319 0.3194469027221203
v -0.9999999776482582 -0.20779776386916637 0.3194469027221203
v -0.9999999776482582 -0.3116966690868139 0.3194469027221203
v -0.9999999776482582 0.41636205278337 0.2105912659317255
v -0.9999999776482582 0.41636205278337 0.10529563296586275
v -0.9999999776482582 0.41636205278337 0.0
v -0.9999999776482582 0.41636205278337 -0.10529563296586275
v -0.9999999776482582 0.41636205278337 -0.2105912659317255
v -0.9999999776482582 -0.3116966690868139 -0.21593128331005573
v -0.9999999776482582 -0.20779776386916637 -0.21593128331005573
v -0.9999999776482582 -0.10389888193458319 -0.21593128331005573
v -0.9999999776482582 -5.551115205843844e-16 -0.21593128331005573
v -0.9999999776482582 0.10389888193458319 -0.21593128331005573
v -0.9999999776482582 0.20779776386916637 -0.21593128331005573
v -0.9999999776482582 0.3116966690868139 -0.21593128331005573
v -0.9999999776482582 -0.3116966690868139 0.21593128331005573
v -0.9999999776482582 -0.31284643337130547 0.10529563296586275
v -0.9999999776482582 -0.31284643337130547 0.0
v -0.9999999776482582 -0.31284643337130547 -0.10529563296586275
v -0.9999999776482582 0.3116966690868139 0.21593128331005573
v -0.9999999776482582 0.20779776386916637 0.21593128331005573
v -0.9999999776482582 0.10389888193458319 0.21593128331005573
v -0.9999999776482582 -5.551115205843844e-16 0.21593128331005573
v -0.9999999776482582 -0.10389888193458319 0.21593128331005573
v -0.9999999776482582 -0.20779776386916637 0.21593128331005573
v -0.9999999776482582 0.31284643337130547 0.10529563296586275
v -0.9999999776482582 0.31284643337130547 0.0
v -0.9999999776482582 0.31284643337130547 -0.10529563296586275
v -0.9999999776482582 -0.20779776386916637 -0.112415652256459
v -0.9999999776482582 -0.10389888193458319 -0.112415652256459
v -0.9999999776482582 -5.551115205843844e-16 -0.112415652256459
v -0.9999999776482582 0.10389888193458319 -0.112415652256459
v -0.9999999776482582 0.20779776386916637 -0.112415652256459
v -0.9999999776482582 -0.20779776386916637 0.112415652256459
v -0.9999999776482582 -0.2093308139592409 0.0
v -0.9999999776482582 0.20779776386916637 0.112415652256459
v -0.9999999776482582 0.10389888193458319 0.112415652256459
v -0.9999999776482582 -5.551115205843844e-16 0.112415652256459
v -0.9999999776482582 -0.10389888193458319 0.112415652256459
v -0.9999999776482582 0.2093308139592409 0.0
v -0.9999999776482582 -0.10389888193458319 -0.008900024113245308
v -0.9999999776482582 -5.551115205843844e-16 -0.008900024113245308
v -0.9999999776482582 0.10389888193458319 -0.008900024113245308
v -0.03153619181830436 -0.6233933381736279 -0.421182531863451
v -0.14241645112633705 -0.6233933381736279 -0.42296252213418484
v -0.24961440358310938 -0.6233933381736279 -0.42296252213418484
v -0.35681233275681734 -0.6233933381736279 -0.42296252213418484
v -0.46401028521358967 -0.6233933381736279 -0.42296252213418484
v -0.5712082143872976 -0.6233933381736279 -0.42296252213418484
v -0.6784061901271343 -0.6233933381736279 -0.42296252213418484
v -0.7856041193008423 -0.6233933381736279 -0.42296252213418484
v -0.8964844048023224 -0.6233933381736279 -0.421182531863451
v -0.03153619181830436 -0.6233933381736279 0.421182531863451
v -0.03153619181830436 -0.6233933381736279 0.31588689889758825
v -0.03153619181830436 -0.6233933381736279 0.2105912659317255
v -0.03153619181830436 -0.6233933381736279 0.10529563296586275
v -0.03153619181830436 -0.6233933381736279 0.0
v -0.03153619181830436 -0.6233933381736279 -0.10529563296586275
v -0.03153619181830436 -0.6233933381736279 -0.2105912659317255
v -0.03153619181830436 -0.6233933381736279 -0.31588689889758825
v -0.8964844048023224 -0.6233933381736279 0.421182531863451
v -0.7856041193008423 -0.6233933381736279 0.42296252213418484
v -0.6784061901271343 -0.6233933381736279 0.42296252213418484
v -0.5712082143872976 -0.6233933381736279 0.42296252213418484
v -0.46401028521358967 -0.6233933381736279 0.42296252213418484
v -0.35681233275681734 -0.6233933381736279 0.42296252213418484
v -0.24961440358310938 -0.6233933381736279 0.42296252213418484
v -0.14241645112633705 -0.6233933381736279 0.42296252213418484
v -0.8964844048023224 -0.6233933381736279 0.31588689889758825
v -0.8964844048023224 -0.6233933381736279 0.2105912659317255
v -0.8964844048023224 -0.6233933381736279 0.10529563296586275
v -0.8964844048023224 -0.6233933381736279 0.0
v -0.8964844048023224 -0.6233933381736279 -0.10529563296586275
v -0.8964844048023224 -0.6233933381736279 -0.2105912659317255
v -0.8964844048023224 -0.6233933381736279 -0.31588689889758825
v -0.13505181996151805 -0.6233933381736279 -0.31588689889758825
v -0.24961440358310938 -0.6233933381736279 -0.3194469027221203
v -0.35681233275681734 -0.6233933381736279 -0.3194469027221203
v -0.46401028521358967 -0.6233933381736279 -0.3194469027221203
v -0.5712082143872976 -0.6233933381736279 -0.3194469027221203
v -0.6784061901271343 -0.6233933381736279 -0.3194469027221203
v -0.7929687388241291 -0.6233933381736279 -0.31588689889758825
v -0.13505181996151805 -0.6233933381736279 0.31588689889758825
v -0.13505181996151805 -0.6233933381736279 0.2105912659317255
v -0.13505181996151805 -0.6233933381736279 0.10529563296586275
v -0.13505181996151805 -0.6233933381736279 0.0
v -0.13505181996151805 -0.6233933381736279 -0.10529563296586275
v -0.13505181996151805 -0.6233933381736279 -0.2105912659317255
v -0.7929687388241291 -0.6233933381736279 0.31588689889758825
v -0.6784061901271343 -0.6233933381736279 0.3194469027221203
v -0.5712082143872976 -0.6233933381736279 0.3194469027221203
v -0.46401028521358967 -0.6233933381736279 0.3194469027221203
v -0.35681233275681734 -0.6233933381736279 0.3194469027221203
v -0.24961440358310938 -0.6233933381736279 0.3194469027221203
v -0.7929687388241291 -0.6233933381736279 0.2105912659317255
v -0.7929687388241291 -0.6233933381736279 0.10529563296586275
v -0.7929687388241291 -0.6233933381736279 0.0
v -0.7929687388241291 -0.6233933381736279 -0.10529563296586275
v -0.7929687388241291 -0.6233933381736279 -0.2105912659317255
v -0.23856745101511478 -0.6233933381736279 -0.2105912659317255
v -0.35681233275681734 -0.6233933381736279 -0.21593128331005573
v -0.46401028521358967 -0.6233933381736279 -0.21593128331005573
v -0.5712082143872976 -0.6233933381736279 -0.21593128331005573
v -0.6894531194120646 -0.6233933381736279 -0.2105912659317255
v -0.23856745101511478 -0.6233933381736279 0.2105912659317255
v -0.23856745101511478 -0.6233933381736279 0.10529563296586275
v -0.23856745101511478 -0.6233933381736279 0.0
v -0.23856745101511478 -0.6233933381736279 -0.10529563296586275
v -0.6894531194120646 -0.6233933381736279 0.2105912659317255
v -0.5712082143872976 -0.6233933381736279 0.21593128331005573
v -0.46401028521358967 -0.6233933381736279 0.21593128331005573
v -0.35681233275681734 -0.6233933381736279 0.21593128331005573
v -0.6894531194120646 -0.6233933381736279 0.10529563296586275
v -0.6894531194120646 -0.6233933381736279 0.0
v -0.6894531194120646 -0.6233933381736279 -0.10529563296586275
v -0.34208307042717934 -0.6233933381736279 -0.10529563296586275
v -0.46401028521358967 -0.6233933381736279 -0.112415652256459
v -0.5859375 -0.6233933381736279 -0.10529563296586275
v -0.34208307042717934 -0.6233933381736279 0.10529563296586275
v -0.34208307042717934 -0.6233933381736279 0.0
v -0.5859375 -0.6233933381736279 0.10529563296586275
v -0.46401028521358967 -0.6233933381736279 0.112415652256459
v -0.5859375 -0.6233933381736279 0.0
v -0.4455986898392439 -0.6233933381736279 0.0
v 0.5061395466327667 -0.5790106486529112 -0.421182531863451
v 0.3958938643336296 -0.6025692448019981 -0.42296252213418484
v 0.28883786872029305 -0.6159041542559862 -0.42296252213418484
v 0.17604839522391558 -0.6216976791620255 -0.421182531863451
v 0.5061395466327667 -0.5790106486529112 0.421182531863451
v 0.5061395466327667 -0.5790106486529112 0.31588689889758825
v 0.5061395466327667 -0.5790106486529112 0.2105912659317255
v 0.5061395466327667 -0.5790106486529112 1.1102229998097382e-16
v 0.5061395466327667 -0.5790106486529112 0.10529563296586275
v 0.5061395466327667 -0.5790106486529112 -0.10529563296586275
v 0.5061395466327667 -0.5790106486529112 -0.2105912659317255
v 0.5061395466327667 -0.5790106486529112 -0.31588689889758825
v 0.17604839522391558 -0.6216976791620255 0.421182531863451
v 0.28883786872029305 -0.6159041542559862 0.42296252213418484
v 0.3958938643336296 -0.6025692448019981 0.42296252213418484
v 0.17604839522391558 -0.6216976791620255 0.31588689889758825
v 0.17604839522391558 -0.6216976791620255 0.2105912659317255
v 0.17604839522391558 -0.6216976791620255 0.10529563296586275
v 0.17604839522391558 -0.6216976791620255 0.0
v 0.17604839522391558 -0.6216976791620255 -0.10529563296586275
v 0.17604839522391558 -0.6216976791620255 -0.2105912659317255
v 0.17604839522391558 -0.6216976791620255 -0.31588689889758825
v 0.4049719776958227 -0.6009688600897789 -0.31588689889758825
v 0.2796350512653589 -0.6166336592286825 -0.31588689889758825
v 0.4049719776958227 -0.6009688600897789 0.31588689889758825
v 0.4049719776958227 -0.6009688600897789 0.2105912659317255
v 0.4049719776958227 -0.6009688600897789 -0.10529563296586275
v 0.4049719776958227 -0.6009688600897789 1.1102229998097382e-16
v 0.4049719776958227 -0.6009688600897789 0.10529563296586275
v 0.4049719776958227 -0.6009688600897789 -0.2105912659317255
v 0.2796350512653589 -0.6166336592286825 0.31588689889758825
v 0.2796350512653589 -0.6166336592286825 0.2105912659317255
v 0.2796350512653589 -0.6166336592286825 0.10529563296586275
v 0.2796350512653589 -0.6166336592286825 0.0
v 0.2796350512653589 -0.6166336592286825 -0.10529563296586275
v 0.2796350512653589 -0.6166336592286825 -0.2105912659317255
v 0.8396590128540993 -0.39994348771870136 -0.4245677497237921
v 0.7722334936261177 -0.463990168645978 -0.4245677497237921
v 0.6929286289960146 -0.5127964541316032 -0.4245677497237921
v 0.8396590128540993 -0.39994348771870136 0.4245677497237921
v 0.8339647203683853 -0.40627275593578815 0.2105912659317255
v 0.8339647203683853 -0.40627275593578815 0.31588689889758825
v 0.8339647203683853 -0.40627275593578815 0.10529563296586275
v 0.8339647203683853 -0.40627275593578815 0.0
v 0.8339647203683853 -0.40627275593578815 -0.10529563296586275
v 0.8339647203683853 -0.40627275593578815 -0.2105912659317255
v 0.8339647203683853 -0.40627275593578815 -0.31588689889758825
v 0.6929286289960146 -0.5127964541316032 0.4245677497237921
v 0.7722334936261177 -0.463990168645978 0.4245677497237921
v 0.7005006540566683 -0.5088762380182743 0.31588689889758825
v 0.7005006540566683 -0.5088762380182743 0.2105912659317255
v 0.7005006540566683 -0.5088762380182743 0.10529563296586275
v 0.7005006540566683 -0.5088762380182743 -1.1102229998097382e-16
v 0.7005006540566683 -0.5088762380182743 -0.10529563296586275
v 0.7005006540566683 -0.5088762380182743 -0.2105912659317255
v 0.7005006540566683 -0.5088762380182743 -0.31588689889758825
v 0.7722334936261177 -0.463990168645978 -0.3226574044674635
v 0.7722334936261177 -0.463990168645978 0.3226574044674635
v 0.7722334936261177 -0.463990168645978 0.11883664410561323
v 0.7722334936261177 -0.463990168645978 0.22074701264500618
v 0.7722334936261177 -0.463990168645978 -0.016926261014305055
v 0.7722334936261177 -0.463990168645978 -0.11883664410561323
v 0.7722334936261177 -0.463990168645978 -0.22074701264500618
f 17 187 1 
f 18 188 17 
f 19 188 18 
f 2 189 19 
f 20 189 2 
f 21 191 20 
f 22 191 21 
f 23 192 22 
f 3 193 23 
f 24 194 3 
f 25 195 24 
f 26 196 25 
f 27 197 26 
f 28 198 27 
f 29 199 28 
f 30 200 29 
f 31 201 30 
f 32 202 31 
f 4 203 32 
f 33 203 4 
f 34 203 33 
f 35 204 34 
f 36 205 35 
f 37 206 36 
f 38 207 37 
f 39 208 38 
f 40 209 39 
f 41 210 40 
f 42 211 41 
f 43 213 42 
f 5 213 43 
f 44 213 5 
f 45 213 44 
f 46 214 45 
f 47 215 46 
f 48 216 47 
f 49 217 48 
f 50 218 49 
f 51 219 50 
f 52 220 51 
f 53 221 52 
f 54 222 53 
f 6 223 54 
f 55 225 6 
f 56 226 55 
f 57 227 56 
f 58 228 57 
f 59 228 58 
f 7 230 59 
f 60 231 7 
f 61 232 60 
f 62 232 61 
f 63 233 62 
f 8 234 63 
f 64 235 8 
f 65 236 64 
f 1 238 65 
f 187 238 1 
f 17 188 187 
f 19 189 188 
f 20 190 189 
f 191 190 20 
f 22 192 191 
f 23 193 192 
f 3 194 193 
f 24 195 194 
f 25 196 195 
f 26 197 196 
f 27 198 197 
f 28 199 198 
f 29 200 199 
f 30 201 200 
f 31 202 201 
f 32 203 202 
f 34 204 203 
f 35 205 204 
f 36 206 205 
f 37 207 206 
f 38 208 207 
f 39 209 208 
f 40 210 209 
f 41 211 210 
f 42 212 211 
f 213 212 42 
f 45 214 213 
f 46 215 214 
f 47 216 215 
f 48 217 216 
f 49 218 217 
f 50 219 218 
f 51 220 219 
f 52 221 220 
f 53 222 221 
f 54 223 222 
f 6 224 223 
f 225 224 6 
f 55 226 225 
f 56 227 226 
f 57 228 227 
f 59 229 228 
f 230 229 59 
f 7 231 230 
f 60 232 231 
f 62 233 232 
f 63 234 233 
f 8 235 234 
f 64 236 235 
f 65 237 236 
f 238 237 65 
f 187 239 238 
f 188 240 187 
f 189 240 188 
f 190 241 189 
f 191 242 190 
f 192 242 191 
f 193 243 192 
f 194 244 193 
f 195 245 194 
f 196 246 195 
f 197 247 196 
f 198 248 197 
f 199 249 198 
f 200 250 199 
f 201 251 200 
f 202 252 201 
f 203 253 202 
f 204 253 203 
f 205 253 204 
f 206 254 205 
f 207 255 206 
f 208 256 207 
f 209 257 208 
f 210 258 209 
f 211 259 210 
f 212 261 211 
f 213 214 212 
f 215 261 214 
f 216 262 215 
f 217 263 216 
f 218 264 217 
f 219 265 218 
f 220 266 219 
f 221 267 220 
f 222 268 221 
f 223 269 222 
f 224 270 223 
f 225 272 224 
f 226 273 225 
f 227 274 226 
f 228 275 227 
f 229 275 228 
f 230 276 229 
f 231 276 230 
f 232 277 231 
f 233 277 232 
f 234 278 233 
f 235 279 234 
f 236 279 235 
f 237 280 236 
f 238 281 237 
f 239 281 238 
f 187 240 239 
f 189 241 240 
f 190 242 241 
f 192 243 242 
f 193 244 243 
f 194 245 244 
f 195 246 245 
f 196 247 246 
f 197 248 247 
f 198 249 248 
f 199 250 249 
f 200 251 250 
f 201 252 251 
f 202 253 252 
f 205 254 253 
f 206 255 254 
f 207 256 255 
f 208 257 256 
f 209 258 257 
f 210 259 258 
f 211 260 259 
f 261 260 211 
f 212 214 261 
f 215 262 261 
f 216 263 262 
f 217 264 263 
f 218 265 264 
f 219 266 265 
f 220 267 266 
f 221 268 267 
f 222 269 268 
f 223 270 269 
f 224 271 270 
f 272 271 224 
f 225 273 272 
f 226 274 273 
f 227 275 274 
f 229 276 275 
f 231 277 276 
f 233 278 277 
f 234 279 278 
f 236 280 279 
f 237 281 280 
f 239 282 281 
f 240 282 239 
f 241 283 240 
f 242 284 241 
f 243 285 242 
f 244 286 243 
f 245 287 244 
f 246 288 245 
f 247 289 246 
f 248 290 247 
f 249 291 248 
f 250 292 249 
f 251 293 250 
f 252 294 251 
f 253 295 252 
f 254 295 253 
f 255 295 254 
f 256 296 255 
f 257 297 256 
f 258 298 257 
f 259 299 258 
f 260 301 259 
f 261 262 260 
f 263 301 262 
f 264 302 263 
f 265 303 264 
f 266 304 265 
f 267 305 266 
f 268 306 267 
f 269 307 268 
f 270 308 269 
f 271 309 270 
f 272 311 271 
f 273 311 272 
f 274 312 273 
f 275 312 274 
f 276 313 275 
f 277 314 276 
f 278 314 277 
f 279 315 278 
f 280 316 279 
f 281 316 280 
f 282 316 281 
f 240 283 282 
f 241 284 283 
f 242 285 284 
f 243 286 285 
f 244 287 286 
f 245 288 287 
f 246 289 288 
f 247 290 289 
f 248 291 290 
f 249 292 291 
f 250 293 292 
f 251 294 293 
f 252 295 294 
f 255 296 295 
f 256 297 296 
f 257 298 297 
f 258 299 298 
f 259 300 299 
f 301 300 259 
f 260 262 301 
f 263 302 301 
f 264 303 302 
f 265 304 303 
f 266 305 304 
f 267 306 305 
f 268 307 306 
f 269 308 307 
f 270 309 308 
f 271 310 309 
f 311 310 271 
f 273 312 311 
f 275 313 312 
f 276 314 313 
f 278 315 314 
f 279 316 315 
f 282 317 316 
f 283 319 282 
f 284 319 283 
f 285 320 284 
f 286 321 285 
f 287 321 286 
f 288 322 287 
f 289 323 288 
f 290 324 289 
f 291 325 290 
f 292 326 291 
f 293 327 292 
f 294 328 293 
f 295 329 294 
f 296 329 295 
f 297 329 296 
f 298 330 297 
f 299 331 298 
f 300 333 299 
f 301 302 300 
f 303 333 302 
f 304 334 303 
f 305 335 304 
f 306 336 305 
f 307 337 306 
f 308 338 307 
f 309 339 308 
f 310 340 309 
f 311 342 310 
f 312 343 311 
f 313 344 312 
f 314 345 313 
f 315 345 314 
f 316 346 315 
f 317 346 316 
f 282 318 317 
f 319 318 282 
f 284 320 319 
f 285 321 320 
f 287 322 321 
f 288 323 322 
f 289 324 323 
f 290 325 324 
f 291 326 325 
f 292 327 326 
f 293 328 327 
f 294 329 328 
f 297 330 329 
f 298 331 330 
f 299 332 331 
f 333 332 299 
f 300 302 333 
f 303 334 333 
f 304 335 334 
f 305 336 335 
f 306 337 336 
f 307 338 337 
f 308 339 338 
f 309 340 339 
f 310 341 340 
f 342 341 310 
f 311 343 342 
f 312 344 343 
f 313 345 344 
f 315 346 345 
f 317 347 346 
f 318 347 317 
f 319 348 318 
f 320 348 319 
f 321 349 320 
f 322 350 321 
f 323 351 322 
f 324 351 323 
f 325 352 324 
f 326 353 325 
f 327 354 326 
f 328 355 327 
f 329 356 328 
f 330 356 329 
f 331 356 330 
f 332 358 331 
f 333 334 332 
f 335 358 334 
f 336 359 335 
f 337 360 336 
f 338 361 337 
f 339 362 338 
f 340 363 339 
f 341 364 340 
f 342 365 341 
f 343 366 342 
f 344 367 343 
f 345 367 344 
f 346 367 345 
f 347 367 346 
f 318 348 347 
f 320 349 348 
f 321 350 349 
f 322 351 350 
f 324 352 351 
f 325 353 352 
f 326 354 353 
f 327 355 354 
f 328 356 355 
f 331 357 356 
f 358 357 331 
f 332 334 358 
f 335 359 358 
f 336 360 359 
f 337 361 360 
f 338 362 361 
f 339 363 362 
f 340 364 363 
f 341 365 364 
f 342 366 365 
f 343 367 366 
f 347 368 367 
f 348 368 347 
f 349 368 348 
f 350 369 349 
f 351 370 350 
f 352 372 351 
f 353 373 352 
f 354 374 353 
f 355 375 354 
f 356 376 355 
f 357 376 356 
f 358 359 357 
f 360 376 359 
f 361 375 360 
f 362 374 361 
f 363 373 362 
f 364 372 363 
f 365 371 364 
f 366 369 365 
f 367 368 366 
f 349 369 368 
f 350 370 369 
f 351 371 370 
f 372 371 351 
f 352 373 372 
f 353 374 373 
f 354 375 374 
f 355 376 375 
f 357 359 376 
f 360 375 376 
f 361 374 375 
f 362 373 374 
f 363 372 373 
f 364 371 372 
f 365 370 371 
f 369 370 365 
f 366 368 369 
f 9 66 377 
f 66 67 377 
f 67 68 379 
f 68 10 380 
f 10 69 380 
f 69 70 381 
f 70 11 383 
f 11 71 384 
f 71 72 385 
f 72 73 386 
f 73 74 386 
f 74 12 387 
f 12 75 388 
f 75 76 389 
f 76 77 389 
f 77 78 391 
f 78 79 392 
f 79 13 393 
f 13 80 394 
f 80 81 395 
f 81 82 396 
f 82 83 397 
f 83 84 398 
f 84 85 399 
f 85 86 400 
f 86 87 401 
f 87 88 402 
f 88 89 403 
f 89 90 404 
f 90 14 405 
f 14 91 405 
f 91 92 405 
f 92 93 406 
f 93 94 407 
f 94 95 408 
f 95 96 409 
f 96 97 410 
f 97 98 411 
f 98 99 412 
f 99 100 413 
f 100 101 414 
f 101 15 415 
f 15 102 415 
f 102 103 416 
f 103 104 416 
f 104 105 417 
f 105 106 418 
f 106 107 419 
f 107 108 420 
f 108 109 421 
f 109 110 422 
f 110 16 423 
f 16 111 424 
f 111 112 426 
f 112 113 427 
f 113 114 427 
f 114 9 378 
f 9 377 378 
f 377 67 379 
f 379 68 380 
f 380 69 382 
f 381 70 383 
f 69 381 382 
f 383 11 384 
f 384 71 385 
f 385 72 386 
f 386 74 387 
f 387 12 388 
f 388 75 390 
f 75 389 390 
f 389 77 391 
f 391 78 392 
f 392 79 393 
f 393 13 394 
f 394 80 395 
f 395 81 396 
f 396 82 397 
f 397 83 398 
f 398 84 399 
f 399 85 400 
f 400 86 401 
f 401 87 402 
f 402 88 403 
f 403 89 404 
f 404 90 405 
f 405 92 406 
f 406 93 407 
f 407 94 408 
f 408 95 409 
f 409 96 410 
f 410 97 411 
f 411 98 412 
f 412 99 413 
f 413 100 414 
f 414 101 415 
f 415 102 416 
f 416 104 417 
f 417 105 418 
f 418 106 419 
f 419 107 420 
f 420 108 421 
f 421 109 422 
f 422 110 423 
f 423 16 425 
f 424 111 426 
f 16 424 425 
f 426 112 427 
f 427 114 428 
f 114 378 428 
f 378 377 429 
f 377 379 429 
f 379 380 431 
f 380 382 432 
f 381 383 433 
f 382 381 434 
f 383 384 433 
f 384 385 435 
f 385 386 436 
f 386 387 436 
f 387 388 437 
f 388 390 437 
f 390 389 438 
f 389 391 438 
f 391 392 439 
f 392 393 440 
f 393 394 441 
f 394 395 442 
f 395 396 443 
f 396 397 444 
f 397 398 445 
f 398 399 446 
f 399 400 447 
f 400 401 448 
f 401 402 449 
f 402 403 450 
f 403 404 451 
f 404 405 406 
f 406 407 452 
f 407 408 453 
f 408 409 454 
f 409 410 455 
f 410 411 456 
f 411 412 457 
f 412 413 458 
f 413 414 459 
f 414 415 460 
f 415 416 460 
f 416 417 461 
f 417 418 461 
f 418 419 462 
f 419 420 463 
f 420 421 464 
f 421 422 465 
f 422 423 466 
f 423 425 467 
f 424 426 468 
f 425 424 469 
f 426 427 471 
f 427 428 471 
f 428 378 430 
f 378 429 430 
f 429 379 431 
f 431 380 432 
f 432 382 434 
f 381 433 434 
f 433 384 435 
f 435 385 436 
f 436 387 437 
f 437 390 438 
f 438 391 439 
f 439 392 440 
f 440 393 441 
f 441 394 442 
f 442 395 443 
f 443 396 444 
f 444 397 445 
f 445 398 446 
f 446 399 447 
f 447 400 448 
f 448 401 449 
f 449 402 450 
f 450 403 451 
f 451 404 452 
f 404 406 452 
f 452 407 453 
f 453 408 454 
f 454 409 455 
f 455 410 456 
f 456 411 457 
f 457 412 458 
f 458 413 459 
f 459 414 460 
f 460 416 461 
f 461 418 462 
f 462 419 463 
f 463 420 464 
f 464 421 465 
f 465 422 466 
f 466 423 467 
f 467 425 470 
f 468 426 471 
f 424 468 469 
f 425 469 470 
f 471 428 430 
f 430 429 472 
f 429 431 472 
f 431 432 475 
f 432 434 476 
f 434 433 478 
f 433 435 477 
f 435 436 479 
f 436 437 479 
f 437 438 480 
f 438 439 481 
f 439 440 481 
f 440 441 482 
f 441 442 482 
f 442 443 483 
f 443 444 484 
f 444 445 485 
f 445 446 486 
f 446 447 487 
f 447 448 488 
f 448 449 489 
f 449 450 490 
f 450 451 491 
f 451 452 453 
f 453 454 492 
f 454 455 493 
f 455 456 494 
f 456 457 495 
f 457 458 496 
f 458 459 497 
f 459 460 498 
f 460 461 498 
f 461 462 499 
f 462 463 499 
f 463 464 500 
f 464 465 501 
f 465 466 502 
f 466 467 503 
f 467 470 504 
f 468 471 474 
f 469 468 505 
f 470 469 506 
f 471 430 474 
f 430 472 473 
f 472 431 475 
f 475 432 476 
f 476 434 478 
f 478 433 477 
f 477 435 479 
f 479 437 480 
f 480 438 481 
f 481 440 482 
f 482 442 483 
f 483 443 484 
f 484 444 485 
f 485 445 486 
f 486 446 487 
f 487 447 488 
f 488 448 489 
f 489 449 490 
f 490 450 491 
f 491 451 492 
f 451 453 492 
f 492 454 493 
f 493 455 494 
f 494 456 495 
f 495 457 496 
f 496 458 497 
f 497 459 498 
f 498 461 499 
f 499 463 500 
f 500 464 501 
f 501 465 502 
f 502 466 503 
f 503 467 504 
f 504 470 507 
f 468 474 505 
f 469 505 506 
f 470 506 507 
f 474 430 473 
f 473 472 508 
f 472 475 508 
f 475 476 510 
f 476 478 511 
f 478 477 513 
f 477 479 512 
f 479 480 512 
f 480 481 514 
f 481 482 515 
f 482 483 516 
f 483 484 517 
f 484 485 518 
f 485 486 519 
f 486 487 520 
f 487 488 521 
f 488 489 522 
f 489 490 523 
f 490 491 524 
f 491 492 493 
f 493 494 525 
f 494 495 526 
f 495 496 527 
f 496 497 528 
f 497 498 529 
f 498 499 529 
f 499 500 530 
f 500 501 530 
f 501 502 531 
f 502 503 532 
f 503 504 533 
f 504 507 534 
f 505 474 509 
f 506 505 535 
f 507 506 536 
f 474 473 509 
f 473 508 509 
f 508 475 510 
f 510 476 511 
f 511 478 513 
f 513 477 512 
f 512 480 514 
f 514 481 515 
f 515 482 516 
f 516 483 517 
f 517 484 518 
f 518 485 519 
f 519 486 520 
f 520 487 521 
f 521 488 522 
f 522 489 523 
f 523 490 524 
f 524 491 525 
f 491 493 525 
f 525 494 526 
f 526 495 527 
f 527 496 528 
f 528 497 529 
f 529 499 530 
f 530 501 531 
f 531 502 532 
f 532 503 533 
f 533 504 534 
f 534 507 537 
f 505 509 535 
f 506 535 536 
f 507 536 537 
f 509 508 539 
f 508 510 538 
f 510 511 538 
f 511 513 538 
f 513 512 541 
f 512 514 541 
f 514 515 541 
f 515 516 542 
f 516 517 543 
f 517 518 543 
f 518 519 544 
f 519 520 545 
f 520 521 546 
f 521 522 547 
f 522 523 548 
f 523 524 549 
f 524 525 526 
f 526 527 550 
f 527 528 551 
f 528 529 552 
f 529 530 552 
f 530 531 553 
f 531 532 553 
f 532 533 554 
f 533 534 555 
f 534 537 556 
f 535 509 540 
f 536 535 557 
f 537 536 558 
f 539 508 538 
f 509 539 540 
f 538 513 541 
f 541 515 542 
f 542 516 543 
f 543 518 544 
f 544 519 545 
f 545 520 546 
f 546 521 547 
f 547 522 548 
f 548 523 549 
f 549 524 550 
f 524 526 550 
f 550 527 551 
f 551 528 552 
f 552 530 553 
f 553 532 554 
f 554 533 555 
f 555 534 556 
f 556 537 558 
f 535 540 557 
f 536 557 558 
f 539 538 559 
f 540 539 559 
f 538 541 559 
f 541 542 559 
f 542 543 560 
f 543 544 561 
f 544 545 562 
f 545 546 563 
f 546 547 564 
f 547 548 565 
f 548 549 566 
f 549 550 551 
f 551 552 567 
f 552 553 567 
f 553 554 566 
f 554 555 565 
f 555 556 564 
f 556 558 563 
f 557 540 560 
f 558 557 561 
f 540 559 560 
f 559 542 560 
f 560 543 561 
f 561 544 562 
f 562 545 563 
f 563 546 564 
f 564 547 565 
f 565 548 566 
f 566 549 567 
f 549 551 567 
f 567 553 566 
f 566 554 565 
f 565 555 564 
f 564 556 563 
f 563 558 562 
f 557 560 561 
f 558 561 562 
f 8 568 64 
f 64 568 65 
f 65 569 1 
f 11 570 115 
f 115 570 116 
f 116 571 117 
f 117 571 118 
f 118 573 119 
f 119 573 120 
f 120 575 121 
f 121 576 122 
f 122 568 123 
f 123 568 8 
f 10 578 69 
f 69 570 70 
f 70 570 11 
f 124 578 10 
f 125 578 124 
f 126 579 125 
f 127 580 126 
f 128 581 127 
f 129 582 128 
f 130 583 129 
f 131 584 130 
f 132 585 131 
f 1 569 132 
f 568 569 65 
f 570 572 116 
f 116 572 571 
f 571 574 118 
f 118 574 573 
f 573 575 120 
f 575 576 121 
f 576 577 122 
f 122 577 568 
f 578 570 69 
f 125 579 578 
f 126 580 579 
f 127 581 580 
f 128 582 581 
f 129 583 582 
f 130 584 583 
f 131 585 584 
f 132 569 585 
f 568 585 569 
f 570 578 572 
f 572 580 571 
f 571 580 574 
f 574 581 573 
f 573 582 575 
f 575 583 576 
f 576 584 577 
f 577 585 568 
f 579 572 578 
f 580 572 579 
f 581 574 580 
f 582 573 581 
f 583 575 582 
f 584 576 583 
f 585 577 584 
f 7 586 60 
f 60 586 61 
f 61 587 62 
f 62 587 63 
f 63 589 8 
f 12 590 133 
f 133 590 134 
f 134 591 135 
f 135 592 136 
f 136 593 137 
f 137 594 138 
f 138 595 139 
f 139 596 140 
f 140 586 141 
f 141 586 7 
f 11 598 71 
f 71 598 72 
f 72 599 73 
f 73 590 74 
f 74 590 12 
f 115 598 11 
f 116 598 115 
f 117 601 116 
f 118 602 117 
f 119 603 118 
f 120 604 119 
f 121 605 120 
f 122 606 121 
f 123 589 122 
f 8 589 123 
f 586 588 61 
f 61 588 587 
f 587 589 63 
f 590 591 134 
f 591 592 135 
f 592 593 136 
f 593 594 137 
f 594 595 138 
f 595 596 139 
f 596 597 140 
f 140 597 586 
f 598 599 72 
f 599 600 73 
f 73 600 590 
f 116 601 598 
f 117 602 601 
f 118 603 602 
f 119 604 603 
f 120 605 604 
f 121 606 605 
f 122 607 606 
f 589 607 122 
f 586 608 588 
f 588 609 587 
f 587 609 589 
f 590 610 591 
f 591 610 592 
f 592 611 593 
f 593 612 594 
f 594 613 595 
f 595 614 596 
f 596 608 597 
f 597 608 586 
f 598 616 599 
f 599 616 600 
f 600 610 590 
f 601 616 598 
f 602 616 601 
f 603 617 602 
f 604 618 603 
f 605 619 604 
f 606 620 605 
f 607 609 606 
f 589 609 607 
f 608 609 588 
f 610 611 592 
f 611 612 593 
f 612 613 594 
f 613 614 595 
f 614 615 596 
f 596 615 608 
f 616 610 600 
f 602 617 616 
f 603 618 617 
f 604 619 618 
f 605 620 619 
f 606 621 620 
f 609 621 606 
f 608 621 609 
f 610 616 611 
f 611 617 612 
f 612 618 613 
f 613 619 614 
f 614 620 615 
f 615 621 608 
f 617 611 616 
f 618 612 617 
f 619 613 618 
f 620 614 619 
f 621 615 620 
f 6 622 55 
f 55 623 56 
f 56 623 57 
f 57 624 58 
f 58 625 59 
f 59 626 7 
f 13 627 142 
f 142 628 143 
f 143 629 144 
f 144 629 145 
f 145 630 146 
f 146 631 147 
f 147 632 148 
f 148 633 149 
f 149 622 150 
f 150 622 6 
f 12 635 75 
f 75 636 76 
f 76 636 77 
f 77 637 78 
f 78 638 79 
f 79 627 13 
f 133 635 12 
f 134 635 133 
f 135 639 134 
f 136 640 135 
f 137 641 136 
f 138 642 137 
f 139 643 138 
f 140 644 139 
f 141 645 140 
f 7 626 141 
f 622 623 55 
f 623 624 57 
f 624 625 58 
f 625 626 59 
f 627 628 142 
f 628 629 143 
f 629 630 145 
f 630 631 146 
f 631 632 147 
f 632 633 148 
f 633 634 149 
f 149 634 622 
f 635 636 75 
f 636 637 77 
f 637 638 78 
f 638 627 79 
f 134 639 635 
f 135 640 639 
f 136 641 640 
f 137 642 641 
f 138 643 642 
f 139 644 643 
f 140 645 644 
f 141 626 645 
f 622 646 623 
f 623 647 624 
f 624 647 625 
f 625 648 626 
f 627 649 628 
f 628 650 629 
f 629 650 630 
f 630 651 631 
f 631 652 632 
f 632 653 633 
f 633 654 634 
f 634 646 622 
f 635 655 636 
f 636 656 637 
f 637 656 638 
f 638 649 627 
f 639 655 635 
f 640 655 639 
f 641 657 640 
f 642 658 641 
f 643 659 642 
f 644 660 643 
f 645 661 644 
f 626 648 645 
f 646 647 623 
f 647 648 625 
f 649 650 628 
f 650 651 630 
f 651 652 631 
f 652 653 632 
f 653 654 633 
f 654 646 634 
f 655 656 636 
f 656 649 638 
f 640 657 655 
f 641 658 657 
f 642 659 658 
f 643 660 659 
f 644 661 660 
f 645 648 661 
f 646 662 647 
f 647 661 648 
f 649 663 650 
f 650 663 651 
f 651 664 652 
f 652 665 653 
f 653 666 654 
f 654 662 646 
f 655 657 656 
f 656 663 649 
f 658 663 657 
f 659 664 658 
f 660 665 659 
f 661 666 660 
f 662 661 647 
f 663 664 651 
f 664 665 652 
f 665 666 653 
f 666 662 654 
f 657 663 656 
f 658 664 663 
f 659 665 664 
f 660 666 665 
f 661 662 666 
f 5 667 44 
f 44 667 45 
f 45 668 46 
f 46 669 47 
f 47 670 48 
f 48 671 49 
f 49 672 50 
f 50 673 51 
f 51 674 52 
f 52 675 53 
f 53 676 54 
f 54 677 6 
f 14 678 151 
f 151 679 152 
f 152 679 153 
f 153 680 154 
f 154 681 155 
f 155 682 156 
f 156 683 157 
f 157 684 158 
f 158 685 159 
f 159 667 5 
f 13 686 80 
f 80 686 81 
f 81 687 82 
f 82 688 83 
f 83 689 84 
f 84 690 85 
f 85 691 86 
f 86 692 87 
f 87 693 88 
f 88 694 89 
f 89 678 90 
f 90 678 14 
f 142 686 13 
f 143 696 142 
f 144 696 143 
f 145 697 144 
f 146 698 145 
f 147 699 146 
f 148 700 147 
f 149 701 148 
f 150 702 149 
f 6 677 150 
f 667 668 45 
f 668 669 46 
f 669 670 47 
f 670 671 48 
f 671 672 49 
f 672 673 50 
f 673 674 51 
f 674 675 52 
f 675 676 53 
f 676 677 54 
f 678 679 151 
f 679 680 153 
f 680 681 154 
f 681 682 155 
f 682 683 156 
f 683 684 157 
f 684 685 158 
f 685 667 159 
f 686 687 81 
f 687 688 82 
f 688 689 83 
f 689 690 84 
f 690 691 85 
f 691 692 86 
f 692 693 87 
f 693 694 88 
f 694 695 89 
f 89 695 678 
f 142 696 686 
f 144 697 696 
f 145 698 697 
f 146 699 698 
f 147 700 699 
f 148 701 700 
f 149 702 701 
f 150 677 702 
f 667 703 668 
f 668 703 669 
f 669 704 670 
f 670 705 671 
f 671 706 672 
f 672 707 673 
f 673 708 674 
f 674 709 675 
f 675 710 676 
f 676 711 677 
f 678 712 679 
f 679 713 680 
f 680 713 681 
f 681 714 682 
f 682 715 683 
f 683 716 684 
f 684 717 685 
f 685 703 667 
f 686 718 687 
f 687 718 688 
f 688 719 689 
f 689 720 690 
f 690 721 691 
f 691 722 692 
f 692 723 693 
f 693 724 694 
f 694 725 695 
f 695 712 678 
f 696 718 686 
f 697 726 696 
f 698 726 697 
f 699 727 698 
f 700 728 699 
f 701 729 700 
f 702 730 701 
f 677 711 702 
f 703 704 669 
f 704 705 670 
f 705 706 671 
f 706 707 672 
f 707 708 673 
f 708 709 674 
f 709 710 675 
f 710 711 676 
f 712 713 679 
f 713 714 681 
f 714 715 682 
f 715 716 683 
f 716 717 684 
f 717 703 685 
f 718 719 688 
f 719 720 689 
f 720 721 690 
f 721 722 691 
f 722 723 692 
f 723 724 693 
f 724 725 694 
f 725 712 695 
f 696 726 718 
f 698 727 726 
f 699 728 727 
f 700 729 728 
f 701 730 729 
f 702 711 730 
f 703 731 704 
f 704 731 705 
f 705 732 706 
f 706 733 707 
f 707 734 708 
f 708 735 709 
f 709 736 710 
f 710 737 711 
f 712 738 713 
f 713 739 714 
f 714 739 715 
f 715 740 716 
f 716 741 717 
f 717 731 703 
f 718 742 719 
f 719 742 720 
f 720 743 721 
f 721 744 722 
f 722 745 723 
f 723 746 724 
f 724 747 725 
f 725 738 712 
f 726 742 718 
f 727 748 726 
f 728 748 727 
f 729 749 728 
f 730 750 729 
f 711 737 730 
f 731 732 705 
f 732 733 706 
f 733 734 707 
f 734 735 708 
f 735 736 709 
f 736 737 710 
f 738 739 713 
f 739 740 715 
f 740 741 716 
f 741 731 717 
f 742 743 720 
f 743 744 721 
f 744 745 722 
f 745 746 723 
f 746 747 724 
f 747 738 725 
f 726 748 742 
f 728 749 748 
f 729 750 749 
f 730 737 750 
f 731 751 732 
f 732 751 733 
f 733 752 734 
f 734 753 735 
f 735 754 736 
f 736 755 737 
f 738 756 739 
f 739 757 740 
f 740 757 741 
f 741 751 731 
f 742 758 743 
f 743 758 744 
f 744 759 745 
f 745 760 746 
f 746 761 747 
f 747 756 738 
f 748 758 742 
f 749 762 748 
f 750 762 749 
f 737 755 750 
f 751 752 733 
f 752 753 734 
f 753 754 735 
f 754 755 736 
f 756 757 739 
f 757 751 741 
f 758 759 744 
f 759 760 745 
f 760 761 746 
f 761 756 747 
f 748 762 758 
f 750 755 762 
f 751 763 752 
f 752 763 753 
f 753 764 754 
f 754 765 755 
f 756 761 757 
f 757 763 751 
f 758 762 759 
f 759 764 760 
f 760 763 761 
f 755 765 762 
f 763 764 753 
f 764 765 754 
f 761 763 757 
f 762 765 759 
f 764 763 760 
f 759 765 764 
f 4 766 33 
f 33 766 34 
f 34 767 35 
f 35 768 36 
f 36 769 37 
f 37 770 38 
f 38 771 39 
f 39 772 40 
f 40 773 41 
f 41 774 42 
f 42 775 43 
f 43 776 5 
f 15 777 160 
f 160 778 161 
f 161 778 162 
f 162 779 163 
f 163 780 164 
f 164 781 165 
f 165 782 166 
f 166 783 167 
f 167 784 168 
f 168 766 4 
f 14 785 91 
f 91 785 92 
f 92 786 93 
f 93 787 94 
f 94 788 95 
f 95 789 96 
f 96 790 97 
f 97 791 98 
f 98 792 99 
f 99 793 100 
f 100 777 101 
f 101 777 15 
f 151 785 14 
f 152 795 151 
f 153 795 152 
f 154 796 153 
f 155 797 154 
f 156 798 155 
f 157 799 156 
f 158 800 157 
f 159 801 158 
f 5 776 159 
f 766 767 34 
f 767 768 35 
f 768 769 36 
f 769 770 37 
f 770 771 38 
f 771 772 39 
f 772 773 40 
f 773 774 41 
f 774 775 42 
f 775 776 43 
f 777 778 160 
f 778 779 162 
f 779 780 163 
f 780 781 164 
f 781 782 165 
f 782 783 166 
f 783 784 167 
f 784 766 168 
f 785 786 92 
f 786 787 93 
f 787 788 94 
f 788 789 95 
f 789 790 96 
f 790 791 97 
f 791 792 98 
f 792 793 99 
f 793 794 100 
f 100 794 777 
f 151 795 785 
f 153 796 795 
f 154 797 796 
f 155 798 797 
f 156 799 798 
f 157 800 799 
f 158 801 800 
f 159 776 801 
f 766 802 767 
f 767 802 768 
f 768 803 769 
f 769 804 770 
f 770 805 771 
f 771 806 772 
f 772 807 773 
f 773 808 774 
f 774 809 775 
f 775 810 776 
f 777 811 778 
f 778 812 779 
f 779 812 780 
f 780 813 781 
f 781 814 782 
f 782 815 783 
f 783 816 784 
f 784 802 766 
f 785 817 786 
f 786 817 787 
f 787 818 788 
f 788 819 789 
f 789 820 790 
f 790 821 791 
f 791 822 792 
f 792 823 793 
f 793 824 794 
f 794 811 777 
f 795 817 785 
f 796 825 795 
f 797 825 796 
f 798 826 797 
f 799 827 798 
f 800 828 799 
f 801 829 800 
f 776 810 801 
f 802 803 768 
f 803 804 769 
f 804 805 770 
f 805 806 771 
f 806 807 772 
f 807 808 773 
f 808 809 774 
f 809 810 775 
f 811 812 778 
f 812 813 780 
f 813 814 781 
f 814 815 782 
f 815 816 783 
f 816 802 784 
f 817 818 787 
f 818 819 788 
f 819 820 789 
f 820 821 790 
f 821 822 791 
f 822 823 792 
f 823 824 793 
f 824 811 794 
f 795 825 817 
f 797 826 825 
f 798 827 826 
f 799 828 827 
f 800 829 828 
f 801 810 829 
f 802 830 803 
f 803 830 804 
f 804 831 805 
f 805 832 806 
f 806 833 807 
f 807 834 808 
f 808 835 809 
f 809 836 810 
f 811 837 812 
f 812 838 813 
f 813 838 814 
f 814 839 815 
f 815 840 816 
f 816 830 802 
f 817 841 818 
f 818 841 819 
f 819 842 820 
f 820 843 821 
f 821 844 822 
f 822 845 823 
f 823 846 824 
f 824 837 811 
f 825 841 817 
f 826 847 825 
f 827 847 826 
f 828 848 827 
f 829 849 828 
f 810 836 829 
f 830 831 804 
f 831 832 805 
f 832 833 806 
f 833 834 807 
f 834 835 808 
f 835 836 809 
f 837 838 812 
f 838 839 814 
f 839 840 815 
f 840 830 816 
f 841 842 819 
f 842 843 820 
f 843 844 821 
f 844 845 822 
f 845 846 823 
f 846 837 824 
f 825 847 841 
f 827 848 847 
f 828 849 848 
f 829 836 849 
f 830 850 831 
f 831 850 832 
f 832 851 833 
f 833 852 834 
f 834 853 835 
f 835 854 836 
f 837 855 838 
f 838 856 839 
f 839 856 840 
f 840 850 830 
f 841 857 842 
f 842 857 843 
f 843 858 844 
f 844 859 845 
f 845 860 846 
f 846 855 837 
f 847 857 841 
f 848 861 847 
f 849 861 848 
f 836 854 849 
f 850 851 832 
f 851 852 833 
f 852 853 834 
f 853 854 835 
f 855 856 838 
f 856 850 840 
f 857 858 843 
f 858 859 844 
f 859 860 845 
f 860 855 846 
f 847 861 857 
f 849 854 861 
f 850 862 851 
f 851 862 852 
f 852 863 853 
f 853 864 854 
f 855 860 856 
f 856 862 850 
f 857 861 858 
f 858 863 859 
f 859 862 860 
f 854 864 861 
f 862 863 852 
f 863 864 853 
f 860 862 856 
f 861 864 858 
f 863 862 859 
f 858 864 863 
f 3 865 24 
f 24 866 25 
f 25 866 26 
f 26 867 27 
f 27 868 28 
f 28 869 29 
f 29 870 30 
f 30 871 31 
f 31 872 32 
f 32 873 4 
f 16 874 169 
f 169 874 170 
f 170 875 171 
f 171 876 172 
f 172 877 173 
f 173 878 174 
f 174 879 175 
f 175 880 176 
f 176 865 177 
f 177 865 3 
f 15 882 102 
f 102 883 103 
f 103 883 104 
f 104 884 105 
f 105 885 106 
f 106 886 107 
f 107 887 108 
f 108 888 109 
f 109 889 110 
f 110 874 16 
f 160 882 15 
f 161 882 160 
f 162 890 161 
f 163 891 162 
f 164 892 163 
f 165 893 164 
f 166 894 165 
f 167 895 166 
f 168 896 167 
f 4 873 168 
f 865 866 24 
f 866 867 26 
f 867 868 27 
f 868 869 28 
f 869 870 29 
f 870 871 30 
f 871 872 31 
f 872 873 32 
f 874 875 170 
f 875 876 171 
f 876 877 172 
f 877 878 173 
f 878 879 174 
f 879 880 175 
f 880 881 176 
f 176 881 865 
f 882 883 102 
f 883 884 104 
f 884 885 105 
f 885 886 106 
f 886 887 107 
f 887 888 108 
f 888 889 109 
f 889 874 110 
f 161 890 882 
f 162 891 890 
f 163 892 891 
f 164 893 892 
f 165 894 893 
f 166 895 894 
f 167 896 895 
f 168 873 896 
f 865 897 866 
f 866 898 867 
f 867 898 868 
f 868 899 869 
f 869 900 870 
f 870 901 871 
f 871 902 872 
f 872 903 873 
f 874 904 875 
f 875 904 876 
f 876 905 877 
f 877 906 878 
f 878 907 879 
f 879 908 880 
f 880 909 881 
f 881 897 865 
f 882 910 883 
f 883 911 884 
f 884 911 885 
f 885 912 886 
f 886 913 887 
f 887 914 888 
f 888 915 889 
f 889 904 874 
f 890 910 882 
f 891 910 890 
f 892 916 891 
f 893 917 892 
f 894 918 893 
f 895 919 894 
f 896 920 895 
f 873 903 896 
f 897 898 866 
f 898 899 868 
f 899 900 869 
f 900 901 870 
f 901 902 871 
f 902 903 872 
f 904 905 876 
f 905 906 877 
f 906 907 878 
f 907 908 879 
f 908 909 880 
f 909 897 881 
f 910 911 883 
f 911 912 885 
f 912 913 886 
f 913 914 887 
f 914 915 888 
f 915 904 889 
f 891 916 910 
f 892 917 916 
f 893 918 917 
f 894 919 918 
f 895 920 919 
f 896 903 920 
f 897 921 898 
f 898 922 899 
f 899 922 900 
f 900 923 901 
f 901 924 902 
f 902 925 903 
f 904 926 905 
f 905 926 906 
f 906 927 907 
f 907 928 908 
f 908 929 909 
f 909 921 897 
f 910 930 911 
f 911 931 912 
f 912 931 913 
f 913 932 914 
f 914 933 915 
f 915 926 904 
f 916 930 910 
f 917 930 916 
f 918 934 917 
f 919 935 918 
f 920 936 919 
f 903 925 920 
f 921 922 898 
f 922 923 900 
f 923 924 901 
f 924 925 902 
f 926 927 906 
f 927 928 907 
f 928 929 908 
f 929 921 909 
f 930 931 911 
f 931 932 913 
f 932 933 914 
f 933 926 915 
f 917 934 930 
f 918 935 934 
f 919 936 935 
f 920 925 936 
f 921 937 922 
f 922 938 923 
f 923 938 924 
f 924 939 925 
f 926 940 927 
f 927 940 928 
f 928 941 929 
f 929 937 921 
f 930 942 931 
f 931 943 932 
f 932 943 933 
f 933 940 926 
f 934 942 930 
f 935 942 934 
f 936 944 935 
f 925 939 936 
f 937 938 922 
f 938 939 924 
f 940 941 928 
f 941 937 929 
f 942 943 931 
f 943 940 933 
f 935 944 942 
f 936 939 944 
f 937 945 938 
f 938 944 939 
f 940 945 941 
f 941 945 937 
f 942 944 943 
f 943 945 940 
f 945 944 938 
f 944 945 943 
f 2 946 20 
f 20 947 21 
f 21 947 22 
f 22 948 23 
f 23 949 3 
f 9 950 178 
f 178 950 179 
f 179 951 180 
f 180 952 181 
f 181 953 182 
f 182 955 183 
f 183 955 184 
f 184 956 185 
f 185 946 186 
f 186 946 2 
f 16 958 111 
f 111 959 112 
f 112 959 113 
f 113 960 114 
f 114 950 9 
f 169 958 16 
f 170 958 169 
f 171 961 170 
f 172 962 171 
f 173 963 172 
f 174 964 173 
f 175 965 174 
f 176 966 175 
f 177 967 176 
f 3 949 177 
f 946 947 20 
f 947 948 22 
f 948 949 23 
f 950 951 179 
f 951 952 180 
f 952 954 181 
f 953 955 182 
f 181 954 953 
f 955 956 184 
f 956 957 185 
f 185 957 946 
f 958 959 111 
f 959 960 113 
f 960 950 114 
f 170 961 958 
f 171 962 961 
f 172 963 962 
f 173 964 963 
f 174 965 964 
f 175 966 965 
f 176 967 966 
f 177 949 967 
f 946 968 947 
f 947 968 948 
f 948 969 949 
f 950 970 951 
f 951 970 952 
f 952 971 954 
f 953 972 955 
f 954 973 953 
f 955 972 956 
f 956 975 957 
f 957 968 946 
f 958 976 959 
f 959 970 960 
f 960 970 950 
f 961 976 958 
f 962 976 961 
f 963 977 962 
f 964 978 963 
f 965 979 964 
f 966 980 965 
f 967 981 966 
f 949 969 967 
f 968 969 948 
f 970 971 952 
f 971 974 954 
f 953 973 972 
f 954 974 973 
f 972 975 956 
f 975 968 957 
f 976 970 959 
f 962 977 976 
f 963 978 977 
f 964 979 978 
f 965 980 979 
f 966 981 980 
f 967 969 981 
f 968 981 969 
f 970 976 971 
f 971 977 974 
f 973 980 972 
f 974 978 973 
f 972 981 975 
f 975 981 968 
f 977 971 976 
f 978 974 977 
f 979 973 978 
f 980 973 979 
f 981 972 980 
f 1 982 17 
f 17 982 18 
f 18 983 19 
f 19 984 2 
f 10 985 124 
f 124 985 125 
f 125 986 126 
f 126 986 127 
f 127 988 128 
f 128 989 129 
f 129 990 130 
f 130 991 131 
f 131 982 132 
f 132 982 1 
f 9 993 66 
f 66 993 67 
f 67 985 68 
f 68 985 10 
f 178 993 9 
f 179 993 178 
f 180 995 179 
f 181 996 180 
f 182 997 181 
f 183 998 182 
f 184 999 183 
f 185 1000 184 
f 186 984 185 
f 2 984 186 
f 982 983 18 
f 983 984 19 
f 985 987 125 
f 125 987 986 
f 986 988 127 
f 988 989 128 
f 989 990 129 
f 990 991 130 
f 991 992 131 
f 131 992 982 
f 993 994 67 
f 67 994 985 
f 179 995 993 
f 180 996 995 
f 181 997 996 
f 182 998 997 
f 183 999 998 
f 184 1000 999 
f 185 1001 1000 
f 984 1001 185 
f 982 1002 983 
f 983 1002 984 
f 985 1003 987 
f 987 1005 986 
f 986 1004 988 
f 988 1004 989 
f 989 1006 990 
f 990 1007 991 
f 991 1008 992 
f 992 1002 982 
f 993 1003 994 
f 994 1003 985 
f 995 1003 993 
f 996 1005 995 
f 997 1004 996 
f 998 1004 997 
f 999 1006 998 
f 1000 1007 999 
f 1001 1008 1000 
f 984 1002 1001 
f 1003 1005 987 
f 1005 1004 986 
f 1004 1006 989 
f 1006 1007 990 
f 1007 1008 991 
f 1008 1002 992 
f 995 1005 1003 
f 996 1004 1005 
f 998 1006 1004 
f 999 1007 1006 
f 1000 1008 1007 
f 1001 1002 1008 
# End of file
