v 0.007399389986 -0.1060842574 -0.6242567301
v 0.4233498573 -0.997204721 -0.2432906926
v 0.4910776913 -0.9209721088 -0.5838976502
v -0.1664924175 0.3604527712 0.6394163966
v 0.0283873789 -0.1510585099 -0.6242567301
v 0.4910776913 -0.9209721088 0.5838976502
v 0.3904177845 -0.9679467678 -0.5838976502
v 0.4233498573 -0.997204721 -0.1459744126
v 0.1693153679 -0.3591353893 -0.6394163966
v -0.3904177845 0.9679467678 -0.5838976502
v 0.3904177845 -0.9679467678 0.5838976502
v 0.2336896956 -0.4933999777 -0.6393508315
v -0.1021180972 0.226188153 0.6393508315
v -0.3904177845 0.9679467678 0.5838976502
v -0.4910776913 0.9209721088 -0.5838976502
v -0.4910776913 0.9209721088 0.5838976502
v 0.4672265053 -0.9932819009 0.19463256
v 0.4233498573 -0.997204721 -0.04865814
v -0.0555645749 0.02883851901 -0.6242567301
v 0.4657421112 -0.9940581322 -0.1459744126
v -0.03457658365 -0.01613573916 -0.6242567301
v -0.08254047483 0.1805557162 0.6394163966
v -0.01358859707 -0.06111000106 -0.6242567301
v 0.4233498573 -0.997204721 -0.19463256
v 0.4642350078 -0.9947893023 -0.4765191674
v 0.253267318 -0.5390323997 -0.6394163966
v 0.4233498573 -0.997204721 -0.09731628001
v -0.1440940797 0.3161366582 0.6393508315
v 0.04937536269 -0.1960327625 -0.6242567301
v 0.001411471516 0.0006586867385 0.6394163966
v -0.1860700548 0.4060851932 0.6393508315
v 0.1497377455 -0.3135029376 -0.6393508315
v 0.4233498573 -0.997204721 -0.2919488251
v 0.1917137206 -0.4034514427 -0.6393508315
v 0.3484418094 -0.8779982328 -0.5838976502
v 0.3064658642 -0.7880496979 -0.5838976502
v 0.2644898593 -0.6981012225 -0.5838976502
v 0.2225138992 -0.6081526875 -0.5838976502
v 0.1805379242 -0.5182041526 -0.5838976502
v 0.1385619342 -0.4282556474 -0.5838976502
v 0.09658596665 -0.3383071125 -0.5838976502
v 0.05460999161 -0.2483585775 -0.5838976502
v 0.01263401937 -0.1584100723 -0.5838976502
v -0.02934195474 -0.06846155971 -0.5838976502
v -0.07131792605 0.0214869529 -0.5838976502
v -0.1132939011 0.111435473 -0.5838976502
v -0.1552698761 0.2013839781 -0.5838976502
v -0.1972458512 0.2913325131 -0.5838976502
v -0.2392218262 0.3812810183 -0.5838976502
v -0.2811977863 0.4712295234 -0.5838976502
v -0.3231737614 0.5611780286 -0.5838976502
v -0.3651497364 0.6511265635 -0.5838976502
v -0.4071257114 0.7410750985 -0.5838976502
v -0.4491016865 0.8310235739 -0.5838976502
v -0.3484418094 0.8779982328 -0.5838976502
v -0.3064658642 0.7880496979 -0.5838976502
v -0.2644898593 0.6981012225 -0.5838976502
v -0.2225138992 0.6081526875 -0.5838976502
v -0.1805379242 0.5182041526 -0.5838976502
v -0.1385619342 0.4282556474 -0.5838976502
v -0.09658596665 0.3383071125 -0.5838976502
v -0.05460999161 0.2483585775 -0.5838976502
v -0.01263401937 0.1584100723 -0.5838976502
v 0.02934195474 0.06846155971 -0.5838976502
v 0.07131792605 -0.0214869529 -0.5838976502
v 0.1132939011 -0.111435473 -0.5838976502
v 0.1552698761 -0.2013839781 -0.5838976502
v 0.1972458512 -0.2913325131 -0.5838976502
v 0.2392218262 -0.3812810183 -0.5838976502
v 0.2811977863 -0.4712295234 -0.5838976502
v 0.3231737614 -0.5611780286 -0.5838976502
v 0.3651497364 -0.6511265635 -0.5838976502
v 0.4071257114 -0.7410750985 -0.5838976502
v 0.4491016865 -0.8310235739 -0.5838976502
v 0.211291343 -0.4490838945 -0.6394163966
v -0.1245164573 0.2705042362 0.6394163966
v -0.4491016865 0.8310235739 0.5838976502
v 0.4407477081 -0.9444594383 -0.6394382715
v -0.3651497364 0.6511265635 0.5838976502
v -0.3231737614 0.5611780286 0.5838976502
v -0.2811977863 0.4712295234 0.5838976502
v -0.2392218262 0.3812810183 0.5838976502
v -0.1972458512 0.2913325131 0.5838976502
v -0.1552698761 0.2013839781 0.5838976502
v -0.1132939011 0.111435473 0.5838976502
v -0.07131792605 0.0214869529 0.5838976502
v -0.02934195474 -0.06846155971 0.5838976502
v 0.01263401937 -0.1584100723 0.5838976502
v 0.05460999161 -0.2483585775 0.5838976502
v 0.09658596665 -0.3383071125 0.5838976502
v 0.1385619342 -0.4282556474 0.5838976502
v 0.1805379242 -0.5182041526 0.5838976502
v 0.2225138992 -0.6081526875 0.5838976502
v 0.2644898593 -0.6981012225 0.5838976502
v 0.3064658642 -0.7880496979 0.5838976502
v 0.3484418094 -0.8779982328 0.5838976502
v 0.4491016865 -0.8310235739 0.5838976502
v 0.4071257114 -0.7410750985 0.5838976502
v 0.3651497364 -0.6511265635 0.5838976502
v 0.3231737614 -0.5611780286 0.5838976502
v 0.2811977863 -0.4712295234 0.5838976502
v 0.2392218262 -0.3812810183 0.5838976502
v 0.1972458512 -0.2913325131 0.5838976502
v 0.1552698761 -0.2013839781 0.5838976502
v 0.1132939011 -0.111435473 0.5838976502
v 0.07131792605 -0.0214869529 0.5838976502
v 0.02934195474 0.06846155971 0.5838976502
v -0.01263401937 0.1584100723 0.5838976502
v -0.05460999161 0.2483585775 0.5838976502
v -0.09658596665 0.3383071125 0.5838976502
v -0.1385619342 0.4282556474 0.5838976502
v -0.1805379242 0.5182041526 0.5838976502
v -0.2225138992 0.6081526875 0.5838976502
v -0.2644898593 0.6981012225 0.5838976502
v -0.3064658642 0.7880496979 0.5838976502
v -0.3484418094 0.8779982328 0.5838976502
v 0.4642350078 -0.9947893023 -0.5838976502
v -0.4910776913 0.9209721088 -0.38926512
v -0.4910776913 0.9209721088 -0.2919488251
v -0.4910776913 0.9209721088 -0.19463256
v -0.4910776913 0.9209721088 -0.09731628001
v -0.4910776913 0.9209721088 5.551115123e-17
v -0.4910776913 0.9209721088 0.09731628001
v -0.4910776913 0.9209721088 0.19463256
v -0.4910776913 0.9209721088 0.2919488251
v -0.4910776913 0.9209721088 0.38926512
v -0.4910776913 0.9209721088 0.4865813851
v -0.3904177845 0.9679467678 0.4865813851
v -0.3904177845 0.9679467678 0.38926512
v -0.3904177845 0.9679467678 0.2919488251
v -0.3904177845 0.9679467678 0.19463256
v -0.3904177845 0.9679467678 0.09731628001
v -0.3904177845 0.9679467678 1.110223025e-16
v -0.3904177845 0.9679467678 -0.09731628001
v -0.3904177845 0.9679467678 -0.19463256
v -0.3904177845 0.9679467678 -0.2919488251
v -0.3904177845 0.9679467678 -0.38926512
v -0.3904177845 0.9679467678 -0.4865813851
v 0.4910776913 -0.9209721088 -0.4865813851
v 0.4910776913 -0.9209721088 -0.38926512
v 0.4910776913 -0.9209721088 -0.2919488251
v 0.4910776913 -0.9209721088 -0.19463256
v 0.4910776913 -0.9209721088 -0.09731628001
v 0.4910776913 -0.9209721088 -5.551115123e-17
v 0.4910776913 -0.9209721088 0.09731628001
v 0.4910776913 -0.9209721088 0.19463256
v 0.4910776913 -0.9209721088 0.2919488251
v 0.4910776913 -0.9209721088 0.38926512
v 0.4910776913 -0.9209721088 0.4865813851
v 0.3904177845 -0.9679467678 0.4865813851
v 0.3904177845 -0.9679467678 0.38926512
v 0.3904177845 -0.9679467678 0.2919488251
v 0.3904177845 -0.9679467678 0.19463256
v 0.3904177845 -0.9679467678 0.09731628001
v 0.3904177845 -0.9679467678 0
v 0.3904177845 -0.9679467678 -0.09731628001
v 0.3904177845 -0.9679467678 -0.19463256
v 0.3904177845 -0.9679467678 -0.2919488251
v 0.3904177845 -0.9679467678 -0.38926512
v 0.3904177845 -0.9679467678 -0.4865813851
v 0.4672265053 -0.9932819009 0.38926512
v 0.4642350078 -0.9947893023 0.4765191674
v 0.4642350078 -0.9947893023 0.4345728457
v 0.4657421112 -0.9940581322 0.2432906926
v 0.4657421112 -0.9940581322 0.3406069577
v 0.4672265053 -0.9932819009 0.2919488251
v 0.4657421112 -0.9940581322 0.1459744126
v 0.4657421112 -0.9940581322 0.04865814
v 0.4672265053 -0.9932819009 0.09731628001
v 0.4672265053 -0.9932819009 -0.09731628001
v 0.4672265053 -0.9932819009 -5.551115123e-17
v 0.4657421112 -0.9940581322 -0.04865814
v 0.4672265053 -0.9932819009 -0.19463256
v 0.4672265053 -0.9932819009 -0.2919488251
v 0.4657421112 -0.9940581322 -0.2432906926
v 0.4642350078 -0.9947893023 -0.4345728457
v 0.4657421112 -0.9940581322 -0.3406069577
v 0.4672265053 -0.9932819009 -0.38926512
v 0.4217671156 -0.9966560602 -0.4345728457
v 0.4233498573 -0.997204721 -0.3406069577
v 0.4233498573 -0.997204721 -0.38926512
v -0.4672265053 0.9932819009 0.2919488251
v 0.4233498573 -0.997204721 -5.551115123e-17
v 0.4233498573 -0.997204721 0.04865814
v -0.4672265053 0.9932819009 0.19463256
v 0.4233498573 -0.997204721 0.09731628001
v -0.4657421112 0.9940581322 0.1459744126
v 0.4233498573 -0.997204721 0.1459744126
v -0.4672265053 0.9932819009 0.09731628001
v 0.4233498573 -0.997204721 0.19463256
v -0.4657421112 0.9940581322 0.04865814
v 0.4233498573 -0.997204721 0.2432906926
v -0.4672265053 0.9932819009 5.551115123e-17
v 0.4233498573 -0.997204721 0.2919488251
v -0.4657421112 0.9940581322 -0.04865814
v 0.4233498573 -0.997204721 0.3406069577
v -0.4672265053 0.9932819009 -0.09731628001
v 0.4233498573 -0.997204721 0.38926512
v -0.4657421112 0.9940581322 -0.1459744126
v 0.4217671156 -0.9966560602 0.4345728457
v -0.4672265053 0.9932819009 -0.19463256
v 0.4217671156 -0.9966560602 0.5184654593
v -0.4657421112 0.9940581322 -0.2432906926
v 0.4642350078 -0.9947893023 0.5184654593
v -0.4672265053 0.9932819009 -0.2919488251
v 0.4929443896 -0.963440001 0.5184654593
v -0.4657421112 0.9940581322 -0.3406069577
v 0.4929443896 -0.963440001 0.4345728457
v -0.4672265053 0.9932819009 -0.38926512
v 0.4934930801 -0.9618573189 0.38926512
v -0.4642350078 0.9947893023 -0.4345728457
v 0.4934930801 -0.9618573189 0.3406069577
v -0.4217671156 0.9966560602 -0.5025234222
v 0.4934930801 -0.9618573189 0.2919488251
v -0.4217671156 0.9966560602 -0.4345728457
v 0.4934930801 -0.9618573189 0.2432906926
v -0.4233498573 0.997204721 -0.38926512
v 0.4934930801 -0.9618573189 0.19463256
v -0.4233498573 0.997204721 -0.3406069577
v -0.4233498573 0.997204721 -0.2919488251
v 0.4934930801 -0.9618573189 0.1459744126
v -0.4233498573 0.997204721 -0.2432906926
v 0.4934930801 -0.9618573189 0.09731628001
v -0.4233498573 0.997204721 -0.19463256
v 0.4934930801 -0.9618573189 0.04865814
v -0.4233498573 0.997204721 5.551115123e-17
v 0.4934930801 -0.9618573189 -5.551115123e-17
v -0.4233498573 0.997204721 0.1459744126
v 0.4934930801 -0.9618573189 -0.04865814
v -0.4233498573 0.997204721 0.2919488251
v 0.4934930801 -0.9618573189 -0.09731628001
v -0.4217671156 0.9966560602 0.4345728457
v 0.4934930801 -0.9618573189 -0.1459744126
v -0.4929443896 0.963440001 0.5184654593
v 0.4934930801 -0.9618573189 -0.19463256
v -0.4934930801 0.9618573189 0.3406069577
v 0.4934930801 -0.9618573189 -0.2432906926
v -0.4934930801 0.9618573189 0.19463256
v 0.4934930801 -0.9618573189 -0.2919488251
v -0.4934930801 0.9618573189 0.04865814
v 0.4934930801 -0.9618573189 -0.3406069577
v -0.4934930801 0.9618573189 -0.09731628001
v 0.4934930801 -0.9618573189 -0.38926512
v -0.4934930801 0.9618573189 -0.2432906926
v 0.4929443896 -0.963440001 -0.4345728457
v -0.4934930801 0.9618573189 -0.38926512
v 0.4929443896 -0.963440001 -0.5184654593
v -0.4642350078 0.9947893023 -0.5184654593
v 0.4642350078 -0.9947893023 -0.5184654593
v 0.3372192681 -0.71892941 0.6394163966
v 0.4217671156 -0.9966560602 -0.5184654593
v 0.2756656706 -0.5833485126 0.6393508315
v -0.4642350078 0.9947893023 0.4765191674
v 0.211291343 -0.4490838945 0.6394163966
v -0.4642350078 0.9947893023 0.4345728457
v 0.1497377455 -0.3135029376 0.6393508315
v -0.4672265053 0.9932819009 0.38926512
v 0.08536341786 -0.1792383492 0.6394163966
v -0.4657421112 0.9940581322 0.3406069577
v 0.06578579545 -0.1336059123 0.6393508315
v -0.4657421112 0.9940581322 0.2432906926
v 0.04338744655 -0.08928982913 0.6394163966
v 0.02380982041 -0.04365740344 0.6393508315
v 0.107761763 -0.2235544324 0.6393508315
v 0.1273393929 -0.2691868544 0.6394163966
v 0.1693153679 -0.3591353893 0.6394163966
v 0.1917137206 -0.4034514427 0.6393508315
v 0.2336896956 -0.4933999777 0.6393508315
v 0.253267318 -0.5390323997 0.6394163966
v 0.295243293 -0.628980875 0.6394163966
v 0.3176416159 -0.673296988 0.6393508315
v 0.3596176207 -0.763245523 0.6393508315
v 0.3791952133 -0.8088779449 0.6394163966
v -0.4929443896 0.963440001 -0.5025234222
v -0.4929443896 0.963440001 -0.4345728457
v -0.4934930801 0.9618573189 -0.3406069577
v -0.4934930801 0.9618573189 -0.2919488251
v -0.4934930801 0.9618573189 -0.19463256
v -0.4934930801 0.9618573189 -0.1459744126
v -0.4934930801 0.9618573189 -0.04865814
v -0.4934930801 0.9618573189 5.551115123e-17
v -0.4934930801 0.9618573189 0.09731628001
v -0.4934930801 0.9618573189 0.1459744126
v -0.4934930801 0.9618573189 0.2432906926
v -0.4934930801 0.9618573189 0.2919488251
v -0.4934930801 0.9618573189 0.38926512
v -0.4929443896 0.963440001 0.4345728457
v -0.4642350078 0.9947893023 0.5184654593
v -0.4217671156 0.9966560602 0.5184654593
v -0.4233498573 0.997204721 0.38926512
v -0.4233498573 0.997204721 0.3406069577
v -0.4233498573 0.997204721 0.2432906926
v -0.4233498573 0.997204721 0.19463256
v -0.4233498573 0.997204721 0.09731628001
v -0.4233498573 0.997204721 0.04865814
v -0.4233498573 0.997204721 -0.04865814
v -0.4233498573 0.997204721 -0.09731628001
v -0.4233498573 0.997204721 -0.1459744126
v -0.01816615462 0.0462911129 0.6393508315
v -0.06014212966 0.136239633 0.6393508315
v -0.04056450352 0.09060720354 0.6394163966
v 0.2674405575 -0.4776495397 0.6220539808
v -0.2084684074 0.4504012764 0.6394163966
v -0.2280460149 0.4960336685 0.6393508315
v 0.3094165325 -0.5675981045 0.6220539808
v -0.2504443824 0.5403497815 0.6394163966
v 0.33040452 -0.612572372 0.6220539808
v -0.2700220048 0.5859822035 0.6393508315
v 0.3513925076 -0.6575466394 0.6220539808
v -0.2924203277 0.6302983165 0.6394163966
v 0.3723804951 -0.7025209069 0.6220539808
v -0.3119979799 0.6759307384 0.6393508315
v 0.3933684826 -0.7474951148 0.6220539808
v -0.3343963325 0.7202468514 0.6394163966
v 0.4143564403 -0.7924693823 0.6220539808
v -0.3539739549 0.7658792138 0.6393508315
v 0.4486660361 -0.8685578704 0.6231707931
v -0.3763723075 0.8101953268 0.6394163966
v 0.413077414 -0.8851658702 0.6394382715
v -0.3703359365 0.8864464164 0.6231707931
v 0.3774887621 -0.90177387 0.6231707931
v -0.3412110507 0.8266038895 0.6220539808
v 0.3432071805 -0.8256723881 0.6242567301
v -0.3202230632 0.781629622 0.6220539808
v 0.322219193 -0.7806981206 0.6242567301
v -0.2992350757 0.7366554141 0.6220539808
v 0.3012312055 -0.7357238531 0.6242567301
v -0.2782470882 0.6916811466 0.6220539808
v 0.2802432179 -0.6907495856 0.6242567301
v -0.2572591305 0.6467068791 0.6220539808
v 0.2592552304 -0.6457753181 0.6242567301
v -0.236271143 0.6017326117 0.6220539808
v 0.2382672429 -0.6008011103 0.6242567301
v -0.2152831256 0.5567583442 0.6220539808
v 0.2172792554 -0.5558268428 0.6242567301
v -0.194295153 0.5117840767 0.6220539808
v 0.1962912679 -0.5108525753 0.6242567301
v -0.1733071655 0.466809839 0.6220539808
v 0.1753032953 -0.4658783376 0.6242567301
v 0.1543152928 -0.4209040701 0.6242567301
v -0.152319178 0.4218355715 0.6220539808
v 0.1333273202 -0.3759298027 0.6242567301
v -0.1313311905 0.3768613338 0.6220539808
v 0.1123393327 -0.3309555352 0.6242567301
v -0.1103432029 0.3318870664 0.6220539808
v 0.0283873789 -0.1510585099 0.6242567301
v -0.08935521543 0.2869127989 0.6220539808
v -0.03457658365 -0.01613573916 0.6242567301
v -0.06836722791 0.2419385612 0.6220539808
v -0.09754054248 0.1187870428 0.6242567301
v -0.04737924412 0.1969642937 0.6220539808
v -0.160504505 0.2537097931 0.6242567301
v -0.02639125474 0.1519900411 0.6220539808
v -0.2234684825 0.3886325657 0.6242567301
v -0.005403268151 0.1070157737 0.6220539808
v -0.2864324152 0.523555398 0.6242567301
v 0.01558471844 0.06204152107 0.6220539808
v -0.3493964076 0.6584781408 0.6242567301
v 0.03657270595 0.0170672629 0.6220539808
v -0.4123603404 0.7934008837 0.6242567301
v 0.05756069347 -0.0279069934 0.6220539808
v -0.4728523195 0.9561338425 0.627689898
v 0.07854867727 -0.07288125157 0.6220539808
v -0.3763723075 0.8101953268 -0.6394163966
v 0.09953667223 -0.1178555042 0.6220539808
v -0.3119979799 0.6759307384 -0.6393508315
v 0.1205246523 -0.1628297716 0.6220539808
v -0.2504443824 0.5403497815 -0.6394163966
v 0.1415126324 -0.2078040242 0.6220539808
v -0.1860700548 0.4060851932 -0.6393508315
v 0.1625006348 -0.2527782917 0.6220539808
v -0.1245164573 0.2705042362 -0.6394163966
v 0.1834886074 -0.2977525294 0.6220539808
v -0.06014212966 0.136239633 -0.6393508315
v 0.2044765949 -0.3427267969 0.6220539808
v 0.001411471516 0.0006586867385 -0.6394163966
v 0.2254645824 -0.3877010643 0.6220539808
v 0.06578579545 -0.1336059123 -0.6393508315
v 0.2464525849 -0.4326753318 0.6220539808
v 0.08536341786 -0.1792383492 -0.6394163966
v 0.288428545 -0.522623837 0.6220539808
v 0.107761763 -0.2235544324 -0.6393508315
v 0.1273393929 -0.2691868544 -0.6394163966
v 0.04338744655 -0.08928982913 -0.6394163966
v 0.02380982041 -0.04365740344 -0.6393508315
v -0.01816615462 0.0462911129 -0.6393508315
v -0.04056450352 0.09060720354 -0.6394163966
v -0.08254047483 0.1805557162 -0.6394163966
v -0.1021180972 0.226188153 -0.6393508315
v -0.1440940797 0.3161366582 -0.6393508315
v -0.1664924175 0.3604527712 -0.6394163966
v -0.2084684074 0.4504012764 -0.6394163966
v -0.2280460149 0.4960336685 -0.6393508315
v -0.2700220048 0.5859822035 -0.6393508315
v -0.2924203277 0.6302983165 -0.6394163966
v -0.3343963325 0.7202468514 -0.6394163966
v -0.3539739549 0.7658792138 -0.6393508315
v -0.4911580682 0.9469656944 0.6070768237
v -0.4809932411 0.9749189019 0.6070768237
v -0.413077414 0.8851658702 0.6394382715
v -0.4415132105 0.8532303572 0.6231707931
v -0.3913723528 0.7484266758 0.6242567301
v -0.3703843951 0.7034524083 0.6242567301
v -0.3284083903 0.6135038733 0.6242567301
v -0.3074204028 0.5685296059 0.6242567301
v -0.2654444575 0.4785811007 0.6242567301
v -0.2444564551 0.4336068332 0.6242567301
v -0.2024804652 0.3436583281 0.6242567301
v -0.1814924926 0.2986840606 0.6242567301
v -0.1395165175 0.2087355554 0.6242567301
v -0.11852853 0.1637612879 0.6242567301
v -0.07655255497 0.07381277531 0.6242567301
v -0.0555645749 0.02883851901 0.6242567301
v -0.01358859707 -0.06111000106 0.6242567301
v 0.007399389986 -0.1060842574 0.6242567301
v 0.04937536269 -0.1960327625 0.6242567301
v 0.07036335021 -0.24100703 0.6242567301
v 0.09135133773 -0.2859812975 0.6242567301
v 0.09953667223 -0.1178555042 -0.6220539808
v 0.2756656706 -0.5833485126 -0.6393508315
v 0.05756069347 -0.0279069934 -0.6220539808
v 0.295243293 -0.628980875 -0.6394163966
v 0.03657270595 0.0170672629 -0.6220539808
v 0.3176416159 -0.673296988 -0.6393508315
v 0.01558471844 0.06204152107 -0.6220539808
v 0.3372192681 -0.71892941 -0.6394163966
v -0.005403268151 0.1070157737 -0.6220539808
v 0.3596176207 -0.763245523 -0.6393508315
v -0.02639125474 0.1519900411 -0.6220539808
v 0.3791952133 -0.8088779449 -0.6394163966
v -0.04737924412 0.1969642937 -0.6220539808
v 0.4415132105 -0.8532303572 -0.6231707931
v -0.06836722791 0.2419385612 -0.6220539808
v 0.4143564403 -0.7924693823 -0.6220539808
v -0.08935521543 0.2869127989 -0.6220539808
v 0.3933684826 -0.7474951148 -0.6220539808
v -0.1103432029 0.3318870664 -0.6220539808
v 0.3723804951 -0.7025209069 -0.6220539808
v -0.1313311905 0.3768613338 -0.6220539808
v 0.3513925076 -0.6575466394 -0.6220539808
v 0.33040452 -0.612572372 -0.6220539808
v 0.3094165325 -0.5675981045 -0.6220539808
v -0.152319178 0.4218355715 -0.6220539808
v -0.236271143 0.6017326117 -0.6220539808
v 0.288428545 -0.522623837 -0.6220539808
v -0.2992350757 0.7366554141 -0.6220539808
v 0.2674405575 -0.4776495397 -0.6220539808
v -0.3774887621 0.90177387 -0.6231707931
v 0.2464525849 -0.4326753318 -0.6220539808
v -0.4123603404 0.7934008837 -0.6242567301
v 0.2254645824 -0.3877010643 -0.6220539808
v -0.3493964076 0.6584781408 -0.6242567301
v 0.2044765949 -0.3427267969 -0.6220539808
v -0.2864324152 0.523555398 -0.6242567301
v 0.1834886074 -0.2977525294 -0.6220539808
v -0.2234684825 0.3886325657 -0.6242567301
v 0.1625006348 -0.2527782917 -0.6220539808
v -0.160504505 0.2537097931 -0.6242567301
v 0.1415126324 -0.2078040242 -0.6220539808
v -0.07655255497 0.07381277531 -0.6242567301
v 0.1205246523 -0.1628297716 -0.6220539808
v 0.07854867727 -0.07288125157 -0.6220539808
v -0.11852853 0.1637612879 -0.6242567301
v -0.09754054248 0.1187870428 -0.6242567301
v -0.1395165175 0.2087355554 -0.6242567301
v -0.1814924926 0.2986840606 -0.6242567301
v -0.2024804652 0.3436583281 -0.6242567301
v -0.2444564551 0.4336068332 -0.6242567301
v -0.2654444575 0.4785811007 -0.6242567301
v -0.3074204028 0.5685296059 -0.6242567301
v -0.3284083903 0.6135038733 -0.6242567301
v -0.3703843951 0.7034524083 -0.6242567301
v -0.3913723528 0.7484266758 -0.6242567301
v -0.4486660361 0.8685578704 -0.6231707931
v -0.413077414 0.8851658702 -0.6394382715
v -0.3412110507 0.8266038895 -0.6220539808
v -0.3202230632 0.781629622 -0.6220539808
v -0.2782470882 0.6916811466 -0.6220539808
v -0.2572591305 0.6467068791 -0.6220539808
v -0.2152831256 0.5567583442 -0.6220539808
v -0.194295153 0.5117840767 -0.6220539808
v -0.1733071655 0.466809839 -0.6220539808
v 0.4110843837 -0.9844520092 0.6085032821
v 0.07036335021 -0.24100703 -0.6242567301
v 0.09135133773 -0.2859812975 -0.6242567301
v 0.4381521642 -0.9942768216 0.6083158851
v 0.1123393327 -0.3309555352 -0.6242567301
v 0.4297443628 -0.9747865796 0.6291076541
v 0.1333273202 -0.3759298027 -0.6242567301
v -0.4110843837 0.9844520092 -0.6085032821
v 0.1543152928 -0.4209040701 -0.6242567301
v -0.4381521642 0.9942768216 -0.6083158851
v 0.1753032953 -0.4658783376 -0.6242567301
v -0.4297443628 0.9747865796 -0.6291076541
v 0.1962912679 -0.5108525753 -0.6242567301
v 0.4110843837 -0.9844520092 -0.6085032821
v 0.2172792554 -0.5558268428 -0.6242567301
v 0.4297443628 -0.9747865796 -0.6291076541
v 0.2382672429 -0.6008011103 -0.6242567301
v 0.4381521642 -0.9942768216 -0.6083158851
v 0.2592552304 -0.6457753181 -0.6242567301
v 0.4911580682 -0.9469656944 0.6070768237
v 0.2802432179 -0.6907495856 -0.6242567301
v 0.4809932411 -0.9749189019 0.6070768237
v 0.3012312055 -0.7357238531 -0.6242567301
v 0.322219193 -0.7806981206 -0.6242567301
v 0.3432071805 -0.8256723881 -0.6242567301
v 0.4728523195 -0.9561338425 0.627689898
v -0.4910776913 0.9209721088 -0.4865813851
v 0.3703359365 -0.8864464164 -0.6231707931
v -0.4929443896 0.963440001 0.5838976502
v 0.413077414 -0.8851658702 -0.6394382715
v -0.4217671156 0.9966560602 0.5838976502
v -0.4911580682 0.9469656944 -0.6070768237
v 0.4217671156 -0.9966560602 0.5838976502
v -0.4809932411 0.9749189019 -0.6070768237
v -0.4217671156 0.9966560602 -0.5838976502
v -0.4728523195 0.9561338425 -0.627689898
v 0.4217671156 -0.9966560602 -0.5838976502
v -0.4110843837 0.9844520092 0.6085032821
v 0.4573557377 -0.9800480604 0.6231707931
v -0.4297443628 0.9747865796 0.6291076541
v 0.4573557377 -0.9800480604 -0.6231707931
v -0.4381521642 0.9942768216 0.6083158851
v -0.4642350078 0.9947893023 -0.5838976502
v -0.4407477081 0.9444594383 -0.6394382715
v 0.4642350078 -0.9947893023 0.5838976502
v 0.4407477081 -0.9444594383 0.6394382715
v -0.4642350078 0.9947893023 0.5838976502
v -0.4407477081 0.9444594383 0.6394382715
v 0.4763363898 -0.9278513193 -0.6231707931
v 0.4929443896 -0.963440001 -0.5838976502
v 0.4929443896 -0.963440001 0.5838976502
v 0.4763363898 -0.9278513193 0.6231707931
v 0.405159086 -0.9610674381 -0.6231707931
v -0.4573557377 0.9800480604 -0.6231707931
v -0.405159086 0.9610674381 -0.6231707931
v 0.405159086 -0.9610674381 0.6231707931
v -0.4573557377 0.9800480604 0.6231707931
v -0.405159086 0.9610674381 0.6231707931
v -0.4763363898 0.9278513193 -0.6231707931
v -0.4929443896 0.963440001 -0.5838976502
v -0.4763363898 0.9278513193 0.6231707931
v -0.4071257114 0.7410750985 0.5838976502
v 0.4809932411 -0.9749189019 -0.6070768237
v 0.4728523195 -0.9561338425 -0.627689898
v 0.4911580682 -0.9469656944 -0.6070768237
v -0.4497802854 0.8324776888 0.4865813851
v -0.4071257114 0.7410750985 0.48624143
v -0.3651497364 0.6511265635 0.48624143
v -0.3231737614 0.5611780286 0.48624143
v -0.2811977863 0.4712295234 0.48624143
v -0.2392218262 0.3812810183 0.48624143
v -0.1972458512 0.2913325131 0.48624143
v -0.1552698761 0.2013839781 0.48624143
v -0.1132939011 0.111435473 0.48624143
v -0.07131792605 0.0214869529 0.48624143
v -0.02934195474 -0.06846155971 0.48624143
v 0.01263401937 -0.1584100723 0.48624143
v 0.05460999161 -0.2483585775 0.48624143
v 0.09658596665 -0.3383071125 0.48624143
v 0.1385619342 -0.4282556474 0.48624143
v 0.1805379242 -0.5182041526 0.48624143
v 0.2225138992 -0.6081526875 0.48624143
v 0.2644898593 -0.6981012225 0.48624143
v 0.3064658642 -0.7880496979 0.48624143
v 0.3491203785 -0.8794522882 0.4865813851
v -0.4497802854 0.8324776888 -0.4865813851
v -0.4497802854 0.8324776888 -0.38926512
v -0.4497802854 0.8324776888 -0.2919488251
v -0.4497802854 0.8324776888 -0.19463256
v -0.4497802854 0.8324776888 -0.09731628001
v -0.4497802854 0.8324776888 5.551115123e-17
v -0.4497802854 0.8324776888 0.09731628001
v -0.4497802854 0.8324776888 0.19463256
v -0.4497802854 0.8324776888 0.2919488251
v -0.4497802854 0.8324776888 0.38926512
v 0.3491203785 -0.8794522882 -0.4865813851
v 0.3064658642 -0.7880496979 -0.48624143
v 0.2644898593 -0.6981012225 -0.48624143
v 0.2225138992 -0.6081526875 -0.48624143
v 0.1805379242 -0.5182041526 -0.48624143
v 0.1385619342 -0.4282556474 -0.48624143
v 0.09658596665 -0.3383071125 -0.48624143
v 0.05460999161 -0.2483585775 -0.48624143
v 0.01263401937 -0.1584100723 -0.48624143
v -0.02934195474 -0.06846155971 -0.48624143
v -0.07131792605 0.0214869529 -0.48624143
v -0.1132939011 0.111435473 -0.48624143
v -0.1552698761 0.2013839781 -0.48624143
v -0.1972458512 0.2913325131 -0.48624143
v -0.2392218262 0.3812810183 -0.48624143
v -0.2811977863 0.4712295234 -0.48624143
v -0.3231737614 0.5611780286 -0.48624143
v -0.3651497364 0.6511265635 -0.48624143
v -0.4071257114 0.7410750985 -0.48624143
v 0.3491203785 -0.8794522882 0.38926512
v 0.3491203785 -0.8794522882 0.2919488251
v 0.3491203785 -0.8794522882 0.19463256
v 0.3491203785 -0.8794522882 0.09731628001
v 0.3491203785 -0.8794522882 0
v 0.3491203785 -0.8794522882 -0.09731628001
v 0.3491203785 -0.8794522882 -0.19463256
v 0.3491203785 -0.8794522882 -0.2919488251
v 0.3491203785 -0.8794522882 -0.38926512
v -0.4084828198 0.7439832091 0.38926512
v -0.3651497364 0.6511265635 0.3885851502
v -0.3231737614 0.5611780286 0.3885851502
v -0.2811977863 0.4712295234 0.3885851502
v -0.2392218262 0.3812810183 0.3885851502
v -0.1972458512 0.2913325131 0.3885851502
v -0.1552698761 0.2013839781 0.3885851502
v -0.1132939011 0.111435473 0.3885851502
v -0.07131792605 0.0214869529 0.3885851502
v -0.02934195474 -0.06846155971 0.3885851502
v 0.01263401937 -0.1584100723 0.3885851502
v 0.05460999161 -0.2483585775 0.3885851502
v 0.09658596665 -0.3383071125 0.3885851502
v 0.1385619342 -0.4282556474 0.3885851502
v 0.1805379242 -0.5182041526 0.3885851502
v 0.2225138992 -0.6081526875 0.3885851502
v 0.2644898593 -0.6981012225 0.3885851502
v 0.3078229725 -0.7909578085 0.38926512
v -0.4084828198 0.7439832091 -0.38926512
v -0.4084828198 0.7439832091 -0.2919488251
v -0.4084828198 0.7439832091 -0.19463256
v -0.4084828198 0.7439832091 -0.09731628001
v -0.4084828198 0.7439832091 5.551115123e-17
v -0.4084828198 0.7439832091 0.09731628001
v -0.4084828198 0.7439832091 0.19463256
v -0.4084828198 0.7439832091 0.2919488251
v 0.3078229725 -0.7909578085 -0.38926512
v 0.2644898593 -0.6981012225 -0.3885851502
v 0.2225138992 -0.6081526875 -0.3885851502
v 0.1805379242 -0.5182041526 -0.3885851502
v 0.1385619342 -0.4282556474 -0.3885851502
v 0.09658596665 -0.3383071125 -0.3885851502
v 0.05460999161 -0.2483585775 -0.3885851502
v 0.01263401937 -0.1584100723 -0.3885851502
v -0.02934195474 -0.06846155971 -0.3885851502
v -0.07131792605 0.0214869529 -0.3885851502
v -0.1132939011 0.111435473 -0.3885851502
v -0.1552698761 0.2013839781 -0.3885851502
v -0.1972458512 0.2913325131 -0.3885851502
v -0.2392218262 0.3812810183 -0.3885851502
v -0.2811977863 0.4712295234 -0.3885851502
v -0.3231737614 0.5611780286 -0.3885851502
v -0.3651497364 0.6511265635 -0.3885851502
v 0.3078229725 -0.7909578085 0.2919488251
v 0.3078229725 -0.7909578085 0.19463256
v 0.3078229725 -0.7909578085 0.09731628001
v 0.3078229725 -0.7909578085 0
v 0.3078229725 -0.7909578085 -0.09731628001
v 0.3078229725 -0.7909578085 -0.19463256
v 0.3078229725 -0.7909578085 -0.2919488251
v -0.3671854436 0.6554887891 0.2919488251
v -0.3231737614 0.5611780286 0.2909289002
v -0.2811977863 0.4712295234 0.2909289002
v -0.2392218262 0.3812810183 0.2909289002
v -0.1972458512 0.2913325131 0.2909289002
v -0.1552698761 0.2013839781 0.2909289002
v -0.1132939011 0.111435473 0.2909289002
v -0.07131792605 0.0214869529 0.2909289002
v -0.02934195474 -0.06846155971 0.2909289002
v 0.01263401937 -0.1584100723 0.2909289002
v 0.05460999161 -0.2483585775 0.2909289002
v 0.09658596665 -0.3383071125 0.2909289002
v 0.1385619342 -0.4282556474 0.2909289002
v 0.1805379242 -0.5182041526 0.2909289002
v 0.2225138992 -0.6081526875 0.2909289002
v 0.2665255666 -0.7024633884 0.2919488251
v -0.3671854436 0.6554887891 -0.2919488251
v -0.3671854436 0.6554887891 -0.19463256
v -0.3671854436 0.6554887891 -0.09731628001
v -0.3671854436 0.6554887891 5.551115123e-17
v -0.3671854436 0.6554887891 0.09731628001
v -0.3671854436 0.6554887891 0.19463256
v 0.2665255666 -0.7024633884 -0.2919488251
v 0.2225138992 -0.6081526875 -0.2909289002
v 0.1805379242 -0.5182041526 -0.2909289002
v 0.1385619342 -0.4282556474 -0.2909289002
v 0.09658596665 -0.3383071125 -0.2909289002
v 0.05460999161 -0.2483585775 -0.2909289002
v 0.01263401937 -0.1584100723 -0.2909289002
v -0.02934195474 -0.06846155971 -0.2909289002
v -0.07131792605 0.0214869529 -0.2909289002
v -0.1132939011 0.111435473 -0.2909289002
v -0.1552698761 0.2013839781 -0.2909289002
v -0.1972458512 0.2913325131 -0.2909289002
v -0.2392218262 0.3812810183 -0.2909289002
v -0.2811977863 0.4712295234 -0.2909289002
v -0.3231737614 0.5611780286 -0.2909289002
v 0.2665255666 -0.7024633884 0.19463256
v 0.2665255666 -0.7024633884 0.09731628001
v 0.2665255666 -0.7024633884 0
v 0.2665255666 -0.7024633884 -0.09731628001
v 0.2665255666 -0.7024633884 -0.19463256
v -0.3258880377 0.5669943094 0.19463256
v -0.2811977863 0.4712295234 0.1932726651
v -0.2392218262 0.3812810183 0.1932726651
v -0.1972458512 0.2913325131 0.1932726651
v -0.1552698761 0.2013839781 0.1932726651
v -0.1132939011 0.111435473 0.1932726651
v -0.07131792605 0.0214869529 0.1932726651
v -0.02934195474 -0.06846155971 0.1932726651
v 0.01263401937 -0.1584100723 0.1932726651
v 0.05460999161 -0.2483585775 0.1932726651
v 0.09658596665 -0.3383071125 0.1932726651
v 0.1385619342 -0.4282556474 0.1932726651
v 0.1805379242 -0.5182041526 0.1932726651
v 0.2252281457 -0.6139689088 0.19463256
v -0.3258880377 0.5669943094 -0.19463256
v -0.3258880377 0.5669943094 -0.09731628001
v -0.3258880377 0.5669943094 5.551115123e-17
v -0.3258880377 0.5669943094 0.09731628001
v 0.2252281457 -0.6139689088 -0.19463256
v 0.1805379242 -0.5182041526 -0.1932726651
v 0.1385619342 -0.4282556474 -0.1932726651
v 0.09658596665 -0.3383071125 -0.1932726651
v 0.05460999161 -0.2483585775 -0.1932726651
v 0.01263401937 -0.1584100723 -0.1932726651
v -0.02934195474 -0.06846155971 -0.1932726651
v -0.07131792605 0.0214869529 -0.1932726651
v -0.1132939011 0.111435473 -0.1932726651
v -0.1552698761 0.2013839781 -0.1932726651
v -0.1972458512 0.2913325131 -0.1932726651
v -0.2392218262 0.3812810183 -0.1932726651
v -0.2811977863 0.4712295234 -0.1932726651
v 0.2252281457 -0.6139689088 0.09731628001
v 0.2252281457 -0.6139689088 0
v 0.2252281457 -0.6139689088 -0.09731628001
v -0.2845906317 0.4784998894 0.09731628001
v -0.2392218262 0.3812810183 0.09561640024
v -0.1972458512 0.2913325131 0.09561640024
v -0.1552698761 0.2013839781 0.09561640024
v -0.1132939011 0.111435473 0.09561640024
v -0.07131792605 0.0214869529 0.09561640024
v -0.02934195474 -0.06846155971 0.09561640024
v 0.01263401937 -0.1584100723 0.09561640024
v 0.05460999161 -0.2483585775 0.09561640024
v 0.09658596665 -0.3383071125 0.09561640024
v 0.1385619342 -0.4282556474 0.09561640024
v 0.1839307398 -0.5254744887 0.09731628001
v -0.2845906317 0.4784998894 -0.09731628001
v -0.2845906317 0.4784998894 5.551115123e-17
v 0.1839307398 -0.5254744887 -0.09731628001
v 0.1385619342 -0.4282556474 -0.09561640024
v 0.09658596665 -0.3383071125 -0.09561640024
v 0.05460999161 -0.2483585775 -0.09561640024
v 0.01263401937 -0.1584100723 -0.09561640024
v -0.02934195474 -0.06846155971 -0.09561640024
v -0.07131792605 0.0214869529 -0.09561640024
v -0.1132939011 0.111435473 -0.09561640024
v -0.1552698761 0.2013839781 -0.09561640024
v -0.1972458512 0.2913325131 -0.09561640024
v -0.2392218262 0.3812810183 -0.09561640024
v 0.1839307398 -0.5254744887 0
v -0.2432932109 0.3900054097 5.551115123e-17
v -0.1972458512 0.2913325131 -0.002039846266
v -0.1552698761 0.2013839781 -0.002039846266
v -0.1132939011 0.111435473 -0.002039846266
v -0.07131792605 0.0214869529 -0.002039846266
v -0.02934195474 -0.06846155971 -0.002039846266
v 0.01263401937 -0.1584100723 -0.002039846266
v 0.05460999161 -0.2483585775 -0.002039846266
v 0.09658596665 -0.3383071125 -0.002039846266
v 0.1426333338 -0.4369800389 0
v -0.3491203785 0.8794522882 0.4865813851
v -0.3491203785 0.8794522882 0.38926512
v -0.3491203785 0.8794522882 0.2919488251
v -0.3491203785 0.8794522882 0.19463256
v -0.3491203785 0.8794522882 0.09731628001
v -0.3491203785 0.8794522882 1.110223025e-16
v -0.3491203785 0.8794522882 -0.09731628001
v -0.3491203785 0.8794522882 -0.19463256
v -0.3491203785 0.8794522882 -0.2919488251
v -0.3491203785 0.8794522882 -0.38926512
v -0.3491203785 0.8794522882 -0.4865813851
v 0.4497802854 -0.8324776888 0.4865813851
v 0.4071257114 -0.7410750985 0.48624143
v 0.3651497364 -0.6511265635 0.48624143
v 0.3231737614 -0.5611780286 0.48624143
v 0.2811977863 -0.4712295234 0.48624143
v 0.2392218262 -0.3812810183 0.48624143
v 0.1972458512 -0.2913325131 0.48624143
v 0.1552698761 -0.2013839781 0.48624143
v 0.1132939011 -0.111435473 0.48624143
v 0.07131792605 -0.0214869529 0.48624143
v 0.02934195474 0.06846155971 0.48624143
v -0.01263401937 0.1584100723 0.48624143
v -0.05460999161 0.2483585775 0.48624143
v -0.09658596665 0.3383071125 0.48624143
v -0.1385619342 0.4282556474 0.48624143
v -0.1805379242 0.5182041526 0.48624143
v -0.2225138992 0.6081526875 0.48624143
v -0.2644898593 0.6981012225 0.48624143
v -0.3064658642 0.7880496979 0.48624143
v 0.4497802854 -0.8324776888 -0.4865813851
v 0.4497802854 -0.8324776888 -0.38926512
v 0.4497802854 -0.8324776888 -0.2919488251
v 0.4497802854 -0.8324776888 -0.19463256
v 0.4497802854 -0.8324776888 -0.09731628001
v 0.4497802854 -0.8324776888 -5.551115123e-17
v 0.4497802854 -0.8324776888 0.09731628001
v 0.4497802854 -0.8324776888 0.19463256
v 0.4497802854 -0.8324776888 0.2919488251
v 0.4497802854 -0.8324776888 0.38926512
v -0.3064658642 0.7880496979 -0.48624143
v -0.2644898593 0.6981012225 -0.48624143
v -0.2225138992 0.6081526875 -0.48624143
v -0.1805379242 0.5182041526 -0.48624143
v -0.1385619342 0.4282556474 -0.48624143
v -0.09658596665 0.3383071125 -0.48624143
v -0.05460999161 0.2483585775 -0.48624143
v -0.01263401937 0.1584100723 -0.48624143
v 0.02934195474 0.06846155971 -0.48624143
v 0.07131792605 -0.0214869529 -0.48624143
v 0.1132939011 -0.111435473 -0.48624143
v 0.1552698761 -0.2013839781 -0.48624143
v 0.1972458512 -0.2913325131 -0.48624143
v 0.2392218262 -0.3812810183 -0.48624143
v 0.2811977863 -0.4712295234 -0.48624143
v 0.3231737614 -0.5611780286 -0.48624143
v 0.3651497364 -0.6511265635 -0.48624143
v 0.4071257114 -0.7410750985 -0.48624143
v -0.3078229725 0.7909578085 0.38926512
v -0.3078229725 0.7909578085 0.2919488251
v -0.3078229725 0.7909578085 0.19463256
v -0.3078229725 0.7909578085 0.09731628001
v -0.3078229725 0.7909578085 1.110223025e-16
v -0.3078229725 0.7909578085 -0.09731628001
v -0.3078229725 0.7909578085 -0.19463256
v -0.3078229725 0.7909578085 -0.2919488251
v -0.3078229725 0.7909578085 -0.38926512
v 0.4084828198 -0.7439832091 0.38926512
v 0.3651497364 -0.6511265635 0.3885851502
v 0.3231737614 -0.5611780286 0.3885851502
v 0.2811977863 -0.4712295234 0.3885851502
v 0.2392218262 -0.3812810183 0.3885851502
v 0.1972458512 -0.2913325131 0.3885851502
v 0.1552698761 -0.2013839781 0.3885851502
v 0.1132939011 -0.111435473 0.3885851502
v 0.07131792605 -0.0214869529 0.3885851502
v 0.02934195474 0.06846155971 0.3885851502
v -0.01263401937 0.1584100723 0.3885851502
v -0.05460999161 0.2483585775 0.3885851502
v -0.09658596665 0.3383071125 0.3885851502
v -0.1385619342 0.4282556474 0.3885851502
v -0.1805379242 0.5182041526 0.3885851502
v -0.2225138992 0.6081526875 0.3885851502
v -0.2644898593 0.6981012225 0.3885851502
v 0.4084828198 -0.7439832091 -0.38926512
v 0.4084828198 -0.7439832091 -0.2919488251
v 0.4084828198 -0.7439832091 -0.19463256
v 0.4084828198 -0.7439832091 -0.09731628001
v 0.4084828198 -0.7439832091 -5.551115123e-17
v 0.4084828198 -0.7439832091 0.09731628001
v 0.4084828198 -0.7439832091 0.19463256
v 0.4084828198 -0.7439832091 0.2919488251
v -0.2644898593 0.6981012225 -0.3885851502
v -0.2225138992 0.6081526875 -0.3885851502
v -0.1805379242 0.5182041526 -0.3885851502
v -0.1385619342 0.4282556474 -0.3885851502
v -0.09658596665 0.3383071125 -0.3885851502
v -0.05460999161 0.2483585775 -0.3885851502
v -0.01263401937 0.1584100723 -0.3885851502
v 0.02934195474 0.06846155971 -0.3885851502
v 0.07131792605 -0.0214869529 -0.3885851502
v 0.1132939011 -0.111435473 -0.3885851502
v 0.1552698761 -0.2013839781 -0.3885851502
v 0.1972458512 -0.2913325131 -0.3885851502
v 0.2392218262 -0.3812810183 -0.3885851502
v 0.2811977863 -0.4712295234 -0.3885851502
v 0.3231737614 -0.5611780286 -0.3885851502
v 0.3651497364 -0.6511265635 -0.3885851502
v -0.2665255666 0.7024633884 0.2919488251
v -0.2665255666 0.7024633884 0.19463256
v -0.2665255666 0.7024633884 0.09731628001
v -0.2665255666 0.7024633884 1.110223025e-16
v -0.2665255666 0.7024633884 -0.09731628001
v -0.2665255666 0.7024633884 -0.19463256
v -0.2665255666 0.7024633884 -0.2919488251
v 0.3671854436 -0.6554887891 0.2919488251
v 0.3231737614 -0.5611780286 0.2909289002
v 0.2811977863 -0.4712295234 0.2909289002
v 0.2392218262 -0.3812810183 0.2909289002
v 0.1972458512 -0.2913325131 0.2909289002
v 0.1552698761 -0.2013839781 0.2909289002
v 0.1132939011 -0.111435473 0.2909289002
v 0.07131792605 -0.0214869529 0.2909289002
v 0.02934195474 0.06846155971 0.2909289002
v -0.01263401937 0.1584100723 0.2909289002
v -0.05460999161 0.2483585775 0.2909289002
v -0.09658596665 0.3383071125 0.2909289002
v -0.1385619342 0.4282556474 0.2909289002
v -0.1805379242 0.5182041526 0.2909289002
v -0.2225138992 0.6081526875 0.2909289002
v 0.3671854436 -0.6554887891 -0.2919488251
v 0.3671854436 -0.6554887891 -0.19463256
v 0.3671854436 -0.6554887891 -0.09731628001
v 0.3671854436 -0.6554887891 -5.551115123e-17
v 0.3671854436 -0.6554887891 0.09731628001
v 0.3671854436 -0.6554887891 0.19463256
v -0.2225138992 0.6081526875 -0.2909289002
v -0.1805379242 0.5182041526 -0.2909289002
v -0.1385619342 0.4282556474 -0.2909289002
v -0.09658596665 0.3383071125 -0.2909289002
v -0.05460999161 0.2483585775 -0.2909289002
v -0.01263401937 0.1584100723 -0.2909289002
v 0.02934195474 0.06846155971 -0.2909289002
v 0.07131792605 -0.0214869529 -0.2909289002
v 0.1132939011 -0.111435473 -0.2909289002
v 0.1552698761 -0.2013839781 -0.2909289002
v 0.1972458512 -0.2913325131 -0.2909289002
v 0.2392218262 -0.3812810183 -0.2909289002
v 0.2811977863 -0.4712295234 -0.2909289002
v 0.3231737614 -0.5611780286 -0.2909289002
v -0.2252281457 0.6139689088 0.19463256
v -0.2252281457 0.6139689088 0.09731628001
v -0.2252281457 0.6139689088 1.110223025e-16
v -0.2252281457 0.6139689088 -0.09731628001
v -0.2252281457 0.6139689088 -0.19463256
v 0.3258880377 -0.5669943094 0.19463256
v 0.2811977863 -0.4712295234 0.1932726651
v 0.2392218262 -0.3812810183 0.1932726651
v 0.1972458512 -0.2913325131 0.1932726651
v 0.1552698761 -0.2013839781 0.1932726651
v 0.1132939011 -0.111435473 0.1932726651
v 0.07131792605 -0.0214869529 0.1932726651
v 0.02934195474 0.06846155971 0.1932726651
v -0.01263401937 0.1584100723 0.1932726651
v -0.05460999161 0.2483585775 0.1932726651
v -0.09658596665 0.3383071125 0.1932726651
v -0.1385619342 0.4282556474 0.1932726651
v -0.1805379242 0.5182041526 0.1932726651
v 0.3258880377 -0.5669943094 -0.19463256
v 0.3258880377 -0.5669943094 -0.09731628001
v 0.3258880377 -0.5669943094 -5.551115123e-17
v 0.3258880377 -0.5669943094 0.09731628001
v -0.1805379242 0.5182041526 -0.1932726651
v -0.1385619342 0.4282556474 -0.1932726651
v -0.09658596665 0.3383071125 -0.1932726651
v -0.05460999161 0.2483585775 -0.1932726651
v -0.01263401937 0.1584100723 -0.1932726651
v 0.02934195474 0.06846155971 -0.1932726651
v 0.07131792605 -0.0214869529 -0.1932726651
v 0.1132939011 -0.111435473 -0.1932726651
v 0.1552698761 -0.2013839781 -0.1932726651
v 0.1972458512 -0.2913325131 -0.1932726651
v 0.2392218262 -0.3812810183 -0.1932726651
v 0.2811977863 -0.4712295234 -0.1932726651
v -0.1839307398 0.5254744887 0.09731628001
v -0.1839307398 0.5254744887 1.110223025e-16
v -0.1839307398 0.5254744887 -0.09731628001
v 0.2845906317 -0.4784998894 0.09731628001
v 0.2392218262 -0.3812810183 0.09561640024
v 0.1972458512 -0.2913325131 0.09561640024
v 0.1552698761 -0.2013839781 0.09561640024
v 0.1132939011 -0.111435473 0.09561640024
v 0.07131792605 -0.0214869529 0.09561640024
v 0.02934195474 0.06846155971 0.09561640024
v -0.01263401937 0.1584100723 0.09561640024
v -0.05460999161 0.2483585775 0.09561640024
v -0.09658596665 0.3383071125 0.09561640024
v -0.1385619342 0.4282556474 0.09561640024
v 0.2845906317 -0.4784998894 -0.09731628001
v 0.2845906317 -0.4784998894 -5.551115123e-17
v -0.1385619342 0.4282556474 -0.09561640024
v -0.09658596665 0.3383071125 -0.09561640024
v -0.05460999161 0.2483585775 -0.09561640024
v -0.01263401937 0.1584100723 -0.09561640024
v 0.02934195474 0.06846155971 -0.09561640024
v 0.07131792605 -0.0214869529 -0.09561640024
v 0.1132939011 -0.111435473 -0.09561640024
v 0.1552698761 -0.2013839781 -0.09561640024
v 0.1972458512 -0.2913325131 -0.09561640024
v 0.2392218262 -0.3812810183 -0.09561640024
v -0.1426333338 0.4369800389 1.110223025e-16
v 0.2432932109 -0.3900054097 -5.551115123e-17
v 0.1972458512 -0.2913325131 -0.002039846266
v 0.1552698761 -0.2013839781 -0.002039846266
v 0.1132939011 -0.111435473 -0.002039846266
v 0.07131792605 -0.0214869529 -0.002039846266
v 0.02934195474 0.06846155971 -0.002039846266
v -0.01263401937 0.1584100723 -0.002039846266
v -0.05460999161 0.2483585775 -0.002039846266
v -0.09658596665 0.3383071125 -0.002039846266
f 120 119 570 
f 119 118 569 
f 118 509 568 
f 509 15 568 
f 11 96 567 
f 96 95 566 
f 95 94 565 
f 94 93 564 
f 93 92 563 
f 92 91 562 
f 91 90 561 
f 90 89 560 
f 89 88 559 
f 88 87 558 
f 87 86 557 
f 86 85 556 
f 85 84 555 
f 84 83 554 
f 83 82 553 
f 82 81 552 
f 81 80 551 
f 80 79 550 
f 79 544 549 
f 544 77 549 
f 77 16 548 
f 179 25 176 
f 176 178 181 
f 181 178 177 
f 177 174 33 
f 33 174 175 
f 175 173 24 
f 24 173 20 
f 20 170 27 
f 27 170 172 
f 172 171 183 
f 183 171 168 
f 168 169 186 
f 186 169 167 
f 167 17 190 
f 190 17 164 
f 164 166 194 
f 194 166 165 
f 165 161 198 
f 198 161 163 
f 200 163 162 
f 162 163 208 
f 208 163 161 
f 161 165 212 
f 212 165 166 
f 166 164 216 
f 216 164 17 
f 17 167 221 
f 221 167 169 
f 169 168 225 
f 225 168 171 
f 171 172 229 
f 229 172 170 
f 170 20 233 
f 233 20 173 
f 173 175 237 
f 237 175 174 
f 174 177 241 
f 241 177 178 
f 178 176 245 
f 245 176 25 
f 251 25 179 
f 179 176 181 
f 181 177 180 
f 180 177 33 
f 33 175 2 
f 2 175 24 
f 24 20 8 
f 8 20 27 
f 27 172 18 
f 18 172 183 
f 183 168 184 
f 184 168 186 
f 186 167 188 
f 188 167 190 
f 190 164 192 
f 192 164 194 
f 194 165 196 
f 196 165 198 
f 198 163 200 
f 200 162 202 
f 202 162 204 
f 204 162 206 
f 206 162 208 
f 208 161 210 
f 210 161 212 
f 212 166 214 
f 214 166 216 
f 216 17 218 
f 218 17 221 
f 221 169 223 
f 223 169 225 
f 225 171 227 
f 227 171 229 
f 229 170 231 
f 231 170 233 
f 233 173 235 
f 235 173 237 
f 237 174 239 
f 239 174 241 
f 241 178 243 
f 243 178 245 
f 245 25 247 
f 247 25 249 
f 249 25 251 
f 160 251 179 
f 179 181 159 
f 159 181 180 
f 180 33 158 
f 158 33 2 
f 2 24 157 
f 157 24 8 
f 8 27 156 
f 156 27 18 
f 18 183 155 
f 155 183 184 
f 184 186 154 
f 154 186 188 
f 188 190 153 
f 153 190 192 
f 192 194 152 
f 152 194 196 
f 196 198 151 
f 151 198 200 
f 150 200 202 
f 515 202 204 
f 527 204 206 
f 149 206 208 
f 208 210 148 
f 148 210 212 
f 212 214 147 
f 147 214 216 
f 216 218 146 
f 146 218 221 
f 221 223 145 
f 145 223 225 
f 225 227 144 
f 144 227 229 
f 229 231 143 
f 143 231 233 
f 233 235 142 
f 142 235 237 
f 237 239 141 
f 141 239 241 
f 241 243 140 
f 140 243 245 
f 139 245 247 
f 117 247 249 
f 519 249 251 
f 7 251 160 
f 160 179 159 
f 159 180 158 
f 158 2 157 
f 157 8 156 
f 156 18 155 
f 155 184 154 
f 154 188 153 
f 153 192 152 
f 152 196 151 
f 151 200 150 
f 150 202 11 
f 11 202 515 
f 515 204 527 
f 527 206 533 
f 533 206 6 
f 6 206 149 
f 149 208 148 
f 148 212 147 
f 147 216 146 
f 146 221 145 
f 145 225 144 
f 144 229 143 
f 143 233 142 
f 142 237 141 
f 141 241 140 
f 140 245 139 
f 139 247 3 
f 3 247 532 
f 532 247 117 
f 117 249 519 
f 519 251 7 
f 211 209 217 
f 217 209 207 
f 207 205 220 
f 220 205 203 
f 203 201 224 
f 224 201 199 
f 199 197 297 
f 297 197 195 
f 195 193 226 
f 226 193 191 
f 191 189 294 
f 294 189 187 
f 187 185 293 
f 293 185 261 
f 261 182 230 
f 230 182 259 
f 259 257 290 
f 290 257 255 
f 232 255 253 
f 253 255 287 
f 287 255 257 
f 257 259 236 
f 236 259 182 
f 182 261 284 
f 284 261 185 
f 185 187 283 
f 283 187 189 
f 189 191 240 
f 240 191 193 
f 193 195 280 
f 280 195 197 
f 197 199 279 
f 279 199 201 
f 201 203 244 
f 244 203 205 
f 205 207 276 
f 276 207 209 
f 275 209 211 
f 248 211 213 
f 213 211 215 
f 215 211 217 
f 217 207 219 
f 219 207 220 
f 220 203 222 
f 222 203 224 
f 224 199 298 
f 298 199 297 
f 297 195 296 
f 296 195 226 
f 226 191 295 
f 295 191 294 
f 294 187 228 
f 228 187 293 
f 293 261 292 
f 292 261 230 
f 230 259 291 
f 291 259 290 
f 290 255 232 
f 232 253 289 
f 289 253 288 
f 288 253 234 
f 234 253 287 
f 287 257 286 
f 286 257 236 
f 236 182 285 
f 285 182 284 
f 284 185 238 
f 238 185 283 
f 283 189 282 
f 282 189 240 
f 240 193 281 
f 281 193 280 
f 280 197 242 
f 242 197 279 
f 279 201 278 
f 278 201 244 
f 244 205 277 
f 277 205 276 
f 276 209 246 
f 246 209 275 
f 275 211 274 
f 274 211 248 
f 517 248 213 
f 138 213 215 
f 215 217 137 
f 137 217 219 
f 219 220 136 
f 136 220 222 
f 222 224 135 
f 135 224 298 
f 298 297 134 
f 134 297 296 
f 296 226 133 
f 133 226 295 
f 295 294 132 
f 132 294 228 
f 228 293 131 
f 131 293 292 
f 292 230 130 
f 130 230 291 
f 291 290 129 
f 129 290 232 
f 128 232 289 
f 529 289 288 
f 511 288 234 
f 127 234 287 
f 287 286 126 
f 126 286 236 
f 236 285 125 
f 125 285 284 
f 284 238 124 
f 124 238 283 
f 283 282 123 
f 123 282 240 
f 240 281 122 
f 122 281 280 
f 280 242 121 
f 121 242 279 
f 279 278 120 
f 120 278 244 
f 244 277 119 
f 119 277 276 
f 276 246 118 
f 118 246 275 
f 509 275 274 
f 542 274 248 
f 525 248 517 
f 517 213 10 
f 10 213 138 
f 138 215 137 
f 137 219 136 
f 136 222 135 
f 135 298 134 
f 134 296 133 
f 133 295 132 
f 132 228 131 
f 131 292 130 
f 130 291 129 
f 129 232 128 
f 128 289 14 
f 14 289 513 
f 513 289 529 
f 529 288 511 
f 511 234 16 
f 16 234 127 
f 127 287 126 
f 126 236 125 
f 125 284 124 
f 124 283 123 
f 123 240 122 
f 122 280 121 
f 121 279 120 
f 120 244 119 
f 119 276 118 
f 118 275 509 
f 509 274 15 
f 15 274 542 
f 542 248 525 
f 322 318 316 
f 316 314 326 
f 326 314 312 
f 312 310 330 
f 330 310 308 
f 308 306 334 
f 334 306 304 
f 304 303 338 
f 338 303 31 
f 31 4 343 
f 343 4 28 
f 28 76 347 
f 347 76 13 
f 13 22 351 
f 351 22 300 
f 300 301 355 
f 355 301 299 
f 299 30 359 
f 359 30 263 
f 263 262 363 
f 363 262 260 
f 260 258 367 
f 367 258 264 
f 264 265 371 
f 371 265 256 
f 256 266 375 
f 375 266 267 
f 267 254 379 
f 379 254 268 
f 268 269 381 
f 381 269 252 
f 252 270 307 
f 307 270 271 
f 271 250 311 
f 311 250 272 
f 315 272 273 
f 323 319 273 
f 273 272 325 
f 325 272 250 
f 250 271 329 
f 329 271 270 
f 270 252 333 
f 333 252 269 
f 269 268 337 
f 337 268 254 
f 254 267 340 
f 340 267 266 
f 266 256 344 
f 344 256 265 
f 265 264 417 
f 417 264 258 
f 258 260 346 
f 346 260 262 
f 262 263 414 
f 414 263 30 
f 30 299 413 
f 413 299 301 
f 301 300 350 
f 350 300 22 
f 22 13 410 
f 410 13 76 
f 76 28 409 
f 409 28 4 
f 4 31 354 
f 354 31 303 
f 303 304 406 
f 406 304 306 
f 306 308 405 
f 405 308 310 
f 310 312 358 
f 358 312 314 
f 314 316 402 
f 402 316 318 
f 400 318 320 
f 320 318 322 
f 322 316 324 
f 324 316 326 
f 326 312 328 
f 328 312 330 
f 330 308 332 
f 332 308 334 
f 334 304 336 
f 336 304 338 
f 338 31 341 
f 341 31 343 
f 343 28 345 
f 345 28 347 
f 347 13 349 
f 349 13 351 
f 351 300 353 
f 353 300 355 
f 355 299 357 
f 357 299 359 
f 359 263 361 
f 361 263 363 
f 363 260 365 
f 365 260 367 
f 367 264 369 
f 369 264 371 
f 371 256 373 
f 373 256 375 
f 375 267 377 
f 377 267 379 
f 379 268 302 
f 302 268 381 
f 381 252 305 
f 305 252 307 
f 307 271 309 
f 309 271 311 
f 311 272 313 
f 313 272 315 
f 315 273 317 
f 317 273 319 
f 321 319 323 
f 323 273 325 
f 325 250 327 
f 327 250 329 
f 329 270 331 
f 331 270 333 
f 333 269 335 
f 335 269 337 
f 337 254 339 
f 339 254 340 
f 340 266 342 
f 342 266 344 
f 344 265 418 
f 418 265 417 
f 417 258 416 
f 416 258 346 
f 346 262 415 
f 415 262 414 
f 414 30 348 
f 348 30 413 
f 413 301 412 
f 412 301 350 
f 350 22 411 
f 411 22 410 
f 410 76 352 
f 352 76 409 
f 409 4 408 
f 408 4 354 
f 354 303 407 
f 407 303 406 
f 406 306 356 
f 356 306 405 
f 405 310 404 
f 404 310 358 
f 358 314 403 
f 403 314 402 
f 402 318 360 
f 360 318 401 
f 401 318 400 
f 540 400 320 
f 116 320 322 
f 322 324 115 
f 115 324 326 
f 326 328 114 
f 114 328 330 
f 330 332 113 
f 113 332 334 
f 334 336 112 
f 112 336 338 
f 338 341 111 
f 111 341 343 
f 343 345 110 
f 110 345 347 
f 347 349 109 
f 109 349 351 
f 351 353 108 
f 108 353 355 
f 355 357 107 
f 107 357 359 
f 359 361 106 
f 106 361 363 
f 363 365 105 
f 105 365 367 
f 367 369 104 
f 104 369 371 
f 371 373 103 
f 103 373 375 
f 375 377 102 
f 102 377 379 
f 379 302 101 
f 101 302 381 
f 381 305 100 
f 100 305 307 
f 307 309 99 
f 99 309 311 
f 311 313 98 
f 98 313 315 
f 97 315 317 
f 528 317 319 
f 538 319 321 
f 96 321 323 
f 323 325 95 
f 95 325 327 
f 327 329 94 
f 94 329 331 
f 331 333 93 
f 93 333 335 
f 335 337 92 
f 92 337 339 
f 339 340 91 
f 91 340 342 
f 342 344 90 
f 90 344 418 
f 418 417 89 
f 89 417 416 
f 416 346 88 
f 88 346 415 
f 415 414 87 
f 87 414 348 
f 348 413 86 
f 86 413 412 
f 412 350 85 
f 85 350 411 
f 411 410 84 
f 84 410 352 
f 352 409 83 
f 83 409 408 
f 408 354 82 
f 82 354 407 
f 407 406 81 
f 81 406 356 
f 356 405 80 
f 80 405 404 
f 404 358 79 
f 79 358 403 
f 403 402 544 
f 544 402 360 
f 77 360 401 
f 543 401 400 
f 530 400 540 
f 540 320 14 
f 14 320 116 
f 116 322 115 
f 115 326 114 
f 114 330 113 
f 113 334 112 
f 112 338 111 
f 111 343 110 
f 110 347 109 
f 109 351 108 
f 108 355 107 
f 107 359 106 
f 106 363 105 
f 105 367 104 
f 104 371 103 
f 103 375 102 
f 102 379 101 
f 101 381 100 
f 100 307 99 
f 99 311 98 
f 98 315 97 
f 97 317 6 
f 6 317 534 
f 534 317 528 
f 528 319 538 
f 538 321 11 
f 11 321 96 
f 96 323 95 
f 95 327 94 
f 94 331 93 
f 93 335 92 
f 92 339 91 
f 91 342 90 
f 90 418 89 
f 89 416 88 
f 88 415 87 
f 87 348 86 
f 86 412 85 
f 85 411 84 
f 84 352 83 
f 83 408 82 
f 82 407 81 
f 81 356 80 
f 80 404 79 
f 79 403 544 
f 544 360 77 
f 77 401 16 
f 16 401 543 
f 543 400 530 
f 398 362 399 
f 399 362 539 
f 362 398 543 
f 398 399 511 
f 539 362 530 
f 529 399 539 
f 543 398 16 
f 530 362 543 
f 511 399 529 
f 16 398 511 
f 434 430 428 
f 428 426 438 
f 438 426 424 
f 424 422 441 
f 441 422 420 
f 420 26 445 
f 445 26 12 
f 12 75 449 
f 449 75 34 
f 34 9 453 
f 453 9 32 
f 32 383 457 
f 457 383 382 
f 382 380 461 
f 461 380 378 
f 378 384 462 
f 462 384 385 
f 385 376 423 
f 423 376 386 
f 386 387 427 
f 427 387 374 
f 374 388 431 
f 431 388 389 
f 389 372 435 
f 435 372 390 
f 390 391 439 
f 439 391 370 
f 370 392 482 
f 482 392 393 
f 393 368 480 
f 480 368 394 
f 394 395 479 
f 479 395 366 
f 366 396 446 
f 446 396 397 
f 476 397 364 
f 450 475 364 
f 364 397 473 
f 473 397 396 
f 396 366 452 
f 452 366 395 
f 395 394 470 
f 470 394 368 
f 368 393 469 
f 469 393 392 
f 392 370 456 
f 456 370 391 
f 391 390 466 
f 466 390 372 
f 372 389 465 
f 465 389 388 
f 388 374 464 
f 464 374 387 
f 387 386 19 
f 19 386 376 
f 376 385 23 
f 23 385 384 
f 384 378 5 
f 5 378 380 
f 380 382 484 
f 484 382 383 
f 383 32 487 
f 487 32 9 
f 9 34 491 
f 491 34 75 
f 75 12 495 
f 495 12 26 
f 26 420 499 
f 499 420 422 
f 422 424 503 
f 503 424 426 
f 426 428 506 
f 506 428 430 
f 512 430 432 
f 432 430 434 
f 434 428 436 
f 436 428 438 
f 438 424 440 
f 440 424 441 
f 441 420 442 
f 442 420 445 
f 445 12 447 
f 447 12 449 
f 449 34 451 
f 451 34 453 
f 453 32 455 
f 455 32 457 
f 457 382 459 
f 459 382 461 
f 461 378 419 
f 419 378 462 
f 462 385 421 
f 421 385 423 
f 423 386 425 
f 425 386 427 
f 427 374 429 
f 429 374 431 
f 431 389 433 
f 433 389 435 
f 435 390 437 
f 437 390 439 
f 439 370 443 
f 443 370 482 
f 482 393 481 
f 481 393 480 
f 480 394 444 
f 444 394 479 
f 479 366 478 
f 478 366 446 
f 446 397 477 
f 477 397 476 
f 476 364 448 
f 448 364 475 
f 474 475 450 
f 450 364 473 
f 473 396 472 
f 472 396 452 
f 452 395 471 
f 471 395 470 
f 470 368 454 
f 454 368 469 
f 469 392 468 
f 468 392 456 
f 456 391 467 
f 467 391 466 
f 466 372 458 
f 458 372 465 
f 465 388 463 
f 463 388 464 
f 464 387 460 
f 460 387 19 
f 19 376 21 
f 21 376 23 
f 23 384 1 
f 1 384 5 
f 5 380 29 
f 29 380 484 
f 484 383 485 
f 485 383 487 
f 487 9 489 
f 489 9 491 
f 491 75 493 
f 493 75 495 
f 495 26 497 
f 497 26 499 
f 499 422 501 
f 501 422 503 
f 503 426 505 
f 505 426 506 
f 506 430 507 
f 507 430 510 
f 510 430 512 
f 531 512 432 
f 74 432 434 
f 434 436 73 
f 73 436 438 
f 438 440 72 
f 72 440 441 
f 441 442 71 
f 71 442 445 
f 445 447 70 
f 70 447 449 
f 449 451 69 
f 69 451 453 
f 453 455 68 
f 68 455 457 
f 457 459 67 
f 67 459 461 
f 461 419 66 
f 66 419 462 
f 462 421 65 
f 65 421 423 
f 423 425 64 
f 64 425 427 
f 427 429 63 
f 63 429 431 
f 431 433 62 
f 62 433 435 
f 435 437 61 
f 61 437 439 
f 439 443 60 
f 60 443 482 
f 482 481 59 
f 59 481 480 
f 480 444 58 
f 58 444 479 
f 479 478 57 
f 57 478 446 
f 446 477 56 
f 56 477 476 
f 55 476 448 
f 537 448 475 
f 526 475 474 
f 54 474 450 
f 450 473 53 
f 53 473 472 
f 472 452 52 
f 52 452 471 
f 471 470 51 
f 51 470 454 
f 454 469 50 
f 50 469 468 
f 468 456 49 
f 49 456 467 
f 467 466 48 
f 48 466 458 
f 458 465 47 
f 47 465 463 
f 463 464 46 
f 46 464 460 
f 460 19 45 
f 45 19 21 
f 21 23 44 
f 44 23 1 
f 1 5 43 
f 43 5 29 
f 29 484 42 
f 42 484 485 
f 485 487 41 
f 41 487 489 
f 489 491 40 
f 40 491 493 
f 493 495 39 
f 39 495 497 
f 497 499 38 
f 38 499 501 
f 501 503 37 
f 37 503 505 
f 505 506 36 
f 36 506 507 
f 35 507 510 
f 535 510 512 
f 78 512 531 
f 531 432 3 
f 3 432 74 
f 74 434 73 
f 73 438 72 
f 72 441 71 
f 71 445 70 
f 70 449 69 
f 69 453 68 
f 68 457 67 
f 67 461 66 
f 66 462 65 
f 65 423 64 
f 64 427 63 
f 63 431 62 
f 62 435 61 
f 61 439 60 
f 60 482 59 
f 59 480 58 
f 58 479 57 
f 57 446 56 
f 56 476 55 
f 55 448 10 
f 10 448 537 
f 537 475 526 
f 526 474 541 
f 541 474 15 
f 15 474 54 
f 54 450 53 
f 53 472 52 
f 52 471 51 
f 51 454 50 
f 50 468 49 
f 49 467 48 
f 48 458 47 
f 47 463 46 
f 46 460 45 
f 45 21 44 
f 44 1 43 
f 43 29 42 
f 42 485 41 
f 41 489 40 
f 40 493 39 
f 39 497 38 
f 38 501 37 
f 37 505 36 
f 36 507 35 
f 35 510 7 
f 7 510 535 
f 535 512 78 
f 518 514 516 
f 516 514 542 
f 514 518 541 
f 518 516 536 
f 542 514 15 
f 525 516 542 
f 541 518 526 
f 15 514 541 
f 536 516 525 
f 526 518 536 
f 522 520 524 
f 524 520 513 
f 520 522 540 
f 539 522 524 
f 513 520 14 
f 529 524 513 
f 540 522 530 
f 14 520 540 
f 530 522 539 
f 539 524 529 
f 488 483 486 
f 486 483 515 
f 483 488 538 
f 488 486 521 
f 515 483 11 
f 527 486 515 
f 538 488 528 
f 11 483 538 
f 521 486 527 
f 528 488 521 
f 492 490 494 
f 494 490 537 
f 490 492 517 
f 536 492 494 
f 537 490 10 
f 526 494 537 
f 517 492 525 
f 10 490 517 
f 525 492 536 
f 536 494 526 
f 500 496 498 
f 498 496 535 
f 496 500 519 
f 500 498 523 
f 535 496 7 
f 78 498 535 
f 519 500 117 
f 7 496 519 
f 523 498 78 
f 117 500 523 
f 504 502 508 
f 508 502 534 
f 502 504 533 
f 521 504 508 
f 534 502 6 
f 528 508 534 
f 533 504 527 
f 6 502 533 
f 527 504 521 
f 521 508 528 
f 546 547 545 
f 545 547 532 
f 547 546 531 
f 523 546 545 
f 532 547 3 
f 117 545 532 
f 531 546 78 
f 3 547 531 
f 78 546 523 
f 523 545 117 
f 121 120 571 
f 122 121 572 
f 123 122 573 
f 124 123 574 
f 125 124 575 
f 126 125 576 
f 127 126 548 
f 16 127 548 
f 35 7 578 
f 36 35 579 
f 37 36 579 
f 38 37 580 
f 39 38 581 
f 40 39 582 
f 41 40 583 
f 42 41 584 
f 43 42 585 
f 44 43 586 
f 45 44 587 
f 46 45 588 
f 47 46 589 
f 48 47 590 
f 49 48 591 
f 50 49 592 
f 51 50 593 
f 52 51 594 
f 53 52 595 
f 54 53 596 
f 15 54 568 
f 150 11 567 
f 151 150 567 
f 152 151 597 
f 153 152 598 
f 154 153 599 
f 155 154 600 
f 156 155 601 
f 157 156 602 
f 158 157 603 
f 159 158 604 
f 160 159 578 
f 7 160 578 
f 77 548 549 
f 79 549 550 
f 80 550 551 
f 81 551 552 
f 82 552 553 
f 83 553 554 
f 84 554 555 
f 85 555 556 
f 86 556 557 
f 87 557 558 
f 88 558 559 
f 89 559 560 
f 90 560 561 
f 91 561 562 
f 92 562 563 
f 93 563 564 
f 94 564 565 
f 95 565 566 
f 96 566 567 
f 118 568 569 
f 119 569 570 
f 120 570 571 
f 121 571 572 
f 122 572 573 
f 123 573 574 
f 124 574 575 
f 125 575 576 
f 126 576 577 
f 548 126 577 
f 35 578 579 
f 37 579 580 
f 38 580 581 
f 39 581 582 
f 40 582 583 
f 41 583 584 
f 42 584 585 
f 43 585 586 
f 44 586 587 
f 45 587 588 
f 46 588 589 
f 47 589 590 
f 48 590 591 
f 49 591 592 
f 50 592 593 
f 51 593 594 
f 52 594 595 
f 53 595 596 
f 54 596 568 
f 151 567 597 
f 152 597 598 
f 153 598 599 
f 154 599 600 
f 155 600 601 
f 156 601 602 
f 157 602 603 
f 158 603 604 
f 159 604 605 
f 578 159 605 
f 549 548 606 
f 550 549 607 
f 551 550 607 
f 552 551 608 
f 553 552 609 
f 554 553 610 
f 555 554 611 
f 556 555 612 
f 557 556 613 
f 558 557 614 
f 559 558 615 
f 560 559 616 
f 561 560 617 
f 562 561 618 
f 563 562 619 
f 564 563 620 
f 565 564 621 
f 566 565 622 
f 567 566 623 
f 569 568 624 
f 570 569 624 
f 571 570 625 
f 572 571 626 
f 573 572 627 
f 574 573 628 
f 575 574 629 
f 576 575 630 
f 577 576 631 
f 548 577 606 
f 579 578 632 
f 580 579 633 
f 581 580 633 
f 582 581 634 
f 583 582 635 
f 584 583 636 
f 585 584 637 
f 586 585 638 
f 587 586 639 
f 588 587 640 
f 589 588 641 
f 590 589 642 
f 591 590 643 
f 592 591 644 
f 593 592 645 
f 594 593 646 
f 595 594 647 
f 596 595 648 
f 568 596 624 
f 597 567 623 
f 598 597 623 
f 599 598 649 
f 600 599 650 
f 601 600 651 
f 602 601 652 
f 603 602 653 
f 604 603 654 
f 605 604 655 
f 578 605 632 
f 549 606 607 
f 551 607 608 
f 552 608 609 
f 553 609 610 
f 554 610 611 
f 555 611 612 
f 556 612 613 
f 557 613 614 
f 558 614 615 
f 559 615 616 
f 560 616 617 
f 561 617 618 
f 562 618 619 
f 563 619 620 
f 564 620 621 
f 565 621 622 
f 566 622 623 
f 570 624 625 
f 571 625 626 
f 572 626 627 
f 573 627 628 
f 574 628 629 
f 575 629 630 
f 576 630 631 
f 577 631 606 
f 579 632 633 
f 581 633 634 
f 582 634 635 
f 583 635 636 
f 584 636 637 
f 585 637 638 
f 586 638 639 
f 587 639 640 
f 588 640 641 
f 589 641 642 
f 590 642 643 
f 591 643 644 
f 592 644 645 
f 593 645 646 
f 594 646 647 
f 595 647 648 
f 596 648 624 
f 598 623 649 
f 599 649 650 
f 600 650 651 
f 601 651 652 
f 602 652 653 
f 603 653 654 
f 604 654 655 
f 605 655 632 
f 607 606 656 
f 608 607 657 
f 609 608 657 
f 610 609 658 
f 611 610 659 
f 612 611 660 
f 613 612 661 
f 614 613 662 
f 615 614 663 
f 616 615 664 
f 617 616 665 
f 618 617 666 
f 619 618 667 
f 620 619 668 
f 621 620 669 
f 622 621 670 
f 623 622 671 
f 625 624 672 
f 626 625 672 
f 627 626 673 
f 628 627 674 
f 629 628 675 
f 630 629 676 
f 631 630 677 
f 606 631 656 
f 633 632 678 
f 634 633 679 
f 635 634 679 
f 636 635 680 
f 637 636 681 
f 638 637 682 
f 639 638 683 
f 640 639 684 
f 641 640 685 
f 642 641 686 
f 643 642 687 
f 644 643 688 
f 645 644 689 
f 646 645 690 
f 647 646 691 
f 648 647 692 
f 624 648 672 
f 649 623 671 
f 650 649 671 
f 651 650 693 
f 652 651 694 
f 653 652 695 
f 654 653 696 
f 655 654 697 
f 632 655 678 
f 607 656 657 
f 609 657 658 
f 610 658 659 
f 611 659 660 
f 612 660 661 
f 613 661 662 
f 614 662 663 
f 615 663 664 
f 616 664 665 
f 617 665 666 
f 618 666 667 
f 619 667 668 
f 620 668 669 
f 621 669 670 
f 622 670 671 
f 626 672 673 
f 627 673 674 
f 628 674 675 
f 629 675 676 
f 630 676 677 
f 631 677 656 
f 633 678 679 
f 635 679 680 
f 636 680 681 
f 637 681 682 
f 638 682 683 
f 639 683 684 
f 640 684 685 
f 641 685 686 
f 642 686 687 
f 643 687 688 
f 644 688 689 
f 645 689 690 
f 646 690 691 
f 647 691 692 
f 648 692 672 
f 650 671 693 
f 651 693 694 
f 652 694 695 
f 653 695 696 
f 654 696 697 
f 655 697 678 
f 657 656 698 
f 658 657 699 
f 659 658 699 
f 660 659 700 
f 661 660 701 
f 662 661 702 
f 663 662 703 
f 664 663 704 
f 665 664 705 
f 666 665 706 
f 667 666 707 
f 668 667 708 
f 669 668 709 
f 670 669 710 
f 671 670 711 
f 673 672 712 
f 674 673 712 
f 675 674 713 
f 676 675 714 
f 677 676 715 
f 656 677 698 
f 679 678 716 
f 680 679 717 
f 681 680 717 
f 682 681 718 
f 683 682 719 
f 684 683 720 
f 685 684 721 
f 686 685 722 
f 687 686 723 
f 688 687 724 
f 689 688 725 
f 690 689 726 
f 691 690 727 
f 692 691 728 
f 672 692 712 
f 693 671 711 
f 694 693 711 
f 695 694 729 
f 696 695 730 
f 697 696 731 
f 678 697 716 
f 657 698 699 
f 659 699 700 
f 660 700 701 
f 661 701 702 
f 662 702 703 
f 663 703 704 
f 664 704 705 
f 665 705 706 
f 666 706 707 
f 667 707 708 
f 668 708 709 
f 669 709 710 
f 670 710 711 
f 674 712 713 
f 675 713 714 
f 676 714 715 
f 677 715 698 
f 679 716 717 
f 681 717 718 
f 682 718 719 
f 683 719 720 
f 684 720 721 
f 685 721 722 
f 686 722 723 
f 687 723 724 
f 688 724 725 
f 689 725 726 
f 690 726 727 
f 691 727 728 
f 692 728 712 
f 694 711 729 
f 695 729 730 
f 696 730 731 
f 697 731 716 
f 699 698 732 
f 700 699 733 
f 701 700 733 
f 702 701 734 
f 703 702 735 
f 704 703 736 
f 705 704 737 
f 706 705 738 
f 707 706 739 
f 708 707 740 
f 709 708 741 
f 710 709 742 
f 711 710 743 
f 713 712 744 
f 714 713 744 
f 715 714 745 
f 698 715 732 
f 717 716 746 
f 718 717 747 
f 719 718 747 
f 720 719 748 
f 721 720 749 
f 722 721 750 
f 723 722 751 
f 724 723 752 
f 725 724 753 
f 726 725 754 
f 727 726 755 
f 728 727 756 
f 712 728 744 
f 729 711 743 
f 730 729 743 
f 731 730 757 
f 716 731 746 
f 699 732 733 
f 701 733 734 
f 702 734 735 
f 703 735 736 
f 704 736 737 
f 705 737 738 
f 706 738 739 
f 707 739 740 
f 708 740 741 
f 709 741 742 
f 710 742 743 
f 714 744 745 
f 715 745 732 
f 717 746 747 
f 719 747 748 
f 720 748 749 
f 721 749 750 
f 722 750 751 
f 723 751 752 
f 724 752 753 
f 725 753 754 
f 726 754 755 
f 727 755 756 
f 728 756 744 
f 730 743 757 
f 731 757 746 
f 733 732 758 
f 734 733 759 
f 735 734 759 
f 736 735 760 
f 737 736 761 
f 738 737 762 
f 739 738 763 
f 740 739 764 
f 741 740 765 
f 742 741 766 
f 743 742 767 
f 745 744 758 
f 732 745 758 
f 747 746 767 
f 748 747 766 
f 749 748 765 
f 750 749 764 
f 751 750 763 
f 752 751 762 
f 753 752 761 
f 754 753 760 
f 755 754 759 
f 756 755 759 
f 744 756 758 
f 757 743 767 
f 746 757 767 
f 733 758 759 
f 735 759 760 
f 736 760 761 
f 737 761 762 
f 738 762 763 
f 739 763 764 
f 740 764 765 
f 741 765 766 
f 742 766 767 
f 747 767 766 
f 748 766 765 
f 749 765 764 
f 750 764 763 
f 751 763 762 
f 752 762 761 
f 753 761 760 
f 754 760 759 
f 756 759 758 
f 128 14 768 
f 129 128 768 
f 130 129 769 
f 131 130 770 
f 132 131 771 
f 133 132 772 
f 134 133 773 
f 135 134 774 
f 136 135 775 
f 137 136 776 
f 138 137 777 
f 10 138 778 
f 97 6 779 
f 98 97 780 
f 99 98 780 
f 100 99 781 
f 101 100 782 
f 102 101 783 
f 103 102 784 
f 104 103 785 
f 105 104 786 
f 106 105 787 
f 107 106 788 
f 108 107 789 
f 109 108 790 
f 110 109 791 
f 111 110 792 
f 112 111 793 
f 113 112 794 
f 114 113 795 
f 115 114 796 
f 116 115 797 
f 14 116 768 
f 139 3 798 
f 140 139 798 
f 141 140 799 
f 142 141 800 
f 143 142 801 
f 144 143 802 
f 145 144 803 
f 146 145 804 
f 147 146 805 
f 148 147 806 
f 149 148 807 
f 6 149 779 
f 55 10 778 
f 56 55 808 
f 57 56 808 
f 58 57 809 
f 59 58 810 
f 60 59 811 
f 61 60 812 
f 62 61 813 
f 63 62 814 
f 64 63 815 
f 65 64 816 
f 66 65 817 
f 67 66 818 
f 68 67 819 
f 69 68 820 
f 70 69 821 
f 71 70 822 
f 72 71 823 
f 73 72 824 
f 74 73 825 
f 3 74 798 
f 129 768 769 
f 130 769 770 
f 131 770 771 
f 132 771 772 
f 133 772 773 
f 134 773 774 
f 135 774 775 
f 136 775 776 
f 137 776 777 
f 138 777 778 
f 97 779 780 
f 99 780 781 
f 100 781 782 
f 101 782 783 
f 102 783 784 
f 103 784 785 
f 104 785 786 
f 105 786 787 
f 106 787 788 
f 107 788 789 
f 108 789 790 
f 109 790 791 
f 110 791 792 
f 111 792 793 
f 112 793 794 
f 113 794 795 
f 114 795 796 
f 115 796 797 
f 116 797 768 
f 140 798 799 
f 141 799 800 
f 142 800 801 
f 143 801 802 
f 144 802 803 
f 145 803 804 
f 146 804 805 
f 147 805 806 
f 148 806 807 
f 149 807 779 
f 55 778 808 
f 57 808 809 
f 58 809 810 
f 59 810 811 
f 60 811 812 
f 61 812 813 
f 62 813 814 
f 63 814 815 
f 64 815 816 
f 65 816 817 
f 66 817 818 
f 67 818 819 
f 68 819 820 
f 69 820 821 
f 70 821 822 
f 71 822 823 
f 72 823 824 
f 73 824 825 
f 74 825 798 
f 769 768 826 
f 770 769 826 
f 771 770 827 
f 772 771 828 
f 773 772 829 
f 774 773 830 
f 775 774 831 
f 776 775 832 
f 777 776 833 
f 778 777 834 
f 780 779 835 
f 781 780 836 
f 782 781 836 
f 783 782 837 
f 784 783 838 
f 785 784 839 
f 786 785 840 
f 787 786 841 
f 788 787 842 
f 789 788 843 
f 790 789 844 
f 791 790 845 
f 792 791 846 
f 793 792 847 
f 794 793 848 
f 795 794 849 
f 796 795 850 
f 797 796 851 
f 768 797 826 
f 799 798 852 
f 800 799 852 
f 801 800 853 
f 802 801 854 
f 803 802 855 
f 804 803 856 
f 805 804 857 
f 806 805 858 
f 807 806 859 
f 779 807 835 
f 808 778 834 
f 809 808 860 
f 810 809 860 
f 811 810 861 
f 812 811 862 
f 813 812 863 
f 814 813 864 
f 815 814 865 
f 816 815 866 
f 817 816 867 
f 818 817 868 
f 819 818 869 
f 820 819 870 
f 821 820 871 
f 822 821 872 
f 823 822 873 
f 824 823 874 
f 825 824 875 
f 798 825 852 
f 770 826 827 
f 771 827 828 
f 772 828 829 
f 773 829 830 
f 774 830 831 
f 775 831 832 
f 776 832 833 
f 777 833 834 
f 780 835 836 
f 782 836 837 
f 783 837 838 
f 784 838 839 
f 785 839 840 
f 786 840 841 
f 787 841 842 
f 788 842 843 
f 789 843 844 
f 790 844 845 
f 791 845 846 
f 792 846 847 
f 793 847 848 
f 794 848 849 
f 795 849 850 
f 796 850 851 
f 797 851 826 
f 800 852 853 
f 801 853 854 
f 802 854 855 
f 803 855 856 
f 804 856 857 
f 805 857 858 
f 806 858 859 
f 807 859 835 
f 808 834 860 
f 810 860 861 
f 811 861 862 
f 812 862 863 
f 813 863 864 
f 814 864 865 
f 815 865 866 
f 816 866 867 
f 817 867 868 
f 818 868 869 
f 819 869 870 
f 820 870 871 
f 821 871 872 
f 822 872 873 
f 823 873 874 
f 824 874 875 
f 825 875 852 
f 827 826 876 
f 828 827 876 
f 829 828 877 
f 830 829 878 
f 831 830 879 
f 832 831 880 
f 833 832 881 
f 834 833 882 
f 836 835 883 
f 837 836 884 
f 838 837 884 
f 839 838 885 
f 840 839 886 
f 841 840 887 
f 842 841 888 
f 843 842 889 
f 844 843 890 
f 845 844 891 
f 846 845 892 
f 847 846 893 
f 848 847 894 
f 849 848 895 
f 850 849 896 
f 851 850 897 
f 826 851 876 
f 853 852 898 
f 854 853 898 
f 855 854 899 
f 856 855 900 
f 857 856 901 
f 858 857 902 
f 859 858 903 
f 835 859 883 
f 860 834 882 
f 861 860 904 
f 862 861 904 
f 863 862 905 
f 864 863 906 
f 865 864 907 
f 866 865 908 
f 867 866 909 
f 868 867 910 
f 869 868 911 
f 870 869 912 
f 871 870 913 
f 872 871 914 
f 873 872 915 
f 874 873 916 
f 875 874 917 
f 852 875 898 
f 828 876 877 
f 829 877 878 
f 830 878 879 
f 831 879 880 
f 832 880 881 
f 833 881 882 
f 836 883 884 
f 838 884 885 
f 839 885 886 
f 840 886 887 
f 841 887 888 
f 842 888 889 
f 843 889 890 
f 844 890 891 
f 845 891 892 
f 846 892 893 
f 847 893 894 
f 848 894 895 
f 849 895 896 
f 850 896 897 
f 851 897 876 
f 854 898 899 
f 855 899 900 
f 856 900 901 
f 857 901 902 
f 858 902 903 
f 859 903 883 
f 860 882 904 
f 862 904 905 
f 863 905 906 
f 864 906 907 
f 865 907 908 
f 866 908 909 
f 867 909 910 
f 868 910 911 
f 869 911 912 
f 870 912 913 
f 871 913 914 
f 872 914 915 
f 873 915 916 
f 874 916 917 
f 875 917 898 
f 877 876 918 
f 878 877 918 
f 879 878 919 
f 880 879 920 
f 881 880 921 
f 882 881 922 
f 884 883 923 
f 885 884 924 
f 886 885 924 
f 887 886 925 
f 888 887 926 
f 889 888 927 
f 890 889 928 
f 891 890 929 
f 892 891 930 
f 893 892 931 
f 894 893 932 
f 895 894 933 
f 896 895 934 
f 897 896 935 
f 876 897 918 
f 899 898 936 
f 900 899 936 
f 901 900 937 
f 902 901 938 
f 903 902 939 
f 883 903 923 
f 904 882 922 
f 905 904 940 
f 906 905 940 
f 907 906 941 
f 908 907 942 
f 909 908 943 
f 910 909 944 
f 911 910 945 
f 912 911 946 
f 913 912 947 
f 914 913 948 
f 915 914 949 
f 916 915 950 
f 917 916 951 
f 898 917 936 
f 878 918 919 
f 879 919 920 
f 880 920 921 
f 881 921 922 
f 884 923 924 
f 886 924 925 
f 887 925 926 
f 888 926 927 
f 889 927 928 
f 890 928 929 
f 891 929 930 
f 892 930 931 
f 893 931 932 
f 894 932 933 
f 895 933 934 
f 896 934 935 
f 897 935 918 
f 900 936 937 
f 901 937 938 
f 902 938 939 
f 903 939 923 
f 904 922 940 
f 906 940 941 
f 907 941 942 
f 908 942 943 
f 909 943 944 
f 910 944 945 
f 911 945 946 
f 912 946 947 
f 913 947 948 
f 914 948 949 
f 915 949 950 
f 916 950 951 
f 917 951 936 
f 919 918 952 
f 920 919 952 
f 921 920 953 
f 922 921 954 
f 924 923 955 
f 925 924 956 
f 926 925 956 
f 927 926 957 
f 928 927 958 
f 929 928 959 
f 930 929 960 
f 931 930 961 
f 932 931 962 
f 933 932 963 
f 934 933 964 
f 935 934 965 
f 918 935 952 
f 937 936 966 
f 938 937 966 
f 939 938 967 
f 923 939 955 
f 940 922 954 
f 941 940 968 
f 942 941 968 
f 943 942 969 
f 944 943 970 
f 945 944 971 
f 946 945 972 
f 947 946 973 
f 948 947 974 
f 949 948 975 
f 950 949 976 
f 951 950 977 
f 936 951 966 
f 920 952 953 
f 921 953 954 
f 924 955 956 
f 926 956 957 
f 927 957 958 
f 928 958 959 
f 929 959 960 
f 930 960 961 
f 931 961 962 
f 932 962 963 
f 933 963 964 
f 934 964 965 
f 935 965 952 
f 938 966 967 
f 939 967 955 
f 940 954 968 
f 942 968 969 
f 943 969 970 
f 944 970 971 
f 945 971 972 
f 946 972 973 
f 947 973 974 
f 948 974 975 
f 949 975 976 
f 950 976 977 
f 951 977 966 
f 953 952 978 
f 954 953 978 
f 956 955 979 
f 957 956 980 
f 958 957 980 
f 959 958 981 
f 960 959 982 
f 961 960 983 
f 962 961 984 
f 963 962 985 
f 964 963 986 
f 965 964 987 
f 952 965 978 
f 967 966 979 
f 955 967 979 
f 968 954 978 
f 969 968 987 
f 970 969 987 
f 971 970 986 
f 972 971 985 
f 973 972 984 
f 974 973 983 
f 975 974 982 
f 976 975 981 
f 977 976 980 
f 966 977 979 
f 956 979 980 
f 958 980 981 
f 959 981 982 
f 960 982 983 
f 961 983 984 
f 962 984 985 
f 963 985 986 
f 964 986 987 
f 965 987 978 
f 968 978 987 
f 970 987 986 
f 971 986 985 
f 972 985 984 
f 973 984 983 
f 974 983 982 
f 975 982 981 
f 976 981 980 
f 977 980 979 
