v -1 0 0.428571403
v -1 0 0.1428571343
v -6.123234263e-17 -1 0.1428571343
v 1 -1.224646853e-16 0.1428571343
v 1 -1.224646853e-16 0.428571403
v -6.123234263e-17 -1 0.428571403
v -0.5714285374 0 0.1428571343
v -0.5 0 -0.2857142687
v 0.5 -9.372140967e-17 -0.2857142687
v -3.498990866e-17 -0.5714285374 -0.428571403
v 0.5714285374 -6.997981731e-17 0.1428571343
v -3.498990866e-17 -0.5714285374 0.1428571343
v 0.2857142687 -0.494871676 -0.06293628365
v -0.5 0 -0.428571403
v -3.061617131e-17 0.5 -0.428571403
v 0.5 -6.123234263e-17 -0.428571403
v 0.4377396703 -0.3673071861 -0.06293628365
v 0.3673071861 -0.4377396703 -0.2227779925
v 0.3673071861 -0.4377396703 -0.06293628365
v -3.061617131e-17 -0.5 -0.428571403
v -3.498990866e-17 0.5714285374 0.1428571343
v 0.5714285374 -6.997981731e-17 -0.428571403
v -6.123234263e-17 1 0.428571403
v -6.123234263e-17 1 0.1428571343
v -0.9781476259 -0.2079116851 0.3247136474
v -0.9135454893 -0.4067366421 0.3247136474
v -0.1045284644 -0.9945219159 0.1428571343
v -0.2079116851 -0.9781476259 0.1428571343
v -0.3090170026 -0.95105654 0.1428571343
v -0.4067366421 -0.9135454893 0.1428571343
v -0.5 -0.8660253882 0.1428571343
v -0.587785244 -0.8090170026 0.1428571343
v -0.6691305637 -0.7431448698 0.1428571343
v -0.7431448698 -0.6691305637 0.1428571343
v -0.8090170026 -0.587785244 0.1428571343
v -0.8660253882 -0.5 0.1428571343
v -0.9135454893 -0.4067366421 0.1428571343
v -0.95105654 -0.3090170026 0.1428571343
v -0.9781476259 -0.2079116851 0.1428571343
v -0.9945219159 -0.1045284644 0.1428571343
v 0.9945219159 -0.1045284644 0.1428571343
v 0.9781476259 -0.2079116851 0.1428571343
v 0.95105654 -0.3090170026 0.1428571343
v 0.9135454893 -0.4067366421 0.1428571343
v 0.8660253882 -0.5 0.1428571343
v 0.8090170026 -0.587785244 0.1428571343
v 0.7431448698 -0.6691305637 0.1428571343
v 0.6691305637 -0.7431448698 0.1428571343
v 0.587785244 -0.8090170026 0.1428571343
v 0.5 -0.8660253882 0.1428571343
v 0.4067366421 -0.9135454893 0.1428571343
v 0.3090170026 -0.95105654 0.1428571343
v 0.2079116851 -0.9781476259 0.1428571343
v 0.1045284644 -0.9945219159 0.1428571343
v -0.8660253882 -0.5 0.3247136474
v -0.95105654 -0.3090170026 0.3247136474
v 0.9945219159 -0.1045284644 0.428571403
v 0.9781476259 -0.2079116851 0.428571403
v 0.95105654 -0.3090170026 0.428571403
v 0.9135454893 -0.4067366421 0.428571403
v 0.8660253882 -0.5 0.428571403
v 0.8090170026 -0.587785244 0.428571403
v 0.7431448698 -0.6691305637 0.428571403
v 0.6691305637 -0.7431448698 0.428571403
v 0.587785244 -0.8090170026 0.428571403
v 0.5 -0.8660253882 0.428571403
v 0.4067366421 -0.9135454893 0.428571403
v 0.3090170026 -0.95105654 0.428571403
v 0.2079116851 -0.9781476259 0.428571403
v 0.1045284644 -0.9945219159 0.428571403
v -0.1045284644 -0.9945219159 0.428571403
v -0.2079116851 -0.9781476259 0.428571403
v -0.3090170026 -0.95105654 0.428571403
v -0.4067366421 -0.9135454893 0.428571403
v -0.5 -0.8660253882 0.428571403
v -0.587785244 -0.8090170026 0.428571403
v -0.6691305637 -0.7431448698 0.428571403
v -0.7431448698 -0.6691305637 0.428571403
v -0.8090170026 -0.587785244 0.428571403
v -0.8660253882 -0.5 0.428571403
v -0.9135454893 -0.4067366421 0.428571403
v -0.95105654 -0.3090170026 0.428571403
v -0.9781476259 -0.2079116851 0.428571403
v -0.9945219159 -0.1045284644 0.428571403
v 0.01227419544 -0.04803679883 -0.2857142687
v -0.04803679883 -0.01227419544 -0.2857142687
v -0.1002120003 -0.05911572278 -0.2857142687
v -0.1098193601 0.03842943907 -0.2857142687
v -0.09922753274 -0.5627472997 -0.428571403
v -0.1954400837 -0.5369672179 -0.428571403
v -0.2857142687 -0.494871676 -0.428571403
v -0.3673071861 -0.4377396703 -0.428571403
v -0.4377396703 -0.3673071861 -0.428571403
v -0.494871676 -0.2857142687 -0.428571403
v -0.5369672179 -0.1954400837 -0.428571403
v -0.5627472997 -0.09922753274 -0.428571403
v 0.5627472997 -0.09922753274 -0.428571403
v 0.5369672179 -0.1954400837 -0.428571403
v 0.494871676 -0.2857142687 -0.428571403
v 0.4377396703 -0.3673071861 -0.428571403
v 0.3673071861 -0.4377396703 -0.428571403
v 0.2857142687 -0.494871676 -0.428571403
v 0.1954400837 -0.5369672179 -0.428571403
v 0.09922753274 -0.5627472997 -0.428571403
v 0.05911572278 -0.1002120003 -0.2857142687
v -0.007043009624 0.04907734692 -0.2857142687
v -0.03842943907 -0.1098193601 -0.2857142687
v -0.05911572278 0.1002120003 -0.2857142687
v 0.09922753274 -0.5627472997 0.1428571343
v 0.1954400837 -0.5369672179 0.1428571343
v 0.2857142687 -0.494871676 0.1428571343
v 0.3673071861 -0.4377396703 0.1428571343
v 0.4377396703 -0.3673071861 0.1428571343
v 0.494871676 -0.2857142687 0.1428571343
v 0.5369672179 -0.1954400837 0.1428571343
v 0.5627472997 -0.09922753274 0.1428571343
v -0.5627472997 -0.09922753274 0.1428571343
v -0.5369672179 -0.1954400837 0.1428571343
v -0.494871676 -0.2857142687 0.1428571343
v -0.4377396703 -0.3673071861 0.1428571343
v -0.3673071861 -0.4377396703 0.1428571343
v -0.2857142687 -0.494871676 0.1428571343
v -0.1954400837 -0.5369672179 0.1428571343
v -0.09922753274 -0.5627472997 0.1428571343
v -0.09754516184 0.4903926551 -0.428571403
v -0.1913417131 0.4619397819 -0.428571403
v -0.2777851224 0.4157347977 -0.428571403
v -0.3535533845 0.3535533845 -0.428571403
v -0.4157347977 0.2777851224 -0.428571403
v -0.4619397819 0.1913417131 -0.428571403
v -0.4903926551 0.09754516184 -0.428571403
v 0.4903926551 0.09754516184 -0.428571403
v 0.4619397819 0.1913417131 -0.428571403
v 0.4157347977 0.2777851224 -0.428571403
v 0.3535533845 0.3535533845 -0.428571403
v 0.2777851224 0.4157347977 -0.428571403
v 0.1913417131 0.4619397819 -0.428571403
v 0.09754516184 0.4903926551 -0.428571403
v 0.1954400837 -0.5369672179 -0.06293628365
v -1.618725358e-16 -0.5714285374 -0.06293628365
v 0.09922753274 -0.5627472997 -0.06293628365
v 0.5369672179 -0.1954400837 -0.06293628365
v 0.1954400837 -0.5369672179 -0.2227779925
v 0.09922753274 -0.5627472997 -0.2227779925
v 0.2857142687 -0.494871676 -0.2227779925
v -0.2857142687 -0.494871676 0.0399604328
v -0.3673071861 -0.4377396703 0.0399604328
v -0.4377396703 -0.3673071861 0.0399604328
v -0.494871676 -0.2857142687 0.0399604328
v -0.5369672179 -0.1954400837 0.0399604328
v 0.5369672179 -0.1954400837 0.0399604328
v 0.494871676 -0.2857142687 0.0399604328
v -0.1954400837 -0.5369672179 -0.2227779925
v -1.618725358e-16 -0.5714285374 -0.2227779925
v -0.09922753274 -0.5627472997 -0.2227779925
v -0.5369672179 -0.1954400837 -0.06293628365
v -0.5369672179 -0.1954400837 -0.2227779925
v -0.1954400837 -0.5369672179 0.0399604328
v -0.09922753274 -0.5627472997 0.0399604328
v 0.4377396703 -0.3673071861 -0.2227779925
v 0.494871676 -0.2857142687 -0.2227779925
v 0.5369672179 -0.1954400837 -0.2227779925
v -0.494871676 -0.2857142687 -0.2227779925
v -0.4377396703 -0.3673071861 -0.2227779925
v -0.3673071861 -0.4377396703 -0.2227779925
v -0.2857142687 -0.494871676 -0.2227779925
v 0.09754516184 -0.4903926551 -0.428571403
v 0.1913417131 -0.4619397819 -0.428571403
v 0.2777851224 -0.4157347977 -0.428571403
v 0.3535533845 -0.3535533845 -0.428571403
v 0.4157347977 -0.2777851224 -0.428571403
v 0.4619397819 -0.1913417131 -0.428571403
v 0.4903926551 -0.09754516184 -0.428571403
v -0.4903926551 -0.09754516184 -0.428571403
v -0.4619397819 -0.1913417131 -0.428571403
v -0.4157347977 -0.2777851224 -0.428571403
v -0.3535533845 -0.3535533845 -0.428571403
v -0.2777851224 -0.4157347977 -0.428571403
v -0.1913417131 -0.4619397819 -0.428571403
v -0.09754516184 -0.4903926551 -0.428571403
v -0.09922753274 0.5627472997 0.1428571343
v -0.1954400837 0.5369672179 0.1428571343
v -0.2857142687 0.494871676 0.1428571343
v -0.3673071861 0.4377396703 0.1428571343
v -0.4377396703 0.3673071861 0.1428571343
v -0.494871676 0.2857142687 0.1428571343
v -0.5369672179 0.1954400837 0.1428571343
v -0.5627472997 0.09922753274 0.1428571343
v 0.5627472997 0.09922753274 0.1428571343
v 0.5369672179 0.1954400837 0.1428571343
v 0.494871676 0.2857142687 0.1428571343
v 0.4377396703 0.3673071861 0.1428571343
v 0.3673071861 0.4377396703 0.1428571343
v 0.2857142687 0.494871676 0.1428571343
v 0.1954400837 0.5369672179 0.1428571343
v 0.09922753274 0.5627472997 0.1428571343
v 0.09922753274 0.5627472997 -0.428571403
v 0.1954400837 0.5369672179 -0.428571403
v 0.2857142687 0.494871676 -0.428571403
v 0.3673071861 0.4377396703 -0.428571403
v 0.4377396703 0.3673071861 -0.428571403
v 0.494871676 0.2857142687 -0.428571403
v 0.5369672179 0.1954400837 -0.428571403
v -0.5714285374 -3.30494058e-17 -0.428571403
v -0.5627472997 0.09922753274 -0.428571403
v -0.5369672179 0.1954400837 -0.428571403
v -0.494871676 0.2857142687 -0.428571403
v -0.4377396703 0.3673071861 -0.428571403
v -0.3673071861 0.4377396703 -0.428571403
v -0.2857142687 0.494871676 -0.428571403
v -0.1954400837 0.5369672179 -0.428571403
v -0.09922753274 0.5627472997 -0.428571403
v -0.9945219159 0.1045284644 0.428571403
v -0.9781476259 0.2079116851 0.428571403
v -0.95105654 0.3090170026 0.428571403
v -0.9135454893 0.4067366421 0.428571403
v -0.8660253882 0.5 0.428571403
v -0.8090170026 0.587785244 0.428571403
v -0.7431448698 0.6691305637 0.428571403
v -0.6691305637 0.7431448698 0.428571403
v -0.587785244 0.8090170026 0.428571403
v -0.5 0.8660253882 0.428571403
v -0.4067366421 0.9135454893 0.428571403
v -0.3090170026 0.95105654 0.428571403
v -0.2079116851 0.9781476259 0.428571403
v -0.1045284644 0.9945219159 0.428571403
v 0.1045284644 0.9945219159 0.428571403
v 0.2079116851 0.9781476259 0.428571403
v 0.3090170026 0.95105654 0.428571403
v 0.4067366421 0.9135454893 0.428571403
v 0.5 0.8660253882 0.428571403
v 0.587785244 0.8090170026 0.428571403
v 0.6691305637 0.7431448698 0.428571403
v 0.7431448698 0.6691305637 0.428571403
v 0.8090170026 0.587785244 0.428571403
v 0.8660253882 0.5 0.428571403
v 0.9135454893 0.4067366421 0.428571403
v 0.95105654 0.3090170026 0.428571403
v 0.9781476259 0.2079116851 0.428571403
v 0.9945219159 0.1045284644 0.428571403
v 0.1045284644 0.9945219159 0.1428571343
v 0.2079116851 0.9781476259 0.1428571343
v 0.3090170026 0.95105654 0.1428571343
v 0.4067366421 0.9135454893 0.1428571343
v 0.5 0.8660253882 0.1428571343
v 0.587785244 0.8090170026 0.1428571343
v 0.6691305637 0.7431448698 0.1428571343
v 0.7431448698 0.6691305637 0.1428571343
v 0.8090170026 0.587785244 0.1428571343
v 0.8660253882 0.5 0.1428571343
v 0.9135454893 0.4067366421 0.1428571343
v 0.95105654 0.3090170026 0.1428571343
v 0.9781476259 0.2079116851 0.1428571343
v 0.9945219159 0.1045284644 0.1428571343
v -0.9945219159 0.1045284644 0.1428571343
v -0.9781476259 0.2079116851 0.1428571343
v -0.95105654 0.3090170026 0.1428571343
v -0.9135454893 0.4067366421 0.1428571343
v -0.8660253882 0.5 0.1428571343
v -0.8090170026 0.587785244 0.1428571343
v -0.7431448698 0.6691305637 0.1428571343
v -0.6691305637 0.7431448698 0.1428571343
v -0.587785244 0.8090170026 0.1428571343
v -0.5 0.8660253882 0.1428571343
v -0.4067366421 0.9135454893 0.1428571343
v -0.3090170026 0.95105654 0.1428571343
v -0.2079116851 0.9781476259 0.1428571343
v -0.1045284644 0.9945219159 0.1428571343
v -0.2079116851 0.9781476259 0.2467149347
v -0.9781476259 0.2079116851 0.3247136474
v 0.95105654 0.3090170026 0.3247136474
v 0.9946116209 0.1036711708 0.3333333433
v 0.8660253882 0.5 0.3247136474
v 0.7431448698 0.6691305637 0.3247136474
v 0.587785244 0.8090170026 0.3247136474
v 0.4067366421 0.9135454893 0.3247136474
v 0.2079116851 0.9781476259 0.3247136474
v -6.123234263e-17 1 0.3247136474
v -0.2079116851 0.9781476259 0.3247136474
v -0.4067366421 0.9135454893 0.3247136474
v -0.587785244 0.8090170026 0.3247136474
v -0.7431448698 0.6691305637 0.3247136474
v -0.8660253882 0.5 0.3247136474
v -0.9946116209 0.1036711708 0.3333333433
v -0.1045284644 0.9945219159 0.2467149347
v -0.3090170026 0.95105654 0.2467149347
v -0.5 0.8660253882 0.2467149347
v -0.6691305637 0.7431448698 0.2467149347
v -0.8090170026 0.587785244 0.2467149347
v -0.9135454893 0.4067366421 0.2467149347
v -0.9781476259 0.2079116851 0.2467149347
v 0.95105654 0.3090170026 0.2467149347
v 0.8660253882 0.5 0.2467149347
v 0.7431448698 0.6691305637 0.2467149347
v 0.587785244 0.8090170026 0.2467149347
v 0.4067366421 0.9135454893 0.2467149347
v 0.1045284644 0.9945219159 0.2467149347
v 0.2079116851 0.9781476259 0.2467149347
v -0.4067366421 0.9135454893 0.2467149347
v -0.587785244 0.8090170026 0.2467149347
v -0.7431448698 0.6691305637 0.2467149347
v -0.8660253882 0.5 0.2467149347
v -0.95105654 0.3090170026 0.2467149347
v 0.9781476259 0.2079116851 0.2467149347
v 0.9135454893 0.4067366421 0.2467149347
v 0.8090170026 0.587785244 0.2467149347
v 0.6691305637 0.7431448698 0.2467149347
v 0.5 0.8660253882 0.2467149347
v 0.3090170026 0.95105654 0.2467149347
v -6.123234263e-17 1 0.2467149347
v 0.9946116209 0.1036711708 0.2380952537
v 0.9781476259 0.2079116851 0.3247136474
v 0.9135454893 0.4067366421 0.3247136474
v 0.8090170026 0.587785244 0.3247136474
v 0.6691305637 0.7431448698 0.3247136474
v 0.5 0.8660253882 0.3247136474
v 0.3090170026 0.95105654 0.3247136474
v 0.1045284644 0.9945219159 0.3247136474
v -0.1045284644 0.9945219159 0.3247136474
v -0.3090170026 0.95105654 0.3247136474
v -0.5 0.8660253882 0.3247136474
v -0.6691305637 0.7431448698 0.3247136474
v -0.8090170026 0.587785244 0.3247136474
v -0.9135454893 0.4067366421 0.3247136474
v -0.95105654 0.3090170026 0.3247136474
v -0.9946116209 0.1036711708 0.2380952537
v -0.2857142687 0.494871676 -0.2227779925
v -0.1954400837 0.5369672179 -0.2227779925
v 0.1954400837 0.5369672179 -0.2227779925
v 0.3673071861 0.4377396703 -0.2227779925
v -0.09922753274 0.5627472997 -0.2227779925
v -1.618725358e-16 0.5714285374 -0.2227779925
v 0.09922753274 0.5627472997 -0.2227779925
v 0.5369672179 0.1954400837 -0.2227779925
v 0.1954400837 0.5369672179 -0.06293628365
v 0.09922753274 0.5627472997 -0.06293628365
v 0.2857142687 0.494871676 -0.06293628365
v 0.3673071861 0.4377396703 -0.06293628365
v -0.4377396703 0.3673071861 -0.2227779925
v -0.3673071861 0.4377396703 -0.2227779925
v 0.4377396703 0.3673071861 -0.06293628365
v 0.494871676 0.2857142687 -0.06293628365
v 0.5369672179 0.1954400837 -0.06293628365
v -0.494871676 0.2857142687 -0.06293628365
v -0.4377396703 0.3673071861 -0.06293628365
v -0.3673071861 0.4377396703 -0.06293628365
v -0.494871676 0.2857142687 -0.2227779925
v -0.2857142687 0.494871676 -0.06293628365
v 0.4377396703 0.3673071861 -0.2227779925
v 0.494871676 0.2857142687 -0.2227779925
v -0.1954400837 0.5369672179 -0.06293628365
v -1.618725358e-16 0.5714285374 -0.06293628365
v -0.09922753274 0.5627472997 -0.06293628365
v -0.5369672179 0.1954400837 -0.06293628365
v -0.5369672179 0.1954400837 -0.2227779925
v -0.1954400837 0.5369672179 -0.3256747127
v -0.09922753274 0.5627472997 -0.3256747127
v 0.2857142687 0.494871676 -0.2227779925
v -0.2857142687 0.494871676 -0.3256747127
v -0.3673071861 0.4377396703 -0.3256747127
v -0.4377396703 0.3673071861 -0.3256747127
v -0.494871676 0.2857142687 -0.3256747127
v -0.5369672179 0.1954400837 -0.3256747127
v 0.5369672179 0.1954400837 -0.3256747127
v 0.494871676 0.2857142687 -0.3256747127
v 0.5369672179 0.1954400837 0.0399604328
v -0.09922753274 0.5627472997 0.0399604328
v 0.3673071861 0.4377396703 -0.3256747127
v -0.5621893406 0.1023415476 -0.200000003
v -0.1954400837 0.5369672179 0.0399604328
v -0.3673071861 0.4377396703 0.0399604328
v -0.494871676 0.2857142687 0.0399604328
v 0.5627472997 0.09922753274 0.0399604328
v 0.4377396703 0.3673071861 -0.3256747127
v 0.4377396703 0.3673071861 0.0399604328
v 0.2857142687 0.494871676 0.0399604328
v 0.1954400837 0.5369672179 0.0399604328
v 0.5621893406 0.1023415476 -0.200000003
v 0.1954400837 0.5369672179 -0.3256747127
v 0.09922753274 0.5627472997 -0.3256747127
v 0.494871676 0.2857142687 0.0399604328
v 0.2857142687 0.494871676 -0.3256747127
v -0.5627472997 0.09922753274 0.0399604328
v -1.618725358e-16 0.5714285374 -0.3256747127
v 0.5621893406 0.1023415476 -0.08571428806
v 0.5627472997 0.09922753274 -0.3256747127
v 0.09922753274 0.5627472997 0.0399604328
v 0.3673071861 0.4377396703 0.0399604328
v -0.5369672179 0.1954400837 0.0399604328
v -0.4377396703 0.3673071861 0.0399604328
v -0.2857142687 0.494871676 0.0399604328
v -1.618725358e-16 0.5714285374 0.0399604328
v -0.5627472997 0.09922753274 -0.3256747127
v -0.5621893406 0.1023415476 -0.08571428806
v 0.5627472997 -0.09922753274 0.0399604328
v 0.4377396703 -0.3673071861 -0.3256747127
v 0.494871676 -0.2857142687 -0.3256747127
v 0.4377396703 -0.3673071861 0.0399604328
v 0.5369672179 -0.1954400837 -0.3256747127
v 0.3673071861 -0.4377396703 0.0399604328
v 0.5627472997 -0.09922753274 -0.3256747127
v 0.2857142687 -0.494871676 0.0399604328
v -0.5369672179 -0.1954400837 -0.3256747127
v -0.494871676 -0.2857142687 -0.3256747127
v 0.1954400837 -0.5369672179 0.0399604328
v -0.4377396703 -0.3673071861 -0.3256747127
v -1.618725358e-16 -0.5714285374 0.0399604328
v -0.3673071861 -0.4377396703 -0.3256747127
v 0.09922753274 -0.5627472997 0.0399604328
v -0.2857142687 -0.494871676 -0.3256747127
v -0.1954400837 -0.5369672179 -0.3256747127
v 0.5621893406 -0.1023415476 -0.08571428806
v -1.618725358e-16 -0.5714285374 -0.3256747127
v 0.5621893406 -0.1023415476 -0.200000003
v -0.09922753274 -0.5627472997 -0.3256747127
v 0.1954400837 -0.5369672179 -0.3256747127
v -0.5627472997 -0.09922753274 0.0399604328
v 0.09922753274 -0.5627472997 -0.3256747127
v -0.5621893406 -0.1023415476 -0.08571428806
v 0.2857142687 -0.494871676 -0.3256747127
v -0.5621893406 -0.1023415476 -0.200000003
v 0.3673071861 -0.4377396703 -0.3256747127
v -0.5627472997 -0.09922753274 -0.3256747127
v 0.4903926551 -0.09754516184 -0.2857142687
v 0.4157347977 -0.2777851224 -0.2857142687
v 0.3535533845 -0.3535533845 -0.2857142687
v 0.2777851224 -0.4157347977 -0.2857142687
v 0.1913417131 -0.4619397819 -0.2857142687
v 0.09754516184 -0.4903926551 -0.2857142687
v -0.09754516184 -0.4903926551 -0.2857142687
v 0.5627472997 0.09922753274 -0.428571403
v -0.1913417131 -0.4619397819 -0.2857142687
v -0.2777851224 -0.4157347977 -0.2857142687
v 0.4619397819 -0.1913417131 -0.2857142687
v -0.3535533845 -0.3535533845 -0.2857142687
v -0.4157347977 -0.2777851224 -0.2857142687
v -0.4619397819 -0.1913417131 -0.2857142687
v -0.4903926551 -0.09754516184 -0.2857142687
v -0.4903926551 0.09754516184 -0.2857142687
v -0.09754516184 0.4903926551 -0.2857142687
v -0.4619397819 0.1913417131 -0.2857142687
v -0.4157347977 0.2777851224 -0.2857142687
v 0.09754516184 0.4903926551 -0.2857142687
v -0.3535533845 0.3535533845 -0.2857142687
v 0.1913417131 0.4619397819 -0.2857142687
v -0.2777851224 0.4157347977 -0.2857142687
v 0.2777851224 0.4157347977 -0.2857142687
v 0.3535533845 0.3535533845 -0.2857142687
v -0.1913417131 0.4619397819 -0.2857142687
v 0.4157347977 0.2777851224 -0.2857142687
v 0.4619397819 0.1913417131 -0.2857142687
v 0.4903926551 0.09754516184 -0.2857142687
v 0.5714285374 -6.997981731e-17 -0.08571428806
v -0.5714285374 0 -0.08571428806
v 0.5714285374 -6.997981731e-17 0.02857142873
v -0.5714285374 0 0.02857142873
v -0.5714285374 0 -0.200000003
v 0.5714285374 -6.997981731e-17 -0.200000003
v -0.5714285374 0 -0.3142857254
v 0.5714285374 -6.997981731e-17 -0.3142857254
v -3.061617131e-17 -0.5 -0.2857142687
v -3.498990866e-17 0.5714285374 -0.428571403
v -3.061617131e-17 0.5 -0.2857142687
v 0.06872308254 -0.1977571547 -0.2857142687
v 0.02905945294 0.1126617044 -0.2857142687
v -0.06872308254 0.1977571547 -0.2857142687
v 0.1098193601 -0.03842943907 -0.2857142687
v 0.1002120003 0.05911572278 -0.2857142687
v 0.01218653936 0.2090029716 -0.2857142687
v 0.09124086797 0.1884299815 -0.2857142687
v 0.1564045995 0.1391702294 -0.2857142687
v 0.1977571547 0.06872308254 -0.2857142687
v 0.2073645145 -0.0288220793 -0.2857142687
v -0.2641982734 0.1534222811 -0.2857142687
v -0.1853751987 0.242847994 -0.2857142687
v -0.1977571547 -0.06872308254 -0.2857142687
v -0.1391702294 0.1564045995 -0.2857142687
v -0.1534222811 -0.2641982734 -0.2857142687
v -0.242847994 -0.1853751987 -0.2857142687
v -0.2953023314 -0.07833044231 -0.2857142687
v -0.3049096763 0.01921471953 -0.2857142687
v 0.2641982734 -0.1534222811 -0.2857142687
v 0.1853751987 -0.242847994 -0.2857142687
v 0.1391702294 -0.1564045995 -0.2857142687
v 0.07833044231 -0.2953023314 -0.2857142687
v -0.1564045995 -0.1391702294 -0.2857142687
v -0.2073645145 0.0288220793 -0.2857142687
v -0.01921471953 -0.3049096763 -0.2857142687
v -0.07833044231 0.2953023314 -0.2857142687
v 0.04063941166 0.3027995229 -0.2857142687
v 0.1534222811 0.2641982734 -0.2857142687
v 0.242847994 0.1853751987 -0.2857142687
v 0.2953023314 0.07833044231 -0.2857142687
v 0.3049096763 -0.01921471953 -0.2857142687
v -0.0288220793 -0.2073645145 -0.2857142687
v -0.3928474486 0.08793780208 -0.2857142687
v -0.3399665356 0.2156036943 -0.2857142687
v -0.2913719714 0.2777851224 -0.2857142687
v -0.2315801531 0.3292914033 -0.2857142687
v -0.1628888398 0.3681432307 -0.2857142687
v -0.08793780208 0.3928474486 -0.2857142687
v 0.1451367438 0.3754963577 -0.2857142687
v -0.08793780208 -0.3928474486 -0.2857142687
v -0.2857142687 -0.494871676 -0.06293628365
v -0.2777851224 -0.2913719714 -0.2857142687
v -0.494871676 -0.2857142687 -0.06293628365
v -0.1954400837 -0.5369672179 -0.06293628365
v 0.3928474486 0.08793780208 -0.2857142687
v 0.3292914033 0.2315801531 -0.2857142687
v 0.2156036943 0.3399665356 -0.2857142687
v -0.2156036943 -0.3399665356 -0.2857142687
v -0.009607359767 0.4024548531 -0.2857142687
v 0.08793780208 -0.3928474486 -0.2857142687
v 0.2315801531 -0.3292914033 -0.2857142687
v 0.3399665356 -0.2156036943 -0.2857142687
v -0.3681432307 -0.1628888398 -0.2857142687
v -0.4024548531 0.009607359767 -0.2857142687
v 0.06909228861 0.3965960741 -0.2857142687
v -0.3292914033 -0.2315801531 -0.2857142687
v -0.3673071861 -0.4377396703 -0.06293628365
v -0.3928474486 -0.08793780208 -0.2857142687
v 0.3928474486 -0.08793780208 -0.2857142687
v 0.2913719714 -0.2777851224 -0.2857142687
v 0.1628888398 -0.3681432307 -0.2857142687
v -0.009607359767 -0.4024548531 -0.2857142687
v 0.2777851224 0.2913719714 -0.2857142687
v 0.3681432307 0.1628888398 -0.2857142687
v 0.4024548531 -0.009607359767 -0.2857142687
v -0.09922753274 -0.5627472997 -0.06293628365
v 0.494871676 -0.2857142687 -0.06293628365
v -0.4377396703 -0.3673071861 -0.06293628365
v 0.6691305637 -0.7431448698 0.2467149347
v -0.8090170026 -0.587785244 0.3247136474
v 0.7431448698 -0.6691305637 0.2467149347
v 0.8660253882 -0.5 0.2467149347
v 0.95105654 -0.3090170026 0.2467149347
v 0.9946116209 -0.1036711708 0.2380952537
v -0.95105654 -0.3090170026 0.2467149347
v -0.8660253882 -0.5 0.2467149347
v -0.7431448698 -0.6691305637 0.2467149347
v -0.587785244 -0.8090170026 0.2467149347
v -0.4067366421 -0.9135454893 0.2467149347
v -0.2079116851 -0.9781476259 0.2467149347
v -0.1045284644 -0.9945219159 0.2467149347
v -1 0 0.3333333433
v -0.9946116209 -0.1036711708 0.2380952537
v -0.587785244 -0.8090170026 0.3247136474
v -0.7431448698 -0.6691305637 0.3247136474
v -0.4067366421 -0.9135454893 0.3247136474
v -0.2079116851 -0.9781476259 0.3247136474
v -2.832769608e-16 -1 0.3247136474
v 0.2079116851 -0.9781476259 0.3247136474
v 0.4067366421 -0.9135454893 0.3247136474
v 0.587785244 -0.8090170026 0.3247136474
v 0.7431448698 -0.6691305637 0.3247136474
v 0.8660253882 -0.5 0.3247136474
v 0.95105654 -0.3090170026 0.3247136474
v 0.9946116209 -0.1036711708 0.3333333433
v 0.1045284644 -0.9945219159 0.2467149347
v 0.5 -0.8660253882 0.2467149347
v -0.6691305637 -0.7431448698 0.3247136474
v 0.587785244 -0.8090170026 0.2467149347
v -0.5 -0.8660253882 0.3247136474
v 1 -1.224646853e-16 0.3333333433
v -0.3090170026 -0.95105654 0.3247136474
v -0.1045284644 -0.9945219159 0.3247136474
v 0.1045284644 -0.9945219159 0.3247136474
v 0.3090170026 -0.95105654 0.3247136474
v 0.5 -0.8660253882 0.3247136474
v 0.6691305637 -0.7431448698 0.3247136474
v 0.8090170026 -0.587785244 0.3247136474
v 0.9135454893 -0.4067366421 0.3247136474
v 0.9781476259 -0.2079116851 0.3247136474
v 0.2079116851 -0.9781476259 0.2467149347
v 0.3090170026 -0.95105654 0.2467149347
v 0.4067366421 -0.9135454893 0.2467149347
v 0.8090170026 -0.587785244 0.2467149347
v 0.9135454893 -0.4067366421 0.2467149347
v 0.9781476259 -0.2079116851 0.2467149347
v -0.9781476259 -0.2079116851 0.2467149347
v -0.9135454893 -0.4067366421 0.2467149347
v -0.8090170026 -0.587785244 0.2467149347
v -0.6691305637 -0.7431448698 0.2467149347
v -0.5 -0.8660253882 0.2467149347
v -0.3090170026 -0.95105654 0.2467149347
v -2.832769608e-16 -1 0.2467149347
v -0.9946116209 -0.1036711708 0.3333333433
v -1 0 0.2380952537
v 1 -1.224646853e-16 0.2380952537
v 0.8973684311 0.005378691945 0.1428571343
v 0.8930147886 0.08845131844 0.1428571343
v 0.8918904066 -0.09914976358 0.1428571343
v 0.8766405582 -0.1918345392 0.1428571343
v 0.8517859578 -0.2824175358 0.1428571343
v 0.8175991774 -0.3699063063 0.1428571343
v 0.7744545341 -0.4533423185 0.1428571343
v 0.7228248119 -0.5318114161 0.1428571343
v 0.6632756591 -0.6044538021 0.1428571343
v 0.5964595079 -0.6704737544 0.1428571343
v 0.5231084824 -0.7291477919 0.1428571343
v 0.4440261424 -0.7798331976 0.1428571343
v 0.3600789607 -0.8219745755 0.1428571343
v 0.2721866667 -0.8551102281 0.1428571343
v 0.1813122332 -0.8788771033 0.1428571343
v 0.08845131844 -0.8930147886 0.1428571343
v -0.005378691945 -0.8973684311 0.1428571343
v -0.09914976358 -0.8918904066 0.1428571343
v -0.1918345392 -0.8766405582 0.1428571343
v -0.2824175358 -0.8517859578 0.1428571343
v -0.3699063063 -0.8175991774 0.1428571343
v -0.4533423185 -0.7744545341 0.1428571343
v -0.5318114161 -0.7228248119 0.1428571343
v -0.6044538021 -0.6632756591 0.1428571343
v -0.6704737544 -0.5964595079 0.1428571343
v -0.7291477919 -0.5231084824 0.1428571343
v -0.7798331976 -0.4440261424 0.1428571343
v -0.8219745755 -0.3600789607 0.1428571343
v -0.8551102281 -0.2721866667 0.1428571343
v -0.8788771033 -0.1813122332 0.1428571343
v -0.8930147886 -0.08845131844 0.1428571343
v -0.8973684311 0.005378691945 0.1428571343
v -0.8918904066 0.09914976358 0.1428571343
v -0.8766405582 0.1918345392 0.1428571343
v -0.8517859578 0.2824175358 0.1428571343
v -0.8175991774 0.3699063063 0.1428571343
v -0.7744545341 0.4533423185 0.1428571343
v -0.7228248119 0.5318114161 0.1428571343
v -0.6632756591 0.6044538021 0.1428571343
v -0.5964595079 0.6704737544 0.1428571343
v -0.5231084824 0.7291477919 0.1428571343
v -0.4440261424 0.7798331976 0.1428571343
v -0.3600789607 0.8219745755 0.1428571343
v -0.2721866667 0.8551102281 0.1428571343
v -0.1813122332 0.8788771033 0.1428571343
v -0.08845131844 0.8930147886 0.1428571343
v 0.005378691945 0.8973684311 0.1428571343
v 0.09914976358 0.8918904066 0.1428571343
v 0.1918345392 0.8766405582 0.1428571343
v 0.2824175358 0.8517859578 0.1428571343
v 0.3699063063 0.8175991774 0.1428571343
v 0.4533423185 0.7744545341 0.1428571343
v 0.5318114161 0.7228248119 0.1428571343
v 0.6044538021 0.6632756591 0.1428571343
v 0.6704737544 0.5964595079 0.1428571343
v 0.7291477919 0.5231084824 0.1428571343
v 0.7798331976 0.4440261424 0.1428571343
v 0.8219745755 0.3600789607 0.1428571343
v 0.8551102281 0.2721866667 0.1428571343
v 0.8788771033 0.1813122332 0.1428571343
v 0.6651285887 0.1081847325 0.1428571343
v 0.673809886 0.00895720534 0.1428571343
v 0.6620178223 -0.1258269846 0.1428571343
v 0.6362377405 0.2220395505 0.1428571343
v 0.5880150795 0.3291477859 0.1428571343
v 0.5219259262 0.4262550175 0.1428571343
v 0.4399782419 0.5104107261 0.1428571343
v 0.3446621001 0.5790578723 0.1428571343
v 0.2388735712 0.6301106215 0.1428571343
v 0.1258269846 0.6620178223 0.1428571343
v 0.00895720534 0.673809886 0.1428571343
v -0.1081847325 0.6651285887 0.1428571343
v -0.2220395505 0.6362377405 0.1428571343
v -0.3291477859 0.5880150795 0.1428571343
v -0.4262550175 0.5219259262 0.1428571343
v -0.5104107261 0.4399782419 0.1428571343
v -0.5790578723 0.3446621001 0.1428571343
v -0.6301106215 0.2388735712 0.1428571343
v -0.6620178223 0.1258269846 0.1428571343
v -0.673809886 0.00895720534 0.1428571343
v -0.6651285887 -0.1081847325 0.1428571343
v -0.6362377405 -0.2220395505 0.1428571343
v -0.5880150795 -0.3291477859 0.1428571343
v -0.5219259262 -0.4262550175 0.1428571343
v -0.4399782419 -0.5104107261 0.1428571343
v -0.3446621001 -0.5790578723 0.1428571343
v -0.2388735712 -0.6301106215 0.1428571343
v -0.1258269846 -0.6620178223 0.1428571343
v -0.00895720534 -0.673809886 0.1428571343
v 0.1081847325 -0.6651285887 0.1428571343
v 0.2220395505 -0.6362377405 0.1428571343
v 0.3291477859 -0.5880150795 0.1428571343
v 0.4262550175 -0.5219259262 0.1428571343
v 0.5104107261 -0.4399782419 0.1428571343
v 0.5790578723 -0.3446621001 0.1428571343
v 0.6301106215 -0.2388735712 0.1428571343
v 0.7915076613 -0.07237417251 0.1428571343
v 0.7761912346 0.01791441068 0.1428571343
v 0.7675099373 0.1171419397 0.1428571343
v 0.7612882853 -0.1524264514 0.1428571343
v 0.7232540846 -0.2823070586 0.1428571343
v 0.6632441282 -0.4036099613 0.1428571343
v 0.5830818415 -0.5126493573 0.1428571343
v 0.4852028489 -0.6061121225 0.1428571343
v 0.3725812733 -0.6811585426 0.1428571343
v 0.2486389875 -0.7355082631 0.1428571343
v 0.1171419397 -0.7675099373 0.1428571343
v -0.01791441068 -0.7761912346 0.1428571343
v -0.1524264514 -0.7612882853 0.1428571343
v -0.2823070586 -0.7232540846 0.1428571343
v -0.4036099613 -0.6632441282 0.1428571343
v -0.5126493573 -0.5830818415 0.1428571343
v -0.6061121225 -0.4852028489 0.1428571343
v -0.6811585426 -0.3725812733 0.1428571343
v -0.7355082631 -0.2486389875 0.1428571343
v -0.7675099373 -0.1171419397 0.1428571343
v -0.7761912346 0.01791441068 0.1428571343
v -0.7612882853 0.1524264514 0.1428571343
v -0.7232540846 0.2823070586 0.1428571343
v -0.6632441282 0.4036099613 0.1428571343
v -0.5830818415 0.5126493573 0.1428571343
v -0.4852028489 0.6061121225 0.1428571343
v -0.3725812733 0.6811585426 0.1428571343
v -0.2486389875 0.7355082631 0.1428571343
v -0.1171419397 0.7675099373 0.1428571343
v 0.01791441068 0.7761912346 0.1428571343
v 0.1524264514 0.7612882853 0.1428571343
v 0.2823070586 0.7232540846 0.1428571343
v 0.4036099613 0.6632441282 0.1428571343
v 0.5126493573 0.5830818415 0.1428571343
v 0.6061121225 0.4852028489 0.1428571343
v 0.6811585426 0.3725812733 0.1428571343
v 0.7355082631 0.2486389875 0.1428571343
v 0.8956510425 0.005468698684 0.428571403
v 0.8901728988 -0.09905976802 0.428571403
v 0.8749418855 -0.1915655136 0.428571403
v 0.850124836 -0.2819724083 0.428571403
v 0.8159936666 -0.3692899942 0.428571403
v 0.7729221582 -0.4525615275 0.428571403
v 0.7213824987 -0.5308747292 0.428571403
v 0.6619391441 -0.6033715606 0.428571403
v 0.595243454 -0.6692576408 0.428571403
v 0.5220261812 -0.7278113365 0.428571403
v 0.4430894852 -0.7783908844 0.428571403
v 0.3592981696 -0.8204421997 0.428571403
v 0.2715703249 -0.8535045981 0.428571403
v 0.1808671355 -0.8772159219 0.428571403
v 0.08818228543 -0.8913162351 0.428571403
v 0.09905976802 0.8901728988 0.428571403
v -0.005468698684 0.8956510425 0.428571403
v 0.1915655136 0.8749418855 0.428571403
v 0.2819724083 0.850124836 0.428571403
v 0.3692899942 0.8159936666 0.428571403
v 0.4525615275 0.7729221582 0.428571403
v 0.5308747292 0.7213824987 0.428571403
v 0.6033715606 0.6619391441 0.428571403
v 0.6692576408 0.595243454 0.428571403
v 0.7278113365 0.5220261812 0.428571403
v 0.7783908844 0.4430894852 0.428571403
v 0.8204421997 0.3592981696 0.428571403
v 0.8535045981 0.2715703249 0.428571403
v 0.8901728988 0.09905976802 0.428571403
v 0.8772159219 0.1808671355 0.428571403
v -0.8901728988 0.09905976802 0.428571403
v -0.8956510425 -0.005468698684 0.428571403
v -0.8749418855 0.1915655136 0.428571403
v -0.850124836 0.2819724083 0.428571403
v -0.8159936666 0.3692899942 0.428571403
v -0.7729221582 0.4525615275 0.428571403
v -0.7213824987 0.5308747292 0.428571403
v -0.6619391441 0.6033715606 0.428571403
v -0.595243454 0.6692576408 0.428571403
v -0.5220261812 0.7278113365 0.428571403
v -0.4430894852 0.7783908844 0.428571403
v -0.3592981696 0.8204421997 0.428571403
v -0.2715703249 0.8535045981 0.428571403
v -0.1808671355 0.8772159219 0.428571403
v -0.09905976802 0.8901728988 0.428571403
v -0.005468698684 -0.8956510425 0.428571403
v -0.09905976802 -0.8901728988 0.428571403
v -0.1915655136 -0.8749418855 0.428571403
v -0.2819724083 -0.850124836 0.428571403
v -0.3692899942 -0.8159936666 0.428571403
v -0.4525615275 -0.7729221582 0.428571403
v -0.5308747292 -0.7213824987 0.428571403
v -0.6033715606 -0.6619391441 0.428571403
v -0.6692576408 -0.595243454 0.428571403
v -0.7278113365 -0.5220261812 0.428571403
v -0.7783908844 -0.4430894852 0.428571403
v -0.8204421997 -0.3592981696 0.428571403
v -0.8535045981 -0.2715703249 0.428571403
v -0.8772159219 -0.1808671355 0.428571403
v -0.8901728988 -0.09905976802 0.428571403
v 0.7858239412 -0.09359106421 0.428571403
v 0.7913020253 0.01093739737 0.428571403
v 0.771736145 -0.1752193272 0.428571403
v 0.7491931319 -0.2549278438 0.428571403
v 0.7184417248 -0.3318433464 0.428571403
v 0.6798189878 -0.4051230848 0.428571403
v 0.6337479949 -0.4739642143 0.428571403
v 0.5807334781 -0.5376124978 0.428571403
v 0.5213563442 -0.5953705311 0.428571403
v 0.4562671185 -0.6466056108 0.428571403
v 0.3861789703 -0.6907563806 0.428571403
v 0.3118597269 -0.7273389697 0.428571403
v 0.2341236919 -0.7559528351 0.428571403
v 0.1538225561 -0.7762842178 0.428571403
v 0.07183610648 -0.7881104946 0.428571403
v 0.09359106421 0.7858239412 0.428571403
v -0.01093739737 0.7913020253 0.428571403
v 0.1752193272 0.771736145 0.428571403
v 0.2549278438 0.7491931319 0.428571403
v 0.3318433464 0.7184417248 0.428571403
v 0.4051230848 0.6798189878 0.428571403
v 0.4739642143 0.6337479949 0.428571403
v 0.5376124978 0.5807334781 0.428571403
v 0.5953705311 0.5213563442 0.428571403
v 0.6466056108 0.4562671185 0.428571403
v 0.6907563806 0.3861789703 0.428571403
v 0.7273389697 0.3118597269 0.428571403
v 0.7559528351 0.2341236919 0.428571403
v 0.7858239412 0.09359106421 0.428571403
v -0.7858239412 0.09359106421 0.428571403
v -0.7913020253 -0.01093739737 0.428571403
v -0.771736145 0.1752193272 0.428571403
v -0.7491931319 0.2549278438 0.428571403
v -0.7184417248 0.3318433464 0.428571403
v -0.6798189878 0.4051230848 0.428571403
v -0.6337479949 0.4739642143 0.428571403
v -0.5807334781 0.5376124978 0.428571403
v -0.5213563442 0.5953705311 0.428571403
v -0.4562671185 0.6466056108 0.428571403
v -0.3861789703 0.6907563806 0.428571403
v -0.3118597269 0.7273389697 0.428571403
v -0.2341236919 0.7559528351 0.428571403
v -0.09359106421 0.7858239412 0.428571403
v -0.01093739737 -0.7913020253 0.428571403
v -0.09359106421 -0.7858239412 0.428571403
v -0.1752193272 -0.771736145 0.428571403
v -0.2549278438 -0.7491931319 0.428571403
v -0.3318433464 -0.7184417248 0.428571403
v -0.4051230848 -0.6798189878 0.428571403
v -0.4739642143 -0.6337479949 0.428571403
v -0.5376124978 -0.5807334781 0.428571403
v -0.5953705311 -0.5213563442 0.428571403
v -0.6466056108 -0.4562671185 0.428571403
v -0.6907563806 -0.3861789703 0.428571403
v -0.7273389697 -0.3118597269 0.428571403
v -0.7559528351 -0.2341236919 0.428571403
v -0.7858239412 -0.09359106421 0.428571403
v 0.6814749241 -0.08812236786 0.428571403
v 0.6869530082 0.01640609466 0.428571403
v 0.6482614279 -0.2278832942 0.428571403
v 0.5867157578 -0.3576846123 0.428571403
v 0.4995277524 -0.4718534052 0.428571403
v 0.3905080557 -0.5653999448 0.428571403
v 0.2644212544 -0.6342357993 0.428571403
v 0.1267779917 -0.6753524542 0.428571403
v -0.01640609466 -0.6869530082 0.428571403
v 0.08812236786 0.6814749241 0.428571403
v -0.01640609466 0.6869530082 0.428571403
v 0.2278832942 0.6482614279 0.428571403
v 0.3576846123 0.5867157578 0.428571403
v 0.4718534052 0.4995277524 0.428571403
v 0.5653999448 0.3905080557 0.428571403
v 0.6342357993 0.2644212544 0.428571403
v 0.6753524542 0.1267779917 0.428571403
v -0.6814749241 0.08812236786 0.428571403
v -0.6869530082 -0.01640609466 0.428571403
v -0.6482614279 0.2278832942 0.428571403
v -0.5867157578 0.3576846123 0.428571403
v -0.4995277524 0.4718534052 0.428571403
v -0.3905080557 0.5653999448 0.428571403
v -0.2644212544 0.6342357993 0.428571403
v -0.1267779917 0.6753524542 0.428571403
v -0.1588731557 -0.6685304642 0.428571403
v -0.2943966985 -0.6208899021 0.428571403
v -0.4170536995 -0.5461134315 0.428571403
v -0.5214834213 -0.4474692047 0.428571403
v -0.6031218171 -0.3292684257 0.428571403
v -0.6584008932 -0.196677044 0.428571403
v 0.5771259665 -0.0826536715 0.428571403
v 0.5826040506 0.02187479474 0.428571403
v 0.5473297238 -0.2008387148 0.428571403
v 0.4936125278 -0.3102461696 0.428571403
v 0.4183221161 -0.4060943723 0.428571403
v 0.3247489929 -0.4841942787 0.428571403
v 0.2169827968 -0.5411325693 0.428571403
v 0.09973341227 -0.5744208097 0.428571403
v -0.02187479474 -0.5826040506 0.428571403
v 0.0826536715 0.5771259665 0.428571403
v -0.02187479474 0.5826040506 0.428571403
v -0.09973341227 0.5744208097 0.428571403
v 0.2008387148 0.5473297238 0.428571403
v 0.3102461696 0.4936125278 0.428571403
v 0.4060943723 0.4183221161 0.428571403
v 0.4841942787 0.3247489929 0.428571403
v 0.5411325693 0.2169827968 0.428571403
v 0.5744208097 0.09973341227 0.428571403
v -0.5771259665 0.0826536715 0.428571403
v -0.5826040506 -0.02187479474 0.428571403
v -0.5473297238 0.2008387148 0.428571403
v -0.4936125278 0.3102461696 0.428571403
v -0.4183221161 0.4060943723 0.428571403
v -0.3247489929 0.4841942787 0.428571403
v -0.2169827968 0.5411325693 0.428571403
v -0.1425269693 -0.5653247237 0.428571403
v -0.2569500208 -0.5233380198 0.428571403
v -0.3601431549 -0.4584789276 0.428571403
v -0.4475962818 -0.3735820651 0.428571403
v -0.5154873133 -0.2723579109 0.428571403
v -0.5608490705 -0.1592303813 0.428571403
v 0.4727769494 -0.0771849677 0.428571403
v 0.4782550931 0.02734349482 0.428571403
v 0.44639799 -0.1737941504 0.428571403
v 0.4005092978 -0.2628076971 0.428571403
v 0.3371164203 -0.3403352797 0.428571403
v 0.2589899302 -0.4029885828 0.428571403
v 0.1695443392 -0.4480293393 0.428571403
v 0.07268884778 -0.4734891057 0.428571403
v -0.02734349482 -0.4782550931 0.428571403
v 0.0771849677 0.4727769494 0.428571403
v -0.02734349482 0.4782550931 0.428571403
v -0.1695443392 0.4480293393 0.428571403
v 0.1737941504 0.44639799 0.428571403
v 0.2628076971 0.4005092978 0.428571403
v 0.3403352797 0.3371164203 0.428571403
v 0.4029885828 0.2589899302 0.428571403
v 0.4480293393 0.1695443392 0.428571403
v -0.4727769494 0.0771849677 0.428571403
v -0.4782550931 -0.02734349482 0.428571403
v -0.44639799 0.1737941504 0.428571403
v -0.4005092978 0.2628076971 0.428571403
v -0.3371164203 0.3403352797 0.428571403
v -0.2589899302 0.4029885828 0.428571403
v -0.1261807978 -0.4621190131 0.428571403
v -0.2195033878 -0.4257861376 0.428571403
v -0.3032326102 -0.370844394 0.428571403
v -0.3737091422 -0.2996949255 0.428571403
v -0.4278528094 -0.2154473662 0.428571403
v -0.4632972181 -0.1217837483 0.428571403
v 0.3684279919 -0.07171627134 0.428571403
v 0.373906076 0.03281218931 0.428571403
v 0.3454663157 -0.1467495859 0.428571403
v 0.3074060977 -0.2153692245 0.428571403
v 0.2559107244 -0.2745762169 0.428571403
v 0.1932308674 -0.3217829168 0.428571403
v 0.1221058741 -0.3549261391 0.428571403
v 0.04564428329 -0.3725574017 0.428571403
v -0.03281218931 -0.373906076 0.428571403
v 0.07171627134 0.3684279919 0.428571403
v -0.03281218931 0.373906076 0.428571403
v -0.1221058741 0.3549261391 0.428571403
v -0.1932308674 0.3217829168 0.428571403
v 0.1467495859 0.3454663157 0.428571403
v 0.2153692245 0.3074060977 0.428571403
v 0.2745762169 0.2559107244 0.428571403
v 0.3217829168 0.1932308674 0.428571403
v 0.3549261391 0.1221058741 0.428571403
v -0.3684279919 0.07171627134 0.428571403
v -0.373906076 -0.03281218931 0.428571403
v -0.3454663157 0.1467495859 0.428571403
v -0.3074060977 0.2153692245 0.428571403
v -0.2559107244 0.2745762169 0.428571403
v -0.1098346189 -0.3589133024 0.428571403
v -0.1820567399 -0.3282342851 0.428571403
v -0.2463221103 -0.2832098603 0.428571403
v -0.2998220325 -0.2258078009 0.428571403
v -0.340218246 -0.1585368514 0.428571403
v 0.2640790045 -0.06624756753 0.428571403
v 0.2695571184 0.03828088939 0.428571403
v 0.2306824327 -0.144610092 0.428571403
v 0.1747050583 -0.2088171691 0.428571403
v 0.1016263291 -0.2525837421 0.428571403
v 0.01859971322 -0.2716256678 0.428571403
v -0.06624756753 -0.2640790045 0.428571403
v 0.06624756753 0.2640790045 0.428571403
v -0.03828088939 0.2695571184 0.428571403
v -0.1747050583 0.2088171691 0.428571403
v 0.144610092 0.2306824327 0.428571403
v 0.2088171691 0.1747050583 0.428571403
v -0.2640790045 0.06624756753 0.428571403
v -0.2695571184 -0.03828088939 0.428571403
v -0.2306824327 0.144610092 0.428571403
v -0.144610092 -0.2306824327 0.428571403
v -0.2088171691 -0.1747050583 0.428571403
v 0.1597300172 -0.0607788749 0.428571403
v 0.1652081311 0.04374958947 0.428571403
v 0.1079408228 -0.1325010508 0.428571403
v 0.0272289589 -0.168719694 0.428571403
v -0.0607788749 -0.1597300172 0.428571403
v 0.0607788749 0.1597300172 0.428571403
v -0.04374958947 0.1652081311 0.428571403
v -0.1597300172 0.0607788749 0.428571403
v -0.1652081311 -0.04374958947 0.428571403
v 0.05538103357 -0.05531017482 0.428571403
v 0.06085913628 0.04921828583 0.428571403
v -0.02020950057 -0.07561647147 0.428571403
v -0.07561647147 -0.02020950057 0.428571403
v -0.04921828583 0.06085913628 0.428571403
f 269 279 285 
f 285 319 310 
f 286 279 269 
f 299 320 286 
f 287 280 299 
f 300 321 287 
f 288 281 300 
f 301 322 288 
f 289 282 301 
f 302 323 289 
f 290 283 302 
f 303 324 290 
f 291 325 303 
f 326 270 291 
f 304 312 311 
f 292 312 304 
f 305 271 292 
f 293 313 305 
f 306 273 293 
f 294 314 306 
f 307 274 294 
f 295 315 307 
f 308 275 295 
f 296 316 308 
f 309 276 296 
f 298 317 309 
f 297 277 298 
f 310 278 297 
f 272 311 312 
f 312 292 271 
f 271 305 313 
f 313 293 273 
f 273 306 314 
f 314 294 274 
f 274 307 315 
f 315 295 275 
f 275 308 316 
f 316 296 276 
f 276 309 317 
f 317 298 277 
f 277 297 318 
f 318 297 278 
f 278 310 319 
f 319 285 279 
f 279 286 320 
f 320 299 280 
f 280 287 321 
f 321 300 281 
f 281 288 322 
f 322 301 282 
f 282 289 323 
f 323 302 283 
f 283 290 324 
f 324 303 325 
f 325 291 270 
f 284 270 326 
f 267 269 285 
f 285 310 268 
f 286 269 267 
f 299 286 266 
f 287 299 265 
f 300 287 264 
f 288 300 263 
f 301 288 262 
f 289 301 261 
f 302 289 260 
f 290 302 259 
f 303 290 258 
f 291 303 257 
f 326 291 256 
f 253 304 311 
f 292 304 253 
f 305 292 252 
f 293 305 251 
f 306 293 250 
f 294 306 249 
f 307 294 248 
f 295 307 247 
f 308 295 246 
f 296 308 245 
f 309 296 244 
f 298 309 243 
f 297 298 242 
f 24 310 297 
f 311 272 589 
f 272 312 239 
f 239 312 271 
f 238 271 313 
f 237 313 273 
f 236 273 314 
f 235 314 274 
f 234 274 315 
f 233 315 275 
f 232 275 316 
f 231 316 276 
f 230 276 317 
f 229 317 277 
f 228 277 318 
f 227 318 278 
f 23 278 319 
f 226 319 279 
f 225 279 320 
f 224 320 280 
f 223 280 321 
f 222 321 281 
f 221 281 322 
f 220 322 282 
f 219 282 323 
f 218 323 283 
f 217 283 324 
f 216 324 325 
f 215 325 270 
f 214 270 284 
f 545 284 326 
f 268 310 24 
f 267 285 268 
f 266 286 267 
f 265 299 266 
f 264 287 265 
f 263 300 264 
f 262 288 263 
f 261 301 262 
f 260 289 261 
f 259 302 260 
f 258 290 259 
f 257 303 258 
f 256 291 257 
f 255 326 256 
f 2 326 255 
f 254 311 4 
f 253 311 254 
f 252 292 253 
f 251 305 252 
f 250 293 251 
f 249 306 250 
f 248 294 249 
f 247 307 248 
f 246 295 247 
f 245 308 246 
f 244 296 245 
f 243 309 244 
f 242 298 243 
f 241 297 242 
f 24 297 241 
f 564 272 5 
f 589 272 564 
f 4 311 589 
f 5 272 240 
f 240 272 239 
f 239 271 238 
f 238 313 237 
f 237 273 236 
f 236 314 235 
f 235 274 234 
f 234 315 233 
f 233 275 232 
f 232 316 231 
f 231 276 230 
f 230 317 229 
f 229 277 228 
f 228 318 227 
f 227 278 23 
f 23 319 226 
f 226 279 225 
f 225 320 224 
f 224 280 223 
f 223 321 222 
f 222 281 221 
f 221 322 220 
f 220 282 219 
f 219 323 218 
f 218 283 217 
f 217 324 216 
f 216 325 215 
f 215 270 214 
f 214 284 213 
f 213 284 1 
f 1 284 545 
f 545 326 588 
f 588 326 2 
f 587 580 25 
f 25 580 56 
f 56 538 26 
f 26 581 55 
f 55 539 533 
f 533 582 548 
f 548 540 561 
f 561 583 547 
f 547 541 563 
f 563 584 549 
f 549 542 565 
f 565 585 550 
f 550 543 566 
f 566 544 551 
f 551 586 567 
f 567 559 552 
f 552 574 568 
f 568 575 553 
f 553 576 569 
f 569 560 554 
f 554 562 570 
f 570 532 555 
f 555 534 571 
f 571 577 556 
f 556 535 572 
f 572 578 557 
f 557 536 573 
f 573 579 558 
f 574 552 559 
f 559 567 586 
f 575 568 574 
f 576 553 575 
f 560 569 576 
f 562 554 560 
f 532 570 562 
f 534 555 532 
f 577 571 534 
f 535 556 577 
f 578 572 535 
f 536 557 578 
f 579 573 536 
f 537 558 579 
f 538 56 580 
f 581 26 538 
f 539 55 581 
f 582 533 539 
f 540 548 582 
f 583 561 540 
f 541 547 583 
f 584 563 541 
f 542 549 584 
f 585 565 542 
f 543 550 585 
f 544 566 543 
f 586 551 544 
f 546 580 587 
f 587 25 83 
f 83 25 56 
f 82 56 26 
f 81 26 55 
f 80 55 533 
f 79 533 548 
f 78 548 561 
f 77 561 547 
f 76 547 563 
f 75 563 549 
f 74 549 565 
f 73 565 550 
f 72 550 566 
f 71 566 551 
f 6 551 567 
f 70 567 552 
f 69 552 568 
f 68 568 553 
f 67 553 569 
f 66 569 554 
f 65 554 570 
f 64 570 555 
f 63 555 571 
f 62 571 556 
f 61 556 572 
f 60 572 557 
f 59 557 573 
f 58 573 558 
f 564 558 537 
f 53 574 559 
f 559 586 54 
f 575 574 53 
f 576 575 52 
f 560 576 51 
f 562 560 50 
f 532 562 49 
f 534 532 48 
f 577 534 47 
f 535 577 46 
f 578 535 45 
f 536 578 44 
f 579 536 43 
f 537 579 42 
f 39 580 546 
f 538 580 39 
f 581 538 38 
f 539 581 37 
f 582 539 36 
f 540 582 35 
f 583 540 34 
f 541 583 33 
f 584 541 32 
f 542 584 31 
f 585 542 30 
f 543 585 29 
f 544 543 28 
f 3 586 544 
f 546 587 545 
f 1 587 84 
f 84 587 83 
f 83 56 82 
f 82 26 81 
f 81 55 80 
f 80 533 79 
f 79 548 78 
f 78 561 77 
f 77 547 76 
f 76 563 75 
f 75 549 74 
f 74 565 73 
f 73 550 72 
f 72 566 71 
f 71 551 6 
f 6 567 70 
f 70 552 69 
f 69 568 68 
f 68 553 67 
f 67 569 66 
f 66 554 65 
f 65 570 64 
f 64 555 63 
f 63 571 62 
f 62 556 61 
f 61 572 60 
f 60 557 59 
f 59 573 58 
f 58 558 57 
f 57 558 5 
f 5 558 564 
f 564 537 589 
f 589 537 4 
f 54 586 3 
f 53 559 54 
f 52 575 53 
f 51 576 52 
f 50 560 51 
f 49 562 50 
f 48 532 49 
f 47 534 48 
f 46 577 47 
f 45 535 46 
f 44 578 45 
f 43 536 44 
f 42 579 43 
f 41 537 42 
f 4 537 41 
f 40 546 2 
f 39 546 40 
f 38 538 39 
f 37 581 38 
f 36 539 37 
f 35 582 36 
f 34 540 35 
f 33 583 34 
f 32 541 33 
f 31 584 32 
f 30 542 31 
f 29 585 30 
f 28 543 29 
f 27 544 28 
f 3 544 27 
f 545 587 1 
f 588 546 545 
f 2 546 588 
f 16 132 431 
f 431 22 16 
f 203 431 132 
f 202 203 133 
f 201 202 134 
f 200 201 135 
f 199 200 136 
f 198 199 137 
f 197 198 138 
f 462 197 15 
f 212 462 15 
f 211 212 125 
f 210 211 126 
f 209 210 127 
f 208 209 128 
f 207 208 129 
f 206 207 130 
f 205 206 131 
f 204 205 14 
f 96 204 14 
f 95 96 174 
f 94 95 175 
f 93 94 176 
f 92 93 177 
f 91 92 178 
f 90 91 179 
f 89 90 180 
f 10 89 20 
f 104 10 20 
f 103 104 167 
f 102 103 168 
f 101 102 169 
f 100 101 170 
f 99 100 171 
f 98 99 172 
f 97 98 173 
f 22 97 16 
f 106 85 86 
f 86 88 106 
f 85 107 86 
f 468 85 106 
f 88 108 106 
f 107 87 86 
f 87 88 86 
f 467 105 85 
f 105 107 85 
f 108 465 106 
f 465 468 106 
f 468 467 85 
f 477 108 88 
f 486 87 107 
f 476 88 87 
f 484 105 467 
f 464 107 105 
f 466 465 108 
f 470 468 465 
f 468 473 467 
f 487 477 88 
f 477 466 108 
f 495 486 107 
f 486 476 87 
f 476 487 88 
f 473 484 467 
f 484 464 105 
f 464 495 107 
f 466 469 465 
f 469 470 465 
f 470 471 468 
f 471 472 468 
f 472 473 468 
f 474 477 487 
f 475 466 477 
f 478 486 495 
f 479 476 486 
f 480 487 476 
f 482 484 473 
f 483 464 484 
f 464 488 495 
f 489 469 466 
f 490 470 469 
f 491 471 470 
f 492 472 471 
f 493 473 472 
f 481 474 487 
f 474 475 477 
f 475 489 466 
f 488 478 495 
f 478 479 486 
f 479 480 476 
f 480 481 487 
f 494 482 473 
f 482 483 484 
f 483 485 464 
f 485 488 464 
f 489 490 469 
f 490 491 470 
f 491 492 471 
f 492 493 472 
f 493 494 473 
f 496 474 481 
f 498 475 474 
f 500 489 475 
f 503 478 488 
f 505 479 478 
f 516 480 479 
f 480 517 481 
f 522 482 494 
f 523 483 482 
f 524 485 483 
f 485 525 488 
f 512 490 489 
f 502 491 490 
f 526 492 491 
f 527 493 492 
f 508 494 493 
f 517 496 481 
f 496 497 474 
f 497 498 474 
f 498 499 475 
f 499 500 475 
f 500 501 489 
f 501 512 489 
f 525 503 488 
f 503 511 478 
f 511 505 478 
f 505 519 479 
f 519 516 479 
f 516 521 480 
f 521 517 480 
f 528 522 494 
f 522 515 482 
f 515 523 482 
f 523 514 483 
f 514 524 483 
f 524 513 485 
f 513 525 485 
f 512 518 490 
f 518 502 490 
f 502 510 491 
f 510 526 491 
f 526 509 492 
f 509 527 492 
f 527 508 493 
f 508 528 494 
f 439 496 517 
f 441 497 496 
f 442 498 497 
f 444 499 498 
f 446 500 499 
f 449 501 500 
f 440 512 501 
f 430 503 525 
f 432 511 503 
f 433 505 511 
f 435 519 505 
f 436 516 519 
f 437 521 516 
f 438 517 521 
f 424 522 528 
f 434 515 522 
f 425 523 515 
f 426 514 523 
f 427 524 514 
f 428 513 524 
f 429 525 513 
f 463 518 512 
f 443 502 518 
f 445 510 502 
f 447 526 510 
f 448 509 526 
f 450 527 509 
f 451 508 527 
f 452 528 508 
f 8 439 517 
f 439 441 496 
f 441 442 497 
f 442 444 498 
f 444 446 499 
f 446 449 500 
f 449 440 501 
f 440 463 512 
f 461 430 525 
f 430 432 503 
f 432 433 511 
f 433 435 505 
f 435 436 519 
f 436 437 516 
f 437 438 521 
f 438 8 517 
f 9 424 528 
f 424 434 522 
f 434 425 515 
f 425 426 523 
f 426 427 514 
f 427 428 524 
f 428 429 513 
f 429 461 525 
f 463 443 518 
f 443 445 502 
f 445 447 510 
f 447 448 526 
f 448 450 509 
f 450 451 527 
f 451 452 508 
f 452 9 528 
f 20 180 430 
f 180 179 430 
f 179 178 432 
f 178 177 433 
f 177 176 435 
f 176 175 436 
f 175 174 437 
f 174 14 438 
f 16 173 424 
f 173 172 424 
f 172 171 434 
f 171 170 425 
f 170 169 426 
f 169 168 427 
f 168 167 428 
f 167 20 429 
f 424 9 16 
f 434 424 172 
f 425 434 171 
f 426 425 170 
f 427 426 169 
f 428 427 168 
f 429 428 167 
f 461 429 20 
f 430 461 20 
f 432 430 179 
f 433 432 178 
f 435 433 177 
f 436 435 176 
f 437 436 175 
f 438 437 174 
f 14 8 438 
f 441 439 131 
f 442 441 130 
f 444 442 129 
f 446 444 128 
f 449 446 127 
f 440 449 126 
f 463 440 125 
f 443 463 15 
f 445 443 138 
f 447 445 137 
f 448 447 136 
f 450 448 135 
f 451 450 134 
f 452 451 133 
f 9 452 132 
f 15 138 443 
f 138 137 445 
f 137 136 447 
f 136 135 448 
f 135 134 450 
f 134 133 451 
f 133 132 452 
f 132 16 9 
f 14 131 439 
f 131 130 441 
f 130 129 442 
f 129 128 444 
f 128 127 446 
f 127 126 449 
f 126 125 440 
f 125 15 463 
f 8 14 439 
f 328 351 331 
f 331 353 332 
f 327 351 328 
f 340 348 327 
f 339 346 340 
f 347 345 339 
f 355 344 347 
f 350 342 334 
f 349 341 350 
f 330 338 349 
f 358 337 330 
f 329 335 358 
f 333 336 329 
f 332 352 333 
f 335 329 336 
f 336 333 352 
f 337 358 335 
f 338 330 337 
f 341 349 338 
f 342 350 341 
f 343 334 342 
f 345 347 344 
f 346 339 345 
f 348 340 346 
f 351 327 348 
f 353 331 351 
f 352 332 353 
f 354 344 355 
f 356 328 331 
f 357 331 332 
f 327 328 356 
f 340 327 359 
f 339 340 360 
f 347 339 361 
f 355 347 362 
f 350 334 364 
f 349 350 365 
f 330 349 374 
f 358 330 368 
f 329 358 382 
f 333 329 379 
f 384 332 333 
f 334 343 378 
f 377 335 336 
f 387 336 352 
f 337 335 377 
f 338 337 376 
f 341 338 388 
f 342 341 375 
f 343 342 381 
f 344 354 389 
f 345 344 372 
f 346 345 390 
f 348 346 371 
f 351 348 391 
f 353 351 370 
f 392 352 353 
f 394 354 355 
f 356 331 357 
f 357 332 384 
f 359 327 356 
f 360 340 359 
f 361 339 360 
f 362 347 361 
f 363 355 362 
f 393 355 363 
f 364 334 386 
f 365 350 364 
f 374 349 365 
f 368 330 374 
f 382 358 368 
f 379 329 382 
f 380 333 379 
f 384 333 380 
f 385 343 373 
f 378 343 385 
f 386 334 378 
f 377 336 387 
f 387 352 392 
f 376 337 377 
f 388 338 376 
f 375 341 388 
f 381 342 375 
f 366 343 381 
f 373 343 366 
f 389 354 383 
f 372 344 389 
f 390 345 372 
f 371 346 390 
f 391 348 371 
f 370 351 391 
f 367 353 370 
f 392 353 367 
f 383 354 394 
f 394 355 369 
f 369 355 393 
f 211 356 357 
f 357 384 212 
f 359 356 211 
f 360 359 210 
f 361 360 209 
f 362 361 208 
f 363 362 207 
f 393 363 206 
f 203 364 386 
f 365 364 203 
f 374 365 202 
f 368 374 201 
f 382 368 200 
f 379 382 199 
f 380 379 198 
f 462 384 380 
f 385 373 455 
f 378 385 453 
f 386 378 460 
f 195 377 387 
f 387 392 196 
f 376 377 195 
f 388 376 194 
f 375 388 193 
f 381 375 192 
f 366 381 191 
f 373 366 190 
f 187 389 383 
f 372 389 187 
f 390 372 186 
f 371 390 185 
f 391 371 184 
f 370 391 183 
f 367 370 182 
f 21 392 367 
f 456 383 394 
f 454 394 369 
f 459 369 393 
f 212 384 462 
f 211 357 212 
f 210 359 211 
f 209 360 210 
f 208 361 209 
f 207 362 208 
f 206 363 207 
f 205 393 206 
f 204 393 205 
f 431 386 22 
f 203 386 431 
f 202 365 203 
f 201 374 202 
f 200 368 201 
f 199 382 200 
f 198 379 199 
f 197 380 198 
f 462 380 197 
f 455 373 11 
f 453 385 455 
f 458 378 453 
f 460 378 458 
f 22 386 460 
f 196 392 21 
f 195 387 196 
f 194 376 195 
f 193 388 194 
f 192 375 193 
f 191 381 192 
f 190 366 191 
f 189 373 190 
f 11 373 189 
f 188 383 7 
f 187 383 188 
f 186 372 187 
f 185 390 186 
f 184 371 185 
f 183 391 184 
f 182 370 183 
f 181 367 182 
f 21 367 181 
f 7 383 456 
f 456 394 454 
f 454 369 457 
f 457 369 459 
f 459 393 204 
f 507 153 529 
f 529 155 140 
f 504 153 507 
f 520 166 504 
f 531 165 520 
f 506 164 531 
f 156 163 506 
f 530 161 142 
f 17 160 530 
f 19 18 17 
f 13 145 19 
f 139 143 13 
f 141 144 139 
f 140 154 141 
f 143 139 144 
f 144 141 154 
f 145 13 143 
f 18 19 145 
f 160 17 18 
f 161 530 160 
f 162 142 161 
f 164 506 163 
f 165 531 164 
f 166 520 165 
f 153 504 166 
f 155 529 153 
f 154 140 155 
f 157 163 156 
f 158 507 529 
f 159 529 140 
f 504 507 158 
f 520 504 146 
f 531 520 147 
f 506 531 148 
f 156 506 149 
f 530 142 151 
f 17 530 152 
f 19 17 398 
f 13 19 400 
f 139 13 402 
f 141 139 405 
f 407 140 141 
f 412 142 162 
f 416 143 144 
f 418 144 154 
f 145 143 416 
f 18 145 420 
f 160 18 422 
f 161 160 396 
f 162 161 397 
f 163 157 403 
f 164 163 404 
f 165 164 406 
f 166 165 408 
f 153 166 410 
f 155 153 411 
f 413 154 155 
f 157 156 419 
f 158 529 159 
f 159 140 407 
f 146 504 158 
f 147 520 146 
f 148 531 147 
f 149 506 148 
f 150 156 149 
f 417 156 150 
f 151 142 395 
f 152 530 151 
f 398 17 152 
f 400 19 398 
f 402 13 400 
f 405 139 402 
f 409 141 405 
f 407 141 409 
f 395 142 412 
f 412 162 414 
f 414 162 401 
f 416 144 418 
f 418 154 413 
f 420 145 416 
f 422 18 420 
f 396 160 422 
f 397 161 396 
f 399 162 397 
f 401 162 399 
f 403 157 423 
f 404 163 403 
f 406 164 404 
f 408 165 406 
f 410 166 408 
f 411 153 410 
f 415 155 411 
f 413 155 415 
f 419 156 417 
f 421 157 419 
f 423 157 421 
f 123 158 159 
f 159 407 124 
f 146 158 123 
f 147 146 122 
f 148 147 121 
f 149 148 120 
f 150 149 119 
f 417 150 118 
f 115 151 395 
f 152 151 115 
f 398 152 114 
f 400 398 113 
f 402 400 112 
f 405 402 111 
f 409 405 110 
f 12 407 409 
f 455 395 412 
f 453 412 414 
f 460 414 401 
f 103 416 418 
f 418 413 104 
f 420 416 103 
f 422 420 102 
f 396 422 101 
f 397 396 100 
f 399 397 99 
f 401 399 98 
f 95 403 423 
f 404 403 95 
f 406 404 94 
f 408 406 93 
f 410 408 92 
f 411 410 91 
f 415 411 90 
f 10 413 415 
f 419 417 456 
f 421 419 454 
f 423 421 459 
f 124 407 12 
f 123 159 124 
f 122 146 123 
f 121 147 122 
f 120 148 121 
f 119 149 120 
f 118 150 119 
f 117 417 118 
f 7 417 117 
f 116 395 11 
f 115 395 116 
f 114 152 115 
f 113 398 114 
f 112 400 113 
f 111 402 112 
f 110 405 111 
f 109 409 110 
f 12 409 109 
f 11 395 455 
f 455 412 453 
f 453 414 458 
f 458 414 460 
f 460 401 22 
f 104 413 10 
f 103 418 104 
f 102 420 103 
f 101 422 102 
f 100 396 101 
f 99 397 100 
f 98 399 99 
f 97 401 98 
f 22 401 97 
f 96 423 204 
f 95 423 96 
f 94 404 95 
f 93 406 94 
f 92 408 93 
f 91 410 92 
f 90 411 91 
f 89 415 90 
f 10 415 89 
f 456 417 7 
f 454 419 456 
f 457 421 454 
f 459 421 457 
f 204 423 459 
f 132 133 203 
f 133 134 202 
f 134 135 201 
f 135 136 200 
f 136 137 199 
f 137 138 198 
f 138 15 197 
f 15 125 212 
f 125 126 211 
f 126 127 210 
f 127 128 209 
f 128 129 208 
f 129 130 207 
f 130 131 206 
f 131 14 205 
f 14 174 96 
f 174 175 95 
f 175 176 94 
f 176 177 93 
f 177 178 92 
f 178 179 91 
f 179 180 90 
f 180 20 89 
f 20 167 104 
f 167 168 103 
f 168 169 102 
f 169 170 101 
f 170 171 100 
f 171 172 99 
f 172 173 98 
f 173 16 97 
f 4 41 590 
f 41 42 592 
f 42 43 593 
f 43 44 594 
f 44 45 595 
f 45 46 596 
f 46 47 597 
f 47 48 598 
f 48 49 599 
f 49 50 600 
f 50 51 601 
f 51 52 602 
f 52 53 603 
f 53 54 604 
f 54 3 605 
f 3 27 606 
f 27 28 607 
f 28 29 608 
f 29 30 609 
f 30 31 610 
f 31 32 611 
f 32 33 612 
f 33 34 613 
f 34 35 614 
f 35 36 615 
f 36 37 616 
f 37 38 617 
f 38 39 618 
f 39 40 619 
f 40 2 620 
f 2 255 621 
f 255 256 622 
f 256 257 623 
f 257 258 624 
f 258 259 625 
f 259 260 626 
f 260 261 627 
f 261 262 628 
f 262 263 629 
f 263 264 630 
f 264 265 631 
f 265 266 632 
f 266 267 633 
f 267 268 634 
f 268 24 635 
f 24 241 636 
f 241 242 637 
f 242 243 638 
f 243 244 639 
f 244 245 640 
f 245 246 641 
f 246 247 642 
f 247 248 643 
f 248 249 644 
f 249 250 645 
f 250 251 646 
f 251 252 647 
f 252 253 648 
f 253 254 649 
f 254 4 591 
f 11 189 650 
f 189 190 653 
f 190 191 654 
f 191 192 655 
f 192 193 656 
f 193 194 657 
f 194 195 658 
f 195 196 659 
f 196 21 660 
f 21 181 661 
f 181 182 662 
f 182 183 663 
f 183 184 664 
f 184 185 665 
f 185 186 666 
f 186 187 667 
f 187 188 668 
f 188 7 669 
f 7 117 670 
f 117 118 671 
f 118 119 672 
f 119 120 673 
f 120 121 674 
f 121 122 675 
f 122 123 676 
f 123 124 677 
f 124 12 678 
f 12 109 679 
f 109 110 680 
f 110 111 681 
f 111 112 682 
f 112 113 683 
f 113 114 684 
f 114 115 685 
f 115 116 652 
f 116 11 652 
f 590 41 592 
f 4 590 591 
f 592 42 593 
f 593 43 594 
f 594 44 595 
f 595 45 596 
f 596 46 597 
f 597 47 598 
f 598 48 599 
f 599 49 600 
f 600 50 601 
f 601 51 602 
f 602 52 603 
f 603 53 604 
f 604 54 605 
f 605 3 606 
f 606 27 607 
f 607 28 608 
f 608 29 609 
f 609 30 610 
f 610 31 611 
f 611 32 612 
f 612 33 613 
f 613 34 614 
f 614 35 615 
f 615 36 616 
f 616 37 617 
f 617 38 618 
f 618 39 619 
f 619 40 620 
f 620 2 621 
f 621 255 622 
f 622 256 623 
f 623 257 624 
f 624 258 625 
f 625 259 626 
f 626 260 627 
f 627 261 628 
f 628 262 629 
f 629 263 630 
f 630 264 631 
f 631 265 632 
f 632 266 633 
f 633 267 634 
f 634 268 635 
f 635 24 636 
f 636 241 637 
f 637 242 638 
f 638 243 639 
f 639 244 640 
f 640 245 641 
f 641 246 642 
f 642 247 643 
f 643 248 644 
f 644 249 645 
f 645 250 646 
f 646 251 647 
f 647 252 648 
f 648 253 649 
f 649 254 591 
f 650 189 653 
f 11 650 651 
f 653 190 654 
f 654 191 655 
f 655 192 656 
f 656 193 657 
f 657 194 658 
f 658 195 659 
f 659 196 660 
f 660 21 661 
f 661 181 662 
f 662 182 663 
f 663 183 664 
f 664 184 665 
f 665 185 666 
f 666 186 667 
f 667 187 668 
f 668 188 669 
f 669 7 670 
f 670 117 671 
f 671 118 672 
f 672 119 673 
f 673 120 674 
f 674 121 675 
f 675 122 676 
f 676 123 677 
f 677 124 678 
f 678 12 679 
f 679 109 680 
f 680 110 681 
f 681 111 682 
f 682 112 683 
f 683 113 684 
f 684 114 685 
f 685 115 652 
f 652 11 651 
f 590 592 686 
f 591 590 687 
f 592 593 689 
f 593 594 689 
f 594 595 690 
f 595 596 691 
f 596 597 691 
f 597 598 692 
f 598 599 692 
f 599 600 693 
f 600 601 694 
f 601 602 694 
f 602 603 695 
f 603 604 695 
f 604 605 696 
f 605 606 697 
f 606 607 697 
f 607 608 698 
f 608 609 698 
f 609 610 699 
f 610 611 700 
f 611 612 700 
f 612 613 701 
f 613 614 701 
f 614 615 702 
f 615 616 703 
f 616 617 703 
f 617 618 704 
f 618 619 704 
f 619 620 705 
f 620 621 706 
f 621 622 706 
f 622 623 707 
f 623 624 707 
f 624 625 708 
f 625 626 709 
f 626 627 709 
f 627 628 710 
f 628 629 710 
f 629 630 711 
f 630 631 712 
f 631 632 712 
f 632 633 713 
f 633 634 713 
f 634 635 714 
f 635 636 715 
f 636 637 715 
f 637 638 716 
f 638 639 716 
f 639 640 717 
f 640 641 718 
f 641 642 718 
f 642 643 719 
f 643 644 719 
f 644 645 720 
f 645 646 721 
f 646 647 721 
f 647 648 722 
f 648 649 722 
f 649 591 688 
f 650 653 722 
f 651 650 687 
f 653 654 721 
f 654 655 720 
f 655 656 719 
f 656 657 718 
f 657 658 717 
f 658 659 716 
f 659 660 715 
f 660 661 714 
f 661 662 713 
f 662 663 712 
f 663 664 711 
f 664 665 710 
f 665 666 709 
f 666 667 708 
f 667 668 707 
f 668 669 706 
f 669 670 705 
f 670 671 704 
f 671 672 703 
f 672 673 702 
f 673 674 701 
f 674 675 700 
f 675 676 699 
f 676 677 698 
f 677 678 697 
f 678 679 696 
f 679 680 695 
f 680 681 694 
f 681 682 693 
f 682 683 692 
f 683 684 691 
f 684 685 690 
f 685 652 689 
f 652 651 686 
f 686 592 689 
f 590 686 687 
f 591 687 688 
f 689 594 690 
f 690 595 691 
f 691 597 692 
f 692 599 693 
f 693 600 694 
f 694 602 695 
f 695 604 696 
f 696 605 697 
f 697 607 698 
f 698 609 699 
f 699 610 700 
f 700 612 701 
f 701 614 702 
f 702 615 703 
f 703 617 704 
f 704 619 705 
f 705 620 706 
f 706 622 707 
f 707 624 708 
f 708 625 709 
f 709 627 710 
f 710 629 711 
f 711 630 712 
f 712 632 713 
f 713 634 714 
f 714 635 715 
f 715 637 716 
f 716 639 717 
f 717 640 718 
f 718 642 719 
f 719 644 720 
f 720 645 721 
f 721 647 722 
f 722 649 688 
f 722 653 721 
f 650 722 688 
f 687 650 688 
f 651 687 686 
f 721 654 720 
f 720 655 719 
f 719 656 718 
f 718 657 717 
f 717 658 716 
f 716 659 715 
f 715 660 714 
f 714 661 713 
f 713 662 712 
f 712 663 711 
f 711 664 710 
f 710 665 709 
f 709 666 708 
f 708 667 707 
f 707 668 706 
f 706 669 705 
f 705 670 704 
f 704 671 703 
f 703 672 702 
f 702 673 701 
f 701 674 700 
f 700 675 699 
f 699 676 698 
f 698 677 697 
f 697 678 696 
f 696 679 695 
f 695 680 694 
f 694 681 693 
f 693 682 692 
f 692 683 691 
f 691 684 690 
f 690 685 689 
f 689 652 686 
f 5 723 57 
f 57 724 58 
f 58 725 59 
f 59 726 60 
f 60 727 61 
f 61 728 62 
f 62 729 63 
f 63 730 64 
f 64 731 65 
f 65 732 66 
f 66 733 67 
f 67 734 68 
f 68 735 69 
f 69 736 70 
f 70 737 6 
f 23 738 227 
f 227 738 228 
f 228 740 229 
f 229 741 230 
f 230 742 231 
f 231 743 232 
f 232 744 233 
f 233 745 234 
f 234 746 235 
f 235 747 236 
f 236 748 237 
f 237 749 238 
f 238 750 239 
f 239 751 240 
f 240 723 5 
f 1 753 213 
f 213 753 214 
f 214 755 215 
f 215 756 216 
f 216 757 217 
f 217 758 218 
f 218 759 219 
f 219 760 220 
f 220 761 221 
f 221 762 222 
f 222 763 223 
f 223 764 224 
f 224 765 225 
f 225 766 226 
f 226 739 23 
f 6 768 71 
f 71 769 72 
f 72 770 73 
f 73 771 74 
f 74 772 75 
f 75 773 76 
f 76 774 77 
f 77 775 78 
f 78 776 79 
f 79 777 80 
f 80 778 81 
f 81 779 82 
f 82 780 83 
f 83 781 84 
f 84 754 1 
f 723 724 57 
f 724 725 58 
f 725 726 59 
f 726 727 60 
f 727 728 61 
f 728 729 62 
f 729 730 63 
f 730 731 64 
f 731 732 65 
f 732 733 66 
f 733 734 67 
f 734 735 68 
f 735 736 69 
f 736 737 70 
f 737 768 6 
f 23 739 738 
f 738 740 228 
f 740 741 229 
f 741 742 230 
f 742 743 231 
f 743 744 232 
f 744 745 233 
f 745 746 234 
f 746 747 235 
f 747 748 236 
f 748 749 237 
f 749 750 238 
f 750 752 239 
f 751 723 240 
f 239 752 751 
f 1 754 753 
f 753 755 214 
f 755 756 215 
f 756 757 216 
f 757 758 217 
f 758 759 218 
f 759 760 219 
f 760 761 220 
f 761 762 221 
f 762 763 222 
f 763 764 223 
f 764 765 224 
f 765 766 225 
f 766 767 226 
f 226 767 739 
f 768 769 71 
f 769 770 72 
f 770 771 73 
f 771 772 74 
f 772 773 75 
f 773 774 76 
f 774 775 77 
f 775 776 78 
f 776 777 79 
f 777 778 80 
f 778 779 81 
f 779 780 82 
f 780 781 83 
f 781 782 84 
f 84 782 754 
f 723 783 724 
f 724 783 725 
f 725 785 726 
f 726 786 727 
f 727 787 728 
f 728 788 729 
f 729 789 730 
f 730 790 731 
f 731 791 732 
f 732 792 733 
f 733 793 734 
f 734 794 735 
f 735 795 736 
f 736 796 737 
f 737 797 768 
f 739 798 738 
f 738 798 740 
f 740 800 741 
f 741 801 742 
f 742 802 743 
f 743 803 744 
f 744 804 745 
f 745 805 746 
f 746 806 747 
f 747 807 748 
f 748 808 749 
f 749 809 750 
f 750 810 752 
f 751 784 723 
f 752 811 751 
f 754 812 753 
f 753 812 755 
f 755 814 756 
f 756 815 757 
f 757 816 758 
f 758 817 759 
f 759 818 760 
f 760 819 761 
f 761 820 762 
f 762 821 763 
f 763 822 764 
f 764 823 765 
f 765 824 766 
f 766 825 767 
f 767 799 739 
f 768 826 769 
f 769 827 770 
f 770 828 771 
f 771 829 772 
f 772 830 773 
f 773 831 774 
f 774 832 775 
f 775 833 776 
f 776 834 777 
f 777 835 778 
f 778 836 779 
f 779 837 780 
f 780 838 781 
f 781 839 782 
f 782 813 754 
f 723 784 783 
f 783 785 725 
f 785 786 726 
f 786 787 727 
f 787 788 728 
f 788 789 729 
f 789 790 730 
f 790 791 731 
f 791 792 732 
f 792 793 733 
f 793 794 734 
f 794 795 735 
f 795 796 736 
f 796 797 737 
f 797 826 768 
f 739 799 798 
f 798 800 740 
f 800 801 741 
f 801 802 742 
f 802 803 743 
f 803 804 744 
f 804 805 745 
f 805 806 746 
f 806 807 747 
f 807 808 748 
f 808 809 749 
f 809 810 750 
f 810 811 752 
f 751 811 784 
f 754 813 812 
f 812 814 755 
f 814 815 756 
f 815 816 757 
f 816 817 758 
f 817 818 759 
f 818 819 760 
f 819 820 761 
f 820 821 762 
f 821 822 763 
f 822 823 764 
f 823 824 765 
f 824 825 766 
f 825 799 767 
f 826 827 769 
f 827 828 770 
f 828 829 771 
f 829 830 772 
f 830 831 773 
f 831 832 774 
f 832 833 775 
f 833 834 776 
f 834 835 777 
f 835 836 778 
f 836 837 779 
f 837 838 780 
f 838 839 781 
f 839 813 782 
f 784 840 783 
f 783 840 785 
f 785 842 786 
f 786 842 787 
f 787 843 788 
f 788 843 789 
f 789 844 790 
f 790 844 791 
f 791 845 792 
f 792 845 793 
f 793 846 794 
f 794 846 795 
f 795 847 796 
f 796 847 797 
f 797 848 826 
f 799 849 798 
f 798 849 800 
f 800 851 801 
f 801 851 802 
f 802 852 803 
f 803 852 804 
f 804 853 805 
f 805 853 806 
f 806 854 807 
f 807 854 808 
f 808 855 809 
f 809 855 810 
f 810 856 811 
f 811 841 784 
f 813 857 812 
f 812 857 814 
f 814 859 815 
f 815 859 816 
f 816 860 817 
f 817 860 818 
f 818 861 819 
f 819 861 820 
f 820 862 821 
f 821 862 822 
f 822 863 823 
f 823 863 824 
f 824 864 825 
f 825 850 799 
f 826 848 827 
f 827 865 828 
f 828 865 829 
f 829 866 830 
f 830 866 831 
f 831 867 832 
f 832 867 833 
f 833 868 834 
f 834 868 835 
f 835 869 836 
f 836 869 837 
f 837 870 838 
f 838 870 839 
f 839 858 813 
f 784 841 840 
f 840 842 785 
f 842 843 787 
f 843 844 789 
f 844 845 791 
f 845 846 793 
f 846 847 795 
f 847 848 797 
f 799 850 849 
f 849 851 800 
f 851 852 802 
f 852 853 804 
f 853 854 806 
f 854 855 808 
f 855 856 810 
f 856 841 811 
f 813 858 857 
f 857 859 814 
f 859 860 816 
f 860 861 818 
f 861 862 820 
f 862 863 822 
f 863 864 824 
f 864 850 825 
f 848 865 827 
f 865 866 829 
f 866 867 831 
f 867 868 833 
f 868 869 835 
f 869 870 837 
f 870 858 839 
f 841 872 840 
f 840 871 842 
f 842 873 843 
f 843 874 844 
f 844 875 845 
f 845 876 846 
f 846 877 847 
f 847 878 848 
f 850 881 849 
f 849 880 851 
f 851 883 852 
f 852 884 853 
f 853 885 854 
f 854 886 855 
f 855 887 856 
f 856 872 841 
f 858 889 857 
f 857 889 859 
f 859 891 860 
f 860 892 861 
f 861 893 862 
f 862 894 863 
f 863 895 864 
f 864 882 850 
f 848 879 865 
f 865 896 866 
f 866 897 867 
f 867 898 868 
f 868 899 869 
f 869 900 870 
f 870 890 858 
f 872 871 840 
f 871 873 842 
f 873 874 843 
f 874 875 844 
f 875 876 845 
f 876 877 846 
f 877 878 847 
f 878 879 848 
f 881 880 849 
f 850 882 881 
f 880 883 851 
f 883 884 852 
f 884 885 853 
f 885 886 854 
f 886 887 855 
f 887 888 856 
f 856 888 872 
f 858 890 889 
f 889 891 859 
f 891 892 860 
f 892 893 861 
f 893 894 862 
f 894 895 863 
f 895 882 864 
f 879 896 865 
f 896 897 866 
f 897 898 867 
f 898 899 868 
f 899 900 869 
f 900 901 870 
f 870 901 890 
f 872 902 871 
f 871 902 873 
f 873 904 874 
f 874 905 875 
f 875 906 876 
f 876 907 877 
f 877 908 878 
f 878 909 879 
f 881 911 880 
f 882 912 881 
f 880 911 883 
f 883 914 884 
f 884 915 885 
f 885 916 886 
f 886 917 887 
f 887 918 888 
f 888 903 872 
f 890 919 889 
f 889 919 891 
f 891 921 892 
f 892 922 893 
f 893 923 894 
f 894 924 895 
f 895 913 882 
f 879 910 896 
f 896 925 897 
f 897 926 898 
f 898 927 899 
f 899 928 900 
f 900 929 901 
f 901 920 890 
f 872 903 902 
f 902 904 873 
f 904 905 874 
f 905 906 875 
f 906 907 876 
f 907 908 877 
f 908 909 878 
f 909 910 879 
f 881 912 911 
f 882 913 912 
f 911 914 883 
f 914 915 884 
f 915 916 885 
f 916 917 886 
f 917 918 887 
f 918 903 888 
f 890 920 919 
f 919 921 891 
f 921 922 892 
f 922 923 893 
f 923 924 894 
f 924 913 895 
f 910 925 896 
f 925 926 897 
f 926 927 898 
f 927 928 899 
f 928 929 900 
f 929 930 901 
f 901 930 920 
f 903 932 902 
f 902 931 904 
f 904 933 905 
f 905 934 906 
f 906 935 907 
f 907 936 908 
f 908 937 909 
f 909 938 910 
f 912 941 911 
f 913 942 912 
f 911 940 914 
f 914 944 915 
f 915 945 916 
f 916 946 917 
f 917 947 918 
f 918 932 903 
f 920 950 919 
f 919 949 921 
f 921 951 922 
f 922 952 923 
f 923 953 924 
f 924 943 913 
f 910 939 925 
f 925 954 926 
f 926 955 927 
f 927 956 928 
f 928 957 929 
f 929 958 930 
f 930 950 920 
f 932 931 902 
f 931 933 904 
f 933 934 905 
f 934 935 906 
f 935 936 907 
f 936 937 908 
f 937 938 909 
f 938 939 910 
f 941 940 911 
f 912 942 941 
f 913 943 942 
f 940 944 914 
f 944 945 915 
f 945 946 916 
f 946 947 917 
f 947 948 918 
f 918 948 932 
f 950 949 919 
f 949 951 921 
f 951 952 922 
f 952 953 923 
f 953 943 924 
f 939 954 925 
f 954 955 926 
f 955 956 927 
f 956 957 928 
f 957 958 929 
f 958 950 930 
f 932 960 931 
f 931 959 933 
f 933 961 934 
f 934 961 935 
f 935 962 936 
f 936 963 937 
f 937 963 938 
f 938 964 939 
f 941 967 940 
f 942 967 941 
f 943 968 942 
f 940 966 944 
f 944 969 945 
f 945 969 946 
f 946 970 947 
f 947 970 948 
f 948 960 932 
f 950 972 949 
f 949 971 951 
f 951 973 952 
f 952 973 953 
f 953 968 943 
f 939 965 954 
f 954 965 955 
f 955 974 956 
f 956 975 957 
f 957 975 958 
f 958 972 950 
f 960 959 931 
f 959 961 933 
f 961 962 935 
f 962 963 936 
f 963 964 938 
f 964 965 939 
f 967 966 940 
f 942 968 967 
f 966 969 944 
f 969 970 946 
f 970 960 948 
f 972 971 949 
f 971 973 951 
f 973 968 953 
f 965 974 955 
f 974 975 956 
f 975 972 958 
f 960 977 959 
f 959 976 961 
f 961 978 962 
f 962 978 963 
f 963 979 964 
f 964 979 965 
f 967 982 966 
f 968 982 967 
f 966 981 969 
f 969 981 970 
f 970 977 960 
f 972 984 971 
f 971 983 973 
f 973 983 968 
f 965 980 974 
f 974 980 975 
f 975 984 972 
f 977 976 959 
f 976 978 961 
f 978 979 963 
f 979 980 965 
f 982 981 966 
f 968 983 982 
f 981 977 970 
f 984 983 971 
f 980 984 975 
f 977 985 976 
f 976 985 978 
f 978 985 979 
f 979 987 980 
f 982 989 981 
f 983 989 982 
f 981 986 977 
f 984 988 983 
f 980 988 984 
f 977 986 985 
f 985 987 979 
f 987 988 980 
f 989 986 981 
f 983 988 989 
f 986 989 985 
f 985 988 987 
f 988 985 989 
