# WaveFront *.obj file
# Vertices: 1004
# Triangles : 2008
v -0.22494341246783733 0.20767806563526392 -0.030612244154326618
v 0.22494341246783733 0.20767806563526392 -0.030612244154326618
v 0.22494341246783733 1.2716613325704808e-17 0.17706581857055426
v 0.22494341246783733 -0.20767806563526392 -0.030612244154326618
v -0.22494341246783733 -0.20767806563526392 -0.030612244154326618
v -0.22494341246783733 1.2716613325704808e-17 0.17706581857055426
v -0.22494341246783733 1.2716613325704808e-17 -0.23829031269997358
v 0.22494341246783733 1.2716613325704808e-17 -0.23829031269997358
v -0.22494341246783733 0.9999999776482582 0.7380952592939138
v -0.22494341246783733 -0.9999999776482582 0.7380952592939138
v 0.22494341246783733 -0.9999999776482582 0.7380952592939138
v 0.22494341246783733 0.9999999776482582 0.7380952592939138
v -0.22494341246783733 0.9999999776482582 -0.7380952592939138
v 0.22494341246783733 0.9999999776482582 -0.7380952592939138
v -0.22494341246783733 -0.9999999776482582 -0.7380952592939138
v 0.22494341246783733 -0.9999999776482582 -0.7380952592939138
v 0.13496604515239596 0.20767806563526392 -0.030612244154326618
v 0.044988683657720685 0.20767806563526392 -0.030612244154326618
v -0.044988683657720685 0.20767806563526392 -0.030612244154326618
v -0.13496604515239596 0.20767806563526392 -0.030612244154326618
v 0.22494341246783733 0.10383903281763196 0.14924223069101572
v 0.22494341246783733 0.17985447775572538 0.0732267857529223
v 0.22494341246783733 -0.17985447775572538 0.0732267857529223
v 0.22494341246783733 -0.10383903281763196 0.14924223069101572
v 0.13496604515239596 -0.20767806563526392 -0.030612244154326618
v 0.044988683657720685 -0.20767806563526392 -0.030612244154326618
v -0.044988683657720685 -0.20767806563526392 -0.030612244154326618
v -0.13496604515239596 -0.20767806563526392 -0.030612244154326618
v -0.22494341246783733 -0.17985447775572538 0.0732267857529223
v -0.22494341246783733 -0.10383903281763196 0.14924223069101572
v -0.22494341246783733 0.10383903281763196 0.14924223069101572
v -0.22494341246783733 0.17985447775572538 0.0732267857529223
v -0.22494341246783733 0.17985447775572538 -0.13445127988234162
v -0.22494341246783733 0.10383903281763196 -0.21046672482043505
v -0.22494341246783733 -0.10383903281763196 -0.21046672482043505
v -0.22494341246783733 -0.17985447775572538 -0.13445127988234162
v 0.22494341246783733 -0.10383903281763196 -0.21046672482043505
v 0.22494341246783733 -0.17985447775572538 -0.13445127988234162
v 0.22494341246783733 0.17985447775572538 -0.13445127988234162
v 0.22494341246783733 0.10383903281763196 -0.21046672482043505
v -0.22494341246783733 0.9047619067132473 0.7380952592939138
v -0.22494341246783733 0.8095238357782364 0.7380952592939138
v -0.22494341246783733 0.7142857182770967 0.7380952592939138
v -0.22494341246783733 0.6190476007759571 0.7380952592939138
v -0.22494341246783733 0.5238095298409462 0.7380952592939138
v -0.22494341246783733 0.42857141233980656 0.7380952592939138
v -0.22494341246783733 0.33333334140479565 0.7380952592939138
v -0.22494341246783733 0.23809524718672037 0.7380952592939138
v -0.22494341246783733 0.1428571413271129 0.7380952592939138
v -0.22494341246783733 0.04761904710903764 0.7380952592939138
v -0.22494341246783733 -0.04761904710903764 0.7380952592939138
v -0.22494341246783733 -0.1428571413271129 0.7380952592939138
v -0.22494341246783733 -0.23809524718672037 0.7380952592939138
v -0.22494341246783733 -0.33333334140479565 0.7380952592939138
v -0.22494341246783733 -0.42857141233980656 0.7380952592939138
v -0.22494341246783733 -0.5238095298409462 0.7380952592939138
v -0.22494341246783733 -0.6190476007759571 0.7380952592939138
v -0.22494341246783733 -0.7142857182770967 0.7380952592939138
v -0.22494341246783733 -0.8095238357782364 0.7380952592939138
v -0.22494341246783733 -0.9047619067132473 0.7380952592939138
v -0.13496604515239596 -0.9999999776482582 0.7380952592939138
v -0.044988683657720685 -0.9999999776482582 0.7380952592939138
v 0.044988683657720685 -0.9999999776482582 0.7380952592939138
v 0.13496604515239596 -0.9999999776482582 0.7380952592939138
v 0.22494341246783733 0.9047619067132473 0.7380952592939138
v 0.22494341246783733 0.8095238357782364 0.7380952592939138
v 0.22494341246783733 0.7142857182770967 0.7380952592939138
v 0.22494341246783733 0.6190476007759571 0.7380952592939138
v 0.22494341246783733 0.5238095298409462 0.7380952592939138
v 0.22494341246783733 0.42857141233980656 0.7380952592939138
v 0.22494341246783733 0.33333334140479565 0.7380952592939138
v 0.22494341246783733 0.23809524718672037 0.7380952592939138
v 0.22494341246783733 0.1428571413271129 0.7380952592939138
v 0.22494341246783733 0.04761904710903764 0.7380952592939138
v 0.22494341246783733 -0.04761904710903764 0.7380952592939138
v 0.22494341246783733 -0.1428571413271129 0.7380952592939138
v 0.22494341246783733 -0.23809524718672037 0.7380952592939138
v 0.22494341246783733 -0.33333334140479565 0.7380952592939138
v 0.22494341246783733 -0.42857141233980656 0.7380952592939138
v 0.22494341246783733 -0.5238095298409462 0.7380952592939138
v 0.22494341246783733 -0.6190476007759571 0.7380952592939138
v 0.22494341246783733 -0.7142857182770967 0.7380952592939138
v 0.22494341246783733 -0.8095238357782364 0.7380952592939138
v 0.22494341246783733 -0.9047619067132473 0.7380952592939138
v -0.13496604515239596 0.9999999776482582 0.7380952592939138
v -0.044988683657720685 0.9999999776482582 0.7380952592939138
v 0.044988683657720685 0.9999999776482582 0.7380952592939138
v 0.13496604515239596 0.9999999776482582 0.7380952592939138
v -0.22494341246783733 0.9999999776482582 -0.6396825425326824
v -0.22494341246783733 0.9999999776482582 -0.541269825771451
v -0.22494341246783733 0.9999999776482582 -0.4428571555763483
v -0.22494341246783733 0.9999999776482582 -0.3444444388151169
v -0.22494341246783733 0.9999999776482582 -0.24603174533694983
v -0.22494341246783733 0.9999999776482582 -0.14761905185878277
v -0.22494341246783733 0.9999999776482582 -0.04920634673908353
v -0.22494341246783733 0.9999999776482582 0.04920634673908353
v -0.22494341246783733 0.9999999776482582 0.14761905185878277
v -0.22494341246783733 0.9999999776482582 0.24603174533694983
v -0.22494341246783733 0.9999999776482582 0.3444444388151169
v -0.22494341246783733 0.9999999776482582 0.4428571555763483
v -0.22494341246783733 0.9999999776482582 0.541269825771451
v -0.22494341246783733 0.9999999776482582 0.6396825425326824
v 0.22494341246783733 0.9999999776482582 -0.6396825425326824
v 0.22494341246783733 0.9999999776482582 -0.541269825771451
v 0.22494341246783733 0.9999999776482582 -0.4428571555763483
v 0.22494341246783733 0.9999999776482582 -0.3444444388151169
v 0.22494341246783733 0.9999999776482582 -0.24603174533694983
v 0.22494341246783733 0.9999999776482582 -0.14761905185878277
v 0.22494341246783733 0.9999999776482582 -0.04920634673908353
v 0.22494341246783733 0.9999999776482582 0.04920634673908353
v 0.22494341246783733 0.9999999776482582 0.14761905185878277
v 0.22494341246783733 0.9999999776482582 0.24603174533694983
v 0.22494341246783733 0.9999999776482582 0.3444444388151169
v 0.22494341246783733 0.9999999776482582 0.4428571555763483
v 0.22494341246783733 0.9999999776482582 0.541269825771451
v 0.22494341246783733 0.9999999776482582 0.6396825425326824
v -0.13496604515239596 0.9999999776482582 -0.7380952592939138
v -0.044988683657720685 0.9999999776482582 -0.7380952592939138
v 0.044988683657720685 0.9999999776482582 -0.7380952592939138
v 0.13496604515239596 0.9999999776482582 -0.7380952592939138
v -0.22494341246783733 -0.9047619067132473 -0.7380952592939138
v -0.22494341246783733 -0.8095238357782364 -0.7380952592939138
v -0.22494341246783733 -0.7142857182770967 -0.7380952592939138
v -0.22494341246783733 -0.6190476007759571 -0.7380952592939138
v -0.22494341246783733 -0.5238095298409462 -0.7380952592939138
v -0.22494341246783733 -0.42857141233980656 -0.7380952592939138
v -0.22494341246783733 -0.33333334140479565 -0.7380952592939138
v -0.22494341246783733 -0.23809524718672037 -0.7380952592939138
v -0.22494341246783733 -0.1428571413271129 -0.7380952592939138
v -0.22494341246783733 -0.04761904710903764 -0.7380952592939138
v -0.22494341246783733 0.04761904710903764 -0.7380952592939138
v -0.22494341246783733 0.1428571413271129 -0.7380952592939138
v -0.22494341246783733 0.23809524718672037 -0.7380952592939138
v -0.22494341246783733 0.33333334140479565 -0.7380952592939138
v -0.22494341246783733 0.42857141233980656 -0.7380952592939138
v -0.22494341246783733 0.5238095298409462 -0.7380952592939138
v -0.22494341246783733 0.6190476007759571 -0.7380952592939138
v -0.22494341246783733 0.7142857182770967 -0.7380952592939138
v -0.22494341246783733 0.8095238357782364 -0.7380952592939138
v -0.22494341246783733 0.9047619067132473 -0.7380952592939138
v 0.22494341246783733 -0.9047619067132473 -0.7380952592939138
v 0.22494341246783733 -0.8095238357782364 -0.7380952592939138
v 0.22494341246783733 -0.7142857182770967 -0.7380952592939138
v 0.22494341246783733 -0.6190476007759571 -0.7380952592939138
v 0.22494341246783733 -0.5238095298409462 -0.7380952592939138
v 0.22494341246783733 -0.42857141233980656 -0.7380952592939138
v 0.22494341246783733 -0.33333334140479565 -0.7380952592939138
v 0.22494341246783733 -0.23809524718672037 -0.7380952592939138
v 0.22494341246783733 -0.1428571413271129 -0.7380952592939138
v 0.22494341246783733 -0.04761904710903764 -0.7380952592939138
v 0.22494341246783733 0.04761904710903764 -0.7380952592939138
v 0.22494341246783733 0.1428571413271129 -0.7380952592939138
v 0.22494341246783733 0.23809524718672037 -0.7380952592939138
v 0.22494341246783733 0.33333334140479565 -0.7380952592939138
v 0.22494341246783733 0.42857141233980656 -0.7380952592939138
v 0.22494341246783733 0.5238095298409462 -0.7380952592939138
v 0.22494341246783733 0.6190476007759571 -0.7380952592939138
v 0.22494341246783733 0.7142857182770967 -0.7380952592939138
v 0.22494341246783733 0.8095238357782364 -0.7380952592939138
v 0.22494341246783733 0.9047619067132473 -0.7380952592939138
v -0.13496604515239596 -0.9999999776482582 -0.7380952592939138
v -0.044988683657720685 -0.9999999776482582 -0.7380952592939138
v 0.044988683657720685 -0.9999999776482582 -0.7380952592939138
v 0.13496604515239596 -0.9999999776482582 -0.7380952592939138
v -0.22494341246783733 -0.9999999776482582 0.6396825425326824
v -0.22494341246783733 -0.9999999776482582 0.541269825771451
v -0.22494341246783733 -0.9999999776482582 0.4428571555763483
v -0.22494341246783733 -0.9999999776482582 0.3444444388151169
v -0.22494341246783733 -0.9999999776482582 0.24603174533694983
v -0.22494341246783733 -0.9999999776482582 0.14761905185878277
v -0.22494341246783733 -0.9999999776482582 0.04920634673908353
v -0.22494341246783733 -0.9999999776482582 -0.04920634673908353
v -0.22494341246783733 -0.9999999776482582 -0.14761905185878277
v -0.22494341246783733 -0.9999999776482582 -0.24603174533694983
v -0.22494341246783733 -0.9999999776482582 -0.3444444388151169
v -0.22494341246783733 -0.9999999776482582 -0.4428571555763483
v -0.22494341246783733 -0.9999999776482582 -0.541269825771451
v -0.22494341246783733 -0.9999999776482582 -0.6396825425326824
v 0.22494341246783733 -0.9999999776482582 0.6396825425326824
v 0.22494341246783733 -0.9999999776482582 0.541269825771451
v 0.22494341246783733 -0.9999999776482582 0.4428571555763483
v 0.22494341246783733 -0.9999999776482582 0.3444444388151169
v 0.22494341246783733 -0.9999999776482582 0.24603174533694983
v 0.22494341246783733 -0.9999999776482582 0.14761905185878277
v 0.22494341246783733 -0.9999999776482582 0.04920634673908353
v 0.22494341246783733 -0.9999999776482582 -0.04920634673908353
v 0.22494341246783733 -0.9999999776482582 -0.14761905185878277
v 0.22494341246783733 -0.9999999776482582 -0.24603174533694983
v 0.22494341246783733 -0.9999999776482582 -0.3444444388151169
v 0.22494341246783733 -0.9999999776482582 -0.4428571555763483
v 0.22494341246783733 -0.9999999776482582 -0.541269825771451
v 0.22494341246783733 -0.9999999776482582 -0.6396825425326824
v 0.13496604515239596 0.18557804869487882 0.062613096088171
v 0.044988683657720685 0.18557804869487882 0.062613096088171
v -0.044988683657720685 0.18557804869487882 0.062613096088171
v -0.13496604515239596 0.18557804869487882 0.062613096088171
v 0.12826372403651476 0.10383903281763196 0.14924223069101572
v 0.13496604515239596 -0.18557804869487882 0.062613096088171
v 0.12826372403651476 -0.10383903281763196 0.14924223069101572
v 0.12826372403651476 1.2716613325704808e-17 0.17706581857055426
v 0.044988683657720685 -0.18557804869487882 0.062613096088171
v -0.044988683657720685 -0.18557804869487882 0.062613096088171
v -0.13496604515239596 -0.18557804869487882 0.062613096088171
v -0.12826372403651476 -0.10383903281763196 0.14924223069101572
v -0.12826372403651476 1.2716613325704808e-17 0.17706581857055426
v -0.12826372403651476 0.10383903281763196 0.14924223069101572
v 0.044988683657720685 0.1239815610460937 0.13599733356386423
v -0.044988683657720685 0.1239815610460937 0.13599733356386423
v 0.03158403851557523 1.2716613325704808e-17 0.17706581857055426
v 0.044988683657720685 -0.1239815610460937 0.13599733356386423
v -0.044988683657720685 -0.1239815610460937 0.13599733356386423
v -0.044988683657720685 -0.03599812916945666 0.1739221392199397
v -0.044988683657720685 0.03599812916945666 0.1739221392199397
v 0.13496604515239596 0.18557804869487882 -0.12383757857605815
v 0.044988683657720685 0.18557804869487882 -0.12383757857605815
v -0.044988683657720685 0.18557804869487882 -0.12383757857605815
v -0.13496604515239596 0.18557804869487882 -0.12383757857605815
v -0.12826372403651476 0.10383903281763196 -0.21046672482043505
v -0.12826372403651476 1.2716613325704808e-17 -0.23829031269997358
v -0.12826372403651476 -0.10383903281763196 -0.21046672482043505
v -0.13496604515239596 -0.18557804869487882 -0.12383757857605815
v 0.13496604515239596 -0.18557804869487882 -0.12383757857605815
v 0.044988683657720685 -0.18557804869487882 -0.12383757857605815
v -0.044988683657720685 -0.18557804869487882 -0.12383757857605815
v 0.12826372403651476 -0.10383903281763196 -0.21046672482043505
v 0.12826372403651476 0.10383903281763196 -0.21046672482043505
v 0.12826372403651476 1.2716613325704808e-17 -0.23829031269997358
v 0.044988683657720685 0.1239815610460937 -0.19722182769328356
v -0.044988683657720685 0.1239815610460937 -0.19722182769328356
v -0.03158403851557523 1.2716613325704808e-17 -0.23829031269997358
v -0.044988683657720685 -0.1239815610460937 -0.19722182769328356
v 0.044988683657720685 -0.1239815610460937 -0.19722182769328356
v 0.044988683657720685 -0.03599812916945666 -0.23514663334935904
v 0.044988683657720685 0.03599812916945666 -0.23514663334935904
v -0.13496604515239596 0.9057736024260521 0.7380952592939138
v -0.1307169906795025 0.8095238357782364 0.7380952592939138
v -0.1307169906795025 0.7142857182770967 0.7380952592939138
v -0.1307169906795025 0.6190476007759571 0.7380952592939138
v -0.1307169906795025 0.5238095298409462 0.7380952592939138
v -0.1307169906795025 0.42857141233980656 0.7380952592939138
v -0.1307169906795025 0.33333334140479565 0.7380952592939138
v -0.1307169906795025 0.23809524718672037 0.7380952592939138
v -0.1307169906795025 0.1428571413271129 0.7380952592939138
v -0.1307169906795025 0.04761904710903764 0.7380952592939138
v -0.1307169906795025 -0.04761904710903764 0.7380952592939138
v -0.1307169906795025 -0.1428571413271129 0.7380952592939138
v -0.1307169906795025 -0.23809524718672037 0.7380952592939138
v -0.1307169906795025 -0.33333334140479565 0.7380952592939138
v -0.1307169906795025 -0.42857141233980656 0.7380952592939138
v -0.1307169906795025 -0.5238095298409462 0.7380952592939138
v -0.1307169906795025 -0.6190476007759571 0.7380952592939138
v -0.1307169906795025 -0.7142857182770967 0.7380952592939138
v -0.13496604515239596 -0.9057736024260521 0.7380952592939138
v -0.1307169906795025 -0.8095238357782364 0.7380952592939138
v -0.044988683657720685 -0.9057736024260521 0.7380952592939138
v 0.044988683657720685 -0.9057736024260521 0.7380952592939138
v 0.13496604515239596 -0.9057736024260521 0.7380952592939138
v 0.13496604515239596 0.9057736024260521 0.7380952592939138
v 0.1307169906795025 0.8095238357782364 0.7380952592939138
v 0.1307169906795025 0.7142857182770967 0.7380952592939138
v 0.1307169906795025 0.6190476007759571 0.7380952592939138
v 0.1307169906795025 0.5238095298409462 0.7380952592939138
v 0.1307169906795025 0.42857141233980656 0.7380952592939138
v 0.1307169906795025 0.33333334140479565 0.7380952592939138
v 0.1307169906795025 0.23809524718672037 0.7380952592939138
v 0.1307169906795025 0.1428571413271129 0.7380952592939138
v 0.1307169906795025 0.04761904710903764 0.7380952592939138
v 0.1307169906795025 -0.04761904710903764 0.7380952592939138
v 0.1307169906795025 -0.1428571413271129 0.7380952592939138
v 0.1307169906795025 -0.23809524718672037 0.7380952592939138
v 0.1307169906795025 -0.33333334140479565 0.7380952592939138
v 0.1307169906795025 -0.42857141233980656 0.7380952592939138
v 0.1307169906795025 -0.5238095298409462 0.7380952592939138
v 0.1307169906795025 -0.6190476007759571 0.7380952592939138
v 0.1307169906795025 -0.7142857182770967 0.7380952592939138
v 0.1307169906795025 -0.8095238357782364 0.7380952592939138
v -0.044988683657720685 0.9057736024260521 0.7380952592939138
v 0.044988683657720685 0.9057736024260521 0.7380952592939138
v -0.044988683657720685 0.8115471340715885 0.7380952592939138
v -0.03649058053269982 0.7142857182770967 0.7380952592939138
v -0.03649058053269982 0.6190476007759571 0.7380952592939138
v -0.03649058053269982 0.5238095298409462 0.7380952592939138
v -0.03649058053269982 0.42857141233980656 0.7380952592939138
v -0.03649058053269982 0.33333334140479565 0.7380952592939138
v -0.03649058053269982 0.23809524718672037 0.7380952592939138
v -0.03649058053269982 0.1428571413271129 0.7380952592939138
v -0.03649058053269982 0.04761904710903764 0.7380952592939138
v -0.03649058053269982 -0.04761904710903764 0.7380952592939138
v -0.03649058053269982 -0.1428571413271129 0.7380952592939138
v -0.03649058053269982 -0.23809524718672037 0.7380952592939138
v -0.03649058053269982 -0.33333334140479565 0.7380952592939138
v -0.03649058053269982 -0.42857141233980656 0.7380952592939138
v -0.03649058053269982 -0.5238095298409462 0.7380952592939138
v -0.03649058053269982 -0.6190476007759571 0.7380952592939138
v -0.044988683657720685 -0.8115471340715885 0.7380952592939138
v -0.03649058053269982 -0.7142857182770967 0.7380952592939138
v 0.044988683657720685 -0.8115471340715885 0.7380952592939138
v 0.044988683657720685 0.8115471340715885 0.7380952592939138
v 0.03649058053269982 0.7142857182770967 0.7380952592939138
v 0.03649058053269982 0.6190476007759571 0.7380952592939138
v 0.03649058053269982 0.5238095298409462 0.7380952592939138
v 0.03649058053269982 0.42857141233980656 0.7380952592939138
v 0.03649058053269982 0.33333334140479565 0.7380952592939138
v 0.03649058053269982 0.23809524718672037 0.7380952592939138
v 0.03649058053269982 0.1428571413271129 0.7380952592939138
v 0.03649058053269982 0.04761904710903764 0.7380952592939138
v 0.03649058053269982 -0.04761904710903764 0.7380952592939138
v 0.03649058053269982 -0.1428571413271129 0.7380952592939138
v 0.03649058053269982 -0.23809524718672037 0.7380952592939138
v 0.03649058053269982 -0.33333334140479565 0.7380952592939138
v 0.03649058053269982 -0.42857141233980656 0.7380952592939138
v 0.03649058053269982 -0.5238095298409462 0.7380952592939138
v 0.03649058053269982 -0.6190476007759571 0.7380952592939138
v 0.03649058053269982 -0.7142857182770967 0.7380952592939138
v -0.13496604515239596 0.9999999776482582 -0.641791382804513
v -0.12863954761996865 0.9999999776482582 -0.541269825771451
v -0.12863954761996865 0.9999999776482582 -0.4428571555763483
v -0.12863954761996865 0.9999999776482582 -0.3444444388151169
v -0.12863954761996865 0.9999999776482582 -0.24603174533694983
v -0.12863954761996865 0.9999999776482582 -0.14761905185878277
v -0.12863954761996865 0.9999999776482582 -0.04920634673908353
v -0.12863954761996865 0.9999999776482582 0.04920634673908353
v -0.12863954761996865 0.9999999776482582 0.14761905185878277
v -0.12863954761996865 0.9999999776482582 0.24603174533694983
v -0.12863954761996865 0.9999999776482582 0.3444444388151169
v -0.12863954761996865 0.9999999776482582 0.4428571555763483
v -0.13496604515239596 0.9999999776482582 0.641791382804513
v -0.12863954761996865 0.9999999776482582 0.541269825771451
v -0.044988683657720685 0.9999999776482582 0.641791382804513
v 0.044988683657720685 0.9999999776482582 0.641791382804513
v 0.13496604515239596 0.9999999776482582 0.641791382804513
v 0.13496604515239596 0.9999999776482582 -0.641791382804513
v 0.12863954761996865 0.9999999776482582 -0.541269825771451
v 0.12863954761996865 0.9999999776482582 -0.4428571555763483
v 0.12863954761996865 0.9999999776482582 -0.3444444388151169
v 0.12863954761996865 0.9999999776482582 -0.24603174533694983
v 0.12863954761996865 0.9999999776482582 -0.14761905185878277
v 0.12863954761996865 0.9999999776482582 -0.04920634673908353
v 0.12863954761996865 0.9999999776482582 0.04920634673908353
v 0.12863954761996865 0.9999999776482582 0.14761905185878277
v 0.12863954761996865 0.9999999776482582 0.24603174533694983
v 0.12863954761996865 0.9999999776482582 0.3444444388151169
v 0.12863954761996865 0.9999999776482582 0.4428571555763483
v 0.12863954761996865 0.9999999776482582 0.541269825771451
v -0.044988683657720685 0.9999999776482582 -0.641791382804513
v 0.044988683657720685 0.9999999776482582 -0.641791382804513
v -0.044988683657720685 0.9999999776482582 -0.5454875063151121
v -0.03233568277209997 0.9999999776482582 -0.4428571555763483
v -0.03233568277209997 0.9999999776482582 -0.3444444388151169
v -0.03233568277209997 0.9999999776482582 -0.24603174533694983
v -0.03233568277209997 0.9999999776482582 -0.14761905185878277
v -0.03233568277209997 0.9999999776482582 -0.04920634673908353
v -0.03233568277209997 0.9999999776482582 0.04920634673908353
v -0.03233568277209997 0.9999999776482582 0.14761905185878277
v -0.03233568277209997 0.9999999776482582 0.24603174533694983
v -0.03233568277209997 0.9999999776482582 0.3444444388151169
v -0.044988683657720685 0.9999999776482582 0.5454875063151121
v -0.03233568277209997 0.9999999776482582 0.4428571555763483
v 0.044988683657720685 0.9999999776482582 0.5454875063151121
v 0.044988683657720685 0.9999999776482582 -0.5454875063151121
v 0.044988683657720685 0.9999999776482582 -0.44918362982571125
v 0.044988683657720685 0.9999999776482582 -0.35287977661937475
v 0.044988683657720685 0.9999999776482582 -0.25657592341303825
v 0.044988683657720685 0.9999999776482582 -0.1602720469236374
v 0.044988683657720685 0.9999999776482582 -0.06396818207576871
v 0.044988683657720685 0.9999999776482582 0.06396818207576871
v 0.044988683657720685 0.9999999776482582 0.1602720469236374
v 0.044988683657720685 0.9999999776482582 0.25657592341303825
v 0.044988683657720685 0.9999999776482582 0.35287977661937475
v 0.044988683657720685 0.9999999776482582 0.44918362982571125
v -0.13496604515239596 -0.9057736024260521 -0.7380952592939138
v -0.1307169906795025 -0.8095238357782364 -0.7380952592939138
v -0.1307169906795025 -0.7142857182770967 -0.7380952592939138
v -0.1307169906795025 -0.6190476007759571 -0.7380952592939138
v -0.1307169906795025 -0.5238095298409462 -0.7380952592939138
v -0.1307169906795025 -0.42857141233980656 -0.7380952592939138
v -0.1307169906795025 -0.33333334140479565 -0.7380952592939138
v -0.1307169906795025 -0.23809524718672037 -0.7380952592939138
v -0.1307169906795025 -0.1428571413271129 -0.7380952592939138
v -0.1307169906795025 -0.04761904710903764 -0.7380952592939138
v -0.1307169906795025 0.04761904710903764 -0.7380952592939138
v -0.1307169906795025 0.1428571413271129 -0.7380952592939138
v -0.1307169906795025 0.23809524718672037 -0.7380952592939138
v -0.1307169906795025 0.33333334140479565 -0.7380952592939138
v -0.1307169906795025 0.42857141233980656 -0.7380952592939138
v -0.1307169906795025 0.5238095298409462 -0.7380952592939138
v -0.1307169906795025 0.6190476007759571 -0.7380952592939138
v -0.1307169906795025 0.7142857182770967 -0.7380952592939138
v -0.13496604515239596 0.9057736024260521 -0.7380952592939138
v -0.1307169906795025 0.8095238357782364 -0.7380952592939138
v -0.044988683657720685 0.9057736024260521 -0.7380952592939138
v 0.044988683657720685 0.9057736024260521 -0.7380952592939138
v 0.13496604515239596 0.9057736024260521 -0.7380952592939138
v 0.13496604515239596 -0.9057736024260521 -0.7380952592939138
v 0.1307169906795025 -0.8095238357782364 -0.7380952592939138
v 0.1307169906795025 -0.7142857182770967 -0.7380952592939138
v 0.1307169906795025 -0.6190476007759571 -0.7380952592939138
v 0.1307169906795025 -0.5238095298409462 -0.7380952592939138
v 0.1307169906795025 -0.42857141233980656 -0.7380952592939138
v 0.1307169906795025 -0.33333334140479565 -0.7380952592939138
v 0.1307169906795025 -0.23809524718672037 -0.7380952592939138
v 0.1307169906795025 -0.1428571413271129 -0.7380952592939138
v 0.1307169906795025 -0.04761904710903764 -0.7380952592939138
v 0.1307169906795025 0.04761904710903764 -0.7380952592939138
v 0.1307169906795025 0.1428571413271129 -0.7380952592939138
v 0.1307169906795025 0.23809524718672037 -0.7380952592939138
v 0.1307169906795025 0.33333334140479565 -0.7380952592939138
v 0.1307169906795025 0.42857141233980656 -0.7380952592939138
v 0.1307169906795025 0.5238095298409462 -0.7380952592939138
v 0.1307169906795025 0.6190476007759571 -0.7380952592939138
v 0.1307169906795025 0.7142857182770967 -0.7380952592939138
v 0.1307169906795025 0.8095238357782364 -0.7380952592939138
v -0.044988683657720685 -0.9057736024260521 -0.7380952592939138
v 0.044988683657720685 -0.9057736024260521 -0.7380952592939138
v -0.044988683657720685 -0.8115471340715885 -0.7380952592939138
v -0.03649058053269982 -0.7142857182770967 -0.7380952592939138
v -0.03649058053269982 -0.6190476007759571 -0.7380952592939138
v -0.03649058053269982 -0.5238095298409462 -0.7380952592939138
v -0.03649058053269982 -0.42857141233980656 -0.7380952592939138
v -0.03649058053269982 -0.33333334140479565 -0.7380952592939138
v -0.03649058053269982 -0.23809524718672037 -0.7380952592939138
v -0.03649058053269982 -0.1428571413271129 -0.7380952592939138
v -0.03649058053269982 -0.04761904710903764 -0.7380952592939138
v -0.03649058053269982 0.04761904710903764 -0.7380952592939138
v -0.03649058053269982 0.1428571413271129 -0.7380952592939138
v -0.03649058053269982 0.23809524718672037 -0.7380952592939138
v -0.03649058053269982 0.33333334140479565 -0.7380952592939138
v -0.03649058053269982 0.42857141233980656 -0.7380952592939138
v -0.03649058053269982 0.5238095298409462 -0.7380952592939138
v -0.03649058053269982 0.6190476007759571 -0.7380952592939138
v -0.044988683657720685 0.8115471340715885 -0.7380952592939138
v -0.03649058053269982 0.7142857182770967 -0.7380952592939138
v 0.044988683657720685 0.8115471340715885 -0.7380952592939138
v 0.044988683657720685 -0.8115471340715885 -0.7380952592939138
v 0.03649058053269982 -0.7142857182770967 -0.7380952592939138
v 0.03649058053269982 -0.6190476007759571 -0.7380952592939138
v 0.03649058053269982 -0.5238095298409462 -0.7380952592939138
v 0.03649058053269982 -0.42857141233980656 -0.7380952592939138
v 0.03649058053269982 -0.33333334140479565 -0.7380952592939138
v 0.03649058053269982 -0.23809524718672037 -0.7380952592939138
v 0.03649058053269982 -0.1428571413271129 -0.7380952592939138
v 0.03649058053269982 -0.04761904710903764 -0.7380952592939138
v 0.03649058053269982 0.04761904710903764 -0.7380952592939138
v 0.03649058053269982 0.1428571413271129 -0.7380952592939138
v 0.03649058053269982 0.23809524718672037 -0.7380952592939138
v 0.03649058053269982 0.33333334140479565 -0.7380952592939138
v 0.03649058053269982 0.42857141233980656 -0.7380952592939138
v 0.03649058053269982 0.5238095298409462 -0.7380952592939138
v 0.03649058053269982 0.6190476007759571 -0.7380952592939138
v 0.03649058053269982 0.7142857182770967 -0.7380952592939138
v -0.13496604515239596 -0.9999999776482582 0.641791382804513
v -0.12863954761996865 -0.9999999776482582 0.541269825771451
v -0.12863954761996865 -0.9999999776482582 0.4428571555763483
v -0.12863954761996865 -0.9999999776482582 0.3444444388151169
v -0.12863954761996865 -0.9999999776482582 0.24603174533694983
v -0.12863954761996865 -0.9999999776482582 0.14761905185878277
v -0.12863954761996865 -0.9999999776482582 0.04920634673908353
v -0.12863954761996865 -0.9999999776482582 -0.04920634673908353
v -0.12863954761996865 -0.9999999776482582 -0.14761905185878277
v -0.12863954761996865 -0.9999999776482582 -0.24603174533694983
v -0.12863954761996865 -0.9999999776482582 -0.3444444388151169
v -0.12863954761996865 -0.9999999776482582 -0.4428571555763483
v -0.13496604515239596 -0.9999999776482582 -0.641791382804513
v -0.12863954761996865 -0.9999999776482582 -0.541269825771451
v -0.044988683657720685 -0.9999999776482582 -0.641791382804513
v 0.044988683657720685 -0.9999999776482582 -0.641791382804513
v 0.13496604515239596 -0.9999999776482582 -0.641791382804513
v 0.13496604515239596 -0.9999999776482582 0.641791382804513
v 0.12863954761996865 -0.9999999776482582 0.541269825771451
v 0.12863954761996865 -0.9999999776482582 0.4428571555763483
v 0.12863954761996865 -0.9999999776482582 0.3444444388151169
v 0.12863954761996865 -0.9999999776482582 0.24603174533694983
v 0.12863954761996865 -0.9999999776482582 0.14761905185878277
v 0.12863954761996865 -0.9999999776482582 0.04920634673908353
v 0.12863954761996865 -0.9999999776482582 -0.04920634673908353
v 0.12863954761996865 -0.9999999776482582 -0.14761905185878277
v 0.12863954761996865 -0.9999999776482582 -0.24603174533694983
v 0.12863954761996865 -0.9999999776482582 -0.3444444388151169
v 0.12863954761996865 -0.9999999776482582 -0.4428571555763483
v 0.12863954761996865 -0.9999999776482582 -0.541269825771451
v -0.044988683657720685 -0.9999999776482582 0.641791382804513
v 0.044988683657720685 -0.9999999776482582 0.641791382804513
v -0.044988683657720685 -0.9999999776482582 0.5454875063151121
v -0.03233568277209997 -0.9999999776482582 0.4428571555763483
v -0.03233568277209997 -0.9999999776482582 0.3444444388151169
v -0.03233568277209997 -0.9999999776482582 0.24603174533694983
v -0.03233568277209997 -0.9999999776482582 0.14761905185878277
v -0.03233568277209997 -0.9999999776482582 0.04920634673908353
v -0.03233568277209997 -0.9999999776482582 -0.04920634673908353
v -0.03233568277209997 -0.9999999776482582 -0.14761905185878277
v -0.03233568277209997 -0.9999999776482582 -0.24603174533694983
v -0.03233568277209997 -0.9999999776482582 -0.3444444388151169
v -0.044988683657720685 -0.9999999776482582 -0.5454875063151121
v -0.03233568277209997 -0.9999999776482582 -0.4428571555763483
v 0.044988683657720685 -0.9999999776482582 -0.5454875063151121
v 0.044988683657720685 -0.9999999776482582 0.5454875063151121
v 0.044988683657720685 -0.9999999776482582 0.44918362982571125
v 0.044988683657720685 -0.9999999776482582 0.35287977661937475
v 0.044988683657720685 -0.9999999776482582 0.25657592341303825
v 0.044988683657720685 -0.9999999776482582 0.1602720469236374
v 0.044988683657720685 -0.9999999776482582 0.06396818207576871
v 0.044988683657720685 -0.9999999776482582 -0.06396818207576871
v 0.044988683657720685 -0.9999999776482582 -0.1602720469236374
v 0.044988683657720685 -0.9999999776482582 -0.25657592341303825
v 0.044988683657720685 -0.9999999776482582 -0.35287977661937475
v 0.044988683657720685 -0.9999999776482582 -0.44918362982571125
v 0.22494341246783733 -0.9047619067132473 0.6414155475795269
v 0.22494341246783733 -0.9033203125 0.541269825771451
v 0.22494341246783733 -0.9033203125 0.4428571555763483
v 0.22494341246783733 -0.9033203125 0.3444444388151169
v 0.22494341246783733 -0.9033203125 0.24603174533694983
v 0.22494341246783733 -0.9033203125 0.14761905185878277
v 0.22494341246783733 -0.9033203125 0.04920634673908353
v 0.22494341246783733 -0.9033203125 -0.04920634673908353
v 0.22494341246783733 -0.9033203125 -0.14761905185878277
v 0.22494341246783733 -0.9033203125 -0.24603174533694983
v 0.22494341246783733 -0.9033203125 -0.3444444388151169
v 0.22494341246783733 -0.9033203125 -0.4428571555763483
v 0.22494341246783733 -0.9033203125 -0.541269825771451
v 0.22494341246783733 -0.9047619067132473 -0.6414155475795269
v 0.22494341246783733 -0.8095238357782364 -0.6414155475795269
v 0.22494341246783733 -0.7142857182770967 -0.6414155475795269
v 0.22494341246783733 -0.6190476007759571 -0.6414155475795269
v 0.22494341246783733 -0.5238095298409462 -0.6414155475795269
v 0.22494341246783733 -0.42857141233980656 -0.6414155475795269
v 0.22494341246783733 -0.33333334140479565 -0.6414155475795269
v 0.22494341246783733 -0.23809524718672037 -0.6414155475795269
v 0.22494341246783733 -0.1428571413271129 -0.6414155475795269
v 0.22494341246783733 -0.04761904710903764 -0.6414155475795269
v 0.22494341246783733 0.04761904710903764 -0.6414155475795269
v 0.22494341246783733 0.1428571413271129 -0.6414155475795269
v 0.22494341246783733 0.23809524718672037 -0.6414155475795269
v 0.22494341246783733 0.33333334140479565 -0.6414155475795269
v 0.22494341246783733 0.42857141233980656 -0.6414155475795269
v 0.22494341246783733 0.5238095298409462 -0.6414155475795269
v 0.22494341246783733 0.6190476007759571 -0.6414155475795269
v 0.22494341246783733 0.7142857182770967 -0.6414155475795269
v 0.22494341246783733 0.8095238357782364 -0.6414155475795269
v 0.22494341246783733 0.9047619067132473 -0.6414155475795269
v 0.22494341246783733 0.9033203125 -0.541269825771451
v 0.22494341246783733 0.9033203125 -0.4428571555763483
v 0.22494341246783733 0.9033203125 -0.3444444388151169
v 0.22494341246783733 0.9033203125 -0.24603174533694983
v 0.22494341246783733 0.9033203125 -0.14761905185878277
v 0.22494341246783733 0.9033203125 -0.04920634673908353
v 0.22494341246783733 0.9033203125 0.04920634673908353
v 0.22494341246783733 0.9033203125 0.14761905185878277
v 0.22494341246783733 0.9033203125 0.24603174533694983
v 0.22494341246783733 0.9033203125 0.3444444388151169
v 0.22494341246783733 0.9033203125 0.4428571555763483
v 0.22494341246783733 0.9033203125 0.541269825771451
v 0.22494341246783733 0.9047619067132473 0.6414155475795269
v 0.22494341246783733 0.8095238357782364 0.6414155475795269
v 0.22494341246783733 0.7142857182770967 0.6414155475795269
v 0.22494341246783733 0.6190476007759571 0.6414155475795269
v 0.22494341246783733 0.5238095298409462 0.6414155475795269
v 0.22494341246783733 0.42857141233980656 0.6414155475795269
v 0.22494341246783733 0.33333334140479565 0.6414155475795269
v 0.22494341246783733 0.23809524718672037 0.6414155475795269
v 0.22494341246783733 0.1428571413271129 0.6414155475795269
v 0.22494341246783733 0.04761904710903764 0.6414155475795269
v 0.22494341246783733 -0.04761904710903764 0.6414155475795269
v 0.22494341246783733 -0.1428571413271129 0.6414155475795269
v 0.22494341246783733 -0.23809524718672037 0.6414155475795269
v 0.22494341246783733 -0.33333334140479565 0.6414155475795269
v 0.22494341246783733 -0.42857141233980656 0.6414155475795269
v 0.22494341246783733 -0.5238095298409462 0.6414155475795269
v 0.22494341246783733 -0.6190476007759571 0.6414155475795269
v 0.22494341246783733 -0.7142857182770967 0.6414155475795269
v 0.22494341246783733 -0.8095238357782364 0.6414155475795269
v 0.22494341246783733 -0.3010634798556566 -0.005589700595010072
v 0.22494341246783733 -0.23809524718672037 0.1580171170644462
v 0.22494341246783733 -0.2732398919761181 0.09824932785704732
v 0.22494341246783733 -0.02502254501450807 0.27045123279094696
v 0.22494341246783733 -0.17220189329236746 0.2176051028072834
v 0.22494341246783733 0.04761904710903764 0.2546967938542366
v 0.22494341246783733 0.24821734987199306 0.1415896462276578
v 0.22494341246783733 0.12886157492175698 0.24262764491140842
v 0.22494341246783733 0.3010634798556566 -0.005589700595010072
v 0.22494341246783733 0.33333334140479565 0.061337422812357545
v 0.22494341246783733 0.2732398919761181 -0.15947382198646665
v 0.22494341246783733 0.17220189329236746 -0.27882957365363836
v 0.22494341246783733 0.23809524718672037 -0.2546967938542366
v 0.22494341246783733 0.02502254501450807 -0.3316757036373019
v 0.22494341246783733 -0.12886157492175698 -0.30385213904082775
v 0.22494341246783733 -0.04761904710903764 -0.3513764822855592
v 0.22494341246783733 -0.24821734987199306 -0.20281414035707712
v 0.22494341246783733 -0.8095238357782364 0.5447358824312687
v 0.22494341246783733 -0.8066406473517418 0.4428571555763483
v 0.22494341246783733 -0.8066406473517418 0.3444444388151169
v 0.22494341246783733 -0.8066406473517418 0.24603174533694983
v 0.22494341246783733 -0.8066406473517418 0.14761905185878277
v 0.22494341246783733 -0.8066406473517418 0.04920634673908353
v 0.22494341246783733 -0.8066406473517418 -0.04920634673908353
v 0.22494341246783733 -0.8066406473517418 -0.14761905185878277
v 0.22494341246783733 -0.8066406473517418 -0.24603174533694983
v 0.22494341246783733 -0.8066406473517418 -0.3444444388151169
v 0.22494341246783733 -0.8066406473517418 -0.4428571555763483
v 0.22494341246783733 -0.8095238357782364 -0.5447358824312687
v 0.22494341246783733 -0.7142857182770967 -0.5447358824312687
v 0.22494341246783733 -0.6190476007759571 -0.5447358824312687
v 0.22494341246783733 -0.5238095298409462 -0.5447358824312687
v 0.22494341246783733 -0.42857141233980656 -0.5447358824312687
v 0.22494341246783733 -0.33333334140479565 -0.5447358824312687
v 0.22494341246783733 -0.23809524718672037 -0.5447358824312687
v 0.22494341246783733 -0.1428571413271129 -0.5447358824312687
v 0.22494341246783733 -0.04761904710903764 -0.5447358824312687
v 0.22494341246783733 0.04761904710903764 -0.5447358824312687
v 0.22494341246783733 0.1428571413271129 -0.5447358824312687
v 0.22494341246783733 0.23809524718672037 -0.5447358824312687
v 0.22494341246783733 0.33333334140479565 -0.5447358824312687
v 0.22494341246783733 0.42857141233980656 -0.5447358824312687
v 0.22494341246783733 0.5238095298409462 -0.5447358824312687
v 0.22494341246783733 0.6190476007759571 -0.5447358824312687
v 0.22494341246783733 0.7142857182770967 -0.5447358824312687
v 0.22494341246783733 0.8095238357782364 -0.5447358824312687
v 0.22494341246783733 0.8066406473517418 -0.4428571555763483
v 0.22494341246783733 0.8066406473517418 -0.3444444388151169
v 0.22494341246783733 0.8066406473517418 -0.24603174533694983
v 0.22494341246783733 0.8066406473517418 -0.14761905185878277
v 0.22494341246783733 0.8066406473517418 -0.04920634673908353
v 0.22494341246783733 0.8066406473517418 0.04920634673908353
v 0.22494341246783733 0.8066406473517418 0.14761905185878277
v 0.22494341246783733 0.8066406473517418 0.24603174533694983
v 0.22494341246783733 0.8066406473517418 0.3444444388151169
v 0.22494341246783733 0.8066406473517418 0.4428571555763483
v 0.22494341246783733 0.8095238357782364 0.5447358824312687
v 0.22494341246783733 0.7142857182770967 0.5447358824312687
v 0.22494341246783733 0.6190476007759571 0.5447358824312687
v 0.22494341246783733 0.5238095298409462 0.5447358824312687
v 0.22494341246783733 0.42857141233980656 0.5447358824312687
v 0.22494341246783733 0.33333334140479565 0.5447358824312687
v 0.22494341246783733 0.23809524718672037 0.5447358824312687
v 0.22494341246783733 0.1428571413271129 0.5447358824312687
v 0.22494341246783733 0.04761904710903764 0.5447358824312687
v 0.22494341246783733 -0.04761904710903764 0.5447358824312687
v 0.22494341246783733 -0.1428571413271129 0.5447358824312687
v 0.22494341246783733 -0.23809524718672037 0.5447358824312687
v 0.22494341246783733 -0.33333334140479565 0.5447358824312687
v 0.22494341246783733 -0.42857141233980656 0.5447358824312687
v 0.22494341246783733 -0.5238095298409462 0.5447358824312687
v 0.22494341246783733 -0.6190476007759571 0.5447358824312687
v 0.22494341246783733 -0.7142857182770967 0.5447358824312687
v 0.22494341246783733 -0.33333334140479565 0.061337422812357545
v 0.22494341246783733 -0.39444887079298496 0.019432844419497997
v 0.22494341246783733 -0.39444887079298496 -0.08065733127295971
v 0.22494341246783733 -0.3666252829134464 -0.18449636409059167
v 0.22494341246783733 -0.24056476540863514 0.2859679516404867
v 0.22494341246783733 -0.3165801987051964 0.20995251834392548
v 0.22494341246783733 -0.3666252829134464 0.12327186996117234
v 0.22494341246783733 0.05004509002901614 0.3638366237282753
v 0.22494341246783733 -0.05004509002901614 0.3638366237282753
v 0.22494341246783733 -0.153884117025882 0.33601303584873676
v 0.22494341246783733 0.153884117025882 0.33601303584873676
v 0.22494341246783733 0.3666252829134464 0.12327186996117234
v 0.22494341246783733 0.3165801987051964 0.20995251834392548
v 0.22494341246783733 0.24056476540863514 0.2859679516404867
v 0.22494341246783733 0.39444887079298496 -0.08065733127295971
v 0.22494341246783733 0.39444887079298496 0.019432844419497997
v 0.22494341246783733 0.3165801987051964 -0.2711770124733448
v 0.22494341246783733 0.3666252829134464 -0.18449636409059167
v 0.22494341246783733 0.153884117025882 -0.3972375299781561
v 0.22494341246783733 0.24056476540863514 -0.34719244576990604
v 0.22494341246783733 0.05004509002901614 -0.4250611178576946
v 0.22494341246783733 -0.24056476540863514 -0.34719244576990604
v 0.22494341246783733 -0.153884117025882 -0.3972375299781561
v 0.22494341246783733 -0.05004509002901614 -0.4250611178576946
v 0.22494341246783733 -0.3165801987051964 -0.2711770124733448
v 0.22494341246783733 -0.7142857182770967 0.44805617071688175
v 0.22494341246783733 -0.7099609356373549 0.3444444388151169
v 0.22494341246783733 -0.7099609356373549 0.24603174533694983
v 0.22494341246783733 -0.7099609356373549 0.14761905185878277
v 0.22494341246783733 -0.7099609356373549 0.04920634673908353
v 0.22494341246783733 -0.7099609356373549 -0.04920634673908353
v 0.22494341246783733 -0.7099609356373549 -0.14761905185878277
v 0.22494341246783733 -0.7099609356373549 -0.24603174533694983
v 0.22494341246783733 -0.7099609356373549 -0.3444444388151169
v 0.22494341246783733 -0.7142857182770967 -0.44805617071688175
v 0.22494341246783733 -0.6190476007759571 -0.44805617071688175
v 0.22494341246783733 -0.5238095298409462 -0.44805617071688175
v 0.22494341246783733 -0.42857141233980656 -0.44805617071688175
v 0.22494341246783733 -0.33333334140479565 -0.44805617071688175
v 0.22494341246783733 -0.23809524718672037 -0.44805617071688175
v 0.22494341246783733 0.23809524718672037 -0.44805617071688175
v 0.22494341246783733 0.33333334140479565 -0.44805617071688175
v 0.22494341246783733 0.42857141233980656 -0.44805617071688175
v 0.22494341246783733 0.5238095298409462 -0.44805617071688175
v 0.22494341246783733 0.6190476007759571 -0.44805617071688175
v 0.22494341246783733 0.7142857182770967 -0.44805617071688175
v 0.22494341246783733 0.7099609356373549 -0.3444444388151169
v 0.22494341246783733 0.7099609356373549 -0.24603174533694983
v 0.22494341246783733 0.7099609356373549 -0.14761905185878277
v 0.22494341246783733 0.7099609356373549 -0.04920634673908353
v 0.22494341246783733 0.7099609356373549 0.04920634673908353
v 0.22494341246783733 0.7099609356373549 0.14761905185878277
v 0.22494341246783733 0.7099609356373549 0.24603174533694983
v 0.22494341246783733 0.7099609356373549 0.3444444388151169
v 0.22494341246783733 0.7142857182770967 0.44805617071688175
v 0.22494341246783733 0.6190476007759571 0.44805617071688175
v 0.22494341246783733 0.5238095298409462 0.44805617071688175
v 0.22494341246783733 0.42857141233980656 0.44805617071688175
v 0.22494341246783733 0.33333334140479565 0.44805617071688175
v 0.22494341246783733 0.23809524718672037 0.44805617071688175
v 0.22494341246783733 0.1428571413271129 0.44805617071688175
v 0.22494341246783733 0.04761904710903764 0.44805617071688175
v 0.22494341246783733 -0.04761904710903764 0.44805617071688175
v 0.22494341246783733 -0.1428571413271129 0.44805617071688175
v 0.22494341246783733 -0.23809524718672037 0.44805617071688175
v 0.22494341246783733 -0.33333334140479565 0.44805617071688175
v 0.22494341246783733 -0.42857141233980656 0.44805617071688175
v 0.22494341246783733 -0.5238095298409462 0.44805617071688175
v 0.22494341246783733 -0.6190476007759571 0.44805617071688175
v 0.22494341246783733 -0.4878342617303133 0.04445538797881454
v 0.22494341246783733 -0.5238095298409462 -0.035342262708581984
v 0.22494341246783733 -0.4878342617303133 -0.10567987337708473
v 0.22494341246783733 -0.4600107204169035 -0.20951891783624887
v 0.22494341246783733 -0.30892761424183846 0.3543308237567544
v 0.22494341246783733 -0.38494307082146406 0.2783153671771288
v 0.22494341246783733 -0.4600107204169035 0.14829442370682955
v 0.22494341246783733 0.30892761424183846 0.3543308237567544
v 0.22494341246783733 0.4600107204169035 0.14829442370682955
v 0.22494341246783733 0.38494307082146406 0.2783153671771288
v 0.22494341246783733 0.4600107204169035 -0.20951891783624887
v 0.22494341246783733 0.4878342617303133 -0.10567987337708473
v 0.22494341246783733 0.5238095298409462 -0.035342262708581984
v 0.22494341246783733 0.4878342617303133 0.04445538797881454
v 0.22494341246783733 0.38494307082146406 -0.3395398613065481
v 0.22494341246783733 -0.38494307082146406 -0.3395398613065481
v 0.22494341246783733 -0.6190476007759571 0.3513764822855592
v 0.22494341246783733 -0.6132812704890966 0.24603174533694983
v 0.22494341246783733 -0.6132812704890966 0.14761905185878277
v 0.22494341246783733 -0.6132812704890966 0.04920634673908353
v 0.22494341246783733 -0.6132812704890966 -0.04920634673908353
v 0.22494341246783733 -0.6132812704890966 -0.14761905185878277
v 0.22494341246783733 -0.6132812704890966 -0.24603174533694983
v 0.22494341246783733 -0.6190476007759571 -0.3513764822855592
v 0.22494341246783733 -0.5238095298409462 -0.3513764822855592
v 0.22494341246783733 0.5238095298409462 -0.3513764822855592
v 0.22494341246783733 0.6190476007759571 -0.3513764822855592
v 0.22494341246783733 0.6132812704890966 -0.24603174533694983
v 0.22494341246783733 0.6132812704890966 -0.14761905185878277
v 0.22494341246783733 0.6132812704890966 -0.04920634673908353
v 0.22494341246783733 0.6132812704890966 0.04920634673908353
v 0.22494341246783733 0.6132812704890966 0.14761905185878277
v 0.22494341246783733 0.6132812704890966 0.24603174533694983
v 0.22494341246783733 0.6190476007759571 0.3513764822855592
v 0.22494341246783733 0.5238095298409462 0.3513764822855592
v 0.22494341246783733 0.42857141233980656 0.3513764822855592
v 0.22494341246783733 -0.42857141233980656 0.3513764822855592
v 0.22494341246783733 -0.5238095298409462 0.3513764822855592
v 0.22494341246783733 -0.5238095298409462 -0.2546967938542366
v 0.22494341246783733 -0.5238095298409462 0.2546967938542366
v 0.22494341246783733 0.5238095298409462 0.2546967938542366
v 0.22494341246783733 0.5238095298409462 -0.2546967938542366
v -0.22494341246783733 -0.9047619067132473 0.6414155475795269
v -0.22494341246783733 -0.9033203125 0.541269825771451
v -0.22494341246783733 -0.9033203125 0.4428571555763483
v -0.22494341246783733 -0.9033203125 0.3444444388151169
v -0.22494341246783733 -0.9033203125 0.24603174533694983
v -0.22494341246783733 -0.9033203125 0.14761905185878277
v -0.22494341246783733 -0.9033203125 0.04920634673908353
v -0.22494341246783733 -0.9033203125 -0.04920634673908353
v -0.22494341246783733 -0.9033203125 -0.14761905185878277
v -0.22494341246783733 -0.9033203125 -0.24603174533694983
v -0.22494341246783733 -0.9033203125 -0.3444444388151169
v -0.22494341246783733 -0.9033203125 -0.4428571555763483
v -0.22494341246783733 -0.9033203125 -0.541269825771451
v -0.22494341246783733 -0.9047619067132473 -0.6414155475795269
v -0.22494341246783733 0.9047619067132473 0.6414155475795269
v -0.22494341246783733 0.8095238357782364 0.6414155475795269
v -0.22494341246783733 0.7142857182770967 0.6414155475795269
v -0.22494341246783733 0.6190476007759571 0.6414155475795269
v -0.22494341246783733 0.5238095298409462 0.6414155475795269
v -0.22494341246783733 0.42857141233980656 0.6414155475795269
v -0.22494341246783733 0.33333334140479565 0.6414155475795269
v -0.22494341246783733 0.23809524718672037 0.6414155475795269
v -0.22494341246783733 0.1428571413271129 0.6414155475795269
v -0.22494341246783733 0.04761904710903764 0.6414155475795269
v -0.22494341246783733 -0.04761904710903764 0.6414155475795269
v -0.22494341246783733 -0.1428571413271129 0.6414155475795269
v -0.22494341246783733 -0.23809524718672037 0.6414155475795269
v -0.22494341246783733 -0.33333334140479565 0.6414155475795269
v -0.22494341246783733 -0.42857141233980656 0.6414155475795269
v -0.22494341246783733 -0.5238095298409462 0.6414155475795269
v -0.22494341246783733 -0.6190476007759571 0.6414155475795269
v -0.22494341246783733 -0.7142857182770967 0.6414155475795269
v -0.22494341246783733 -0.8095238357782364 0.6414155475795269
v -0.22494341246783733 0.9047619067132473 -0.6414155475795269
v -0.22494341246783733 0.9033203125 -0.541269825771451
v -0.22494341246783733 0.9033203125 -0.4428571555763483
v -0.22494341246783733 0.9033203125 -0.3444444388151169
v -0.22494341246783733 0.9033203125 -0.24603174533694983
v -0.22494341246783733 0.9033203125 -0.14761905185878277
v -0.22494341246783733 0.9033203125 -0.04920634673908353
v -0.22494341246783733 0.9033203125 0.04920634673908353
v -0.22494341246783733 0.9033203125 0.14761905185878277
v -0.22494341246783733 0.9033203125 0.24603174533694983
v -0.22494341246783733 0.9033203125 0.3444444388151169
v -0.22494341246783733 0.9033203125 0.4428571555763483
v -0.22494341246783733 0.9033203125 0.541269825771451
v -0.22494341246783733 -0.8095238357782364 -0.6414155475795269
v -0.22494341246783733 -0.7142857182770967 -0.6414155475795269
v -0.22494341246783733 -0.6190476007759571 -0.6414155475795269
v -0.22494341246783733 -0.5238095298409462 -0.6414155475795269
v -0.22494341246783733 -0.42857141233980656 -0.6414155475795269
v -0.22494341246783733 -0.33333334140479565 -0.6414155475795269
v -0.22494341246783733 -0.23809524718672037 -0.6414155475795269
v -0.22494341246783733 -0.1428571413271129 -0.6414155475795269
v -0.22494341246783733 -0.04761904710903764 -0.6414155475795269
v -0.22494341246783733 0.04761904710903764 -0.6414155475795269
v -0.22494341246783733 0.1428571413271129 -0.6414155475795269
v -0.22494341246783733 0.23809524718672037 -0.6414155475795269
v -0.22494341246783733 0.33333334140479565 -0.6414155475795269
v -0.22494341246783733 0.42857141233980656 -0.6414155475795269
v -0.22494341246783733 0.5238095298409462 -0.6414155475795269
v -0.22494341246783733 0.6190476007759571 -0.6414155475795269
v -0.22494341246783733 0.7142857182770967 -0.6414155475795269
v -0.22494341246783733 0.8095238357782364 -0.6414155475795269
v -0.22494341246783733 -0.3010634798556566 -0.005589700595010072
v -0.22494341246783733 -0.2732398919761181 -0.15947382198646665
v -0.22494341246783733 -0.23809524718672037 0.1580171170644462
v -0.22494341246783733 -0.2732398919761181 0.09824932785704732
v -0.22494341246783733 -0.02502254501450807 0.27045123279094696
v -0.22494341246783733 -0.17220189329236746 0.2176051028072834
v -0.22494341246783733 -0.02502254501450807 -0.3316757036373019
v -0.22494341246783733 0.04761904710903764 -0.3513764822855592
v -0.22494341246783733 0.12886157492175698 -0.30385213904082775
v -0.22494341246783733 -0.23809524718672037 -0.2546967938542366
v -0.22494341246783733 -0.12886157492175698 -0.30385213904082775
v -0.22494341246783733 0.3010634798556566 -0.055634789168834686
v -0.22494341246783733 0.33333334140479565 0.061337422812357545
v -0.22494341246783733 0.2732398919761181 0.09824932785704732
v -0.22494341246783733 0.23809524718672037 -0.2546967938542366
v -0.22494341246783733 0.2732398919761181 -0.15947382198646665
v -0.22494341246783733 0.04761904710903764 0.2546967938542366
v -0.22494341246783733 0.23809524718672037 0.1580171170644462
v -0.22494341246783733 0.12886157492175698 0.24262764491140842
v -0.22494341246783733 -0.8095238357782364 0.5447358824312687
v -0.22494341246783733 -0.8066406473517418 0.4428571555763483
v -0.22494341246783733 -0.8066406473517418 0.3444444388151169
v -0.22494341246783733 -0.8066406473517418 0.24603174533694983
v -0.22494341246783733 -0.8066406473517418 0.14761905185878277
v -0.22494341246783733 -0.8066406473517418 0.04920634673908353
v -0.22494341246783733 -0.8066406473517418 -0.04920634673908353
v -0.22494341246783733 -0.8066406473517418 -0.14761905185878277
v -0.22494341246783733 -0.8066406473517418 -0.24603174533694983
v -0.22494341246783733 -0.8066406473517418 -0.3444444388151169
v -0.22494341246783733 -0.8066406473517418 -0.4428571555763483
v -0.22494341246783733 -0.8095238357782364 -0.5447358824312687
v -0.22494341246783733 0.8095238357782364 0.5447358824312687
v -0.22494341246783733 0.7142857182770967 0.5447358824312687
v -0.22494341246783733 0.6190476007759571 0.5447358824312687
v -0.22494341246783733 0.5238095298409462 0.5447358824312687
v -0.22494341246783733 0.42857141233980656 0.5447358824312687
v -0.22494341246783733 0.33333334140479565 0.5447358824312687
v -0.22494341246783733 0.23809524718672037 0.5447358824312687
v -0.22494341246783733 0.1428571413271129 0.5447358824312687
v -0.22494341246783733 0.04761904710903764 0.5447358824312687
v -0.22494341246783733 -0.04761904710903764 0.5447358824312687
v -0.22494341246783733 -0.1428571413271129 0.5447358824312687
v -0.22494341246783733 -0.23809524718672037 0.5447358824312687
v -0.22494341246783733 -0.33333334140479565 0.5447358824312687
v -0.22494341246783733 -0.42857141233980656 0.5447358824312687
v -0.22494341246783733 -0.5238095298409462 0.5447358824312687
v -0.22494341246783733 -0.6190476007759571 0.5447358824312687
v -0.22494341246783733 -0.7142857182770967 0.5447358824312687
v -0.22494341246783733 0.8095238357782364 -0.5447358824312687
v -0.22494341246783733 0.8066406473517418 -0.4428571555763483
v -0.22494341246783733 0.8066406473517418 -0.3444444388151169
v -0.22494341246783733 0.8066406473517418 -0.24603174533694983
v -0.22494341246783733 0.8066406473517418 -0.14761905185878277
v -0.22494341246783733 0.8066406473517418 -0.04920634673908353
v -0.22494341246783733 0.8066406473517418 0.04920634673908353
v -0.22494341246783733 0.8066406473517418 0.14761905185878277
v -0.22494341246783733 0.8066406473517418 0.24603174533694983
v -0.22494341246783733 0.8066406473517418 0.3444444388151169
v -0.22494341246783733 0.8066406473517418 0.4428571555763483
v -0.22494341246783733 -0.7142857182770967 -0.5447358824312687
v -0.22494341246783733 -0.6190476007759571 -0.5447358824312687
v -0.22494341246783733 -0.5238095298409462 -0.5447358824312687
v -0.22494341246783733 -0.42857141233980656 -0.5447358824312687
v -0.22494341246783733 -0.33333334140479565 -0.5447358824312687
v -0.22494341246783733 -0.23809524718672037 -0.5447358824312687
v -0.22494341246783733 -0.1428571413271129 -0.5447358824312687
v -0.22494341246783733 -0.04761904710903764 -0.5447358824312687
v -0.22494341246783733 0.04761904710903764 -0.5447358824312687
v -0.22494341246783733 0.1428571413271129 -0.5447358824312687
v -0.22494341246783733 0.23809524718672037 -0.5447358824312687
v -0.22494341246783733 0.33333334140479565 -0.5447358824312687
v -0.22494341246783733 0.42857141233980656 -0.5447358824312687
v -0.22494341246783733 0.5238095298409462 -0.5447358824312687
v -0.22494341246783733 0.6190476007759571 -0.5447358824312687
v -0.22494341246783733 0.7142857182770967 -0.5447358824312687
v -0.22494341246783733 -0.33333334140479565 0.061337422812357545
v -0.22494341246783733 -0.39444887079298496 0.019432844419497997
v -0.22494341246783733 -0.39444887079298496 -0.08065733127295971
v -0.22494341246783733 -0.3666252829134464 -0.18449636409059167
v -0.22494341246783733 -0.3165801987051964 -0.2711770124733448
v -0.22494341246783733 -0.24056476540863514 0.2859679516404867
v -0.22494341246783733 -0.3165801987051964 0.20995251834392548
v -0.22494341246783733 -0.3666252829134464 0.12327186996117234
v -0.22494341246783733 0.05004509002901614 0.3638366237282753
v -0.22494341246783733 -0.05004509002901614 0.3638366237282753
v -0.22494341246783733 -0.153884117025882 0.33601303584873676
v -0.22494341246783733 -0.05004509002901614 -0.4250611178576946
v -0.22494341246783733 0.05004509002901614 -0.4250611178576946
v -0.22494341246783733 0.153884117025882 -0.3972375299781561
v -0.22494341246783733 0.24056476540863514 -0.34719244576990604
v -0.22494341246783733 -0.24056476540863514 -0.34719244576990604
v -0.22494341246783733 -0.153884117025882 -0.3972375299781561
v -0.22494341246783733 0.39444887079298496 -0.08065733127295971
v -0.22494341246783733 0.39444887079298496 0.019432844419497997
v -0.22494341246783733 0.3666252829134464 0.12327186996117234
v -0.22494341246783733 0.3165801987051964 0.20995251834392548
v -0.22494341246783733 0.3165801987051964 -0.2711770124733448
v -0.22494341246783733 0.3666252829134464 -0.18449636409059167
v -0.22494341246783733 0.153884117025882 0.33601303584873676
v -0.22494341246783733 0.24056476540863514 0.2859679516404867
v -0.22494341246783733 -0.7142857182770967 0.44805617071688175
v -0.22494341246783733 -0.7099609356373549 0.3444444388151169
v -0.22494341246783733 -0.7099609356373549 0.24603174533694983
v -0.22494341246783733 -0.7099609356373549 0.14761905185878277
v -0.22494341246783733 -0.7099609356373549 0.04920634673908353
v -0.22494341246783733 -0.7099609356373549 -0.04920634673908353
v -0.22494341246783733 -0.7099609356373549 -0.14761905185878277
v -0.22494341246783733 -0.7099609356373549 -0.24603174533694983
v -0.22494341246783733 -0.7099609356373549 -0.3444444388151169
v -0.22494341246783733 -0.7142857182770967 -0.44805617071688175
v -0.22494341246783733 0.7142857182770967 0.44805617071688175
v -0.22494341246783733 0.6190476007759571 0.44805617071688175
v -0.22494341246783733 0.5238095298409462 0.44805617071688175
v -0.22494341246783733 0.42857141233980656 0.44805617071688175
v -0.22494341246783733 0.33333334140479565 0.44805617071688175
v -0.22494341246783733 0.23809524718672037 0.44805617071688175
v -0.22494341246783733 0.1428571413271129 0.44805617071688175
v -0.22494341246783733 0.04761904710903764 0.44805617071688175
v -0.22494341246783733 -0.04761904710903764 0.44805617071688175
v -0.22494341246783733 -0.1428571413271129 0.44805617071688175
v -0.22494341246783733 -0.23809524718672037 0.44805617071688175
v -0.22494341246783733 -0.33333334140479565 0.44805617071688175
v -0.22494341246783733 -0.42857141233980656 0.44805617071688175
v -0.22494341246783733 -0.5238095298409462 0.44805617071688175
v -0.22494341246783733 -0.6190476007759571 0.44805617071688175
v -0.22494341246783733 0.7142857182770967 -0.44805617071688175
v -0.22494341246783733 0.7099609356373549 -0.3444444388151169
v -0.22494341246783733 0.7099609356373549 -0.24603174533694983
v -0.22494341246783733 0.7099609356373549 -0.14761905185878277
v -0.22494341246783733 0.7099609356373549 -0.04920634673908353
v -0.22494341246783733 0.7099609356373549 0.04920634673908353
v -0.22494341246783733 0.7099609356373549 0.14761905185878277
v -0.22494341246783733 0.7099609356373549 0.24603174533694983
v -0.22494341246783733 0.7099609356373549 0.3444444388151169
v -0.22494341246783733 -0.6190476007759571 -0.44805617071688175
v -0.22494341246783733 -0.5238095298409462 -0.44805617071688175
v -0.22494341246783733 -0.42857141233980656 -0.44805617071688175
v -0.22494341246783733 -0.33333334140479565 -0.44805617071688175
v -0.22494341246783733 -0.23809524718672037 -0.44805617071688175
v -0.22494341246783733 0.23809524718672037 -0.44805617071688175
v -0.22494341246783733 0.33333334140479565 -0.44805617071688175
v -0.22494341246783733 0.42857141233980656 -0.44805617071688175
v -0.22494341246783733 0.5238095298409462 -0.44805617071688175
v -0.22494341246783733 0.6190476007759571 -0.44805617071688175
v -0.22494341246783733 -0.4878342617303133 0.04445538797881454
v -0.22494341246783733 -0.5238095298409462 -0.035342262708581984
v -0.22494341246783733 -0.4878342617303133 -0.10567987337708473
v -0.22494341246783733 -0.4600107204169035 -0.20951891783624887
v -0.22494341246783733 -0.38494307082146406 -0.3395398613065481
v -0.22494341246783733 -0.30892761424183846 0.3543308237567544
v -0.22494341246783733 -0.38494307082146406 0.2783153671771288
v -0.22494341246783733 -0.4600107204169035 0.14829442370682955
v -0.22494341246783733 0.38494307082146406 -0.3395398613065481
v -0.22494341246783733 0.4600107204169035 -0.20951891783624887
v -0.22494341246783733 0.4878342617303133 -0.10567987337708473
v -0.22494341246783733 0.5238095298409462 -0.035342262708581984
v -0.22494341246783733 0.4878342617303133 0.04445538797881454
v -0.22494341246783733 0.4600107204169035 0.14829442370682955
v -0.22494341246783733 0.38494307082146406 0.2783153671771288
v -0.22494341246783733 0.30892761424183846 0.3543308237567544
v -0.22494341246783733 -0.6190476007759571 0.3513764822855592
v -0.22494341246783733 -0.6132812704890966 0.24603174533694983
v -0.22494341246783733 -0.6132812704890966 0.14761905185878277
v -0.22494341246783733 -0.6132812704890966 0.04920634673908353
v -0.22494341246783733 -0.6132812704890966 -0.04920634673908353
v -0.22494341246783733 -0.6132812704890966 -0.14761905185878277
v -0.22494341246783733 -0.6132812704890966 -0.24603174533694983
v -0.22494341246783733 -0.6190476007759571 -0.3513764822855592
v -0.22494341246783733 0.6190476007759571 0.3513764822855592
v -0.22494341246783733 0.5238095298409462 0.3513764822855592
v -0.22494341246783733 0.42857141233980656 0.3513764822855592
v -0.22494341246783733 -0.42857141233980656 0.3513764822855592
v -0.22494341246783733 -0.5238095298409462 0.3513764822855592
v -0.22494341246783733 0.6190476007759571 -0.3513764822855592
v -0.22494341246783733 0.6132812704890966 -0.24603174533694983
v -0.22494341246783733 0.6132812704890966 -0.14761905185878277
v -0.22494341246783733 0.6132812704890966 -0.04920634673908353
v -0.22494341246783733 0.6132812704890966 0.04920634673908353
v -0.22494341246783733 0.6132812704890966 0.14761905185878277
v -0.22494341246783733 0.6132812704890966 0.24603174533694983
v -0.22494341246783733 -0.5238095298409462 -0.3513764822855592
v -0.22494341246783733 0.5238095298409462 -0.3513764822855592
v -0.22494341246783733 -0.5238095298409462 -0.2546967938542366
v -0.22494341246783733 -0.5238095298409462 0.2546967938542366
v -0.22494341246783733 0.5238095298409462 -0.2546967938542366
v -0.22494341246783733 0.5238095298409462 0.2546967938542366
f 17 2 193 
f 18 17 193 
f 19 18 194 
f 20 19 195 
f 1 20 196 
f 21 3 197 
f 22 21 197 
f 2 22 193 
f 23 4 198 
f 24 23 199 
f 3 24 200 
f 4 25 198 
f 25 26 198 
f 26 27 201 
f 27 28 202 
f 28 5 203 
f 5 29 203 
f 29 30 204 
f 30 6 204 
f 6 31 205 
f 31 32 206 
f 32 1 196 
f 18 193 194 
f 19 194 195 
f 20 195 196 
f 197 3 200 
f 22 197 193 
f 23 198 199 
f 24 199 200 
f 198 26 201 
f 201 27 202 
f 202 28 203 
f 203 29 204 
f 204 6 205 
f 205 31 206 
f 206 32 196 
f 194 193 207 
f 195 194 207 
f 196 195 208 
f 197 200 209 
f 193 197 207 
f 199 198 210 
f 200 199 209 
f 198 201 210 
f 201 202 210 
f 202 203 211 
f 203 204 211 
f 204 205 212 
f 205 206 213 
f 206 196 208 
f 195 207 208 
f 197 209 207 
f 199 210 209 
f 210 202 211 
f 211 204 212 
f 212 205 213 
f 213 206 208 
f 208 207 213 
f 207 209 213 
f 209 210 212 
f 210 211 212 
f 212 213 209 
f 2 17 214 
f 17 18 214 
f 18 19 215 
f 19 20 216 
f 20 1 217 
f 1 33 217 
f 33 34 218 
f 34 7 218 
f 7 35 219 
f 35 36 220 
f 36 5 221 
f 25 4 222 
f 26 25 222 
f 27 26 223 
f 28 27 221 
f 5 28 221 
f 37 8 225 
f 38 37 225 
f 4 38 222 
f 39 2 214 
f 40 39 226 
f 8 40 227 
f 214 18 215 
f 215 19 216 
f 216 20 217 
f 217 33 218 
f 218 7 219 
f 219 35 220 
f 220 36 221 
f 26 222 223 
f 27 223 224 
f 221 27 224 
f 225 8 227 
f 38 225 222 
f 39 214 226 
f 40 226 227 
f 214 215 228 
f 215 216 228 
f 216 217 229 
f 217 218 229 
f 218 219 230 
f 219 220 230 
f 220 221 231 
f 223 222 232 
f 224 223 232 
f 221 224 231 
f 225 227 233 
f 222 225 232 
f 226 214 228 
f 227 226 234 
f 228 216 229 
f 229 218 230 
f 230 220 231 
f 224 232 231 
f 233 227 234 
f 225 233 232 
f 226 228 234 
f 228 229 234 
f 229 230 234 
f 230 231 233 
f 231 232 233 
f 233 234 230 
f 9 41 235 
f 41 42 235 
f 42 43 236 
f 43 44 237 
f 44 45 238 
f 45 46 239 
f 46 47 240 
f 47 48 241 
f 48 49 242 
f 49 50 243 
f 50 51 244 
f 51 52 245 
f 52 53 246 
f 53 54 247 
f 54 55 248 
f 55 56 249 
f 56 57 250 
f 57 58 251 
f 58 59 252 
f 59 60 253 
f 60 10 253 
f 10 61 253 
f 61 62 253 
f 62 63 255 
f 63 64 256 
f 64 11 257 
f 65 12 258 
f 66 65 258 
f 67 66 259 
f 68 67 260 
f 69 68 261 
f 70 69 262 
f 71 70 263 
f 72 71 264 
f 73 72 265 
f 74 73 266 
f 75 74 267 
f 76 75 268 
f 77 76 269 
f 78 77 270 
f 79 78 271 
f 80 79 272 
f 81 80 273 
f 82 81 274 
f 83 82 275 
f 84 83 257 
f 11 84 257 
f 85 9 235 
f 86 85 235 
f 87 86 277 
f 88 87 258 
f 12 88 258 
f 235 42 236 
f 236 43 237 
f 237 44 238 
f 238 45 239 
f 239 46 240 
f 240 47 241 
f 241 48 242 
f 242 49 243 
f 243 50 244 
f 244 51 245 
f 245 52 246 
f 246 53 247 
f 247 54 248 
f 248 55 249 
f 249 56 250 
f 250 57 251 
f 251 58 252 
f 252 59 254 
f 59 253 254 
f 253 62 255 
f 255 63 256 
f 256 64 257 
f 66 258 259 
f 67 259 260 
f 68 260 261 
f 69 261 262 
f 70 262 263 
f 71 263 264 
f 72 264 265 
f 73 265 266 
f 74 266 267 
f 75 267 268 
f 76 268 269 
f 77 269 270 
f 78 270 271 
f 79 271 272 
f 80 272 273 
f 81 273 274 
f 82 274 275 
f 83 275 276 
f 257 83 276 
f 86 235 277 
f 87 277 278 
f 258 87 278 
f 235 236 277 
f 236 237 279 
f 237 238 280 
f 238 239 281 
f 239 240 282 
f 240 241 283 
f 241 242 284 
f 242 243 285 
f 243 244 286 
f 244 245 287 
f 245 246 288 
f 246 247 289 
f 247 248 290 
f 248 249 291 
f 249 250 292 
f 250 251 293 
f 251 252 294 
f 252 254 295 
f 254 253 255 
f 255 256 295 
f 256 257 276 
f 259 258 278 
f 260 259 298 
f 261 260 299 
f 262 261 300 
f 263 262 301 
f 264 263 302 
f 265 264 303 
f 266 265 304 
f 267 266 305 
f 268 267 306 
f 269 268 307 
f 270 269 308 
f 271 270 309 
f 272 271 310 
f 273 272 311 
f 274 273 312 
f 275 274 313 
f 276 275 297 
f 278 277 279 
f 277 236 279 
f 279 237 280 
f 280 238 281 
f 281 239 282 
f 282 240 283 
f 283 241 284 
f 284 242 285 
f 285 243 286 
f 286 244 287 
f 287 245 288 
f 288 246 289 
f 289 247 290 
f 290 248 291 
f 291 249 292 
f 292 250 293 
f 293 251 294 
f 294 252 296 
f 295 254 255 
f 252 295 296 
f 295 256 297 
f 256 276 297 
f 259 278 298 
f 260 298 299 
f 261 299 300 
f 262 300 301 
f 263 301 302 
f 264 302 303 
f 265 303 304 
f 266 304 305 
f 267 305 306 
f 268 306 307 
f 269 307 308 
f 270 308 309 
f 271 309 310 
f 272 310 311 
f 273 311 312 
f 274 312 313 
f 275 313 314 
f 297 275 314 
f 278 279 298 
f 279 280 298 
f 280 281 299 
f 281 282 300 
f 282 283 301 
f 283 284 302 
f 284 285 303 
f 285 286 304 
f 286 287 305 
f 287 288 306 
f 288 289 307 
f 289 290 308 
f 290 291 309 
f 291 292 310 
f 292 293 311 
f 293 294 312 
f 294 296 313 
f 296 295 297 
f 299 298 280 
f 300 299 281 
f 301 300 282 
f 302 301 283 
f 303 302 284 
f 304 303 285 
f 305 304 286 
f 306 305 287 
f 307 306 288 
f 308 307 289 
f 309 308 290 
f 310 309 291 
f 311 310 292 
f 312 311 293 
f 313 312 294 
f 314 313 296 
f 297 314 296 
f 13 89 315 
f 89 90 315 
f 90 91 316 
f 91 92 317 
f 92 93 318 
f 93 94 319 
f 94 95 320 
f 95 96 321 
f 96 97 322 
f 97 98 323 
f 98 99 324 
f 99 100 325 
f 100 101 326 
f 101 102 327 
f 102 9 327 
f 9 85 327 
f 85 86 327 
f 86 87 329 
f 87 88 330 
f 88 12 331 
f 103 14 332 
f 104 103 332 
f 105 104 333 
f 106 105 334 
f 107 106 335 
f 108 107 336 
f 109 108 337 
f 110 109 338 
f 111 110 339 
f 112 111 340 
f 113 112 341 
f 114 113 342 
f 115 114 343 
f 116 115 331 
f 12 116 331 
f 117 13 315 
f 118 117 315 
f 119 118 345 
f 120 119 332 
f 14 120 332 
f 315 90 316 
f 316 91 317 
f 317 92 318 
f 318 93 319 
f 319 94 320 
f 320 95 321 
f 321 96 322 
f 322 97 323 
f 323 98 324 
f 324 99 325 
f 325 100 326 
f 326 101 328 
f 101 327 328 
f 327 86 329 
f 329 87 330 
f 330 88 331 
f 104 332 333 
f 105 333 334 
f 106 334 335 
f 107 335 336 
f 108 336 337 
f 109 337 338 
f 110 338 339 
f 111 339 340 
f 112 340 341 
f 113 341 342 
f 114 342 343 
f 115 343 344 
f 331 115 344 
f 118 315 345 
f 119 345 346 
f 332 119 346 
f 315 316 345 
f 316 317 347 
f 317 318 348 
f 318 319 349 
f 319 320 350 
f 320 321 351 
f 321 322 352 
f 322 323 353 
f 323 324 354 
f 324 325 355 
f 325 326 356 
f 326 328 357 
f 328 327 329 
f 329 330 357 
f 330 331 344 
f 333 332 346 
f 334 333 361 
f 335 334 362 
f 336 335 363 
f 337 336 364 
f 338 337 365 
f 339 338 365 
f 340 339 366 
f 341 340 367 
f 342 341 368 
f 343 342 369 
f 344 343 370 
f 346 345 347 
f 345 316 347 
f 347 317 348 
f 348 318 349 
f 349 319 350 
f 350 320 351 
f 351 321 352 
f 352 322 353 
f 353 323 354 
f 354 324 355 
f 355 325 356 
f 356 326 358 
f 357 328 329 
f 326 357 358 
f 357 330 359 
f 330 344 359 
f 333 346 360 
f 361 333 360 
f 334 361 362 
f 335 362 363 
f 336 363 364 
f 337 364 365 
f 339 365 366 
f 340 366 367 
f 341 367 368 
f 342 368 369 
f 343 369 370 
f 344 370 359 
f 346 347 360 
f 347 348 360 
f 348 349 362 
f 349 350 363 
f 350 351 364 
f 351 352 365 
f 352 353 365 
f 353 354 366 
f 354 355 367 
f 355 356 368 
f 356 358 369 
f 358 357 359 
f 361 360 348 
f 362 361 348 
f 363 362 349 
f 364 363 350 
f 365 364 351 
f 366 365 353 
f 367 366 354 
f 368 367 355 
f 369 368 356 
f 370 369 358 
f 359 370 358 
f 15 121 371 
f 121 122 371 
f 122 123 372 
f 123 124 373 
f 124 125 374 
f 125 126 375 
f 126 127 376 
f 127 128 377 
f 128 129 378 
f 129 130 379 
f 130 131 380 
f 131 132 381 
f 132 133 382 
f 133 134 383 
f 134 135 384 
f 135 136 385 
f 136 137 386 
f 137 138 387 
f 138 139 388 
f 139 140 389 
f 140 13 389 
f 13 117 389 
f 117 118 389 
f 118 119 391 
f 119 120 392 
f 120 14 393 
f 141 16 394 
f 142 141 394 
f 143 142 395 
f 144 143 396 
f 145 144 397 
f 146 145 398 
f 147 146 399 
f 148 147 400 
f 149 148 401 
f 150 149 402 
f 151 150 403 
f 152 151 404 
f 153 152 405 
f 154 153 406 
f 155 154 407 
f 156 155 408 
f 157 156 409 
f 158 157 410 
f 159 158 411 
f 160 159 393 
f 14 160 393 
f 161 15 371 
f 162 161 371 
f 163 162 413 
f 164 163 394 
f 16 164 394 
f 371 122 372 
f 372 123 373 
f 373 124 374 
f 374 125 375 
f 375 126 376 
f 376 127 377 
f 377 128 378 
f 378 129 379 
f 379 130 380 
f 380 131 381 
f 381 132 382 
f 382 133 383 
f 383 134 384 
f 384 135 385 
f 385 136 386 
f 386 137 387 
f 387 138 388 
f 388 139 390 
f 139 389 390 
f 389 118 391 
f 391 119 392 
f 392 120 393 
f 142 394 395 
f 143 395 396 
f 144 396 397 
f 145 397 398 
f 146 398 399 
f 147 399 400 
f 148 400 401 
f 149 401 402 
f 150 402 403 
f 151 403 404 
f 152 404 405 
f 153 405 406 
f 154 406 407 
f 155 407 408 
f 156 408 409 
f 157 409 410 
f 158 410 411 
f 159 411 412 
f 393 159 412 
f 162 371 413 
f 163 413 414 
f 394 163 414 
f 371 372 413 
f 372 373 415 
f 373 374 416 
f 374 375 417 
f 375 376 418 
f 376 377 419 
f 377 378 420 
f 378 379 421 
f 379 380 422 
f 380 381 423 
f 381 382 424 
f 382 383 425 
f 383 384 426 
f 384 385 427 
f 385 386 428 
f 386 387 429 
f 387 388 430 
f 388 390 431 
f 390 389 391 
f 391 392 431 
f 392 393 412 
f 395 394 414 
f 396 395 434 
f 397 396 435 
f 398 397 436 
f 399 398 437 
f 400 399 438 
f 401 400 439 
f 402 401 440 
f 403 402 441 
f 404 403 442 
f 405 404 443 
f 406 405 444 
f 407 406 445 
f 408 407 446 
f 409 408 447 
f 410 409 448 
f 411 410 449 
f 412 411 433 
f 414 413 415 
f 413 372 415 
f 415 373 416 
f 416 374 417 
f 417 375 418 
f 418 376 419 
f 419 377 420 
f 420 378 421 
f 421 379 422 
f 422 380 423 
f 423 381 424 
f 424 382 425 
f 425 383 426 
f 426 384 427 
f 427 385 428 
f 428 386 429 
f 429 387 430 
f 430 388 432 
f 431 390 391 
f 388 431 432 
f 431 392 433 
f 392 412 433 
f 395 414 434 
f 396 434 435 
f 397 435 436 
f 398 436 437 
f 399 437 438 
f 400 438 439 
f 401 439 440 
f 402 440 441 
f 403 441 442 
f 404 442 443 
f 405 443 444 
f 406 444 445 
f 407 445 446 
f 408 446 447 
f 409 447 448 
f 410 448 449 
f 411 449 450 
f 433 411 450 
f 414 415 434 
f 415 416 434 
f 416 417 435 
f 417 418 436 
f 418 419 437 
f 419 420 438 
f 420 421 439 
f 421 422 440 
f 422 423 441 
f 423 424 442 
f 424 425 443 
f 425 426 444 
f 426 427 445 
f 427 428 446 
f 428 429 447 
f 429 430 448 
f 430 432 449 
f 432 431 433 
f 435 434 416 
f 436 435 417 
f 437 436 418 
f 438 437 419 
f 439 438 420 
f 440 439 421 
f 441 440 422 
f 442 441 423 
f 443 442 424 
f 444 443 425 
f 445 444 426 
f 446 445 427 
f 447 446 428 
f 448 447 429 
f 449 448 430 
f 450 449 432 
f 433 450 432 
f 10 165 451 
f 165 166 451 
f 166 167 452 
f 167 168 453 
f 168 169 454 
f 169 170 455 
f 170 171 456 
f 171 172 457 
f 172 173 458 
f 173 174 459 
f 174 175 460 
f 175 176 461 
f 176 177 462 
f 177 178 463 
f 178 15 463 
f 15 161 463 
f 161 162 463 
f 162 163 465 
f 163 164 466 
f 164 16 467 
f 179 11 468 
f 180 179 468 
f 181 180 469 
f 182 181 470 
f 183 182 471 
f 184 183 472 
f 185 184 473 
f 186 185 474 
f 187 186 475 
f 188 187 476 
f 189 188 477 
f 190 189 478 
f 191 190 479 
f 192 191 467 
f 16 192 467 
f 61 10 451 
f 62 61 451 
f 63 62 481 
f 64 63 468 
f 11 64 468 
f 451 166 452 
f 452 167 453 
f 453 168 454 
f 454 169 455 
f 455 170 456 
f 456 171 457 
f 457 172 458 
f 458 173 459 
f 459 174 460 
f 460 175 461 
f 461 176 462 
f 462 177 464 
f 177 463 464 
f 463 162 465 
f 465 163 466 
f 466 164 467 
f 180 468 469 
f 181 469 470 
f 182 470 471 
f 183 471 472 
f 184 472 473 
f 185 473 474 
f 186 474 475 
f 187 475 476 
f 188 476 477 
f 189 477 478 
f 190 478 479 
f 191 479 480 
f 467 191 480 
f 62 451 481 
f 63 481 482 
f 468 63 482 
f 451 452 481 
f 452 453 483 
f 453 454 484 
f 454 455 485 
f 455 456 486 
f 456 457 487 
f 457 458 488 
f 458 459 489 
f 459 460 490 
f 460 461 491 
f 461 462 492 
f 462 464 493 
f 464 463 465 
f 465 466 493 
f 466 467 480 
f 469 468 482 
f 470 469 497 
f 471 470 498 
f 472 471 499 
f 473 472 500 
f 474 473 501 
f 475 474 501 
f 476 475 502 
f 477 476 503 
f 478 477 504 
f 479 478 505 
f 480 479 506 
f 482 481 483 
f 481 452 483 
f 483 453 484 
f 484 454 485 
f 485 455 486 
f 486 456 487 
f 487 457 488 
f 488 458 489 
f 489 459 490 
f 490 460 491 
f 491 461 492 
f 492 462 494 
f 493 464 465 
f 462 493 494 
f 493 466 495 
f 466 480 495 
f 469 482 496 
f 497 469 496 
f 470 497 498 
f 471 498 499 
f 472 499 500 
f 473 500 501 
f 475 501 502 
f 476 502 503 
f 477 503 504 
f 478 504 505 
f 479 505 506 
f 480 506 495 
f 482 483 496 
f 483 484 496 
f 484 485 498 
f 485 486 499 
f 486 487 500 
f 487 488 501 
f 488 489 501 
f 489 490 502 
f 490 491 503 
f 491 492 504 
f 492 494 505 
f 494 493 495 
f 497 496 484 
f 498 497 484 
f 499 498 485 
f 500 499 486 
f 501 500 487 
f 502 501 489 
f 503 502 490 
f 504 503 491 
f 505 504 492 
f 506 505 494 
f 495 506 494 
f 11 179 507 
f 179 180 508 
f 180 181 508 
f 181 182 509 
f 182 183 510 
f 183 184 511 
f 184 185 512 
f 185 186 513 
f 186 187 514 
f 187 188 515 
f 188 189 516 
f 189 190 517 
f 190 191 518 
f 191 192 519 
f 192 16 520 
f 16 141 520 
f 141 142 521 
f 142 143 521 
f 143 144 522 
f 144 145 523 
f 145 146 524 
f 146 147 525 
f 147 148 526 
f 148 149 527 
f 149 150 528 
f 150 151 529 
f 151 152 530 
f 152 153 531 
f 153 154 532 
f 154 155 533 
f 155 156 534 
f 156 157 535 
f 157 158 536 
f 158 159 537 
f 159 160 538 
f 160 14 539 
f 14 103 539 
f 103 104 540 
f 104 105 540 
f 105 106 541 
f 106 107 542 
f 107 108 543 
f 108 109 544 
f 109 110 545 
f 110 111 546 
f 111 112 547 
f 112 113 548 
f 113 114 549 
f 114 115 550 
f 115 116 551 
f 116 12 552 
f 12 65 552 
f 65 66 552 
f 66 67 553 
f 67 68 554 
f 68 69 555 
f 69 70 556 
f 70 71 557 
f 71 72 558 
f 72 73 559 
f 73 74 560 
f 74 75 561 
f 75 76 562 
f 76 77 563 
f 77 78 564 
f 78 79 565 
f 79 80 566 
f 80 81 567 
f 81 82 568 
f 82 83 569 
f 83 84 570 
f 84 11 507 
f 4 23 571 
f 23 24 572 
f 24 3 574 
f 3 21 576 
f 21 22 577 
f 22 2 579 
f 2 39 581 
f 39 40 582 
f 40 8 584 
f 8 37 585 
f 37 38 587 
f 38 4 571 
f 507 179 508 
f 508 181 509 
f 509 182 510 
f 510 183 511 
f 511 184 512 
f 512 185 513 
f 513 186 514 
f 514 187 515 
f 515 188 516 
f 516 189 517 
f 517 190 518 
f 518 191 519 
f 519 192 520 
f 520 141 521 
f 521 143 522 
f 522 144 523 
f 523 145 524 
f 524 146 525 
f 525 147 526 
f 526 148 527 
f 527 149 528 
f 528 150 529 
f 529 151 530 
f 530 152 531 
f 531 153 532 
f 532 154 533 
f 533 155 534 
f 534 156 535 
f 535 157 536 
f 536 158 537 
f 537 159 538 
f 538 160 539 
f 539 103 540 
f 540 105 541 
f 541 106 542 
f 542 107 543 
f 543 108 544 
f 544 109 545 
f 545 110 546 
f 546 111 547 
f 547 112 548 
f 548 113 549 
f 549 114 550 
f 550 115 551 
f 551 116 552 
f 552 66 553 
f 553 67 554 
f 554 68 555 
f 555 69 556 
f 556 70 557 
f 557 71 558 
f 558 72 559 
f 559 73 560 
f 560 74 561 
f 561 75 562 
f 562 76 563 
f 563 77 564 
f 564 78 565 
f 565 79 566 
f 566 80 567 
f 567 81 568 
f 568 82 569 
f 569 83 570 
f 570 84 507 
f 571 23 573 
f 572 24 575 
f 23 572 573 
f 574 3 576 
f 24 574 575 
f 576 21 578 
f 577 22 580 
f 21 577 578 
f 579 2 581 
f 22 579 580 
f 581 39 583 
f 582 40 584 
f 39 582 583 
f 584 8 586 
f 585 37 587 
f 8 585 586 
f 587 38 571 
f 507 508 588 
f 508 509 589 
f 509 510 589 
f 510 511 590 
f 511 512 591 
f 512 513 592 
f 513 514 593 
f 514 515 594 
f 515 516 595 
f 516 517 596 
f 517 518 597 
f 518 519 598 
f 519 520 599 
f 520 521 599 
f 521 522 599 
f 522 523 600 
f 523 524 601 
f 524 525 602 
f 525 526 603 
f 526 527 604 
f 527 528 605 
f 528 529 606 
f 529 530 607 
f 530 531 608 
f 531 532 609 
f 532 533 610 
f 533 534 611 
f 534 535 612 
f 535 536 613 
f 536 537 614 
f 537 538 615 
f 538 539 616 
f 539 540 616 
f 540 541 617 
f 541 542 617 
f 542 543 618 
f 543 544 619 
f 544 545 620 
f 545 546 621 
f 546 547 622 
f 547 548 623 
f 548 549 624 
f 549 550 625 
f 550 551 626 
f 551 552 627 
f 552 553 627 
f 553 554 627 
f 554 555 628 
f 555 556 629 
f 556 557 630 
f 557 558 631 
f 558 559 632 
f 559 560 633 
f 560 561 634 
f 561 562 635 
f 562 563 636 
f 563 564 637 
f 564 565 638 
f 565 566 639 
f 566 567 640 
f 567 568 641 
f 568 569 642 
f 569 570 643 
f 570 507 588 
f 571 573 644 
f 572 575 648 
f 573 572 649 
f 574 576 651 
f 575 574 653 
f 576 578 654 
f 577 580 655 
f 578 577 657 
f 579 581 658 
f 580 579 659 
f 581 583 660 
f 582 584 662 
f 583 582 663 
f 584 586 664 
f 585 587 665 
f 586 585 666 
f 587 571 647 
f 588 508 589 
f 589 510 590 
f 590 511 591 
f 591 512 592 
f 592 513 593 
f 593 514 594 
f 594 515 595 
f 595 516 596 
f 596 517 597 
f 597 518 598 
f 598 519 599 
f 599 522 600 
f 600 523 601 
f 601 524 602 
f 602 525 603 
f 603 526 604 
f 604 527 605 
f 605 528 606 
f 606 529 607 
f 607 530 608 
f 608 531 609 
f 609 532 610 
f 610 533 611 
f 611 534 612 
f 612 535 613 
f 613 536 614 
f 614 537 615 
f 615 538 616 
f 616 540 617 
f 617 542 618 
f 618 543 619 
f 619 544 620 
f 620 545 621 
f 621 546 622 
f 622 547 623 
f 623 548 624 
f 624 549 625 
f 625 550 626 
f 626 551 627 
f 627 554 628 
f 628 555 629 
f 629 556 630 
f 630 557 631 
f 631 558 632 
f 632 559 633 
f 633 560 634 
f 634 561 635 
f 635 562 636 
f 636 563 637 
f 637 564 638 
f 638 565 639 
f 639 566 640 
f 640 567 641 
f 641 568 642 
f 642 569 643 
f 643 570 588 
f 644 573 650 
f 571 644 645 
f 648 575 653 
f 572 648 649 
f 573 649 650 
f 651 576 654 
f 574 651 652 
f 653 574 652 
f 654 578 657 
f 655 580 659 
f 577 655 656 
f 657 577 656 
f 658 581 661 
f 579 658 659 
f 660 583 663 
f 581 660 661 
f 662 584 664 
f 582 662 663 
f 664 586 667 
f 665 587 668 
f 585 665 666 
f 586 666 667 
f 647 571 646 
f 587 647 668 
f 588 589 669 
f 589 590 670 
f 590 591 670 
f 591 592 671 
f 592 593 672 
f 593 594 673 
f 594 595 674 
f 595 596 675 
f 596 597 676 
f 597 598 677 
f 598 599 678 
f 599 600 678 
f 600 601 678 
f 601 602 679 
f 602 603 680 
f 603 604 681 
f 604 605 682 
f 605 606 683 
f 606 607 667 
f 607 608 667 
f 608 609 664 
f 609 610 684 
f 610 611 684 
f 611 612 685 
f 612 613 686 
f 613 614 687 
f 614 615 688 
f 615 616 689 
f 616 617 689 
f 617 618 690 
f 618 619 690 
f 619 620 691 
f 620 621 692 
f 621 622 693 
f 622 623 694 
f 623 624 695 
f 624 625 696 
f 625 626 697 
f 626 627 698 
f 627 628 698 
f 628 629 698 
f 629 630 699 
f 630 631 700 
f 631 632 701 
f 632 633 702 
f 633 634 703 
f 634 635 704 
f 635 636 705 
f 636 637 706 
f 637 638 707 
f 638 639 708 
f 639 640 709 
f 640 641 710 
f 641 642 711 
f 642 643 712 
f 643 588 669 
f 644 650 645 
f 571 645 646 
f 648 653 717 
f 649 648 717 
f 650 649 718 
f 651 654 704 
f 652 651 706 
f 653 652 707 
f 654 657 720 
f 655 659 721 
f 656 655 721 
f 657 656 722 
f 658 661 723 
f 659 658 725 
f 660 663 727 
f 661 660 727 
f 662 664 609 
f 663 662 684 
f 664 667 608 
f 665 668 728 
f 666 665 683 
f 667 666 606 
f 647 646 715 
f 668 647 716 
f 669 589 670 
f 670 591 671 
f 671 592 672 
f 672 593 673 
f 673 594 674 
f 674 595 675 
f 675 596 676 
f 676 597 677 
f 677 598 678 
f 678 601 679 
f 679 602 680 
f 680 603 681 
f 681 604 682 
f 682 605 683 
f 683 606 666 
f 609 684 662 
f 684 611 685 
f 685 612 686 
f 686 613 687 
f 687 614 688 
f 688 615 689 
f 689 617 690 
f 690 619 691 
f 691 620 692 
f 692 621 693 
f 693 622 694 
f 694 623 695 
f 695 624 696 
f 696 625 697 
f 697 626 698 
f 698 629 699 
f 699 630 700 
f 700 631 701 
f 701 632 702 
f 702 633 703 
f 703 634 704 
f 704 635 705 
f 705 636 706 
f 706 637 707 
f 707 638 708 
f 708 639 709 
f 709 640 710 
f 710 641 711 
f 711 642 712 
f 712 643 669 
f 645 650 713 
f 646 645 714 
f 717 653 708 
f 649 717 718 
f 650 718 719 
f 704 654 703 
f 651 704 705 
f 706 651 705 
f 652 706 707 
f 653 707 708 
f 720 657 722 
f 654 720 703 
f 721 659 726 
f 656 721 722 
f 723 661 727 
f 658 723 724 
f 725 658 724 
f 659 725 726 
f 727 663 685 
f 663 684 685 
f 728 668 716 
f 665 728 682 
f 683 665 682 
f 715 646 714 
f 647 715 716 
f 669 670 729 
f 670 671 730 
f 671 672 730 
f 672 673 731 
f 673 674 732 
f 674 675 733 
f 675 676 734 
f 676 677 735 
f 677 678 736 
f 678 679 736 
f 679 680 736 
f 680 681 737 
f 681 682 728 
f 685 686 727 
f 686 687 738 
f 687 688 738 
f 688 689 739 
f 689 690 739 
f 690 691 740 
f 691 692 740 
f 692 693 741 
f 693 694 742 
f 694 695 743 
f 695 696 744 
f 696 697 745 
f 697 698 746 
f 698 699 746 
f 699 700 746 
f 700 701 747 
f 701 702 748 
f 702 703 720 
f 708 709 717 
f 709 710 749 
f 710 711 749 
f 711 712 750 
f 712 669 729 
f 713 650 719 
f 645 713 714 
f 718 717 749 
f 719 718 752 
f 720 722 748 
f 721 726 744 
f 722 721 753 
f 723 727 754 
f 724 723 754 
f 725 724 742 
f 726 725 743 
f 728 716 751 
f 715 714 733 
f 716 715 751 
f 729 670 730 
f 730 672 731 
f 731 673 732 
f 732 674 733 
f 733 675 734 
f 734 676 735 
f 735 677 736 
f 736 680 737 
f 737 681 728 
f 727 686 738 
f 738 688 739 
f 739 690 740 
f 740 692 741 
f 741 693 742 
f 742 694 743 
f 743 695 744 
f 744 696 745 
f 745 697 746 
f 746 700 747 
f 747 701 748 
f 748 702 720 
f 717 709 749 
f 749 711 750 
f 750 712 729 
f 713 719 731 
f 714 713 732 
f 718 749 752 
f 719 752 731 
f 748 722 753 
f 744 726 743 
f 721 744 753 
f 754 727 738 
f 724 754 741 
f 742 724 741 
f 725 742 743 
f 728 751 737 
f 733 714 732 
f 715 733 734 
f 751 715 734 
f 729 730 752 
f 730 731 752 
f 731 732 713 
f 734 735 751 
f 735 736 751 
f 736 737 751 
f 738 739 754 
f 739 740 754 
f 740 741 754 
f 744 745 753 
f 745 746 753 
f 746 747 753 
f 747 748 753 
f 749 750 752 
f 750 729 752 
f 10 755 165 
f 165 756 166 
f 166 756 167 
f 167 757 168 
f 168 758 169 
f 169 759 170 
f 170 760 171 
f 171 761 172 
f 172 762 173 
f 173 763 174 
f 174 764 175 
f 175 765 176 
f 176 766 177 
f 177 767 178 
f 178 768 15 
f 9 769 41 
f 41 769 42 
f 42 770 43 
f 43 771 44 
f 44 772 45 
f 45 773 46 
f 46 774 47 
f 47 775 48 
f 48 776 49 
f 49 777 50 
f 50 778 51 
f 51 779 52 
f 52 780 53 
f 53 781 54 
f 54 782 55 
f 55 783 56 
f 56 784 57 
f 57 785 58 
f 58 786 59 
f 59 755 60 
f 60 755 10 
f 13 788 89 
f 89 789 90 
f 90 789 91 
f 91 790 92 
f 92 791 93 
f 93 792 94 
f 94 793 95 
f 95 794 96 
f 96 795 97 
f 97 796 98 
f 98 797 99 
f 99 798 100 
f 100 799 101 
f 101 800 102 
f 102 769 9 
f 15 768 121 
f 121 801 122 
f 122 801 123 
f 123 802 124 
f 124 803 125 
f 125 804 126 
f 126 805 127 
f 127 806 128 
f 128 807 129 
f 129 808 130 
f 130 809 131 
f 131 810 132 
f 132 811 133 
f 133 812 134 
f 134 813 135 
f 135 814 136 
f 136 815 137 
f 137 816 138 
f 138 817 139 
f 139 788 140 
f 140 788 13 
f 5 819 29 
f 29 821 30 
f 30 823 6 
f 7 825 35 
f 35 828 36 
f 36 820 5 
f 1 830 33 
f 33 833 34 
f 34 827 7 
f 6 835 31 
f 31 836 32 
f 32 832 1 
f 755 756 165 
f 756 757 167 
f 757 758 168 
f 758 759 169 
f 759 760 170 
f 760 761 171 
f 761 762 172 
f 762 763 173 
f 763 764 174 
f 764 765 175 
f 765 766 176 
f 766 767 177 
f 767 768 178 
f 769 770 42 
f 770 771 43 
f 771 772 44 
f 772 773 45 
f 773 774 46 
f 774 775 47 
f 775 776 48 
f 776 777 49 
f 777 778 50 
f 778 779 51 
f 779 780 52 
f 780 781 53 
f 781 782 54 
f 782 783 55 
f 783 784 56 
f 784 785 57 
f 785 786 58 
f 786 787 59 
f 59 787 755 
f 788 789 89 
f 789 790 91 
f 790 791 92 
f 791 792 93 
f 792 793 94 
f 793 794 95 
f 794 795 96 
f 795 796 97 
f 796 797 98 
f 797 798 99 
f 798 799 100 
f 799 800 101 
f 800 769 102 
f 768 801 121 
f 801 802 123 
f 802 803 124 
f 803 804 125 
f 804 805 126 
f 805 806 127 
f 806 807 128 
f 807 808 129 
f 808 809 130 
f 809 810 131 
f 810 811 132 
f 811 812 133 
f 812 813 134 
f 813 814 135 
f 814 815 136 
f 815 816 137 
f 816 817 138 
f 817 818 139 
f 139 818 788 
f 819 822 29 
f 5 820 819 
f 821 824 30 
f 29 822 821 
f 823 835 6 
f 30 824 823 
f 825 829 35 
f 7 826 825 
f 828 820 36 
f 35 829 828 
f 830 834 33 
f 1 831 830 
f 833 827 34 
f 33 834 833 
f 827 826 7 
f 835 837 31 
f 836 832 32 
f 31 837 836 
f 832 831 1 
f 755 838 756 
f 756 839 757 
f 757 839 758 
f 758 840 759 
f 759 841 760 
f 760 842 761 
f 761 843 762 
f 762 844 763 
f 763 845 764 
f 764 846 765 
f 765 847 766 
f 766 848 767 
f 767 849 768 
f 769 850 770 
f 770 850 771 
f 771 851 772 
f 772 852 773 
f 773 853 774 
f 774 854 775 
f 775 855 776 
f 776 856 777 
f 777 857 778 
f 778 858 779 
f 779 859 780 
f 780 860 781 
f 781 861 782 
f 782 862 783 
f 783 863 784 
f 784 864 785 
f 785 865 786 
f 786 866 787 
f 787 838 755 
f 788 867 789 
f 789 868 790 
f 790 868 791 
f 791 869 792 
f 792 870 793 
f 793 871 794 
f 794 872 795 
f 795 873 796 
f 796 874 797 
f 797 875 798 
f 798 876 799 
f 799 877 800 
f 800 850 769 
f 768 849 801 
f 801 849 802 
f 802 878 803 
f 803 879 804 
f 804 880 805 
f 805 881 806 
f 806 882 807 
f 807 883 808 
f 808 884 809 
f 809 885 810 
f 810 886 811 
f 811 887 812 
f 812 888 813 
f 813 889 814 
f 814 890 815 
f 815 891 816 
f 816 892 817 
f 817 893 818 
f 818 867 788 
f 819 894 822 
f 820 896 819 
f 821 899 824 
f 822 900 821 
f 823 902 835 
f 824 904 823 
f 825 905 829 
f 826 905 825 
f 828 898 820 
f 829 909 828 
f 830 911 834 
f 831 912 830 
f 833 908 827 
f 834 915 833 
f 827 907 826 
f 835 917 837 
f 836 914 832 
f 837 918 836 
f 832 913 831 
f 838 839 756 
f 839 840 758 
f 840 841 759 
f 841 842 760 
f 842 843 761 
f 843 844 762 
f 844 845 763 
f 845 846 764 
f 846 847 765 
f 847 848 766 
f 848 849 767 
f 850 851 771 
f 851 852 772 
f 852 853 773 
f 853 854 774 
f 854 855 775 
f 855 856 776 
f 856 857 777 
f 857 858 778 
f 858 859 779 
f 859 860 780 
f 860 861 781 
f 861 862 782 
f 862 863 783 
f 863 864 784 
f 864 865 785 
f 865 866 786 
f 866 838 787 
f 867 868 789 
f 868 869 791 
f 869 870 792 
f 870 871 793 
f 871 872 794 
f 872 873 795 
f 873 874 796 
f 874 875 797 
f 875 876 798 
f 876 877 799 
f 877 850 800 
f 849 878 802 
f 878 879 803 
f 879 880 804 
f 880 881 805 
f 881 882 806 
f 882 883 807 
f 883 884 808 
f 884 885 809 
f 885 886 810 
f 886 887 811 
f 887 888 812 
f 888 889 813 
f 889 890 814 
f 890 891 815 
f 891 892 816 
f 892 893 817 
f 893 867 818 
f 894 901 822 
f 819 895 894 
f 896 895 819 
f 820 897 896 
f 899 904 824 
f 821 900 899 
f 822 901 900 
f 902 917 835 
f 823 903 902 
f 904 903 823 
f 905 910 829 
f 826 906 905 
f 898 897 820 
f 828 909 898 
f 829 910 909 
f 911 916 834 
f 830 912 911 
f 831 913 912 
f 908 907 827 
f 833 915 908 
f 834 916 915 
f 907 906 826 
f 917 918 837 
f 914 913 832 
f 836 918 914 
f 838 919 839 
f 839 920 840 
f 840 920 841 
f 841 921 842 
f 842 922 843 
f 843 923 844 
f 844 924 845 
f 845 925 846 
f 846 926 847 
f 847 927 848 
f 848 928 849 
f 850 929 851 
f 851 929 852 
f 852 930 853 
f 853 931 854 
f 854 932 855 
f 855 933 856 
f 856 934 857 
f 857 935 858 
f 858 936 859 
f 859 937 860 
f 860 938 861 
f 861 939 862 
f 862 940 863 
f 863 941 864 
f 864 942 865 
f 865 943 866 
f 866 919 838 
f 867 944 868 
f 868 945 869 
f 869 945 870 
f 870 946 871 
f 871 947 872 
f 872 948 873 
f 873 949 874 
f 874 950 875 
f 875 951 876 
f 876 952 877 
f 877 929 850 
f 849 928 878 
f 878 928 879 
f 879 953 880 
f 880 954 881 
f 881 955 882 
f 882 956 883 
f 883 957 884 
f 884 905 885 
f 885 905 886 
f 886 906 887 
f 887 958 888 
f 888 958 889 
f 889 959 890 
f 890 960 891 
f 891 961 892 
f 892 962 893 
f 893 944 867 
f 894 895 901 
f 896 964 895 
f 897 965 896 
f 899 968 904 
f 900 968 899 
f 901 969 900 
f 902 935 917 
f 903 937 902 
f 904 938 903 
f 905 884 910 
f 906 886 905 
f 898 966 897 
f 909 967 898 
f 910 957 909 
f 911 972 916 
f 912 974 911 
f 913 976 912 
f 908 958 907 
f 915 971 908 
f 916 971 915 
f 907 887 906 
f 917 978 918 
f 914 976 913 
f 918 977 914 
f 919 920 839 
f 920 921 841 
f 921 922 842 
f 922 923 843 
f 923 924 844 
f 924 925 845 
f 925 926 846 
f 926 927 847 
f 927 928 848 
f 929 930 852 
f 930 931 853 
f 931 932 854 
f 932 933 855 
f 933 934 856 
f 934 935 857 
f 935 936 858 
f 936 937 859 
f 937 938 860 
f 938 939 861 
f 939 940 862 
f 940 941 863 
f 941 942 864 
f 942 943 865 
f 943 919 866 
f 944 945 868 
f 945 946 870 
f 946 947 871 
f 947 948 872 
f 948 949 873 
f 949 950 874 
f 950 951 875 
f 951 952 876 
f 952 929 877 
f 928 953 879 
f 953 954 880 
f 954 955 881 
f 955 956 882 
f 956 957 883 
f 957 910 884 
f 887 907 958 
f 958 959 889 
f 959 960 890 
f 960 961 891 
f 961 962 892 
f 962 944 893 
f 895 963 901 
f 964 963 895 
f 896 965 964 
f 897 966 965 
f 968 939 904 
f 900 969 968 
f 901 970 969 
f 935 934 917 
f 902 936 935 
f 937 936 902 
f 903 938 937 
f 904 939 938 
f 898 967 966 
f 909 956 967 
f 957 956 909 
f 972 971 916 
f 911 973 972 
f 974 973 911 
f 912 975 974 
f 976 975 912 
f 908 959 958 
f 971 959 908 
f 978 977 918 
f 917 934 978 
f 914 977 976 
f 919 979 920 
f 920 980 921 
f 921 980 922 
f 922 981 923 
f 923 982 924 
f 924 983 925 
f 925 984 926 
f 926 985 927 
f 927 986 928 
f 929 987 930 
f 930 987 931 
f 931 988 932 
f 932 989 933 
f 933 978 934 
f 939 968 940 
f 940 990 941 
f 941 990 942 
f 942 991 943 
f 943 979 919 
f 944 992 945 
f 945 993 946 
f 946 993 947 
f 947 994 948 
f 948 995 949 
f 949 996 950 
f 950 997 951 
f 951 998 952 
f 952 987 929 
f 928 986 953 
f 953 986 954 
f 954 999 955 
f 955 967 956 
f 959 971 960 
f 960 1000 961 
f 961 1000 962 
f 962 992 944 
f 963 970 901 
f 964 982 963 
f 965 983 964 
f 966 1001 965 
f 969 990 968 
f 970 1002 969 
f 967 1001 966 
f 972 1003 971 
f 973 1003 972 
f 974 995 973 
f 975 996 974 
f 976 997 975 
f 978 989 977 
f 977 1004 976 
f 979 980 920 
f 980 981 922 
f 981 982 923 
f 982 983 924 
f 983 984 925 
f 984 985 926 
f 985 986 927 
f 987 988 931 
f 988 989 932 
f 989 978 933 
f 968 990 940 
f 990 991 942 
f 991 979 943 
f 992 993 945 
f 993 994 947 
f 994 995 948 
f 995 996 949 
f 996 997 950 
f 997 998 951 
f 998 987 952 
f 986 999 954 
f 999 967 955 
f 971 1000 960 
f 1000 992 962 
f 963 981 970 
f 982 981 963 
f 964 983 982 
f 965 984 983 
f 1001 984 965 
f 969 1002 990 
f 970 981 1002 
f 967 999 1001 
f 1003 1000 971 
f 973 994 1003 
f 995 994 973 
f 974 996 995 
f 975 997 996 
f 976 1004 997 
f 989 1004 977 
f 979 1002 980 
f 980 1002 981 
f 984 1001 985 
f 985 1001 986 
f 987 1004 988 
f 988 1004 989 
f 990 1002 991 
f 991 1002 979 
f 992 1003 993 
f 993 1003 994 
f 997 1004 998 
f 998 1004 987 
f 986 1001 999 
f 1000 1003 992 
# End of file
