# WaveFront *.obj file
# Vertices: 1002
# Triangles : 2000
v -0.42553190141916275 0.4999999888241291 -0.8660254068672657
v -0.42553190141916275 0.9999999776482582 -2.8198483684356144e-16
v 0.42553190141916275 0.9999999776482582 -2.8198483684356144e-16
v 0.42553190141916275 0.4999999888241291 -0.8660254068672657
v -0.42553190141916275 -0.4999999888241291 -0.8660254068672657
v 0.42553190141916275 -0.4999999888241291 -0.8660254068672657
v -0.42553190141916275 -0.9999999776482582 7.477765677038574e-16
v 0.42553190141916275 -0.9999999776482582 7.477765677038574e-16
v -0.42553190141916275 -0.4999999888241291 0.8660254068672657
v 0.42553190141916275 -0.4999999888241291 0.8660254068672657
v -0.42553190141916275 0.4999999888241291 0.8660254068672657
v 0.42553190141916275 0.4999999888241291 0.8660254068672657
v -0.42553190141916275 0.5499999970197678 -0.7794228848069906
v -0.42553190141916275 0.6000000052154064 -0.6928203161805868
v -0.42553190141916275 0.6500000134110451 -0.6062177941203117
v -0.42553190141916275 0.7000000216066837 -0.5196152254939079
v -0.42553190141916275 0.7499999832361937 -0.43301270343363285
v -0.42553190141916275 0.800000037997961 -0.3464101580902934
v -0.42553190141916275 0.8500000461935997 -0.25980761274695396
v -0.42553190141916275 0.8999999612569809 -0.1732050790451467
v -0.42553190141916275 0.9499999694526196 -0.08660253952257335
v -0.31914892606437206 0.9999999776482582 -2.8198483684356144e-16
v -0.21276595070958138 0.9999999776482582 -2.8198483684356144e-16
v -0.10638297535479069 0.9999999776482582 -2.8198483684356144e-16
v 0.0 0.9999999776482582 -2.8198483684356144e-16
v 0.10638297535479069 0.9999999776482582 -2.8198483684356144e-16
v 0.21276595070958138 0.9999999776482582 -2.8198483684356144e-16
v 0.31914892606437206 0.9999999776482582 -2.8198483684356144e-16
v 0.42553190141916275 0.5499999970197678 -0.7794228848069906
v 0.42553190141916275 0.6000000052154064 -0.6928203161805868
v 0.42553190141916275 0.6500000134110451 -0.6062177941203117
v 0.42553190141916275 0.7000000216066837 -0.5196152254939079
v 0.42553190141916275 0.7499999832361937 -0.43301270343363285
v 0.42553190141916275 0.800000037997961 -0.3464101580902934
v 0.42553190141916275 0.8500000461935997 -0.25980761274695396
v 0.42553190141916275 0.8999999612569809 -0.1732050790451467
v 0.42553190141916275 0.9499999694526196 -0.08660253952257335
v -0.31914892606437206 0.4999999888241291 -0.8660254068672657
v -0.21276595070958138 0.4999999888241291 -0.8660254068672657
v -0.10638297535479069 0.4999999888241291 -0.8660254068672657
v 0.0 0.4999999888241291 -0.8660254068672657
v 0.10638297535479069 0.4999999888241291 -0.8660254068672657
v 0.21276595070958138 0.4999999888241291 -0.8660254068672657
v 0.31914892606437206 0.4999999888241291 -0.8660254068672657
v -0.42553190141916275 -0.4000000189989805 -0.8660254068672657
v -0.42553190141916275 -0.3000000026077032 -0.8660254068672657
v -0.42553190141916275 -0.20000000949949026 -0.8660254068672657
v -0.42553190141916275 -0.10000000474974513 -0.8660254068672657
v -0.42553190141916275 -4.996003809336551e-16 -0.8660254068672657
v -0.42553190141916275 0.10000000474974513 -0.8660254068672657
v -0.42553190141916275 0.20000000949949026 -0.8660254068672657
v -0.42553190141916275 0.3000000026077032 -0.8660254068672657
v -0.42553190141916275 0.4000000189989805 -0.8660254068672657
v 0.42553190141916275 -0.4000000189989805 -0.8660254068672657
v 0.42553190141916275 -0.3000000026077032 -0.8660254068672657
v 0.42553190141916275 -0.20000000949949026 -0.8660254068672657
v 0.42553190141916275 -0.10000000474974513 -0.8660254068672657
v 0.42553190141916275 -4.996003809336551e-16 -0.8660254068672657
v 0.42553190141916275 0.10000000474974513 -0.8660254068672657
v 0.42553190141916275 0.20000000949949026 -0.8660254068672657
v 0.42553190141916275 0.3000000026077032 -0.8660254068672657
v 0.42553190141916275 0.4000000189989805 -0.8660254068672657
v -0.31914892606437206 -0.4999999888241291 -0.8660254068672657
v -0.21276595070958138 -0.4999999888241291 -0.8660254068672657
v -0.10638297535479069 -0.4999999888241291 -0.8660254068672657
v 0.0 -0.4999999888241291 -0.8660254068672657
v 0.10638297535479069 -0.4999999888241291 -0.8660254068672657
v 0.21276595070958138 -0.4999999888241291 -0.8660254068672657
v 0.31914892606437206 -0.4999999888241291 -0.8660254068672657
v -0.42553190141916275 -0.9499999694526196 -0.08660253952257335
v -0.42553190141916275 -0.8999999612569809 -0.1732050790451467
v -0.42553190141916275 -0.8500000461935997 -0.25980761274695396
v -0.42553190141916275 -0.800000037997961 -0.3464101580902934
v -0.42553190141916275 -0.7499999832361937 -0.43301270343363285
v -0.42553190141916275 -0.7000000216066837 -0.5196152254939079
v -0.42553190141916275 -0.6500000134110451 -0.6062177941203117
v -0.42553190141916275 -0.6000000052154064 -0.6928203161805868
v -0.42553190141916275 -0.5499999970197678 -0.7794228848069906
v 0.42553190141916275 -0.9499999694526196 -0.08660253952257335
v 0.42553190141916275 -0.8999999612569809 -0.1732050790451467
v 0.42553190141916275 -0.8500000461935997 -0.25980761274695396
v 0.42553190141916275 -0.800000037997961 -0.3464101580902934
v 0.42553190141916275 -0.7499999832361937 -0.43301270343363285
v 0.42553190141916275 -0.7000000216066837 -0.5196152254939079
v 0.42553190141916275 -0.6500000134110451 -0.6062177941203117
v 0.42553190141916275 -0.6000000052154064 -0.6928203161805868
v 0.42553190141916275 -0.5499999970197678 -0.7794228848069906
v -0.31914892606437206 -0.9999999776482582 7.477765677038574e-16
v -0.21276595070958138 -0.9999999776482582 7.477765677038574e-16
v -0.10638297535479069 -0.9999999776482582 7.477765677038574e-16
v 0.0 -0.9999999776482582 7.477765677038574e-16
v 0.10638297535479069 -0.9999999776482582 7.477765677038574e-16
v 0.21276595070958138 -0.9999999776482582 7.477765677038574e-16
v 0.31914892606437206 -0.9999999776482582 7.477765677038574e-16
v -0.42553190141916275 -0.5499999970197678 0.7794228848069906
v -0.42553190141916275 -0.6000000052154064 0.6928203161805868
v -0.42553190141916275 -0.6500000134110451 0.6062177941203117
v -0.42553190141916275 -0.7000000216066837 0.5196152254939079
v -0.42553190141916275 -0.7499999832361937 0.43301270343363285
v -0.42553190141916275 -0.800000037997961 0.3464101580902934
v -0.42553190141916275 -0.8500000461935997 0.25980761274695396
v -0.42553190141916275 -0.8999999612569809 0.1732050790451467
v -0.42553190141916275 -0.9499999694526196 0.08660253952257335
v 0.42553190141916275 -0.5499999970197678 0.7794228848069906
v 0.42553190141916275 -0.6000000052154064 0.6928203161805868
v 0.42553190141916275 -0.6500000134110451 0.6062177941203117
v 0.42553190141916275 -0.7000000216066837 0.5196152254939079
v 0.42553190141916275 -0.7499999832361937 0.43301270343363285
v 0.42553190141916275 -0.800000037997961 0.3464101580902934
v 0.42553190141916275 -0.8500000461935997 0.25980761274695396
v 0.42553190141916275 -0.8999999612569809 0.1732050790451467
v 0.42553190141916275 -0.9499999694526196 0.08660253952257335
v -0.31914892606437206 -0.4999999888241291 0.8660254068672657
v -0.21276595070958138 -0.4999999888241291 0.8660254068672657
v -0.10638297535479069 -0.4999999888241291 0.8660254068672657
v 0.0 -0.4999999888241291 0.8660254068672657
v 0.10638297535479069 -0.4999999888241291 0.8660254068672657
v 0.21276595070958138 -0.4999999888241291 0.8660254068672657
v 0.31914892606437206 -0.4999999888241291 0.8660254068672657
v -0.42553190141916275 0.4000000189989805 0.8660254068672657
v -0.42553190141916275 0.3000000026077032 0.8660254068672657
v -0.42553190141916275 0.20000000949949026 0.8660254068672657
v -0.42553190141916275 0.10000000474974513 0.8660254068672657
v -0.42553190141916275 -1.1102229998097382e-16 0.8660254068672657
v -0.42553190141916275 -0.10000000474974513 0.8660254068672657
v -0.42553190141916275 -0.20000000949949026 0.8660254068672657
v -0.42553190141916275 -0.3000000026077032 0.8660254068672657
v -0.42553190141916275 -0.4000000189989805 0.8660254068672657
v 0.42553190141916275 0.4000000189989805 0.8660254068672657
v 0.42553190141916275 0.3000000026077032 0.8660254068672657
v 0.42553190141916275 0.20000000949949026 0.8660254068672657
v 0.42553190141916275 0.10000000474974513 0.8660254068672657
v 0.42553190141916275 -1.1102229998097382e-16 0.8660254068672657
v 0.42553190141916275 -0.10000000474974513 0.8660254068672657
v 0.42553190141916275 -0.20000000949949026 0.8660254068672657
v 0.42553190141916275 -0.3000000026077032 0.8660254068672657
v 0.42553190141916275 -0.4000000189989805 0.8660254068672657
v -0.31914892606437206 0.4999999888241291 0.8660254068672657
v -0.21276595070958138 0.4999999888241291 0.8660254068672657
v -0.10638297535479069 0.4999999888241291 0.8660254068672657
v 0.0 0.4999999888241291 0.8660254068672657
v 0.10638297535479069 0.4999999888241291 0.8660254068672657
v 0.21276595070958138 0.4999999888241291 0.8660254068672657
v 0.31914892606437206 0.4999999888241291 0.8660254068672657
v -0.42553190141916275 0.9499999694526196 0.08660253952257335
v -0.42553190141916275 0.8999999612569809 0.1732050790451467
v -0.42553190141916275 0.8500000461935997 0.25980761274695396
v -0.42553190141916275 0.800000037997961 0.3464101580902934
v -0.42553190141916275 0.7499999832361937 0.43301270343363285
v -0.42553190141916275 0.7000000216066837 0.5196152254939079
v -0.42553190141916275 0.6500000134110451 0.6062177941203117
v -0.42553190141916275 0.6000000052154064 0.6928203161805868
v -0.42553190141916275 0.5499999970197678 0.7794228848069906
v 0.42553190141916275 0.9499999694526196 0.08660253952257335
v 0.42553190141916275 0.8999999612569809 0.1732050790451467
v 0.42553190141916275 0.8500000461935997 0.25980761274695396
v 0.42553190141916275 0.800000037997961 0.3464101580902934
v 0.42553190141916275 0.7499999832361937 0.43301270343363285
v 0.42553190141916275 0.7000000216066837 0.5196152254939079
v 0.42553190141916275 0.6500000134110451 0.6062177941203117
v 0.42553190141916275 0.6000000052154064 0.6928203161805868
v 0.42553190141916275 0.5499999970197678 0.7794228848069906
v -0.32269502989947796 0.5499999970197678 -0.7794228848069906
v -0.32269502989947796 0.6000000052154064 -0.6928203161805868
v -0.32269502989947796 0.6500000134110451 -0.6062177941203117
v -0.32269502989947796 0.7000000216066837 -0.5196152254939079
v -0.32269502989947796 0.7499999832361937 -0.43301270343363285
v -0.32269502989947796 0.800000037997961 -0.3464101580902934
v -0.32269502989947796 0.8500000461935997 -0.25980761274695396
v -0.32269502989947796 0.8999999612569809 -0.1732050790451467
v -0.32269502989947796 0.9499999694526196 -0.08660253952257335
v -0.21276595070958138 0.9485815651714802 -0.08905935101211071
v -0.10638297535479069 0.9485815651714802 -0.08905935101211071
v 2.2204459996194763e-16 0.9485815651714802 -0.08905935101211071
v 0.10638297535479069 0.9485815651714802 -0.08905935101211071
v 0.21276595070958138 0.9485815651714802 -0.08905935101211071
v 0.32269502989947796 0.9499999694526196 -0.08660253952257335
v 0.32269502989947796 0.5499999970197678 -0.7794228848069906
v 0.32269502989947796 0.6000000052154064 -0.6928203161805868
v 0.32269502989947796 0.6500000134110451 -0.6062177941203117
v 0.32269502989947796 0.7000000216066837 -0.5196152254939079
v 0.32269502989947796 0.7499999832361937 -0.43301270343363285
v 0.32269502989947796 0.800000037997961 -0.3464101580902934
v 0.32269502989947796 0.8500000461935997 -0.25980761274695396
v 0.32269502989947796 0.8999999612569809 -0.1732050790451467
v -0.21276595070958138 0.5514184478670359 -0.776966055855155
v -0.10638297535479069 0.5514184478670359 -0.776966055855155
v 2.2204459996194763e-16 0.5514184478670359 -0.776966055855155
v 0.10638297535479069 0.5514184478670359 -0.776966055855155
v 0.21276595070958138 0.5514184478670359 -0.776966055855155
v -0.21985815837979317 0.6000000052154064 -0.6928203161805868
v -0.21985815837979317 0.6500000134110451 -0.6062177941203117
v -0.21985815837979317 0.7000000216066837 -0.5196152254939079
v -0.21985815837979317 0.7499999832361937 -0.43301270343363285
v -0.21985815837979317 0.800000037997961 -0.3464101580902934
v -0.21985815837979317 0.8500000461935997 -0.25980761274695396
v -0.21985815837979317 0.8999999612569809 -0.1732050790451467
v -0.10638297535479069 0.8971631526947021 -0.17811870202422142
v 2.2204459996194763e-16 0.8971631526947021 -0.17811870202422142
v 0.10638297535479069 0.8971631526947021 -0.17811870202422142
v 0.21985815837979317 0.8999999612569809 -0.1732050790451467
v 0.21985815837979317 0.6000000052154064 -0.6928203161805868
v 0.21985815837979317 0.6500000134110451 -0.6062177941203117
v 0.21985815837979317 0.7000000216066837 -0.5196152254939079
v 0.21985815837979317 0.7499999832361937 -0.43301270343363285
v 0.21985815837979317 0.800000037997961 -0.3464101580902934
v 0.21985815837979317 0.8500000461935997 -0.25980761274695396
v -0.10638297535479069 0.6028368603438139 -0.6879067048430443
v 2.2204459996194763e-16 0.6028368603438139 -0.6879067048430443
v 0.10638297535479069 0.6028368603438139 -0.6879067048430443
v -0.11702127521857619 0.6500000134110451 -0.6062177941203117
v -0.11702127521857619 0.7000000216066837 -0.5196152254939079
v -0.11702127521857619 0.7499999832361937 -0.43301270343363285
v -0.11702127521857619 0.800000037997961 -0.3464101580902934
v -0.11702127521857619 0.8500000461935997 -0.25980761274695396
v 2.2204459996194763e-16 0.8457446470856667 -0.26717805303633213
v 0.11702127521857619 0.8500000461935997 -0.25980761274695396
v 0.11702127521857619 0.6500000134110451 -0.6062177941203117
v 0.11702127521857619 0.7000000216066837 -0.5196152254939079
v 0.11702127521857619 0.7499999832361937 -0.43301270343363285
v 0.11702127521857619 0.800000037997961 -0.3464101580902934
v 2.2204459996194763e-16 0.6542553193867207 -0.5988473538309336
v -0.01418439787812531 0.7000000216066837 -0.5196152254939079
v -0.01418439787812531 0.7499999832361937 -0.43301270343363285
v -0.01418439787812531 0.800000037997961 -0.3464101580902934
v -0.32269502989947796 -0.4000000189989805 -0.8660254068672657
v -0.32269502989947796 -0.3000000026077032 -0.8660254068672657
v -0.32269502989947796 -0.20000000949949026 -0.8660254068672657
v -0.32269502989947796 -0.10000000474974513 -0.8660254068672657
v -0.32269502989947796 -6.106226602351136e-16 -0.8660254068672657
v -0.32269502989947796 0.10000000474974513 -0.8660254068672657
v -0.32269502989947796 0.20000000949949026 -0.8660254068672657
v -0.32269502989947796 0.3000000026077032 -0.8660254068672657
v -0.32269502989947796 0.4000000189989805 -0.8660254068672657
v -0.21276595070958138 0.3971631173044443 -0.8660254068672657
v -0.10638297535479069 0.3971631173044443 -0.8660254068672657
v 0.0 0.3971631173044443 -0.8660254068672657
v 0.10638297535479069 0.3971631173044443 -0.8660254068672657
v 0.21276595070958138 0.3971631173044443 -0.8660254068672657
v 0.32269502989947796 0.4000000189989805 -0.8660254068672657
v 0.32269502989947796 -0.4000000189989805 -0.8660254068672657
v 0.32269502989947796 -0.3000000026077032 -0.8660254068672657
v 0.32269502989947796 -0.20000000949949026 -0.8660254068672657
v 0.32269502989947796 -0.10000000474974513 -0.8660254068672657
v 0.32269502989947796 -6.106226602351136e-16 -0.8660254068672657
v 0.32269502989947796 0.10000000474974513 -0.8660254068672657
v 0.32269502989947796 0.20000000949949026 -0.8660254068672657
v 0.32269502989947796 0.3000000026077032 -0.8660254068672657
v -0.21276595070958138 -0.3971631173044443 -0.8660254068672657
v -0.10638297535479069 -0.3971631173044443 -0.8660254068672657
v 0.0 -0.3971631173044443 -0.8660254068672657
v 0.10638297535479069 -0.3971631173044443 -0.8660254068672657
v 0.21276595070958138 -0.3971631173044443 -0.8660254068672657
v -0.21985815837979317 -0.3000000026077032 -0.8660254068672657
v -0.21985815837979317 -0.20000000949949026 -0.8660254068672657
v -0.21985815837979317 -0.10000000474974513 -0.8660254068672657
v -0.21985815837979317 -6.106226602351136e-16 -0.8660254068672657
v -0.21985815837979317 0.10000000474974513 -0.8660254068672657
v -0.21985815837979317 0.20000000949949026 -0.8660254068672657
v -0.21985815837979317 0.3000000026077032 -0.8660254068672657
v -0.10638297535479069 0.2943262457847595 -0.8660254068672657
v 0.0 0.2943262457847595 -0.8660254068672657
v 0.10638297535479069 0.2943262457847595 -0.8660254068672657
v 0.21985815837979317 0.3000000026077032 -0.8660254068672657
v 0.21985815837979317 -0.3000000026077032 -0.8660254068672657
v 0.21985815837979317 -0.20000000949949026 -0.8660254068672657
v 0.21985815837979317 -0.10000000474974513 -0.8660254068672657
v 0.21985815837979317 -6.106226602351136e-16 -0.8660254068672657
v 0.21985815837979317 0.10000000474974513 -0.8660254068672657
v 0.21985815837979317 0.20000000949949026 -0.8660254068672657
v -0.10638297535479069 -0.2943262457847595 -0.8660254068672657
v 0.0 -0.2943262457847595 -0.8660254068672657
v 0.10638297535479069 -0.2943262457847595 -0.8660254068672657
v -0.11702127521857619 -0.20000000949949026 -0.8660254068672657
v -0.11702127521857619 -0.10000000474974513 -0.8660254068672657
v -0.11702127521857619 -6.106226602351136e-16 -0.8660254068672657
v -0.11702127521857619 0.10000000474974513 -0.8660254068672657
v -0.11702127521857619 0.20000000949949026 -0.8660254068672657
v 0.0 0.19148936262354255 -0.8660254068672657
v 0.11702127521857619 0.20000000949949026 -0.8660254068672657
v 0.11702127521857619 -0.20000000949949026 -0.8660254068672657
v 0.11702127521857619 -0.10000000474974513 -0.8660254068672657
v 0.11702127521857619 -6.106226602351136e-16 -0.8660254068672657
v 0.11702127521857619 0.10000000474974513 -0.8660254068672657
v 0.0 -0.19148936262354255 -0.8660254068672657
v -0.01418439787812531 -0.10000000474974513 -0.8660254068672657
v -0.01418439787812531 -6.106226602351136e-16 -0.8660254068672657
v -0.01418439787812531 0.10000000474974513 -0.8660254068672657
v -0.32269502989947796 -0.9499999694526196 -0.08660253952257335
v -0.32269502989947796 -0.8999999612569809 -0.1732050790451467
v -0.32269502989947796 -0.8500000461935997 -0.25980761274695396
v -0.32269502989947796 -0.800000037997961 -0.3464101580902934
v -0.32269502989947796 -0.7499999832361937 -0.43301270343363285
v -0.32269502989947796 -0.7000000216066837 -0.5196152254939079
v -0.32269502989947796 -0.6500000134110451 -0.6062177941203117
v -0.32269502989947796 -0.6000000052154064 -0.6928203161805868
v -0.32269502989947796 -0.5499999970197678 -0.7794228848069906
v -0.21276595070958138 -0.5514184478670359 -0.776966055855155
v -0.10638297535479069 -0.5514184478670359 -0.776966055855155
v 5.551114999048691e-17 -0.5514184478670359 -0.776966055855155
v 0.10638297535479069 -0.5514184478670359 -0.776966055855155
v 0.21276595070958138 -0.5514184478670359 -0.776966055855155
v 0.32269502989947796 -0.5499999970197678 -0.7794228848069906
v 0.32269502989947796 -0.9499999694526196 -0.08660253952257335
v 0.32269502989947796 -0.8999999612569809 -0.1732050790451467
v 0.32269502989947796 -0.8500000461935997 -0.25980761274695396
v 0.32269502989947796 -0.800000037997961 -0.3464101580902934
v 0.32269502989947796 -0.7499999832361937 -0.43301270343363285
v 0.32269502989947796 -0.7000000216066837 -0.5196152254939079
v 0.32269502989947796 -0.6500000134110451 -0.6062177941203117
v 0.32269502989947796 -0.6000000052154064 -0.6928203161805868
v -0.21276595070958138 -0.9485815651714802 -0.08905935101211071
v -0.10638297535479069 -0.9485815651714802 -0.08905935101211071
v 5.551114999048691e-17 -0.9485815651714802 -0.08905935101211071
v 0.10638297535479069 -0.9485815651714802 -0.08905935101211071
v 0.21276595070958138 -0.9485815651714802 -0.08905935101211071
v -0.21985815837979317 -0.8999999612569809 -0.1732050790451467
v -0.21985815837979317 -0.8500000461935997 -0.25980761274695396
v -0.21985815837979317 -0.800000037997961 -0.3464101580902934
v -0.21985815837979317 -0.7499999832361937 -0.43301270343363285
v -0.21985815837979317 -0.7000000216066837 -0.5196152254939079
v -0.21985815837979317 -0.6500000134110451 -0.6062177941203117
v -0.21985815837979317 -0.6000000052154064 -0.6928203161805868
v -0.10638297535479069 -0.6028368603438139 -0.6879067048430443
v 5.551114999048691e-17 -0.6028368603438139 -0.6879067048430443
v 0.10638297535479069 -0.6028368603438139 -0.6879067048430443
v 0.21985815837979317 -0.6000000052154064 -0.6928203161805868
v 0.21985815837979317 -0.8999999612569809 -0.1732050790451467
v 0.21985815837979317 -0.8500000461935997 -0.25980761274695396
v 0.21985815837979317 -0.800000037997961 -0.3464101580902934
v 0.21985815837979317 -0.7499999832361937 -0.43301270343363285
v 0.21985815837979317 -0.7000000216066837 -0.5196152254939079
v 0.21985815837979317 -0.6500000134110451 -0.6062177941203117
v -0.10638297535479069 -0.8971631526947021 -0.17811870202422142
v 5.551114999048691e-17 -0.8971631526947021 -0.17811870202422142
v 0.10638297535479069 -0.8971631526947021 -0.17811870202422142
v -0.11702127521857619 -0.8500000461935997 -0.25980761274695396
v -0.11702127521857619 -0.800000037997961 -0.3464101580902934
v -0.11702127521857619 -0.7499999832361937 -0.43301270343363285
v -0.11702127521857619 -0.7000000216066837 -0.5196152254939079
v -0.11702127521857619 -0.6500000134110451 -0.6062177941203117
v 5.551114999048691e-17 -0.6542553193867207 -0.5988473538309336
v 0.11702127521857619 -0.6500000134110451 -0.6062177941203117
v 0.11702127521857619 -0.8500000461935997 -0.25980761274695396
v 0.11702127521857619 -0.800000037997961 -0.3464101580902934
v 0.11702127521857619 -0.7499999832361937 -0.43301270343363285
v 0.11702127521857619 -0.7000000216066837 -0.5196152254939079
v 5.551114999048691e-17 -0.8457446470856667 -0.26717805303633213
v -0.01418439787812531 -0.800000037997961 -0.3464101580902934
v -0.01418439787812531 -0.7499999832361937 -0.43301270343363285
v -0.01418439787812531 -0.7000000216066837 -0.5196152254939079
v -0.32269502989947796 -0.5499999970197678 0.7794228848069906
v -0.32269502989947796 -0.6000000052154064 0.6928203161805868
v -0.32269502989947796 -0.6500000134110451 0.6062177941203117
v -0.32269502989947796 -0.7000000216066837 0.5196152254939079
v -0.32269502989947796 -0.7499999832361937 0.43301270343363285
v -0.32269502989947796 -0.800000037997961 0.3464101580902934
v -0.32269502989947796 -0.8500000461935997 0.25980761274695396
v -0.32269502989947796 -0.8999999612569809 0.1732050790451467
v -0.32269502989947796 -0.9499999694526196 0.08660253952257335
v -0.21276595070958138 -0.9485815651714802 0.08905935101211071
v -0.10638297535479069 -0.9485815651714802 0.08905935101211071
v 5.551114999048691e-17 -0.9485815651714802 0.08905935101211071
v 0.10638297535479069 -0.9485815651714802 0.08905935101211071
v 0.21276595070958138 -0.9485815651714802 0.08905935101211071
v 0.32269502989947796 -0.9499999694526196 0.08660253952257335
v 0.32269502989947796 -0.5499999970197678 0.7794228848069906
v 0.32269502989947796 -0.6000000052154064 0.6928203161805868
v 0.32269502989947796 -0.6500000134110451 0.6062177941203117
v 0.32269502989947796 -0.7000000216066837 0.5196152254939079
v 0.32269502989947796 -0.7499999832361937 0.43301270343363285
v 0.32269502989947796 -0.800000037997961 0.3464101580902934
v 0.32269502989947796 -0.8500000461935997 0.25980761274695396
v 0.32269502989947796 -0.8999999612569809 0.1732050790451467
v -0.21276595070958138 -0.5514184478670359 0.776966055855155
v -0.10638297535479069 -0.5514184478670359 0.776966055855155
v 5.551114999048691e-17 -0.5514184478670359 0.776966055855155
v 0.10638297535479069 -0.5514184478670359 0.776966055855155
v 0.21276595070958138 -0.5514184478670359 0.776966055855155
v -0.21985815837979317 -0.6000000052154064 0.6928203161805868
v -0.21985815837979317 -0.6500000134110451 0.6062177941203117
v -0.21985815837979317 -0.7000000216066837 0.5196152254939079
v -0.21985815837979317 -0.7499999832361937 0.43301270343363285
v -0.21985815837979317 -0.800000037997961 0.3464101580902934
v -0.21985815837979317 -0.8500000461935997 0.25980761274695396
v -0.21985815837979317 -0.8999999612569809 0.1732050790451467
v -0.10638297535479069 -0.8971631526947021 0.17811870202422142
v 5.551114999048691e-17 -0.8971631526947021 0.17811870202422142
v 0.10638297535479069 -0.8971631526947021 0.17811870202422142
v 0.21985815837979317 -0.8999999612569809 0.1732050790451467
v 0.21985815837979317 -0.6000000052154064 0.6928203161805868
v 0.21985815837979317 -0.6500000134110451 0.6062177941203117
v 0.21985815837979317 -0.7000000216066837 0.5196152254939079
v 0.21985815837979317 -0.7499999832361937 0.43301270343363285
v 0.21985815837979317 -0.800000037997961 0.3464101580902934
v 0.21985815837979317 -0.8500000461935997 0.25980761274695396
v -0.10638297535479069 -0.6028368603438139 0.6879067048430443
v 5.551114999048691e-17 -0.6028368603438139 0.6879067048430443
v 0.10638297535479069 -0.6028368603438139 0.6879067048430443
v -0.11702127521857619 -0.6500000134110451 0.6062177941203117
v -0.11702127521857619 -0.7000000216066837 0.5196152254939079
v -0.11702127521857619 -0.7499999832361937 0.43301270343363285
v -0.11702127521857619 -0.800000037997961 0.3464101580902934
v -0.11702127521857619 -0.8500000461935997 0.25980761274695396
v 5.551114999048691e-17 -0.8457446470856667 0.26717805303633213
v 0.11702127521857619 -0.8500000461935997 0.25980761274695396
v 0.11702127521857619 -0.6500000134110451 0.6062177941203117
v 0.11702127521857619 -0.7000000216066837 0.5196152254939079
v 0.11702127521857619 -0.7499999832361937 0.43301270343363285
v 0.11702127521857619 -0.800000037997961 0.3464101580902934
v 5.551114999048691e-17 -0.6542553193867207 0.5988473538309336
v -0.01418439787812531 -0.7000000216066837 0.5196152254939079
v -0.01418439787812531 -0.7499999832361937 0.43301270343363285
v -0.01418439787812531 -0.800000037997961 0.3464101580902934
v -0.32269502989947796 0.4000000189989805 0.8660254068672657
v -0.32269502989947796 0.3000000026077032 0.8660254068672657
v -0.32269502989947796 0.20000000949949026 0.8660254068672657
v -0.32269502989947796 0.10000000474974513 0.8660254068672657
v -0.32269502989947796 -1.1102229998097382e-16 0.8660254068672657
v -0.32269502989947796 -0.10000000474974513 0.8660254068672657
v -0.32269502989947796 -0.20000000949949026 0.8660254068672657
v -0.32269502989947796 -0.3000000026077032 0.8660254068672657
v -0.32269502989947796 -0.4000000189989805 0.8660254068672657
v -0.21276595070958138 -0.3971631173044443 0.8660254068672657
v -0.10638297535479069 -0.3971631173044443 0.8660254068672657
v 0.0 -0.3971631173044443 0.8660254068672657
v 0.10638297535479069 -0.3971631173044443 0.8660254068672657
v 0.21276595070958138 -0.3971631173044443 0.8660254068672657
v 0.32269502989947796 -0.4000000189989805 0.8660254068672657
v 0.32269502989947796 0.4000000189989805 0.8660254068672657
v 0.32269502989947796 0.3000000026077032 0.8660254068672657
v 0.32269502989947796 0.20000000949949026 0.8660254068672657
v 0.32269502989947796 0.10000000474974513 0.8660254068672657
v 0.32269502989947796 -1.1102229998097382e-16 0.8660254068672657
v 0.32269502989947796 -0.10000000474974513 0.8660254068672657
v 0.32269502989947796 -0.20000000949949026 0.8660254068672657
v 0.32269502989947796 -0.3000000026077032 0.8660254068672657
v -0.21276595070958138 0.3971631173044443 0.8660254068672657
v -0.10638297535479069 0.3971631173044443 0.8660254068672657
v 0.0 0.3971631173044443 0.8660254068672657
v 0.10638297535479069 0.3971631173044443 0.8660254068672657
v 0.21276595070958138 0.3971631173044443 0.8660254068672657
v -0.21985815837979317 0.3000000026077032 0.8660254068672657
v -0.21985815837979317 0.20000000949949026 0.8660254068672657
v -0.21985815837979317 0.10000000474974513 0.8660254068672657
v -0.21985815837979317 -1.1102229998097382e-16 0.8660254068672657
v -0.21985815837979317 -0.10000000474974513 0.8660254068672657
v -0.21985815837979317 -0.20000000949949026 0.8660254068672657
v -0.21985815837979317 -0.3000000026077032 0.8660254068672657
v -0.10638297535479069 -0.2943262457847595 0.8660254068672657
v 0.0 -0.2943262457847595 0.8660254068672657
v 0.10638297535479069 -0.2943262457847595 0.8660254068672657
v 0.21985815837979317 -0.3000000026077032 0.8660254068672657
v 0.21985815837979317 0.3000000026077032 0.8660254068672657
v 0.21985815837979317 0.20000000949949026 0.8660254068672657
v 0.21985815837979317 0.10000000474974513 0.8660254068672657
v 0.21985815837979317 -1.1102229998097382e-16 0.8660254068672657
v 0.21985815837979317 -0.10000000474974513 0.8660254068672657
v 0.21985815837979317 -0.20000000949949026 0.8660254068672657
v -0.10638297535479069 0.2943262457847595 0.8660254068672657
v 0.0 0.2943262457847595 0.8660254068672657
v 0.10638297535479069 0.2943262457847595 0.8660254068672657
v -0.11702127521857619 0.20000000949949026 0.8660254068672657
v -0.11702127521857619 0.10000000474974513 0.8660254068672657
v -0.11702127521857619 -1.1102229998097382e-16 0.8660254068672657
v -0.11702127521857619 -0.10000000474974513 0.8660254068672657
v -0.11702127521857619 -0.20000000949949026 0.8660254068672657
v 0.0 -0.19148936262354255 0.8660254068672657
v 0.11702127521857619 -0.20000000949949026 0.8660254068672657
v 0.11702127521857619 0.20000000949949026 0.8660254068672657
v 0.11702127521857619 0.10000000474974513 0.8660254068672657
v 0.11702127521857619 -1.1102229998097382e-16 0.8660254068672657
v 0.11702127521857619 -0.10000000474974513 0.8660254068672657
v 0.0 0.19148936262354255 0.8660254068672657
v -0.01418439787812531 0.10000000474974513 0.8660254068672657
v -0.01418439787812531 -1.1102229998097382e-16 0.8660254068672657
v -0.01418439787812531 -0.10000000474974513 0.8660254068672657
v -0.32269502989947796 0.9499999694526196 0.08660253952257335
v -0.32269502989947796 0.8999999612569809 0.1732050790451467
v -0.32269502989947796 0.8500000461935997 0.25980761274695396
v -0.32269502989947796 0.800000037997961 0.3464101580902934
v -0.32269502989947796 0.7499999832361937 0.43301270343363285
v -0.32269502989947796 0.7000000216066837 0.5196152254939079
v -0.32269502989947796 0.6500000134110451 0.6062177941203117
v -0.32269502989947796 0.6000000052154064 0.6928203161805868
v -0.32269502989947796 0.5499999970197678 0.7794228848069906
v -0.21276595070958138 0.5514184478670359 0.776966055855155
v -0.10638297535479069 0.5514184478670359 0.776966055855155
v 0.0 0.5514184478670359 0.776966055855155
v 0.10638297535479069 0.5514184478670359 0.776966055855155
v 0.21276595070958138 0.5514184478670359 0.776966055855155
v 0.32269502989947796 0.5499999970197678 0.7794228848069906
v 0.32269502989947796 0.9499999694526196 0.08660253952257335
v 0.32269502989947796 0.8999999612569809 0.1732050790451467
v 0.32269502989947796 0.8500000461935997 0.25980761274695396
v 0.32269502989947796 0.800000037997961 0.3464101580902934
v 0.32269502989947796 0.7499999832361937 0.43301270343363285
v 0.32269502989947796 0.7000000216066837 0.5196152254939079
v 0.32269502989947796 0.6500000134110451 0.6062177941203117
v 0.32269502989947796 0.6000000052154064 0.6928203161805868
v -0.21276595070958138 0.9485815651714802 0.08905935101211071
v -0.10638297535479069 0.9485815651714802 0.08905935101211071
v 0.0 0.9485815651714802 0.08905935101211071
v 0.10638297535479069 0.9485815651714802 0.08905935101211071
v 0.21276595070958138 0.9485815651714802 0.08905935101211071
v -0.21985815837979317 0.8999999612569809 0.1732050790451467
v -0.21985815837979317 0.8500000461935997 0.25980761274695396
v -0.21985815837979317 0.800000037997961 0.3464101580902934
v -0.21985815837979317 0.7499999832361937 0.43301270343363285
v -0.21985815837979317 0.7000000216066837 0.5196152254939079
v -0.21985815837979317 0.6500000134110451 0.6062177941203117
v -0.21985815837979317 0.6000000052154064 0.6928203161805868
v -0.10638297535479069 0.6028368603438139 0.6879067048430443
v 0.0 0.6028368603438139 0.6879067048430443
v 0.10638297535479069 0.6028368603438139 0.6879067048430443
v 0.21985815837979317 0.6000000052154064 0.6928203161805868
v 0.21985815837979317 0.8999999612569809 0.1732050790451467
v 0.21985815837979317 0.8500000461935997 0.25980761274695396
v 0.21985815837979317 0.800000037997961 0.3464101580902934
v 0.21985815837979317 0.7499999832361937 0.43301270343363285
v 0.21985815837979317 0.7000000216066837 0.5196152254939079
v 0.21985815837979317 0.6500000134110451 0.6062177941203117
v -0.10638297535479069 0.8971631526947021 0.17811870202422142
v 0.0 0.8971631526947021 0.17811870202422142
v 0.10638297535479069 0.8971631526947021 0.17811870202422142
v -0.11702127521857619 0.8500000461935997 0.25980761274695396
v -0.11702127521857619 0.800000037997961 0.3464101580902934
v -0.11702127521857619 0.7499999832361937 0.43301270343363285
v -0.11702127521857619 0.7000000216066837 0.5196152254939079
v -0.11702127521857619 0.6500000134110451 0.6062177941203117
v 0.0 0.6542553193867207 0.5988473538309336
v 0.11702127521857619 0.6500000134110451 0.6062177941203117
v 0.11702127521857619 0.8500000461935997 0.25980761274695396
v 0.11702127521857619 0.800000037997961 0.3464101580902934
v 0.11702127521857619 0.7499999832361937 0.43301270343363285
v 0.11702127521857619 0.7000000216066837 0.5196152254939079
v 0.0 0.8457446470856667 0.26717805303633213
v -0.01418439787812531 0.800000037997961 0.3464101580902934
v -0.01418439787812531 0.7499999832361937 0.43301270343363285
v -0.01418439787812531 0.7000000216066837 0.5196152254939079
v 0.42553190141916275 0.8633974939584732 0.03660254005808383
v 0.42553190141916275 0.8633974939584732 -0.03660254005808383
v 0.42553190141916275 0.7633974775671959 0.20980762783437967
v 0.42553190141916275 0.8133974857628345 0.12320508249104023
v 0.42553190141916275 0.6633974611759186 0.3830126952379942
v 0.42553190141916275 0.7133974693715572 0.29641014989465475
v 0.42553190141916275 0.6133974529802799 0.469615263864398
v 0.42553190141916275 0.5133974365890026 0.6428203079849482
v 0.42553190141916275 0.5633974447846413 0.5562177859246731
v 0.42553190141916275 0.4633974749594927 0.729422876611352
v 0.42553190141916275 0.4000000189989805 0.7660253904759884
v 0.42553190141916275 0.3000000026077032 0.7660253904759884
v 0.42553190141916275 0.20000000949949026 0.7660253904759884
v 0.42553190141916275 0.10000000474974513 0.7660253904759884
v 0.42553190141916275 -1.1102229998097382e-16 0.7660253904759884
v 0.42553190141916275 -0.10000000474974513 0.7660253904759884
v 0.42553190141916275 -0.20000000949949026 0.7660253904759884
v 0.42553190141916275 -0.3000000026077032 0.7660253904759884
v 0.42553190141916275 -0.4000000189989805 0.7660253904759884
v 0.42553190141916275 -0.4633974749594927 0.729422876611352
v 0.42553190141916275 -0.5133974365890026 0.6428203079849482
v 0.42553190141916275 -0.6133974529802799 0.469615263864398
v 0.42553190141916275 -0.5633974447846413 0.5562177859246731
v 0.42553190141916275 -0.6633974611759186 0.3830126952379942
v 0.42553190141916275 -0.7133974693715572 0.29641014989465475
v 0.42553190141916275 -0.8133974857628345 0.12320508249104023
v 0.42553190141916275 -0.7633974775671959 0.20980762783437967
v 0.42553190141916275 -0.8633974939584732 0.03660254005808383
v 0.42553190141916275 -0.8633974939584732 -0.03660254005808383
v 0.42553190141916275 -0.7633974775671959 -0.20980762783437967
v 0.42553190141916275 -0.8133974857628345 -0.12320508249104023
v 0.42553190141916275 -0.7133974693715572 -0.29641014989465475
v 0.42553190141916275 -0.6133974529802799 -0.469615263864398
v 0.42553190141916275 -0.6633974611759186 -0.3830126952379942
v 0.42553190141916275 -0.5133974365890026 -0.6428203079849482
v 0.42553190141916275 -0.5633974447846413 -0.5562177859246731
v 0.42553190141916275 -0.4633974749594927 -0.729422876611352
v 0.42553190141916275 -0.4000000189989805 -0.7660253904759884
v 0.42553190141916275 -0.3000000026077032 -0.7660253904759884
v 0.42553190141916275 -0.20000000949949026 -0.7660253904759884
v 0.42553190141916275 -0.10000000474974513 -0.7660253904759884
v 0.42553190141916275 -4.996003809336551e-16 -0.7660253904759884
v 0.42553190141916275 0.10000000474974513 -0.7660253904759884
v 0.42553190141916275 0.3000000026077032 -0.7660253904759884
v 0.42553190141916275 0.20000000949949026 -0.7660253904759884
v 0.42553190141916275 0.4000000189989805 -0.7660253904759884
v 0.42553190141916275 0.4633974749594927 -0.729422876611352
v 0.42553190141916275 0.5133974365890026 -0.6428203079849482
v 0.42553190141916275 0.6133974529802799 -0.469615263864398
v 0.42553190141916275 0.5633974447846413 -0.5562177859246731
v 0.42553190141916275 0.6633974611759186 -0.3830126952379942
v 0.42553190141916275 0.7633974775671959 -0.20980762783437967
v 0.42553190141916275 0.7133974693715572 -0.29641014989465475
v 0.42553190141916275 0.8133974857628345 -0.12320508249104023
v 0.42553190141916275 0.7767949253320694 -0.013397459406405687
v 0.42553190141916275 0.6767949089407921 0.15980761963874102
v 0.42553190141916275 0.7267949171364307 0.07320508011616766
v 0.42553190141916275 0.5767949391156435 0.3330127103254199
v 0.42553190141916275 0.6267949007451534 0.24641016498208046
v 0.42553190141916275 0.5267949309200048 0.41961525566875935
v 0.42553190141916275 0.42679491452872753 0.5928202997893095
v 0.42553190141916275 0.4767949227243662 0.5062177777290344
v 0.42553190141916275 0.37679492961615324 0.6794228684157133
v 0.42553190141916275 0.3000000026077032 0.6660254206508398
v 0.42553190141916275 0.20000000949949026 0.6660254206508398
v 0.42553190141916275 0.10000000474974513 0.6660254206508398
v 0.42553190141916275 -1.1102229998097382e-16 0.6660254206508398
v 0.42553190141916275 -0.10000000474974513 0.6660254206508398
v 0.42553190141916275 -0.20000000949949026 0.6660254206508398
v 0.42553190141916275 -0.3000000026077032 0.6660254206508398
v 0.42553190141916275 -0.4000000189989805 0.6660254206508398
v 0.42553190141916275 -0.42679491452872753 0.5928202997893095
v 0.42553190141916275 -0.5767949391156435 0.3330127103254199
v 0.42553190141916275 -0.5267949309200048 0.41961525566875935
v 0.42553190141916275 -0.4767949227243662 0.5062177777290344
v 0.42553190141916275 -0.6267949007451534 0.24641016498208046
v 0.42553190141916275 -0.7267949171364307 0.07320508011616766
v 0.42553190141916275 -0.6767949089407921 0.15980761963874102
v 0.42553190141916275 -0.7767949253320694 -0.013397459406405687
v 0.42553190141916275 -0.6267949007451534 -0.24641016498208046
v 0.42553190141916275 -0.6767949089407921 -0.15980761963874102
v 0.42553190141916275 -0.7267949171364307 -0.07320508011616766
v 0.42553190141916275 -0.5267949309200048 -0.41961525566875935
v 0.42553190141916275 -0.5767949391156435 -0.3330127103254199
v 0.42553190141916275 -0.37679492961615324 -0.6794228684157133
v 0.42553190141916275 -0.42679491452872753 -0.5928202997893095
v 0.42553190141916275 -0.4767949227243662 -0.5062177777290344
v 0.42553190141916275 -0.3000000026077032 -0.6660254206508398
v 0.42553190141916275 -0.20000000949949026 -0.6660254206508398
v 0.42553190141916275 -0.10000000474974513 -0.6660254206508398
v 0.42553190141916275 -4.996003809336551e-16 -0.6660254206508398
v 0.42553190141916275 0.10000000474974513 -0.6660254206508398
v 0.42553190141916275 0.3000000026077032 -0.6660254206508398
v 0.42553190141916275 0.20000000949949026 -0.6660254206508398
v 0.42553190141916275 0.4000000189989805 -0.6660254206508398
v 0.42553190141916275 0.42679491452872753 -0.5928202997893095
v 0.42553190141916275 0.5267949309200048 -0.41961525566875935
v 0.42553190141916275 0.4767949227243662 -0.5062177777290344
v 0.42553190141916275 0.5767949391156435 -0.3330127103254199
v 0.42553190141916275 0.6767949089407921 -0.15980761963874102
v 0.42553190141916275 0.6267949007451534 -0.24641016498208046
v 0.42553190141916275 0.7267949171364307 -0.07320508011616766
v 0.42553190141916275 0.6401923950761557 0.023205080651678145
v 0.42553190141916275 0.590192386880517 0.10980762308463454
v 0.42553190141916275 0.4901923704892397 0.28301270212978125
v 0.42553190141916275 0.5401923786848783 0.1964101567864418
v 0.42553190141916275 0.39019237738102674 0.45621776953339577
v 0.42553190141916275 0.44019236229360104 0.3696152474731207
v 0.42553190141916275 0.3401923691853881 0.5428203381597996
v 0.42553190141916275 0.20000000949949026 0.5660254042595625
v 0.42553190141916275 0.10000000474974513 0.5660254042595625
v 0.42553190141916275 -1.1102229998097382e-16 0.5660254042595625
v 0.42553190141916275 -0.10000000474974513 0.5660254042595625
v 0.42553190141916275 -0.20000000949949026 0.5660254042595625
v 0.42553190141916275 -0.3000000026077032 0.5660254042595625
v 0.42553190141916275 -0.39019237738102674 0.45621776953339577
v 0.42553190141916275 -0.5401923786848783 0.1964101567864418
v 0.42553190141916275 -0.4901923704892397 0.28301270212978125
v 0.42553190141916275 -0.44019236229360104 0.3696152474731207
v 0.42553190141916275 -0.6401923950761557 0.023205080651678145
v 0.42553190141916275 -0.590192386880517 0.10980762308463454
v 0.42553190141916275 -0.5401923786848783 -0.1964101567864418
v 0.42553190141916275 -0.590192386880517 -0.10980762308463454
v 0.42553190141916275 -0.39019237738102674 -0.45621776953339577
v 0.42553190141916275 -0.44019236229360104 -0.3696152474731207
v 0.42553190141916275 -0.4901923704892397 -0.28301270212978125
v 0.42553190141916275 -0.3401923691853881 -0.5428203381597996
v 0.42553190141916275 -0.20000000949949026 -0.5660254042595625
v 0.42553190141916275 -0.10000000474974513 -0.5660254042595625
v 0.42553190141916275 -4.996003809336551e-16 -0.5660254042595625
v 0.42553190141916275 0.10000000474974513 -0.5660254042595625
v 0.42553190141916275 0.3000000026077032 -0.5660254042595625
v 0.42553190141916275 0.20000000949949026 -0.5660254042595625
v 0.42553190141916275 0.39019237738102674 -0.45621776953339577
v 0.42553190141916275 0.44019236229360104 -0.3696152474731207
v 0.42553190141916275 0.4901923704892397 -0.28301270212978125
v 0.42553190141916275 0.590192386880517 -0.10980762308463454
v 0.42553190141916275 0.5401923786848783 -0.1964101567864418
v 0.42553190141916275 0.5035898182541132 0.05980762070976198
v 0.42553190141916275 0.5535898264497519 -0.026794918812811375
v 0.42553190141916275 0.4035898484289646 0.2330126939341426
v 0.42553190141916275 0.45358985662460327 0.14641016023233533
v 0.42553190141916275 0.253589847125113 0.4928203299641609
v 0.42553190141916275 0.3035898320376873 0.4062177613377571
v 0.42553190141916275 0.35358984023332596 0.31961523927748203
v 0.42553190141916275 0.10000000474974513 0.4660253878682852
v 0.42553190141916275 0.16698730178177357 0.44282032176852226
v 0.42553190141916275 -1.1102229998097382e-16 0.4660253878682852
v 0.42553190141916275 -0.10000000474974513 0.4660253878682852
v 0.42553190141916275 -0.20000000949949026 0.4660253878682852
v 0.42553190141916275 -0.3000000026077032 0.4660253878682852
v 0.42553190141916275 -0.35358984023332596 0.31961523927748203
v 0.42553190141916275 -0.3000000026077032 0.36602539476007223
v 0.42553190141916275 -0.45358985662460327 0.14641016023233533
v 0.42553190141916275 -0.4035898484289646 0.2330126939341426
v 0.42553190141916275 -0.5535898264497519 -0.026794918812811375
v 0.42553190141916275 -0.5035898182541132 0.05980762070976198
v 0.42553190141916275 -0.45358985662460327 -0.14641016023233533
v 0.42553190141916275 -0.4669873043894768 -0.07679492118768394
v 0.42553190141916275 -0.253589847125113 -0.4928203299641609
v 0.42553190141916275 -0.3035898320376873 -0.4062177613377571
v 0.42553190141916275 -0.35358984023332596 -0.31961523927748203
v 0.42553190141916275 -0.4035898484289646 -0.2330126939341426
v 0.42553190141916275 -0.10000000474974513 -0.4660253878682852
v 0.42553190141916275 -0.16698730178177357 -0.44282032176852226
v 0.42553190141916275 -4.996003809336551e-16 -0.4660253878682852
v 0.42553190141916275 0.10000000474974513 -0.4660253878682852
v 0.42553190141916275 0.3000000026077032 -0.4660253878682852
v 0.42553190141916275 0.20000000949949026 -0.4660253878682852
v 0.42553190141916275 0.35358984023332596 -0.31961523927748203
v 0.42553190141916275 0.3000000026077032 -0.36602539476007223
v 0.42553190141916275 0.4035898484289646 -0.2330126939341426
v 0.42553190141916275 0.4669873043894768 -0.07679492118768394
v 0.42553190141916275 0.45358985662460327 -0.14641016023233533
v 0.42553190141916275 0.4169872961938381 0.009807621245272458
v 0.42553190141916275 0.31698730308562517 0.18301269738003612
v 0.42553190141916275 0.36698728799819946 0.09641016367822886
v 0.42553190141916275 0.21698728669434786 0.3562177764251828
v 0.42553190141916275 0.2669872948899865 0.2696152310818434
v 0.42553190141916275 0.10000000474974513 0.36602539476007223
v 0.42553190141916275 -1.1102229998097382e-16 0.36602539476007223
v 0.42553190141916275 -0.10000000474974513 0.36602539476007223
v 0.42553190141916275 -0.20000000949949026 0.36602539476007223
v 0.42553190141916275 -0.31698730308562517 0.18301269738003612
v 0.42553190141916275 -0.2669872948899865 0.2696152310818434
v 0.42553190141916275 -0.36698728799819946 0.09641016367822886
v 0.42553190141916275 -0.4169872961938381 0.009807621245272458
v 0.42553190141916275 -0.36698728799819946 -0.09641016367822886
v 0.42553190141916275 -0.21698728669434786 -0.3562177764251828
v 0.42553190141916275 -0.2669872948899865 -0.2696152310818434
v 0.42553190141916275 -0.31698730308562517 -0.18301269738003612
v 0.42553190141916275 -0.10000000474974513 -0.36602539476007223
v 0.42553190141916275 -4.996003809336551e-16 -0.36602539476007223
v 0.42553190141916275 0.10000000474974513 -0.36602539476007223
v 0.42553190141916275 0.20000000949949026 -0.36602539476007223
v 0.42553190141916275 0.2669872948899865 -0.2696152310818434
v 0.42553190141916275 0.31698730308562517 -0.18301269738003612
v 0.42553190141916275 0.36698728799819946 -0.09641016367822886
v 0.42553190141916275 0.2803847659379244 0.04641016130335629
v 0.42553190141916275 0.2803847659379244 -0.04641016130335629
v 0.42553190141916275 0.23038475774228573 0.13301270082592964
v 0.42553190141916275 0.10000000474974513 0.2660254016518593
v 0.42553190141916275 0.18038476118817925 0.21961524616926908
v 0.42553190141916275 -1.1102229998097382e-16 0.2660254016518593
v 0.42553190141916275 -0.10000000474974513 0.2660254016518593
v 0.42553190141916275 -0.18038476118817925 0.21961524616926908
v 0.42553190141916275 -0.2803847659379244 0.04641016130335629
v 0.42553190141916275 -0.23038475774228573 0.13301270082592964
v 0.42553190141916275 -0.2803847659379244 -0.04641016130335629
v 0.42553190141916275 -0.10000000474974513 -0.2660254016518593
v 0.42553190141916275 -0.18038476118817925 -0.21961524616926908
v 0.42553190141916275 -0.23038475774228573 -0.13301270082592964
v 0.42553190141916275 -4.996003809336551e-16 -0.2660254016518593
v 0.42553190141916275 0.10000000474974513 -0.2660254016518593
v 0.42553190141916275 0.18038476118817925 -0.21961524616926908
v 0.42553190141916275 0.23038475774228573 -0.13301270082592964
v 0.42553190141916275 0.14378221239894629 0.08301270427182317
v 0.42553190141916275 0.19378222059458494 -0.0035898385249311104
v 0.42553190141916275 0.09378221584483981 0.16961523797363043
v 0.42553190141916275 -1.1102229998097382e-16 0.16602540854364634
v 0.42553190141916275 -0.10000000474974513 0.16602540854364634
v 0.42553190141916275 -0.19378222059458494 -0.0035898385249311104
v 0.42553190141916275 -0.14378221239894629 0.08301270427182317
v 0.42553190141916275 -0.09378221584483981 -0.16961523797363043
v 0.42553190141916275 -0.14378221239894629 -0.08301270427182317
v 0.42553190141916275 -4.996003809336551e-16 -0.16602540854364634
v 0.42553190141916275 0.10000000474974513 -0.16602540854364634
v 0.42553190141916275 0.14378221239894629 -0.08301270427182317
v 0.42553190141916275 0.057179678697139025 0.0330127018969506
v 0.42553190141916275 -0.057179678697139025 0.0330127018969506
v 0.42553190141916275 -4.996003809336551e-16 -0.0660254037939012
v -0.42553190141916275 0.8633974939584732 0.03660254005808383
v -0.42553190141916275 0.8633974939584732 -0.03660254005808383
v -0.42553190141916275 0.7633974775671959 0.20980762783437967
v -0.42553190141916275 0.8133974857628345 0.12320508249104023
v -0.42553190141916275 0.6633974611759186 0.3830126952379942
v -0.42553190141916275 0.7133974693715572 0.29641014989465475
v -0.42553190141916275 0.6133974529802799 0.469615263864398
v -0.42553190141916275 0.5133974365890026 0.6428203079849482
v -0.42553190141916275 0.5633974447846413 0.5562177859246731
v -0.42553190141916275 0.4633974749594927 0.729422876611352
v -0.42553190141916275 0.4633974749594927 -0.729422876611352
v -0.42553190141916275 0.4000000189989805 -0.7660253904759884
v -0.42553190141916275 0.5133974365890026 -0.6428203079849482
v -0.42553190141916275 0.6133974529802799 -0.469615263864398
v -0.42553190141916275 0.5633974447846413 -0.5562177859246731
v -0.42553190141916275 0.6633974611759186 -0.3830126952379942
v -0.42553190141916275 0.7633974775671959 -0.20980762783437967
v -0.42553190141916275 0.7133974693715572 -0.29641014989465475
v -0.42553190141916275 0.8133974857628345 -0.12320508249104023
v -0.42553190141916275 -0.4000000189989805 -0.7660253904759884
v -0.42553190141916275 -0.4633974749594927 -0.729422876611352
v -0.42553190141916275 -0.3000000026077032 -0.7660253904759884
v -0.42553190141916275 -0.20000000949949026 -0.7660253904759884
v -0.42553190141916275 -0.10000000474974513 -0.7660253904759884
v -0.42553190141916275 -4.996003809336551e-16 -0.7660253904759884
v -0.42553190141916275 0.10000000474974513 -0.7660253904759884
v -0.42553190141916275 0.3000000026077032 -0.7660253904759884
v -0.42553190141916275 0.20000000949949026 -0.7660253904759884
v -0.42553190141916275 -0.8633974939584732 -0.03660254005808383
v -0.42553190141916275 -0.8633974939584732 0.03660254005808383
v -0.42553190141916275 -0.7633974775671959 -0.20980762783437967
v -0.42553190141916275 -0.8133974857628345 -0.12320508249104023
v -0.42553190141916275 -0.7133974693715572 -0.29641014989465475
v -0.42553190141916275 -0.6133974529802799 -0.469615263864398
v -0.42553190141916275 -0.6633974611759186 -0.3830126952379942
v -0.42553190141916275 -0.5133974365890026 -0.6428203079849482
v -0.42553190141916275 -0.5633974447846413 -0.5562177859246731
v -0.42553190141916275 -0.4633974749594927 0.729422876611352
v -0.42553190141916275 -0.4000000189989805 0.7660253904759884
v -0.42553190141916275 -0.5133974365890026 0.6428203079849482
v -0.42553190141916275 -0.6133974529802799 0.469615263864398
v -0.42553190141916275 -0.5633974447846413 0.5562177859246731
v -0.42553190141916275 -0.6633974611759186 0.3830126952379942
v -0.42553190141916275 -0.7133974693715572 0.29641014989465475
v -0.42553190141916275 -0.8133974857628345 0.12320508249104023
v -0.42553190141916275 -0.7633974775671959 0.20980762783437967
v -0.42553190141916275 0.4000000189989805 0.7660253904759884
v -0.42553190141916275 0.3000000026077032 0.7660253904759884
v -0.42553190141916275 0.20000000949949026 0.7660253904759884
v -0.42553190141916275 0.10000000474974513 0.7660253904759884
v -0.42553190141916275 -1.1102229998097382e-16 0.7660253904759884
v -0.42553190141916275 -0.10000000474974513 0.7660253904759884
v -0.42553190141916275 -0.20000000949949026 0.7660253904759884
v -0.42553190141916275 -0.3000000026077032 0.7660253904759884
v -0.42553190141916275 0.7767949253320694 -0.013397459406405687
v -0.42553190141916275 0.6767949089407921 0.15980761963874102
v -0.42553190141916275 0.7267949171364307 0.07320508011616766
v -0.42553190141916275 0.5767949391156435 0.3330127103254199
v -0.42553190141916275 0.6267949007451534 0.24641016498208046
v -0.42553190141916275 0.5267949309200048 0.41961525566875935
v -0.42553190141916275 0.42679491452872753 0.5928202997893095
v -0.42553190141916275 0.4767949227243662 0.5062177777290344
v -0.42553190141916275 0.37679492961615324 0.6794228684157133
v -0.42553190141916275 0.42679491452872753 -0.5928202997893095
v -0.42553190141916275 0.37679492961615324 -0.6794228684157133
v -0.42553190141916275 0.5267949309200048 -0.41961525566875935
v -0.42553190141916275 0.4767949227243662 -0.5062177777290344
v -0.42553190141916275 0.5767949391156435 -0.3330127103254199
v -0.42553190141916275 0.6767949089407921 -0.15980761963874102
v -0.42553190141916275 0.6267949007451534 -0.24641016498208046
v -0.42553190141916275 0.7267949171364307 -0.07320508011616766
v -0.42553190141916275 -0.3000000026077032 -0.6660254206508398
v -0.42553190141916275 -0.4000000189989805 -0.6660254206508398
v -0.42553190141916275 -0.20000000949949026 -0.6660254206508398
v -0.42553190141916275 -0.10000000474974513 -0.6660254206508398
v -0.42553190141916275 -4.996003809336551e-16 -0.6660254206508398
v -0.42553190141916275 0.10000000474974513 -0.6660254206508398
v -0.42553190141916275 0.3000000026077032 -0.6660254206508398
v -0.42553190141916275 0.20000000949949026 -0.6660254206508398
v -0.42553190141916275 -0.7767949253320694 0.013397459406405687
v -0.42553190141916275 -0.6267949007451534 -0.24641016498208046
v -0.42553190141916275 -0.6767949089407921 -0.15980761963874102
v -0.42553190141916275 -0.7267949171364307 -0.07320508011616766
v -0.42553190141916275 -0.5267949309200048 -0.41961525566875935
v -0.42553190141916275 -0.5767949391156435 -0.3330127103254199
v -0.42553190141916275 -0.42679491452872753 -0.5928202997893095
v -0.42553190141916275 -0.4767949227243662 -0.5062177777290344
v -0.42553190141916275 -0.42679491452872753 0.5928202997893095
v -0.42553190141916275 -0.37679492961615324 0.6794228684157133
v -0.42553190141916275 -0.5767949391156435 0.3330127103254199
v -0.42553190141916275 -0.5267949309200048 0.41961525566875935
v -0.42553190141916275 -0.4767949227243662 0.5062177777290344
v -0.42553190141916275 -0.6267949007451534 0.24641016498208046
v -0.42553190141916275 -0.7267949171364307 0.07320508011616766
v -0.42553190141916275 -0.6767949089407921 0.15980761963874102
v -0.42553190141916275 0.3000000026077032 0.6660254206508398
v -0.42553190141916275 0.20000000949949026 0.6660254206508398
v -0.42553190141916275 0.10000000474974513 0.6660254206508398
v -0.42553190141916275 -1.1102229998097382e-16 0.6660254206508398
v -0.42553190141916275 -0.10000000474974513 0.6660254206508398
v -0.42553190141916275 -0.20000000949949026 0.6660254206508398
v -0.42553190141916275 -0.3000000026077032 0.6660254206508398
v -0.42553190141916275 0.6401923950761557 0.023205080651678145
v -0.42553190141916275 0.590192386880517 0.10980762308463454
v -0.42553190141916275 0.4901923704892397 0.28301270212978125
v -0.42553190141916275 0.5401923786848783 0.1964101567864418
v -0.42553190141916275 0.39019237738102674 0.45621776953339577
v -0.42553190141916275 0.44019236229360104 0.3696152474731207
v -0.42553190141916275 0.3401923691853881 0.5428203381597996
v -0.42553190141916275 0.3401923691853881 -0.5428203381597996
v -0.42553190141916275 0.44019236229360104 -0.3696152474731207
v -0.42553190141916275 0.39019237738102674 -0.45621776953339577
v -0.42553190141916275 0.4901923704892397 -0.28301270212978125
v -0.42553190141916275 0.590192386880517 -0.10980762308463454
v -0.42553190141916275 0.5401923786848783 -0.1964101567864418
v -0.42553190141916275 -0.3000000026077032 -0.5660254042595625
v -0.42553190141916275 -0.20000000949949026 -0.5660254042595625
v -0.42553190141916275 -0.10000000474974513 -0.5660254042595625
v -0.42553190141916275 -4.996003809336551e-16 -0.5660254042595625
v -0.42553190141916275 0.10000000474974513 -0.5660254042595625
v -0.42553190141916275 0.20000000949949026 -0.5660254042595625
v -0.42553190141916275 -0.6401923950761557 -0.023205080651678145
v -0.42553190141916275 -0.5401923786848783 -0.1964101567864418
v -0.42553190141916275 -0.590192386880517 -0.10980762308463454
v -0.42553190141916275 -0.39019237738102674 -0.45621776953339577
v -0.42553190141916275 -0.44019236229360104 -0.3696152474731207
v -0.42553190141916275 -0.4901923704892397 -0.28301270212978125
v -0.42553190141916275 -0.3401923691853881 0.5428203381597996
v -0.42553190141916275 -0.5401923786848783 0.1964101567864418
v -0.42553190141916275 -0.4901923704892397 0.28301270212978125
v -0.42553190141916275 -0.44019236229360104 0.3696152474731207
v -0.42553190141916275 -0.39019237738102674 0.45621776953339577
v -0.42553190141916275 -0.590192386880517 0.10980762308463454
v -0.42553190141916275 0.20000000949949026 0.5660254042595625
v -0.42553190141916275 0.10000000474974513 0.5660254042595625
v -0.42553190141916275 -1.1102229998097382e-16 0.5660254042595625
v -0.42553190141916275 -0.10000000474974513 0.5660254042595625
v -0.42553190141916275 -0.20000000949949026 0.5660254042595625
v -0.42553190141916275 0.5035898182541132 0.05980762070976198
v -0.42553190141916275 0.5535898264497519 -0.026794918812811375
v -0.42553190141916275 0.4035898484289646 0.2330126939341426
v -0.42553190141916275 0.45358985662460327 0.14641016023233533
v -0.42553190141916275 0.253589847125113 0.4928203299641609
v -0.42553190141916275 0.3035898320376873 0.4062177613377571
v -0.42553190141916275 0.35358984023332596 0.31961523927748203
v -0.42553190141916275 0.253589847125113 -0.4928203299641609
v -0.42553190141916275 0.35358984023332596 -0.31961523927748203
v -0.42553190141916275 0.3035898320376873 -0.4062177613377571
v -0.42553190141916275 0.4035898484289646 -0.2330126939341426
v -0.42553190141916275 0.4669873043894768 -0.07679492118768394
v -0.42553190141916275 0.45358985662460327 -0.14641016023233533
v -0.42553190141916275 -0.3000000026077032 -0.4660253878682852
v -0.42553190141916275 -0.20000000949949026 -0.4660253878682852
v -0.42553190141916275 -0.10000000474974513 -0.4660253878682852
v -0.42553190141916275 -4.996003809336551e-16 -0.4660253878682852
v -0.42553190141916275 0.10000000474974513 -0.4660253878682852
v -0.42553190141916275 0.16698730178177357 -0.44282032176852226
v -0.42553190141916275 -0.5035898182541132 -0.05980762070976198
v -0.42553190141916275 -0.5535898264497519 0.026794918812811375
v -0.42553190141916275 -0.45358985662460327 -0.14641016023233533
v -0.42553190141916275 -0.3000000026077032 -0.36602539476007223
v -0.42553190141916275 -0.35358984023332596 -0.31961523927748203
v -0.42553190141916275 -0.4035898484289646 -0.2330126939341426
v -0.42553190141916275 -0.3035898320376873 0.4062177613377571
v -0.42553190141916275 -0.253589847125113 0.4928203299641609
v -0.42553190141916275 -0.45358985662460327 0.14641016023233533
v -0.42553190141916275 -0.4035898484289646 0.2330126939341426
v -0.42553190141916275 -0.35358984023332596 0.31961523927748203
v -0.42553190141916275 -0.4669873043894768 0.07679492118768394
v -0.42553190141916275 0.10000000474974513 0.4660253878682852
v -0.42553190141916275 0.16698730178177357 0.44282032176852226
v -0.42553190141916275 -1.1102229998097382e-16 0.4660253878682852
v -0.42553190141916275 -0.10000000474974513 0.4660253878682852
v -0.42553190141916275 -0.16698730178177357 0.44282032176852226
v -0.42553190141916275 0.4169872961938381 0.009807621245272458
v -0.42553190141916275 0.31698730308562517 0.18301269738003612
v -0.42553190141916275 0.36698728799819946 0.09641016367822886
v -0.42553190141916275 0.21698728669434786 0.3562177764251828
v -0.42553190141916275 0.2669872948899865 0.2696152310818434
v -0.42553190141916275 0.2669872948899865 -0.2696152310818434
v -0.42553190141916275 0.21698728669434786 -0.3562177764251828
v -0.42553190141916275 0.31698730308562517 -0.18301269738003612
v -0.42553190141916275 0.36698728799819946 -0.09641016367822886
v -0.42553190141916275 -0.20000000949949026 -0.36602539476007223
v -0.42553190141916275 -0.10000000474974513 -0.36602539476007223
v -0.42553190141916275 -4.996003809336551e-16 -0.36602539476007223
v -0.42553190141916275 0.10000000474974513 -0.36602539476007223
v -0.42553190141916275 -0.36698728799819946 -0.09641016367822886
v -0.42553190141916275 -0.4169872961938381 -0.009807621245272458
v -0.42553190141916275 -0.2669872948899865 -0.2696152310818434
v -0.42553190141916275 -0.31698730308562517 -0.18301269738003612
v -0.42553190141916275 -0.21698728669434786 0.3562177764251828
v -0.42553190141916275 -0.36698728799819946 0.09641016367822886
v -0.42553190141916275 -0.31698730308562517 0.18301269738003612
v -0.42553190141916275 -0.2669872948899865 0.2696152310818434
v -0.42553190141916275 0.10000000474974513 0.36602539476007223
v -0.42553190141916275 -1.1102229998097382e-16 0.36602539476007223
v -0.42553190141916275 -0.10000000474974513 0.36602539476007223
v -0.42553190141916275 0.2803847659379244 0.04641016130335629
v -0.42553190141916275 0.2803847659379244 -0.04641016130335629
v -0.42553190141916275 0.23038475774228573 0.13301270082592964
v -0.42553190141916275 0.10000000474974513 0.2660254016518593
v -0.42553190141916275 0.18038476118817925 0.21961524616926908
v -0.42553190141916275 0.18038476118817925 -0.21961524616926908
v -0.42553190141916275 0.10000000474974513 -0.2660254016518593
v -0.42553190141916275 0.23038475774228573 -0.13301270082592964
v -0.42553190141916275 -0.10000000474974513 -0.2660254016518593
v -0.42553190141916275 -0.18038476118817925 -0.21961524616926908
v -0.42553190141916275 -4.996003809336551e-16 -0.2660254016518593
v -0.42553190141916275 -0.2803847659379244 -0.04641016130335629
v -0.42553190141916275 -0.2803847659379244 0.04641016130335629
v -0.42553190141916275 -0.23038475774228573 -0.13301270082592964
v -0.42553190141916275 -0.18038476118817925 0.21961524616926908
v -0.42553190141916275 -0.10000000474974513 0.2660254016518593
v -0.42553190141916275 -0.23038475774228573 0.13301270082592964
v -0.42553190141916275 -1.1102229998097382e-16 0.2660254016518593
v -0.42553190141916275 0.14378221239894629 0.08301270427182317
v -0.42553190141916275 0.19378222059458494 -0.0035898385249311104
v -0.42553190141916275 0.09378221584483981 0.16961523797363043
v -0.42553190141916275 0.09378221584483981 -0.16961523797363043
v -0.42553190141916275 0.14378221239894629 -0.08301270427182317
v -0.42553190141916275 -0.10000000474974513 -0.16602540854364634
v -0.42553190141916275 -4.996003809336551e-16 -0.16602540854364634
v -0.42553190141916275 -0.19378222059458494 0.0035898385249311104
v -0.42553190141916275 -0.14378221239894629 -0.08301270427182317
v -0.42553190141916275 -0.09378221584483981 0.16961523797363043
v -0.42553190141916275 -0.14378221239894629 0.08301270427182317
v -0.42553190141916275 -1.1102229998097382e-16 0.16602540854364634
v -0.42553190141916275 0.057179678697139025 0.0330127018969506
v -0.42553190141916275 -4.996003809336551e-16 -0.0660254037939012
v -0.42553190141916275 -0.057179678697139025 0.0330127018969506
f 1 13 163 
f 13 14 163 
f 14 15 164 
f 15 16 165 
f 16 17 166 
f 17 18 167 
f 18 19 168 
f 19 20 169 
f 20 21 170 
f 21 2 171 
f 2 22 171 
f 22 23 172 
f 23 24 172 
f 24 25 173 
f 25 26 174 
f 26 27 175 
f 27 28 176 
f 28 3 177 
f 29 4 178 
f 30 29 178 
f 31 30 179 
f 32 31 180 
f 33 32 181 
f 34 33 182 
f 35 34 183 
f 36 35 184 
f 37 36 177 
f 3 37 177 
f 38 1 163 
f 39 38 186 
f 40 39 186 
f 41 40 187 
f 42 41 188 
f 43 42 189 
f 44 43 190 
f 4 44 178 
f 163 14 164 
f 164 15 165 
f 165 16 166 
f 166 17 167 
f 167 18 168 
f 168 19 169 
f 169 20 170 
f 170 21 171 
f 171 22 172 
f 172 24 173 
f 173 25 174 
f 174 26 175 
f 175 27 176 
f 176 28 177 
f 30 178 179 
f 31 179 180 
f 32 180 181 
f 33 181 182 
f 34 182 183 
f 35 183 184 
f 36 184 185 
f 177 36 185 
f 38 163 186 
f 40 186 187 
f 41 187 188 
f 42 188 189 
f 43 189 190 
f 44 190 178 
f 163 164 191 
f 164 165 191 
f 165 166 192 
f 166 167 193 
f 167 168 194 
f 168 169 195 
f 169 170 196 
f 170 171 197 
f 171 172 197 
f 172 173 198 
f 173 174 198 
f 174 175 199 
f 175 176 200 
f 176 177 201 
f 179 178 202 
f 180 179 202 
f 181 180 203 
f 182 181 204 
f 183 182 205 
f 184 183 206 
f 185 184 207 
f 177 185 201 
f 186 163 191 
f 187 186 208 
f 188 187 208 
f 189 188 209 
f 190 189 210 
f 178 190 202 
f 191 165 192 
f 192 166 193 
f 193 167 194 
f 194 168 195 
f 195 169 196 
f 196 170 197 
f 197 172 198 
f 198 174 199 
f 199 175 200 
f 200 176 201 
f 180 202 203 
f 181 203 204 
f 182 204 205 
f 183 205 206 
f 184 206 207 
f 185 207 201 
f 186 191 208 
f 188 208 209 
f 189 209 210 
f 190 210 202 
f 191 192 211 
f 192 193 211 
f 193 194 212 
f 194 195 213 
f 195 196 214 
f 196 197 215 
f 197 198 215 
f 198 199 216 
f 199 200 216 
f 200 201 217 
f 203 202 218 
f 204 203 218 
f 205 204 219 
f 206 205 220 
f 207 206 221 
f 201 207 217 
f 208 191 211 
f 209 208 222 
f 210 209 222 
f 202 210 218 
f 211 193 212 
f 212 194 213 
f 213 195 214 
f 214 196 215 
f 215 198 216 
f 216 200 217 
f 204 218 219 
f 205 219 220 
f 206 220 221 
f 207 221 217 
f 208 211 222 
f 210 222 218 
f 211 212 223 
f 212 213 223 
f 213 214 224 
f 214 215 225 
f 215 216 225 
f 216 217 221 
f 219 218 222 
f 220 219 223 
f 221 220 224 
f 222 211 223 
f 223 213 224 
f 224 214 225 
f 225 216 221 
f 219 222 223 
f 220 223 224 
f 221 224 225 
f 5 45 226 
f 45 46 226 
f 46 47 227 
f 47 48 228 
f 48 49 229 
f 49 50 230 
f 50 51 231 
f 51 52 232 
f 52 53 233 
f 53 1 234 
f 1 38 234 
f 38 39 235 
f 39 40 235 
f 40 41 236 
f 41 42 237 
f 42 43 238 
f 43 44 239 
f 44 4 240 
f 54 6 241 
f 55 54 241 
f 56 55 242 
f 57 56 243 
f 58 57 244 
f 59 58 245 
f 60 59 246 
f 61 60 247 
f 62 61 240 
f 4 62 240 
f 63 5 226 
f 64 63 249 
f 65 64 249 
f 66 65 250 
f 67 66 251 
f 68 67 252 
f 69 68 253 
f 6 69 241 
f 226 46 227 
f 227 47 228 
f 228 48 229 
f 229 49 230 
f 230 50 231 
f 231 51 232 
f 232 52 233 
f 233 53 234 
f 234 38 235 
f 235 40 236 
f 236 41 237 
f 237 42 238 
f 238 43 239 
f 239 44 240 
f 55 241 242 
f 56 242 243 
f 57 243 244 
f 58 244 245 
f 59 245 246 
f 60 246 247 
f 61 247 248 
f 240 61 248 
f 63 226 249 
f 65 249 250 
f 66 250 251 
f 67 251 252 
f 68 252 253 
f 69 253 241 
f 226 227 254 
f 227 228 254 
f 228 229 255 
f 229 230 256 
f 230 231 257 
f 231 232 258 
f 232 233 259 
f 233 234 260 
f 234 235 260 
f 235 236 261 
f 236 237 261 
f 237 238 262 
f 238 239 263 
f 239 240 264 
f 242 241 265 
f 243 242 265 
f 244 243 266 
f 245 244 267 
f 246 245 268 
f 247 246 269 
f 248 247 270 
f 240 248 264 
f 249 226 254 
f 250 249 271 
f 251 250 271 
f 252 251 272 
f 253 252 273 
f 241 253 265 
f 254 228 255 
f 255 229 256 
f 256 230 257 
f 257 231 258 
f 258 232 259 
f 259 233 260 
f 260 235 261 
f 261 237 262 
f 262 238 263 
f 263 239 264 
f 243 265 266 
f 244 266 267 
f 245 267 268 
f 246 268 269 
f 247 269 270 
f 248 270 264 
f 249 254 271 
f 251 271 272 
f 252 272 273 
f 253 273 265 
f 254 255 274 
f 255 256 274 
f 256 257 275 
f 257 258 276 
f 258 259 277 
f 259 260 278 
f 260 261 278 
f 261 262 279 
f 262 263 279 
f 263 264 280 
f 266 265 281 
f 267 266 281 
f 268 267 282 
f 269 268 283 
f 270 269 284 
f 264 270 280 
f 271 254 274 
f 272 271 285 
f 273 272 285 
f 265 273 281 
f 274 256 275 
f 275 257 276 
f 276 258 277 
f 277 259 278 
f 278 261 279 
f 279 263 280 
f 267 281 282 
f 268 282 283 
f 269 283 284 
f 270 284 280 
f 271 274 285 
f 273 285 281 
f 274 275 286 
f 275 276 286 
f 276 277 287 
f 277 278 288 
f 278 279 288 
f 279 280 284 
f 282 281 285 
f 283 282 286 
f 284 283 287 
f 285 274 286 
f 286 276 287 
f 287 277 288 
f 288 279 284 
f 282 285 286 
f 283 286 287 
f 284 287 288 
f 7 70 289 
f 70 71 289 
f 71 72 290 
f 72 73 291 
f 73 74 292 
f 74 75 293 
f 75 76 294 
f 76 77 295 
f 77 78 296 
f 78 5 297 
f 5 63 297 
f 63 64 298 
f 64 65 298 
f 65 66 299 
f 66 67 300 
f 67 68 301 
f 68 69 302 
f 69 6 303 
f 79 8 304 
f 80 79 304 
f 81 80 305 
f 82 81 306 
f 83 82 307 
f 84 83 308 
f 85 84 309 
f 86 85 310 
f 87 86 303 
f 6 87 303 
f 88 7 289 
f 89 88 312 
f 90 89 312 
f 91 90 313 
f 92 91 314 
f 93 92 315 
f 94 93 316 
f 8 94 304 
f 289 71 290 
f 290 72 291 
f 291 73 292 
f 292 74 293 
f 293 75 294 
f 294 76 295 
f 295 77 296 
f 296 78 297 
f 297 63 298 
f 298 65 299 
f 299 66 300 
f 300 67 301 
f 301 68 302 
f 302 69 303 
f 80 304 305 
f 81 305 306 
f 82 306 307 
f 83 307 308 
f 84 308 309 
f 85 309 310 
f 86 310 311 
f 303 86 311 
f 88 289 312 
f 90 312 313 
f 91 313 314 
f 92 314 315 
f 93 315 316 
f 94 316 304 
f 289 290 317 
f 290 291 317 
f 291 292 318 
f 292 293 319 
f 293 294 320 
f 294 295 321 
f 295 296 322 
f 296 297 323 
f 297 298 323 
f 298 299 324 
f 299 300 324 
f 300 301 325 
f 301 302 326 
f 302 303 327 
f 305 304 328 
f 306 305 328 
f 307 306 329 
f 308 307 330 
f 309 308 331 
f 310 309 332 
f 311 310 333 
f 303 311 327 
f 312 289 317 
f 313 312 334 
f 314 313 334 
f 315 314 335 
f 316 315 336 
f 304 316 328 
f 317 291 318 
f 318 292 319 
f 319 293 320 
f 320 294 321 
f 321 295 322 
f 322 296 323 
f 323 298 324 
f 324 300 325 
f 325 301 326 
f 326 302 327 
f 306 328 329 
f 307 329 330 
f 308 330 331 
f 309 331 332 
f 310 332 333 
f 311 333 327 
f 312 317 334 
f 314 334 335 
f 315 335 336 
f 316 336 328 
f 317 318 337 
f 318 319 337 
f 319 320 338 
f 320 321 339 
f 321 322 340 
f 322 323 341 
f 323 324 341 
f 324 325 342 
f 325 326 342 
f 326 327 343 
f 329 328 344 
f 330 329 344 
f 331 330 345 
f 332 331 346 
f 333 332 347 
f 327 333 343 
f 334 317 337 
f 335 334 348 
f 336 335 348 
f 328 336 344 
f 337 319 338 
f 338 320 339 
f 339 321 340 
f 340 322 341 
f 341 324 342 
f 342 326 343 
f 330 344 345 
f 331 345 346 
f 332 346 347 
f 333 347 343 
f 334 337 348 
f 336 348 344 
f 337 338 349 
f 338 339 349 
f 339 340 350 
f 340 341 351 
f 341 342 351 
f 342 343 347 
f 345 344 348 
f 346 345 349 
f 347 346 350 
f 348 337 349 
f 349 339 350 
f 350 340 351 
f 351 342 347 
f 345 348 349 
f 346 349 350 
f 347 350 351 
f 9 95 352 
f 95 96 352 
f 96 97 353 
f 97 98 354 
f 98 99 355 
f 99 100 356 
f 100 101 357 
f 101 102 358 
f 102 103 359 
f 103 7 360 
f 7 88 360 
f 88 89 361 
f 89 90 361 
f 90 91 362 
f 91 92 363 
f 92 93 364 
f 93 94 365 
f 94 8 366 
f 104 10 367 
f 105 104 367 
f 106 105 368 
f 107 106 369 
f 108 107 370 
f 109 108 371 
f 110 109 372 
f 111 110 373 
f 112 111 366 
f 8 112 366 
f 113 9 352 
f 114 113 375 
f 115 114 375 
f 116 115 376 
f 117 116 377 
f 118 117 378 
f 119 118 379 
f 10 119 367 
f 352 96 353 
f 353 97 354 
f 354 98 355 
f 355 99 356 
f 356 100 357 
f 357 101 358 
f 358 102 359 
f 359 103 360 
f 360 88 361 
f 361 90 362 
f 362 91 363 
f 363 92 364 
f 364 93 365 
f 365 94 366 
f 105 367 368 
f 106 368 369 
f 107 369 370 
f 108 370 371 
f 109 371 372 
f 110 372 373 
f 111 373 374 
f 366 111 374 
f 113 352 375 
f 115 375 376 
f 116 376 377 
f 117 377 378 
f 118 378 379 
f 119 379 367 
f 352 353 380 
f 353 354 380 
f 354 355 381 
f 355 356 382 
f 356 357 383 
f 357 358 384 
f 358 359 385 
f 359 360 386 
f 360 361 386 
f 361 362 387 
f 362 363 387 
f 363 364 388 
f 364 365 389 
f 365 366 390 
f 368 367 391 
f 369 368 391 
f 370 369 392 
f 371 370 393 
f 372 371 394 
f 373 372 395 
f 374 373 396 
f 366 374 390 
f 375 352 380 
f 376 375 397 
f 377 376 397 
f 378 377 398 
f 379 378 399 
f 367 379 391 
f 380 354 381 
f 381 355 382 
f 382 356 383 
f 383 357 384 
f 384 358 385 
f 385 359 386 
f 386 361 387 
f 387 363 388 
f 388 364 389 
f 389 365 390 
f 369 391 392 
f 370 392 393 
f 371 393 394 
f 372 394 395 
f 373 395 396 
f 374 396 390 
f 375 380 397 
f 377 397 398 
f 378 398 399 
f 379 399 391 
f 380 381 400 
f 381 382 400 
f 382 383 401 
f 383 384 402 
f 384 385 403 
f 385 386 404 
f 386 387 404 
f 387 388 405 
f 388 389 405 
f 389 390 406 
f 392 391 407 
f 393 392 407 
f 394 393 408 
f 395 394 409 
f 396 395 410 
f 390 396 406 
f 397 380 400 
f 398 397 411 
f 399 398 411 
f 391 399 407 
f 400 382 401 
f 401 383 402 
f 402 384 403 
f 403 385 404 
f 404 387 405 
f 405 389 406 
f 393 407 408 
f 394 408 409 
f 395 409 410 
f 396 410 406 
f 397 400 411 
f 399 411 407 
f 400 401 412 
f 401 402 412 
f 402 403 413 
f 403 404 414 
f 404 405 414 
f 405 406 410 
f 408 407 411 
f 409 408 412 
f 410 409 413 
f 411 400 412 
f 412 402 413 
f 413 403 414 
f 414 405 410 
f 408 411 412 
f 409 412 413 
f 410 413 414 
f 11 120 415 
f 120 121 415 
f 121 122 416 
f 122 123 417 
f 123 124 418 
f 124 125 419 
f 125 126 420 
f 126 127 421 
f 127 128 422 
f 128 9 423 
f 9 113 423 
f 113 114 424 
f 114 115 424 
f 115 116 425 
f 116 117 426 
f 117 118 427 
f 118 119 428 
f 119 10 429 
f 129 12 430 
f 130 129 430 
f 131 130 431 
f 132 131 432 
f 133 132 433 
f 134 133 434 
f 135 134 435 
f 136 135 436 
f 137 136 429 
f 10 137 429 
f 138 11 415 
f 139 138 438 
f 140 139 438 
f 141 140 439 
f 142 141 440 
f 143 142 441 
f 144 143 442 
f 12 144 430 
f 415 121 416 
f 416 122 417 
f 417 123 418 
f 418 124 419 
f 419 125 420 
f 420 126 421 
f 421 127 422 
f 422 128 423 
f 423 113 424 
f 424 115 425 
f 425 116 426 
f 426 117 427 
f 427 118 428 
f 428 119 429 
f 130 430 431 
f 131 431 432 
f 132 432 433 
f 133 433 434 
f 134 434 435 
f 135 435 436 
f 136 436 437 
f 429 136 437 
f 138 415 438 
f 140 438 439 
f 141 439 440 
f 142 440 441 
f 143 441 442 
f 144 442 430 
f 415 416 443 
f 416 417 443 
f 417 418 444 
f 418 419 445 
f 419 420 446 
f 420 421 447 
f 421 422 448 
f 422 423 449 
f 423 424 449 
f 424 425 450 
f 425 426 450 
f 426 427 451 
f 427 428 452 
f 428 429 453 
f 431 430 454 
f 432 431 454 
f 433 432 455 
f 434 433 456 
f 435 434 457 
f 436 435 458 
f 437 436 459 
f 429 437 453 
f 438 415 443 
f 439 438 460 
f 440 439 460 
f 441 440 461 
f 442 441 462 
f 430 442 454 
f 443 417 444 
f 444 418 445 
f 445 419 446 
f 446 420 447 
f 447 421 448 
f 448 422 449 
f 449 424 450 
f 450 426 451 
f 451 427 452 
f 452 428 453 
f 432 454 455 
f 433 455 456 
f 434 456 457 
f 435 457 458 
f 436 458 459 
f 437 459 453 
f 438 443 460 
f 440 460 461 
f 441 461 462 
f 442 462 454 
f 443 444 463 
f 444 445 463 
f 445 446 464 
f 446 447 465 
f 447 448 466 
f 448 449 467 
f 449 450 467 
f 450 451 468 
f 451 452 468 
f 452 453 469 
f 455 454 470 
f 456 455 470 
f 457 456 471 
f 458 457 472 
f 459 458 473 
f 453 459 469 
f 460 443 463 
f 461 460 474 
f 462 461 474 
f 454 462 470 
f 463 445 464 
f 464 446 465 
f 465 447 466 
f 466 448 467 
f 467 450 468 
f 468 452 469 
f 456 470 471 
f 457 471 472 
f 458 472 473 
f 459 473 469 
f 460 463 474 
f 462 474 470 
f 463 464 475 
f 464 465 475 
f 465 466 476 
f 466 467 477 
f 467 468 477 
f 468 469 473 
f 471 470 474 
f 472 471 475 
f 473 472 476 
f 474 463 475 
f 475 465 476 
f 476 466 477 
f 477 468 473 
f 471 474 475 
f 472 475 476 
f 473 476 477 
f 2 145 478 
f 145 146 478 
f 146 147 479 
f 147 148 480 
f 148 149 481 
f 149 150 482 
f 150 151 483 
f 151 152 484 
f 152 153 485 
f 153 11 486 
f 11 138 486 
f 138 139 487 
f 139 140 487 
f 140 141 488 
f 141 142 489 
f 142 143 490 
f 143 144 491 
f 144 12 492 
f 154 3 493 
f 155 154 493 
f 156 155 494 
f 157 156 495 
f 158 157 496 
f 159 158 497 
f 160 159 498 
f 161 160 499 
f 162 161 492 
f 12 162 492 
f 22 2 478 
f 23 22 501 
f 24 23 501 
f 25 24 502 
f 26 25 503 
f 27 26 504 
f 28 27 505 
f 3 28 493 
f 478 146 479 
f 479 147 480 
f 480 148 481 
f 481 149 482 
f 482 150 483 
f 483 151 484 
f 484 152 485 
f 485 153 486 
f 486 138 487 
f 487 140 488 
f 488 141 489 
f 489 142 490 
f 490 143 491 
f 491 144 492 
f 155 493 494 
f 156 494 495 
f 157 495 496 
f 158 496 497 
f 159 497 498 
f 160 498 499 
f 161 499 500 
f 492 161 500 
f 22 478 501 
f 24 501 502 
f 25 502 503 
f 26 503 504 
f 27 504 505 
f 28 505 493 
f 478 479 506 
f 479 480 506 
f 480 481 507 
f 481 482 508 
f 482 483 509 
f 483 484 510 
f 484 485 511 
f 485 486 512 
f 486 487 512 
f 487 488 513 
f 488 489 513 
f 489 490 514 
f 490 491 515 
f 491 492 516 
f 494 493 517 
f 495 494 517 
f 496 495 518 
f 497 496 519 
f 498 497 520 
f 499 498 521 
f 500 499 522 
f 492 500 516 
f 501 478 506 
f 502 501 523 
f 503 502 523 
f 504 503 524 
f 505 504 525 
f 493 505 517 
f 506 480 507 
f 507 481 508 
f 508 482 509 
f 509 483 510 
f 510 484 511 
f 511 485 512 
f 512 487 513 
f 513 489 514 
f 514 490 515 
f 515 491 516 
f 495 517 518 
f 496 518 519 
f 497 519 520 
f 498 520 521 
f 499 521 522 
f 500 522 516 
f 501 506 523 
f 503 523 524 
f 504 524 525 
f 505 525 517 
f 506 507 526 
f 507 508 526 
f 508 509 527 
f 509 510 528 
f 510 511 529 
f 511 512 530 
f 512 513 530 
f 513 514 531 
f 514 515 531 
f 515 516 532 
f 518 517 533 
f 519 518 533 
f 520 519 534 
f 521 520 535 
f 522 521 536 
f 516 522 532 
f 523 506 526 
f 524 523 537 
f 525 524 537 
f 517 525 533 
f 526 508 527 
f 527 509 528 
f 528 510 529 
f 529 511 530 
f 530 513 531 
f 531 515 532 
f 519 533 534 
f 520 534 535 
f 521 535 536 
f 522 536 532 
f 523 526 537 
f 525 537 533 
f 526 527 538 
f 527 528 538 
f 528 529 539 
f 529 530 540 
f 530 531 540 
f 531 532 536 
f 534 533 537 
f 535 534 538 
f 536 535 539 
f 537 526 538 
f 538 528 539 
f 539 529 540 
f 540 531 536 
f 534 537 538 
f 535 538 539 
f 536 539 540 
f 3 154 541 
f 154 155 541 
f 155 156 543 
f 156 157 543 
f 157 158 545 
f 158 159 545 
f 159 160 547 
f 160 161 548 
f 161 162 548 
f 162 12 550 
f 12 129 551 
f 129 130 551 
f 130 131 552 
f 131 132 553 
f 132 133 554 
f 133 134 555 
f 134 135 556 
f 135 136 557 
f 136 137 558 
f 137 10 559 
f 10 104 560 
f 104 105 561 
f 105 106 561 
f 106 107 562 
f 107 108 564 
f 108 109 564 
f 109 110 565 
f 110 111 566 
f 111 112 568 
f 112 8 568 
f 8 79 569 
f 79 80 569 
f 80 81 570 
f 81 82 572 
f 82 83 572 
f 83 84 573 
f 84 85 573 
f 85 86 575 
f 86 87 577 
f 87 6 577 
f 6 54 578 
f 54 55 579 
f 55 56 579 
f 56 57 580 
f 57 58 581 
f 58 59 582 
f 59 60 583 
f 60 61 584 
f 61 62 584 
f 62 4 586 
f 4 29 587 
f 29 30 588 
f 30 31 588 
f 31 32 589 
f 32 33 589 
f 33 34 591 
f 34 35 592 
f 35 36 592 
f 36 37 542 
f 37 3 542 
f 3 541 542 
f 541 155 544 
f 155 543 544 
f 543 157 546 
f 157 545 546 
f 545 159 547 
f 547 160 549 
f 160 548 549 
f 548 162 550 
f 550 12 551 
f 551 130 552 
f 552 131 553 
f 553 132 554 
f 554 133 555 
f 555 134 556 
f 556 135 557 
f 557 136 558 
f 558 137 559 
f 559 10 560 
f 560 104 561 
f 561 106 563 
f 562 107 564 
f 106 562 563 
f 564 109 565 
f 565 110 567 
f 566 111 568 
f 110 566 567 
f 568 8 569 
f 569 80 571 
f 570 81 572 
f 80 570 571 
f 572 83 574 
f 83 573 574 
f 573 85 576 
f 575 86 577 
f 85 575 576 
f 577 6 578 
f 578 54 579 
f 579 56 580 
f 580 57 581 
f 581 58 582 
f 582 59 583 
f 583 60 585 
f 60 584 585 
f 584 62 586 
f 586 4 587 
f 587 29 588 
f 588 31 590 
f 31 589 590 
f 589 33 591 
f 591 34 593 
f 34 592 593 
f 592 36 594 
f 36 542 594 
f 542 541 595 
f 541 544 595 
f 544 543 596 
f 543 546 596 
f 546 545 598 
f 545 547 598 
f 547 549 600 
f 549 548 602 
f 548 550 601 
f 550 551 603 
f 551 552 603 
f 552 553 604 
f 553 554 605 
f 554 555 606 
f 555 556 607 
f 556 557 608 
f 557 558 609 
f 558 559 610 
f 559 560 611 
f 560 561 611 
f 561 563 612 
f 562 564 613 
f 563 562 615 
f 564 565 613 
f 565 567 616 
f 566 568 617 
f 567 566 617 
f 568 569 619 
f 569 571 619 
f 570 572 620 
f 571 570 621 
f 572 574 620 
f 574 573 624 
f 573 576 623 
f 575 577 625 
f 576 575 626 
f 577 578 625 
f 578 579 625 
f 579 580 628 
f 580 581 629 
f 581 582 630 
f 582 583 631 
f 583 585 632 
f 585 584 633 
f 584 586 633 
f 586 587 635 
f 587 588 635 
f 588 590 636 
f 590 589 637 
f 589 591 637 
f 591 593 639 
f 593 592 640 
f 592 594 640 
f 594 542 595 
f 595 544 597 
f 544 596 597 
f 596 546 599 
f 546 598 599 
f 598 547 600 
f 600 549 602 
f 602 548 601 
f 601 550 603 
f 603 552 604 
f 604 553 605 
f 605 554 606 
f 606 555 607 
f 607 556 608 
f 608 557 609 
f 609 558 610 
f 610 559 611 
f 611 561 612 
f 612 563 615 
f 562 613 614 
f 615 562 614 
f 613 565 616 
f 616 567 618 
f 617 568 619 
f 567 617 618 
f 619 571 622 
f 570 620 621 
f 571 621 622 
f 620 574 624 
f 624 573 623 
f 623 576 627 
f 575 625 626 
f 576 626 627 
f 625 579 628 
f 628 580 629 
f 629 581 630 
f 630 582 631 
f 631 583 632 
f 632 585 634 
f 585 633 634 
f 633 586 635 
f 635 588 636 
f 636 590 638 
f 590 637 638 
f 637 591 639 
f 639 593 641 
f 593 640 641 
f 640 594 642 
f 594 595 642 
f 595 597 643 
f 597 596 644 
f 596 599 644 
f 599 598 645 
f 598 600 645 
f 600 602 647 
f 602 601 649 
f 601 603 649 
f 603 604 649 
f 604 605 650 
f 605 606 650 
f 606 607 651 
f 607 608 652 
f 608 609 653 
f 609 610 654 
f 610 611 655 
f 611 612 655 
f 612 615 656 
f 614 613 659 
f 615 614 656 
f 613 616 657 
f 616 618 657 
f 617 619 660 
f 618 617 660 
f 619 622 660 
f 621 620 662 
f 622 621 663 
f 620 624 662 
f 624 623 665 
f 623 627 664 
f 626 625 667 
f 627 626 667 
f 625 628 667 
f 628 629 668 
f 629 630 668 
f 630 631 669 
f 631 632 670 
f 632 634 671 
f 634 633 672 
f 633 635 672 
f 635 636 672 
f 636 638 674 
f 638 637 675 
f 637 639 675 
f 639 641 676 
f 641 640 677 
f 640 642 677 
f 642 595 643 
f 643 597 644 
f 644 599 646 
f 599 645 646 
f 645 600 648 
f 647 602 649 
f 600 647 648 
f 649 604 650 
f 650 606 651 
f 651 607 652 
f 652 608 653 
f 653 609 654 
f 654 610 655 
f 655 612 656 
f 659 613 658 
f 614 659 656 
f 613 657 658 
f 657 618 661 
f 618 660 661 
f 660 622 663 
f 621 662 663 
f 662 624 666 
f 665 623 664 
f 624 665 666 
f 664 627 667 
f 667 628 668 
f 668 630 669 
f 669 631 670 
f 670 632 671 
f 671 634 673 
f 634 672 673 
f 672 636 674 
f 674 638 675 
f 675 639 676 
f 676 641 678 
f 641 677 678 
f 677 642 643 
f 643 644 679 
f 644 646 679 
f 646 645 681 
f 645 648 681 
f 647 649 683 
f 648 647 685 
f 649 650 683 
f 650 651 686 
f 651 652 686 
f 652 653 688 
f 653 654 689 
f 654 655 690 
f 655 656 691 
f 659 658 692 
f 656 659 692 
f 658 657 694 
f 657 661 694 
f 661 660 696 
f 660 663 696 
f 663 662 698 
f 662 666 698 
f 665 664 702 
f 666 665 702 
f 664 667 700 
f 667 668 700 
f 668 669 704 
f 669 670 704 
f 670 671 706 
f 671 673 707 
f 673 672 708 
f 672 674 708 
f 674 675 710 
f 675 676 710 
f 676 678 712 
f 678 677 714 
f 677 643 680 
f 643 679 680 
f 679 646 682 
f 646 681 682 
f 681 648 685 
f 647 683 684 
f 685 647 684 
f 683 650 687 
f 650 686 687 
f 686 652 688 
f 688 653 689 
f 689 654 690 
f 690 655 691 
f 691 656 693 
f 692 658 695 
f 656 692 693 
f 658 694 695 
f 694 661 697 
f 661 696 697 
f 696 663 699 
f 663 698 699 
f 698 666 703 
f 702 664 701 
f 666 702 703 
f 664 700 701 
f 700 668 705 
f 668 704 705 
f 704 670 706 
f 706 671 707 
f 707 673 709 
f 673 708 709 
f 708 674 711 
f 674 710 711 
f 710 676 712 
f 712 678 714 
f 714 677 713 
f 677 680 713 
f 680 679 715 
f 679 682 715 
f 682 681 716 
f 681 685 716 
f 684 683 687 
f 685 684 719 
f 687 686 720 
f 686 688 720 
f 688 689 721 
f 689 690 722 
f 690 691 723 
f 691 693 723 
f 692 695 724 
f 693 692 725 
f 695 694 726 
f 694 697 726 
f 697 696 699 
f 699 698 728 
f 698 703 728 
f 702 701 730 
f 703 702 730 
f 701 700 729 
f 700 705 729 
f 705 704 732 
f 704 706 732 
f 706 707 733 
f 707 709 734 
f 709 708 711 
f 711 710 736 
f 710 712 736 
f 712 714 737 
f 714 713 738 
f 713 680 715 
f 715 682 717 
f 682 716 717 
f 716 685 719 
f 684 687 718 
f 719 684 718 
f 687 720 718 
f 720 688 721 
f 721 689 722 
f 722 690 723 
f 723 693 725 
f 724 695 726 
f 692 724 725 
f 726 697 727 
f 697 699 727 
f 699 728 727 
f 728 703 731 
f 730 701 729 
f 703 730 731 
f 729 705 732 
f 732 706 733 
f 733 707 734 
f 734 709 735 
f 709 711 735 
f 711 736 735 
f 736 712 737 
f 737 714 738 
f 738 713 715 
f 715 717 739 
f 717 716 741 
f 716 719 741 
f 719 718 743 
f 718 720 742 
f 720 721 742 
f 721 722 744 
f 722 723 745 
f 723 725 746 
f 724 726 747 
f 725 724 746 
f 726 727 747 
f 727 728 749 
f 728 731 749 
f 730 729 751 
f 731 730 751 
f 729 732 750 
f 732 733 750 
f 733 734 753 
f 734 735 754 
f 735 736 755 
f 736 737 755 
f 737 738 756 
f 738 715 740 
f 739 717 741 
f 715 739 740 
f 741 719 743 
f 743 718 742 
f 742 721 744 
f 744 722 745 
f 745 723 746 
f 724 747 748 
f 746 724 748 
f 747 727 749 
f 749 731 752 
f 751 729 750 
f 731 751 752 
f 750 733 753 
f 753 734 754 
f 754 735 755 
f 755 737 756 
f 756 738 740 
f 739 741 757 
f 740 739 758 
f 741 743 757 
f 743 742 759 
f 742 744 759 
f 744 745 760 
f 745 746 761 
f 748 747 762 
f 746 748 761 
f 747 749 762 
f 749 752 762 
f 751 750 764 
f 752 751 764 
f 750 753 764 
f 753 754 766 
f 754 755 767 
f 755 756 767 
f 756 740 758 
f 739 757 758 
f 757 743 759 
f 759 744 760 
f 760 745 761 
f 748 762 763 
f 761 748 763 
f 762 752 765 
f 752 764 765 
f 764 753 766 
f 766 754 767 
f 767 756 768 
f 756 758 768 
f 758 757 769 
f 757 759 769 
f 759 760 769 
f 760 761 770 
f 763 762 770 
f 761 763 770 
f 762 765 770 
f 765 764 771 
f 764 766 771 
f 766 767 771 
f 767 768 771 
f 768 758 769 
f 769 760 770 
f 770 765 771 
f 771 768 769 
f 769 770 771 
f 2 772 145 
f 145 772 146 
f 146 774 147 
f 147 774 148 
f 148 776 149 
f 149 776 150 
f 150 778 151 
f 151 779 152 
f 152 779 153 
f 153 781 11 
f 1 782 13 
f 13 784 14 
f 14 784 15 
f 15 785 16 
f 16 785 17 
f 17 787 18 
f 18 788 19 
f 19 788 20 
f 20 773 21 
f 21 773 2 
f 5 791 45 
f 45 793 46 
f 46 793 47 
f 47 794 48 
f 48 795 49 
f 49 796 50 
f 50 797 51 
f 51 798 52 
f 52 798 53 
f 53 783 1 
f 7 800 70 
f 70 800 71 
f 71 802 72 
f 72 804 73 
f 73 804 74 
f 74 805 75 
f 75 805 76 
f 76 807 77 
f 77 807 78 
f 78 792 5 
f 9 809 95 
f 95 811 96 
f 96 811 97 
f 97 812 98 
f 98 814 99 
f 99 814 100 
f 100 815 101 
f 101 816 102 
f 102 801 103 
f 103 801 7 
f 11 818 120 
f 120 818 121 
f 121 819 122 
f 122 820 123 
f 123 821 124 
f 124 822 125 
f 125 823 126 
f 126 824 127 
f 127 810 128 
f 128 810 9 
f 2 773 772 
f 772 775 146 
f 146 775 774 
f 774 777 148 
f 148 777 776 
f 776 778 150 
f 778 780 151 
f 151 780 779 
f 779 781 153 
f 781 818 11 
f 782 784 13 
f 1 783 782 
f 784 786 15 
f 15 786 785 
f 785 787 17 
f 787 789 18 
f 18 789 788 
f 788 790 20 
f 20 790 773 
f 791 793 45 
f 5 792 791 
f 793 794 47 
f 794 795 48 
f 795 796 49 
f 796 797 50 
f 797 799 51 
f 51 799 798 
f 798 783 53 
f 7 801 800 
f 800 803 71 
f 802 804 72 
f 71 803 802 
f 804 806 74 
f 74 806 805 
f 805 808 76 
f 76 808 807 
f 807 792 78 
f 809 811 95 
f 9 810 809 
f 811 813 97 
f 812 814 98 
f 97 813 812 
f 814 815 100 
f 815 817 101 
f 816 801 102 
f 101 817 816 
f 818 819 121 
f 819 820 122 
f 820 821 123 
f 821 822 124 
f 822 823 125 
f 823 824 126 
f 824 825 127 
f 127 825 810 
f 773 826 772 
f 772 826 775 
f 775 827 774 
f 774 827 777 
f 777 829 776 
f 776 829 778 
f 778 831 780 
f 780 833 779 
f 779 832 781 
f 781 834 818 
f 782 835 784 
f 783 836 782 
f 784 835 786 
f 786 837 785 
f 785 837 787 
f 787 839 789 
f 789 840 788 
f 788 840 790 
f 790 826 773 
f 791 843 793 
f 792 844 791 
f 793 843 794 
f 794 845 795 
f 795 846 796 
f 796 847 797 
f 797 848 799 
f 799 849 798 
f 798 836 783 
f 801 851 800 
f 800 851 803 
f 802 852 804 
f 803 853 802 
f 804 852 806 
f 806 856 805 
f 805 855 808 
f 808 857 807 
f 807 844 792 
f 809 859 811 
f 810 860 809 
f 811 859 813 
f 812 861 814 
f 813 863 812 
f 814 861 815 
f 815 864 817 
f 816 851 801 
f 817 865 816 
f 818 834 819 
f 819 867 820 
f 820 868 821 
f 821 869 822 
f 822 870 823 
f 823 871 824 
f 824 872 825 
f 825 860 810 
f 826 828 775 
f 775 828 827 
f 827 830 777 
f 777 830 829 
f 829 831 778 
f 831 833 780 
f 833 832 779 
f 832 834 781 
f 782 836 835 
f 835 838 786 
f 786 838 837 
f 837 839 787 
f 839 841 789 
f 789 841 840 
f 840 842 790 
f 790 842 826 
f 791 844 843 
f 843 845 794 
f 845 846 795 
f 846 847 796 
f 847 848 797 
f 848 850 799 
f 849 836 798 
f 799 850 849 
f 851 854 803 
f 802 853 852 
f 803 854 853 
f 852 856 806 
f 856 855 805 
f 855 858 808 
f 857 844 807 
f 808 858 857 
f 809 860 859 
f 859 863 813 
f 812 862 861 
f 863 862 812 
f 861 864 815 
f 864 866 817 
f 816 865 851 
f 817 866 865 
f 834 867 819 
f 867 868 820 
f 868 869 821 
f 869 870 822 
f 870 871 823 
f 871 872 824 
f 872 873 825 
f 825 873 860 
f 826 874 828 
f 828 875 827 
f 827 875 830 
f 830 876 829 
f 829 876 831 
f 831 878 833 
f 833 880 832 
f 832 880 834 
f 836 881 835 
f 835 881 838 
f 838 882 837 
f 837 882 839 
f 839 884 841 
f 841 885 840 
f 840 885 842 
f 842 874 826 
f 844 887 843 
f 843 887 845 
f 845 888 846 
f 846 889 847 
f 847 890 848 
f 848 891 850 
f 849 881 836 
f 850 892 849 
f 851 893 854 
f 853 894 852 
f 854 895 853 
f 852 894 856 
f 856 897 855 
f 855 896 858 
f 857 887 844 
f 858 896 857 
f 860 899 859 
f 859 899 863 
f 862 902 861 
f 863 903 862 
f 861 900 864 
f 864 900 866 
f 865 893 851 
f 866 904 865 
f 834 880 867 
f 867 905 868 
f 868 905 869 
f 869 906 870 
f 870 907 871 
f 871 908 872 
f 872 909 873 
f 873 899 860 
f 874 875 828 
f 875 877 830 
f 830 877 876 
f 876 879 831 
f 878 880 833 
f 831 879 878 
f 881 883 838 
f 838 883 882 
f 882 884 839 
f 884 886 841 
f 841 886 885 
f 885 874 842 
f 887 888 845 
f 888 889 846 
f 889 890 847 
f 890 891 848 
f 891 892 850 
f 849 892 881 
f 893 895 854 
f 853 895 894 
f 894 898 856 
f 897 896 855 
f 856 898 897 
f 857 896 887 
f 899 903 863 
f 902 901 861 
f 862 903 902 
f 861 901 900 
f 900 904 866 
f 865 904 893 
f 880 905 867 
f 905 906 869 
f 906 907 870 
f 907 908 871 
f 908 909 872 
f 909 899 873 
f 874 910 875 
f 875 910 877 
f 877 912 876 
f 876 912 879 
f 878 914 880 
f 879 916 878 
f 881 917 883 
f 883 918 882 
f 882 918 884 
f 884 920 886 
f 886 922 885 
f 885 911 874 
f 887 923 888 
f 888 924 889 
f 889 925 890 
f 890 926 891 
f 891 927 892 
f 892 917 881 
f 893 929 895 
f 895 929 894 
f 894 931 898 
f 897 933 896 
f 898 933 897 
f 896 923 887 
f 899 935 903 
f 902 939 901 
f 903 935 902 
f 901 937 900 
f 900 937 904 
f 904 930 893 
f 880 914 905 
f 905 941 906 
f 906 941 907 
f 907 943 908 
f 908 944 909 
f 909 936 899 
f 874 911 910 
f 910 913 877 
f 877 913 912 
f 912 916 879 
f 878 915 914 
f 916 915 878 
f 917 919 883 
f 883 919 918 
f 918 920 884 
f 920 922 886 
f 922 921 885 
f 885 921 911 
f 923 924 888 
f 924 925 889 
f 925 926 890 
f 926 927 891 
f 927 928 892 
f 892 928 917 
f 893 930 929 
f 929 931 894 
f 931 934 898 
f 933 932 896 
f 898 934 933 
f 896 932 923 
f 899 936 935 
f 939 938 901 
f 902 935 939 
f 901 938 937 
f 937 940 904 
f 904 940 930 
f 914 942 905 
f 905 942 941 
f 941 943 907 
f 943 944 908 
f 944 945 909 
f 909 945 936 
f 911 946 910 
f 910 946 913 
f 913 947 912 
f 912 947 916 
f 915 942 914 
f 916 950 915 
f 917 928 919 
f 919 951 918 
f 918 951 920 
f 920 953 922 
f 922 954 921 
f 921 946 911 
f 923 932 924 
f 924 955 925 
f 925 956 926 
f 926 957 927 
f 927 958 928 
f 930 960 929 
f 929 959 931 
f 931 959 934 
f 933 961 932 
f 934 961 933 
f 936 963 935 
f 939 965 938 
f 935 963 939 
f 938 964 937 
f 937 964 940 
f 940 960 930 
f 942 967 941 
f 941 967 943 
f 943 968 944 
f 944 969 945 
f 945 963 936 
f 946 948 913 
f 913 948 947 
f 947 950 916 
f 915 949 942 
f 950 949 915 
f 928 952 919 
f 919 952 951 
f 951 953 920 
f 953 954 922 
f 954 946 921 
f 932 955 924 
f 955 956 925 
f 956 957 926 
f 957 958 927 
f 958 952 928 
f 960 959 929 
f 959 962 934 
f 961 955 932 
f 934 962 961 
f 965 964 938 
f 939 966 965 
f 963 966 939 
f 964 960 940 
f 942 949 967 
f 967 968 943 
f 968 969 944 
f 969 963 945 
f 946 970 948 
f 948 972 947 
f 947 972 950 
f 950 974 949 
f 952 975 951 
f 951 975 953 
f 953 977 954 
f 954 971 946 
f 955 978 956 
f 956 978 957 
f 957 980 958 
f 958 976 952 
f 960 981 959 
f 959 981 962 
f 961 979 955 
f 962 979 961 
f 965 982 964 
f 966 984 965 
f 963 984 966 
f 964 982 960 
f 949 973 967 
f 967 973 968 
f 968 987 969 
f 969 985 963 
f 970 972 948 
f 946 971 970 
f 972 974 950 
f 974 973 949 
f 952 976 975 
f 975 977 953 
f 977 971 954 
f 955 979 978 
f 978 980 957 
f 980 976 958 
f 960 982 981 
f 981 983 962 
f 962 983 979 
f 965 986 982 
f 984 986 965 
f 963 985 984 
f 973 987 968 
f 987 985 969 
f 970 988 972 
f 971 989 970 
f 972 988 974 
f 974 990 973 
f 976 991 975 
f 975 991 977 
f 977 989 971 
f 979 993 978 
f 978 993 980 
f 980 991 976 
f 982 995 981 
f 981 995 983 
f 983 993 979 
f 986 995 982 
f 984 997 986 
f 985 997 984 
f 973 990 987 
f 987 997 985 
f 970 989 988 
f 988 990 974 
f 991 992 977 
f 977 992 989 
f 993 994 980 
f 980 994 991 
f 995 996 983 
f 983 996 993 
f 986 998 995 
f 997 998 986 
f 990 999 987 
f 987 999 997 
f 989 1000 988 
f 988 1000 990 
f 991 1001 992 
f 992 1000 989 
f 993 1001 994 
f 994 1001 991 
f 995 1002 996 
f 996 1001 993 
f 998 1002 995 
f 997 1002 998 
f 990 1000 999 
f 999 1002 997 
f 1001 1000 992 
f 1002 1001 996 
f 1000 1002 999 
f 1001 1002 1000 
# End of file
