v 4.756766219e-18 0.9869825244 0.06476029754
v 0.07777777314 0.9222222567 0
v 1.79286563e-31 0.9222222567 -0.07777777314
v -0.07777777314 0.9222222567 -9.525030248e-18
v 0.01926485263 0.9966168404 0.04650947079
v -0.05983071774 0.9869825244 0.02478269488
v 1.794299836e-17 1 -0.03333333135
v -0.04579244554 0.9869825244 -0.04579244554
v 1.386084219e-17 1 0.03333333135
v -0.3595631123 -0.7111111283 -0.2612378895
v 0.4444444478 -1 0
v -9.698214903e-16 -1 -0.4444444478
v -0.4444444478 -1 -5.4428749e-17
v 0.3764182925 -0.6796841621 -0.210804373
v -1.010614809e-15 -0.8595706224 -0.4444444478
v -4.261461933e-16 -0.6666666865 -0.400000006
v 0.2612378895 -0.8595706224 -0.3595631123
v -4.751320674e-16 -0.6666666865 0.400000006
v -4.620321735e-16 -0.6666666865 -0.3222222328
v 0.241405189 -0.175555557 0.1374191791
v 0.05188839883 0.153649196 -0.2861284316
v -0.1388888955 -0.02152777836 -0.2405626178
v -5.014930562e-16 -0.6666666865 0.3222222328
v 0.3222222328 -0.6666666865 0
v -4.670137331e-16 0.153649196 0.2907952666
v 0.1770249307 0.153649196 -0.2307033837
v 0.277777791 -0.6222221851 0
v -0.1388888955 -0.6222221851 -0.2405626178
v -4.261461933e-16 0.1666666716 -0.3222222328
v 0.3222222328 0.1666666716 0
v -4.65607076e-16 0.1666666716 0.3222222328
v -0.2405626178 -0.6222221851 -0.1388888955
v 0.3221035004 0.3203158379 0.2751023769
v -4.620321735e-16 0.1666666716 -0.3661322296
v -5.068704449e-16 0.1666666716 0.3661322296
v 0.2069770843 0.3203158379 -0.3695842028
v 0.423594147 0.3203158379 -2.593765928e-17
v -0.05234882608 0.1796841323 -0.3940975666
v 0.3221035004 0.3203158379 -0.2751023769
v -0.3793233633 0.2888888717 -0.1571208835
v -4.832769245e-16 0.3203158379 0.423594147
v -4.261461933e-16 0.3333333433 -0.4550211132
v 0.4550211132 0.3333333433 0
v -4.818702145e-16 0.3333333433 0.4550211132
v -4.314016092e-16 0.3203158379 -0.423594147
v 8.964328148e-32 0.3777777851 -0.6111111045
v -1.794299836e-17 0.3333333433 -0.5666666627
v -8.733965169e-17 0.3333333433 0.5666666627
v -7.483952988e-17 0.3777777851 0.6111111045
v -0.6111111045 0.3777777851 -7.483952988e-17
v 0.6111111045 0.6222221851 0
v 0.6111111045 0.3777777851 0
v -0.6111111045 0.6222221851 -7.483952988e-17
v -8.964328148e-32 0.6222221851 -0.6111111045
v 1.794299836e-17 0.6666666865 -0.5666666627
v -7.483952988e-17 0.6222221851 0.6111111045
v -5.145365166e-17 0.6666666865 0.5666666627
v -1.794299836e-17 0.6666666865 -0.1222222224
v 1.79286563e-31 0.7111111283 -0.07777777314
v 0.07777777314 0.7111111283 0
v -9.525030248e-18 0.7111111283 0.07777777314
v -3.291090268e-17 0.6666666865 0.1222222224
v 0.1222222224 0.6666666865 0
v 0.07777777314 0.7888888717 0
v -0.07777777314 0.7111111283 -9.525030248e-18
v -0.07777777314 0.7888888717 -9.525030248e-18
v -2.689298562e-31 0.7888888717 -0.07777777314
v 1.794299836e-17 0.8333333731 -0.1222222224
v 0.1222222224 0.8333333731 0
v 2.975093005e-18 0.8333333731 0.1222222224
v -9.525030248e-18 0.7888888717 0.07777777314
v 0.1888888925 0.8777777553 0
v 0.1888888925 0.8333333731 0
v -3.469832749e-17 0.8333333731 -0.1888888925
v -0.1888888925 0.8333333731 -2.313221667e-17
v -0.1888888925 0.8777777553 -2.313221667e-17
v -3.469832749e-17 0.8777777553 -0.1888888925
v -1.794299836e-17 0.8777777553 -0.1222222224
v -9.525030248e-18 0.9222222567 0.07777777314
v -3.291090268e-17 0.8777777553 0.1222222224
v 0.1222222224 0.8777777553 0
v 1.156610834e-17 0.8777777553 0.1888888925
v 1.156610834e-17 0.8333333731 0.1888888925
v 0.5666666627 0.6666666865 0
v 0.5666666627 0.3333333433 0
v 0.3661322296 0.1666666716 0
v 0.400000006 -0.6666666865 0
v -8.609640981e-16 -1 0.4444444478
v 0.03333333135 1 0
v 0.05499719456 0.9222222567 -0.05499719456
v -0.05499719456 0.9222222567 -0.05499719456
v 0.02846959978 0.972563684 0.06873169541
v -0.05499719456 0.9555555582 0.05499719456
v -0.06476029754 0.9869825244 -3.965424861e-18
v 0.04579244554 0.9869825244 0.04579244554
v -0.05983071774 0.9869825244 -0.02478269488
v -0.02357022651 1 0.02357022651
v -0.03333333135 1 4.082156175e-18
v -0.02357022651 1 -0.02357022651
v 0.05236075819 -0.6796841621 0.428237766
v 0.1373408884 -1 -0.4226917922
v 0.2612378895 -1 -0.3595631123
v 0.3595631123 -1 -0.2612378895
v 0.4226917922 -1 -0.1373408884
v -0.4226917922 -1 -0.1373408884
v -0.3595631123 -1 -0.2612378895
v -0.2612378895 -1 -0.3595631123
v -0.1373408884 -1 -0.4226917922
v 0.1493242383 -0.6796841621 0.4047610462
v 0.3280596435 -0.6796841621 -0.280189395
v 0.280189395 -0.6796841621 -0.3280596435
v 0.210804373 -0.6796841621 -0.3764182925
v 0.1493242383 -0.6796841621 -0.4047610462
v 0.4226917922 -0.7111111283 -0.1373408884
v -4.314016092e-16 -0.6796841621 -0.431427002
v 0.1373408884 -0.7111111283 -0.4226917922
v -0.4226917922 -0.7111111283 -0.1373408884
v -0.4226917922 -0.8595706224 -0.1373408884
v 0.05236075819 -0.6796841621 -0.428237766
v -0.4186117649 -0.6796841621 0.1043716297
v -0.3618251085 -0.6796841621 0.2349719703
v -0.3941281736 -0.6796841621 0.175477162
v 0.3595631123 -0.8595706224 -0.2612378895
v -0.1368080676 -0.6666666865 0.3758770525
v -0.2571150362 -0.6666666865 0.3064177632
v -0.3464101553 -0.6666666865 0.200000003
v -0.3939231038 -0.6666666865 0.06945927441
v -0.3939231038 -0.6666666865 -0.06945927441
v -0.3464101553 -0.6666666865 -0.200000003
v -0.2571150362 -0.6666666865 -0.3064177632
v -0.1368080676 -0.6666666865 -0.3758770525
v -0.1388888955 -0.3347222209 0.2405626178
v 0.241405189 -0.324444443 0.1374191791
v 0.1388888955 -0.02152777836 0.2405626178
v -3.928763802e-16 -0.1652777791 -0.277777791
v -0.2405626178 -0.02152777836 -0.1388888955
v -0.1388888955 -0.1652777791 0.2405626178
v 0.2976945043 -0.6666666865 0.1233091131
v 0.2278455049 -0.6666666865 0.2278455049
v 0.1233091131 -0.6666666865 0.2976945043
v 0.1233091131 -0.6666666865 -0.2976945043
v 0.2278455049 -0.6666666865 -0.2278455049
v 0.2976945043 -0.6666666865 -0.1233091131
v -0.1388888955 -0.1652777791 -0.2405626178
v 0.2852077186 0.153649196 -0.05673133954
v -0.1388888955 -0.3347222209 -0.2405626178
v -5.161383617e-16 -0.3347222209 -0.277777791
v 0.2405626178 -0.02152777836 0.1388888955
v 0.2405626178 -0.4784722328 0.1388888955
v 0.1388888955 -0.1652777791 -0.2405626178
v 0.2307033837 0.153649196 -0.1770249307
v 0.1388888955 -0.3347222209 -0.2405626178
v 0.1388888955 -0.02152777836 -0.2405626178
v 0.277777791 -0.175555557 0
v 0.277777791 -0.324444443 0
v -0.1388888955 0.1222222224 0.2405626178
v -0.2405626178 0.1222222224 -0.1388888955
v -0.277777791 -0.473333329 -3.401796482e-17
v 0.1233091131 0.1666666716 -0.2976945043
v 0.2278455049 0.1666666716 -0.2278455049
v 0.2976945043 0.1666666716 -0.1233091131
v 0.2976945043 0.1666666716 0.1233091131
v 0.2278455049 0.1666666716 0.2278455049
v 0.1233091131 0.1666666716 0.2976945043
v 0.277777791 -0.02666666731 0
v 0.1770249307 -0.6536491513 -0.2307033837
v -0.277777791 -0.324444443 -3.401796482e-17
v -0.423594147 0.3203158379 -1.19994446e-16
v -0.1401127279 0.1666666716 0.3382620513
v -0.2588945627 0.1666666716 0.2588945627
v -0.3382620513 0.1666666716 0.1401127279
v -0.3661322296 0.1666666716 4.483826147e-17
v -0.3382620513 0.1666666716 -0.1401127279
v -0.2588945627 0.1666666716 -0.2588945627
v -0.1401127279 0.1666666716 -0.3382620513
v -0.418378979 0.3203158379 0.06626471877
v 0.418378979 0.3203158379 0.06626471877
v 0.3974123299 0.3203158379 -0.1466131508
v 0.418378979 0.3203158379 -0.06626471877
v 0.2751023769 0.3203158379 0.3221035004
v 0.0520956181 0.3203158379 0.4203784168
v 0.2069770843 0.3203158379 0.3695842028
v 0.3974123299 0.3203158379 0.1466131508
v 0.3695842028 0.3203158379 0.2069770843
v 0.1466131508 0.3203158379 0.3974123299
v 0.2903215289 0.2888888717 -0.2903215289
v -0.4105766416 0.2888888717 -5.028113968e-17
v 0.1571208835 0.2888888717 -0.3793233633
v -0.3899201751 0.1796841323 0.07755994797
v -0.2903215289 0.2888888717 0.2903215289
v -0.2208720446 0.1796841323 0.3305583596
v 0.3793233633 0.2888888717 0.1571208835
v 0.1406092495 0.3333333433 -0.4327507615
v 0.2674546838 0.3333333433 -0.3681198061
v 0.3681198061 0.3333333433 -0.2674546838
v 0.4327507615 0.3333333433 -0.1406092495
v 0.4327507615 0.3333333433 0.1406092495
v 0.3681198061 0.3333333433 0.2674546838
v 0.2674546838 0.3333333433 0.3681198061
v 0.1406092495 0.3333333433 0.4327507615
v 0.3793233633 0.2888888717 -0.1571208835
v -0.1521393061 0.1796841323 -0.3672967851
v 0.2903215289 0.2888888717 0.2903215289
v -0.397559166 0.1796841323 6.39323925e-17
v -8.593296157e-17 0.3463508189 0.5980936289
v -0.1466641128 0.3333333433 0.5473579764
v -0.2833333313 0.3333333433 0.49074772
v -0.4006938636 0.3333333433 0.4006938636
v -0.49074772 0.3333333433 0.2833333313
v -0.5473579764 0.3333333433 0.1466641128
v -0.5666666627 0.3333333433 -4.339044592e-16
v -0.5473579764 0.3333333433 -0.1466641128
v -0.49074772 0.3333333433 -0.2833333313
v -0.4006938636 0.3333333433 -0.4006938636
v -0.2833333313 0.3333333433 -0.49074772
v -0.1466641128 0.3333333433 -0.5473579764
v -1.268761553e-17 0.3463508189 -0.5980936289
v -0.1359850168 0.3777777851 0.5957892537
v -0.2651511729 0.3777777851 0.5505920649
v -0.3810215592 0.3777777851 0.4777858853
v -0.4777858853 0.3777777851 0.3810215592
v -0.5505920649 0.3777777851 0.2651511729
v -0.5957892537 0.3777777851 0.1359850168
v -0.5957892537 0.3777777851 -0.1359850168
v -0.5505920649 0.3777777851 -0.2651511729
v -0.4777858853 0.3777777851 -0.3810215592
v -0.3810215592 0.3777777851 -0.4777858853
v -0.2651511729 0.3777777851 -0.5505920649
v -0.1359850168 0.3777777851 -0.5957892537
v 0.6111111045 0.5 0
v 0.1359850168 0.3777777851 -0.5957892537
v 0.2651511729 0.3777777851 -0.5505920649
v 0.3810215592 0.3777777851 -0.4777858853
v 0.4777858853 0.3777777851 -0.3810215592
v 0.5505920649 0.3777777851 -0.2651511729
v 0.5957892537 0.3777777851 -0.1359850168
v -0.6111111045 0.5 -7.483952988e-17
v -0.5957892537 0.6222221851 -0.1359850168
v -0.5505920649 0.6222221851 -0.2651511729
v -0.4777858853 0.6222221851 -0.3810215592
v -0.3810215592 0.6222221851 -0.4777858853
v -0.2651511729 0.6222221851 -0.5505920649
v -0.1359850168 0.6222221851 -0.5957892537
v 0.1359850168 0.6222221851 -0.5957892537
v 0.2651511729 0.6222221851 -0.5505920649
v 0.3810215592 0.6222221851 -0.4777858853
v 0.4777858853 0.6222221851 -0.3810215592
v 0.5505920649 0.6222221851 -0.2651511729
v 0.5957892537 0.6222221851 -0.1359850168
v 1.268761553e-17 0.6536491513 -0.5980936289
v -0.1359850168 0.6222221851 0.5957892537
v -0.2651511729 0.6222221851 0.5505920649
v -0.3810215592 0.6222221851 0.4777858853
v -0.4777858853 0.6222221851 0.3810215592
v -0.5505920649 0.6222221851 0.2651511729
v -0.5957892537 0.6222221851 0.1359850168
v -6.055772721e-17 0.6536491513 0.5980936289
v -0.1466641128 0.6666666865 0.5473579764
v -0.2833333313 0.6666666865 0.49074772
v -0.4006938636 0.6666666865 0.4006938636
v -0.49074772 0.6666666865 0.2833333313
v -0.5473579764 0.6666666865 0.1466641128
v -0.5666666627 0.6666666865 -4.339044592e-16
v -0.5473579764 0.6666666865 -0.1466641128
v -0.49074772 0.6666666865 -0.2833333313
v -0.4006938636 0.6666666865 -0.4006938636
v -0.2833333313 0.6666666865 -0.49074772
v -0.1466641128 0.6666666865 -0.5473579764
v -1.268761553e-17 0.6796841621 -0.0907952562
v 0.05499719456 0.7111111283 -0.05499719456
v 0.05499719456 0.7111111283 0.05499719456
v -2.380682713e-17 0.6796841621 0.0907952562
v 0.08642416447 0.6666666865 0.08642416447
v 0.08642416447 0.6666666865 -0.08642416447
v -0.05499719456 0.7111111283 -0.05499719456
v -0.05499719456 0.7888888717 -0.05499719456
v 0.05499719456 0.7888888717 -0.05499719456
v 1.268761553e-17 0.8203158379 -0.0907952562
v 0.08642416447 0.8333333731 -0.08642416447
v 0.08642416447 0.8333333731 0.08642416447
v 1.568404028e-18 0.8203158379 0.0907952562
v 0.05499719456 0.7888888717 0.05499719456
v 0.1335646212 0.8333333731 -0.1335646212
v -0.1335646212 0.8333333731 -0.1335646212
v -0.1335646212 0.8777777553 -0.1335646212
v 0.1335646212 0.8777777553 -0.1335646212
v -1.268761553e-17 0.8907952309 -0.0907952562
v 0.05499719456 0.9222222567 0.05499719456
v -2.380682713e-17 0.8907952309 0.0907952562
v 0.08642416447 0.8777777553 0.08642416447
v 0.08642416447 0.8777777553 -0.08642416447
v -0.06111111119 0.8777777553 0.105847545
v -0.105847545 0.8777777553 0.06111111119
v -0.1222222224 0.8777777553 1.496790598e-17
v -0.105847545 0.8777777553 -0.06111111119
v -0.06111111119 0.8777777553 -0.105847545
v -0.05499719456 0.9222222567 0.05499719456
v 0.1335646212 0.8777777553 0.1335646212
v -0.1335646212 0.8777777553 0.1335646212
v -0.1335646212 0.8333333731 0.1335646212
v 0.1335646212 0.8333333731 0.1335646212
v -0.06111111119 0.8333333731 0.105847545
v -0.105847545 0.8333333731 0.06111111119
v -0.1222222224 0.8333333731 6.924547283e-17
v -0.105847545 0.8333333731 -0.06111111119
v -0.06111111119 0.8333333731 -0.105847545
v -0.05499719456 0.7888888717 0.05499719456
v -0.05499719456 0.7111111283 0.05499719456
v -0.06111111119 0.6666666865 0.105847545
v -0.105847545 0.6666666865 0.06111111119
v -0.1222222224 0.6666666865 1.496790598e-17
v -0.105847545 0.6666666865 -0.06111111119
v -0.06111111119 0.6666666865 -0.105847545
v 0.5473579764 0.6666666865 0.1466641128
v 0.49074772 0.6666666865 0.2833333313
v 0.4006938636 0.6666666865 0.4006938636
v 0.2833333313 0.6666666865 0.49074772
v 0.1466641128 0.6666666865 0.5473579764
v 0.1466641128 0.6666666865 -0.5473579764
v 0.2833333313 0.6666666865 -0.49074772
v 0.4006938636 0.6666666865 -0.4006938636
v 0.49074772 0.6666666865 -0.2833333313
v 0.5473579764 0.6666666865 -0.1466641128
v 0.5957892537 0.6222221851 0.1359850168
v 0.5505920649 0.6222221851 0.2651511729
v 0.4777858853 0.6222221851 0.3810215592
v 0.3810215592 0.6222221851 0.4777858853
v 0.2651511729 0.6222221851 0.5505920649
v 0.1359850168 0.6222221851 0.5957892537
v 0.5957892537 0.3777777851 0.1359850168
v 0.5505920649 0.3777777851 0.2651511729
v 0.4777858853 0.3777777851 0.3810215592
v 0.3810215592 0.3777777851 0.4777858853
v 0.2651511729 0.3777777851 0.5505920649
v 0.1359850168 0.3777777851 0.5957892537
v 0.5473579764 0.3333333433 0.1466641128
v 0.49074772 0.3333333433 0.2833333313
v 0.4006938636 0.3333333433 0.4006938636
v 0.2833333313 0.3333333433 0.49074772
v 0.1466641128 0.3333333433 0.5473579764
v 0.1466641128 0.3333333433 -0.5473579764
v 0.2833333313 0.3333333433 -0.49074772
v 0.4006938636 0.3333333433 -0.4006938636
v 0.49074772 0.3333333433 -0.2833333313
v 0.5473579764 0.3333333433 -0.1466641128
v -0.1406092495 0.3333333433 0.4327507615
v -0.2674546838 0.3333333433 0.3681198061
v -0.3681198061 0.3333333433 0.2674546838
v -0.4327507615 0.3333333433 0.1406092495
v -0.4550211132 0.3333333433 -3.48415912e-16
v -0.4327507615 0.3333333433 -0.1406092495
v -0.3681198061 0.3333333433 -0.2674546838
v -0.2674546838 0.3333333433 -0.3681198061
v -0.1406092495 0.3333333433 -0.4327507615
v -0.1571208835 0.2888888717 -0.3793233633
v -0.4105766416 0.2111111134 -5.028113968e-17
v -0.2903215289 0.2888888717 -0.2903215289
v 0.3695842028 0.3203158379 -0.2069770843
v 0.2751023769 0.3203158379 -0.3221035004
v 0.1466131508 0.3203158379 -0.3974123299
v 0.3382620513 0.1666666716 0.1401127279
v 0.2588945627 0.1666666716 0.2588945627
v 0.1401127279 0.1666666716 0.3382620513
v 0.1401127279 0.1666666716 -0.3382620513
v 0.2588945627 0.1666666716 -0.2588945627
v 0.3382620513 0.1666666716 -0.1401127279
v -0.1398069859 0.1666666716 0.2903122008
v -0.2519234717 0.1666666716 0.2009022683
v -0.3141434491 0.1666666716 0.07170119137
v -0.3141434491 0.1666666716 -0.07170119137
v -0.2519234717 0.1666666716 -0.2009022683
v -0.1398069859 0.1666666716 -0.2903122008
v 0.277777791 -0.473333329 0
v -4.923889873e-16 -0.6536491513 0.2907952666
v -3.348419973e-16 -0.02152777836 -0.277777791
v 0.1286154538 0.153649196 -0.2608063519
v -0.1398069859 -0.6666666865 0.2903122008
v -0.2519234717 -0.6666666865 0.2009022683
v -0.3141434491 -0.6666666865 0.07170119137
v -0.3141434491 -0.6666666865 -0.07170119137
v -0.2519234717 -0.6666666865 -0.2009022683
v -0.1398069859 -0.6666666865 -0.2903122008
v 0.3695518374 -0.6666666865 0.1530733705
v 0.2828427255 -0.6666666865 0.2828427255
v 0.1530733705 -0.6666666865 0.3695518374
v 0.1530733705 -0.6666666865 -0.3695518374
v 0.2828427255 -0.6666666865 -0.2828427255
v 0.3695518374 -0.6666666865 -0.1530733705
v 0.4226917922 -0.8595706224 -0.1373408884
v 0.4226917922 -0.7111111283 0.1373408884
v 0.3595631123 -0.7111111283 0.2612378895
v -0.4226917922 -0.7111111283 0.1373408884
v -0.1373408884 -1 0.4226917922
v -0.2612378895 -1 0.3595631123
v -0.3595631123 -1 0.2612378895
v -0.4226917922 -1 0.1373408884
v 0.4226917922 -1 0.1373408884
v 0.3595631123 -1 0.2612378895
v 0.2612378895 -1 0.3595631123
v 0.1373408884 -1 0.4226917922
v 0.02357022651 1 0.02357022651
v 0.02357022651 1 -0.02357022651
v -0.02846959978 0.972563684 -0.06873169541
v 0.04579244554 0.9869825244 -0.04579244554
v 0.02846959978 0.972563684 -0.06873169541
v 0.05983071774 0.9869825244 -0.02478269488
v 0.06476029754 0.9869825244 -3.965424861e-18
v 0.05983071774 0.9869825244 0.02478269488
v 0.01926485263 0.9966168404 -0.04650947079
v -0.01926485263 0.9966168404 0.04650947079
v -0.02846959978 0.972563684 0.06873169541
v -0.04579244554 0.9869825244 0.04579244554
v 0.3595631123 -0.8515404463 0.2612378895
v 0.1373408884 -0.8515404463 0.4226917922
v -4.15253879e-16 -0.8515404463 0.4444444478
v 0.2612378895 -0.8515404463 0.3595631123
v 0.4226917922 -0.8515404463 0.1373408884
v -0.4226917922 -0.8515404463 0.1373408884
v -0.3595631123 -0.8515404463 0.2612378895
v -0.1373408884 -0.8515404463 0.4226917922
v -0.2612378895 -0.8515404463 0.3595631123
v -0.05236075819 -0.6796841621 -0.428237766
v -0.1373408884 -0.8595706224 -0.4226917922
v -0.3618251085 -0.6796841621 -0.2349719703
v -0.3155257106 -0.6796841621 -0.2942324877
v -0.3595631123 -0.8595706224 -0.2612378895
v -0.3941281736 -0.6796841621 -0.175477162
v -0.4186117649 -0.6796841621 -0.1043716297
v -0.4297852516 -0.6796841621 -0.03760133684
v -0.4297852516 -0.6796841621 0.03760133684
v -0.2612378895 -0.8595706224 -0.3595631123
v -0.2656129599 -0.6796841621 0.3399690986
v -0.1404588819 -0.6796841621 0.4079222083
v -0.3155257106 -0.6796841621 0.2942324877
v -0.05236075819 -0.6796841621 0.428237766
v -0.2025426775 -0.6796841621 0.3809273839
v -0.2656129599 -0.6796841621 -0.3399690986
v -0.1404588819 -0.6796841621 -0.4079222083
v -0.2025426775 -0.6796841621 -0.3809273839
v -0.2889667749 -0.6536491513 -0.03255873919
v -0.2706936896 -0.6536491513 0.1062394381
v -0.2889667749 -0.6536491513 0.03255873919
v -0.2402663231 -0.6536491513 0.1638108045
v -0.05188839883 -0.6536491513 0.2861284316
v -0.1358795017 -0.6536491513 0.2570965588
v -0.1358795017 -0.6536491513 -0.2570965588
v -0.1896820813 -0.6536491513 0.2204145789
v -0.1896820813 -0.6536491513 -0.2204145789
v -3.996049982e-16 -0.3347222209 0.277777791
v -0.05188839883 -0.6536491513 -0.2861284316
v -0.2402663231 -0.6536491513 -0.1638108045
v -0.2706936896 -0.6536491513 -0.1062394381
v -0.2889667749 0.153649196 0.03255873919
v -0.1896820813 0.153649196 -0.2204145789
v -0.2889667749 0.153649196 -0.03255873919
v -0.1358795017 0.153649196 -0.2570965588
v -0.2706936896 0.153649196 -0.1062394381
v -0.2402663231 0.153649196 -0.1638108045
v -0.2402663231 0.153649196 0.1638108045
v -0.2706936896 0.153649196 0.1062394381
v -0.05188839883 0.153649196 -0.2861284316
v -0.1896820813 0.153649196 0.2204145789
v -0.1358795017 0.153649196 0.2570965588
v -0.05188839883 0.153649196 0.2861284316
v 0.1286154538 0.153649196 0.2608063519
v 0.05188839883 0.153649196 0.2861284316
v 0.1770249307 0.153649196 0.2307033837
v 0.2907952666 0.153649196 -1.78060735e-17
v 0.2852077186 0.153649196 0.05673133954
v 0.2307033837 0.153649196 0.1770249307
v 0.2608063519 0.153649196 0.1286154538
v 0.2608063519 0.153649196 -0.1286154538
v -0.2405626178 0.1222222224 0.1388888955
v 0.2405626178 0.1222222224 0.1388888955
v 0.1388888955 0.1222222224 0.2405626178
v 0.1388888955 0.1222222224 -0.2405626178
v -4.314016092e-16 0.153649196 -0.2907952666
v -0.1388888955 0.1222222224 -0.2405626178
v 0.1286154538 -0.6536491513 -0.2608063519
v 0.2405626178 0.1222222224 -0.1388888955
v -0.2405626178 -0.6222221851 0.1388888955
v 0.05188839883 -0.6536491513 -0.2861284316
v -0.277777791 -0.02666666731 -3.401796482e-17
v -0.1388888955 -0.6222221851 0.2405626178
v -0.277777791 -0.175555557 -3.401796482e-17
v 0.1521393061 0.1796841323 -0.3672967851
v 0.05234882608 0.1796841323 0.3940975666
v 0.2208720446 0.1796841323 0.3305583596
v 0.1521393061 0.1796841323 0.3672967851
v 0.3305583596 0.1796841323 0.2208720446
v 0.2811167836 0.1796841323 0.2811167836
v 0.3899201751 0.1796841323 0.07755994797
v 0.3672967851 0.1796841323 0.1521393061
v 0.3899201751 0.1796841323 -0.07755994797
v 0.397559166 0.1796841323 -2.434347875e-17
v 0.3305583596 0.1796841323 -0.2208720446
v 0.3672967851 0.1796841323 -0.1521393061
v 0.2208720446 0.1796841323 -0.3305583596
v 0.2811167836 0.1796841323 -0.2811167836
v 0.05234882608 0.1796841323 -0.3940975666
v -0.3672967851 0.1796841323 0.1521393061
v -0.3305583596 0.1796841323 0.2208720446
v -0.2811167836 0.1796841323 0.2811167836
v 0.3793233633 0.2111111134 0.1571208835
v -0.1521393061 0.1796841323 0.3672967851
v -0.3793233633 0.2888888717 0.1571208835
v 0.1571208835 0.2111111134 0.3793233633
v -0.05234882608 0.1796841323 0.3940975666
v 0.0520956181 0.3203158379 -0.4203784168
v 0.2903215289 0.2111111134 0.2903215289
v -0.2208720446 0.1796841323 -0.3305583596
v -0.2811167836 0.1796841323 -0.2811167836
v -0.1571208835 0.2888888717 0.3793233633
v -0.3672967851 0.1796841323 -0.1521393061
v 0.1571208835 0.2888888717 0.3793233633
v -0.3305583596 0.1796841323 -0.2208720446
v -0.3899201751 0.1796841323 -0.07755994797
v -0.2794703841 0.3463508189 0.5287837982
v -0.1439683586 0.3463508189 -0.5805076361
v -0.2080593556 0.3463508189 -0.5607382059
v -0.2794703841 0.3463508189 -0.5287837982
v -0.3985376656 0.3463508189 -0.4459638
v -0.4459638 0.3463508189 -0.3985376656
v -0.3369181454 0.3463508189 -0.4941681325
v -0.2080593556 0.3463508189 0.5607382059
v -0.1439683586 0.3463508189 0.5805076361
v -0.4941681325 0.3463508189 -0.3369181454
v -0.5287837982 0.3463508189 -0.2794703841
v -0.5607382059 0.3463508189 -0.2080593556
v -0.5805076361 0.3463508189 -0.1439683586
v -0.5943329334 0.3463508189 -0.06696524471
v -0.5980936289 0.3463508189 -3.022296142e-16
v -0.5943329334 0.3463508189 0.06696524471
v -0.5805076361 0.3463508189 0.1439683586
v -0.5607382059 0.3463508189 0.2080593556
v -0.5287837982 0.3463508189 0.2794703841
v -0.3985376656 0.3463508189 0.4459638
v -0.05238657445 0.3463508189 -0.5957949162
v -0.05238657445 0.3463508189 0.5957949162
v -0.4941681325 0.3463508189 0.3369181454
v -0.4459638 0.3463508189 0.3985376656
v -0.3369181454 0.3463508189 0.4941681325
v 0.596201241 0.5 -0.1341672689
v 0.1359850168 0.5130469203 -0.5957892537
v 4.268703932e-17 0.5130469203 -0.6111111045
v 0.2651511729 0.5130469203 -0.5505920649
v 0.3810215592 0.5130469203 -0.4777858853
v 0.5505920649 0.5130469203 -0.2651511729
v 0.4777858853 0.5130469203 -0.3810215592
v -0.596201241 0.5 -0.1341672689
v -0.4777858853 0.5130469203 -0.3810215592
v -0.5505920649 0.5130469203 -0.2651511729
v -0.2651511729 0.5130469203 -0.5505920649
v -0.3810215592 0.5130469203 -0.4777858853
v -0.1359850168 0.5130469203 -0.5957892537
v -0.05238657445 0.6536491513 -0.5957949162
v -0.5943329334 0.6536491513 -0.06696524471
v -0.5980936289 0.6536491513 -3.022296142e-16
v -0.5943329334 0.6536491513 0.06696524471
v -0.5607382059 0.6536491513 -0.2080593556
v -0.5805076361 0.6536491513 -0.1439683586
v -0.4941681325 0.6536491513 -0.3369181454
v -0.5287837982 0.6536491513 -0.2794703841
v -0.4459638 0.6536491513 -0.3985376656
v -0.3369181454 0.6536491513 -0.4941681325
v -0.3985376656 0.6536491513 -0.4459638
v -0.2080593556 0.6536491513 -0.5607382059
v -0.2794703841 0.6536491513 -0.5287837982
v -0.1439683586 0.6536491513 -0.5805076361
v -0.05238657445 0.6536491513 0.5957949162
v -0.2080593556 0.6536491513 0.5607382059
v -0.1439683586 0.6536491513 0.5805076361
v -0.3369181454 0.6536491513 0.4941681325
v -0.2794703841 0.6536491513 0.5287837982
v -0.3985376656 0.6536491513 0.4459638
v -0.4941681325 0.6536491513 0.3369181454
v -0.4459638 0.6536491513 0.3985376656
v -0.5607382059 0.6536491513 0.2080593556
v -0.5287837982 0.6536491513 0.2794703841
v -0.5805076361 0.6536491513 0.1439683586
v 0.04899286479 0.6796841621 -0.076442644
v 0.08388387412 0.6796841621 -0.03474584222
v 0.06420193613 0.6796841621 -0.06420193613
v 0.08388387412 0.6796841621 0.03474584222
v 0.0907952562 0.6796841621 -5.559605801e-18
v 0.04899286479 0.6796841621 0.076442644
v 0.06420193613 0.6796841621 0.06420193613
v 0.04899286479 0.8203158379 -0.076442644
v 0.08388387412 0.8203158379 -0.03474584222
v 0.06420193613 0.8203158379 -0.06420193613
v 0.08388387412 0.8203158379 0.03474584222
v 0.0907952562 0.8203158379 -5.559605801e-18
v 0.04899286479 0.8203158379 0.076442644
v 0.06420193613 0.8203158379 0.06420193613
v 0.04899286479 0.8907952309 -0.076442644
v 0.08388387412 0.8907952309 -0.03474584222
v 0.06420193613 0.8907952309 -0.06420193613
v 0.08388387412 0.8907952309 0.03474584222
v 0.0907952562 0.8907952309 -5.559605801e-18
v 0.04899286479 0.8907952309 0.076442644
v 0.06420193613 0.8907952309 0.06420193613
v -0.03105893545 0.9052140713 -0.0749829039
v -0.043136511 0.8852680326 -0.08747219294
v -0.043136511 0.8852680326 0.08747219294
v -0.05527264997 0.8907952309 0.07203271985
v -0.07203271985 0.8907952309 0.05527264997
v -0.08770148456 0.8907952309 0.02349954098
v -0.0907952562 0.8907952309 -5.559605801e-18
v -0.08770148456 0.8907952309 -0.02349954098
v -0.07203271985 0.8907952309 -0.05527264997
v -0.05527264997 0.8907952309 -0.07203271985
v -0.03105893545 0.9052140713 0.0749829039
v -0.043136511 0.8258430958 -0.08747219294
v -0.03105893545 0.8058970571 -0.0749829039
v -0.08770148456 0.8203158379 -0.02349954098
v -0.07203271985 0.8203158379 -0.05527264997
v -0.05527264997 0.8203158379 -0.07203271985
v -0.03105893545 0.8058970571 0.0749829039
v -0.05527264997 0.8203158379 0.07203271985
v -0.07203271985 0.8203158379 0.05527264997
v -0.08770148456 0.8203158379 0.02349954098
v -0.0907952562 0.8203158379 3.476158695e-17
v -0.043136511 0.8258430958 0.08747219294
v -0.03105893545 0.6941030025 -0.0749829039
v -0.043136511 0.6741569042 -0.08747219294
v -0.043136511 0.6741569042 0.08747219294
v -0.05527264997 0.6796841621 0.07203271985
v -0.07203271985 0.6796841621 0.05527264997
v -0.08770148456 0.6796841621 0.02349954098
v -0.0907952562 0.6796841621 -5.559605801e-18
v -0.08770148456 0.6796841621 -0.02349954098
v -0.07203271985 0.6796841621 -0.05527264997
v -0.05527264997 0.6796841621 -0.07203271985
v -0.03105893545 0.6941030025 0.0749829039
v 0.4411587119 0.6666666865 -0.01652343757
v 0.4218500257 0.6666666865 0.130140692
v 0.3737929165 0.6666666865 0.2348890752
v 0.300262481 0.6666666865 0.3236301541
v 0.2062696218 0.6666666865 0.3903163671
v 0.09821986407 0.6666666865 0.4304031432
v -0.01652343757 0.6666666865 0.4411587119
v 0.130140692 0.6666666865 -0.4218500257
v 0.2348890752 0.6666666865 -0.3737929165
v 0.3236301541 0.6666666865 -0.300262481
v 0.3203337789 0.6666666865 -0.1833126992
v 0.4218500257 0.6666666865 -0.130140692
v -0.130140692 0.6666666865 0.4218500257
v -0.2348890752 0.6666666865 0.3737929165
v -0.3236301541 0.6666666865 0.300262481
v -0.3903163671 0.6666666865 0.2062696218
v -0.4304031432 0.6666666865 0.09821986407
v -0.4411587119 0.6666666865 -0.01652343757
v -0.4218500257 0.6666666865 -0.130140692
v -0.3737929165 0.6666666865 -0.2348890752
v -0.300262481 0.6666666865 -0.3236301541
v -0.130140692 0.6666666865 -0.4218500257
v -0.01652343757 0.6666666865 -0.4411587119
v 0.2391770184 0.6666666865 0.04844426736
v 0.2391770184 0.6666666865 -0.04844426736
v 0.1348684281 0.6666666865 0.2033789605
v 0.2033789605 0.6666666865 0.1348684281
v -0.02456200868 0.6666666865 0.2138888985
v -0.1282157749 0.6666666865 0.1729522049
v -0.1975142211 0.6666666865 0.0856731236
v -0.2138888985 0.6666666865 -0.02456200868
v -0.1729522049 0.6666666865 -0.1282157749
v -0.0856731236 0.6666666865 -0.1975142211
v 0.1348684281 0.6666666865 -0.2033789605
v 0.04844426736 0.6666666865 -0.2391770184
v 0.2033789605 0.6666666865 -0.1348684281
v 0.04977558926 0.6666666865 0.3134483397
v -0.0573261641 0.6666666865 0.3361663818
v -0.2177291065 0.6666666865 0.2624655366
v -0.3197917044 0.6666666865 0.1184372678
v -0.3361663818 0.6666666865 -0.0573261641
v -0.2624655366 0.6666666865 -0.2177291065
v -0.1184372678 0.6666666865 -0.3197917044
v 0.05238657445 0.6536491513 -0.5957949162
v 0.1439683586 0.6536491513 -0.5805076361
v 0.2080593556 0.6536491513 -0.5607382059
v 0.2794703841 0.6536491513 -0.5287837982
v 0.3369181454 0.6536491513 -0.4941681325
v 0.3985376656 0.6536491513 -0.4459638
v 0.4459638 0.6536491513 -0.3985376656
v 0.4941681325 0.6536491513 -0.3369181454
v 0.5287837982 0.6536491513 -0.2794703841
v 0.5607382059 0.6536491513 -0.2080593556
v 0.5805076361 0.6536491513 -0.1439683586
v 0.5943329334 0.6536491513 -0.06696524471
v 0.5980936289 0.6536491513 -3.662267054e-17
v 0.5943329334 0.6536491513 0.06696524471
v 0.5805076361 0.6536491513 0.1439683586
v 0.5607382059 0.6536491513 0.2080593556
v 0.5287837982 0.6536491513 0.2794703841
v 0.4941681325 0.6536491513 0.3369181454
v 0.4459638 0.6536491513 0.3985376656
v 0.3985376656 0.6536491513 0.4459638
v 0.3369181454 0.6536491513 0.4941681325
v 0.2794703841 0.6536491513 0.5287837982
v 0.2080593556 0.6536491513 0.5607382059
v 0.1439683586 0.6536491513 0.5805076361
v 0.05238657445 0.6536491513 0.5957949162
v 0.596201241 0.5 0.1341672689
v 0.5505920649 0.4869530499 0.2651511729
v 0.4777858853 0.4869530499 0.3810215592
v 0.3810215592 0.4869530499 0.4777858853
v 0.2651511729 0.4869530499 0.5505920649
v 0.1359850168 0.4869530499 0.5957892537
v 3.215248394e-17 0.4869530499 0.6111111045
v -0.1359850168 0.4869530499 0.5957892537
v -0.2651511729 0.4869530499 0.5505920649
v -0.3810215592 0.4869530499 0.4777858853
v -0.4777858853 0.4869530499 0.3810215592
v -0.5505920649 0.4869530499 0.2651511729
v -0.596201241 0.5 0.1341672689
v 0.05238657445 0.3463508189 -0.5957949162
v 0.1439683586 0.3463508189 -0.5805076361
v 0.2080593556 0.3463508189 -0.5607382059
v 0.2794703841 0.3463508189 -0.5287837982
v 0.3369181454 0.3463508189 -0.4941681325
v 0.3985376656 0.3463508189 -0.4459638
v 0.4459638 0.3463508189 -0.3985376656
v 0.4941681325 0.3463508189 -0.3369181454
v 0.5287837982 0.3463508189 -0.2794703841
v 0.5607382059 0.3463508189 -0.2080593556
v 0.5805076361 0.3463508189 -0.1439683586
v 0.5943329334 0.3463508189 -0.06696524471
v 0.5980936289 0.3463508189 -1.694261374e-16
v 0.5943329334 0.3463508189 0.06696524471
v 0.5805076361 0.3463508189 0.1439683586
v 0.5607382059 0.3463508189 0.2080593556
v 0.5287837982 0.3463508189 0.2794703841
v 0.4941681325 0.3463508189 0.3369181454
v 0.4459638 0.3463508189 0.3985376656
v 0.3985376656 0.3463508189 0.4459638
v 0.3369181454 0.3463508189 0.4941681325
v 0.2794703841 0.3463508189 0.5287837982
v 0.2080593556 0.3463508189 0.5607382059
v 0.1439683586 0.3463508189 0.5805076361
v 0.05238657445 0.3463508189 0.5957949162
v -4.943703561e-16 0.2888888717 0.4105766416
v -0.3793233633 0.2111111134 0.1571208835
v -5.054637878e-16 0.1796841323 0.397559166
v -0.1571208835 0.2111111134 0.3793233633
v 0.4105766416 0.2111111134 0
v 0.4105766416 0.2888888717 0
v -4.567768105e-16 0.1796841323 -0.397559166
v -4.440892099e-16 0.2888888717 -0.4105766416
v 0.3793233633 0.2111111134 -0.1571208835
v 0.1571208835 0.2111111134 -0.3793233633
v 0.2903215289 0.2111111134 -0.2903215289
v -4.943703561e-16 0.2111111134 0.4105766416
v -4.440892099e-16 0.2111111134 -0.4105766416
v -0.1571208835 0.2111111134 -0.3793233633
v -0.3793233633 0.2111111134 -0.1571208835
v -0.2903215289 0.2111111134 -0.2903215289
v -0.2903215289 0.2111111134 0.2903215289
v -0.1466131508 0.3203158379 -0.3974123299
v -0.2069770843 0.3203158379 -0.3695842028
v -0.2751023769 0.3203158379 -0.3221035004
v -0.3221035004 0.3203158379 -0.2751023769
v -0.3695842028 0.3203158379 -0.2069770843
v -0.418378979 0.3203158379 -0.06626471877
v -0.0520956181 0.3203158379 -0.4203784168
v -0.3974123299 0.3203158379 -0.1466131508
v -0.3974123299 0.3203158379 0.1466131508
v -0.3695842028 0.3203158379 0.2069770843
v -0.3221035004 0.3203158379 0.2751023769
v -0.2751023769 0.3203158379 0.3221035004
v -0.2069770843 0.3203158379 0.3695842028
v -0.1466131508 0.3203158379 0.3974123299
v -0.0520956181 0.3203158379 0.4203784168
v -0.277777791 -0.6222221851 -3.401796482e-17
v -4.781071647e-16 0.1222222224 0.277777791
v -0.277777791 0.1222222224 -3.401796482e-17
v -4.440892099e-16 0.1222222224 -0.277777791
v 0.277777791 0.1222222224 0
v 0.1388888955 -0.6222221851 0.2405626178
v 0.2405626178 -0.6222221851 -0.1388888955
v 0.2405626178 -0.6222221851 0.1388888955
v -4.567768105e-16 -0.6536491513 -0.2907952666
v 0.1388888955 -0.6222221851 -0.2405626178
v -4.440892099e-16 -0.6222221851 -0.277777791
v -4.781071647e-16 -0.6222221851 0.277777791
v 0.241405189 -0.175555557 -0.1374191791
v 0.241405189 -0.324444443 -0.1374191791
v -0.241405189 -0.175555557 -0.1374191791
v -0.241405189 -0.324444443 -0.1374191791
v -0.1388888955 -0.4784722328 -0.2405626178
v 0.2405626178 -0.4784722328 -0.1388888955
v 0.1286154538 -0.6536491513 0.2608063519
v 0.1388888955 -0.4784722328 -0.2405626178
v -5.347381994e-16 -0.4784722328 -0.277777791
v 0.05188839883 -0.6536491513 0.2861284316
v -0.2405626178 -0.4784722328 -0.1388888955
v 0.2405626178 -0.02152777836 -0.1388888955
v 0.2608063519 -0.6536491513 0.1286154538
v 0.2307033837 -0.6536491513 0.1770249307
v 0.1770249307 -0.6536491513 0.2307033837
v 0.2907952666 -0.6536491513 -1.78060735e-17
v 0.2608063519 -0.6536491513 -0.1286154538
v 0.2852077186 -0.6536491513 0.05673133954
v 0.2852077186 -0.6536491513 -0.05673133954
v 0.2307033837 -0.6536491513 -0.1770249307
v -0.2405626178 -0.4784722328 0.1388888955
v -4.545554136e-16 -0.1652777791 0.277777791
v 0.1388888955 -0.3347222209 0.2405626178
v 0.1388888955 -0.1652777791 0.2405626178
v -5.193184411e-16 -0.4784722328 0.277777791
v 0.1388888955 -0.4784722328 0.2405626178
v -3.965210571e-16 -0.02152777836 0.277777791
v -0.1388888955 -0.02152777836 0.2405626178
v -0.1388888955 -0.4784722328 0.2405626178
v -0.241405189 -0.324444443 0.1374191791
v -0.241405189 -0.175555557 0.1374191791
v -0.2405626178 -0.02152777836 0.1388888955
v -0.1373408884 -0.7111111283 0.4226917922
v 0.3595631123 -0.7111111283 -0.2612378895
v 0.2612378895 -0.7111111283 -0.3595631123
v -4.440892099e-16 -0.7111111283 -0.4444444478
v -5.29013739e-16 -0.7111111283 0.4444444478
v -0.1373408884 -0.7111111283 -0.4226917922
v -0.4444444478 -0.855555594 -5.4428749e-17
v 0.4444444478 -0.855555594 0
v -0.2612378895 -0.7111111283 -0.3595631123
v 0.1373408884 -0.8595706224 -0.4226917922
v 0.1373408884 -0.7111111283 0.4226917922
v 0.2612378895 -0.7111111283 0.3595631123
v 0.4444444478 -0.7111111283 0
v -0.4444444478 -0.7111111283 -5.4428749e-17
v -4.842361363e-16 -0.6796841621 0.431427002
v -0.3595631123 -0.7111111283 0.2612378895
v -0.2612378895 -0.7111111283 0.3595631123
v 0.4047610462 -0.6796841621 0.1493242383
v 0.4261153638 -0.6796841621 0.06749004871
v 0.431427002 -0.6796841621 -2.641728176e-17
v 0.4261153638 -0.6796841621 -0.06749004871
v 0.4047610462 -0.6796841621 -0.1493242383
v 0.210804373 -0.6796841621 0.3764182925
v 0.280189395 -0.6796841621 0.3280596435
v 0.3280596435 -0.6796841621 0.280189395
v 0.3764182925 -0.6796841621 0.210804373
v 0.2853509188 -1 0.1155882254
v 0.3071035445 -1 -0.02175265923
v 0.1629126668 -1 0.2612378895
v -0.02175265923 -1 0.3071035445
v -0.1981092095 -1 0.2356660962
v -0.2987947762 -1 0.07421221584
v -0.2853509188 -1 -0.1155882254
v -0.1629126668 -1 -0.2612378895
v 0.02175265923 -1 -0.3071035445
v 0.1981092095 -1 -0.2356660962
v 0.2303882092 -1 -0.1320629865
v 0.1480100155 -1 0.09383556992
v 0.169762671 -1 -0.04350531846
v 0.06458745152 -1 0.1629126668
v -0.04350531846 -1 0.169762671
v -0.1349805444 -1 0.1117691025
v -0.1748977751 -1 0.01108353399
v -0.1480100155 -1 -0.09383556992
v -0.06458745152 -1 -0.1629126668
v 0.04350531846 -1 -0.169762671
v 0.01066912618 -1 0.07208290696
v 0.03242178634 -1 -0.06525797397
v -0.07208290696 -1 0.01066912618
v -9.525030248e-18 0.9555555582 0.07777777314
v 0.05499719456 0.9555555582 -0.05499719456
v -0.05499719456 0.9555555582 -0.05499719456
v 1.268761553e-17 0.9869825244 -0.06476029754
v 0.05499719456 0.9555555582 0.05499719456
v -0.01926485263 0.9966168404 -0.04650947079
v 0.07777777314 0.9555555582 0
v -8.964328148e-32 0.9555555582 -0.07777777314
v -0.07777777314 0.9555555582 -9.525030248e-18
v 0.02357022651 1 -5.782411862e-18
v -0.01666666567 1 0.01666666567
v -0.01666666567 1 -0.01666666567
v -0.02749859728 0.9388889074 0.06638748199
v 0.02749859728 0.9388889074 0.06638748199
v -0.02749859728 0.9388889074 -0.06638748199
v 0.02749859728 0.9388889074 -0.06638748199
v -0.06638748199 0.9388889074 0.02749859728
v -0.06638748199 0.9388889074 -0.02749859728
v 0.06638748199 0.9388889074 0.02749859728
v 0.06638748199 0.9388889074 -0.02749859728
v 0.06867044419 -0.9257702231 0.43356812
v 0.1992893815 -0.9257702827 0.3911274672
v 0.310400486 -0.9257702231 0.310400486
v 0.3911274672 -0.9257702231 0.1992893815
v -0.3911274672 -0.9257702231 0.1992893815
v -0.310400486 -0.9257702231 0.310400486
v -0.1992893815 -0.9257702231 0.3911274672
v -0.06867044419 -0.9257702231 0.43356812
v 0.3911274374 -0.7853409052 -0.1992893815
v 0.310400486 -0.7853409052 -0.310400486
v -0.06867044419 -0.7853409052 -0.43356812
v -0.310400486 -0.7853409052 -0.310400486
v -0.3911274672 -0.7853409052 -0.1992893815
v 0.06867044419 -0.7853409052 -0.43356812
v 0.1992893815 -0.7853409052 -0.3911274672
v -0.1992893815 -0.7853409052 -0.3911274374
v -0.06944444776 -0.25 0.2591702044
v 0.06944444776 -0.25 0.2591702044
v -0.06944444776 -0.25 -0.2591702044
v 0.06944444776 -0.25 -0.2591702044
v -0.1901470572 -0.244861111 0.1889908761
v 0.1901470423 -0.244861111 0.188990891
v -0.1901470423 -0.244861111 -0.188990891
v 0.1901470572 -0.244861111 -0.1889908761
v -0.25959149 -0.101111114 0.06870958954
v -0.25959149 -0.101111114 -0.06870958954
v -0.25959149 -0.25 0.06870958954
v -0.25959149 -0.25 -0.06870958954
v -0.25959149 -0.398888886 0.06870958954
v -0.25959149 -0.398888886 -0.06870958954
v 0.25959149 -0.101111114 0.06870958954
v 0.25959149 -0.101111114 -0.06870958954
v 0.25959149 -0.25 0.06870958954
v 0.25959149 -0.25 -0.06870958954
v 0.25959149 -0.398888886 0.06870958954
v 0.25959149 -0.398888886 -0.06870958954
v 0.06944444776 -0.4065972269 0.2591702044
v -0.06944444776 -0.4065972269 0.2591702044
v 0.06944444776 -0.4065972269 -0.2591702044
v -0.06944444776 -0.4065972269 -0.2591702044
v -0.1897257566 -0.4065972269 0.1897257566
v 0.1897257566 -0.4065972269 0.1897257566
v -0.1897257566 -0.4065972269 -0.1897257566
v 0.1897257566 -0.4065972269 -0.1897257566
v -0.2591702044 0.05034722388 0.06944444776
v -0.2591702044 0.05034722388 -0.06944444776
v 0.2591702044 0.05034722388 0.06944444776
v 0.2591702044 0.05034722388 -0.06944444776
v -0.1897257566 -0.09340278059 0.1897257566
v -0.06944444776 -0.09340278059 0.2591702044
v 0.06944444776 -0.09340278059 0.2591702044
v 0.1897257566 -0.09340278059 0.1897257566
v 0.06944444776 -0.09340278059 -0.2591702044
v -0.06944444776 -0.09340278059 -0.2591702044
v -0.1897257566 -0.09340278059 -0.1897257566
v 0.1897257566 -0.09340278059 -0.1897257566
v -0.1897257566 0.05034722388 0.1897257566
v -0.06944444776 0.05034722388 0.2591702044
v 0.1897257566 0.05034722388 0.1897257566
v 0.1897257566 0.05034722388 -0.1897257566
v 0.06944444776 0.05034722388 -0.2591702044
v -0.1897257566 0.05034722388 -0.1897257566
v 0.06944444776 0.05034722388 0.2591702044
v -0.06944444776 0.05034722388 -0.2591702044
v -0.06944444776 -0.550347209 -0.2591702044
v 0.06944444776 -0.550347209 0.2591702044
v 0.06944444776 -0.550347209 -0.2591702044
v -0.2591702044 -0.550347209 0.06944444776
v -0.2591702044 -0.550347209 -0.06944444776
v -0.06944444776 -0.550347209 0.2591702044
v 0.2591702044 -0.550347209 0.06944444776
v 0.2591702044 -0.550347209 -0.06944444776
v -0.1897257566 -0.550347209 0.1897257566
v -0.1897257566 -0.550347209 -0.1897257566
v 0.1897257566 -0.550347209 0.1897257566
v 0.1897257566 -0.550347209 -0.1897257566
v 0.2237212062 0.25 0.3348224461
v 0.3348224461 0.25 0.2237212062
v 0.3348224461 0.25 -0.2237212062
v 0.2237212062 0.25 -0.3348224461
v -0.2237212062 0.25 -0.3348224461
v -0.3348224461 0.25 -0.2237212062
v -0.3348224461 0.25 0.2237212062
v -0.2237212062 0.25 0.3348224461
v 0.07856044173 0.25 0.3949500024
v 0.07856044173 0.25 -0.3949500024
v -0.3949500024 0.25 -0.07856044173
v -0.3949500024 0.25 0.07856044173
v 0.3949500024 0.25 0.07856044173
v 0.3949500024 0.25 -0.07856044173
v -0.07856044173 0.25 0.3949500024
v -0.07856044173 0.25 -0.3949500024
v 0.2237212062 0.2111111134 0.3348224461
v 0.3348224461 0.2111111134 0.2237212062
v -0.3348224461 0.2888888717 0.2237212062
v -0.2237212062 0.2888888717 0.3348224461
v 0.2237212062 0.2888888717 0.3348224461
v 0.3348224461 0.2888888717 0.2237212062
v 0.3348224461 0.2888888717 -0.2237212062
v 0.2237212062 0.2888888717 -0.3348224461
v -0.2237212062 0.2888888717 -0.3348224461
v -0.3348224461 0.2888888717 -0.2237212062
v 0.3348224461 0.2111111134 -0.2237212062
v 0.2237212062 0.2111111134 -0.3348224461
v -0.2237212062 0.2111111134 -0.3348224461
v -0.3348224461 0.2111111134 -0.2237212062
v -0.3348224461 0.2111111134 0.2237212062
v -0.2237212062 0.2111111134 0.3348224461
v -0.07856044173 0.2888888717 0.3949500024
v 0.07856044173 0.2888888717 0.3949500024
v 0.07856044173 0.2888888717 -0.3949500024
v -0.07856044173 0.2888888717 -0.3949500024
v -0.3949500024 0.2888888717 0.07856044173
v -0.3949500024 0.2888888717 -0.07856044173
v 0.3949500024 0.2111111134 0.07856044173
v 0.3949500024 0.2111111134 -0.07856044173
v 0.3949500024 0.2888888717 0.07856044173
v 0.3949500024 0.2888888717 -0.07856044173
v -0.3949500024 0.2111111134 -0.07856044173
v -0.3949500024 0.2111111134 0.07856044173
v 0.07856044173 0.2111111134 0.3949500024
v -0.07856044173 0.2111111134 0.3949500024
v 0.07856044173 0.2111111134 -0.3949500024
v -0.07856044173 0.2111111134 -0.3949500024
f 5 92 95 
f 409 404 405 
f 867 404 406 
f 406 407 872 
f 405 404 867 
f 870 95 92 
f 872 407 408 
f 408 95 870 
f 92 5 1 
f 5 95 401 
f 401 95 408 
f 408 407 89 
f 89 407 406 
f 406 404 402 
f 402 404 409 
f 869 409 405 
f 867 406 872 
f 873 405 867 
f 870 92 866 
f 872 408 870 
f 1 5 9 
f 866 92 1 
f 9 5 401 
f 401 408 89 
f 89 406 402 
f 402 409 7 
f 7 409 869 
f 869 405 873 
f 411 410 412 
f 403 8 871 
f 871 8 99 
f 99 8 96 
f 96 94 98 
f 98 94 6 
f 6 412 97 
f 97 412 410 
f 1 410 411 
f 93 412 6 
f 6 94 874 
f 411 412 93 
f 868 8 403 
f 874 94 96 
f 96 8 868 
f 403 871 869 
f 7 871 99 
f 99 96 98 
f 98 6 97 
f 97 410 9 
f 9 410 1 
f 1 411 866 
f 93 6 874 
f 866 411 93 
f 868 403 873 
f 874 96 868 
f 869 871 7 
f 873 403 869 
f 79 288 879 
f 288 2 884 
f 297 79 878 
f 4 297 882 
f 93 874 882 
f 866 93 878 
f 870 866 879 
f 872 870 884 
f 867 872 885 
f 867 90 881 
f 868 873 880 
f 874 868 883 
f 3 91 880 
f 91 4 883 
f 3 873 881 
f 2 90 885 
f 384 840 841 
f 387 110 111 
f 114 838 837 
f 837 836 829 
f 818 110 14 
f 14 838 114 
f 111 110 818 
f 116 113 112 
f 112 111 819 
f 119 113 116 
f 827 109 100 
f 839 109 827 
f 391 841 840 
f 840 839 828 
f 390 834 842 
f 842 841 391 
f 829 836 835 
f 835 834 390 
f 100 109 385 
f 385 109 839 
f 839 840 384 
f 384 841 842 
f 842 834 383 
f 383 834 835 
f 835 836 87 
f 87 836 837 
f 837 838 388 
f 388 838 14 
f 14 110 387 
f 387 111 112 
f 112 113 386 
f 386 113 119 
f 114 837 829 
f 818 14 114 
f 819 111 818 
f 116 112 819 
f 820 119 116 
f 827 100 821 
f 828 839 827 
f 391 840 828 
f 390 842 391 
f 829 835 390 
f 831 100 18 
f 821 100 831 
f 18 100 385 
f 385 839 384 
f 384 842 383 
f 383 835 87 
f 87 837 388 
f 388 14 387 
f 387 112 386 
f 386 119 16 
f 16 119 115 
f 115 119 820 
f 429 128 428 
f 422 438 131 
f 131 438 439 
f 439 437 130 
f 130 437 425 
f 425 424 129 
f 129 424 427 
f 427 428 128 
f 128 429 430 
f 430 120 127 
f 127 120 122 
f 122 121 126 
f 126 121 434 
f 434 432 125 
f 125 432 436 
f 436 433 124 
f 124 433 435 
f 392 120 430 
f 832 121 122 
f 122 120 392 
f 833 432 434 
f 434 121 832 
f 817 433 436 
f 436 432 833 
f 435 433 817 
f 822 438 422 
f 825 437 439 
f 439 438 822 
f 10 424 425 
f 425 437 825 
f 117 428 427 
f 427 424 10 
f 830 430 429 
f 429 428 117 
f 16 422 131 
f 131 439 130 
f 130 425 129 
f 129 427 128 
f 128 430 127 
f 127 122 126 
f 126 434 125 
f 125 436 124 
f 124 435 18 
f 18 435 831 
f 831 435 821 
f 392 430 830 
f 832 122 392 
f 833 434 832 
f 817 436 833 
f 821 435 817 
f 822 422 820 
f 825 439 822 
f 10 425 825 
f 117 427 10 
f 830 429 117 
f 115 422 16 
f 820 422 115 
f 414 415 886 
f 413 416 888 
f 416 414 887 
f 413 398 889 
f 418 396 890 
f 421 419 891 
f 415 420 893 
f 420 421 892 
f 396 418 823 
f 418 419 832 
f 832 419 421 
f 421 420 817 
f 817 420 415 
f 821 415 414 
f 414 416 828 
f 828 416 413 
f 391 413 417 
f 824 417 397 
f 88 400 886 
f 400 399 887 
f 399 398 888 
f 397 417 889 
f 395 419 890 
f 395 394 891 
f 394 393 892 
f 393 88 893 
f 823 418 830 
f 13 396 823 
f 830 418 392 
f 392 418 832 
f 832 421 833 
f 833 421 817 
f 817 415 821 
f 821 414 827 
f 827 414 828 
f 828 413 391 
f 391 417 390 
f 390 417 829 
f 829 417 824 
f 824 397 11 
f 123 818 894 
f 17 819 895 
f 826 116 900 
f 15 820 899 
f 423 822 896 
f 431 825 901 
f 426 10 897 
f 118 117 898 
f 823 117 118 
f 107 431 423 
f 423 15 108 
f 426 431 107 
f 118 426 105 
f 103 123 389 
f 17 123 103 
f 12 15 826 
f 826 17 101 
f 389 114 824 
f 114 389 894 
f 818 123 895 
f 819 17 900 
f 116 826 899 
f 820 15 896 
f 822 423 901 
f 825 431 897 
f 10 426 898 
f 830 117 823 
f 823 118 13 
f 108 15 12 
f 107 423 108 
f 106 426 107 
f 105 426 106 
f 13 118 105 
f 104 389 11 
f 103 389 104 
f 102 17 103 
f 101 17 102 
f 12 826 101 
f 824 114 829 
f 11 389 824 
f 455 775 453 
f 372 461 456 
f 371 454 458 
f 454 372 456 
f 457 371 458 
f 369 455 453 
f 455 370 457 
f 368 460 459 
f 460 369 453 
f 367 462 463 
f 462 368 459 
f 464 367 463 
f 775 460 453 
f 460 473 459 
f 473 462 459 
f 462 156 463 
f 156 464 463 
f 461 478 456 
f 478 454 456 
f 454 157 458 
f 157 457 458 
f 457 775 455 
f 372 29 461 
f 371 372 454 
f 370 371 457 
f 369 370 455 
f 368 369 460 
f 367 368 462 
f 31 367 464 
f 774 25 464 
f 25 31 464 
f 775 473 460 
f 473 156 462 
f 156 774 464 
f 776 478 461 
f 478 157 454 
f 157 775 457 
f 477 776 461 
f 29 477 461 
f 467 465 475 
f 151 472 480 
f 777 145 468 
f 145 480 472 
f 480 26 151 
f 26 476 376 
f 476 21 376 
f 466 475 465 
f 475 470 467 
f 470 474 471 
f 474 469 471 
f 469 777 468 
f 164 466 465 
f 467 164 465 
f 162 470 471 
f 470 163 467 
f 30 469 468 
f 469 162 471 
f 161 145 472 
f 145 30 468 
f 151 161 472 
f 159 26 376 
f 26 160 151 
f 21 159 376 
f 777 480 145 
f 480 476 26 
f 476 776 21 
f 774 475 466 
f 475 474 470 
f 474 777 469 
f 25 774 466 
f 31 25 466 
f 164 31 466 
f 163 164 467 
f 162 163 470 
f 30 162 469 
f 161 30 145 
f 160 161 151 
f 159 160 26 
f 29 159 21 
f 776 477 21 
f 477 29 21 
f 449 806 902 
f 137 132 902 
f 806 449 903 
f 807 808 903 
f 807 449 922 
f 449 132 923 
f 132 137 906 
f 137 806 935 
f 806 808 936 
f 807 133 907 
f 809 810 922 
f 810 149 927 
f 813 809 923 
f 813 132 926 
f 815 137 934 
f 815 814 906 
f 814 805 926 
f 812 816 934 
f 811 812 935 
f 134 811 936 
f 134 808 937 
f 20 148 937 
f 20 808 907 
f 133 807 927 
f 810 809 951 
f 810 778 960 
f 809 813 955 
f 813 805 958 
f 816 483 910 
f 815 485 912 
f 805 814 914 
f 816 812 942 
f 812 811 943 
f 811 134 948 
f 148 474 944 
f 148 20 916 
f 20 133 918 
f 149 373 920 
f 784 778 951 
f 780 149 960 
f 780 27 956 
f 481 805 953 
f 481 484 958 
f 484 784 955 
f 483 816 930 
f 485 815 910 
f 167 814 912 
f 167 158 914 
f 158 773 953 
f 473 775 930 
f 156 473 942 
f 774 156 943 
f 475 774 948 
f 475 134 944 
f 474 148 932 
f 165 777 932 
f 154 165 916 
f 155 154 918 
f 155 133 920 
f 373 149 956 
f 135 150 905 
f 144 135 904 
f 147 146 904 
f 152 147 905 
f 150 135 938 
f 135 144 939 
f 146 788 908 
f 147 793 925 
f 152 792 924 
f 152 150 909 
f 153 796 941 
f 375 153 938 
f 22 375 939 
f 22 144 940 
f 787 136 940 
f 787 144 908 
f 788 146 928 
f 789 146 925 
f 789 795 928 
f 792 152 929 
f 793 147 924 
f 785 150 941 
f 785 786 909 
f 786 790 929 
f 796 153 945 
f 153 375 946 
f 375 22 949 
f 22 136 947 
f 136 787 911 
f 787 788 913 
f 795 158 915 
f 789 793 950 
f 789 28 959 
f 792 790 961 
f 792 782 952 
f 796 165 917 
f 785 154 919 
f 790 786 921 
f 480 777 933 
f 476 480 945 
f 776 476 946 
f 478 776 949 
f 157 478 947 
f 157 136 931 
f 483 775 931 
f 485 483 911 
f 167 485 913 
f 167 788 915 
f 158 795 954 
f 783 28 950 
f 32 795 959 
f 32 773 954 
f 779 790 957 
f 779 782 961 
f 783 793 952 
f 165 796 933 
f 154 785 917 
f 155 786 919 
f 155 373 921 
f 373 27 957 
f 440 442 773 
f 28 450 446 
f 32 448 451 
f 448 28 446 
f 773 452 440 
f 452 32 451 
f 481 441 443 
f 441 773 442 
f 484 447 445 
f 447 481 443 
f 444 484 445 
f 450 382 446 
f 382 448 446 
f 448 381 451 
f 381 452 451 
f 452 380 440 
f 380 442 440 
f 379 441 442 
f 441 378 443 
f 378 447 443 
f 447 377 445 
f 377 444 445 
f 28 783 450 
f 32 28 448 
f 773 32 452 
f 481 773 441 
f 484 481 447 
f 784 484 444 
f 23 374 444 
f 374 784 444 
f 19 382 450 
f 382 381 448 
f 381 380 452 
f 380 379 442 
f 379 378 441 
f 378 377 447 
f 377 23 444 
f 781 19 450 
f 783 781 450 
f 797 780 798 
f 804 779 801 
f 24 803 800 
f 803 143 801 
f 143 804 801 
f 142 166 804 
f 166 141 479 
f 141 482 479 
f 794 140 791 
f 140 799 791 
f 139 798 799 
f 798 138 797 
f 138 802 797 
f 802 24 800 
f 778 794 791 
f 780 799 798 
f 799 778 791 
f 27 802 800 
f 802 780 797 
f 779 803 801 
f 803 27 800 
f 782 166 479 
f 166 779 804 
f 482 782 479 
f 24 143 803 
f 143 142 804 
f 142 141 166 
f 141 19 482 
f 23 140 794 
f 140 139 799 
f 139 138 798 
f 138 24 802 
f 374 23 794 
f 784 374 794 
f 778 784 794 
f 780 778 799 
f 27 780 802 
f 779 27 803 
f 782 779 166 
f 783 782 482 
f 19 781 482 
f 781 783 482 
f 190 769 768 
f 357 761 760 
f 354 764 758 
f 759 354 758 
f 352 760 761 
f 760 353 759 
f 351 762 765 
f 762 352 761 
f 350 763 168 
f 763 351 765 
f 349 176 766 
f 176 350 168 
f 348 767 768 
f 767 349 766 
f 769 348 768 
f 346 770 771 
f 770 347 769 
f 772 346 771 
f 187 176 168 
f 176 506 766 
f 506 767 766 
f 767 190 768 
f 190 770 769 
f 770 513 771 
f 513 772 771 
f 764 355 758 
f 355 759 758 
f 759 357 760 
f 357 762 761 
f 762 40 765 
f 40 763 765 
f 763 187 168 
f 354 42 764 
f 353 354 759 
f 352 353 760 
f 351 352 762 
f 350 351 763 
f 349 350 176 
f 348 349 767 
f 347 348 769 
f 346 347 770 
f 44 346 772 
f 741 41 772 
f 41 44 772 
f 176 187 998 
f 767 506 980 
f 770 190 981 
f 772 513 994 
f 764 748 997 
f 759 355 986 
f 762 357 987 
f 763 40 999 
f 45 748 764 
f 42 45 764 
f 33 180 203 
f 359 39 186 
f 746 179 37 
f 179 201 178 
f 201 358 178 
f 358 186 39 
f 186 36 359 
f 36 188 360 
f 188 509 360 
f 181 515 185 
f 515 182 185 
f 182 203 180 
f 203 184 33 
f 184 192 183 
f 192 177 183 
f 177 746 37 
f 200 181 185 
f 199 182 180 
f 182 200 185 
f 33 199 180 
f 197 184 183 
f 184 198 33 
f 43 177 37 
f 177 197 183 
f 196 179 178 
f 179 43 37 
f 195 358 39 
f 358 196 178 
f 359 195 39 
f 193 36 360 
f 36 194 359 
f 509 193 360 
f 179 746 1003 
f 358 201 984 
f 36 186 985 
f 509 188 996 
f 181 741 995 
f 182 515 982 
f 184 203 983 
f 177 192 1002 
f 41 741 181 
f 44 41 181 
f 200 44 181 
f 199 200 182 
f 198 199 33 
f 197 198 184 
f 43 197 177 
f 196 43 179 
f 195 196 358 
f 194 195 359 
f 193 194 36 
f 42 193 509 
f 748 45 509 
f 45 42 509 
f 970 752 1006 
f 962 507 978 
f 963 510 979 
f 974 504 1000 
f 757 190 968 
f 969 757 993 
f 976 744 1007 
f 973 356 1005 
f 973 506 998 
f 506 742 968 
f 969 513 981 
f 976 741 994 
f 970 515 995 
f 962 203 982 
f 963 192 983 
f 974 746 1002 
f 964 186 984 
f 186 751 965 
f 188 750 971 
f 748 753 977 
f 355 754 966 
f 967 40 987 
f 40 755 972 
f 754 355 977 
f 756 357 966 
f 967 756 991 
f 356 187 972 
f 749 201 975 
f 964 749 988 
f 750 188 965 
f 753 748 971 
f 746 745 975 
f 366 497 494 
f 494 495 86 
f 365 499 496 
f 496 497 366 
f 364 486 498 
f 498 499 365 
f 500 486 364 
f 363 489 487 
f 362 491 488 
f 488 489 363 
f 361 493 490 
f 490 491 362 
f 86 495 492 
f 492 493 361 
f 487 489 507 
f 507 489 488 
f 488 491 510 
f 510 491 490 
f 490 493 504 
f 504 493 492 
f 492 495 745 
f 745 495 494 
f 494 497 749 
f 749 497 496 
f 496 499 751 
f 751 499 498 
f 498 486 750 
f 750 486 500 
f 366 494 86 
f 365 496 366 
f 364 498 365 
f 34 500 364 
f 363 487 35 
f 362 488 363 
f 361 490 362 
f 86 492 361 
f 743 487 752 
f 35 487 743 
f 487 507 1006 
f 488 510 978 
f 490 504 979 
f 492 745 1000 
f 494 749 1001 
f 496 751 988 
f 498 750 989 
f 500 753 1008 
f 753 500 747 
f 747 500 34 
f 38 202 754 
f 754 202 511 
f 511 512 756 
f 756 512 516 
f 516 514 755 
f 755 514 517 
f 517 204 356 
f 356 204 189 
f 189 501 742 
f 742 501 502 
f 502 503 757 
f 757 503 191 
f 191 505 744 
f 744 505 508 
f 175 202 38 
f 174 512 511 
f 511 202 175 
f 173 514 516 
f 516 512 174 
f 172 204 517 
f 517 514 173 
f 171 501 189 
f 189 204 172 
f 170 503 502 
f 502 501 171 
f 169 505 191 
f 191 503 170 
f 508 505 169 
f 38 754 1009 
f 511 756 990 
f 516 755 991 
f 517 356 1004 
f 189 742 1005 
f 502 757 992 
f 191 744 993 
f 508 752 1007 
f 752 508 743 
f 743 508 35 
f 175 38 34 
f 174 511 175 
f 173 516 174 
f 172 517 173 
f 171 189 172 
f 170 502 171 
f 169 191 170 
f 35 508 169 
f 747 38 753 
f 34 38 747 
f 205 740 49 
f 48 740 205 
f 49 740 335 
f 231 716 46 
f 46 716 217 
f 217 716 47 
f 523 522 214 
f 537 541 208 
f 538 519 229 
f 229 519 520 
f 520 521 228 
f 228 521 524 
f 524 522 227 
f 227 522 523 
f 226 523 527 
f 527 528 225 
f 225 528 529 
f 529 530 224 
f 224 530 531 
f 531 532 50 
f 50 532 533 
f 533 534 223 
f 223 534 535 
f 535 536 222 
f 222 536 540 
f 540 541 221 
f 221 541 537 
f 220 537 542 
f 542 518 219 
f 219 518 525 
f 525 526 218 
f 218 526 539 
f 216 519 538 
f 215 521 520 
f 520 519 216 
f 214 522 524 
f 524 521 215 
f 213 528 527 
f 527 523 214 
f 212 530 529 
f 529 528 213 
f 211 532 531 
f 531 530 212 
f 210 534 533 
f 533 532 211 
f 209 536 535 
f 535 534 210 
f 208 541 540 
f 540 536 209 
f 207 518 542 
f 542 537 208 
f 206 526 525 
f 525 518 207 
f 539 526 206 
f 46 538 229 
f 229 520 228 
f 228 524 227 
f 227 523 226 
f 226 527 225 
f 225 529 224 
f 224 531 50 
f 50 533 223 
f 223 535 222 
f 222 540 221 
f 221 537 220 
f 220 542 219 
f 219 525 218 
f 218 539 49 
f 49 539 205 
f 205 539 48 
f 216 538 47 
f 215 520 216 
f 214 524 215 
f 213 527 214 
f 212 529 213 
f 211 531 212 
f 210 533 211 
f 209 535 210 
f 208 540 209 
f 207 542 208 
f 206 525 207 
f 232 718 231 
f 233 720 232 
f 234 722 233 
f 235 723 234 
f 236 725 235 
f 52 727 236 
f 330 729 52 
f 331 731 330 
f 332 733 331 
f 333 734 332 
f 334 736 333 
f 335 738 334 
f 48 539 206 
f 217 538 46 
f 47 538 217 
f 85 729 336 
f 336 731 337 
f 337 733 338 
f 338 736 339 
f 339 738 340 
f 340 740 48 
f 47 716 341 
f 341 718 342 
f 342 720 343 
f 343 723 344 
f 344 725 345 
f 345 727 85 
f 231 717 716 
f 718 717 231 
f 232 719 718 
f 720 719 232 
f 233 721 720 
f 722 721 233 
f 234 723 722 
f 235 724 723 
f 725 724 235 
f 236 726 725 
f 727 726 236 
f 52 728 727 
f 729 728 52 
f 330 730 729 
f 731 730 330 
f 331 732 731 
f 733 732 331 
f 332 734 733 
f 333 735 734 
f 736 735 333 
f 334 737 736 
f 738 737 334 
f 335 739 738 
f 740 739 335 
f 729 730 336 
f 85 728 729 
f 731 732 337 
f 336 730 731 
f 733 734 338 
f 337 732 733 
f 736 737 339 
f 338 735 736 
f 738 739 340 
f 339 737 738 
f 340 739 740 
f 716 717 341 
f 718 719 342 
f 341 717 718 
f 720 721 343 
f 342 719 720 
f 723 724 344 
f 343 722 723 
f 725 726 345 
f 344 724 725 
f 727 728 85 
f 345 726 727 
f 722 343 721 
f 735 338 734 
f 52 543 230 
f 230 543 51 
f 46 544 231 
f 231 544 232 
f 232 546 233 
f 233 547 234 
f 234 548 235 
f 235 543 236 
f 236 543 52 
f 50 550 224 
f 224 550 225 
f 225 551 226 
f 226 551 227 
f 227 553 228 
f 228 555 229 
f 229 545 46 
f 237 550 50 
f 53 550 237 
f 238 550 53 
f 239 552 238 
f 240 551 239 
f 241 551 240 
f 242 553 241 
f 243 555 242 
f 54 545 243 
f 244 544 54 
f 245 544 244 
f 246 547 245 
f 247 547 246 
f 248 548 247 
f 249 548 248 
f 51 543 249 
f 46 545 544 
f 544 546 232 
f 546 547 233 
f 547 549 234 
f 548 543 235 
f 234 549 548 
f 550 552 225 
f 225 552 551 
f 551 554 227 
f 553 555 228 
f 227 554 553 
f 555 545 229 
f 238 552 550 
f 239 551 552 
f 241 554 551 
f 553 554 241 
f 242 555 553 
f 243 545 555 
f 54 544 545 
f 245 546 544 
f 547 546 245 
f 247 549 547 
f 548 549 247 
f 249 543 548 
f 230 703 52 
f 51 703 230 
f 324 703 51 
f 325 703 324 
f 326 704 325 
f 327 706 326 
f 328 706 327 
f 329 708 328 
f 56 708 329 
f 251 709 56 
f 252 711 251 
f 253 711 252 
f 254 713 253 
f 255 713 254 
f 256 715 255 
f 53 715 256 
f 50 715 237 
f 237 715 53 
f 49 710 218 
f 218 710 219 
f 219 711 220 
f 220 712 221 
f 221 714 222 
f 222 714 223 
f 223 715 50 
f 52 703 330 
f 330 704 331 
f 331 704 332 
f 332 705 333 
f 333 706 334 
f 334 707 335 
f 335 709 49 
f 325 704 703 
f 326 705 704 
f 706 705 326 
f 328 707 706 
f 708 707 328 
f 56 709 708 
f 251 710 709 
f 711 710 251 
f 253 712 711 
f 713 712 253 
f 255 714 713 
f 715 714 255 
f 49 709 710 
f 710 711 219 
f 711 712 220 
f 712 713 221 
f 221 713 714 
f 714 715 223 
f 703 704 330 
f 704 705 332 
f 705 706 333 
f 706 707 334 
f 707 708 335 
f 335 708 709 
f 54 556 250 
f 250 556 55 
f 53 557 238 
f 238 560 239 
f 239 562 240 
f 240 564 241 
f 241 565 242 
f 242 567 243 
f 243 556 54 
f 56 570 251 
f 251 571 252 
f 252 573 253 
f 253 575 254 
f 254 576 255 
f 255 578 256 
f 256 559 53 
f 257 570 56 
f 57 570 257 
f 258 570 57 
f 259 571 258 
f 260 573 259 
f 261 576 260 
f 262 578 261 
f 263 559 262 
f 264 557 263 
f 265 560 264 
f 266 562 265 
f 267 565 266 
f 268 567 267 
f 55 556 268 
f 557 561 238 
f 53 558 557 
f 560 563 239 
f 238 561 560 
f 562 564 240 
f 239 563 562 
f 564 566 241 
f 565 568 242 
f 241 566 565 
f 567 569 243 
f 242 568 567 
f 243 569 556 
f 570 572 251 
f 571 574 252 
f 251 572 571 
f 573 575 253 
f 252 574 573 
f 575 577 254 
f 576 579 255 
f 254 577 576 
f 578 580 256 
f 255 579 578 
f 559 558 53 
f 256 580 559 
f 258 572 570 
f 571 572 258 
f 259 574 571 
f 573 574 259 
f 260 575 573 
f 576 577 260 
f 261 579 576 
f 578 579 261 
f 262 580 578 
f 559 580 262 
f 263 558 559 
f 557 558 263 
f 264 561 557 
f 560 561 264 
f 265 563 560 
f 562 563 265 
f 266 564 562 
f 565 566 266 
f 267 568 565 
f 567 568 267 
f 268 569 567 
f 556 569 268 
f 564 266 566 
f 575 260 577 
f 250 678 54 
f 55 678 250 
f 319 678 55 
f 320 680 319 
f 321 682 320 
f 322 685 321 
f 323 687 322 
f 84 689 323 
f 314 691 84 
f 315 693 314 
f 316 695 315 
f 317 698 316 
f 318 700 317 
f 57 702 318 
f 56 702 257 
f 257 702 57 
f 51 691 324 
f 324 693 325 
f 325 695 326 
f 326 696 327 
f 327 698 328 
f 328 700 329 
f 329 702 56 
f 54 678 244 
f 244 680 245 
f 245 682 246 
f 246 684 247 
f 247 685 248 
f 248 687 249 
f 249 689 51 
f 319 679 678 
f 680 679 319 
f 320 681 680 
f 682 681 320 
f 321 683 682 
f 685 684 321 
f 322 686 685 
f 687 686 322 
f 323 688 687 
f 689 688 323 
f 84 690 689 
f 691 690 84 
f 314 692 691 
f 693 692 314 
f 315 694 693 
f 695 694 315 
f 316 696 695 
f 698 697 316 
f 317 699 698 
f 700 699 317 
f 318 701 700 
f 702 701 318 
f 691 692 324 
f 51 690 691 
f 693 694 325 
f 324 692 693 
f 695 696 326 
f 325 694 695 
f 696 697 327 
f 698 699 328 
f 327 697 698 
f 700 701 329 
f 328 699 700 
f 329 701 702 
f 678 679 244 
f 680 681 245 
f 244 679 680 
f 682 683 246 
f 245 681 682 
f 684 685 247 
f 246 683 684 
f 685 686 248 
f 687 688 249 
f 248 686 687 
f 689 690 51 
f 249 688 689 
f 321 684 683 
f 316 697 696 
f 269 59 581 
f 58 269 581 
f 59 270 581 
f 270 60 582 
f 60 271 584 
f 271 61 586 
f 61 272 586 
f 272 62 586 
f 273 63 584 
f 62 273 586 
f 274 58 581 
f 63 274 582 
f 581 270 583 
f 582 60 585 
f 270 582 583 
f 584 271 587 
f 60 584 585 
f 271 586 587 
f 584 63 585 
f 273 584 587 
f 586 273 587 
f 274 581 583 
f 582 274 583 
f 63 582 585 
f 59 269 624 
f 269 58 625 
f 309 62 626 
f 310 309 628 
f 311 310 629 
f 312 311 631 
f 313 312 633 
f 58 313 625 
f 272 61 634 
f 62 272 626 
f 61 308 634 
f 308 65 629 
f 65 275 631 
f 275 59 624 
f 624 269 625 
f 309 626 627 
f 628 309 627 
f 310 628 629 
f 311 629 630 
f 631 311 630 
f 312 631 632 
f 633 312 632 
f 313 633 625 
f 272 634 626 
f 634 308 627 
f 629 65 630 
f 308 629 628 
f 631 275 632 
f 65 631 630 
f 275 624 633 
f 624 625 633 
f 627 626 634 
f 628 627 308 
f 633 632 275 
f 60 277 64 
f 59 67 270 
f 270 277 60 
f 65 66 275 
f 275 67 59 
f 276 275 66 
f 67 275 276 
f 277 270 67 
f 64 282 60 
f 71 271 282 
f 307 61 71 
f 66 308 307 
f 65 308 66 
f 61 307 308 
f 60 282 271 
f 271 71 61 
f 278 68 588 
f 67 278 588 
f 68 279 588 
f 279 69 589 
f 69 280 591 
f 280 70 593 
f 70 281 593 
f 281 71 593 
f 282 64 591 
f 71 282 593 
f 277 67 588 
f 64 277 589 
f 588 279 590 
f 589 69 592 
f 279 589 590 
f 591 280 594 
f 69 591 592 
f 280 593 594 
f 591 64 592 
f 282 591 594 
f 593 282 594 
f 277 588 590 
f 589 277 590 
f 64 589 592 
f 68 278 613 
f 278 67 614 
f 276 66 615 
f 67 276 614 
f 307 71 618 
f 66 307 621 
f 281 70 623 
f 71 281 618 
f 70 302 623 
f 302 303 620 
f 303 304 621 
f 304 305 615 
f 305 306 616 
f 306 68 613 
f 613 278 614 
f 615 66 622 
f 276 615 616 
f 614 276 617 
f 307 618 619 
f 621 307 620 
f 66 621 622 
f 281 623 618 
f 623 302 619 
f 620 303 621 
f 302 620 619 
f 621 304 622 
f 615 305 616 
f 304 615 622 
f 616 306 617 
f 306 613 617 
f 613 614 617 
f 276 616 617 
f 619 618 623 
f 307 619 620 
f 73 286 72 
f 74 77 283 
f 283 286 73 
f 75 76 284 
f 284 285 74 
f 285 284 76 
f 77 74 285 
f 286 283 77 
f 72 298 73 
f 82 301 298 
f 299 83 82 
f 76 300 299 
f 75 300 76 
f 83 299 300 
f 73 298 301 
f 301 82 83 
f 287 3 595 
f 78 287 595 
f 3 90 595 
f 90 2 596 
f 2 288 598 
f 288 79 600 
f 79 289 600 
f 289 80 600 
f 290 81 598 
f 80 290 600 
f 291 78 595 
f 81 291 596 
f 595 90 597 
f 596 2 599 
f 90 596 597 
f 598 288 601 
f 2 598 599 
f 288 600 601 
f 598 81 599 
f 290 598 601 
f 600 290 601 
f 291 595 597 
f 596 291 597 
f 81 596 599 
f 3 287 602 
f 287 78 603 
f 292 80 604 
f 293 292 605 
f 294 293 607 
f 295 294 609 
f 296 295 610 
f 78 296 603 
f 289 79 612 
f 80 289 604 
f 79 297 612 
f 297 4 607 
f 4 91 609 
f 91 3 602 
f 602 287 603 
f 292 604 605 
f 293 605 606 
f 607 293 606 
f 294 607 608 
f 609 294 608 
f 295 609 610 
f 296 610 611 
f 603 296 611 
f 289 612 604 
f 612 297 605 
f 607 4 608 
f 297 607 606 
f 609 91 610 
f 4 609 608 
f 91 602 611 
f 602 603 611 
f 605 604 612 
f 606 605 297 
f 611 610 91 
f 298 72 290 
f 82 298 290 
f 286 77 291 
f 72 286 291 
f 285 76 295 
f 77 285 296 
f 299 82 292 
f 76 299 293 
f 81 290 72 
f 290 80 82 
f 80 292 82 
f 292 293 299 
f 293 294 76 
f 294 295 76 
f 295 296 285 
f 296 78 77 
f 78 291 77 
f 291 81 72 
f 73 301 280 
f 301 83 280 
f 83 300 302 
f 300 75 303 
f 75 284 305 
f 284 74 306 
f 74 283 68 
f 283 73 279 
f 280 69 73 
f 70 280 83 
f 279 68 283 
f 69 279 73 
f 302 70 83 
f 303 302 300 
f 304 303 75 
f 305 304 75 
f 306 305 284 
f 68 306 74 
f 314 84 635 
f 315 314 636 
f 316 315 637 
f 317 316 638 
f 318 317 639 
f 57 318 640 
f 319 55 642 
f 320 319 642 
f 321 320 643 
f 322 321 644 
f 323 322 646 
f 84 323 635 
f 258 57 641 
f 259 258 647 
f 260 259 648 
f 261 260 649 
f 262 261 650 
f 263 262 651 
f 264 263 652 
f 265 264 653 
f 266 265 654 
f 267 266 655 
f 268 267 656 
f 55 268 657 
f 63 273 658 
f 273 62 660 
f 62 309 662 
f 309 310 663 
f 310 311 664 
f 311 312 665 
f 312 313 666 
f 313 58 667 
f 58 274 668 
f 274 63 659 
f 314 635 636 
f 315 636 637 
f 316 637 638 
f 317 638 639 
f 318 639 640 
f 57 640 641 
f 642 55 657 
f 320 642 643 
f 321 643 644 
f 322 644 645 
f 646 322 645 
f 323 646 635 
f 258 641 647 
f 259 647 648 
f 260 648 649 
f 261 649 650 
f 262 650 651 
f 263 651 652 
f 264 652 653 
f 265 653 654 
f 266 654 655 
f 267 655 656 
f 268 656 657 
f 658 273 661 
f 63 658 659 
f 660 62 662 
f 273 660 661 
f 662 309 663 
f 663 310 664 
f 664 311 665 
f 665 312 666 
f 666 313 667 
f 667 58 669 
f 668 274 670 
f 58 668 669 
f 274 659 670 
f 636 635 658 
f 637 636 661 
f 638 637 661 
f 639 638 660 
f 640 639 671 
f 641 640 671 
f 642 657 669 
f 643 642 668 
f 644 643 668 
f 645 644 668 
f 646 645 659 
f 635 646 659 
f 647 641 672 
f 648 647 672 
f 649 648 673 
f 650 649 673 
f 651 650 674 
f 652 651 674 
f 653 652 675 
f 654 653 675 
f 655 654 676 
f 656 655 677 
f 657 656 677 
f 658 661 636 
f 659 658 635 
f 660 662 671 
f 661 660 638 
f 662 663 672 
f 663 664 673 
f 664 665 674 
f 665 666 675 
f 666 667 676 
f 667 669 677 
f 668 670 645 
f 669 668 642 
f 670 659 645 
f 639 660 671 
f 641 671 672 
f 669 657 677 
f 648 672 673 
f 650 673 674 
f 652 674 675 
f 654 675 676 
f 655 676 677 
f 671 662 672 
f 672 663 673 
f 673 664 674 
f 674 665 675 
f 675 666 676 
f 676 667 677 
f 85 336 43 
f 336 337 197 
f 337 338 198 
f 338 339 199 
f 339 340 200 
f 340 48 44 
f 48 206 44 
f 206 207 346 
f 207 208 347 
f 208 209 348 
f 209 210 349 
f 210 211 350 
f 211 212 350 
f 212 213 351 
f 213 214 352 
f 214 215 353 
f 215 216 354 
f 216 47 42 
f 47 341 42 
f 341 342 193 
f 342 343 194 
f 343 344 195 
f 344 345 196 
f 345 85 43 
f 197 43 336 
f 198 197 337 
f 199 198 338 
f 200 199 339 
f 44 200 340 
f 193 42 341 
f 194 193 342 
f 195 194 343 
f 196 195 344 
f 43 196 345 
f 346 44 206 
f 347 346 207 
f 348 347 208 
f 349 348 209 
f 350 349 210 
f 351 350 212 
f 352 351 213 
f 353 352 214 
f 354 353 215 
f 42 354 216 
f 86 361 30 
f 361 362 163 
f 362 363 164 
f 363 35 31 
f 35 169 31 
f 169 170 367 
f 170 171 368 
f 171 172 369 
f 172 173 370 
f 173 174 371 
f 174 175 372 
f 175 34 29 
f 34 364 29 
f 364 365 159 
f 365 366 161 
f 366 86 30 
f 162 30 361 
f 163 162 361 
f 164 163 362 
f 31 164 363 
f 159 29 364 
f 160 159 365 
f 161 160 365 
f 30 161 366 
f 367 31 169 
f 368 367 170 
f 369 368 171 
f 370 369 172 
f 371 370 173 
f 372 371 174 
f 29 372 175 
f 383 87 138 
f 384 383 138 
f 385 384 139 
f 18 385 140 
f 386 16 19 
f 387 386 141 
f 388 387 143 
f 87 388 143 
f 124 18 23 
f 125 124 377 
f 126 125 378 
f 127 126 379 
f 128 127 380 
f 129 128 380 
f 130 129 381 
f 131 130 382 
f 16 131 19 
f 24 138 87 
f 138 139 384 
f 139 140 385 
f 140 23 18 
f 23 377 124 
f 377 378 125 
f 378 379 126 
f 379 380 127 
f 380 381 129 
f 381 382 130 
f 382 19 131 
f 19 141 386 
f 141 142 387 
f 142 143 387 
f 143 24 87 
f 11 397 843 
f 397 398 843 
f 398 399 845 
f 399 400 845 
f 400 88 846 
f 88 393 846 
f 393 394 847 
f 394 395 847 
f 395 396 848 
f 396 13 848 
f 13 105 849 
f 105 106 849 
f 106 107 850 
f 107 108 850 
f 108 12 851 
f 12 101 851 
f 101 102 852 
f 102 103 852 
f 103 104 853 
f 104 11 844 
f 11 843 844 
f 843 398 845 
f 845 400 846 
f 846 393 847 
f 847 395 848 
f 848 13 849 
f 849 106 850 
f 850 108 851 
f 851 101 852 
f 852 103 853 
f 853 104 844 
f 844 843 855 
f 843 845 854 
f 845 846 856 
f 846 847 857 
f 847 848 858 
f 848 849 859 
f 849 850 860 
f 850 851 861 
f 851 852 862 
f 852 853 862 
f 853 844 855 
f 855 843 854 
f 854 845 856 
f 856 846 857 
f 857 847 858 
f 858 848 859 
f 859 849 860 
f 860 850 861 
f 861 851 862 
f 862 853 855 
f 855 854 864 
f 854 856 863 
f 856 857 863 
f 857 858 863 
f 858 859 865 
f 859 860 865 
f 860 861 865 
f 861 862 864 
f 862 855 864 
f 864 854 863 
f 863 858 865 
f 865 861 864 
f 864 863 865 
f 401 89 875 
f 9 401 876 
f 402 7 877 
f 89 402 875 
f 97 9 876 
f 98 97 876 
f 99 98 877 
f 7 99 877 
f 401 875 876 
f 402 877 875 
f 98 876 877 
f 876 875 877 
f 866 878 79 
f 297 878 93 
f 870 879 288 
f 79 879 866 
f 3 880 873 
f 868 880 91 
f 3 881 90 
f 867 881 873 
f 93 882 297 
f 4 882 874 
f 91 883 868 
f 874 883 4 
f 872 884 2 
f 288 884 870 
f 2 885 872 
f 867 885 90 
f 88 886 415 
f 414 886 400 
f 400 887 414 
f 416 887 399 
f 399 888 416 
f 413 888 398 
f 397 889 398 
f 413 889 417 
f 395 890 396 
f 418 890 419 
f 395 891 419 
f 421 891 394 
f 394 892 421 
f 420 892 393 
f 393 893 420 
f 415 893 88 
f 114 894 818 
f 123 894 389 
f 818 895 819 
f 17 895 123 
f 820 896 822 
f 423 896 15 
f 825 897 10 
f 426 897 431 
f 10 898 117 
f 118 898 426 
f 116 899 820 
f 15 899 826 
f 819 900 116 
f 826 900 17 
f 822 901 825 
f 431 901 423 
f 137 902 806 
f 449 902 132 
f 807 903 449 
f 806 903 808 
f 147 904 135 
f 144 904 146 
f 152 905 150 
f 135 905 147 
f 815 906 137 
f 132 906 814 
f 20 907 133 
f 807 907 808 
f 787 908 788 
f 146 908 144 
f 785 909 150 
f 152 909 786 
f 485 910 483 
f 816 910 815 
f 485 911 787 
f 136 911 483 
f 167 912 485 
f 815 912 814 
f 167 913 788 
f 787 913 485 
f 167 914 814 
f 805 914 158 
f 167 915 158 
f 795 915 788 
f 154 916 20 
f 148 916 165 
f 154 917 165 
f 796 917 785 
f 155 918 133 
f 20 918 154 
f 155 919 154 
f 785 919 786 
f 155 920 373 
f 149 920 133 
f 155 921 786 
f 790 921 373 
f 809 922 449 
f 807 922 810 
f 813 923 132 
f 449 923 809 
f 793 924 792 
f 152 924 147 
f 789 925 793 
f 147 925 146 
f 814 926 132 
f 813 926 805 
f 133 927 149 
f 810 927 807 
f 789 928 146 
f 788 928 795 
f 786 929 152 
f 792 929 790 
f 473 930 816 
f 483 930 775 
f 483 931 136 
f 157 931 775 
f 165 932 148 
f 474 932 777 
f 165 933 777 
f 480 933 796 
f 812 934 137 
f 815 934 816 
f 811 935 806 
f 137 935 812 
f 134 936 808 
f 806 936 811 
f 20 937 808 
f 134 937 148 
f 375 938 135 
f 150 938 153 
f 22 939 144 
f 135 939 375 
f 787 940 144 
f 22 940 136 
f 785 941 796 
f 153 941 150 
f 156 942 812 
f 816 942 473 
f 774 943 811 
f 812 943 156 
f 475 944 474 
f 148 944 134 
f 476 945 153 
f 796 945 480 
f 776 946 375 
f 153 946 476 
f 157 947 136 
f 22 947 478 
f 475 948 134 
f 811 948 774 
f 478 949 22 
f 375 949 776 
f 783 950 793 
f 789 950 28 
f 784 951 809 
f 810 951 778 
f 783 952 782 
f 792 952 793 
f 158 953 805 
f 481 953 773 
f 32 954 795 
f 158 954 773 
f 484 955 813 
f 809 955 784 
f 373 956 27 
f 780 956 149 
f 373 957 790 
f 779 957 27 
f 481 958 805 
f 813 958 484 
f 32 959 28 
f 789 959 795 
f 780 960 778 
f 810 960 149 
f 779 961 790 
f 792 961 782 
f 203 962 510 
f 507 962 515 
f 192 963 504 
f 510 963 203 
f 749 964 201 
f 186 964 751 
f 965 751 989 
f 965 188 985 
f 966 754 990 
f 966 357 986 
f 756 967 357 
f 40 967 755 
f 968 190 980 
f 968 742 992 
f 513 969 744 
f 757 969 190 
f 515 970 507 
f 752 970 741 
f 971 750 1008 
f 971 748 996 
f 972 755 1004 
f 972 187 999 
f 506 973 742 
f 356 973 187 
f 746 974 745 
f 504 974 192 
f 975 201 1003 
f 975 745 1001 
f 741 976 752 
f 744 976 513 
f 977 753 1009 
f 977 355 997 
f 488 978 507 
f 962 978 510 
f 490 979 510 
f 963 979 504 
f 767 980 190 
f 968 980 506 
f 969 981 190 
f 770 981 513 
f 962 982 515 
f 182 982 203 
f 963 983 203 
f 184 983 192 
f 964 984 201 
f 358 984 186 
f 36 985 188 
f 965 985 186 
f 759 986 357 
f 966 986 355 
f 967 987 357 
f 762 987 40 
f 496 988 749 
f 964 988 751 
f 498 989 751 
f 965 989 750 
f 511 990 754 
f 966 990 756 
f 516 991 756 
f 967 991 755 
f 502 992 742 
f 968 992 757 
f 191 993 757 
f 969 993 744 
f 976 994 513 
f 772 994 741 
f 970 995 741 
f 181 995 515 
f 509 996 748 
f 971 996 188 
f 764 997 355 
f 977 997 748 
f 973 998 187 
f 176 998 506 
f 763 999 187 
f 972 999 40 
f 492 1000 504 
f 974 1000 745 
f 494 1001 745 
f 975 1001 749 
f 974 1002 192 
f 177 1002 746 
f 179 1003 201 
f 975 1003 746 
f 517 1004 755 
f 972 1004 356 
f 189 1005 356 
f 973 1005 742 
f 487 1006 752 
f 970 1006 507 
f 508 1007 744 
f 976 1007 752 
f 500 1008 750 
f 971 1008 753 
f 38 1009 753 
f 977 1009 754 
